M48
;DRILL file {KiCad 5.0.0-rc2-be01b52~65~ubuntu18.04.1} date Sat Jun  9 19:25:26 2018
;FORMAT={-:-/ absolute / metric / decimal}
FMAT,2
METRIC,TZ
T1C0.400
T2C0.800
T3C0.900
T4C1.000
%
G90
G05
M71
T1
X43.974Y-84.898
X44.26Y-89.15
X44.26Y-90.199
X44.477Y-56.204
X46.326Y-52.37
X46.937Y-79.559
X47.718Y-60.372
X49.56Y-70.402
X49.942Y-57.111
X50.783Y-65.601
X57.285Y-101.986
X58.616Y-96.559
X58.789Y-109.518
X59.561Y-106.686
X59.989Y-94.789
X60.107Y-100.69
X63.891Y-112.169
X64.747Y-103.943
X70.209Y-67.33
X72.255Y-85.539
X72.954Y-82.472
X72.991Y-90.643
X73.582Y-66.142
X74.184Y-86.874
X74.596Y-108.333
X74.748Y-74.002
X76.251Y-79.73
X77.206Y-62.16
X79.838Y-87.955
X82.718Y-70.441
X85.243Y-79.858
X85.701Y-61.634
X94.684Y-79.997
X97.794Y-82.972
X102.472Y-102.691
X111.162Y-78.24
T2
X68.58Y-85.09
X68.58Y-87.63
X68.58Y-90.17
X68.58Y-92.71
X68.58Y-95.25
X68.58Y-97.79
X68.58Y-100.33
X68.58Y-102.87
X68.58Y-105.41
X68.58Y-107.95
X68.58Y-110.49
X68.58Y-113.03
X68.58Y-115.57
X68.58Y-118.11
X83.82Y-85.09
X83.82Y-87.63
X83.82Y-90.17
X83.82Y-92.71
X83.82Y-95.25
X83.82Y-97.79
X83.82Y-100.33
X83.82Y-102.87
X83.82Y-105.41
X83.82Y-107.95
X83.82Y-110.49
X83.82Y-113.03
X83.82Y-115.57
X83.82Y-118.11
X53.34Y-59.69
X53.34Y-67.31
X55.88Y-59.69
X55.88Y-67.31
X58.42Y-59.69
X58.42Y-67.31
X60.96Y-59.69
X60.96Y-67.31
X63.5Y-59.69
X63.5Y-67.31
X66.04Y-59.69
X66.04Y-67.31
X68.58Y-59.69
X68.58Y-67.31
X113.03Y-88.94
X113.03Y-91.44
X116.84Y-41.91
X124.46Y-41.91
X43.18Y-96.52
X43.18Y-99.02
X77.47Y-59.69
X77.47Y-67.31
X116.84Y-72.39
X124.46Y-72.39
X73.025Y-74.93
X73.025Y-77.43
X116.84Y-76.2
X116.84Y-78.74
X116.84Y-81.28
X116.84Y-83.82
X116.84Y-86.36
X116.84Y-88.9
X116.84Y-91.44
X124.46Y-76.2
X124.46Y-78.74
X124.46Y-81.28
X124.46Y-83.82
X124.46Y-86.36
X124.46Y-88.9
X124.46Y-91.44
X72.39Y-62.27
X72.39Y-64.77
X54.61Y-87.63
X54.61Y-90.17
X54.61Y-92.71
X54.61Y-95.25
X54.61Y-97.79
X54.61Y-100.33
X54.61Y-102.87
X54.61Y-105.41
X54.61Y-107.95
X54.61Y-110.49
X54.61Y-113.03
X54.61Y-115.57
X62.23Y-87.63
X62.23Y-90.17
X62.23Y-92.71
X62.23Y-95.25
X62.23Y-97.79
X62.23Y-100.33
X62.23Y-102.87
X62.23Y-105.41
X62.23Y-107.95
X62.23Y-110.49
X62.23Y-113.03
X62.23Y-115.57
X53.34Y-72.39
X53.34Y-80.01
X55.88Y-72.39
X55.88Y-80.01
X58.42Y-72.39
X58.42Y-80.01
X60.96Y-72.39
X60.96Y-80.01
X63.5Y-72.39
X63.5Y-80.01
X66.04Y-72.39
X66.04Y-80.01
X68.58Y-72.39
X68.58Y-80.01
X43.18Y-78.74
X43.18Y-86.36
X116.84Y-53.34
X116.84Y-55.88
X116.84Y-58.42
X116.84Y-60.96
X116.84Y-63.5
X116.84Y-66.04
X116.84Y-68.58
X124.46Y-53.34
X124.46Y-55.88
X124.46Y-58.42
X124.46Y-60.96
X124.46Y-63.5
X124.46Y-66.04
X124.46Y-68.58
X49.53Y-72.39
X49.53Y-80.01
X54.61Y-119.38
X62.23Y-119.38
X49.53Y-59.69
X49.53Y-67.31
X113.03Y-78.74
X113.03Y-86.36
X52.07Y-83.82
X54.57Y-83.82
X113.03Y-66.08
X113.03Y-68.58
X113.03Y-115.61
X113.03Y-118.11
X116.84Y-49.53
X124.46Y-49.53
X93.98Y-85.09
X93.98Y-87.63
X93.98Y-90.17
X93.98Y-92.71
X93.98Y-95.25
X93.98Y-97.79
X93.98Y-100.33
X93.98Y-102.87
X93.98Y-105.41
X93.98Y-107.95
X93.98Y-110.49
X93.98Y-113.03
X93.98Y-115.57
X93.98Y-118.11
X109.22Y-85.09
X109.22Y-87.63
X109.22Y-90.17
X109.22Y-92.71
X109.22Y-95.25
X109.22Y-97.79
X109.22Y-100.33
X109.22Y-102.87
X109.22Y-105.41
X109.22Y-107.95
X109.22Y-110.49
X109.22Y-113.03
X109.22Y-115.57
X109.22Y-118.11
X116.84Y-95.25
X116.84Y-97.79
X116.84Y-100.33
X116.84Y-102.87
X116.84Y-105.41
X116.84Y-107.95
X116.84Y-110.49
X116.84Y-113.03
X116.84Y-115.57
X116.84Y-118.11
X124.46Y-95.25
X124.46Y-97.79
X124.46Y-100.33
X124.46Y-102.87
X124.46Y-105.41
X124.46Y-107.95
X124.46Y-110.49
X124.46Y-113.03
X124.46Y-115.57
X124.46Y-118.11
X74.93Y-81.28
X77.43Y-81.28
X81.28Y-61.595
X81.28Y-64.135
X81.28Y-66.675
X81.28Y-69.215
X81.28Y-71.755
X81.28Y-74.295
X81.28Y-76.835
X81.28Y-79.375
X88.9Y-61.595
X88.9Y-64.135
X88.9Y-66.675
X88.9Y-69.215
X88.9Y-71.755
X88.9Y-74.295
X88.9Y-76.835
X88.9Y-79.375
X104.18Y-81.28
X106.68Y-81.28
X87.63Y-54.61
X87.63Y-57.11
X74.93Y-53.34
X74.93Y-55.84
X67.31Y-41.95
X67.31Y-44.45
X106.045Y-40.64
X108.545Y-40.64
X81.28Y-55.92
X81.28Y-58.42
X116.84Y-45.72
X124.46Y-45.72
X43.18Y-58.42
X43.18Y-66.04
X62.23Y-83.82
X64.73Y-83.82
X60.96Y-41.91
X60.96Y-44.41
X93.98Y-44.45
X93.98Y-46.99
X93.98Y-49.53
X93.98Y-52.07
X93.98Y-54.61
X93.98Y-57.15
X93.98Y-59.69
X93.98Y-62.23
X93.98Y-64.77
X93.98Y-67.31
X93.98Y-69.85
X93.98Y-72.39
X93.98Y-74.93
X93.98Y-77.47
X109.22Y-44.45
X109.22Y-46.99
X109.22Y-49.53
X109.22Y-52.07
X109.22Y-54.61
X109.22Y-57.15
X109.22Y-59.69
X109.22Y-62.23
X109.22Y-64.77
X109.22Y-67.31
X109.22Y-69.85
X109.22Y-72.39
X109.22Y-74.93
X109.22Y-77.47
X64.81Y-49.53
X67.31Y-49.53
X62.41Y-54.61
X67.31Y-54.61
X43.18Y-104.14
X43.18Y-111.76
T3
X48.26Y-116.84
X48.26Y-119.38
T4
X129.54Y-39.37
X129.54Y-41.91
X129.54Y-44.45
X129.54Y-46.99
X129.54Y-49.53
X129.54Y-52.07
X129.54Y-54.61
X129.54Y-57.15
X129.54Y-59.69
X129.54Y-62.23
X129.54Y-64.77
X129.54Y-67.31
X129.54Y-69.85
X129.54Y-72.39
X129.54Y-74.93
X129.54Y-77.47
X129.54Y-80.01
X132.08Y-39.37
X132.08Y-41.91
X132.08Y-44.45
X132.08Y-46.99
X132.08Y-49.53
X132.08Y-52.07
X132.08Y-54.61
X132.08Y-57.15
X132.08Y-59.69
X132.08Y-62.23
X132.08Y-64.77
X132.08Y-67.31
X132.08Y-69.85
X132.08Y-72.39
X132.08Y-74.93
X132.08Y-77.47
X132.08Y-80.01
X71.12Y-41.91
X71.12Y-44.45
X71.12Y-46.99
X43.18Y-69.85
X43.18Y-72.39
X43.18Y-74.93
X129.54Y-91.44
X129.54Y-93.98
X129.54Y-96.52
X129.54Y-99.06
X129.54Y-101.6
X129.54Y-104.14
X129.54Y-106.68
X129.54Y-109.22
X129.54Y-111.76
X129.54Y-114.3
X129.54Y-116.84
X129.54Y-119.38
X129.54Y-121.92
X132.08Y-91.44
X132.08Y-93.98
X132.08Y-96.52
X132.08Y-99.06
X132.08Y-101.6
X132.08Y-104.14
X132.08Y-106.68
X132.08Y-109.22
X132.08Y-111.76
X132.08Y-114.3
X132.08Y-116.84
X132.08Y-119.38
X132.08Y-121.92
X48.11Y-48.84
X48.11Y-53.34
X54.61Y-48.84
X54.61Y-53.34
T0
M30
