G04 #@! TF.GenerationSoftware,KiCad,Pcbnew,5.0.0-rc2-be01b52~65~ubuntu18.04.1*
G04 #@! TF.CreationDate,2018-06-09T19:25:23+04:00*
G04 #@! TF.ProjectId,plusd,706C7573642E6B696361645F70636200,rev?*
G04 #@! TF.SameCoordinates,Original*
G04 #@! TF.FileFunction,Legend,Top*
G04 #@! TF.FilePolarity,Positive*
%FSLAX46Y46*%
G04 Gerber Fmt 4.6, Leading zero omitted, Abs format (unit mm)*
G04 Created by KiCad (PCBNEW 5.0.0-rc2-be01b52~65~ubuntu18.04.1) date Sat Jun  9 19:25:23 2018*
%MOMM*%
%LPD*%
G01*
G04 APERTURE LIST*
%ADD10C,0.300000*%
%ADD11C,0.250000*%
%ADD12C,0.120000*%
%ADD13C,0.150000*%
%ADD14C,0.304800*%
G04 APERTURE END LIST*
D10*
X51396428Y-40180000D02*
X52896428Y-40180000D01*
X51825000Y-40680000D01*
X52896428Y-41180000D01*
X51396428Y-41180000D01*
X51825000Y-41822857D02*
X51825000Y-42537142D01*
X51396428Y-41680000D02*
X52896428Y-42180000D01*
X51396428Y-42680000D01*
X52825000Y-43965714D02*
X52896428Y-43822857D01*
X52896428Y-43608571D01*
X52825000Y-43394285D01*
X52682142Y-43251428D01*
X52539285Y-43180000D01*
X52253571Y-43108571D01*
X52039285Y-43108571D01*
X51753571Y-43180000D01*
X51610714Y-43251428D01*
X51467857Y-43394285D01*
X51396428Y-43608571D01*
X51396428Y-43751428D01*
X51467857Y-43965714D01*
X51539285Y-44037142D01*
X52039285Y-44037142D01*
X52039285Y-43751428D01*
X51396428Y-44680000D02*
X52896428Y-44680000D01*
X51539285Y-46251428D02*
X51467857Y-46180000D01*
X51396428Y-45965714D01*
X51396428Y-45822857D01*
X51467857Y-45608571D01*
X51610714Y-45465714D01*
X51753571Y-45394285D01*
X52039285Y-45322857D01*
X52253571Y-45322857D01*
X52539285Y-45394285D01*
X52682142Y-45465714D01*
X52825000Y-45608571D01*
X52896428Y-45822857D01*
X52896428Y-45965714D01*
X52825000Y-46180000D01*
X52753571Y-46251428D01*
X49632142Y-39787142D02*
X49560714Y-40001428D01*
X49489285Y-40072857D01*
X49346428Y-40144285D01*
X49132142Y-40144285D01*
X48989285Y-40072857D01*
X48917857Y-40001428D01*
X48846428Y-39858571D01*
X48846428Y-39287142D01*
X50346428Y-39287142D01*
X50346428Y-39787142D01*
X50275000Y-39930000D01*
X50203571Y-40001428D01*
X50060714Y-40072857D01*
X49917857Y-40072857D01*
X49775000Y-40001428D01*
X49703571Y-39930000D01*
X49632142Y-39787142D01*
X49632142Y-39287142D01*
X50346428Y-40787142D02*
X49132142Y-40787142D01*
X48989285Y-40858571D01*
X48917857Y-40930000D01*
X48846428Y-41072857D01*
X48846428Y-41358571D01*
X48917857Y-41501428D01*
X48989285Y-41572857D01*
X49132142Y-41644285D01*
X50346428Y-41644285D01*
X50346428Y-42144285D02*
X50346428Y-43001428D01*
X48846428Y-42572857D02*
X50346428Y-42572857D01*
X50346428Y-43287142D02*
X50346428Y-44144285D01*
X48846428Y-43715714D02*
X50346428Y-43715714D01*
X50346428Y-44930000D02*
X50346428Y-45215714D01*
X50275000Y-45358571D01*
X50132142Y-45501428D01*
X49846428Y-45572857D01*
X49346428Y-45572857D01*
X49060714Y-45501428D01*
X48917857Y-45358571D01*
X48846428Y-45215714D01*
X48846428Y-44930000D01*
X48917857Y-44787142D01*
X49060714Y-44644285D01*
X49346428Y-44572857D01*
X49846428Y-44572857D01*
X50132142Y-44644285D01*
X50275000Y-44787142D01*
X50346428Y-44930000D01*
X48846428Y-46215714D02*
X50346428Y-46215714D01*
X48846428Y-47072857D01*
X50346428Y-47072857D01*
D11*
X45630714Y-63596428D02*
X45630714Y-64358333D01*
X45154523Y-63977380D02*
X46106904Y-63977380D01*
X46285476Y-64786904D02*
X46345000Y-64834523D01*
X46404523Y-64929761D01*
X46404523Y-65167857D01*
X46345000Y-65263095D01*
X46285476Y-65310714D01*
X46166428Y-65358333D01*
X46047380Y-65358333D01*
X45868809Y-65310714D01*
X45154523Y-64739285D01*
X45154523Y-65358333D01*
X45511666Y-65739285D02*
X45511666Y-66215476D01*
X45154523Y-65644047D02*
X46404523Y-65977380D01*
X45154523Y-66310714D01*
X46464047Y-67358333D02*
X44856904Y-66501190D01*
X45630714Y-67691666D02*
X45630714Y-68453571D01*
X45154523Y-68072619D02*
X46106904Y-68072619D01*
X46404523Y-68834523D02*
X46404523Y-69453571D01*
X45928333Y-69120238D01*
X45928333Y-69263095D01*
X45868809Y-69358333D01*
X45809285Y-69405952D01*
X45690238Y-69453571D01*
X45392619Y-69453571D01*
X45273571Y-69405952D01*
X45214047Y-69358333D01*
X45154523Y-69263095D01*
X45154523Y-68977380D01*
X45214047Y-68882142D01*
X45273571Y-68834523D01*
X45987857Y-71405952D02*
X45630714Y-70644047D01*
X45273571Y-71405952D01*
X45630714Y-71882142D02*
X45630714Y-72644047D01*
X45987857Y-73120238D02*
X45630714Y-73882142D01*
X45273571Y-73120238D01*
X45987857Y-75548809D02*
X45154523Y-75548809D01*
X46464047Y-75310714D02*
X45571190Y-75072619D01*
X45571190Y-75691666D01*
X45868809Y-76215476D02*
X45928333Y-76120238D01*
X45987857Y-76072619D01*
X46106904Y-76025000D01*
X46166428Y-76025000D01*
X46285476Y-76072619D01*
X46345000Y-76120238D01*
X46404523Y-76215476D01*
X46404523Y-76405952D01*
X46345000Y-76501190D01*
X46285476Y-76548809D01*
X46166428Y-76596428D01*
X46106904Y-76596428D01*
X45987857Y-76548809D01*
X45928333Y-76501190D01*
X45868809Y-76405952D01*
X45868809Y-76215476D01*
X45809285Y-76120238D01*
X45749761Y-76072619D01*
X45630714Y-76025000D01*
X45392619Y-76025000D01*
X45273571Y-76072619D01*
X45214047Y-76120238D01*
X45154523Y-76215476D01*
X45154523Y-76405952D01*
X45214047Y-76501190D01*
X45273571Y-76548809D01*
X45392619Y-76596428D01*
X45630714Y-76596428D01*
X45749761Y-76548809D01*
X45809285Y-76501190D01*
X45868809Y-76405952D01*
X45154523Y-77025000D02*
X46404523Y-77025000D01*
X45154523Y-77596428D02*
X45868809Y-77167857D01*
X46404523Y-77596428D02*
X45690238Y-77025000D01*
X46464047Y-78739285D02*
X44856904Y-77882142D01*
X45154523Y-79596428D02*
X45154523Y-79025000D01*
X45154523Y-79310714D02*
X46404523Y-79310714D01*
X46225952Y-79215476D01*
X46106904Y-79120238D01*
X46047380Y-79025000D01*
X46285476Y-79977380D02*
X46345000Y-80025000D01*
X46404523Y-80120238D01*
X46404523Y-80358333D01*
X46345000Y-80453571D01*
X46285476Y-80501190D01*
X46166428Y-80548809D01*
X46047380Y-80548809D01*
X45868809Y-80501190D01*
X45154523Y-79929761D01*
X45154523Y-80548809D01*
X45868809Y-81120238D02*
X45928333Y-81025000D01*
X45987857Y-80977380D01*
X46106904Y-80929761D01*
X46166428Y-80929761D01*
X46285476Y-80977380D01*
X46345000Y-81025000D01*
X46404523Y-81120238D01*
X46404523Y-81310714D01*
X46345000Y-81405952D01*
X46285476Y-81453571D01*
X46166428Y-81501190D01*
X46106904Y-81501190D01*
X45987857Y-81453571D01*
X45928333Y-81405952D01*
X45868809Y-81310714D01*
X45868809Y-81120238D01*
X45809285Y-81025000D01*
X45749761Y-80977380D01*
X45630714Y-80929761D01*
X45392619Y-80929761D01*
X45273571Y-80977380D01*
X45214047Y-81025000D01*
X45154523Y-81120238D01*
X45154523Y-81310714D01*
X45214047Y-81405952D01*
X45273571Y-81453571D01*
X45392619Y-81501190D01*
X45630714Y-81501190D01*
X45749761Y-81453571D01*
X45809285Y-81405952D01*
X45868809Y-81310714D01*
X45154523Y-81929761D02*
X46404523Y-81929761D01*
X45154523Y-82501190D02*
X45868809Y-82072619D01*
X46404523Y-82501190D02*
X45690238Y-81929761D01*
D10*
X48793000Y-99239142D02*
X48864428Y-99167714D01*
X49078714Y-99024857D01*
X49221571Y-98953428D01*
X49435857Y-98882000D01*
X49793000Y-98810571D01*
X50078714Y-98810571D01*
X50435857Y-98882000D01*
X50650142Y-98953428D01*
X50793000Y-99024857D01*
X51007285Y-99167714D01*
X51078714Y-99239142D01*
X49507285Y-100667714D02*
X49435857Y-100596285D01*
X49364428Y-100382000D01*
X49364428Y-100239142D01*
X49435857Y-100024857D01*
X49578714Y-99882000D01*
X49721571Y-99810571D01*
X50007285Y-99739142D01*
X50221571Y-99739142D01*
X50507285Y-99810571D01*
X50650142Y-99882000D01*
X50793000Y-100024857D01*
X50864428Y-100239142D01*
X50864428Y-100382000D01*
X50793000Y-100596285D01*
X50721571Y-100667714D01*
X48793000Y-101167714D02*
X48864428Y-101239142D01*
X49078714Y-101382000D01*
X49221571Y-101453428D01*
X49435857Y-101524857D01*
X49793000Y-101596285D01*
X50078714Y-101596285D01*
X50435857Y-101524857D01*
X50650142Y-101453428D01*
X50793000Y-101382000D01*
X51007285Y-101239142D01*
X51078714Y-101167714D01*
X50721571Y-103382000D02*
X50793000Y-103453428D01*
X50864428Y-103596285D01*
X50864428Y-103953428D01*
X50793000Y-104096285D01*
X50721571Y-104167714D01*
X50578714Y-104239142D01*
X50435857Y-104239142D01*
X50221571Y-104167714D01*
X49364428Y-103310571D01*
X49364428Y-104239142D01*
X50864428Y-105167714D02*
X50864428Y-105310571D01*
X50793000Y-105453428D01*
X50721571Y-105524857D01*
X50578714Y-105596285D01*
X50293000Y-105667714D01*
X49935857Y-105667714D01*
X49650142Y-105596285D01*
X49507285Y-105524857D01*
X49435857Y-105453428D01*
X49364428Y-105310571D01*
X49364428Y-105167714D01*
X49435857Y-105024857D01*
X49507285Y-104953428D01*
X49650142Y-104882000D01*
X49935857Y-104810571D01*
X50293000Y-104810571D01*
X50578714Y-104882000D01*
X50721571Y-104953428D01*
X50793000Y-105024857D01*
X50864428Y-105167714D01*
X49364428Y-107096285D02*
X49364428Y-106239142D01*
X49364428Y-106667714D02*
X50864428Y-106667714D01*
X50650142Y-106524857D01*
X50507285Y-106382000D01*
X50435857Y-106239142D01*
X50221571Y-107953428D02*
X50293000Y-107810571D01*
X50364428Y-107739142D01*
X50507285Y-107667714D01*
X50578714Y-107667714D01*
X50721571Y-107739142D01*
X50793000Y-107810571D01*
X50864428Y-107953428D01*
X50864428Y-108239142D01*
X50793000Y-108382000D01*
X50721571Y-108453428D01*
X50578714Y-108524857D01*
X50507285Y-108524857D01*
X50364428Y-108453428D01*
X50293000Y-108382000D01*
X50221571Y-108239142D01*
X50221571Y-107953428D01*
X50150142Y-107810571D01*
X50078714Y-107739142D01*
X49935857Y-107667714D01*
X49650142Y-107667714D01*
X49507285Y-107739142D01*
X49435857Y-107810571D01*
X49364428Y-107953428D01*
X49364428Y-108239142D01*
X49435857Y-108382000D01*
X49507285Y-108453428D01*
X49650142Y-108524857D01*
X49935857Y-108524857D01*
X50078714Y-108453428D01*
X50150142Y-108382000D01*
X50221571Y-108239142D01*
X46814428Y-95203428D02*
X48314428Y-95203428D01*
X48314428Y-95774857D01*
X48243000Y-95917714D01*
X48171571Y-95989142D01*
X48028714Y-96060571D01*
X47814428Y-96060571D01*
X47671571Y-95989142D01*
X47600142Y-95917714D01*
X47528714Y-95774857D01*
X47528714Y-95203428D01*
X46957285Y-97560571D02*
X46885857Y-97489142D01*
X46814428Y-97274857D01*
X46814428Y-97132000D01*
X46885857Y-96917714D01*
X47028714Y-96774857D01*
X47171571Y-96703428D01*
X47457285Y-96632000D01*
X47671571Y-96632000D01*
X47957285Y-96703428D01*
X48100142Y-96774857D01*
X48243000Y-96917714D01*
X48314428Y-97132000D01*
X48314428Y-97274857D01*
X48243000Y-97489142D01*
X48171571Y-97560571D01*
X47600142Y-98703428D02*
X47528714Y-98917714D01*
X47457285Y-98989142D01*
X47314428Y-99060571D01*
X47100142Y-99060571D01*
X46957285Y-98989142D01*
X46885857Y-98917714D01*
X46814428Y-98774857D01*
X46814428Y-98203428D01*
X48314428Y-98203428D01*
X48314428Y-98703428D01*
X48243000Y-98846285D01*
X48171571Y-98917714D01*
X48028714Y-98989142D01*
X47885857Y-98989142D01*
X47743000Y-98917714D01*
X47671571Y-98846285D01*
X47600142Y-98703428D01*
X47600142Y-98203428D01*
X46814428Y-100846285D02*
X48314428Y-100846285D01*
X47743000Y-100846285D02*
X47814428Y-100989142D01*
X47814428Y-101274857D01*
X47743000Y-101417714D01*
X47671571Y-101489142D01*
X47528714Y-101560571D01*
X47100142Y-101560571D01*
X46957285Y-101489142D01*
X46885857Y-101417714D01*
X46814428Y-101274857D01*
X46814428Y-100989142D01*
X46885857Y-100846285D01*
X47814428Y-102060571D02*
X46814428Y-102417714D01*
X47814428Y-102774857D02*
X46814428Y-102417714D01*
X46457285Y-102274857D01*
X46385857Y-102203428D01*
X46314428Y-102060571D01*
X47243000Y-104417714D02*
X47243000Y-105132000D01*
X46814428Y-104274857D02*
X48314428Y-104774857D01*
X46814428Y-105274857D01*
X46957285Y-105774857D02*
X46885857Y-105846285D01*
X46814428Y-105774857D01*
X46885857Y-105703428D01*
X46957285Y-105774857D01*
X46814428Y-105774857D01*
X47243000Y-107560571D02*
X47243000Y-108274857D01*
X46814428Y-107417714D02*
X48314428Y-107917714D01*
X46814428Y-108417714D01*
X46814428Y-109632000D02*
X46814428Y-108917714D01*
X48314428Y-108917714D01*
X47600142Y-110132000D02*
X47600142Y-110632000D01*
X46814428Y-110846285D02*
X46814428Y-110132000D01*
X48314428Y-110132000D01*
X48314428Y-110846285D01*
X47243000Y-111417714D02*
X47243000Y-112132000D01*
X46814428Y-111274857D02*
X48314428Y-111774857D01*
X46814428Y-112274857D01*
X90067857Y-86103714D02*
X90067857Y-87246571D01*
X89496428Y-86675142D02*
X90639285Y-86675142D01*
X89496428Y-87960857D02*
X90996428Y-87960857D01*
X90996428Y-88318000D01*
X90925000Y-88532285D01*
X90782142Y-88675142D01*
X90639285Y-88746571D01*
X90353571Y-88818000D01*
X90139285Y-88818000D01*
X89853571Y-88746571D01*
X89710714Y-88675142D01*
X89567857Y-88532285D01*
X89496428Y-88318000D01*
X89496428Y-87960857D01*
X89496428Y-90603714D02*
X90996428Y-90603714D01*
X90996428Y-90960857D01*
X90925000Y-91175142D01*
X90782142Y-91318000D01*
X90639285Y-91389428D01*
X90353571Y-91460857D01*
X90139285Y-91460857D01*
X89853571Y-91389428D01*
X89710714Y-91318000D01*
X89567857Y-91175142D01*
X89496428Y-90960857D01*
X89496428Y-90603714D01*
X89496428Y-92103714D02*
X90496428Y-92103714D01*
X90996428Y-92103714D02*
X90925000Y-92032285D01*
X90853571Y-92103714D01*
X90925000Y-92175142D01*
X90996428Y-92103714D01*
X90853571Y-92103714D01*
X89567857Y-92746571D02*
X89496428Y-92889428D01*
X89496428Y-93175142D01*
X89567857Y-93318000D01*
X89710714Y-93389428D01*
X89782142Y-93389428D01*
X89925000Y-93318000D01*
X89996428Y-93175142D01*
X89996428Y-92960857D01*
X90067857Y-92818000D01*
X90210714Y-92746571D01*
X90282142Y-92746571D01*
X90425000Y-92818000D01*
X90496428Y-92960857D01*
X90496428Y-93175142D01*
X90425000Y-93318000D01*
X89496428Y-94032285D02*
X90996428Y-94032285D01*
X90067857Y-94175142D02*
X89496428Y-94603714D01*
X90496428Y-94603714D02*
X89925000Y-94032285D01*
X89496428Y-96389428D02*
X90996428Y-96389428D01*
X90496428Y-97103714D02*
X89496428Y-97103714D01*
X90353571Y-97103714D02*
X90425000Y-97175142D01*
X90496428Y-97318000D01*
X90496428Y-97532285D01*
X90425000Y-97675142D01*
X90282142Y-97746571D01*
X89496428Y-97746571D01*
X90496428Y-98246571D02*
X90496428Y-98818000D01*
X90996428Y-98460857D02*
X89710714Y-98460857D01*
X89567857Y-98532285D01*
X89496428Y-98675142D01*
X89496428Y-98818000D01*
X89567857Y-99889428D02*
X89496428Y-99746571D01*
X89496428Y-99460857D01*
X89567857Y-99318000D01*
X89710714Y-99246571D01*
X90282142Y-99246571D01*
X90425000Y-99318000D01*
X90496428Y-99460857D01*
X90496428Y-99746571D01*
X90425000Y-99889428D01*
X90282142Y-99960857D01*
X90139285Y-99960857D01*
X89996428Y-99246571D01*
X89496428Y-100603714D02*
X90496428Y-100603714D01*
X90210714Y-100603714D02*
X90353571Y-100675142D01*
X90425000Y-100746571D01*
X90496428Y-100889428D01*
X90496428Y-101032285D01*
X90496428Y-101318000D02*
X90496428Y-101889428D01*
X89496428Y-101532285D02*
X90782142Y-101532285D01*
X90925000Y-101603714D01*
X90996428Y-101746571D01*
X90996428Y-101889428D01*
X89496428Y-103032285D02*
X90282142Y-103032285D01*
X90425000Y-102960857D01*
X90496428Y-102818000D01*
X90496428Y-102532285D01*
X90425000Y-102389428D01*
X89567857Y-103032285D02*
X89496428Y-102889428D01*
X89496428Y-102532285D01*
X89567857Y-102389428D01*
X89710714Y-102318000D01*
X89853571Y-102318000D01*
X89996428Y-102389428D01*
X90067857Y-102532285D01*
X90067857Y-102889428D01*
X90139285Y-103032285D01*
X89567857Y-104389428D02*
X89496428Y-104246571D01*
X89496428Y-103960857D01*
X89567857Y-103818000D01*
X89639285Y-103746571D01*
X89782142Y-103675142D01*
X90210714Y-103675142D01*
X90353571Y-103746571D01*
X90425000Y-103818000D01*
X90496428Y-103960857D01*
X90496428Y-104246571D01*
X90425000Y-104389428D01*
X89567857Y-105603714D02*
X89496428Y-105460857D01*
X89496428Y-105175142D01*
X89567857Y-105032285D01*
X89710714Y-104960857D01*
X90282142Y-104960857D01*
X90425000Y-105032285D01*
X90496428Y-105175142D01*
X90496428Y-105460857D01*
X90425000Y-105603714D01*
X90282142Y-105675142D01*
X90139285Y-105675142D01*
X89996428Y-104960857D01*
X89639285Y-108318000D02*
X89567857Y-108246571D01*
X89496428Y-108032285D01*
X89496428Y-107889428D01*
X89567857Y-107675142D01*
X89710714Y-107532285D01*
X89853571Y-107460857D01*
X90139285Y-107389428D01*
X90353571Y-107389428D01*
X90639285Y-107460857D01*
X90782142Y-107532285D01*
X90925000Y-107675142D01*
X90996428Y-107889428D01*
X90996428Y-108032285D01*
X90925000Y-108246571D01*
X90853571Y-108318000D01*
X89496428Y-109175142D02*
X89567857Y-109032285D01*
X89710714Y-108960857D01*
X90996428Y-108960857D01*
X89496428Y-109960857D02*
X89567857Y-109818000D01*
X89639285Y-109746571D01*
X89782142Y-109675142D01*
X90210714Y-109675142D01*
X90353571Y-109746571D01*
X90425000Y-109818000D01*
X90496428Y-109960857D01*
X90496428Y-110175142D01*
X90425000Y-110318000D01*
X90353571Y-110389428D01*
X90210714Y-110460857D01*
X89782142Y-110460857D01*
X89639285Y-110389428D01*
X89567857Y-110318000D01*
X89496428Y-110175142D01*
X89496428Y-109960857D01*
X90496428Y-111103714D02*
X89496428Y-111103714D01*
X90353571Y-111103714D02*
X90425000Y-111175142D01*
X90496428Y-111318000D01*
X90496428Y-111532285D01*
X90425000Y-111675142D01*
X90282142Y-111746571D01*
X89496428Y-111746571D01*
X89567857Y-113032285D02*
X89496428Y-112889428D01*
X89496428Y-112603714D01*
X89567857Y-112460857D01*
X89710714Y-112389428D01*
X90282142Y-112389428D01*
X90425000Y-112460857D01*
X90496428Y-112603714D01*
X90496428Y-112889428D01*
X90425000Y-113032285D01*
X90282142Y-113103714D01*
X90139285Y-113103714D01*
X89996428Y-112389428D01*
X87732142Y-81889428D02*
X87732142Y-81389428D01*
X86946428Y-81389428D02*
X88446428Y-81389428D01*
X88446428Y-82103714D01*
X86946428Y-82889428D02*
X87017857Y-82746571D01*
X87089285Y-82675142D01*
X87232142Y-82603714D01*
X87660714Y-82603714D01*
X87803571Y-82675142D01*
X87875000Y-82746571D01*
X87946428Y-82889428D01*
X87946428Y-83103714D01*
X87875000Y-83246571D01*
X87803571Y-83318000D01*
X87660714Y-83389428D01*
X87232142Y-83389428D01*
X87089285Y-83318000D01*
X87017857Y-83246571D01*
X86946428Y-83103714D01*
X86946428Y-82889428D01*
X86946428Y-84032285D02*
X87946428Y-84032285D01*
X87660714Y-84032285D02*
X87803571Y-84103714D01*
X87875000Y-84175142D01*
X87946428Y-84318000D01*
X87946428Y-84460857D01*
X88446428Y-85960857D02*
X88446428Y-86960857D01*
X86946428Y-85960857D01*
X86946428Y-86960857D01*
X88446428Y-87389428D02*
X86946428Y-88389428D01*
X88446428Y-88389428D02*
X86946428Y-87389428D01*
X87017857Y-90032285D02*
X86946428Y-90246571D01*
X86946428Y-90603714D01*
X87017857Y-90746571D01*
X87089285Y-90818000D01*
X87232142Y-90889428D01*
X87375000Y-90889428D01*
X87517857Y-90818000D01*
X87589285Y-90746571D01*
X87660714Y-90603714D01*
X87732142Y-90318000D01*
X87803571Y-90175142D01*
X87875000Y-90103714D01*
X88017857Y-90032285D01*
X88160714Y-90032285D01*
X88303571Y-90103714D01*
X88375000Y-90175142D01*
X88446428Y-90318000D01*
X88446428Y-90675142D01*
X88375000Y-90889428D01*
X86946428Y-91532285D02*
X88446428Y-91532285D01*
X88446428Y-92103714D01*
X88375000Y-92246571D01*
X88303571Y-92318000D01*
X88160714Y-92389428D01*
X87946428Y-92389428D01*
X87803571Y-92318000D01*
X87732142Y-92246571D01*
X87660714Y-92103714D01*
X87660714Y-91532285D01*
X87017857Y-93603714D02*
X86946428Y-93460857D01*
X86946428Y-93175142D01*
X87017857Y-93032285D01*
X87160714Y-92960857D01*
X87732142Y-92960857D01*
X87875000Y-93032285D01*
X87946428Y-93175142D01*
X87946428Y-93460857D01*
X87875000Y-93603714D01*
X87732142Y-93675142D01*
X87589285Y-93675142D01*
X87446428Y-92960857D01*
X87017857Y-94960857D02*
X86946428Y-94818000D01*
X86946428Y-94532285D01*
X87017857Y-94389428D01*
X87089285Y-94318000D01*
X87232142Y-94246571D01*
X87660714Y-94246571D01*
X87803571Y-94318000D01*
X87875000Y-94389428D01*
X87946428Y-94532285D01*
X87946428Y-94818000D01*
X87875000Y-94960857D01*
X87946428Y-95389428D02*
X87946428Y-95960857D01*
X88446428Y-95603714D02*
X87160714Y-95603714D01*
X87017857Y-95675142D01*
X86946428Y-95818000D01*
X86946428Y-95960857D01*
X86946428Y-96460857D02*
X87946428Y-96460857D01*
X87660714Y-96460857D02*
X87803571Y-96532285D01*
X87875000Y-96603714D01*
X87946428Y-96746571D01*
X87946428Y-96889428D01*
X87946428Y-98032285D02*
X86946428Y-98032285D01*
X87946428Y-97389428D02*
X87160714Y-97389428D01*
X87017857Y-97460857D01*
X86946428Y-97603714D01*
X86946428Y-97818000D01*
X87017857Y-97960857D01*
X87089285Y-98032285D01*
X86946428Y-98746571D02*
X87946428Y-98746571D01*
X87803571Y-98746571D02*
X87875000Y-98818000D01*
X87946428Y-98960857D01*
X87946428Y-99175142D01*
X87875000Y-99318000D01*
X87732142Y-99389428D01*
X86946428Y-99389428D01*
X87732142Y-99389428D02*
X87875000Y-99460857D01*
X87946428Y-99603714D01*
X87946428Y-99818000D01*
X87875000Y-99960857D01*
X87732142Y-100032285D01*
X86946428Y-100032285D01*
X87946428Y-102532285D02*
X86946428Y-102532285D01*
X88517857Y-102175142D02*
X87446428Y-101818000D01*
X87446428Y-102746571D01*
X87803571Y-103532285D02*
X87875000Y-103389428D01*
X87946428Y-103318000D01*
X88089285Y-103246571D01*
X88160714Y-103246571D01*
X88303571Y-103318000D01*
X88375000Y-103389428D01*
X88446428Y-103532285D01*
X88446428Y-103818000D01*
X88375000Y-103960857D01*
X88303571Y-104032285D01*
X88160714Y-104103714D01*
X88089285Y-104103714D01*
X87946428Y-104032285D01*
X87875000Y-103960857D01*
X87803571Y-103818000D01*
X87803571Y-103532285D01*
X87732142Y-103389428D01*
X87660714Y-103318000D01*
X87517857Y-103246571D01*
X87232142Y-103246571D01*
X87089285Y-103318000D01*
X87017857Y-103389428D01*
X86946428Y-103532285D01*
X86946428Y-103818000D01*
X87017857Y-103960857D01*
X87089285Y-104032285D01*
X87232142Y-104103714D01*
X87517857Y-104103714D01*
X87660714Y-104032285D01*
X87732142Y-103960857D01*
X87803571Y-103818000D01*
X86946428Y-104746571D02*
X88446428Y-104746571D01*
X86946428Y-105603714D02*
X87803571Y-104960857D01*
X88446428Y-105603714D02*
X87589285Y-104746571D01*
X88517857Y-107318000D02*
X86589285Y-106032285D01*
X86946428Y-108603714D02*
X86946428Y-107746571D01*
X86946428Y-108175142D02*
X88446428Y-108175142D01*
X88232142Y-108032285D01*
X88089285Y-107889428D01*
X88017857Y-107746571D01*
X88303571Y-109175142D02*
X88375000Y-109246571D01*
X88446428Y-109389428D01*
X88446428Y-109746571D01*
X88375000Y-109889428D01*
X88303571Y-109960857D01*
X88160714Y-110032285D01*
X88017857Y-110032285D01*
X87803571Y-109960857D01*
X86946428Y-109103714D01*
X86946428Y-110032285D01*
X87803571Y-110889428D02*
X87875000Y-110746571D01*
X87946428Y-110675142D01*
X88089285Y-110603714D01*
X88160714Y-110603714D01*
X88303571Y-110675142D01*
X88375000Y-110746571D01*
X88446428Y-110889428D01*
X88446428Y-111175142D01*
X88375000Y-111318000D01*
X88303571Y-111389428D01*
X88160714Y-111460857D01*
X88089285Y-111460857D01*
X87946428Y-111389428D01*
X87875000Y-111318000D01*
X87803571Y-111175142D01*
X87803571Y-110889428D01*
X87732142Y-110746571D01*
X87660714Y-110675142D01*
X87517857Y-110603714D01*
X87232142Y-110603714D01*
X87089285Y-110675142D01*
X87017857Y-110746571D01*
X86946428Y-110889428D01*
X86946428Y-111175142D01*
X87017857Y-111318000D01*
X87089285Y-111389428D01*
X87232142Y-111460857D01*
X87517857Y-111460857D01*
X87660714Y-111389428D01*
X87732142Y-111318000D01*
X87803571Y-111175142D01*
X86946428Y-112103714D02*
X88446428Y-112103714D01*
X86946428Y-112960857D02*
X87803571Y-112318000D01*
X88446428Y-112960857D02*
X87589285Y-112103714D01*
X88517857Y-114675142D02*
X86589285Y-113389428D01*
X87517857Y-115175142D02*
X87517857Y-116318000D01*
X86946428Y-115746571D02*
X88089285Y-115746571D01*
X88446428Y-116889428D02*
X88446428Y-117818000D01*
X87875000Y-117318000D01*
X87875000Y-117532285D01*
X87803571Y-117675142D01*
X87732142Y-117746571D01*
X87589285Y-117818000D01*
X87232142Y-117818000D01*
X87089285Y-117746571D01*
X87017857Y-117675142D01*
X86946428Y-117532285D01*
X86946428Y-117103714D01*
X87017857Y-116960857D01*
X87089285Y-116889428D01*
D12*
G04 #@! TO.C,U12*
X74810000Y-46990000D02*
X72186000Y-46990000D01*
X74810000Y-44450000D02*
X72186000Y-44450000D01*
X74810000Y-41910000D02*
X72170000Y-41910000D01*
X90700000Y-49570000D02*
X74810000Y-49570000D01*
X90700000Y-39330000D02*
X74810000Y-39330000D01*
X90700000Y-39330000D02*
X90700000Y-49570000D01*
X74810000Y-39330000D02*
X74810000Y-49570000D01*
G04 #@! TO.C,C1*
X64830000Y-43160000D02*
G75*
G03X64830000Y-43160000I-3870000J0D01*
G01*
X64790000Y-43160000D02*
X57130000Y-43160000D01*
X64790000Y-43200000D02*
X57130000Y-43200000D01*
X64790000Y-43240000D02*
X57130000Y-43240000D01*
X64789000Y-43280000D02*
X57131000Y-43280000D01*
X64787000Y-43320000D02*
X57133000Y-43320000D01*
X64785000Y-43360000D02*
X57135000Y-43360000D01*
X64783000Y-43400000D02*
X62000000Y-43400000D01*
X59920000Y-43400000D02*
X57137000Y-43400000D01*
X64780000Y-43440000D02*
X62000000Y-43440000D01*
X59920000Y-43440000D02*
X57140000Y-43440000D01*
X64777000Y-43480000D02*
X62000000Y-43480000D01*
X59920000Y-43480000D02*
X57143000Y-43480000D01*
X64774000Y-43520000D02*
X62000000Y-43520000D01*
X59920000Y-43520000D02*
X57146000Y-43520000D01*
X64770000Y-43560000D02*
X62000000Y-43560000D01*
X59920000Y-43560000D02*
X57150000Y-43560000D01*
X64765000Y-43600000D02*
X62000000Y-43600000D01*
X59920000Y-43600000D02*
X57155000Y-43600000D01*
X64761000Y-43640000D02*
X62000000Y-43640000D01*
X59920000Y-43640000D02*
X57159000Y-43640000D01*
X64755000Y-43680000D02*
X62000000Y-43680000D01*
X59920000Y-43680000D02*
X57165000Y-43680000D01*
X64750000Y-43720000D02*
X62000000Y-43720000D01*
X59920000Y-43720000D02*
X57170000Y-43720000D01*
X64744000Y-43760000D02*
X62000000Y-43760000D01*
X59920000Y-43760000D02*
X57176000Y-43760000D01*
X64737000Y-43800000D02*
X62000000Y-43800000D01*
X59920000Y-43800000D02*
X57183000Y-43800000D01*
X64730000Y-43840000D02*
X62000000Y-43840000D01*
X59920000Y-43840000D02*
X57190000Y-43840000D01*
X64723000Y-43881000D02*
X62000000Y-43881000D01*
X59920000Y-43881000D02*
X57197000Y-43881000D01*
X64715000Y-43921000D02*
X62000000Y-43921000D01*
X59920000Y-43921000D02*
X57205000Y-43921000D01*
X64707000Y-43961000D02*
X62000000Y-43961000D01*
X59920000Y-43961000D02*
X57213000Y-43961000D01*
X64698000Y-44001000D02*
X62000000Y-44001000D01*
X59920000Y-44001000D02*
X57222000Y-44001000D01*
X64689000Y-44041000D02*
X62000000Y-44041000D01*
X59920000Y-44041000D02*
X57231000Y-44041000D01*
X64680000Y-44081000D02*
X62000000Y-44081000D01*
X59920000Y-44081000D02*
X57240000Y-44081000D01*
X64670000Y-44121000D02*
X62000000Y-44121000D01*
X59920000Y-44121000D02*
X57250000Y-44121000D01*
X64659000Y-44161000D02*
X62000000Y-44161000D01*
X59920000Y-44161000D02*
X57261000Y-44161000D01*
X64648000Y-44201000D02*
X62000000Y-44201000D01*
X59920000Y-44201000D02*
X57272000Y-44201000D01*
X64637000Y-44241000D02*
X62000000Y-44241000D01*
X59920000Y-44241000D02*
X57283000Y-44241000D01*
X64625000Y-44281000D02*
X62000000Y-44281000D01*
X59920000Y-44281000D02*
X57295000Y-44281000D01*
X64613000Y-44321000D02*
X62000000Y-44321000D01*
X59920000Y-44321000D02*
X57307000Y-44321000D01*
X64600000Y-44361000D02*
X62000000Y-44361000D01*
X59920000Y-44361000D02*
X57320000Y-44361000D01*
X64586000Y-44401000D02*
X62000000Y-44401000D01*
X59920000Y-44401000D02*
X57334000Y-44401000D01*
X64573000Y-44441000D02*
X62000000Y-44441000D01*
X59920000Y-44441000D02*
X57347000Y-44441000D01*
X64558000Y-44481000D02*
X62000000Y-44481000D01*
X59920000Y-44481000D02*
X57362000Y-44481000D01*
X64544000Y-44521000D02*
X62000000Y-44521000D01*
X59920000Y-44521000D02*
X57376000Y-44521000D01*
X64528000Y-44561000D02*
X62000000Y-44561000D01*
X59920000Y-44561000D02*
X57392000Y-44561000D01*
X64513000Y-44601000D02*
X62000000Y-44601000D01*
X59920000Y-44601000D02*
X57407000Y-44601000D01*
X64496000Y-44641000D02*
X62000000Y-44641000D01*
X59920000Y-44641000D02*
X57424000Y-44641000D01*
X64480000Y-44681000D02*
X62000000Y-44681000D01*
X59920000Y-44681000D02*
X57440000Y-44681000D01*
X64462000Y-44721000D02*
X62000000Y-44721000D01*
X59920000Y-44721000D02*
X57458000Y-44721000D01*
X64444000Y-44761000D02*
X62000000Y-44761000D01*
X59920000Y-44761000D02*
X57476000Y-44761000D01*
X64426000Y-44801000D02*
X62000000Y-44801000D01*
X59920000Y-44801000D02*
X57494000Y-44801000D01*
X64407000Y-44841000D02*
X62000000Y-44841000D01*
X59920000Y-44841000D02*
X57513000Y-44841000D01*
X64387000Y-44881000D02*
X62000000Y-44881000D01*
X59920000Y-44881000D02*
X57533000Y-44881000D01*
X64367000Y-44921000D02*
X62000000Y-44921000D01*
X59920000Y-44921000D02*
X57553000Y-44921000D01*
X64346000Y-44961000D02*
X62000000Y-44961000D01*
X59920000Y-44961000D02*
X57574000Y-44961000D01*
X64325000Y-45001000D02*
X62000000Y-45001000D01*
X59920000Y-45001000D02*
X57595000Y-45001000D01*
X64303000Y-45041000D02*
X62000000Y-45041000D01*
X59920000Y-45041000D02*
X57617000Y-45041000D01*
X64281000Y-45081000D02*
X62000000Y-45081000D01*
X59920000Y-45081000D02*
X57639000Y-45081000D01*
X64257000Y-45121000D02*
X62000000Y-45121000D01*
X59920000Y-45121000D02*
X57663000Y-45121000D01*
X64234000Y-45161000D02*
X62000000Y-45161000D01*
X59920000Y-45161000D02*
X57686000Y-45161000D01*
X64209000Y-45201000D02*
X62000000Y-45201000D01*
X59920000Y-45201000D02*
X57711000Y-45201000D01*
X64184000Y-45241000D02*
X62000000Y-45241000D01*
X59920000Y-45241000D02*
X57736000Y-45241000D01*
X64158000Y-45281000D02*
X62000000Y-45281000D01*
X59920000Y-45281000D02*
X57762000Y-45281000D01*
X64132000Y-45321000D02*
X62000000Y-45321000D01*
X59920000Y-45321000D02*
X57788000Y-45321000D01*
X64104000Y-45361000D02*
X62000000Y-45361000D01*
X59920000Y-45361000D02*
X57816000Y-45361000D01*
X64076000Y-45401000D02*
X62000000Y-45401000D01*
X59920000Y-45401000D02*
X57844000Y-45401000D01*
X64048000Y-45441000D02*
X62000000Y-45441000D01*
X59920000Y-45441000D02*
X57872000Y-45441000D01*
X64018000Y-45481000D02*
X57902000Y-45481000D01*
X63988000Y-45521000D02*
X57932000Y-45521000D01*
X63956000Y-45561000D02*
X57964000Y-45561000D01*
X63924000Y-45601000D02*
X57996000Y-45601000D01*
X63891000Y-45641000D02*
X58029000Y-45641000D01*
X63858000Y-45681000D02*
X58062000Y-45681000D01*
X63823000Y-45721000D02*
X58097000Y-45721000D01*
X63787000Y-45761000D02*
X58133000Y-45761000D01*
X63750000Y-45801000D02*
X58170000Y-45801000D01*
X63712000Y-45841000D02*
X58208000Y-45841000D01*
X63673000Y-45881000D02*
X58247000Y-45881000D01*
X63633000Y-45921000D02*
X58287000Y-45921000D01*
X63592000Y-45961000D02*
X58328000Y-45961000D01*
X63549000Y-46001000D02*
X58371000Y-46001000D01*
X63506000Y-46041000D02*
X58414000Y-46041000D01*
X63460000Y-46081000D02*
X58460000Y-46081000D01*
X63414000Y-46121000D02*
X58506000Y-46121000D01*
X63365000Y-46161000D02*
X58555000Y-46161000D01*
X63315000Y-46201000D02*
X58605000Y-46201000D01*
X63264000Y-46241000D02*
X58656000Y-46241000D01*
X63210000Y-46281000D02*
X58710000Y-46281000D01*
X63155000Y-46321000D02*
X58765000Y-46321000D01*
X63097000Y-46361000D02*
X58823000Y-46361000D01*
X63037000Y-46401000D02*
X58883000Y-46401000D01*
X62974000Y-46441000D02*
X58946000Y-46441000D01*
X62909000Y-46481000D02*
X59011000Y-46481000D01*
X62841000Y-46521000D02*
X59079000Y-46521000D01*
X62769000Y-46561000D02*
X59151000Y-46561000D01*
X62693000Y-46601000D02*
X59227000Y-46601000D01*
X62614000Y-46641000D02*
X59306000Y-46641000D01*
X62529000Y-46681000D02*
X59391000Y-46681000D01*
X62438000Y-46721000D02*
X59482000Y-46721000D01*
X62341000Y-46761000D02*
X59579000Y-46761000D01*
X62235000Y-46801000D02*
X59685000Y-46801000D01*
X62118000Y-46841000D02*
X59802000Y-46841000D01*
X61988000Y-46881000D02*
X59932000Y-46881000D01*
X61837000Y-46921000D02*
X60083000Y-46921000D01*
X61653000Y-46961000D02*
X60267000Y-46961000D01*
X61401000Y-47001000D02*
X60519000Y-47001000D01*
X63135000Y-39017789D02*
X63135000Y-39767789D01*
X63510000Y-39392789D02*
X62760000Y-39392789D01*
G04 #@! TO.C,C2*
X63500000Y-50840000D02*
X63500000Y-48220000D01*
X68620000Y-50840000D02*
X68620000Y-48220000D01*
X68620000Y-48220000D02*
X63500000Y-48220000D01*
X68620000Y-50840000D02*
X63500000Y-50840000D01*
G04 #@! TO.C,C3*
X44490000Y-95210000D02*
X44490000Y-100330000D01*
X41870000Y-95210000D02*
X41870000Y-100330000D01*
X44490000Y-95210000D02*
X41870000Y-95210000D01*
X44490000Y-100330000D02*
X41870000Y-100330000D01*
G04 #@! TO.C,C4*
X66040000Y-82510000D02*
X66040000Y-85130000D01*
X60920000Y-82510000D02*
X60920000Y-85130000D01*
X60920000Y-85130000D02*
X66040000Y-85130000D01*
X60920000Y-82510000D02*
X66040000Y-82510000D01*
G04 #@! TO.C,C5*
X66000000Y-45760000D02*
X66000000Y-40640000D01*
X68620000Y-45760000D02*
X68620000Y-40640000D01*
X66000000Y-45760000D02*
X68620000Y-45760000D01*
X66000000Y-40640000D02*
X68620000Y-40640000D01*
G04 #@! TO.C,C6*
X78800000Y-54590000D02*
G75*
G03X78800000Y-54590000I-3870000J0D01*
G01*
X78760000Y-54590000D02*
X71100000Y-54590000D01*
X78760000Y-54630000D02*
X71100000Y-54630000D01*
X78760000Y-54670000D02*
X71100000Y-54670000D01*
X78759000Y-54710000D02*
X71101000Y-54710000D01*
X78757000Y-54750000D02*
X71103000Y-54750000D01*
X78755000Y-54790000D02*
X71105000Y-54790000D01*
X78753000Y-54830000D02*
X75970000Y-54830000D01*
X73890000Y-54830000D02*
X71107000Y-54830000D01*
X78750000Y-54870000D02*
X75970000Y-54870000D01*
X73890000Y-54870000D02*
X71110000Y-54870000D01*
X78747000Y-54910000D02*
X75970000Y-54910000D01*
X73890000Y-54910000D02*
X71113000Y-54910000D01*
X78744000Y-54950000D02*
X75970000Y-54950000D01*
X73890000Y-54950000D02*
X71116000Y-54950000D01*
X78740000Y-54990000D02*
X75970000Y-54990000D01*
X73890000Y-54990000D02*
X71120000Y-54990000D01*
X78735000Y-55030000D02*
X75970000Y-55030000D01*
X73890000Y-55030000D02*
X71125000Y-55030000D01*
X78731000Y-55070000D02*
X75970000Y-55070000D01*
X73890000Y-55070000D02*
X71129000Y-55070000D01*
X78725000Y-55110000D02*
X75970000Y-55110000D01*
X73890000Y-55110000D02*
X71135000Y-55110000D01*
X78720000Y-55150000D02*
X75970000Y-55150000D01*
X73890000Y-55150000D02*
X71140000Y-55150000D01*
X78714000Y-55190000D02*
X75970000Y-55190000D01*
X73890000Y-55190000D02*
X71146000Y-55190000D01*
X78707000Y-55230000D02*
X75970000Y-55230000D01*
X73890000Y-55230000D02*
X71153000Y-55230000D01*
X78700000Y-55270000D02*
X75970000Y-55270000D01*
X73890000Y-55270000D02*
X71160000Y-55270000D01*
X78693000Y-55311000D02*
X75970000Y-55311000D01*
X73890000Y-55311000D02*
X71167000Y-55311000D01*
X78685000Y-55351000D02*
X75970000Y-55351000D01*
X73890000Y-55351000D02*
X71175000Y-55351000D01*
X78677000Y-55391000D02*
X75970000Y-55391000D01*
X73890000Y-55391000D02*
X71183000Y-55391000D01*
X78668000Y-55431000D02*
X75970000Y-55431000D01*
X73890000Y-55431000D02*
X71192000Y-55431000D01*
X78659000Y-55471000D02*
X75970000Y-55471000D01*
X73890000Y-55471000D02*
X71201000Y-55471000D01*
X78650000Y-55511000D02*
X75970000Y-55511000D01*
X73890000Y-55511000D02*
X71210000Y-55511000D01*
X78640000Y-55551000D02*
X75970000Y-55551000D01*
X73890000Y-55551000D02*
X71220000Y-55551000D01*
X78629000Y-55591000D02*
X75970000Y-55591000D01*
X73890000Y-55591000D02*
X71231000Y-55591000D01*
X78618000Y-55631000D02*
X75970000Y-55631000D01*
X73890000Y-55631000D02*
X71242000Y-55631000D01*
X78607000Y-55671000D02*
X75970000Y-55671000D01*
X73890000Y-55671000D02*
X71253000Y-55671000D01*
X78595000Y-55711000D02*
X75970000Y-55711000D01*
X73890000Y-55711000D02*
X71265000Y-55711000D01*
X78583000Y-55751000D02*
X75970000Y-55751000D01*
X73890000Y-55751000D02*
X71277000Y-55751000D01*
X78570000Y-55791000D02*
X75970000Y-55791000D01*
X73890000Y-55791000D02*
X71290000Y-55791000D01*
X78556000Y-55831000D02*
X75970000Y-55831000D01*
X73890000Y-55831000D02*
X71304000Y-55831000D01*
X78543000Y-55871000D02*
X75970000Y-55871000D01*
X73890000Y-55871000D02*
X71317000Y-55871000D01*
X78528000Y-55911000D02*
X75970000Y-55911000D01*
X73890000Y-55911000D02*
X71332000Y-55911000D01*
X78514000Y-55951000D02*
X75970000Y-55951000D01*
X73890000Y-55951000D02*
X71346000Y-55951000D01*
X78498000Y-55991000D02*
X75970000Y-55991000D01*
X73890000Y-55991000D02*
X71362000Y-55991000D01*
X78483000Y-56031000D02*
X75970000Y-56031000D01*
X73890000Y-56031000D02*
X71377000Y-56031000D01*
X78466000Y-56071000D02*
X75970000Y-56071000D01*
X73890000Y-56071000D02*
X71394000Y-56071000D01*
X78450000Y-56111000D02*
X75970000Y-56111000D01*
X73890000Y-56111000D02*
X71410000Y-56111000D01*
X78432000Y-56151000D02*
X75970000Y-56151000D01*
X73890000Y-56151000D02*
X71428000Y-56151000D01*
X78414000Y-56191000D02*
X75970000Y-56191000D01*
X73890000Y-56191000D02*
X71446000Y-56191000D01*
X78396000Y-56231000D02*
X75970000Y-56231000D01*
X73890000Y-56231000D02*
X71464000Y-56231000D01*
X78377000Y-56271000D02*
X75970000Y-56271000D01*
X73890000Y-56271000D02*
X71483000Y-56271000D01*
X78357000Y-56311000D02*
X75970000Y-56311000D01*
X73890000Y-56311000D02*
X71503000Y-56311000D01*
X78337000Y-56351000D02*
X75970000Y-56351000D01*
X73890000Y-56351000D02*
X71523000Y-56351000D01*
X78316000Y-56391000D02*
X75970000Y-56391000D01*
X73890000Y-56391000D02*
X71544000Y-56391000D01*
X78295000Y-56431000D02*
X75970000Y-56431000D01*
X73890000Y-56431000D02*
X71565000Y-56431000D01*
X78273000Y-56471000D02*
X75970000Y-56471000D01*
X73890000Y-56471000D02*
X71587000Y-56471000D01*
X78251000Y-56511000D02*
X75970000Y-56511000D01*
X73890000Y-56511000D02*
X71609000Y-56511000D01*
X78227000Y-56551000D02*
X75970000Y-56551000D01*
X73890000Y-56551000D02*
X71633000Y-56551000D01*
X78204000Y-56591000D02*
X75970000Y-56591000D01*
X73890000Y-56591000D02*
X71656000Y-56591000D01*
X78179000Y-56631000D02*
X75970000Y-56631000D01*
X73890000Y-56631000D02*
X71681000Y-56631000D01*
X78154000Y-56671000D02*
X75970000Y-56671000D01*
X73890000Y-56671000D02*
X71706000Y-56671000D01*
X78128000Y-56711000D02*
X75970000Y-56711000D01*
X73890000Y-56711000D02*
X71732000Y-56711000D01*
X78102000Y-56751000D02*
X75970000Y-56751000D01*
X73890000Y-56751000D02*
X71758000Y-56751000D01*
X78074000Y-56791000D02*
X75970000Y-56791000D01*
X73890000Y-56791000D02*
X71786000Y-56791000D01*
X78046000Y-56831000D02*
X75970000Y-56831000D01*
X73890000Y-56831000D02*
X71814000Y-56831000D01*
X78018000Y-56871000D02*
X75970000Y-56871000D01*
X73890000Y-56871000D02*
X71842000Y-56871000D01*
X77988000Y-56911000D02*
X71872000Y-56911000D01*
X77958000Y-56951000D02*
X71902000Y-56951000D01*
X77926000Y-56991000D02*
X71934000Y-56991000D01*
X77894000Y-57031000D02*
X71966000Y-57031000D01*
X77861000Y-57071000D02*
X71999000Y-57071000D01*
X77828000Y-57111000D02*
X72032000Y-57111000D01*
X77793000Y-57151000D02*
X72067000Y-57151000D01*
X77757000Y-57191000D02*
X72103000Y-57191000D01*
X77720000Y-57231000D02*
X72140000Y-57231000D01*
X77682000Y-57271000D02*
X72178000Y-57271000D01*
X77643000Y-57311000D02*
X72217000Y-57311000D01*
X77603000Y-57351000D02*
X72257000Y-57351000D01*
X77562000Y-57391000D02*
X72298000Y-57391000D01*
X77519000Y-57431000D02*
X72341000Y-57431000D01*
X77476000Y-57471000D02*
X72384000Y-57471000D01*
X77430000Y-57511000D02*
X72430000Y-57511000D01*
X77384000Y-57551000D02*
X72476000Y-57551000D01*
X77335000Y-57591000D02*
X72525000Y-57591000D01*
X77285000Y-57631000D02*
X72575000Y-57631000D01*
X77234000Y-57671000D02*
X72626000Y-57671000D01*
X77180000Y-57711000D02*
X72680000Y-57711000D01*
X77125000Y-57751000D02*
X72735000Y-57751000D01*
X77067000Y-57791000D02*
X72793000Y-57791000D01*
X77007000Y-57831000D02*
X72853000Y-57831000D01*
X76944000Y-57871000D02*
X72916000Y-57871000D01*
X76879000Y-57911000D02*
X72981000Y-57911000D01*
X76811000Y-57951000D02*
X73049000Y-57951000D01*
X76739000Y-57991000D02*
X73121000Y-57991000D01*
X76663000Y-58031000D02*
X73197000Y-58031000D01*
X76584000Y-58071000D02*
X73276000Y-58071000D01*
X76499000Y-58111000D02*
X73361000Y-58111000D01*
X76408000Y-58151000D02*
X73452000Y-58151000D01*
X76311000Y-58191000D02*
X73549000Y-58191000D01*
X76205000Y-58231000D02*
X73655000Y-58231000D01*
X76088000Y-58271000D02*
X73772000Y-58271000D01*
X75958000Y-58311000D02*
X73902000Y-58311000D01*
X75807000Y-58351000D02*
X74053000Y-58351000D01*
X75623000Y-58391000D02*
X74237000Y-58391000D01*
X75371000Y-58431000D02*
X74489000Y-58431000D01*
X77105000Y-50447789D02*
X77105000Y-51197789D01*
X77480000Y-50822789D02*
X76730000Y-50822789D01*
G04 #@! TO.C,C7*
X90180000Y-52092789D02*
X89430000Y-52092789D01*
X89805000Y-51717789D02*
X89805000Y-52467789D01*
X88071000Y-59701000D02*
X87189000Y-59701000D01*
X88323000Y-59661000D02*
X86937000Y-59661000D01*
X88507000Y-59621000D02*
X86753000Y-59621000D01*
X88658000Y-59581000D02*
X86602000Y-59581000D01*
X88788000Y-59541000D02*
X86472000Y-59541000D01*
X88905000Y-59501000D02*
X86355000Y-59501000D01*
X89011000Y-59461000D02*
X86249000Y-59461000D01*
X89108000Y-59421000D02*
X86152000Y-59421000D01*
X89199000Y-59381000D02*
X86061000Y-59381000D01*
X89284000Y-59341000D02*
X85976000Y-59341000D01*
X89363000Y-59301000D02*
X85897000Y-59301000D01*
X89439000Y-59261000D02*
X85821000Y-59261000D01*
X89511000Y-59221000D02*
X85749000Y-59221000D01*
X89579000Y-59181000D02*
X85681000Y-59181000D01*
X89644000Y-59141000D02*
X85616000Y-59141000D01*
X89707000Y-59101000D02*
X85553000Y-59101000D01*
X89767000Y-59061000D02*
X85493000Y-59061000D01*
X89825000Y-59021000D02*
X85435000Y-59021000D01*
X89880000Y-58981000D02*
X85380000Y-58981000D01*
X89934000Y-58941000D02*
X85326000Y-58941000D01*
X89985000Y-58901000D02*
X85275000Y-58901000D01*
X90035000Y-58861000D02*
X85225000Y-58861000D01*
X90084000Y-58821000D02*
X85176000Y-58821000D01*
X90130000Y-58781000D02*
X85130000Y-58781000D01*
X90176000Y-58741000D02*
X85084000Y-58741000D01*
X90219000Y-58701000D02*
X85041000Y-58701000D01*
X90262000Y-58661000D02*
X84998000Y-58661000D01*
X90303000Y-58621000D02*
X84957000Y-58621000D01*
X90343000Y-58581000D02*
X84917000Y-58581000D01*
X90382000Y-58541000D02*
X84878000Y-58541000D01*
X90420000Y-58501000D02*
X84840000Y-58501000D01*
X90457000Y-58461000D02*
X84803000Y-58461000D01*
X90493000Y-58421000D02*
X84767000Y-58421000D01*
X90528000Y-58381000D02*
X84732000Y-58381000D01*
X90561000Y-58341000D02*
X84699000Y-58341000D01*
X90594000Y-58301000D02*
X84666000Y-58301000D01*
X90626000Y-58261000D02*
X84634000Y-58261000D01*
X90658000Y-58221000D02*
X84602000Y-58221000D01*
X90688000Y-58181000D02*
X84572000Y-58181000D01*
X86590000Y-58141000D02*
X84542000Y-58141000D01*
X90718000Y-58141000D02*
X88670000Y-58141000D01*
X86590000Y-58101000D02*
X84514000Y-58101000D01*
X90746000Y-58101000D02*
X88670000Y-58101000D01*
X86590000Y-58061000D02*
X84486000Y-58061000D01*
X90774000Y-58061000D02*
X88670000Y-58061000D01*
X86590000Y-58021000D02*
X84458000Y-58021000D01*
X90802000Y-58021000D02*
X88670000Y-58021000D01*
X86590000Y-57981000D02*
X84432000Y-57981000D01*
X90828000Y-57981000D02*
X88670000Y-57981000D01*
X86590000Y-57941000D02*
X84406000Y-57941000D01*
X90854000Y-57941000D02*
X88670000Y-57941000D01*
X86590000Y-57901000D02*
X84381000Y-57901000D01*
X90879000Y-57901000D02*
X88670000Y-57901000D01*
X86590000Y-57861000D02*
X84356000Y-57861000D01*
X90904000Y-57861000D02*
X88670000Y-57861000D01*
X86590000Y-57821000D02*
X84333000Y-57821000D01*
X90927000Y-57821000D02*
X88670000Y-57821000D01*
X86590000Y-57781000D02*
X84309000Y-57781000D01*
X90951000Y-57781000D02*
X88670000Y-57781000D01*
X86590000Y-57741000D02*
X84287000Y-57741000D01*
X90973000Y-57741000D02*
X88670000Y-57741000D01*
X86590000Y-57701000D02*
X84265000Y-57701000D01*
X90995000Y-57701000D02*
X88670000Y-57701000D01*
X86590000Y-57661000D02*
X84244000Y-57661000D01*
X91016000Y-57661000D02*
X88670000Y-57661000D01*
X86590000Y-57621000D02*
X84223000Y-57621000D01*
X91037000Y-57621000D02*
X88670000Y-57621000D01*
X86590000Y-57581000D02*
X84203000Y-57581000D01*
X91057000Y-57581000D02*
X88670000Y-57581000D01*
X86590000Y-57541000D02*
X84183000Y-57541000D01*
X91077000Y-57541000D02*
X88670000Y-57541000D01*
X86590000Y-57501000D02*
X84164000Y-57501000D01*
X91096000Y-57501000D02*
X88670000Y-57501000D01*
X86590000Y-57461000D02*
X84146000Y-57461000D01*
X91114000Y-57461000D02*
X88670000Y-57461000D01*
X86590000Y-57421000D02*
X84128000Y-57421000D01*
X91132000Y-57421000D02*
X88670000Y-57421000D01*
X86590000Y-57381000D02*
X84110000Y-57381000D01*
X91150000Y-57381000D02*
X88670000Y-57381000D01*
X86590000Y-57341000D02*
X84094000Y-57341000D01*
X91166000Y-57341000D02*
X88670000Y-57341000D01*
X86590000Y-57301000D02*
X84077000Y-57301000D01*
X91183000Y-57301000D02*
X88670000Y-57301000D01*
X86590000Y-57261000D02*
X84062000Y-57261000D01*
X91198000Y-57261000D02*
X88670000Y-57261000D01*
X86590000Y-57221000D02*
X84046000Y-57221000D01*
X91214000Y-57221000D02*
X88670000Y-57221000D01*
X86590000Y-57181000D02*
X84032000Y-57181000D01*
X91228000Y-57181000D02*
X88670000Y-57181000D01*
X86590000Y-57141000D02*
X84017000Y-57141000D01*
X91243000Y-57141000D02*
X88670000Y-57141000D01*
X86590000Y-57101000D02*
X84004000Y-57101000D01*
X91256000Y-57101000D02*
X88670000Y-57101000D01*
X86590000Y-57061000D02*
X83990000Y-57061000D01*
X91270000Y-57061000D02*
X88670000Y-57061000D01*
X86590000Y-57021000D02*
X83977000Y-57021000D01*
X91283000Y-57021000D02*
X88670000Y-57021000D01*
X86590000Y-56981000D02*
X83965000Y-56981000D01*
X91295000Y-56981000D02*
X88670000Y-56981000D01*
X86590000Y-56941000D02*
X83953000Y-56941000D01*
X91307000Y-56941000D02*
X88670000Y-56941000D01*
X86590000Y-56901000D02*
X83942000Y-56901000D01*
X91318000Y-56901000D02*
X88670000Y-56901000D01*
X86590000Y-56861000D02*
X83931000Y-56861000D01*
X91329000Y-56861000D02*
X88670000Y-56861000D01*
X86590000Y-56821000D02*
X83920000Y-56821000D01*
X91340000Y-56821000D02*
X88670000Y-56821000D01*
X86590000Y-56781000D02*
X83910000Y-56781000D01*
X91350000Y-56781000D02*
X88670000Y-56781000D01*
X86590000Y-56741000D02*
X83901000Y-56741000D01*
X91359000Y-56741000D02*
X88670000Y-56741000D01*
X86590000Y-56701000D02*
X83892000Y-56701000D01*
X91368000Y-56701000D02*
X88670000Y-56701000D01*
X86590000Y-56661000D02*
X83883000Y-56661000D01*
X91377000Y-56661000D02*
X88670000Y-56661000D01*
X86590000Y-56621000D02*
X83875000Y-56621000D01*
X91385000Y-56621000D02*
X88670000Y-56621000D01*
X86590000Y-56581000D02*
X83867000Y-56581000D01*
X91393000Y-56581000D02*
X88670000Y-56581000D01*
X86590000Y-56540000D02*
X83860000Y-56540000D01*
X91400000Y-56540000D02*
X88670000Y-56540000D01*
X86590000Y-56500000D02*
X83853000Y-56500000D01*
X91407000Y-56500000D02*
X88670000Y-56500000D01*
X86590000Y-56460000D02*
X83846000Y-56460000D01*
X91414000Y-56460000D02*
X88670000Y-56460000D01*
X86590000Y-56420000D02*
X83840000Y-56420000D01*
X91420000Y-56420000D02*
X88670000Y-56420000D01*
X86590000Y-56380000D02*
X83835000Y-56380000D01*
X91425000Y-56380000D02*
X88670000Y-56380000D01*
X86590000Y-56340000D02*
X83829000Y-56340000D01*
X91431000Y-56340000D02*
X88670000Y-56340000D01*
X86590000Y-56300000D02*
X83825000Y-56300000D01*
X91435000Y-56300000D02*
X88670000Y-56300000D01*
X86590000Y-56260000D02*
X83820000Y-56260000D01*
X91440000Y-56260000D02*
X88670000Y-56260000D01*
X86590000Y-56220000D02*
X83816000Y-56220000D01*
X91444000Y-56220000D02*
X88670000Y-56220000D01*
X86590000Y-56180000D02*
X83813000Y-56180000D01*
X91447000Y-56180000D02*
X88670000Y-56180000D01*
X86590000Y-56140000D02*
X83810000Y-56140000D01*
X91450000Y-56140000D02*
X88670000Y-56140000D01*
X86590000Y-56100000D02*
X83807000Y-56100000D01*
X91453000Y-56100000D02*
X88670000Y-56100000D01*
X91455000Y-56060000D02*
X83805000Y-56060000D01*
X91457000Y-56020000D02*
X83803000Y-56020000D01*
X91459000Y-55980000D02*
X83801000Y-55980000D01*
X91460000Y-55940000D02*
X83800000Y-55940000D01*
X91460000Y-55900000D02*
X83800000Y-55900000D01*
X91460000Y-55860000D02*
X83800000Y-55860000D01*
X91500000Y-55860000D02*
G75*
G03X91500000Y-55860000I-3870000J0D01*
G01*
G04 #@! TO.C,C8*
X50760000Y-82510000D02*
X55880000Y-82510000D01*
X50760000Y-85130000D02*
X55880000Y-85130000D01*
X50760000Y-82510000D02*
X50760000Y-85130000D01*
X55880000Y-82510000D02*
X55880000Y-85130000D01*
G04 #@! TO.C,C9*
X74335000Y-73620000D02*
X74335000Y-78740000D01*
X71715000Y-73620000D02*
X71715000Y-78740000D01*
X74335000Y-73620000D02*
X71715000Y-73620000D01*
X74335000Y-78740000D02*
X71715000Y-78740000D01*
G04 #@! TO.C,C10*
X71080000Y-60960000D02*
X73700000Y-60960000D01*
X71080000Y-66080000D02*
X73700000Y-66080000D01*
X73700000Y-66080000D02*
X73700000Y-60960000D01*
X71080000Y-66080000D02*
X71080000Y-60960000D01*
G04 #@! TO.C,C11*
X78740000Y-79970000D02*
X78740000Y-82590000D01*
X73620000Y-79970000D02*
X73620000Y-82590000D01*
X73620000Y-82590000D02*
X78740000Y-82590000D01*
X73620000Y-79970000D02*
X78740000Y-79970000D01*
G04 #@! TO.C,C12*
X79970000Y-54610000D02*
X82590000Y-54610000D01*
X79970000Y-59730000D02*
X82590000Y-59730000D01*
X82590000Y-59730000D02*
X82590000Y-54610000D01*
X79970000Y-59730000D02*
X79970000Y-54610000D01*
G04 #@! TO.C,C13*
X102870000Y-79970000D02*
X107990000Y-79970000D01*
X102870000Y-82590000D02*
X107990000Y-82590000D01*
X102870000Y-79970000D02*
X102870000Y-82590000D01*
X107990000Y-79970000D02*
X107990000Y-82590000D01*
G04 #@! TO.C,C14*
X109855000Y-39330000D02*
X109855000Y-41950000D01*
X104735000Y-39330000D02*
X104735000Y-41950000D01*
X104735000Y-41950000D02*
X109855000Y-41950000D01*
X104735000Y-39330000D02*
X109855000Y-39330000D01*
G04 #@! TO.C,C15*
X111720000Y-119420000D02*
X111720000Y-114300000D01*
X114340000Y-119420000D02*
X114340000Y-114300000D01*
X111720000Y-119420000D02*
X114340000Y-119420000D01*
X111720000Y-114300000D02*
X114340000Y-114300000D01*
G04 #@! TO.C,C16*
X111720000Y-87630000D02*
X114340000Y-87630000D01*
X111720000Y-92750000D02*
X114340000Y-92750000D01*
X114340000Y-92750000D02*
X114340000Y-87630000D01*
X111720000Y-92750000D02*
X111720000Y-87630000D01*
G04 #@! TO.C,C17*
X111720000Y-69890000D02*
X111720000Y-64770000D01*
X114340000Y-69890000D02*
X114340000Y-64770000D01*
X111720000Y-69890000D02*
X114340000Y-69890000D01*
X111720000Y-64770000D02*
X114340000Y-64770000D01*
G04 #@! TO.C,D2*
X48259538Y-121100000D02*
G75*
G03X49804830Y-115550000I462J2990000D01*
G01*
X48260462Y-121100000D02*
G75*
G02X46715170Y-115550000I-462J2990000D01*
G01*
X50760000Y-118110000D02*
G75*
G03X50760000Y-118110000I-2500000J0D01*
G01*
X49805000Y-115550000D02*
X46715000Y-115550000D01*
G04 #@! TO.C,J1*
X133410000Y-38040000D02*
X128210000Y-38040000D01*
X133410000Y-78740000D02*
X133410000Y-38040000D01*
X128210000Y-81340000D02*
X128210000Y-38040000D01*
X133410000Y-78740000D02*
X130810000Y-78740000D01*
X130810000Y-78740000D02*
X130810000Y-81340000D01*
X130810000Y-81340000D02*
X128210000Y-81340000D01*
X133410000Y-80010000D02*
X133410000Y-81340000D01*
X133410000Y-81340000D02*
X132080000Y-81340000D01*
G04 #@! TO.C,J3*
X128210000Y-123250000D02*
X133410000Y-123250000D01*
X128210000Y-92710000D02*
X128210000Y-123250000D01*
X133410000Y-90110000D02*
X133410000Y-123250000D01*
X128210000Y-92710000D02*
X130810000Y-92710000D01*
X130810000Y-92710000D02*
X130810000Y-90110000D01*
X130810000Y-90110000D02*
X133410000Y-90110000D01*
X128210000Y-91440000D02*
X128210000Y-90110000D01*
X128210000Y-90110000D02*
X129540000Y-90110000D01*
G04 #@! TO.C,J4*
X44510000Y-68520000D02*
X41850000Y-68520000D01*
X44510000Y-73660000D02*
X44510000Y-68520000D01*
X41850000Y-73660000D02*
X41850000Y-68520000D01*
X44510000Y-73660000D02*
X41850000Y-73660000D01*
X44510000Y-74930000D02*
X44510000Y-76260000D01*
X44510000Y-76260000D02*
X43180000Y-76260000D01*
G04 #@! TO.C,R1*
X123920000Y-73430000D02*
X123920000Y-73760000D01*
X123920000Y-73760000D02*
X117380000Y-73760000D01*
X117380000Y-73760000D02*
X117380000Y-73430000D01*
X123920000Y-71350000D02*
X123920000Y-71020000D01*
X123920000Y-71020000D02*
X117380000Y-71020000D01*
X117380000Y-71020000D02*
X117380000Y-71350000D01*
G04 #@! TO.C,R2*
X117380000Y-48160000D02*
X117380000Y-48490000D01*
X123920000Y-48160000D02*
X117380000Y-48160000D01*
X123920000Y-48490000D02*
X123920000Y-48160000D01*
X117380000Y-50900000D02*
X117380000Y-50570000D01*
X123920000Y-50900000D02*
X117380000Y-50900000D01*
X123920000Y-50570000D02*
X123920000Y-50900000D01*
G04 #@! TO.C,R3*
X123920000Y-46760000D02*
X123920000Y-47090000D01*
X123920000Y-47090000D02*
X117380000Y-47090000D01*
X117380000Y-47090000D02*
X117380000Y-46760000D01*
X123920000Y-44680000D02*
X123920000Y-44350000D01*
X123920000Y-44350000D02*
X117380000Y-44350000D01*
X117380000Y-44350000D02*
X117380000Y-44680000D01*
G04 #@! TO.C,R4*
X117380000Y-40540000D02*
X117380000Y-40870000D01*
X123920000Y-40540000D02*
X117380000Y-40540000D01*
X123920000Y-40870000D02*
X123920000Y-40540000D01*
X117380000Y-43280000D02*
X117380000Y-42950000D01*
X123920000Y-43280000D02*
X117380000Y-43280000D01*
X123920000Y-42950000D02*
X123920000Y-43280000D01*
G04 #@! TO.C,R5*
X76100000Y-66770000D02*
X76430000Y-66770000D01*
X76100000Y-60230000D02*
X76100000Y-66770000D01*
X76430000Y-60230000D02*
X76100000Y-60230000D01*
X78840000Y-66770000D02*
X78510000Y-66770000D01*
X78840000Y-60230000D02*
X78840000Y-66770000D01*
X78510000Y-60230000D02*
X78840000Y-60230000D01*
G04 #@! TO.C,R6*
X50570000Y-60230000D02*
X50900000Y-60230000D01*
X50900000Y-60230000D02*
X50900000Y-66770000D01*
X50900000Y-66770000D02*
X50570000Y-66770000D01*
X48490000Y-60230000D02*
X48160000Y-60230000D01*
X48160000Y-60230000D02*
X48160000Y-66770000D01*
X48160000Y-66770000D02*
X48490000Y-66770000D01*
G04 #@! TO.C,R7*
X55150000Y-118340000D02*
X55150000Y-118010000D01*
X55150000Y-118010000D02*
X61690000Y-118010000D01*
X61690000Y-118010000D02*
X61690000Y-118340000D01*
X55150000Y-120420000D02*
X55150000Y-120750000D01*
X55150000Y-120750000D02*
X61690000Y-120750000D01*
X61690000Y-120750000D02*
X61690000Y-120420000D01*
G04 #@! TO.C,R8*
X50900000Y-72930000D02*
X50570000Y-72930000D01*
X50900000Y-79470000D02*
X50900000Y-72930000D01*
X50570000Y-79470000D02*
X50900000Y-79470000D01*
X48160000Y-72930000D02*
X48490000Y-72930000D01*
X48160000Y-79470000D02*
X48160000Y-72930000D01*
X48490000Y-79470000D02*
X48160000Y-79470000D01*
G04 #@! TO.C,R9*
X111990000Y-85820000D02*
X111660000Y-85820000D01*
X111660000Y-85820000D02*
X111660000Y-79280000D01*
X111660000Y-79280000D02*
X111990000Y-79280000D01*
X114070000Y-85820000D02*
X114400000Y-85820000D01*
X114400000Y-85820000D02*
X114400000Y-79280000D01*
X114400000Y-79280000D02*
X114070000Y-79280000D01*
G04 #@! TO.C,SW1*
X52774214Y-51090000D02*
G75*
G03X52774214Y-51090000I-1414214J0D01*
G01*
X54330000Y-47970000D02*
X48390000Y-47970000D01*
X54330000Y-54210000D02*
X48390000Y-54210000D01*
X54480000Y-49750000D02*
X54480000Y-52430000D01*
X48240000Y-52430000D02*
X48240000Y-49750000D01*
G04 #@! TO.C,U1*
X121650000Y-52010000D02*
G75*
G02X119650000Y-52010000I-1000000J0D01*
G01*
X119650000Y-52010000D02*
X118400000Y-52010000D01*
X118400000Y-52010000D02*
X118400000Y-69910000D01*
X118400000Y-69910000D02*
X122900000Y-69910000D01*
X122900000Y-69910000D02*
X122900000Y-52010000D01*
X122900000Y-52010000D02*
X121650000Y-52010000D01*
G04 #@! TO.C,U2*
X107660000Y-83760000D02*
X102600000Y-83760000D01*
X107660000Y-119440000D02*
X107660000Y-83760000D01*
X95540000Y-119440000D02*
X107660000Y-119440000D01*
X95540000Y-83760000D02*
X95540000Y-119440000D01*
X100600000Y-83760000D02*
X95540000Y-83760000D01*
X102600000Y-83760000D02*
G75*
G02X100600000Y-83760000I-1000000J0D01*
G01*
G04 #@! TO.C,U3*
X102600000Y-43120000D02*
G75*
G02X100600000Y-43120000I-1000000J0D01*
G01*
X100600000Y-43120000D02*
X95540000Y-43120000D01*
X95540000Y-43120000D02*
X95540000Y-78800000D01*
X95540000Y-78800000D02*
X107660000Y-78800000D01*
X107660000Y-78800000D02*
X107660000Y-43120000D01*
X107660000Y-43120000D02*
X102600000Y-43120000D01*
G04 #@! TO.C,U4*
X69910000Y-65750000D02*
X69910000Y-64500000D01*
X52010000Y-65750000D02*
X69910000Y-65750000D01*
X52010000Y-61250000D02*
X52010000Y-65750000D01*
X69910000Y-61250000D02*
X52010000Y-61250000D01*
X69910000Y-62500000D02*
X69910000Y-61250000D01*
X69910000Y-64500000D02*
G75*
G02X69910000Y-62500000I0J1000000D01*
G01*
G04 #@! TO.C,U5*
X121650000Y-74870000D02*
G75*
G02X119650000Y-74870000I-1000000J0D01*
G01*
X119650000Y-74870000D02*
X118400000Y-74870000D01*
X118400000Y-74870000D02*
X118400000Y-92770000D01*
X118400000Y-92770000D02*
X122900000Y-92770000D01*
X122900000Y-92770000D02*
X122900000Y-74870000D01*
X122900000Y-74870000D02*
X121650000Y-74870000D01*
G04 #@! TO.C,U6*
X86090000Y-60265000D02*
G75*
G02X84090000Y-60265000I-1000000J0D01*
G01*
X84090000Y-60265000D02*
X82840000Y-60265000D01*
X82840000Y-60265000D02*
X82840000Y-80705000D01*
X82840000Y-80705000D02*
X87340000Y-80705000D01*
X87340000Y-80705000D02*
X87340000Y-60265000D01*
X87340000Y-60265000D02*
X86090000Y-60265000D01*
G04 #@! TO.C,U7*
X77200000Y-83760000D02*
G75*
G02X75200000Y-83760000I-1000000J0D01*
G01*
X75200000Y-83760000D02*
X70140000Y-83760000D01*
X70140000Y-83760000D02*
X70140000Y-119440000D01*
X70140000Y-119440000D02*
X82260000Y-119440000D01*
X82260000Y-119440000D02*
X82260000Y-83760000D01*
X82260000Y-83760000D02*
X77200000Y-83760000D01*
G04 #@! TO.C,U8*
X59420000Y-86300000D02*
G75*
G02X57420000Y-86300000I-1000000J0D01*
G01*
X57420000Y-86300000D02*
X56170000Y-86300000D01*
X56170000Y-86300000D02*
X56170000Y-116900000D01*
X56170000Y-116900000D02*
X60670000Y-116900000D01*
X60670000Y-116900000D02*
X60670000Y-86300000D01*
X60670000Y-86300000D02*
X59420000Y-86300000D01*
G04 #@! TO.C,U9*
X121650000Y-93920000D02*
G75*
G02X119650000Y-93920000I-1000000J0D01*
G01*
X119650000Y-93920000D02*
X118400000Y-93920000D01*
X118400000Y-93920000D02*
X118400000Y-119440000D01*
X118400000Y-119440000D02*
X122900000Y-119440000D01*
X122900000Y-119440000D02*
X122900000Y-93920000D01*
X122900000Y-93920000D02*
X121650000Y-93920000D01*
G04 #@! TO.C,U10*
X69910000Y-78450000D02*
X69910000Y-77200000D01*
X52010000Y-78450000D02*
X69910000Y-78450000D01*
X52010000Y-73950000D02*
X52010000Y-78450000D01*
X69910000Y-73950000D02*
X52010000Y-73950000D01*
X69910000Y-75200000D02*
X69910000Y-73950000D01*
X69910000Y-77200000D02*
G75*
G02X69910000Y-75200000I0J1000000D01*
G01*
G04 #@! TO.C,Y1*
X67985000Y-57135000D02*
X61735000Y-57135000D01*
X67985000Y-52085000D02*
X61735000Y-52085000D01*
X67985000Y-52085000D02*
G75*
G02X67985000Y-57135000I0J-2525000D01*
G01*
X61735000Y-52085000D02*
G75*
G03X61735000Y-57135000I0J-2525000D01*
G01*
G04 #@! TO.C,D1*
X44300000Y-60110000D02*
X42060000Y-60110000D01*
X42060000Y-60110000D02*
X42060000Y-64350000D01*
X42060000Y-64350000D02*
X44300000Y-64350000D01*
X44300000Y-64350000D02*
X44300000Y-60110000D01*
X43180000Y-59460000D02*
X43180000Y-60110000D01*
X43180000Y-65000000D02*
X43180000Y-64350000D01*
X44300000Y-60830000D02*
X42060000Y-60830000D01*
X44300000Y-60950000D02*
X42060000Y-60950000D01*
X44300000Y-60710000D02*
X42060000Y-60710000D01*
G04 #@! TO.C,D3*
X42060000Y-84670000D02*
X44300000Y-84670000D01*
X44300000Y-84670000D02*
X44300000Y-80430000D01*
X44300000Y-80430000D02*
X42060000Y-80430000D01*
X42060000Y-80430000D02*
X42060000Y-84670000D01*
X43180000Y-85320000D02*
X43180000Y-84670000D01*
X43180000Y-79780000D02*
X43180000Y-80430000D01*
X42060000Y-83950000D02*
X44300000Y-83950000D01*
X42060000Y-83830000D02*
X44300000Y-83830000D01*
X42060000Y-84070000D02*
X44300000Y-84070000D01*
G04 #@! TO.C,D4*
X42060000Y-109470000D02*
X44300000Y-109470000D01*
X42060000Y-109230000D02*
X44300000Y-109230000D01*
X42060000Y-109350000D02*
X44300000Y-109350000D01*
X43180000Y-105180000D02*
X43180000Y-105830000D01*
X43180000Y-110720000D02*
X43180000Y-110070000D01*
X42060000Y-105830000D02*
X42060000Y-110070000D01*
X44300000Y-105830000D02*
X42060000Y-105830000D01*
X44300000Y-110070000D02*
X44300000Y-105830000D01*
X42060000Y-110070000D02*
X44300000Y-110070000D01*
G04 #@! TO.C,U12*
D13*
X75652380Y-45688095D02*
X76461904Y-45688095D01*
X76557142Y-45640476D01*
X76604761Y-45592857D01*
X76652380Y-45497619D01*
X76652380Y-45307142D01*
X76604761Y-45211904D01*
X76557142Y-45164285D01*
X76461904Y-45116666D01*
X75652380Y-45116666D01*
X76652380Y-44116666D02*
X76652380Y-44688095D01*
X76652380Y-44402380D02*
X75652380Y-44402380D01*
X75795238Y-44497619D01*
X75890476Y-44592857D01*
X75938095Y-44688095D01*
X75747619Y-43735714D02*
X75700000Y-43688095D01*
X75652380Y-43592857D01*
X75652380Y-43354761D01*
X75700000Y-43259523D01*
X75747619Y-43211904D01*
X75842857Y-43164285D01*
X75938095Y-43164285D01*
X76080952Y-43211904D01*
X76652380Y-43783333D01*
X76652380Y-43164285D01*
G04 #@! TO.C,H2*
X38608095Y-41092380D02*
X38608095Y-40092380D01*
X38608095Y-40568571D02*
X39179523Y-40568571D01*
X39179523Y-41092380D02*
X39179523Y-40092380D01*
X39608095Y-40187619D02*
X39655714Y-40140000D01*
X39750952Y-40092380D01*
X39989047Y-40092380D01*
X40084285Y-40140000D01*
X40131904Y-40187619D01*
X40179523Y-40282857D01*
X40179523Y-40378095D01*
X40131904Y-40520952D01*
X39560476Y-41092380D01*
X40179523Y-41092380D01*
G04 #@! TO.C,C1*
X56237142Y-43346666D02*
X56284761Y-43394285D01*
X56332380Y-43537142D01*
X56332380Y-43632380D01*
X56284761Y-43775238D01*
X56189523Y-43870476D01*
X56094285Y-43918095D01*
X55903809Y-43965714D01*
X55760952Y-43965714D01*
X55570476Y-43918095D01*
X55475238Y-43870476D01*
X55380000Y-43775238D01*
X55332380Y-43632380D01*
X55332380Y-43537142D01*
X55380000Y-43394285D01*
X55427619Y-43346666D01*
X56332380Y-42394285D02*
X56332380Y-42965714D01*
X56332380Y-42680000D02*
X55332380Y-42680000D01*
X55475238Y-42775238D01*
X55570476Y-42870476D01*
X55618095Y-42965714D01*
G04 #@! TO.C,C2*
X62587142Y-49696666D02*
X62634761Y-49744285D01*
X62682380Y-49887142D01*
X62682380Y-49982380D01*
X62634761Y-50125238D01*
X62539523Y-50220476D01*
X62444285Y-50268095D01*
X62253809Y-50315714D01*
X62110952Y-50315714D01*
X61920476Y-50268095D01*
X61825238Y-50220476D01*
X61730000Y-50125238D01*
X61682380Y-49982380D01*
X61682380Y-49887142D01*
X61730000Y-49744285D01*
X61777619Y-49696666D01*
X61777619Y-49315714D02*
X61730000Y-49268095D01*
X61682380Y-49172857D01*
X61682380Y-48934761D01*
X61730000Y-48839523D01*
X61777619Y-48791904D01*
X61872857Y-48744285D01*
X61968095Y-48744285D01*
X62110952Y-48791904D01*
X62682380Y-49363333D01*
X62682380Y-48744285D01*
G04 #@! TO.C,C3*
X43537142Y-94146666D02*
X43584761Y-94194285D01*
X43632380Y-94337142D01*
X43632380Y-94432380D01*
X43584761Y-94575238D01*
X43489523Y-94670476D01*
X43394285Y-94718095D01*
X43203809Y-94765714D01*
X43060952Y-94765714D01*
X42870476Y-94718095D01*
X42775238Y-94670476D01*
X42680000Y-94575238D01*
X42632380Y-94432380D01*
X42632380Y-94337142D01*
X42680000Y-94194285D01*
X42727619Y-94146666D01*
X42632380Y-93813333D02*
X42632380Y-93194285D01*
X43013333Y-93527619D01*
X43013333Y-93384761D01*
X43060952Y-93289523D01*
X43108571Y-93241904D01*
X43203809Y-93194285D01*
X43441904Y-93194285D01*
X43537142Y-93241904D01*
X43584761Y-93289523D01*
X43632380Y-93384761D01*
X43632380Y-93670476D01*
X43584761Y-93765714D01*
X43537142Y-93813333D01*
G04 #@! TO.C,C4*
X65127142Y-86526666D02*
X65174761Y-86574285D01*
X65222380Y-86717142D01*
X65222380Y-86812380D01*
X65174761Y-86955238D01*
X65079523Y-87050476D01*
X64984285Y-87098095D01*
X64793809Y-87145714D01*
X64650952Y-87145714D01*
X64460476Y-87098095D01*
X64365238Y-87050476D01*
X64270000Y-86955238D01*
X64222380Y-86812380D01*
X64222380Y-86717142D01*
X64270000Y-86574285D01*
X64317619Y-86526666D01*
X64555714Y-85669523D02*
X65222380Y-85669523D01*
X64174761Y-85907619D02*
X64889047Y-86145714D01*
X64889047Y-85526666D01*
G04 #@! TO.C,C5*
X67667142Y-39536666D02*
X67714761Y-39584285D01*
X67762380Y-39727142D01*
X67762380Y-39822380D01*
X67714761Y-39965238D01*
X67619523Y-40060476D01*
X67524285Y-40108095D01*
X67333809Y-40155714D01*
X67190952Y-40155714D01*
X67000476Y-40108095D01*
X66905238Y-40060476D01*
X66810000Y-39965238D01*
X66762380Y-39822380D01*
X66762380Y-39727142D01*
X66810000Y-39584285D01*
X66857619Y-39536666D01*
X66762380Y-38631904D02*
X66762380Y-39108095D01*
X67238571Y-39155714D01*
X67190952Y-39108095D01*
X67143333Y-39012857D01*
X67143333Y-38774761D01*
X67190952Y-38679523D01*
X67238571Y-38631904D01*
X67333809Y-38584285D01*
X67571904Y-38584285D01*
X67667142Y-38631904D01*
X67714761Y-38679523D01*
X67762380Y-38774761D01*
X67762380Y-39012857D01*
X67714761Y-39108095D01*
X67667142Y-39155714D01*
G04 #@! TO.C,C6*
X72747142Y-49696666D02*
X72794761Y-49744285D01*
X72842380Y-49887142D01*
X72842380Y-49982380D01*
X72794761Y-50125238D01*
X72699523Y-50220476D01*
X72604285Y-50268095D01*
X72413809Y-50315714D01*
X72270952Y-50315714D01*
X72080476Y-50268095D01*
X71985238Y-50220476D01*
X71890000Y-50125238D01*
X71842380Y-49982380D01*
X71842380Y-49887142D01*
X71890000Y-49744285D01*
X71937619Y-49696666D01*
X71842380Y-48839523D02*
X71842380Y-49030000D01*
X71890000Y-49125238D01*
X71937619Y-49172857D01*
X72080476Y-49268095D01*
X72270952Y-49315714D01*
X72651904Y-49315714D01*
X72747142Y-49268095D01*
X72794761Y-49220476D01*
X72842380Y-49125238D01*
X72842380Y-48934761D01*
X72794761Y-48839523D01*
X72747142Y-48791904D01*
X72651904Y-48744285D01*
X72413809Y-48744285D01*
X72318571Y-48791904D01*
X72270952Y-48839523D01*
X72223333Y-48934761D01*
X72223333Y-49125238D01*
X72270952Y-49220476D01*
X72318571Y-49268095D01*
X72413809Y-49315714D01*
G04 #@! TO.C,C7*
X84177142Y-52236666D02*
X84224761Y-52284285D01*
X84272380Y-52427142D01*
X84272380Y-52522380D01*
X84224761Y-52665238D01*
X84129523Y-52760476D01*
X84034285Y-52808095D01*
X83843809Y-52855714D01*
X83700952Y-52855714D01*
X83510476Y-52808095D01*
X83415238Y-52760476D01*
X83320000Y-52665238D01*
X83272380Y-52522380D01*
X83272380Y-52427142D01*
X83320000Y-52284285D01*
X83367619Y-52236666D01*
X83272380Y-51903333D02*
X83272380Y-51236666D01*
X84272380Y-51665238D01*
G04 #@! TO.C,C8*
X49887142Y-83986666D02*
X49934761Y-84034285D01*
X49982380Y-84177142D01*
X49982380Y-84272380D01*
X49934761Y-84415238D01*
X49839523Y-84510476D01*
X49744285Y-84558095D01*
X49553809Y-84605714D01*
X49410952Y-84605714D01*
X49220476Y-84558095D01*
X49125238Y-84510476D01*
X49030000Y-84415238D01*
X48982380Y-84272380D01*
X48982380Y-84177142D01*
X49030000Y-84034285D01*
X49077619Y-83986666D01*
X49410952Y-83415238D02*
X49363333Y-83510476D01*
X49315714Y-83558095D01*
X49220476Y-83605714D01*
X49172857Y-83605714D01*
X49077619Y-83558095D01*
X49030000Y-83510476D01*
X48982380Y-83415238D01*
X48982380Y-83224761D01*
X49030000Y-83129523D01*
X49077619Y-83081904D01*
X49172857Y-83034285D01*
X49220476Y-83034285D01*
X49315714Y-83081904D01*
X49363333Y-83129523D01*
X49410952Y-83224761D01*
X49410952Y-83415238D01*
X49458571Y-83510476D01*
X49506190Y-83558095D01*
X49601428Y-83605714D01*
X49791904Y-83605714D01*
X49887142Y-83558095D01*
X49934761Y-83510476D01*
X49982380Y-83415238D01*
X49982380Y-83224761D01*
X49934761Y-83129523D01*
X49887142Y-83081904D01*
X49791904Y-83034285D01*
X49601428Y-83034285D01*
X49506190Y-83081904D01*
X49458571Y-83129523D01*
X49410952Y-83224761D01*
G04 #@! TO.C,C9*
X75287142Y-72556666D02*
X75334761Y-72604285D01*
X75382380Y-72747142D01*
X75382380Y-72842380D01*
X75334761Y-72985238D01*
X75239523Y-73080476D01*
X75144285Y-73128095D01*
X74953809Y-73175714D01*
X74810952Y-73175714D01*
X74620476Y-73128095D01*
X74525238Y-73080476D01*
X74430000Y-72985238D01*
X74382380Y-72842380D01*
X74382380Y-72747142D01*
X74430000Y-72604285D01*
X74477619Y-72556666D01*
X75382380Y-72080476D02*
X75382380Y-71890000D01*
X75334761Y-71794761D01*
X75287142Y-71747142D01*
X75144285Y-71651904D01*
X74953809Y-71604285D01*
X74572857Y-71604285D01*
X74477619Y-71651904D01*
X74430000Y-71699523D01*
X74382380Y-71794761D01*
X74382380Y-71985238D01*
X74430000Y-72080476D01*
X74477619Y-72128095D01*
X74572857Y-72175714D01*
X74810952Y-72175714D01*
X74906190Y-72128095D01*
X74953809Y-72080476D01*
X75001428Y-71985238D01*
X75001428Y-71794761D01*
X74953809Y-71699523D01*
X74906190Y-71651904D01*
X74810952Y-71604285D01*
G04 #@! TO.C,C10*
X72747142Y-69222857D02*
X72794761Y-69270476D01*
X72842380Y-69413333D01*
X72842380Y-69508571D01*
X72794761Y-69651428D01*
X72699523Y-69746666D01*
X72604285Y-69794285D01*
X72413809Y-69841904D01*
X72270952Y-69841904D01*
X72080476Y-69794285D01*
X71985238Y-69746666D01*
X71890000Y-69651428D01*
X71842380Y-69508571D01*
X71842380Y-69413333D01*
X71890000Y-69270476D01*
X71937619Y-69222857D01*
X72842380Y-68270476D02*
X72842380Y-68841904D01*
X72842380Y-68556190D02*
X71842380Y-68556190D01*
X71985238Y-68651428D01*
X72080476Y-68746666D01*
X72128095Y-68841904D01*
X71842380Y-67651428D02*
X71842380Y-67556190D01*
X71890000Y-67460952D01*
X71937619Y-67413333D01*
X72032857Y-67365714D01*
X72223333Y-67318095D01*
X72461428Y-67318095D01*
X72651904Y-67365714D01*
X72747142Y-67413333D01*
X72794761Y-67460952D01*
X72842380Y-67556190D01*
X72842380Y-67651428D01*
X72794761Y-67746666D01*
X72747142Y-67794285D01*
X72651904Y-67841904D01*
X72461428Y-67889523D01*
X72223333Y-67889523D01*
X72032857Y-67841904D01*
X71937619Y-67794285D01*
X71890000Y-67746666D01*
X71842380Y-67651428D01*
G04 #@! TO.C,C11*
X77827142Y-78112857D02*
X77874761Y-78160476D01*
X77922380Y-78303333D01*
X77922380Y-78398571D01*
X77874761Y-78541428D01*
X77779523Y-78636666D01*
X77684285Y-78684285D01*
X77493809Y-78731904D01*
X77350952Y-78731904D01*
X77160476Y-78684285D01*
X77065238Y-78636666D01*
X76970000Y-78541428D01*
X76922380Y-78398571D01*
X76922380Y-78303333D01*
X76970000Y-78160476D01*
X77017619Y-78112857D01*
X77922380Y-77160476D02*
X77922380Y-77731904D01*
X77922380Y-77446190D02*
X76922380Y-77446190D01*
X77065238Y-77541428D01*
X77160476Y-77636666D01*
X77208095Y-77731904D01*
X77922380Y-76208095D02*
X77922380Y-76779523D01*
X77922380Y-76493809D02*
X76922380Y-76493809D01*
X77065238Y-76589047D01*
X77160476Y-76684285D01*
X77208095Y-76779523D01*
G04 #@! TO.C,C12*
X81637142Y-52712857D02*
X81684761Y-52760476D01*
X81732380Y-52903333D01*
X81732380Y-52998571D01*
X81684761Y-53141428D01*
X81589523Y-53236666D01*
X81494285Y-53284285D01*
X81303809Y-53331904D01*
X81160952Y-53331904D01*
X80970476Y-53284285D01*
X80875238Y-53236666D01*
X80780000Y-53141428D01*
X80732380Y-52998571D01*
X80732380Y-52903333D01*
X80780000Y-52760476D01*
X80827619Y-52712857D01*
X81732380Y-51760476D02*
X81732380Y-52331904D01*
X81732380Y-52046190D02*
X80732380Y-52046190D01*
X80875238Y-52141428D01*
X80970476Y-52236666D01*
X81018095Y-52331904D01*
X80827619Y-51379523D02*
X80780000Y-51331904D01*
X80732380Y-51236666D01*
X80732380Y-50998571D01*
X80780000Y-50903333D01*
X80827619Y-50855714D01*
X80922857Y-50808095D01*
X81018095Y-50808095D01*
X81160952Y-50855714D01*
X81732380Y-51427142D01*
X81732380Y-50808095D01*
G04 #@! TO.C,C13*
X101957142Y-81922857D02*
X102004761Y-81970476D01*
X102052380Y-82113333D01*
X102052380Y-82208571D01*
X102004761Y-82351428D01*
X101909523Y-82446666D01*
X101814285Y-82494285D01*
X101623809Y-82541904D01*
X101480952Y-82541904D01*
X101290476Y-82494285D01*
X101195238Y-82446666D01*
X101100000Y-82351428D01*
X101052380Y-82208571D01*
X101052380Y-82113333D01*
X101100000Y-81970476D01*
X101147619Y-81922857D01*
X102052380Y-80970476D02*
X102052380Y-81541904D01*
X102052380Y-81256190D02*
X101052380Y-81256190D01*
X101195238Y-81351428D01*
X101290476Y-81446666D01*
X101338095Y-81541904D01*
X101052380Y-80637142D02*
X101052380Y-80018095D01*
X101433333Y-80351428D01*
X101433333Y-80208571D01*
X101480952Y-80113333D01*
X101528571Y-80065714D01*
X101623809Y-80018095D01*
X101861904Y-80018095D01*
X101957142Y-80065714D01*
X102004761Y-80113333D01*
X102052380Y-80208571D01*
X102052380Y-80494285D01*
X102004761Y-80589523D01*
X101957142Y-80637142D01*
G04 #@! TO.C,C14*
X103227142Y-41282857D02*
X103274761Y-41330476D01*
X103322380Y-41473333D01*
X103322380Y-41568571D01*
X103274761Y-41711428D01*
X103179523Y-41806666D01*
X103084285Y-41854285D01*
X102893809Y-41901904D01*
X102750952Y-41901904D01*
X102560476Y-41854285D01*
X102465238Y-41806666D01*
X102370000Y-41711428D01*
X102322380Y-41568571D01*
X102322380Y-41473333D01*
X102370000Y-41330476D01*
X102417619Y-41282857D01*
X103322380Y-40330476D02*
X103322380Y-40901904D01*
X103322380Y-40616190D02*
X102322380Y-40616190D01*
X102465238Y-40711428D01*
X102560476Y-40806666D01*
X102608095Y-40901904D01*
X102655714Y-39473333D02*
X103322380Y-39473333D01*
X102274761Y-39711428D02*
X102989047Y-39949523D01*
X102989047Y-39330476D01*
G04 #@! TO.C,C15*
X113387142Y-112402857D02*
X113434761Y-112450476D01*
X113482380Y-112593333D01*
X113482380Y-112688571D01*
X113434761Y-112831428D01*
X113339523Y-112926666D01*
X113244285Y-112974285D01*
X113053809Y-113021904D01*
X112910952Y-113021904D01*
X112720476Y-112974285D01*
X112625238Y-112926666D01*
X112530000Y-112831428D01*
X112482380Y-112688571D01*
X112482380Y-112593333D01*
X112530000Y-112450476D01*
X112577619Y-112402857D01*
X113482380Y-111450476D02*
X113482380Y-112021904D01*
X113482380Y-111736190D02*
X112482380Y-111736190D01*
X112625238Y-111831428D01*
X112720476Y-111926666D01*
X112768095Y-112021904D01*
X112482380Y-110545714D02*
X112482380Y-111021904D01*
X112958571Y-111069523D01*
X112910952Y-111021904D01*
X112863333Y-110926666D01*
X112863333Y-110688571D01*
X112910952Y-110593333D01*
X112958571Y-110545714D01*
X113053809Y-110498095D01*
X113291904Y-110498095D01*
X113387142Y-110545714D01*
X113434761Y-110593333D01*
X113482380Y-110688571D01*
X113482380Y-110926666D01*
X113434761Y-111021904D01*
X113387142Y-111069523D01*
G04 #@! TO.C,C16*
X113387142Y-95892857D02*
X113434761Y-95940476D01*
X113482380Y-96083333D01*
X113482380Y-96178571D01*
X113434761Y-96321428D01*
X113339523Y-96416666D01*
X113244285Y-96464285D01*
X113053809Y-96511904D01*
X112910952Y-96511904D01*
X112720476Y-96464285D01*
X112625238Y-96416666D01*
X112530000Y-96321428D01*
X112482380Y-96178571D01*
X112482380Y-96083333D01*
X112530000Y-95940476D01*
X112577619Y-95892857D01*
X113482380Y-94940476D02*
X113482380Y-95511904D01*
X113482380Y-95226190D02*
X112482380Y-95226190D01*
X112625238Y-95321428D01*
X112720476Y-95416666D01*
X112768095Y-95511904D01*
X112482380Y-94083333D02*
X112482380Y-94273809D01*
X112530000Y-94369047D01*
X112577619Y-94416666D01*
X112720476Y-94511904D01*
X112910952Y-94559523D01*
X113291904Y-94559523D01*
X113387142Y-94511904D01*
X113434761Y-94464285D01*
X113482380Y-94369047D01*
X113482380Y-94178571D01*
X113434761Y-94083333D01*
X113387142Y-94035714D01*
X113291904Y-93988095D01*
X113053809Y-93988095D01*
X112958571Y-94035714D01*
X112910952Y-94083333D01*
X112863333Y-94178571D01*
X112863333Y-94369047D01*
X112910952Y-94464285D01*
X112958571Y-94511904D01*
X113053809Y-94559523D01*
G04 #@! TO.C,C17*
X113387142Y-62872857D02*
X113434761Y-62920476D01*
X113482380Y-63063333D01*
X113482380Y-63158571D01*
X113434761Y-63301428D01*
X113339523Y-63396666D01*
X113244285Y-63444285D01*
X113053809Y-63491904D01*
X112910952Y-63491904D01*
X112720476Y-63444285D01*
X112625238Y-63396666D01*
X112530000Y-63301428D01*
X112482380Y-63158571D01*
X112482380Y-63063333D01*
X112530000Y-62920476D01*
X112577619Y-62872857D01*
X113482380Y-61920476D02*
X113482380Y-62491904D01*
X113482380Y-62206190D02*
X112482380Y-62206190D01*
X112625238Y-62301428D01*
X112720476Y-62396666D01*
X112768095Y-62491904D01*
X112482380Y-61587142D02*
X112482380Y-60920476D01*
X113482380Y-61349047D01*
G04 #@! TO.C,D2*
X44902380Y-118848095D02*
X43902380Y-118848095D01*
X43902380Y-118610000D01*
X43950000Y-118467142D01*
X44045238Y-118371904D01*
X44140476Y-118324285D01*
X44330952Y-118276666D01*
X44473809Y-118276666D01*
X44664285Y-118324285D01*
X44759523Y-118371904D01*
X44854761Y-118467142D01*
X44902380Y-118610000D01*
X44902380Y-118848095D01*
X43997619Y-117895714D02*
X43950000Y-117848095D01*
X43902380Y-117752857D01*
X43902380Y-117514761D01*
X43950000Y-117419523D01*
X43997619Y-117371904D01*
X44092857Y-117324285D01*
X44188095Y-117324285D01*
X44330952Y-117371904D01*
X44902380Y-117943333D01*
X44902380Y-117324285D01*
G04 #@! TO.C,J1*
X130262380Y-82673333D02*
X130976666Y-82673333D01*
X131119523Y-82720952D01*
X131214761Y-82816190D01*
X131262380Y-82959047D01*
X131262380Y-83054285D01*
X131262380Y-81673333D02*
X131262380Y-82244761D01*
X131262380Y-81959047D02*
X130262380Y-81959047D01*
X130405238Y-82054285D01*
X130500476Y-82149523D01*
X130548095Y-82244761D01*
G04 #@! TO.C,J2*
D14*
X37265428Y-61468000D02*
X38354000Y-61468000D01*
X38571714Y-61540571D01*
X38716857Y-61685714D01*
X38789428Y-61903428D01*
X38789428Y-62048571D01*
X37410571Y-60814857D02*
X37338000Y-60742285D01*
X37265428Y-60597142D01*
X37265428Y-60234285D01*
X37338000Y-60089142D01*
X37410571Y-60016571D01*
X37555714Y-59944000D01*
X37700857Y-59944000D01*
X37918571Y-60016571D01*
X38789428Y-60887428D01*
X38789428Y-59944000D01*
G04 #@! TO.C,J3*
D13*
X130262380Y-89443333D02*
X130976666Y-89443333D01*
X131119523Y-89490952D01*
X131214761Y-89586190D01*
X131262380Y-89729047D01*
X131262380Y-89824285D01*
X130262380Y-89062380D02*
X130262380Y-88443333D01*
X130643333Y-88776666D01*
X130643333Y-88633809D01*
X130690952Y-88538571D01*
X130738571Y-88490952D01*
X130833809Y-88443333D01*
X131071904Y-88443333D01*
X131167142Y-88490952D01*
X131214761Y-88538571D01*
X131262380Y-88633809D01*
X131262380Y-88919523D01*
X131214761Y-89014761D01*
X131167142Y-89062380D01*
G04 #@! TO.C,J4*
X46442380Y-72723333D02*
X47156666Y-72723333D01*
X47299523Y-72770952D01*
X47394761Y-72866190D01*
X47442380Y-73009047D01*
X47442380Y-73104285D01*
X46775714Y-71818571D02*
X47442380Y-71818571D01*
X46394761Y-72056666D02*
X47109047Y-72294761D01*
X47109047Y-71675714D01*
G04 #@! TO.C,R1*
X121102380Y-77636666D02*
X120626190Y-77970000D01*
X121102380Y-78208095D02*
X120102380Y-78208095D01*
X120102380Y-77827142D01*
X120150000Y-77731904D01*
X120197619Y-77684285D01*
X120292857Y-77636666D01*
X120435714Y-77636666D01*
X120530952Y-77684285D01*
X120578571Y-77731904D01*
X120626190Y-77827142D01*
X120626190Y-78208095D01*
X121102380Y-76684285D02*
X121102380Y-77255714D01*
X121102380Y-76970000D02*
X120102380Y-76970000D01*
X120245238Y-77065238D01*
X120340476Y-77160476D01*
X120388095Y-77255714D01*
G04 #@! TO.C,R2*
X121102380Y-49696666D02*
X120626190Y-50030000D01*
X121102380Y-50268095D02*
X120102380Y-50268095D01*
X120102380Y-49887142D01*
X120150000Y-49791904D01*
X120197619Y-49744285D01*
X120292857Y-49696666D01*
X120435714Y-49696666D01*
X120530952Y-49744285D01*
X120578571Y-49791904D01*
X120626190Y-49887142D01*
X120626190Y-50268095D01*
X120197619Y-49315714D02*
X120150000Y-49268095D01*
X120102380Y-49172857D01*
X120102380Y-48934761D01*
X120150000Y-48839523D01*
X120197619Y-48791904D01*
X120292857Y-48744285D01*
X120388095Y-48744285D01*
X120530952Y-48791904D01*
X121102380Y-49363333D01*
X121102380Y-48744285D01*
G04 #@! TO.C,R3*
X121102380Y-45886666D02*
X120626190Y-46220000D01*
X121102380Y-46458095D02*
X120102380Y-46458095D01*
X120102380Y-46077142D01*
X120150000Y-45981904D01*
X120197619Y-45934285D01*
X120292857Y-45886666D01*
X120435714Y-45886666D01*
X120530952Y-45934285D01*
X120578571Y-45981904D01*
X120626190Y-46077142D01*
X120626190Y-46458095D01*
X120102380Y-45553333D02*
X120102380Y-44934285D01*
X120483333Y-45267619D01*
X120483333Y-45124761D01*
X120530952Y-45029523D01*
X120578571Y-44981904D01*
X120673809Y-44934285D01*
X120911904Y-44934285D01*
X121007142Y-44981904D01*
X121054761Y-45029523D01*
X121102380Y-45124761D01*
X121102380Y-45410476D01*
X121054761Y-45505714D01*
X121007142Y-45553333D01*
G04 #@! TO.C,R4*
X121102380Y-42076666D02*
X120626190Y-42410000D01*
X121102380Y-42648095D02*
X120102380Y-42648095D01*
X120102380Y-42267142D01*
X120150000Y-42171904D01*
X120197619Y-42124285D01*
X120292857Y-42076666D01*
X120435714Y-42076666D01*
X120530952Y-42124285D01*
X120578571Y-42171904D01*
X120626190Y-42267142D01*
X120626190Y-42648095D01*
X120435714Y-41219523D02*
X121102380Y-41219523D01*
X120054761Y-41457619D02*
X120769047Y-41695714D01*
X120769047Y-41076666D01*
G04 #@! TO.C,R5*
X77922380Y-63666666D02*
X77446190Y-64000000D01*
X77922380Y-64238095D02*
X76922380Y-64238095D01*
X76922380Y-63857142D01*
X76970000Y-63761904D01*
X77017619Y-63714285D01*
X77112857Y-63666666D01*
X77255714Y-63666666D01*
X77350952Y-63714285D01*
X77398571Y-63761904D01*
X77446190Y-63857142D01*
X77446190Y-64238095D01*
X76922380Y-62761904D02*
X76922380Y-63238095D01*
X77398571Y-63285714D01*
X77350952Y-63238095D01*
X77303333Y-63142857D01*
X77303333Y-62904761D01*
X77350952Y-62809523D01*
X77398571Y-62761904D01*
X77493809Y-62714285D01*
X77731904Y-62714285D01*
X77827142Y-62761904D01*
X77874761Y-62809523D01*
X77922380Y-62904761D01*
X77922380Y-63142857D01*
X77874761Y-63238095D01*
X77827142Y-63285714D01*
G04 #@! TO.C,R6*
X49982380Y-63666666D02*
X49506190Y-64000000D01*
X49982380Y-64238095D02*
X48982380Y-64238095D01*
X48982380Y-63857142D01*
X49030000Y-63761904D01*
X49077619Y-63714285D01*
X49172857Y-63666666D01*
X49315714Y-63666666D01*
X49410952Y-63714285D01*
X49458571Y-63761904D01*
X49506190Y-63857142D01*
X49506190Y-64238095D01*
X48982380Y-62809523D02*
X48982380Y-63000000D01*
X49030000Y-63095238D01*
X49077619Y-63142857D01*
X49220476Y-63238095D01*
X49410952Y-63285714D01*
X49791904Y-63285714D01*
X49887142Y-63238095D01*
X49934761Y-63190476D01*
X49982380Y-63095238D01*
X49982380Y-62904761D01*
X49934761Y-62809523D01*
X49887142Y-62761904D01*
X49791904Y-62714285D01*
X49553809Y-62714285D01*
X49458571Y-62761904D01*
X49410952Y-62809523D01*
X49363333Y-62904761D01*
X49363333Y-63095238D01*
X49410952Y-63190476D01*
X49458571Y-63238095D01*
X49553809Y-63285714D01*
G04 #@! TO.C,R7*
X58872380Y-119546666D02*
X58396190Y-119880000D01*
X58872380Y-120118095D02*
X57872380Y-120118095D01*
X57872380Y-119737142D01*
X57920000Y-119641904D01*
X57967619Y-119594285D01*
X58062857Y-119546666D01*
X58205714Y-119546666D01*
X58300952Y-119594285D01*
X58348571Y-119641904D01*
X58396190Y-119737142D01*
X58396190Y-120118095D01*
X57872380Y-119213333D02*
X57872380Y-118546666D01*
X58872380Y-118975238D01*
G04 #@! TO.C,R8*
X49982380Y-76366666D02*
X49506190Y-76700000D01*
X49982380Y-76938095D02*
X48982380Y-76938095D01*
X48982380Y-76557142D01*
X49030000Y-76461904D01*
X49077619Y-76414285D01*
X49172857Y-76366666D01*
X49315714Y-76366666D01*
X49410952Y-76414285D01*
X49458571Y-76461904D01*
X49506190Y-76557142D01*
X49506190Y-76938095D01*
X49410952Y-75795238D02*
X49363333Y-75890476D01*
X49315714Y-75938095D01*
X49220476Y-75985714D01*
X49172857Y-75985714D01*
X49077619Y-75938095D01*
X49030000Y-75890476D01*
X48982380Y-75795238D01*
X48982380Y-75604761D01*
X49030000Y-75509523D01*
X49077619Y-75461904D01*
X49172857Y-75414285D01*
X49220476Y-75414285D01*
X49315714Y-75461904D01*
X49363333Y-75509523D01*
X49410952Y-75604761D01*
X49410952Y-75795238D01*
X49458571Y-75890476D01*
X49506190Y-75938095D01*
X49601428Y-75985714D01*
X49791904Y-75985714D01*
X49887142Y-75938095D01*
X49934761Y-75890476D01*
X49982380Y-75795238D01*
X49982380Y-75604761D01*
X49934761Y-75509523D01*
X49887142Y-75461904D01*
X49791904Y-75414285D01*
X49601428Y-75414285D01*
X49506190Y-75461904D01*
X49458571Y-75509523D01*
X49410952Y-75604761D01*
G04 #@! TO.C,R9*
X113482380Y-82716666D02*
X113006190Y-83050000D01*
X113482380Y-83288095D02*
X112482380Y-83288095D01*
X112482380Y-82907142D01*
X112530000Y-82811904D01*
X112577619Y-82764285D01*
X112672857Y-82716666D01*
X112815714Y-82716666D01*
X112910952Y-82764285D01*
X112958571Y-82811904D01*
X113006190Y-82907142D01*
X113006190Y-83288095D01*
X113482380Y-82240476D02*
X113482380Y-82050000D01*
X113434761Y-81954761D01*
X113387142Y-81907142D01*
X113244285Y-81811904D01*
X113053809Y-81764285D01*
X112672857Y-81764285D01*
X112577619Y-81811904D01*
X112530000Y-81859523D01*
X112482380Y-81954761D01*
X112482380Y-82145238D01*
X112530000Y-82240476D01*
X112577619Y-82288095D01*
X112672857Y-82335714D01*
X112910952Y-82335714D01*
X113006190Y-82288095D01*
X113053809Y-82240476D01*
X113101428Y-82145238D01*
X113101428Y-81954761D01*
X113053809Y-81859523D01*
X113006190Y-81811904D01*
X112910952Y-81764285D01*
G04 #@! TO.C,SW1*
X46124761Y-52133333D02*
X46172380Y-51990476D01*
X46172380Y-51752380D01*
X46124761Y-51657142D01*
X46077142Y-51609523D01*
X45981904Y-51561904D01*
X45886666Y-51561904D01*
X45791428Y-51609523D01*
X45743809Y-51657142D01*
X45696190Y-51752380D01*
X45648571Y-51942857D01*
X45600952Y-52038095D01*
X45553333Y-52085714D01*
X45458095Y-52133333D01*
X45362857Y-52133333D01*
X45267619Y-52085714D01*
X45220000Y-52038095D01*
X45172380Y-51942857D01*
X45172380Y-51704761D01*
X45220000Y-51561904D01*
X45172380Y-51228571D02*
X46172380Y-50990476D01*
X45458095Y-50800000D01*
X46172380Y-50609523D01*
X45172380Y-50371428D01*
X46172380Y-49466666D02*
X46172380Y-50038095D01*
X46172380Y-49752380D02*
X45172380Y-49752380D01*
X45315238Y-49847619D01*
X45410476Y-49942857D01*
X45458095Y-50038095D01*
G04 #@! TO.C,U1*
X120102380Y-55371904D02*
X120911904Y-55371904D01*
X121007142Y-55324285D01*
X121054761Y-55276666D01*
X121102380Y-55181428D01*
X121102380Y-54990952D01*
X121054761Y-54895714D01*
X121007142Y-54848095D01*
X120911904Y-54800476D01*
X120102380Y-54800476D01*
X121102380Y-53800476D02*
X121102380Y-54371904D01*
X121102380Y-54086190D02*
X120102380Y-54086190D01*
X120245238Y-54181428D01*
X120340476Y-54276666D01*
X120388095Y-54371904D01*
G04 #@! TO.C,U2*
X100838095Y-85812380D02*
X100838095Y-86621904D01*
X100885714Y-86717142D01*
X100933333Y-86764761D01*
X101028571Y-86812380D01*
X101219047Y-86812380D01*
X101314285Y-86764761D01*
X101361904Y-86717142D01*
X101409523Y-86621904D01*
X101409523Y-85812380D01*
X101838095Y-85907619D02*
X101885714Y-85860000D01*
X101980952Y-85812380D01*
X102219047Y-85812380D01*
X102314285Y-85860000D01*
X102361904Y-85907619D01*
X102409523Y-86002857D01*
X102409523Y-86098095D01*
X102361904Y-86240952D01*
X101790476Y-86812380D01*
X102409523Y-86812380D01*
G04 #@! TO.C,U3*
X101052380Y-46481904D02*
X101861904Y-46481904D01*
X101957142Y-46434285D01*
X102004761Y-46386666D01*
X102052380Y-46291428D01*
X102052380Y-46100952D01*
X102004761Y-46005714D01*
X101957142Y-45958095D01*
X101861904Y-45910476D01*
X101052380Y-45910476D01*
X101052380Y-45529523D02*
X101052380Y-44910476D01*
X101433333Y-45243809D01*
X101433333Y-45100952D01*
X101480952Y-45005714D01*
X101528571Y-44958095D01*
X101623809Y-44910476D01*
X101861904Y-44910476D01*
X101957142Y-44958095D01*
X102004761Y-45005714D01*
X102052380Y-45100952D01*
X102052380Y-45386666D01*
X102004761Y-45481904D01*
X101957142Y-45529523D01*
G04 #@! TO.C,U4*
X66762380Y-64261904D02*
X67571904Y-64261904D01*
X67667142Y-64214285D01*
X67714761Y-64166666D01*
X67762380Y-64071428D01*
X67762380Y-63880952D01*
X67714761Y-63785714D01*
X67667142Y-63738095D01*
X67571904Y-63690476D01*
X66762380Y-63690476D01*
X67095714Y-62785714D02*
X67762380Y-62785714D01*
X66714761Y-63023809D02*
X67429047Y-63261904D01*
X67429047Y-62642857D01*
G04 #@! TO.C,U5*
X120102380Y-73151904D02*
X120911904Y-73151904D01*
X121007142Y-73104285D01*
X121054761Y-73056666D01*
X121102380Y-72961428D01*
X121102380Y-72770952D01*
X121054761Y-72675714D01*
X121007142Y-72628095D01*
X120911904Y-72580476D01*
X120102380Y-72580476D01*
X120102380Y-71628095D02*
X120102380Y-72104285D01*
X120578571Y-72151904D01*
X120530952Y-72104285D01*
X120483333Y-72009047D01*
X120483333Y-71770952D01*
X120530952Y-71675714D01*
X120578571Y-71628095D01*
X120673809Y-71580476D01*
X120911904Y-71580476D01*
X121007142Y-71628095D01*
X121054761Y-71675714D01*
X121102380Y-71770952D01*
X121102380Y-72009047D01*
X121054761Y-72104285D01*
X121007142Y-72151904D01*
G04 #@! TO.C,U6*
X84542380Y-64261904D02*
X85351904Y-64261904D01*
X85447142Y-64214285D01*
X85494761Y-64166666D01*
X85542380Y-64071428D01*
X85542380Y-63880952D01*
X85494761Y-63785714D01*
X85447142Y-63738095D01*
X85351904Y-63690476D01*
X84542380Y-63690476D01*
X84542380Y-62785714D02*
X84542380Y-62976190D01*
X84590000Y-63071428D01*
X84637619Y-63119047D01*
X84780476Y-63214285D01*
X84970952Y-63261904D01*
X85351904Y-63261904D01*
X85447142Y-63214285D01*
X85494761Y-63166666D01*
X85542380Y-63071428D01*
X85542380Y-62880952D01*
X85494761Y-62785714D01*
X85447142Y-62738095D01*
X85351904Y-62690476D01*
X85113809Y-62690476D01*
X85018571Y-62738095D01*
X84970952Y-62785714D01*
X84923333Y-62880952D01*
X84923333Y-63071428D01*
X84970952Y-63166666D01*
X85018571Y-63214285D01*
X85113809Y-63261904D01*
G04 #@! TO.C,U7*
X75652380Y-87121904D02*
X76461904Y-87121904D01*
X76557142Y-87074285D01*
X76604761Y-87026666D01*
X76652380Y-86931428D01*
X76652380Y-86740952D01*
X76604761Y-86645714D01*
X76557142Y-86598095D01*
X76461904Y-86550476D01*
X75652380Y-86550476D01*
X75652380Y-86169523D02*
X75652380Y-85502857D01*
X76652380Y-85931428D01*
G04 #@! TO.C,U8*
X57872380Y-89661904D02*
X58681904Y-89661904D01*
X58777142Y-89614285D01*
X58824761Y-89566666D01*
X58872380Y-89471428D01*
X58872380Y-89280952D01*
X58824761Y-89185714D01*
X58777142Y-89138095D01*
X58681904Y-89090476D01*
X57872380Y-89090476D01*
X58300952Y-88471428D02*
X58253333Y-88566666D01*
X58205714Y-88614285D01*
X58110476Y-88661904D01*
X58062857Y-88661904D01*
X57967619Y-88614285D01*
X57920000Y-88566666D01*
X57872380Y-88471428D01*
X57872380Y-88280952D01*
X57920000Y-88185714D01*
X57967619Y-88138095D01*
X58062857Y-88090476D01*
X58110476Y-88090476D01*
X58205714Y-88138095D01*
X58253333Y-88185714D01*
X58300952Y-88280952D01*
X58300952Y-88471428D01*
X58348571Y-88566666D01*
X58396190Y-88614285D01*
X58491428Y-88661904D01*
X58681904Y-88661904D01*
X58777142Y-88614285D01*
X58824761Y-88566666D01*
X58872380Y-88471428D01*
X58872380Y-88280952D01*
X58824761Y-88185714D01*
X58777142Y-88138095D01*
X58681904Y-88090476D01*
X58491428Y-88090476D01*
X58396190Y-88138095D01*
X58348571Y-88185714D01*
X58300952Y-88280952D01*
G04 #@! TO.C,U9*
X120102380Y-97281904D02*
X120911904Y-97281904D01*
X121007142Y-97234285D01*
X121054761Y-97186666D01*
X121102380Y-97091428D01*
X121102380Y-96900952D01*
X121054761Y-96805714D01*
X121007142Y-96758095D01*
X120911904Y-96710476D01*
X120102380Y-96710476D01*
X121102380Y-96186666D02*
X121102380Y-95996190D01*
X121054761Y-95900952D01*
X121007142Y-95853333D01*
X120864285Y-95758095D01*
X120673809Y-95710476D01*
X120292857Y-95710476D01*
X120197619Y-95758095D01*
X120150000Y-95805714D01*
X120102380Y-95900952D01*
X120102380Y-96091428D01*
X120150000Y-96186666D01*
X120197619Y-96234285D01*
X120292857Y-96281904D01*
X120530952Y-96281904D01*
X120626190Y-96234285D01*
X120673809Y-96186666D01*
X120721428Y-96091428D01*
X120721428Y-95900952D01*
X120673809Y-95805714D01*
X120626190Y-95758095D01*
X120530952Y-95710476D01*
G04 #@! TO.C,U10*
X66762380Y-77438095D02*
X67571904Y-77438095D01*
X67667142Y-77390476D01*
X67714761Y-77342857D01*
X67762380Y-77247619D01*
X67762380Y-77057142D01*
X67714761Y-76961904D01*
X67667142Y-76914285D01*
X67571904Y-76866666D01*
X66762380Y-76866666D01*
X67762380Y-75866666D02*
X67762380Y-76438095D01*
X67762380Y-76152380D02*
X66762380Y-76152380D01*
X66905238Y-76247619D01*
X67000476Y-76342857D01*
X67048095Y-76438095D01*
X66762380Y-75247619D02*
X66762380Y-75152380D01*
X66810000Y-75057142D01*
X66857619Y-75009523D01*
X66952857Y-74961904D01*
X67143333Y-74914285D01*
X67381428Y-74914285D01*
X67571904Y-74961904D01*
X67667142Y-75009523D01*
X67714761Y-75057142D01*
X67762380Y-75152380D01*
X67762380Y-75247619D01*
X67714761Y-75342857D01*
X67667142Y-75390476D01*
X67571904Y-75438095D01*
X67381428Y-75485714D01*
X67143333Y-75485714D01*
X66952857Y-75438095D01*
X66857619Y-75390476D01*
X66810000Y-75342857D01*
X66762380Y-75247619D01*
G04 #@! TO.C,Y1*
X64836190Y-55086190D02*
X65312380Y-55086190D01*
X64312380Y-55419523D02*
X64836190Y-55086190D01*
X64312380Y-54752857D01*
X65312380Y-53895714D02*
X65312380Y-54467142D01*
X65312380Y-54181428D02*
X64312380Y-54181428D01*
X64455238Y-54276666D01*
X64550476Y-54371904D01*
X64598095Y-54467142D01*
G04 #@! TO.C,D1*
X43632380Y-62968095D02*
X42632380Y-62968095D01*
X42632380Y-62730000D01*
X42680000Y-62587142D01*
X42775238Y-62491904D01*
X42870476Y-62444285D01*
X43060952Y-62396666D01*
X43203809Y-62396666D01*
X43394285Y-62444285D01*
X43489523Y-62491904D01*
X43584761Y-62587142D01*
X43632380Y-62730000D01*
X43632380Y-62968095D01*
X43632380Y-61444285D02*
X43632380Y-62015714D01*
X43632380Y-61730000D02*
X42632380Y-61730000D01*
X42775238Y-61825238D01*
X42870476Y-61920476D01*
X42918095Y-62015714D01*
X45432380Y-58681904D02*
X44432380Y-58681904D01*
X45432380Y-58110476D02*
X44860952Y-58539047D01*
X44432380Y-58110476D02*
X45003809Y-58681904D01*
G04 #@! TO.C,D3*
X43632380Y-83288095D02*
X42632380Y-83288095D01*
X42632380Y-83050000D01*
X42680000Y-82907142D01*
X42775238Y-82811904D01*
X42870476Y-82764285D01*
X43060952Y-82716666D01*
X43203809Y-82716666D01*
X43394285Y-82764285D01*
X43489523Y-82811904D01*
X43584761Y-82907142D01*
X43632380Y-83050000D01*
X43632380Y-83288095D01*
X42632380Y-82383333D02*
X42632380Y-81764285D01*
X43013333Y-82097619D01*
X43013333Y-81954761D01*
X43060952Y-81859523D01*
X43108571Y-81811904D01*
X43203809Y-81764285D01*
X43441904Y-81764285D01*
X43537142Y-81811904D01*
X43584761Y-81859523D01*
X43632380Y-81954761D01*
X43632380Y-82240476D01*
X43584761Y-82335714D01*
X43537142Y-82383333D01*
X43632380Y-89161904D02*
X42632380Y-89161904D01*
X43632380Y-88590476D02*
X43060952Y-89019047D01*
X42632380Y-88590476D02*
X43203809Y-89161904D01*
G04 #@! TO.C,D4*
X43632380Y-108688095D02*
X42632380Y-108688095D01*
X42632380Y-108450000D01*
X42680000Y-108307142D01*
X42775238Y-108211904D01*
X42870476Y-108164285D01*
X43060952Y-108116666D01*
X43203809Y-108116666D01*
X43394285Y-108164285D01*
X43489523Y-108211904D01*
X43584761Y-108307142D01*
X43632380Y-108450000D01*
X43632380Y-108688095D01*
X42965714Y-107259523D02*
X43632380Y-107259523D01*
X42584761Y-107497619D02*
X43299047Y-107735714D01*
X43299047Y-107116666D01*
X43632380Y-114561904D02*
X42632380Y-114561904D01*
X43632380Y-113990476D02*
X43060952Y-114419047D01*
X42632380Y-113990476D02*
X43203809Y-114561904D01*
G04 #@! TO.C,H1*
X88138095Y-121102380D02*
X88138095Y-120102380D01*
X88138095Y-120578571D02*
X88709523Y-120578571D01*
X88709523Y-121102380D02*
X88709523Y-120102380D01*
X89709523Y-121102380D02*
X89138095Y-121102380D01*
X89423809Y-121102380D02*
X89423809Y-120102380D01*
X89328571Y-120245238D01*
X89233333Y-120340476D01*
X89138095Y-120388095D01*
G04 #@! TD*
M02*
