G04 #@! TF.GenerationSoftware,KiCad,Pcbnew,5.0.0-rc2-be01b52~65~ubuntu18.04.1*
G04 #@! TF.CreationDate,2018-06-09T19:25:23+04:00*
G04 #@! TF.ProjectId,plusd,706C7573642E6B696361645F70636200,rev?*
G04 #@! TF.SameCoordinates,Original*
G04 #@! TF.FileFunction,Copper,L2,Bot,Signal*
G04 #@! TF.FilePolarity,Positive*
%FSLAX46Y46*%
G04 Gerber Fmt 4.6, Leading zero omitted, Abs format (unit mm)*
G04 Created by KiCad (PCBNEW 5.0.0-rc2-be01b52~65~ubuntu18.04.1) date Sat Jun  9 19:25:23 2018*
%MOMM*%
%LPD*%
G01*
G04 APERTURE LIST*
G04 #@! TA.AperFunction,ComponentPad*
%ADD10O,1.800000X1.800000*%
G04 #@! TD*
G04 #@! TA.AperFunction,ComponentPad*
%ADD11R,1.800000X1.800000*%
G04 #@! TD*
G04 #@! TA.AperFunction,ComponentPad*
%ADD12R,1.600000X1.600000*%
G04 #@! TD*
G04 #@! TA.AperFunction,ComponentPad*
%ADD13C,1.600000*%
G04 #@! TD*
G04 #@! TA.AperFunction,ComponentPad*
%ADD14C,1.800000*%
G04 #@! TD*
G04 #@! TA.AperFunction,ComponentPad*
%ADD15R,1.700000X1.700000*%
G04 #@! TD*
G04 #@! TA.AperFunction,ComponentPad*
%ADD16O,1.700000X1.700000*%
G04 #@! TD*
G04 #@! TA.AperFunction,ConnectorPad*
%ADD17O,5.080000X1.778000*%
G04 #@! TD*
G04 #@! TA.AperFunction,ComponentPad*
%ADD18O,1.600000X1.600000*%
G04 #@! TD*
G04 #@! TA.AperFunction,ComponentPad*
%ADD19C,1.700000*%
G04 #@! TD*
G04 #@! TA.AperFunction,ComponentPad*
%ADD20R,2.400000X1.600000*%
G04 #@! TD*
G04 #@! TA.AperFunction,ComponentPad*
%ADD21O,2.400000X1.600000*%
G04 #@! TD*
G04 #@! TA.AperFunction,ComponentPad*
%ADD22O,1.600000X2.400000*%
G04 #@! TD*
G04 #@! TA.AperFunction,ComponentPad*
%ADD23R,1.600000X2.400000*%
G04 #@! TD*
G04 #@! TA.AperFunction,ComponentPad*
%ADD24C,1.500000*%
G04 #@! TD*
G04 #@! TA.AperFunction,ViaPad*
%ADD25C,0.800000*%
G04 #@! TD*
G04 #@! TA.AperFunction,Conductor*
%ADD26C,0.250000*%
G04 #@! TD*
G04 #@! TA.AperFunction,Conductor*
%ADD27C,0.254000*%
G04 #@! TD*
G04 APERTURE END LIST*
D10*
G04 #@! TO.P,U12,3*
G04 #@! TO.N,+5V*
X71120000Y-46990000D03*
G04 #@! TO.P,U12,2*
G04 #@! TO.N,GND*
X71120000Y-44450000D03*
D11*
G04 #@! TO.P,U12,1*
G04 #@! TO.N,+9V*
X71120000Y-41910000D03*
G04 #@! TD*
D12*
G04 #@! TO.P,C1,1*
G04 #@! TO.N,Net-(C1-Pad1)*
X60960000Y-41910000D03*
D13*
G04 #@! TO.P,C1,2*
G04 #@! TO.N,Net-(C1-Pad2)*
X60960000Y-44410000D03*
G04 #@! TD*
G04 #@! TO.P,C2,2*
G04 #@! TO.N,Net-(C2-Pad2)*
X64810000Y-49530000D03*
G04 #@! TO.P,C2,1*
G04 #@! TO.N,Net-(C2-Pad1)*
X67310000Y-49530000D03*
G04 #@! TD*
G04 #@! TO.P,C3,1*
G04 #@! TO.N,GND*
X43180000Y-96520000D03*
G04 #@! TO.P,C3,2*
G04 #@! TO.N,/RESET*
X43180000Y-99020000D03*
G04 #@! TD*
G04 #@! TO.P,C4,2*
G04 #@! TO.N,Net-(C4-Pad2)*
X64730000Y-83820000D03*
G04 #@! TO.P,C4,1*
G04 #@! TO.N,GND*
X62230000Y-83820000D03*
G04 #@! TD*
G04 #@! TO.P,C5,1*
G04 #@! TO.N,GND*
X67310000Y-44450000D03*
G04 #@! TO.P,C5,2*
G04 #@! TO.N,+9V*
X67310000Y-41950000D03*
G04 #@! TD*
D12*
G04 #@! TO.P,C6,1*
G04 #@! TO.N,+9V*
X74930000Y-53340000D03*
D13*
G04 #@! TO.P,C6,2*
G04 #@! TO.N,GND*
X74930000Y-55840000D03*
G04 #@! TD*
G04 #@! TO.P,C7,2*
G04 #@! TO.N,GND*
X87630000Y-57110000D03*
D12*
G04 #@! TO.P,C7,1*
G04 #@! TO.N,+5V*
X87630000Y-54610000D03*
G04 #@! TD*
D13*
G04 #@! TO.P,C8,1*
G04 #@! TO.N,GND*
X52070000Y-83820000D03*
G04 #@! TO.P,C8,2*
G04 #@! TO.N,+5V*
X54570000Y-83820000D03*
G04 #@! TD*
G04 #@! TO.P,C9,1*
G04 #@! TO.N,GND*
X73025000Y-74930000D03*
G04 #@! TO.P,C9,2*
G04 #@! TO.N,+5V*
X73025000Y-77430000D03*
G04 #@! TD*
G04 #@! TO.P,C10,2*
G04 #@! TO.N,+5V*
X72390000Y-62270000D03*
G04 #@! TO.P,C10,1*
G04 #@! TO.N,GND*
X72390000Y-64770000D03*
G04 #@! TD*
G04 #@! TO.P,C11,2*
G04 #@! TO.N,+5V*
X77430000Y-81280000D03*
G04 #@! TO.P,C11,1*
G04 #@! TO.N,GND*
X74930000Y-81280000D03*
G04 #@! TD*
G04 #@! TO.P,C12,2*
G04 #@! TO.N,+5V*
X81280000Y-55920000D03*
G04 #@! TO.P,C12,1*
G04 #@! TO.N,GND*
X81280000Y-58420000D03*
G04 #@! TD*
G04 #@! TO.P,C13,1*
G04 #@! TO.N,GND*
X104180000Y-81280000D03*
G04 #@! TO.P,C13,2*
G04 #@! TO.N,+5V*
X106680000Y-81280000D03*
G04 #@! TD*
G04 #@! TO.P,C14,2*
G04 #@! TO.N,+5V*
X108545000Y-40640000D03*
G04 #@! TO.P,C14,1*
G04 #@! TO.N,GND*
X106045000Y-40640000D03*
G04 #@! TD*
G04 #@! TO.P,C15,1*
G04 #@! TO.N,GND*
X113030000Y-118110000D03*
G04 #@! TO.P,C15,2*
G04 #@! TO.N,+5V*
X113030000Y-115610000D03*
G04 #@! TD*
G04 #@! TO.P,C16,2*
G04 #@! TO.N,+5V*
X113030000Y-88940000D03*
G04 #@! TO.P,C16,1*
G04 #@! TO.N,GND*
X113030000Y-91440000D03*
G04 #@! TD*
G04 #@! TO.P,C17,1*
G04 #@! TO.N,GND*
X113030000Y-68580000D03*
G04 #@! TO.P,C17,2*
G04 #@! TO.N,+5V*
X113030000Y-66080000D03*
G04 #@! TD*
D11*
G04 #@! TO.P,D2,1*
G04 #@! TO.N,Net-(D2-Pad1)*
X48260000Y-116840000D03*
D14*
G04 #@! TO.P,D2,2*
G04 #@! TO.N,Net-(D2-Pad2)*
X48260000Y-119380000D03*
G04 #@! TD*
D15*
G04 #@! TO.P,J1,1*
G04 #@! TO.N,GND*
X132080000Y-80010000D03*
D16*
G04 #@! TO.P,J1,2*
G04 #@! TO.N,N/C*
X129540000Y-80010000D03*
G04 #@! TO.P,J1,3*
G04 #@! TO.N,GND*
X132080000Y-77470000D03*
G04 #@! TO.P,J1,4*
G04 #@! TO.N,N/C*
X129540000Y-77470000D03*
G04 #@! TO.P,J1,5*
G04 #@! TO.N,GND*
X132080000Y-74930000D03*
G04 #@! TO.P,J1,6*
G04 #@! TO.N,N/C*
X129540000Y-74930000D03*
G04 #@! TO.P,J1,7*
G04 #@! TO.N,GND*
X132080000Y-72390000D03*
G04 #@! TO.P,J1,8*
G04 #@! TO.N,Net-(J1-Pad8)*
X129540000Y-72390000D03*
G04 #@! TO.P,J1,9*
G04 #@! TO.N,GND*
X132080000Y-69850000D03*
G04 #@! TO.P,J1,10*
G04 #@! TO.N,/DS0*
X129540000Y-69850000D03*
G04 #@! TO.P,J1,11*
G04 #@! TO.N,GND*
X132080000Y-67310000D03*
G04 #@! TO.P,J1,12*
G04 #@! TO.N,/DS1*
X129540000Y-67310000D03*
G04 #@! TO.P,J1,13*
G04 #@! TO.N,GND*
X132080000Y-64770000D03*
G04 #@! TO.P,J1,14*
G04 #@! TO.N,N/C*
X129540000Y-64770000D03*
G04 #@! TO.P,J1,15*
G04 #@! TO.N,GND*
X132080000Y-62230000D03*
G04 #@! TO.P,J1,16*
G04 #@! TO.N,Net-(J1-Pad16)*
X129540000Y-62230000D03*
G04 #@! TO.P,J1,17*
G04 #@! TO.N,GND*
X132080000Y-59690000D03*
G04 #@! TO.P,J1,18*
G04 #@! TO.N,Net-(J1-Pad18)*
X129540000Y-59690000D03*
G04 #@! TO.P,J1,19*
G04 #@! TO.N,GND*
X132080000Y-57150000D03*
G04 #@! TO.P,J1,20*
G04 #@! TO.N,Net-(J1-Pad20)*
X129540000Y-57150000D03*
G04 #@! TO.P,J1,21*
G04 #@! TO.N,GND*
X132080000Y-54610000D03*
G04 #@! TO.P,J1,22*
G04 #@! TO.N,Net-(J1-Pad22)*
X129540000Y-54610000D03*
G04 #@! TO.P,J1,23*
G04 #@! TO.N,GND*
X132080000Y-52070000D03*
G04 #@! TO.P,J1,24*
G04 #@! TO.N,Net-(J1-Pad24)*
X129540000Y-52070000D03*
G04 #@! TO.P,J1,25*
G04 #@! TO.N,GND*
X132080000Y-49530000D03*
G04 #@! TO.P,J1,26*
G04 #@! TO.N,Net-(J1-Pad26)*
X129540000Y-49530000D03*
G04 #@! TO.P,J1,27*
G04 #@! TO.N,GND*
X132080000Y-46990000D03*
G04 #@! TO.P,J1,28*
G04 #@! TO.N,Net-(J1-Pad28)*
X129540000Y-46990000D03*
G04 #@! TO.P,J1,29*
G04 #@! TO.N,GND*
X132080000Y-44450000D03*
G04 #@! TO.P,J1,30*
G04 #@! TO.N,Net-(J1-Pad30)*
X129540000Y-44450000D03*
G04 #@! TO.P,J1,31*
G04 #@! TO.N,GND*
X132080000Y-41910000D03*
G04 #@! TO.P,J1,32*
G04 #@! TO.N,/XXX*
X129540000Y-41910000D03*
G04 #@! TO.P,J1,33*
G04 #@! TO.N,GND*
X132080000Y-39370000D03*
G04 #@! TO.P,J1,34*
G04 #@! TO.N,N/C*
X129540000Y-39370000D03*
G04 #@! TD*
D17*
G04 #@! TO.P,J2,A28*
G04 #@! TO.N,/A11*
X38100000Y-119380000D03*
G04 #@! TO.P,J2,A27*
G04 #@! TO.N,/A9*
X38100000Y-116840000D03*
G04 #@! TO.P,J2,A26*
G04 #@! TO.N,N/C*
X38100000Y-114300000D03*
G04 #@! TO.P,J2,A25*
G04 #@! TO.N,ZX_ROMOE48*
X38100000Y-111760000D03*
G04 #@! TO.P,J2,A24*
G04 #@! TO.N,/A4*
X38100000Y-109220000D03*
G04 #@! TO.P,J2,A23*
G04 #@! TO.N,/A5*
X38100000Y-106680000D03*
G04 #@! TO.P,J2,A22*
G04 #@! TO.N,/A6*
X38100000Y-104140000D03*
G04 #@! TO.P,J2,A21*
G04 #@! TO.N,/A7*
X38100000Y-101600000D03*
G04 #@! TO.P,J2,A20*
G04 #@! TO.N,/RESET*
X38100000Y-99060000D03*
G04 #@! TO.P,J2,A19*
G04 #@! TO.N,N/C*
X38100000Y-96520000D03*
G04 #@! TO.P,J2,A18*
X38100000Y-93980000D03*
G04 #@! TO.P,J2,A17*
X38100000Y-91440000D03*
G04 #@! TO.P,J2,A16*
X38100000Y-88900000D03*
G04 #@! TO.P,J2,A15*
G04 #@! TO.N,ZX_ROMOE2*
X38100000Y-86360000D03*
G04 #@! TO.P,J2,A14*
G04 #@! TO.N,GND*
X38100000Y-83820000D03*
G04 #@! TO.P,J2,A13*
G04 #@! TO.N,N/C*
X38100000Y-81280000D03*
G04 #@! TO.P,J2,A12*
G04 #@! TO.N,/A3*
X38100000Y-78740000D03*
G04 #@! TO.P,J2,A11*
G04 #@! TO.N,/A2*
X38100000Y-76200000D03*
G04 #@! TO.P,J2,A10*
G04 #@! TO.N,/A1*
X38100000Y-73660000D03*
G04 #@! TO.P,J2,A9*
G04 #@! TO.N,/A0*
X38100000Y-71120000D03*
G04 #@! TO.P,J2,A8*
G04 #@! TO.N,N/C*
X38100000Y-68580000D03*
G04 #@! TO.P,J2,A7*
G04 #@! TO.N,GND*
X38100000Y-66040000D03*
G04 #@! TO.P,J2,A6*
X38100000Y-63500000D03*
G04 #@! TO.P,J2,A4*
G04 #@! TO.N,+9V*
X38100000Y-58420000D03*
G04 #@! TO.P,J2,A3*
G04 #@! TO.N,+5V*
X38100000Y-55880000D03*
G04 #@! TO.P,J2,A2*
G04 #@! TO.N,/A12*
X38100000Y-53340000D03*
G04 #@! TO.P,J2,A1*
G04 #@! TO.N,/A14*
X38100000Y-50800000D03*
G04 #@! TD*
D15*
G04 #@! TO.P,J3,1*
G04 #@! TO.N,Net-(J3-Pad1)*
X129540000Y-91440000D03*
D16*
G04 #@! TO.P,J3,2*
G04 #@! TO.N,GND*
X132080000Y-91440000D03*
G04 #@! TO.P,J3,3*
G04 #@! TO.N,Net-(J3-Pad3)*
X129540000Y-93980000D03*
G04 #@! TO.P,J3,4*
G04 #@! TO.N,GND*
X132080000Y-93980000D03*
G04 #@! TO.P,J3,5*
G04 #@! TO.N,Net-(J3-Pad5)*
X129540000Y-96520000D03*
G04 #@! TO.P,J3,6*
G04 #@! TO.N,GND*
X132080000Y-96520000D03*
G04 #@! TO.P,J3,7*
G04 #@! TO.N,Net-(J3-Pad7)*
X129540000Y-99060000D03*
G04 #@! TO.P,J3,8*
G04 #@! TO.N,GND*
X132080000Y-99060000D03*
G04 #@! TO.P,J3,9*
G04 #@! TO.N,Net-(J3-Pad9)*
X129540000Y-101600000D03*
G04 #@! TO.P,J3,10*
G04 #@! TO.N,GND*
X132080000Y-101600000D03*
G04 #@! TO.P,J3,11*
G04 #@! TO.N,Net-(J3-Pad11)*
X129540000Y-104140000D03*
G04 #@! TO.P,J3,12*
G04 #@! TO.N,GND*
X132080000Y-104140000D03*
G04 #@! TO.P,J3,13*
G04 #@! TO.N,Net-(J3-Pad13)*
X129540000Y-106680000D03*
G04 #@! TO.P,J3,14*
G04 #@! TO.N,GND*
X132080000Y-106680000D03*
G04 #@! TO.P,J3,15*
G04 #@! TO.N,Net-(J3-Pad15)*
X129540000Y-109220000D03*
G04 #@! TO.P,J3,16*
G04 #@! TO.N,GND*
X132080000Y-109220000D03*
G04 #@! TO.P,J3,17*
G04 #@! TO.N,Net-(J3-Pad17)*
X129540000Y-111760000D03*
G04 #@! TO.P,J3,18*
G04 #@! TO.N,GND*
X132080000Y-111760000D03*
G04 #@! TO.P,J3,19*
G04 #@! TO.N,N/C*
X129540000Y-114300000D03*
G04 #@! TO.P,J3,20*
G04 #@! TO.N,GND*
X132080000Y-114300000D03*
G04 #@! TO.P,J3,21*
G04 #@! TO.N,Net-(J3-Pad21)*
X129540000Y-116840000D03*
G04 #@! TO.P,J3,22*
G04 #@! TO.N,GND*
X132080000Y-116840000D03*
G04 #@! TO.P,J3,23*
G04 #@! TO.N,N/C*
X129540000Y-119380000D03*
G04 #@! TO.P,J3,24*
G04 #@! TO.N,GND*
X132080000Y-119380000D03*
G04 #@! TO.P,J3,25*
G04 #@! TO.N,N/C*
X129540000Y-121920000D03*
G04 #@! TO.P,J3,26*
X132080000Y-121920000D03*
G04 #@! TD*
D15*
G04 #@! TO.P,J4,1*
G04 #@! TO.N,Net-(D4-Pad2)*
X43180000Y-74930000D03*
D16*
G04 #@! TO.P,J4,2*
G04 #@! TO.N,Net-(D2-Pad1)*
X43180000Y-72390000D03*
G04 #@! TO.P,J4,3*
G04 #@! TO.N,Net-(D1-Pad2)*
X43180000Y-69850000D03*
G04 #@! TD*
D13*
G04 #@! TO.P,R1,1*
G04 #@! TO.N,Net-(J1-Pad8)*
X124460000Y-72390000D03*
D18*
G04 #@! TO.P,R1,2*
G04 #@! TO.N,+5V*
X116840000Y-72390000D03*
G04 #@! TD*
G04 #@! TO.P,R2,2*
G04 #@! TO.N,+5V*
X116840000Y-49530000D03*
D13*
G04 #@! TO.P,R2,1*
G04 #@! TO.N,Net-(J1-Pad26)*
X124460000Y-49530000D03*
G04 #@! TD*
G04 #@! TO.P,R3,1*
G04 #@! TO.N,Net-(J1-Pad28)*
X124460000Y-45720000D03*
D18*
G04 #@! TO.P,R3,2*
G04 #@! TO.N,+5V*
X116840000Y-45720000D03*
G04 #@! TD*
G04 #@! TO.P,R4,2*
G04 #@! TO.N,+5V*
X116840000Y-41910000D03*
D13*
G04 #@! TO.P,R4,1*
G04 #@! TO.N,Net-(J1-Pad30)*
X124460000Y-41910000D03*
G04 #@! TD*
D18*
G04 #@! TO.P,R5,2*
G04 #@! TO.N,Net-(C2-Pad2)*
X77470000Y-67310000D03*
D13*
G04 #@! TO.P,R5,1*
G04 #@! TO.N,Net-(C1-Pad2)*
X77470000Y-59690000D03*
G04 #@! TD*
G04 #@! TO.P,R6,1*
G04 #@! TO.N,Net-(R6-Pad1)*
X49530000Y-59690000D03*
D18*
G04 #@! TO.P,R6,2*
G04 #@! TO.N,Net-(C1-Pad1)*
X49530000Y-67310000D03*
G04 #@! TD*
D13*
G04 #@! TO.P,R7,1*
G04 #@! TO.N,Net-(D2-Pad2)*
X54610000Y-119380000D03*
D18*
G04 #@! TO.P,R7,2*
G04 #@! TO.N,+5V*
X62230000Y-119380000D03*
G04 #@! TD*
G04 #@! TO.P,R8,2*
G04 #@! TO.N,Net-(R8-Pad2)*
X49530000Y-72390000D03*
D13*
G04 #@! TO.P,R8,1*
G04 #@! TO.N,Net-(C4-Pad2)*
X49530000Y-80010000D03*
G04 #@! TD*
G04 #@! TO.P,R9,1*
G04 #@! TO.N,Net-(J3-Pad21)*
X113030000Y-86360000D03*
D18*
G04 #@! TO.P,R9,2*
G04 #@! TO.N,+5V*
X113030000Y-78740000D03*
G04 #@! TD*
D19*
G04 #@! TO.P,SW1,4*
G04 #@! TO.N,N/C*
X48110000Y-48840000D03*
G04 #@! TO.P,SW1,3*
X54610000Y-48840000D03*
G04 #@! TO.P,SW1,2*
G04 #@! TO.N,Net-(D2-Pad1)*
X48110000Y-53340000D03*
G04 #@! TO.P,SW1,1*
G04 #@! TO.N,NMI*
X54610000Y-53340000D03*
G04 #@! TD*
D20*
G04 #@! TO.P,U1,1*
G04 #@! TO.N,Net-(U1-Pad1)*
X116840000Y-53340000D03*
D21*
G04 #@! TO.P,U1,8*
G04 #@! TO.N,Net-(J3-Pad1)*
X124460000Y-68580000D03*
G04 #@! TO.P,U1,2*
G04 #@! TO.N,Net-(J1-Pad22)*
X116840000Y-55880000D03*
G04 #@! TO.P,U1,9*
G04 #@! TO.N,Net-(U1-Pad9)*
X124460000Y-66040000D03*
G04 #@! TO.P,U1,3*
G04 #@! TO.N,Net-(U1-Pad3)*
X116840000Y-58420000D03*
G04 #@! TO.P,U1,10*
G04 #@! TO.N,Net-(J1-Pad18)*
X124460000Y-63500000D03*
G04 #@! TO.P,U1,4*
G04 #@! TO.N,Net-(J1-Pad16)*
X116840000Y-60960000D03*
G04 #@! TO.P,U1,11*
G04 #@! TO.N,Net-(U1-Pad11)*
X124460000Y-60960000D03*
G04 #@! TO.P,U1,5*
G04 #@! TO.N,Net-(U1-Pad5)*
X116840000Y-63500000D03*
G04 #@! TO.P,U1,12*
G04 #@! TO.N,Net-(J1-Pad24)*
X124460000Y-58420000D03*
G04 #@! TO.P,U1,6*
G04 #@! TO.N,Net-(J1-Pad20)*
X116840000Y-66040000D03*
G04 #@! TO.P,U1,13*
G04 #@! TO.N,Net-(U1-Pad13)*
X124460000Y-55880000D03*
G04 #@! TO.P,U1,7*
G04 #@! TO.N,GND*
X116840000Y-68580000D03*
G04 #@! TO.P,U1,14*
G04 #@! TO.N,+5V*
X124460000Y-53340000D03*
G04 #@! TD*
G04 #@! TO.P,U2,28*
G04 #@! TO.N,+5V*
X109220000Y-85090000D03*
G04 #@! TO.P,U2,14*
G04 #@! TO.N,GND*
X93980000Y-118110000D03*
G04 #@! TO.P,U2,27*
G04 #@! TO.N,+5V*
X109220000Y-87630000D03*
G04 #@! TO.P,U2,13*
G04 #@! TO.N,/D2*
X93980000Y-115570000D03*
G04 #@! TO.P,U2,26*
G04 #@! TO.N,N/C*
X109220000Y-90170000D03*
G04 #@! TO.P,U2,12*
G04 #@! TO.N,/D1*
X93980000Y-113030000D03*
G04 #@! TO.P,U2,25*
G04 #@! TO.N,/A8*
X109220000Y-92710000D03*
G04 #@! TO.P,U2,11*
G04 #@! TO.N,/D0*
X93980000Y-110490000D03*
G04 #@! TO.P,U2,24*
G04 #@! TO.N,/A9*
X109220000Y-95250000D03*
G04 #@! TO.P,U2,10*
G04 #@! TO.N,/A0*
X93980000Y-107950000D03*
G04 #@! TO.P,U2,23*
G04 #@! TO.N,/A11*
X109220000Y-97790000D03*
G04 #@! TO.P,U2,9*
G04 #@! TO.N,/A1*
X93980000Y-105410000D03*
G04 #@! TO.P,U2,22*
G04 #@! TO.N,/RD*
X109220000Y-100330000D03*
G04 #@! TO.P,U2,8*
G04 #@! TO.N,/A2*
X93980000Y-102870000D03*
G04 #@! TO.P,U2,21*
G04 #@! TO.N,/A10*
X109220000Y-102870000D03*
G04 #@! TO.P,U2,7*
G04 #@! TO.N,/A3*
X93980000Y-100330000D03*
G04 #@! TO.P,U2,20*
G04 #@! TO.N,ROM_CS*
X109220000Y-105410000D03*
G04 #@! TO.P,U2,6*
G04 #@! TO.N,/A4*
X93980000Y-97790000D03*
G04 #@! TO.P,U2,19*
G04 #@! TO.N,/D7*
X109220000Y-107950000D03*
G04 #@! TO.P,U2,5*
G04 #@! TO.N,/A5*
X93980000Y-95250000D03*
G04 #@! TO.P,U2,18*
G04 #@! TO.N,/D6*
X109220000Y-110490000D03*
G04 #@! TO.P,U2,4*
G04 #@! TO.N,/A6*
X93980000Y-92710000D03*
G04 #@! TO.P,U2,17*
G04 #@! TO.N,/D5*
X109220000Y-113030000D03*
G04 #@! TO.P,U2,3*
G04 #@! TO.N,/A7*
X93980000Y-90170000D03*
G04 #@! TO.P,U2,16*
G04 #@! TO.N,/D4*
X109220000Y-115570000D03*
G04 #@! TO.P,U2,2*
G04 #@! TO.N,/A12*
X93980000Y-87630000D03*
G04 #@! TO.P,U2,15*
G04 #@! TO.N,/D3*
X109220000Y-118110000D03*
D20*
G04 #@! TO.P,U2,1*
G04 #@! TO.N,N/C*
X93980000Y-85090000D03*
G04 #@! TD*
G04 #@! TO.P,U3,1*
G04 #@! TO.N,FDC_CS*
X93980000Y-44450000D03*
D21*
G04 #@! TO.P,U3,15*
G04 #@! TO.N,+5V*
X109220000Y-77470000D03*
G04 #@! TO.P,U3,2*
G04 #@! TO.N,/WR*
X93980000Y-46990000D03*
G04 #@! TO.P,U3,16*
G04 #@! TO.N,Net-(U1-Pad5)*
X109220000Y-74930000D03*
G04 #@! TO.P,U3,3*
G04 #@! TO.N,/A3*
X93980000Y-49530000D03*
G04 #@! TO.P,U3,17*
G04 #@! TO.N,Net-(U1-Pad11)*
X109220000Y-72390000D03*
G04 #@! TO.P,U3,4*
G04 #@! TO.N,/A4*
X93980000Y-52070000D03*
G04 #@! TO.P,U3,18*
G04 #@! TO.N,Net-(C2-Pad2)*
X109220000Y-69850000D03*
G04 #@! TO.P,U3,5*
G04 #@! TO.N,/D0*
X93980000Y-54610000D03*
G04 #@! TO.P,U3,19*
G04 #@! TO.N,Net-(J1-Pad30)*
X109220000Y-67310000D03*
G04 #@! TO.P,U3,6*
G04 #@! TO.N,/D1*
X93980000Y-57150000D03*
G04 #@! TO.P,U3,20*
G04 #@! TO.N,Net-(U1-Pad3)*
X109220000Y-64770000D03*
G04 #@! TO.P,U3,7*
G04 #@! TO.N,/D2*
X93980000Y-59690000D03*
G04 #@! TO.P,U3,21*
G04 #@! TO.N,Net-(U1-Pad13)*
X109220000Y-62230000D03*
G04 #@! TO.P,U3,8*
G04 #@! TO.N,/D3*
X93980000Y-62230000D03*
G04 #@! TO.P,U3,22*
G04 #@! TO.N,Net-(U1-Pad1)*
X109220000Y-59690000D03*
G04 #@! TO.P,U3,9*
G04 #@! TO.N,/D4*
X93980000Y-64770000D03*
G04 #@! TO.P,U3,23*
G04 #@! TO.N,Net-(J1-Pad26)*
X109220000Y-57150000D03*
G04 #@! TO.P,U3,10*
G04 #@! TO.N,/D5*
X93980000Y-67310000D03*
G04 #@! TO.P,U3,24*
G04 #@! TO.N,Net-(J1-Pad8)*
X109220000Y-54610000D03*
G04 #@! TO.P,U3,11*
G04 #@! TO.N,/D6*
X93980000Y-69850000D03*
G04 #@! TO.P,U3,25*
G04 #@! TO.N,Net-(J1-Pad28)*
X109220000Y-52070000D03*
G04 #@! TO.P,U3,12*
G04 #@! TO.N,/D7*
X93980000Y-72390000D03*
G04 #@! TO.P,U3,26*
G04 #@! TO.N,GND*
X109220000Y-49530000D03*
G04 #@! TO.P,U3,13*
G04 #@! TO.N,/RESET*
X93980000Y-74930000D03*
G04 #@! TO.P,U3,27*
G04 #@! TO.N,N/C*
X109220000Y-46990000D03*
G04 #@! TO.P,U3,14*
G04 #@! TO.N,GND*
X93980000Y-77470000D03*
G04 #@! TO.P,U3,28*
G04 #@! TO.N,N/C*
X109220000Y-44450000D03*
G04 #@! TD*
D22*
G04 #@! TO.P,U4,14*
G04 #@! TO.N,GND*
X68580000Y-67310000D03*
G04 #@! TO.P,U4,7*
G04 #@! TO.N,+5V*
X53340000Y-59690000D03*
G04 #@! TO.P,U4,13*
G04 #@! TO.N,Net-(U10-Pad12)*
X66040000Y-67310000D03*
G04 #@! TO.P,U4,6*
G04 #@! TO.N,Net-(C1-Pad1)*
X55880000Y-59690000D03*
G04 #@! TO.P,U4,12*
G04 #@! TO.N,Net-(U10-Pad8)*
X63500000Y-67310000D03*
G04 #@! TO.P,U4,5*
G04 #@! TO.N,Net-(R6-Pad1)*
X58420000Y-59690000D03*
G04 #@! TO.P,U4,11*
G04 #@! TO.N,Net-(U10-Pad5)*
X60960000Y-67310000D03*
G04 #@! TO.P,U4,4*
G04 #@! TO.N,Net-(R6-Pad1)*
X60960000Y-59690000D03*
G04 #@! TO.P,U4,10*
G04 #@! TO.N,PRN_STR*
X58420000Y-67310000D03*
G04 #@! TO.P,U4,3*
G04 #@! TO.N,Net-(C2-Pad2)*
X63500000Y-59690000D03*
G04 #@! TO.P,U4,9*
G04 #@! TO.N,PRN_STR*
X55880000Y-67310000D03*
G04 #@! TO.P,U4,2*
G04 #@! TO.N,Net-(C1-Pad2)*
X66040000Y-59690000D03*
G04 #@! TO.P,U4,8*
G04 #@! TO.N,Net-(U4-Pad8)*
X53340000Y-67310000D03*
D23*
G04 #@! TO.P,U4,1*
G04 #@! TO.N,Net-(C1-Pad2)*
X68580000Y-59690000D03*
G04 #@! TD*
D20*
G04 #@! TO.P,U5,1*
G04 #@! TO.N,+5V*
X116840000Y-76200000D03*
D21*
G04 #@! TO.P,U5,8*
G04 #@! TO.N,/DS1*
X124460000Y-91440000D03*
G04 #@! TO.P,U5,2*
G04 #@! TO.N,Net-(U5-Pad2)*
X116840000Y-78740000D03*
G04 #@! TO.P,U5,9*
G04 #@! TO.N,Net-(U5-Pad9)*
X124460000Y-88900000D03*
G04 #@! TO.P,U5,3*
G04 #@! TO.N,/XXX*
X116840000Y-81280000D03*
G04 #@! TO.P,U5,10*
G04 #@! TO.N,+5V*
X124460000Y-86360000D03*
G04 #@! TO.P,U5,4*
G04 #@! TO.N,Net-(U4-Pad8)*
X116840000Y-83820000D03*
G04 #@! TO.P,U5,11*
G04 #@! TO.N,/DS0*
X124460000Y-83820000D03*
G04 #@! TO.P,U5,5*
G04 #@! TO.N,Net-(J3-Pad21)*
X116840000Y-86360000D03*
G04 #@! TO.P,U5,12*
G04 #@! TO.N,Net-(U5-Pad12)*
X124460000Y-81280000D03*
G04 #@! TO.P,U5,6*
G04 #@! TO.N,/D7*
X116840000Y-88900000D03*
G04 #@! TO.P,U5,13*
G04 #@! TO.N,+5V*
X124460000Y-78740000D03*
G04 #@! TO.P,U5,7*
G04 #@! TO.N,GND*
X116840000Y-91440000D03*
G04 #@! TO.P,U5,14*
G04 #@! TO.N,+5V*
X124460000Y-76200000D03*
G04 #@! TD*
D20*
G04 #@! TO.P,U6,1*
G04 #@! TO.N,/RESET*
X81280000Y-61595000D03*
D21*
G04 #@! TO.P,U6,9*
G04 #@! TO.N,DSK_CS*
X88900000Y-79375000D03*
G04 #@! TO.P,U6,2*
G04 #@! TO.N,N/C*
X81280000Y-64135000D03*
G04 #@! TO.P,U6,10*
G04 #@! TO.N,Net-(U1-Pad9)*
X88900000Y-76835000D03*
G04 #@! TO.P,U6,3*
G04 #@! TO.N,Net-(U5-Pad12)*
X81280000Y-66675000D03*
G04 #@! TO.P,U6,11*
G04 #@! TO.N,N/C*
X88900000Y-74295000D03*
G04 #@! TO.P,U6,4*
G04 #@! TO.N,/D0*
X81280000Y-69215000D03*
G04 #@! TO.P,U6,12*
G04 #@! TO.N,/D6*
X88900000Y-71755000D03*
G04 #@! TO.P,U6,5*
G04 #@! TO.N,/D1*
X81280000Y-71755000D03*
G04 #@! TO.P,U6,13*
G04 #@! TO.N,/D7*
X88900000Y-69215000D03*
G04 #@! TO.P,U6,6*
G04 #@! TO.N,Net-(U5-Pad9)*
X81280000Y-74295000D03*
G04 #@! TO.P,U6,14*
G04 #@! TO.N,Net-(U5-Pad2)*
X88900000Y-66675000D03*
G04 #@! TO.P,U6,7*
G04 #@! TO.N,N/C*
X81280000Y-76835000D03*
G04 #@! TO.P,U6,15*
X88900000Y-64135000D03*
G04 #@! TO.P,U6,8*
G04 #@! TO.N,GND*
X81280000Y-79375000D03*
G04 #@! TO.P,U6,16*
G04 #@! TO.N,+5V*
X88900000Y-61595000D03*
G04 #@! TD*
D20*
G04 #@! TO.P,U7,1*
G04 #@! TO.N,GND*
X68580000Y-85090000D03*
D21*
G04 #@! TO.P,U7,15*
G04 #@! TO.N,/D3*
X83820000Y-118110000D03*
G04 #@! TO.P,U7,2*
G04 #@! TO.N,/A12*
X68580000Y-87630000D03*
G04 #@! TO.P,U7,16*
G04 #@! TO.N,/D4*
X83820000Y-115570000D03*
G04 #@! TO.P,U7,3*
G04 #@! TO.N,/A7*
X68580000Y-90170000D03*
G04 #@! TO.P,U7,17*
G04 #@! TO.N,/D5*
X83820000Y-113030000D03*
G04 #@! TO.P,U7,4*
G04 #@! TO.N,/A6*
X68580000Y-92710000D03*
G04 #@! TO.P,U7,18*
G04 #@! TO.N,/D6*
X83820000Y-110490000D03*
G04 #@! TO.P,U7,5*
G04 #@! TO.N,/A5*
X68580000Y-95250000D03*
G04 #@! TO.P,U7,19*
G04 #@! TO.N,/D7*
X83820000Y-107950000D03*
G04 #@! TO.P,U7,6*
G04 #@! TO.N,/A4*
X68580000Y-97790000D03*
G04 #@! TO.P,U7,20*
G04 #@! TO.N,/RD*
X83820000Y-105410000D03*
G04 #@! TO.P,U7,7*
G04 #@! TO.N,/A3*
X68580000Y-100330000D03*
G04 #@! TO.P,U7,21*
G04 #@! TO.N,/A10*
X83820000Y-102870000D03*
G04 #@! TO.P,U7,8*
G04 #@! TO.N,/A2*
X68580000Y-102870000D03*
G04 #@! TO.P,U7,22*
G04 #@! TO.N,RAM_CS*
X83820000Y-100330000D03*
G04 #@! TO.P,U7,9*
G04 #@! TO.N,/A1*
X68580000Y-105410000D03*
G04 #@! TO.P,U7,23*
G04 #@! TO.N,/A11*
X83820000Y-97790000D03*
G04 #@! TO.P,U7,10*
G04 #@! TO.N,/A0*
X68580000Y-107950000D03*
G04 #@! TO.P,U7,24*
G04 #@! TO.N,/A9*
X83820000Y-95250000D03*
G04 #@! TO.P,U7,11*
G04 #@! TO.N,/D0*
X68580000Y-110490000D03*
G04 #@! TO.P,U7,25*
G04 #@! TO.N,/A8*
X83820000Y-92710000D03*
G04 #@! TO.P,U7,12*
G04 #@! TO.N,/D1*
X68580000Y-113030000D03*
G04 #@! TO.P,U7,26*
G04 #@! TO.N,GND*
X83820000Y-90170000D03*
G04 #@! TO.P,U7,13*
G04 #@! TO.N,/D2*
X68580000Y-115570000D03*
G04 #@! TO.P,U7,27*
G04 #@! TO.N,/WR*
X83820000Y-87630000D03*
G04 #@! TO.P,U7,14*
G04 #@! TO.N,GND*
X68580000Y-118110000D03*
G04 #@! TO.P,U7,28*
G04 #@! TO.N,+5V*
X83820000Y-85090000D03*
G04 #@! TD*
D20*
G04 #@! TO.P,U8,1*
G04 #@! TO.N,/A14*
X54610000Y-87630000D03*
D21*
G04 #@! TO.P,U8,13*
G04 #@! TO.N,/A1*
X62230000Y-115570000D03*
G04 #@! TO.P,U8,2*
G04 #@! TO.N,/A15*
X54610000Y-90170000D03*
G04 #@! TO.P,U8,14*
G04 #@! TO.N,/A2*
X62230000Y-113030000D03*
G04 #@! TO.P,U8,3*
G04 #@! TO.N,/A13*
X54610000Y-92710000D03*
G04 #@! TO.P,U8,15*
G04 #@! TO.N,ROM_CS*
X62230000Y-110490000D03*
G04 #@! TO.P,U8,4*
G04 #@! TO.N,/MREQ*
X54610000Y-95250000D03*
G04 #@! TO.P,U8,16*
G04 #@! TO.N,RAM_CS*
X62230000Y-107950000D03*
G04 #@! TO.P,U8,5*
G04 #@! TO.N,/IOREQ*
X54610000Y-97790000D03*
G04 #@! TO.P,U8,17*
G04 #@! TO.N,N/C*
X62230000Y-105410000D03*
G04 #@! TO.P,U8,6*
G04 #@! TO.N,/RD*
X54610000Y-100330000D03*
G04 #@! TO.P,U8,18*
G04 #@! TO.N,PRN_CS*
X62230000Y-102870000D03*
G04 #@! TO.P,U8,7*
G04 #@! TO.N,/WR*
X54610000Y-102870000D03*
G04 #@! TO.P,U8,19*
G04 #@! TO.N,DSK_CS*
X62230000Y-100330000D03*
G04 #@! TO.P,U8,8*
G04 #@! TO.N,/A6*
X54610000Y-105410000D03*
G04 #@! TO.P,U8,20*
G04 #@! TO.N,PRN_STR*
X62230000Y-97790000D03*
G04 #@! TO.P,U8,9*
G04 #@! TO.N,/A5*
X54610000Y-107950000D03*
G04 #@! TO.P,U8,21*
G04 #@! TO.N,Net-(D2-Pad1)*
X62230000Y-95250000D03*
G04 #@! TO.P,U8,10*
G04 #@! TO.N,/A4*
X54610000Y-110490000D03*
G04 #@! TO.P,U8,22*
G04 #@! TO.N,FDC_CS*
X62230000Y-92710000D03*
G04 #@! TO.P,U8,11*
G04 #@! TO.N,/A3*
X54610000Y-113030000D03*
G04 #@! TO.P,U8,23*
G04 #@! TO.N,Net-(C4-Pad2)*
X62230000Y-90170000D03*
G04 #@! TO.P,U8,12*
G04 #@! TO.N,GND*
X54610000Y-115570000D03*
G04 #@! TO.P,U8,24*
G04 #@! TO.N,+5V*
X62230000Y-87630000D03*
G04 #@! TD*
D20*
G04 #@! TO.P,U9,1*
G04 #@! TO.N,GND*
X116840000Y-95250000D03*
D21*
G04 #@! TO.P,U9,11*
G04 #@! TO.N,PRN_CS*
X124460000Y-118110000D03*
G04 #@! TO.P,U9,2*
G04 #@! TO.N,Net-(J3-Pad5)*
X116840000Y-97790000D03*
G04 #@! TO.P,U9,12*
G04 #@! TO.N,Net-(J3-Pad17)*
X124460000Y-115570000D03*
G04 #@! TO.P,U9,3*
G04 #@! TO.N,/D1*
X116840000Y-100330000D03*
G04 #@! TO.P,U9,13*
G04 #@! TO.N,/D7*
X124460000Y-113030000D03*
G04 #@! TO.P,U9,4*
G04 #@! TO.N,/D2*
X116840000Y-102870000D03*
G04 #@! TO.P,U9,14*
G04 #@! TO.N,/D4*
X124460000Y-110490000D03*
G04 #@! TO.P,U9,5*
G04 #@! TO.N,Net-(J3-Pad7)*
X116840000Y-105410000D03*
G04 #@! TO.P,U9,15*
G04 #@! TO.N,Net-(J3-Pad11)*
X124460000Y-107950000D03*
G04 #@! TO.P,U9,6*
G04 #@! TO.N,Net-(J3-Pad13)*
X116840000Y-107950000D03*
G04 #@! TO.P,U9,16*
G04 #@! TO.N,Net-(J3-Pad9)*
X124460000Y-105410000D03*
G04 #@! TO.P,U9,7*
G04 #@! TO.N,/D5*
X116840000Y-110490000D03*
G04 #@! TO.P,U9,17*
G04 #@! TO.N,/D3*
X124460000Y-102870000D03*
G04 #@! TO.P,U9,8*
G04 #@! TO.N,/D6*
X116840000Y-113030000D03*
G04 #@! TO.P,U9,18*
G04 #@! TO.N,/D0*
X124460000Y-100330000D03*
G04 #@! TO.P,U9,9*
G04 #@! TO.N,Net-(J3-Pad15)*
X116840000Y-115570000D03*
G04 #@! TO.P,U9,19*
G04 #@! TO.N,Net-(J3-Pad3)*
X124460000Y-97790000D03*
G04 #@! TO.P,U9,10*
G04 #@! TO.N,GND*
X116840000Y-118110000D03*
G04 #@! TO.P,U9,20*
G04 #@! TO.N,+5V*
X124460000Y-95250000D03*
G04 #@! TD*
D22*
G04 #@! TO.P,U10,14*
G04 #@! TO.N,+5V*
X68580000Y-80010000D03*
G04 #@! TO.P,U10,7*
G04 #@! TO.N,GND*
X53340000Y-72390000D03*
G04 #@! TO.P,U10,13*
G04 #@! TO.N,/A9*
X66040000Y-80010000D03*
G04 #@! TO.P,U10,6*
G04 #@! TO.N,Net-(R8-Pad2)*
X55880000Y-72390000D03*
G04 #@! TO.P,U10,12*
G04 #@! TO.N,Net-(U10-Pad12)*
X63500000Y-80010000D03*
G04 #@! TO.P,U10,5*
G04 #@! TO.N,Net-(U10-Pad5)*
X58420000Y-72390000D03*
G04 #@! TO.P,U10,11*
G04 #@! TO.N,/A8*
X60960000Y-80010000D03*
G04 #@! TO.P,U10,4*
G04 #@! TO.N,/M1*
X60960000Y-72390000D03*
G04 #@! TO.P,U10,10*
G04 #@! TO.N,/A7*
X58420000Y-80010000D03*
G04 #@! TO.P,U10,3*
G04 #@! TO.N,/A12*
X63500000Y-72390000D03*
G04 #@! TO.P,U10,9*
G04 #@! TO.N,/A0*
X55880000Y-80010000D03*
G04 #@! TO.P,U10,2*
G04 #@! TO.N,/A11*
X66040000Y-72390000D03*
G04 #@! TO.P,U10,8*
G04 #@! TO.N,Net-(U10-Pad8)*
X53340000Y-80010000D03*
D23*
G04 #@! TO.P,U10,1*
G04 #@! TO.N,/A10*
X68580000Y-72390000D03*
G04 #@! TD*
D24*
G04 #@! TO.P,Y1,1*
G04 #@! TO.N,Net-(C2-Pad1)*
X67310000Y-54610000D03*
G04 #@! TO.P,Y1,2*
G04 #@! TO.N,Net-(R6-Pad1)*
X62410000Y-54610000D03*
G04 #@! TD*
D12*
G04 #@! TO.P,D1,1*
G04 #@! TO.N,ZX_ROMOE1*
X43180000Y-58420000D03*
D18*
G04 #@! TO.P,D1,2*
G04 #@! TO.N,Net-(D1-Pad2)*
X43180000Y-66040000D03*
G04 #@! TD*
D12*
G04 #@! TO.P,D3,1*
G04 #@! TO.N,ZX_ROMOE2*
X43180000Y-86360000D03*
D18*
G04 #@! TO.P,D3,2*
G04 #@! TO.N,Net-(D1-Pad2)*
X43180000Y-78740000D03*
G04 #@! TD*
G04 #@! TO.P,D4,2*
G04 #@! TO.N,Net-(D4-Pad2)*
X43180000Y-104140000D03*
D12*
G04 #@! TO.P,D4,1*
G04 #@! TO.N,ZX_ROMOE48*
X43180000Y-111760000D03*
G04 #@! TD*
D25*
G04 #@! TO.N,GND*
X43973500Y-84898500D03*
G04 #@! TO.N,/RESET*
X82717500Y-70441100D03*
X44259900Y-89150500D03*
X79837700Y-87955400D03*
G04 #@! TO.N,+9V*
X46326200Y-52370000D03*
G04 #@! TO.N,Net-(D2-Pad1)*
X49560300Y-70401800D03*
X58789300Y-109517800D03*
X57285300Y-101985800D03*
X58616200Y-96559400D03*
G04 #@! TO.N,/A5*
X60106600Y-100690100D03*
G04 #@! TO.N,/A7*
X72990800Y-90643400D03*
X44259900Y-90199100D03*
G04 #@! TO.N,/A10*
X102471600Y-102691300D03*
G04 #@! TO.N,/A8*
X72953900Y-82471800D03*
G04 #@! TO.N,/M1*
X59989000Y-94789000D03*
G04 #@! TO.N,/A12*
X50782700Y-65601000D03*
G04 #@! TO.N,/RD*
X59561400Y-106686300D03*
G04 #@! TO.N,NMI*
X46937400Y-79559000D03*
X49942500Y-57110600D03*
G04 #@! TO.N,/D4*
X97793700Y-82971700D03*
G04 #@! TO.N,/D3*
X74748200Y-74001800D03*
X77205500Y-62159700D03*
G04 #@! TO.N,/D5*
X94684200Y-79997200D03*
G04 #@! TO.N,/D2*
X70209000Y-67330000D03*
X73581800Y-66142100D03*
G04 #@! TO.N,/D1*
X85701300Y-61634400D03*
G04 #@! TO.N,/A13*
X44477500Y-56204300D03*
G04 #@! TO.N,/A15*
X47717800Y-60371700D03*
G04 #@! TO.N,Net-(U1-Pad9)*
X111162100Y-78239900D03*
G04 #@! TO.N,FDC_CS*
X76250800Y-79729900D03*
X72255500Y-85538800D03*
G04 #@! TO.N,Net-(U5-Pad9)*
X85243500Y-79858500D03*
G04 #@! TO.N,DSK_CS*
X74184400Y-86873800D03*
G04 #@! TO.N,RAM_CS*
X74596200Y-108332900D03*
G04 #@! TO.N,PRN_CS*
X64747400Y-103943200D03*
X63890900Y-112169200D03*
G04 #@! TD*
D26*
G04 #@! TO.N,Net-(C1-Pad1)*
X55880000Y-61215300D02*
X55880000Y-61529700D01*
X55880000Y-61529700D02*
X50655300Y-66754400D01*
X50655300Y-66754400D02*
X50655300Y-67310000D01*
X55880000Y-60452600D02*
X55880000Y-59690000D01*
X55880000Y-60452600D02*
X55880000Y-61215300D01*
X49530000Y-67310000D02*
X50655300Y-67310000D01*
G04 #@! TO.N,Net-(C1-Pad2)*
X66040000Y-59690000D02*
X66040000Y-49090400D01*
X66040000Y-49090400D02*
X61359600Y-44410000D01*
X61359600Y-44410000D02*
X60960000Y-44410000D01*
G04 #@! TO.N,Net-(C2-Pad2)*
X63500000Y-59690000D02*
X63500000Y-50840000D01*
X63500000Y-50840000D02*
X64810000Y-49530000D01*
G04 #@! TO.N,Net-(C2-Pad1)*
X67310000Y-54610000D02*
X67310000Y-49530000D01*
G04 #@! TO.N,GND*
X43973500Y-84898500D02*
X44318700Y-85243700D01*
X44318700Y-85243700D02*
X44318700Y-88066000D01*
X44318700Y-88066000D02*
X43084300Y-89300400D01*
X43084300Y-89300400D02*
X43084300Y-96424300D01*
X43084300Y-96424300D02*
X43180000Y-96520000D01*
X68580000Y-67310000D02*
X68580000Y-65784700D01*
X72390000Y-64770000D02*
X69594700Y-64770000D01*
X69594700Y-64770000D02*
X68580000Y-65784700D01*
X68580000Y-67310000D02*
X68580000Y-68835300D01*
X73025000Y-74930000D02*
X73025000Y-73280300D01*
X73025000Y-73280300D02*
X68580000Y-68835300D01*
X53340000Y-73915300D02*
X51711200Y-75544100D01*
X51711200Y-75544100D02*
X51711200Y-83461200D01*
X51711200Y-83461200D02*
X52070000Y-83820000D01*
X83820000Y-90170000D02*
X82294700Y-90170000D01*
X82294700Y-90170000D02*
X81280000Y-89155300D01*
X81280000Y-89155300D02*
X81280000Y-79375000D01*
X38100000Y-63500000D02*
X38100000Y-66040000D01*
X53340000Y-72580400D02*
X53184900Y-72580400D01*
X53184900Y-72580400D02*
X48399000Y-67794500D01*
X48399000Y-67794500D02*
X48399000Y-66635000D01*
X48399000Y-66635000D02*
X51129500Y-63904500D01*
X51129500Y-63904500D02*
X51129500Y-54679700D01*
X51129500Y-54679700D02*
X48592300Y-52142500D01*
X48592300Y-52142500D02*
X47608400Y-52142500D01*
X47608400Y-52142500D02*
X44272600Y-55478300D01*
X44272600Y-55478300D02*
X44040000Y-55478300D01*
X44040000Y-55478300D02*
X41894500Y-57623800D01*
X41894500Y-57623800D02*
X41894500Y-59705500D01*
X41894500Y-59705500D02*
X38100000Y-63500000D01*
X40965300Y-83820000D02*
X42895000Y-83820000D01*
X42895000Y-83820000D02*
X43973500Y-84898500D01*
X113030000Y-91440000D02*
X110490000Y-88900000D01*
X110490000Y-88900000D02*
X108494300Y-88900000D01*
X108494300Y-88900000D02*
X104180000Y-84585700D01*
X104180000Y-84585700D02*
X104180000Y-81280000D01*
X53340000Y-72390000D02*
X53340000Y-72580400D01*
X53340000Y-73152600D02*
X53340000Y-73915300D01*
X53340000Y-73152600D02*
X53340000Y-72580400D01*
X132080000Y-72390000D02*
X132080000Y-69850000D01*
X132080000Y-74930000D02*
X132080000Y-72390000D01*
X132080000Y-119380000D02*
X130904700Y-119380000D01*
X116840000Y-118110000D02*
X118365300Y-118110000D01*
X118365300Y-118110000D02*
X120810600Y-120555300D01*
X120810600Y-120555300D02*
X130096800Y-120555300D01*
X130096800Y-120555300D02*
X130904700Y-119747400D01*
X130904700Y-119747400D02*
X130904700Y-119380000D01*
X68580000Y-118110000D02*
X70105300Y-118110000D01*
X93980000Y-118110000D02*
X86635800Y-118110000D01*
X86635800Y-118110000D02*
X85509200Y-119236600D01*
X85509200Y-119236600D02*
X71231900Y-119236600D01*
X71231900Y-119236600D02*
X70105300Y-118110000D01*
X71120000Y-44450000D02*
X71120000Y-45675300D01*
X74930000Y-55840000D02*
X73571800Y-54481800D01*
X73571800Y-54481800D02*
X73571800Y-47667600D01*
X73571800Y-47667600D02*
X71579500Y-45675300D01*
X71579500Y-45675300D02*
X71120000Y-45675300D01*
X38100000Y-83820000D02*
X40965300Y-83820000D01*
X132080000Y-77470000D02*
X132080000Y-80010000D01*
X132080000Y-74930000D02*
X132080000Y-77470000D01*
X132080000Y-67310000D02*
X132080000Y-69850000D01*
X132080000Y-62230000D02*
X132080000Y-64770000D01*
X132080000Y-59690000D02*
X132080000Y-62230000D01*
X132080000Y-57150000D02*
X132080000Y-59690000D01*
X132080000Y-54610000D02*
X132080000Y-57150000D01*
X132080000Y-52070000D02*
X132080000Y-54610000D01*
X132080000Y-49530000D02*
X132080000Y-52070000D01*
X132080000Y-46990000D02*
X132080000Y-49530000D01*
X132080000Y-41910000D02*
X132080000Y-44450000D01*
X132080000Y-39370000D02*
X132080000Y-41910000D01*
X132080000Y-91440000D02*
X132080000Y-80010000D01*
X132080000Y-96520000D02*
X132080000Y-93980000D01*
X132080000Y-99060000D02*
X132080000Y-96520000D01*
X132080000Y-101600000D02*
X132080000Y-99060000D01*
X132080000Y-104140000D02*
X132080000Y-101600000D01*
X132080000Y-106680000D02*
X132080000Y-104140000D01*
X132080000Y-109220000D02*
X132080000Y-106680000D01*
X132080000Y-111760000D02*
X132080000Y-109220000D01*
X132080000Y-114300000D02*
X132080000Y-111760000D01*
X132080000Y-116840000D02*
X132080000Y-114300000D01*
X132080000Y-119380000D02*
X132080000Y-116840000D01*
G04 #@! TO.N,/RESET*
X44259900Y-89150500D02*
X43534600Y-89875800D01*
X43534600Y-89875800D02*
X43534600Y-91968500D01*
X43534600Y-91968500D02*
X44330500Y-92764400D01*
X44330500Y-92764400D02*
X44330500Y-97869500D01*
X44330500Y-97869500D02*
X43180000Y-99020000D01*
X82717500Y-70441100D02*
X80597600Y-70441100D01*
X80597600Y-70441100D02*
X79745600Y-71293100D01*
X79745600Y-71293100D02*
X79745600Y-87863300D01*
X79745600Y-87863300D02*
X79837700Y-87955400D01*
X82805300Y-61595000D02*
X82805300Y-70353300D01*
X82805300Y-70353300D02*
X82717500Y-70441100D01*
X81280000Y-61595000D02*
X82805300Y-61595000D01*
X43180000Y-99020000D02*
X41005300Y-99020000D01*
X41005300Y-99020000D02*
X40965300Y-99060000D01*
X38100000Y-99060000D02*
X40965300Y-99060000D01*
G04 #@! TO.N,Net-(C4-Pad2)*
X62230000Y-90170000D02*
X63755300Y-90170000D01*
X64730000Y-83820000D02*
X64730000Y-89195300D01*
X64730000Y-89195300D02*
X63755300Y-90170000D01*
G04 #@! TO.N,+9V*
X40965300Y-58420000D02*
X40965300Y-57730900D01*
X40965300Y-57730900D02*
X46326200Y-52370000D01*
X38100000Y-58420000D02*
X40965300Y-58420000D01*
X74930000Y-53340000D02*
X74930000Y-52214700D01*
X71120000Y-43135300D02*
X71579500Y-43135300D01*
X71579500Y-43135300D02*
X74930000Y-46485800D01*
X74930000Y-46485800D02*
X74930000Y-52214700D01*
X71120000Y-41910000D02*
X71120000Y-43135300D01*
G04 #@! TO.N,+5V*
X87630000Y-54610000D02*
X87630000Y-55735300D01*
X87630000Y-55735300D02*
X87911300Y-55735300D01*
X87911300Y-55735300D02*
X88900000Y-56724000D01*
X88900000Y-56724000D02*
X88900000Y-61595000D01*
X72795400Y-62675300D02*
X74349100Y-64229100D01*
X74349100Y-64229100D02*
X74349100Y-73375200D01*
X74349100Y-73375200D02*
X74022900Y-73701400D01*
X74022900Y-73701400D02*
X74022900Y-74302200D01*
X74022900Y-74302200D02*
X74186000Y-74465300D01*
X74186000Y-74465300D02*
X74186000Y-77430000D01*
X72390000Y-62270000D02*
X72795400Y-62675300D01*
X72795400Y-62675300D02*
X77158100Y-58312600D01*
X77158100Y-58312600D02*
X78887400Y-58312600D01*
X78887400Y-58312600D02*
X81280000Y-55920000D01*
X74186000Y-77430000D02*
X74186000Y-78690800D01*
X74186000Y-78690800D02*
X76775200Y-81280000D01*
X76775200Y-81280000D02*
X77430000Y-81280000D01*
X73025000Y-77430000D02*
X74186000Y-77430000D01*
X62230000Y-119380000D02*
X63355300Y-119380000D01*
X83820000Y-85090000D02*
X85345300Y-85090000D01*
X85345300Y-85090000D02*
X86321000Y-86065700D01*
X86321000Y-86065700D02*
X86321000Y-102575500D01*
X86321000Y-102575500D02*
X84756500Y-104140000D01*
X84756500Y-104140000D02*
X80638300Y-104140000D01*
X80638300Y-104140000D02*
X70478300Y-114300000D01*
X70478300Y-114300000D02*
X67843000Y-114300000D01*
X67843000Y-114300000D02*
X63355300Y-118787700D01*
X63355300Y-118787700D02*
X63355300Y-119380000D01*
X124460000Y-95250000D02*
X122934700Y-95250000D01*
X122934700Y-95250000D02*
X122934700Y-86360000D01*
X113030000Y-78740000D02*
X113030000Y-77614700D01*
X116840000Y-76200000D02*
X115314700Y-76200000D01*
X115314700Y-76200000D02*
X113900000Y-77614700D01*
X113900000Y-77614700D02*
X113030000Y-77614700D01*
X109220000Y-77470000D02*
X107694700Y-75944700D01*
X107694700Y-75944700D02*
X107694700Y-74456400D01*
X107694700Y-74456400D02*
X108491100Y-73660000D01*
X108491100Y-73660000D02*
X109944000Y-73660000D01*
X109944000Y-73660000D02*
X111779200Y-71824800D01*
X111779200Y-71824800D02*
X111779200Y-67330800D01*
X111779200Y-67330800D02*
X113030000Y-66080000D01*
X124460000Y-53340000D02*
X122934700Y-53340000D01*
X122934700Y-53340000D02*
X120250000Y-50655300D01*
X120250000Y-50655300D02*
X116840000Y-50655300D01*
X116840000Y-49530000D02*
X116840000Y-50655300D01*
X113030000Y-66080000D02*
X113030000Y-54465300D01*
X113030000Y-54465300D02*
X116840000Y-50655300D01*
X53340000Y-59690000D02*
X53340000Y-58164700D01*
X53340000Y-58164700D02*
X53340000Y-56180500D01*
X53340000Y-56180500D02*
X48798400Y-51638900D01*
X48798400Y-51638900D02*
X45206400Y-51638900D01*
X45206400Y-51638900D02*
X40965300Y-55880000D01*
X38100000Y-55880000D02*
X40965300Y-55880000D01*
X113030000Y-88940000D02*
X114155400Y-90065400D01*
X114155400Y-90065400D02*
X114155400Y-114484600D01*
X114155400Y-114484600D02*
X113030000Y-115610000D01*
X116840000Y-46845300D02*
X116840000Y-49530000D01*
X106680000Y-81280000D02*
X109220000Y-83820000D01*
X109220000Y-83820000D02*
X109220000Y-85090000D01*
X116840000Y-45720000D02*
X116840000Y-46845300D01*
X116840000Y-41910000D02*
X116840000Y-45720000D01*
X124460000Y-78740000D02*
X122934700Y-78740000D01*
X124460000Y-86360000D02*
X122934700Y-86360000D01*
X122934700Y-86360000D02*
X122934700Y-78740000D01*
X124460000Y-76200000D02*
X124460000Y-78740000D01*
X109220000Y-87630000D02*
X109220000Y-85090000D01*
G04 #@! TO.N,Net-(D2-Pad1)*
X49560300Y-70401800D02*
X50839500Y-71681000D01*
X50839500Y-71681000D02*
X50839500Y-86347600D01*
X50839500Y-86347600D02*
X53247300Y-88755400D01*
X53247300Y-88755400D02*
X55211000Y-88755400D01*
X55211000Y-88755400D02*
X58297600Y-91842000D01*
X58297600Y-91842000D02*
X58297600Y-96240800D01*
X58297600Y-96240800D02*
X58616200Y-96559400D01*
X48110000Y-53340000D02*
X50669900Y-55899900D01*
X50669900Y-55899900D02*
X50669900Y-63622000D01*
X50669900Y-63622000D02*
X47906400Y-66385500D01*
X47906400Y-66385500D02*
X47906400Y-68400900D01*
X47906400Y-68400900D02*
X49560300Y-70054800D01*
X49560300Y-70054800D02*
X49560300Y-70401800D01*
X57285300Y-101985800D02*
X58789300Y-103489800D01*
X58789300Y-103489800D02*
X58789300Y-109517800D01*
G04 #@! TO.N,/DS0*
X125985300Y-83820000D02*
X125985300Y-74212700D01*
X125985300Y-74212700D02*
X129172700Y-71025300D01*
X129172700Y-71025300D02*
X129540000Y-71025300D01*
X129540000Y-69850000D02*
X129540000Y-71025300D01*
X124460000Y-83820000D02*
X125985300Y-83820000D01*
G04 #@! TO.N,/DS1*
X129540000Y-67310000D02*
X129540000Y-68485300D01*
X124460000Y-91440000D02*
X125985300Y-91440000D01*
X125985300Y-91440000D02*
X130715300Y-86710000D01*
X130715300Y-86710000D02*
X130715300Y-69293200D01*
X130715300Y-69293200D02*
X129907400Y-68485300D01*
X129907400Y-68485300D02*
X129540000Y-68485300D01*
G04 #@! TO.N,Net-(J1-Pad16)*
X116840000Y-60960000D02*
X118365300Y-60960000D01*
X118365300Y-60960000D02*
X119635300Y-62230000D01*
X119635300Y-62230000D02*
X129540000Y-62230000D01*
G04 #@! TO.N,Net-(J1-Pad24)*
X129540000Y-52070000D02*
X129540000Y-53245300D01*
X129540000Y-53245300D02*
X129172600Y-53245300D01*
X129172600Y-53245300D02*
X124460000Y-57957900D01*
X124460000Y-57957900D02*
X124460000Y-58420000D01*
G04 #@! TO.N,Net-(J1-Pad30)*
X109220000Y-67310000D02*
X110745300Y-67310000D01*
X110745300Y-67310000D02*
X110745300Y-46360700D01*
X110745300Y-46360700D02*
X116371800Y-40734200D01*
X116371800Y-40734200D02*
X123284200Y-40734200D01*
X123284200Y-40734200D02*
X124460000Y-41910000D01*
G04 #@! TO.N,/XXX*
X129540000Y-43085300D02*
X129907400Y-43085300D01*
X129907400Y-43085300D02*
X130715300Y-43893200D01*
X130715300Y-43893200D02*
X130715300Y-65354300D01*
X130715300Y-65354300D02*
X130124200Y-65945400D01*
X130124200Y-65945400D02*
X129242300Y-65945400D01*
X129242300Y-65945400D02*
X118365300Y-76822400D01*
X118365300Y-76822400D02*
X118365300Y-81280000D01*
X129540000Y-41910000D02*
X129540000Y-43085300D01*
X116840000Y-81280000D02*
X118365300Y-81280000D01*
G04 #@! TO.N,/A11*
X85345300Y-97790000D02*
X85345300Y-94766600D01*
X85345300Y-94766600D02*
X84558700Y-93980000D01*
X84558700Y-93980000D02*
X82925700Y-93980000D01*
X82925700Y-93980000D02*
X78636600Y-89690900D01*
X78636600Y-89690900D02*
X78636600Y-89372300D01*
X78636600Y-89372300D02*
X72184900Y-82920600D01*
X72184900Y-82920600D02*
X72184900Y-80060200D01*
X72184900Y-80060200D02*
X66040000Y-73915300D01*
X82294700Y-97790000D02*
X82294700Y-98777700D01*
X82294700Y-98777700D02*
X69312400Y-111760000D01*
X69312400Y-111760000D02*
X67787900Y-111760000D01*
X67787900Y-111760000D02*
X66604300Y-112943600D01*
X66604300Y-112943600D02*
X66604300Y-114572100D01*
X66604300Y-114572100D02*
X63033600Y-118142800D01*
X63033600Y-118142800D02*
X39337200Y-118142800D01*
X39337200Y-118142800D02*
X38100000Y-119380000D01*
X66040000Y-72390000D02*
X66040000Y-73915300D01*
X83820000Y-97790000D02*
X85345300Y-97790000D01*
X83820000Y-97790000D02*
X82294700Y-97790000D01*
G04 #@! TO.N,/A9*
X66040000Y-80010000D02*
X66040000Y-81535300D01*
X66040000Y-81535300D02*
X69923700Y-81535300D01*
X69923700Y-81535300D02*
X77386000Y-88997600D01*
X77386000Y-88997600D02*
X77386000Y-89578600D01*
X77386000Y-89578600D02*
X83057400Y-95250000D01*
X83057400Y-95250000D02*
X83057400Y-95634800D01*
X83057400Y-95634800D02*
X69472200Y-109220000D01*
X69472200Y-109220000D02*
X67828900Y-109220000D01*
X67828900Y-109220000D02*
X66153900Y-110895000D01*
X66153900Y-110895000D02*
X66153900Y-114385600D01*
X66153900Y-114385600D02*
X63367500Y-117172000D01*
X63367500Y-117172000D02*
X52842400Y-117172000D01*
X52842400Y-117172000D02*
X51267600Y-115597200D01*
X51267600Y-115597200D02*
X39342800Y-115597200D01*
X39342800Y-115597200D02*
X38100000Y-116840000D01*
X83820000Y-95250000D02*
X83057400Y-95250000D01*
G04 #@! TO.N,/A4*
X95505300Y-97790000D02*
X96511000Y-96784300D01*
X96511000Y-96784300D02*
X96511000Y-67832000D01*
X96511000Y-67832000D02*
X94719000Y-66040000D01*
X94719000Y-66040000D02*
X93240100Y-66040000D01*
X93240100Y-66040000D02*
X92454700Y-65254600D01*
X92454700Y-65254600D02*
X92454700Y-52070000D01*
X38100000Y-109220000D02*
X40965300Y-109220000D01*
X53084700Y-110490000D02*
X51814700Y-109220000D01*
X51814700Y-109220000D02*
X40965300Y-109220000D01*
X93980000Y-52070000D02*
X92454700Y-52070000D01*
X93980000Y-97790000D02*
X95505300Y-97790000D01*
X54610000Y-110490000D02*
X53084700Y-110490000D01*
G04 #@! TO.N,/A5*
X68580000Y-95250000D02*
X66826200Y-95250000D01*
X66826200Y-95250000D02*
X63016200Y-99060000D01*
X63016200Y-99060000D02*
X61468700Y-99060000D01*
X61468700Y-99060000D02*
X60106600Y-100422100D01*
X60106600Y-100422100D02*
X60106600Y-100690100D01*
X54514300Y-107950000D02*
X54610000Y-107950000D01*
X54514300Y-107950000D02*
X53084700Y-107950000D01*
X38100000Y-106680000D02*
X40965300Y-106680000D01*
X53084700Y-107950000D02*
X51814700Y-106680000D01*
X51814700Y-106680000D02*
X40965300Y-106680000D01*
G04 #@! TO.N,/A6*
X40965300Y-104140000D02*
X40965300Y-104299200D01*
X40965300Y-104299200D02*
X42413800Y-105747700D01*
X42413800Y-105747700D02*
X52747000Y-105747700D01*
X52747000Y-105747700D02*
X53084700Y-105410000D01*
X54610000Y-105410000D02*
X53084700Y-105410000D01*
X38100000Y-104140000D02*
X40965300Y-104140000D01*
G04 #@! TO.N,/A7*
X38100000Y-101600000D02*
X42259300Y-101600000D01*
X42259300Y-101600000D02*
X44816500Y-99042800D01*
X44816500Y-99042800D02*
X44816500Y-90755700D01*
X44816500Y-90755700D02*
X44259900Y-90199100D01*
X68580000Y-90170000D02*
X72517400Y-90170000D01*
X72517400Y-90170000D02*
X72990800Y-90643400D01*
G04 #@! TO.N,/A10*
X68580000Y-73915300D02*
X68580000Y-75226600D01*
X68580000Y-75226600D02*
X73548900Y-80195500D01*
X73548900Y-80195500D02*
X73548900Y-81877000D01*
X73548900Y-81877000D02*
X77395200Y-85723300D01*
X77395200Y-85723300D02*
X77395200Y-86538800D01*
X77395200Y-86538800D02*
X82412500Y-91556100D01*
X82412500Y-91556100D02*
X84657700Y-91556100D01*
X84657700Y-91556100D02*
X85854800Y-92753200D01*
X85854800Y-92753200D02*
X85854800Y-102360500D01*
X85854800Y-102360500D02*
X85345300Y-102870000D01*
X83820000Y-102870000D02*
X85345300Y-102870000D01*
X68580000Y-72390000D02*
X68580000Y-73915300D01*
X107694700Y-102870000D02*
X107516000Y-102691300D01*
X107516000Y-102691300D02*
X102471600Y-102691300D01*
X109220000Y-102870000D02*
X107694700Y-102870000D01*
G04 #@! TO.N,/A8*
X82294700Y-92710000D02*
X82294700Y-92075200D01*
X82294700Y-92075200D02*
X72953900Y-82734400D01*
X72953900Y-82734400D02*
X72953900Y-82471800D01*
X83820000Y-92710000D02*
X82294700Y-92710000D01*
G04 #@! TO.N,/M1*
X60960000Y-72390000D02*
X60960000Y-76920800D01*
X60960000Y-76920800D02*
X62131600Y-78092400D01*
X62131600Y-78092400D02*
X62131600Y-80846200D01*
X62131600Y-80846200D02*
X60704600Y-82273200D01*
X60704600Y-82273200D02*
X60704600Y-94073400D01*
X60704600Y-94073400D02*
X59989000Y-94789000D01*
G04 #@! TO.N,/WR*
X82294700Y-87630000D02*
X82294700Y-83833100D01*
X82294700Y-83833100D02*
X86426600Y-79701200D01*
X86426600Y-79701200D02*
X86426600Y-53018100D01*
X86426600Y-53018100D02*
X92454700Y-46990000D01*
X93980000Y-46990000D02*
X92454700Y-46990000D01*
X83820000Y-87630000D02*
X82294700Y-87630000D01*
G04 #@! TO.N,/A3*
X40965300Y-78740000D02*
X40965300Y-80161300D01*
X40965300Y-80161300D02*
X44985300Y-84181300D01*
X44985300Y-84181300D02*
X44985300Y-90271900D01*
X44985300Y-90271900D02*
X45286700Y-90573300D01*
X45286700Y-90573300D02*
X45286700Y-99685000D01*
X45286700Y-99685000D02*
X42027600Y-102944100D01*
X42027600Y-102944100D02*
X42027600Y-104650000D01*
X42027600Y-104650000D02*
X42657400Y-105279800D01*
X42657400Y-105279800D02*
X48675400Y-105279800D01*
X48675400Y-105279800D02*
X49709000Y-104246200D01*
X49709000Y-104246200D02*
X55448700Y-104246200D01*
X55448700Y-104246200D02*
X56191900Y-104989400D01*
X56191900Y-104989400D02*
X56191900Y-112973300D01*
X56191900Y-112973300D02*
X59918300Y-116699700D01*
X59918300Y-116699700D02*
X63160900Y-116699700D01*
X63160900Y-116699700D02*
X65529500Y-114331100D01*
X65529500Y-114331100D02*
X65529500Y-109001600D01*
X65529500Y-109001600D02*
X67851100Y-106680000D01*
X67851100Y-106680000D02*
X69304100Y-106680000D01*
X69304100Y-106680000D02*
X70574400Y-105409700D01*
X70574400Y-105409700D02*
X70574400Y-102125400D01*
X70574400Y-102125400D02*
X68779000Y-100330000D01*
X68779000Y-100330000D02*
X68580000Y-100330000D01*
X92454700Y-49530000D02*
X92002200Y-49982500D01*
X92002200Y-49982500D02*
X92002200Y-67329100D01*
X92002200Y-67329100D02*
X93211400Y-68538300D01*
X93211400Y-68538300D02*
X94698800Y-68538300D01*
X94698800Y-68538300D02*
X95534600Y-69374100D01*
X95534600Y-69374100D02*
X95534600Y-78121100D01*
X95534600Y-78121100D02*
X92004400Y-81651300D01*
X92004400Y-81651300D02*
X92004400Y-99879700D01*
X92004400Y-99879700D02*
X92454700Y-100330000D01*
X56022700Y-113030000D02*
X56135200Y-113030000D01*
X56135200Y-113030000D02*
X56191900Y-112973300D01*
X38100000Y-78740000D02*
X40965300Y-78740000D01*
X54610000Y-113030000D02*
X56022700Y-113030000D01*
X93980000Y-49530000D02*
X92454700Y-49530000D01*
X93980000Y-100330000D02*
X92454700Y-100330000D01*
G04 #@! TO.N,/A2*
X40965300Y-76200000D02*
X40965300Y-74919500D01*
X40965300Y-74919500D02*
X42130200Y-73754600D01*
X42130200Y-73754600D02*
X44166200Y-73754600D01*
X44166200Y-73754600D02*
X44355300Y-73943700D01*
X44355300Y-73943700D02*
X44355300Y-75914800D01*
X44355300Y-75914800D02*
X44164800Y-76105300D01*
X44164800Y-76105300D02*
X44009800Y-76105300D01*
X44009800Y-76105300D02*
X42044600Y-78070500D01*
X42044600Y-78070500D02*
X42044600Y-79833100D01*
X42044600Y-79833100D02*
X45885900Y-83674400D01*
X45885900Y-83674400D02*
X45885900Y-89898600D01*
X45885900Y-89898600D02*
X46336200Y-90348900D01*
X46336200Y-90348900D02*
X46336200Y-94092100D01*
X46336200Y-94092100D02*
X53844100Y-101600000D01*
X53844100Y-101600000D02*
X55397400Y-101600000D01*
X55397400Y-101600000D02*
X57566600Y-103769200D01*
X57566600Y-103769200D02*
X57566600Y-109891900D01*
X57566600Y-109891900D02*
X60704700Y-113030000D01*
X62230000Y-113030000D02*
X60704700Y-113030000D01*
X38100000Y-76200000D02*
X40965300Y-76200000D01*
X67054700Y-102870000D02*
X64616200Y-105308500D01*
X64616200Y-105308500D02*
X64616200Y-112475100D01*
X64616200Y-112475100D02*
X64061300Y-113030000D01*
X64061300Y-113030000D02*
X62230000Y-113030000D01*
X68580000Y-102870000D02*
X67054700Y-102870000D01*
G04 #@! TO.N,/A1*
X68580000Y-105410000D02*
X70124000Y-103866000D01*
X70124000Y-103866000D02*
X70124000Y-102351700D01*
X70124000Y-102351700D02*
X69453400Y-101681100D01*
X69453400Y-101681100D02*
X65965600Y-101681100D01*
X65965600Y-101681100D02*
X63606100Y-104040600D01*
X63606100Y-104040600D02*
X61376300Y-104040600D01*
X61376300Y-104040600D02*
X56395700Y-99060000D01*
X56395700Y-99060000D02*
X53822000Y-99060000D01*
X53822000Y-99060000D02*
X46811400Y-92049400D01*
X46811400Y-92049400D02*
X46811400Y-89962300D01*
X46811400Y-89962300D02*
X46336200Y-89487100D01*
X46336200Y-89487100D02*
X46336200Y-83169400D01*
X46336200Y-83169400D02*
X45260900Y-82094100D01*
X45260900Y-82094100D02*
X45260900Y-66527200D01*
X45260900Y-66527200D02*
X43604800Y-64871100D01*
X43604800Y-64871100D02*
X42754300Y-64871100D01*
X42754300Y-64871100D02*
X42004600Y-65620800D01*
X42004600Y-65620800D02*
X42004600Y-70589400D01*
X42004600Y-70589400D02*
X38934000Y-73660000D01*
X38934000Y-73660000D02*
X38100000Y-73660000D01*
X68198700Y-105410000D02*
X68580000Y-105410000D01*
X68198700Y-105410000D02*
X67817400Y-105410000D01*
X62230000Y-115570000D02*
X65066600Y-112733400D01*
X65066600Y-112733400D02*
X65066600Y-108160800D01*
X65066600Y-108160800D02*
X67817400Y-105410000D01*
G04 #@! TO.N,/A0*
X59341500Y-97335900D02*
X58336000Y-97335900D01*
X58336000Y-97335900D02*
X57203700Y-96203600D01*
X57203700Y-96203600D02*
X57203700Y-95826000D01*
X57203700Y-95826000D02*
X55502300Y-94124600D01*
X55502300Y-94124600D02*
X53862400Y-94124600D01*
X53862400Y-94124600D02*
X47036500Y-87298700D01*
X47036500Y-87298700D02*
X47036500Y-82937400D01*
X47036500Y-82937400D02*
X45748200Y-81649100D01*
X45748200Y-81649100D02*
X45748200Y-66377600D01*
X45748200Y-66377600D02*
X43791400Y-64420800D01*
X43791400Y-64420800D02*
X42545900Y-64420800D01*
X42545900Y-64420800D02*
X40968800Y-65997900D01*
X40968800Y-65997900D02*
X40968800Y-69123400D01*
X40968800Y-69123400D02*
X38972200Y-71120000D01*
X38972200Y-71120000D02*
X38100000Y-71120000D01*
X70105300Y-107950000D02*
X71047400Y-107007900D01*
X71047400Y-107007900D02*
X71047400Y-100788900D01*
X71047400Y-100788900D02*
X69416900Y-99158400D01*
X69416900Y-99158400D02*
X66436600Y-99158400D01*
X66436600Y-99158400D02*
X64139000Y-101456000D01*
X64139000Y-101456000D02*
X59841900Y-101456000D01*
X59841900Y-101456000D02*
X59341500Y-100955600D01*
X59341500Y-100955600D02*
X59341500Y-97335900D01*
X59341500Y-97335900D02*
X59341500Y-96258900D01*
X59341500Y-96258900D02*
X58795600Y-95713000D01*
X58795600Y-95713000D02*
X58795600Y-84450900D01*
X58795600Y-84450900D02*
X55880000Y-81535300D01*
X68580000Y-107950000D02*
X70105300Y-107950000D01*
X55880000Y-80010000D02*
X55880000Y-81535300D01*
G04 #@! TO.N,/A12*
X68580000Y-87630000D02*
X67054700Y-87630000D01*
X63500000Y-72390000D02*
X63500000Y-73915300D01*
X63500000Y-73915300D02*
X64701800Y-75117100D01*
X64701800Y-75117100D02*
X64701800Y-80886400D01*
X64701800Y-80886400D02*
X67054700Y-83239300D01*
X67054700Y-83239300D02*
X67054700Y-87630000D01*
X38100000Y-53340000D02*
X41954600Y-53340000D01*
X41954600Y-53340000D02*
X44140000Y-51154600D01*
X44140000Y-51154600D02*
X49008200Y-51154600D01*
X49008200Y-51154600D02*
X54478000Y-56624400D01*
X54478000Y-56624400D02*
X54478000Y-61905700D01*
X54478000Y-61905700D02*
X50782700Y-65601000D01*
G04 #@! TO.N,/A14*
X38100000Y-50800000D02*
X40965300Y-50800000D01*
X54610000Y-87630000D02*
X53084700Y-87630000D01*
X53084700Y-87630000D02*
X53084700Y-86575500D01*
X53084700Y-86575500D02*
X53202400Y-86457800D01*
X53202400Y-86457800D02*
X53202400Y-83347100D01*
X53202400Y-83347100D02*
X52162500Y-82307200D01*
X52162500Y-82307200D02*
X52162500Y-77517500D01*
X52162500Y-77517500D02*
X54501500Y-75178500D01*
X54501500Y-75178500D02*
X54501500Y-71550800D01*
X54501500Y-71550800D02*
X52171300Y-69220600D01*
X52171300Y-69220600D02*
X52171300Y-66251700D01*
X52171300Y-66251700D02*
X57020200Y-61402800D01*
X57020200Y-61402800D02*
X57020200Y-58474600D01*
X57020200Y-58474600D02*
X49249800Y-50704200D01*
X49249800Y-50704200D02*
X41061100Y-50704200D01*
X41061100Y-50704200D02*
X40965300Y-50800000D01*
G04 #@! TO.N,/RD*
X59561400Y-106686300D02*
X59561400Y-103236100D01*
X59561400Y-103236100D02*
X56655300Y-100330000D01*
X56655300Y-100330000D02*
X56135300Y-100330000D01*
X54610000Y-100330000D02*
X56135300Y-100330000D01*
G04 #@! TO.N,NMI*
X46937400Y-79559000D02*
X46937400Y-60115700D01*
X46937400Y-60115700D02*
X49942500Y-57110600D01*
G04 #@! TO.N,/D4*
X95505300Y-64770000D02*
X97793700Y-67058400D01*
X97793700Y-67058400D02*
X97793700Y-82971700D01*
X97793700Y-82971700D02*
X97793700Y-90981800D01*
X97793700Y-90981800D02*
X108285100Y-101473200D01*
X108285100Y-101473200D02*
X109829700Y-101473200D01*
X109829700Y-101473200D02*
X111195600Y-102839100D01*
X111195600Y-102839100D02*
X111195600Y-115119700D01*
X111195600Y-115119700D02*
X110745300Y-115570000D01*
X93980000Y-64770000D02*
X95505300Y-64770000D01*
X109220000Y-115570000D02*
X110745300Y-115570000D01*
X108786500Y-115570000D02*
X109220000Y-115570000D01*
X108786500Y-115570000D02*
X107694700Y-115570000D01*
X83820000Y-115570000D02*
X85345300Y-115570000D01*
X107694700Y-115570000D02*
X106545400Y-116719300D01*
X106545400Y-116719300D02*
X86494600Y-116719300D01*
X86494600Y-116719300D02*
X85345300Y-115570000D01*
G04 #@! TO.N,/D3*
X77205500Y-62159700D02*
X76344600Y-63020600D01*
X76344600Y-63020600D02*
X76344600Y-72405400D01*
X76344600Y-72405400D02*
X74748200Y-74001800D01*
X95505300Y-62230000D02*
X98452600Y-65177300D01*
X98452600Y-65177300D02*
X98452600Y-74460200D01*
X100971600Y-91559100D02*
X108472500Y-99060000D01*
X108472500Y-99060000D02*
X109958200Y-99060000D01*
X109958200Y-99060000D02*
X111646000Y-100747800D01*
X111646000Y-100747800D02*
X111646000Y-116984600D01*
X124460000Y-102870000D02*
X122934700Y-102870000D01*
X110745300Y-118110000D02*
X111646000Y-117209300D01*
X111646000Y-117209300D02*
X111646000Y-116984600D01*
X122934700Y-102870000D02*
X122934700Y-108439000D01*
X122934700Y-108439000D02*
X123715700Y-109220000D01*
X123715700Y-109220000D02*
X125218700Y-109220000D01*
X125218700Y-109220000D02*
X129123300Y-113124600D01*
X129123300Y-113124600D02*
X130072100Y-113124600D01*
X130072100Y-113124600D02*
X130715400Y-113767900D01*
X130715400Y-113767900D02*
X130715400Y-117365600D01*
X130715400Y-117365600D02*
X130031000Y-118050000D01*
X130031000Y-118050000D02*
X127568300Y-118050000D01*
X127568300Y-118050000D02*
X126502900Y-116984600D01*
X126502900Y-116984600D02*
X111646000Y-116984600D01*
X93980000Y-62230000D02*
X95505300Y-62230000D01*
X109220000Y-118110000D02*
X110745300Y-118110000D01*
X100971600Y-91559100D02*
X100957100Y-91559100D01*
X99314000Y-89916000D02*
X99314000Y-75321600D01*
X100957100Y-91559100D02*
X99314000Y-89916000D01*
X98452600Y-74460200D02*
X99314000Y-75321600D01*
G04 #@! TO.N,/D5*
X94684200Y-79997200D02*
X96005400Y-78676000D01*
X96005400Y-78676000D02*
X96005400Y-69169300D01*
X96005400Y-69169300D02*
X94146100Y-67310000D01*
X94146100Y-67310000D02*
X93980000Y-67310000D01*
X108786500Y-113030000D02*
X110745300Y-111071200D01*
X110745300Y-111071200D02*
X110745300Y-107476300D01*
X110745300Y-107476300D02*
X109949000Y-106680000D01*
X109949000Y-106680000D02*
X105397000Y-106680000D01*
X97777000Y-99060000D02*
X93232100Y-99060000D01*
X93232100Y-99060000D02*
X92454700Y-98282600D01*
X92454700Y-98282600D02*
X92454700Y-82226700D01*
X92454700Y-82226700D02*
X94684200Y-79997200D01*
X108786500Y-113030000D02*
X107694700Y-113030000D01*
X109220000Y-113030000D02*
X108786500Y-113030000D01*
X83820000Y-113030000D02*
X85345300Y-113030000D01*
X107694700Y-113030000D02*
X106561100Y-111896400D01*
X106561100Y-111896400D02*
X86478900Y-111896400D01*
X86478900Y-111896400D02*
X85345300Y-113030000D01*
X99555000Y-100838000D02*
X99555000Y-102857000D01*
X99555000Y-100838000D02*
X97777000Y-99060000D01*
X101613000Y-104915000D02*
X103632000Y-104915000D01*
X99555000Y-102857000D02*
X101613000Y-104915000D01*
X105397000Y-106680000D02*
X103632000Y-104915000D01*
G04 #@! TO.N,/D6*
X83820000Y-110490000D02*
X85345300Y-110490000D01*
X109220000Y-110490000D02*
X107694700Y-110490000D01*
X107694700Y-110490000D02*
X106545400Y-109340700D01*
X106545400Y-109340700D02*
X86494600Y-109340700D01*
X86494600Y-109340700D02*
X85345300Y-110490000D01*
X88900000Y-71755000D02*
X87374700Y-71755000D01*
X88900000Y-71755000D02*
X90549700Y-71755000D01*
X90549700Y-71755000D02*
X92454700Y-69850000D01*
X82294700Y-110490000D02*
X82294700Y-107460900D01*
X82294700Y-107460900D02*
X83075600Y-106680000D01*
X83075600Y-106680000D02*
X84565200Y-106680000D01*
X84565200Y-106680000D02*
X87374700Y-103870500D01*
X87374700Y-103870500D02*
X87374700Y-71755000D01*
X93980000Y-69850000D02*
X92454700Y-69850000D01*
X83820000Y-110490000D02*
X82294700Y-110490000D01*
G04 #@! TO.N,/D2*
X73581800Y-66142100D02*
X71396900Y-66142100D01*
X71396900Y-66142100D02*
X70209000Y-67330000D01*
X114864300Y-102419600D02*
X115314700Y-102870000D01*
X113343800Y-87650000D02*
X114864300Y-89170500D01*
X112714100Y-87650000D02*
X113343800Y-87650000D01*
X111420700Y-86356600D02*
X112714100Y-87650000D01*
X115314700Y-102870000D02*
X116840000Y-102870000D01*
X111420700Y-84397400D02*
X111420700Y-86356600D01*
X93980000Y-59690000D02*
X95505300Y-59690000D01*
X114864300Y-89170500D02*
X114864300Y-102419600D01*
X95505300Y-59690000D02*
X100253900Y-64438600D01*
X100253900Y-64439900D02*
X104902000Y-69088000D01*
X104902000Y-69088000D02*
X104902000Y-77878700D01*
X100253900Y-64438600D02*
X100253900Y-64439900D01*
X104902000Y-77878700D02*
X111420700Y-84397400D01*
G04 #@! TO.N,/D1*
X81280000Y-71755000D02*
X82805300Y-71755000D01*
X85701300Y-61634400D02*
X85701300Y-68859000D01*
X85701300Y-68859000D02*
X82805300Y-71755000D01*
X95505300Y-57150000D02*
X105509200Y-67153900D01*
X105509200Y-67153900D02*
X105509200Y-77247700D01*
X105509200Y-77247700D02*
X115314700Y-87053200D01*
X115314700Y-87053200D02*
X115314700Y-100330000D01*
X116840000Y-100330000D02*
X115314700Y-100330000D01*
X93980000Y-57150000D02*
X95505300Y-57150000D01*
G04 #@! TO.N,/D0*
X95505300Y-54610000D02*
X106234700Y-65339400D01*
X106234700Y-65339400D02*
X106234700Y-77222100D01*
X106234700Y-77222100D02*
X114028700Y-85016100D01*
X114028700Y-85016100D02*
X117731200Y-85016100D01*
X117731200Y-85016100D02*
X122012200Y-89297100D01*
X122012200Y-89297100D02*
X122012200Y-99407500D01*
X122012200Y-99407500D02*
X122934700Y-100330000D01*
X81280000Y-69215000D02*
X79754700Y-69215000D01*
X79754700Y-69215000D02*
X79754700Y-60660200D01*
X79754700Y-60660200D02*
X79945300Y-60469600D01*
X79945300Y-60469600D02*
X80882700Y-60469600D01*
X80882700Y-60469600D02*
X84523100Y-56829200D01*
X84523100Y-56829200D02*
X84523100Y-54284700D01*
X84523100Y-54284700D02*
X92943900Y-45863900D01*
X92943900Y-45863900D02*
X94870600Y-45863900D01*
X94870600Y-45863900D02*
X95505300Y-46498600D01*
X95505300Y-46498600D02*
X95505300Y-54610000D01*
X93980000Y-54610000D02*
X95505300Y-54610000D01*
X124460000Y-100330000D02*
X122934700Y-100330000D01*
G04 #@! TO.N,/D7*
X116840000Y-88900000D02*
X118365300Y-88900000D01*
X124460000Y-113030000D02*
X122934700Y-113030000D01*
X122934700Y-113030000D02*
X118365300Y-108460600D01*
X118365300Y-108460600D02*
X118365300Y-88900000D01*
X106030000Y-107950000D02*
X107694700Y-107950000D01*
X92454700Y-72390000D02*
X91554100Y-73290600D01*
X91554100Y-73290600D02*
X91554100Y-101458800D01*
X91554100Y-101458800D02*
X91695300Y-101600000D01*
X109220000Y-107950000D02*
X107694700Y-107950000D01*
X93980000Y-72390000D02*
X92454700Y-72390000D01*
X83820000Y-107950000D02*
X85345300Y-107950000D01*
X104760000Y-106680000D02*
X86615300Y-106680000D01*
X86361300Y-106934000D02*
X91695300Y-101600000D01*
X86615300Y-106680000D02*
X86361300Y-106934000D01*
X85345300Y-107950000D02*
X86361300Y-106934000D01*
X104760000Y-106680000D02*
X106030000Y-107950000D01*
G04 #@! TO.N,/A13*
X53084700Y-92710000D02*
X47541500Y-87166800D01*
X47541500Y-87166800D02*
X47541500Y-81477700D01*
X47541500Y-81477700D02*
X46212000Y-80148200D01*
X46212000Y-80148200D02*
X46212000Y-57938800D01*
X46212000Y-57938800D02*
X44477500Y-56204300D01*
X54610000Y-92710000D02*
X53084700Y-92710000D01*
G04 #@! TO.N,/A15*
X53084700Y-90170000D02*
X48231300Y-85316600D01*
X48231300Y-85316600D02*
X48231300Y-69362700D01*
X48231300Y-69362700D02*
X47456100Y-68587500D01*
X47456100Y-68587500D02*
X47456100Y-60633400D01*
X47456100Y-60633400D02*
X47717800Y-60371700D01*
X54610000Y-90170000D02*
X53084700Y-90170000D01*
G04 #@! TO.N,Net-(J3-Pad3)*
X129540000Y-93980000D02*
X129540000Y-95155300D01*
X124460000Y-97790000D02*
X125985300Y-97790000D01*
X125985300Y-97790000D02*
X128620000Y-95155300D01*
X128620000Y-95155300D02*
X129540000Y-95155300D01*
G04 #@! TO.N,Net-(J3-Pad11)*
X129540000Y-104140000D02*
X129540000Y-105315300D01*
X124460000Y-107950000D02*
X125985300Y-107950000D01*
X125985300Y-107950000D02*
X128620000Y-105315300D01*
X128620000Y-105315300D02*
X129540000Y-105315300D01*
G04 #@! TO.N,Net-(J3-Pad21)*
X118365300Y-86360000D02*
X120886500Y-88881200D01*
X120886500Y-88881200D02*
X120886500Y-108915600D01*
X120886500Y-108915600D02*
X123730900Y-111760000D01*
X123730900Y-111760000D02*
X125251800Y-111760000D01*
X125251800Y-111760000D02*
X129156500Y-115664700D01*
X129156500Y-115664700D02*
X129540000Y-115664700D01*
X129540000Y-116840000D02*
X129540000Y-115664700D01*
X116840000Y-86360000D02*
X118365300Y-86360000D01*
G04 #@! TO.N,Net-(R6-Pad1)*
X62410000Y-54610000D02*
X60960000Y-56060000D01*
X60960000Y-56060000D02*
X60960000Y-59690000D01*
G04 #@! TO.N,Net-(U1-Pad9)*
X111162100Y-78239900D02*
X111162100Y-76456700D01*
X111162100Y-76456700D02*
X121578800Y-66040000D01*
X121578800Y-66040000D02*
X124460000Y-66040000D01*
G04 #@! TO.N,Net-(U1-Pad5)*
X116840000Y-63500000D02*
X115314700Y-63500000D01*
X109220000Y-74930000D02*
X110745300Y-74930000D01*
X110745300Y-74930000D02*
X115314700Y-70360600D01*
X115314700Y-70360600D02*
X115314700Y-63500000D01*
G04 #@! TO.N,FDC_CS*
X62230000Y-92710000D02*
X63755300Y-92710000D01*
X93980000Y-44450000D02*
X92454700Y-44450000D01*
X76250800Y-79729900D02*
X79131800Y-76848900D01*
X79131800Y-76848900D02*
X79131800Y-58960900D01*
X79131800Y-58960900D02*
X80798100Y-57294600D01*
X80798100Y-57294600D02*
X81513500Y-57294600D01*
X81513500Y-57294600D02*
X83724500Y-55083600D01*
X83724500Y-55083600D02*
X83724500Y-53180200D01*
X83724500Y-53180200D02*
X92454700Y-44450000D01*
X63755300Y-92710000D02*
X67420700Y-89044600D01*
X67420700Y-89044600D02*
X69173400Y-89044600D01*
X69173400Y-89044600D02*
X72255500Y-85962500D01*
X72255500Y-85962500D02*
X72255500Y-85538800D01*
G04 #@! TO.N,Net-(U10-Pad12)*
X66040000Y-67310000D02*
X66040000Y-68835300D01*
X63500000Y-80010000D02*
X63500000Y-78484700D01*
X63500000Y-78484700D02*
X62323400Y-77308100D01*
X62323400Y-77308100D02*
X62323400Y-71503300D01*
X62323400Y-71503300D02*
X64991400Y-68835300D01*
X64991400Y-68835300D02*
X66040000Y-68835300D01*
G04 #@! TO.N,Net-(U10-Pad8)*
X63500000Y-67310000D02*
X63500000Y-65784700D01*
X53340000Y-80010000D02*
X53340000Y-78484700D01*
X53340000Y-78484700D02*
X57150000Y-74674700D01*
X57150000Y-74674700D02*
X57150000Y-66588200D01*
X57150000Y-66588200D02*
X57953500Y-65784700D01*
X57953500Y-65784700D02*
X63500000Y-65784700D01*
G04 #@! TO.N,PRN_STR*
X60704700Y-97790000D02*
X60704700Y-96985200D01*
X60704700Y-96985200D02*
X59263700Y-95544200D01*
X59263700Y-95544200D02*
X59263700Y-94488600D01*
X59263700Y-94488600D02*
X59582400Y-94169900D01*
X59582400Y-94169900D02*
X59582400Y-69997700D01*
X59582400Y-69997700D02*
X58420000Y-68835300D01*
X58420000Y-67310000D02*
X58420000Y-68835300D01*
X62230000Y-97790000D02*
X60704700Y-97790000D01*
G04 #@! TO.N,Net-(U4-Pad8)*
X116840000Y-83820000D02*
X113546300Y-83820000D01*
X113546300Y-83820000D02*
X107166500Y-77440200D01*
X107166500Y-77440200D02*
X107166500Y-55166400D01*
X107166500Y-55166400D02*
X95324700Y-43324600D01*
X95324700Y-43324600D02*
X91840400Y-43324600D01*
X91840400Y-43324600D02*
X77873400Y-57291600D01*
X77873400Y-57291600D02*
X74554100Y-57291600D01*
X74554100Y-57291600D02*
X70618200Y-61227500D01*
X70618200Y-61227500D02*
X57897200Y-61227500D01*
X57897200Y-61227500D02*
X53340000Y-65784700D01*
X53340000Y-67310000D02*
X53340000Y-65784700D01*
G04 #@! TO.N,Net-(U5-Pad9)*
X81280000Y-74295000D02*
X82805300Y-74295000D01*
X82805300Y-74295000D02*
X82805300Y-77420300D01*
X82805300Y-77420300D02*
X85243500Y-79858500D01*
G04 #@! TO.N,DSK_CS*
X63755300Y-100330000D02*
X67565300Y-96520000D01*
X67565300Y-96520000D02*
X69306300Y-96520000D01*
X69306300Y-96520000D02*
X74184400Y-91641900D01*
X74184400Y-91641900D02*
X74184400Y-86873800D01*
X62230000Y-100330000D02*
X63755300Y-100330000D01*
G04 #@! TO.N,RAM_CS*
X83820000Y-100330000D02*
X82294700Y-100330000D01*
X74596200Y-108332900D02*
X82294700Y-100634400D01*
X82294700Y-100634400D02*
X82294700Y-100330000D01*
G04 #@! TO.N,PRN_CS*
X63890900Y-112169200D02*
X63890900Y-104799700D01*
X63890900Y-104799700D02*
X64747400Y-103943200D01*
G04 #@! TO.N,Net-(D1-Pad2)*
X43180000Y-77614700D02*
X43292300Y-77614700D01*
X43292300Y-77614700D02*
X44808700Y-76098300D01*
X44808700Y-76098300D02*
X44808700Y-72286600D01*
X44808700Y-72286600D02*
X43547400Y-71025300D01*
X43547400Y-71025300D02*
X43180000Y-71025300D01*
X43180000Y-69850000D02*
X43180000Y-71025300D01*
X43180000Y-78740000D02*
X43180000Y-77614700D01*
X43180000Y-66040000D02*
X43180000Y-69850000D01*
G04 #@! TO.N,ZX_ROMOE2*
X43180000Y-86360000D02*
X38100000Y-86360000D01*
G04 #@! TO.N,Net-(D4-Pad2)*
X43180000Y-76105300D02*
X41594300Y-77691000D01*
X41594300Y-77691000D02*
X41594300Y-80019700D01*
X41594300Y-80019700D02*
X45435600Y-83861000D01*
X45435600Y-83861000D02*
X45435600Y-90085300D01*
X45435600Y-90085300D02*
X45766900Y-90416600D01*
X45766900Y-90416600D02*
X45766900Y-100427800D01*
X45766900Y-100427800D02*
X43180000Y-103014700D01*
X43180000Y-104140000D02*
X43180000Y-103014700D01*
X43180000Y-74930000D02*
X43180000Y-76105300D01*
G04 #@! TO.N,ZX_ROMOE48*
X43180000Y-111760000D02*
X38100000Y-111760000D01*
G04 #@! TD*
D27*
G04 #@! TO.N,GND*
G36*
X81956887Y-105410000D02*
X82068260Y-105969909D01*
X82325661Y-106355137D01*
X81810227Y-106870571D01*
X81746772Y-106912971D01*
X81704372Y-106976427D01*
X81704371Y-106976428D01*
X81578797Y-107164363D01*
X81519812Y-107460900D01*
X81534701Y-107535752D01*
X81534700Y-110415148D01*
X81519811Y-110490000D01*
X81578796Y-110786537D01*
X81711480Y-110985112D01*
X81746771Y-111037929D01*
X81998163Y-111205904D01*
X82199214Y-111245896D01*
X82385423Y-111524577D01*
X82737758Y-111760000D01*
X82385423Y-111995423D01*
X82068260Y-112470091D01*
X81956887Y-113030000D01*
X82068260Y-113589909D01*
X82385423Y-114064577D01*
X82737758Y-114300000D01*
X82385423Y-114535423D01*
X82068260Y-115010091D01*
X81956887Y-115570000D01*
X82068260Y-116129909D01*
X82385423Y-116604577D01*
X82737758Y-116840000D01*
X82385423Y-117075423D01*
X82068260Y-117550091D01*
X81956887Y-118110000D01*
X82068260Y-118669909D01*
X82385423Y-119144577D01*
X82860091Y-119461740D01*
X83278667Y-119545000D01*
X84361333Y-119545000D01*
X84779909Y-119461740D01*
X85254577Y-119144577D01*
X85571740Y-118669909D01*
X85683113Y-118110000D01*
X85571740Y-117550091D01*
X85254577Y-117075423D01*
X84902242Y-116840000D01*
X85254577Y-116604577D01*
X85274804Y-116574305D01*
X85904271Y-117203773D01*
X85946671Y-117267229D01*
X86010127Y-117309629D01*
X86198062Y-117435204D01*
X86224446Y-117440452D01*
X86419748Y-117479300D01*
X86419752Y-117479300D01*
X86494600Y-117494188D01*
X86569448Y-117479300D01*
X92314483Y-117479300D01*
X92205633Y-117678181D01*
X92188096Y-117760961D01*
X92310085Y-117983000D01*
X93853000Y-117983000D01*
X93853000Y-117963000D01*
X94107000Y-117963000D01*
X94107000Y-117983000D01*
X95649915Y-117983000D01*
X95771904Y-117760961D01*
X95754367Y-117678181D01*
X95645517Y-117479300D01*
X106470553Y-117479300D01*
X106545400Y-117494188D01*
X106620247Y-117479300D01*
X106620252Y-117479300D01*
X106841937Y-117435204D01*
X107093329Y-117267229D01*
X107135731Y-117203770D01*
X107765196Y-116574305D01*
X107785423Y-116604577D01*
X108137758Y-116840000D01*
X107785423Y-117075423D01*
X107468260Y-117550091D01*
X107356887Y-118110000D01*
X107468260Y-118669909D01*
X107785423Y-119144577D01*
X108260091Y-119461740D01*
X108678667Y-119545000D01*
X109761333Y-119545000D01*
X110179909Y-119461740D01*
X110654577Y-119144577D01*
X110672505Y-119117745D01*
X112201861Y-119117745D01*
X112275995Y-119363864D01*
X112813223Y-119556965D01*
X113383454Y-119529778D01*
X113784005Y-119363864D01*
X113858139Y-119117745D01*
X113030000Y-118289605D01*
X112201861Y-119117745D01*
X110672505Y-119117745D01*
X110840786Y-118865896D01*
X111041837Y-118825904D01*
X111293229Y-118657929D01*
X111335631Y-118594470D01*
X111603688Y-118326413D01*
X111610222Y-118463454D01*
X111776136Y-118864005D01*
X112022255Y-118938139D01*
X112850395Y-118110000D01*
X112836253Y-118095858D01*
X113015858Y-117916253D01*
X113030000Y-117930395D01*
X113044143Y-117916253D01*
X113223748Y-118095858D01*
X113209605Y-118110000D01*
X114037745Y-118938139D01*
X114283864Y-118864005D01*
X114429424Y-118459039D01*
X115048096Y-118459039D01*
X115065633Y-118541819D01*
X115335500Y-119034896D01*
X115773517Y-119387166D01*
X116313000Y-119545000D01*
X116713000Y-119545000D01*
X116713000Y-118237000D01*
X116967000Y-118237000D01*
X116967000Y-119545000D01*
X117367000Y-119545000D01*
X117906483Y-119387166D01*
X118344500Y-119034896D01*
X118614367Y-118541819D01*
X118631904Y-118459039D01*
X118509915Y-118237000D01*
X116967000Y-118237000D01*
X116713000Y-118237000D01*
X115170085Y-118237000D01*
X115048096Y-118459039D01*
X114429424Y-118459039D01*
X114476965Y-118326777D01*
X114449778Y-117756546D01*
X114444830Y-117744600D01*
X115051562Y-117744600D01*
X115048096Y-117760961D01*
X115170085Y-117983000D01*
X116713000Y-117983000D01*
X116713000Y-117963000D01*
X116967000Y-117963000D01*
X116967000Y-117983000D01*
X118509915Y-117983000D01*
X118631904Y-117760961D01*
X118628438Y-117744600D01*
X122669570Y-117744600D01*
X122596887Y-118110000D01*
X122708260Y-118669909D01*
X123025423Y-119144577D01*
X123500091Y-119461740D01*
X123918667Y-119545000D01*
X125001333Y-119545000D01*
X125419909Y-119461740D01*
X125894577Y-119144577D01*
X126211740Y-118669909D01*
X126323113Y-118110000D01*
X126265907Y-117822409D01*
X126977971Y-118534473D01*
X127020371Y-118597929D01*
X127271763Y-118765904D01*
X127493448Y-118810000D01*
X127493452Y-118810000D01*
X127568299Y-118824888D01*
X127643146Y-118810000D01*
X128139288Y-118810000D01*
X128025908Y-119380000D01*
X128141161Y-119959418D01*
X128469375Y-120450625D01*
X128767761Y-120650000D01*
X128469375Y-120849375D01*
X128141161Y-121340582D01*
X128025908Y-121920000D01*
X128141161Y-122499418D01*
X128469375Y-122990625D01*
X128577692Y-123063000D01*
X42035119Y-123063000D01*
X41973026Y-118902800D01*
X46796191Y-118902800D01*
X46725000Y-119074670D01*
X46725000Y-119685330D01*
X46958690Y-120249507D01*
X47390493Y-120681310D01*
X47954670Y-120915000D01*
X48565330Y-120915000D01*
X49129507Y-120681310D01*
X49561310Y-120249507D01*
X49795000Y-119685330D01*
X49795000Y-119074670D01*
X49723809Y-118902800D01*
X53254430Y-118902800D01*
X53175000Y-119094561D01*
X53175000Y-119665439D01*
X53393466Y-120192862D01*
X53797138Y-120596534D01*
X54324561Y-120815000D01*
X54895439Y-120815000D01*
X55422862Y-120596534D01*
X55826534Y-120192862D01*
X56045000Y-119665439D01*
X56045000Y-119094561D01*
X55965570Y-118902800D01*
X60861808Y-118902800D01*
X60766887Y-119380000D01*
X60878260Y-119939909D01*
X61195423Y-120414577D01*
X61670091Y-120731740D01*
X62088667Y-120815000D01*
X62371333Y-120815000D01*
X62789909Y-120731740D01*
X63264577Y-120414577D01*
X63404324Y-120205431D01*
X86665000Y-120205431D01*
X86665000Y-121094569D01*
X87005259Y-121916026D01*
X87633974Y-122544741D01*
X88455431Y-122885000D01*
X89344569Y-122885000D01*
X90166026Y-122544741D01*
X90794741Y-121916026D01*
X91135000Y-121094569D01*
X91135000Y-120205431D01*
X90794741Y-119383974D01*
X90166026Y-118755259D01*
X89450889Y-118459039D01*
X92188096Y-118459039D01*
X92205633Y-118541819D01*
X92475500Y-119034896D01*
X92913517Y-119387166D01*
X93453000Y-119545000D01*
X93853000Y-119545000D01*
X93853000Y-118237000D01*
X94107000Y-118237000D01*
X94107000Y-119545000D01*
X94507000Y-119545000D01*
X95046483Y-119387166D01*
X95484500Y-119034896D01*
X95754367Y-118541819D01*
X95771904Y-118459039D01*
X95649915Y-118237000D01*
X94107000Y-118237000D01*
X93853000Y-118237000D01*
X92310085Y-118237000D01*
X92188096Y-118459039D01*
X89450889Y-118459039D01*
X89344569Y-118415000D01*
X88455431Y-118415000D01*
X87633974Y-118755259D01*
X87005259Y-119383974D01*
X86665000Y-120205431D01*
X63404324Y-120205431D01*
X63450786Y-120135896D01*
X63651837Y-120095904D01*
X63903229Y-119927929D01*
X64071204Y-119676537D01*
X64115300Y-119454852D01*
X64130189Y-119380000D01*
X64115300Y-119305148D01*
X64115300Y-119102501D01*
X64758762Y-118459039D01*
X66788096Y-118459039D01*
X66805633Y-118541819D01*
X67075500Y-119034896D01*
X67513517Y-119387166D01*
X68053000Y-119545000D01*
X68453000Y-119545000D01*
X68453000Y-118237000D01*
X68707000Y-118237000D01*
X68707000Y-119545000D01*
X69107000Y-119545000D01*
X69646483Y-119387166D01*
X70084500Y-119034896D01*
X70354367Y-118541819D01*
X70371904Y-118459039D01*
X70249915Y-118237000D01*
X68707000Y-118237000D01*
X68453000Y-118237000D01*
X66910085Y-118237000D01*
X66788096Y-118459039D01*
X64758762Y-118459039D01*
X66932254Y-116285547D01*
X67145423Y-116604577D01*
X67501499Y-116842499D01*
X67075500Y-117185104D01*
X66805633Y-117678181D01*
X66788096Y-117760961D01*
X66910085Y-117983000D01*
X68453000Y-117983000D01*
X68453000Y-117963000D01*
X68707000Y-117963000D01*
X68707000Y-117983000D01*
X70249915Y-117983000D01*
X70371904Y-117760961D01*
X70354367Y-117678181D01*
X70084500Y-117185104D01*
X69658501Y-116842499D01*
X70014577Y-116604577D01*
X70331740Y-116129909D01*
X70443113Y-115570000D01*
X70341668Y-115060000D01*
X70403453Y-115060000D01*
X70478300Y-115074888D01*
X70553147Y-115060000D01*
X70553152Y-115060000D01*
X70774837Y-115015904D01*
X71026229Y-114847929D01*
X71068631Y-114784470D01*
X80953102Y-104900000D01*
X82058332Y-104900000D01*
X81956887Y-105410000D01*
X81956887Y-105410000D01*
G37*
X81956887Y-105410000D02*
X82068260Y-105969909D01*
X82325661Y-106355137D01*
X81810227Y-106870571D01*
X81746772Y-106912971D01*
X81704372Y-106976427D01*
X81704371Y-106976428D01*
X81578797Y-107164363D01*
X81519812Y-107460900D01*
X81534701Y-107535752D01*
X81534700Y-110415148D01*
X81519811Y-110490000D01*
X81578796Y-110786537D01*
X81711480Y-110985112D01*
X81746771Y-111037929D01*
X81998163Y-111205904D01*
X82199214Y-111245896D01*
X82385423Y-111524577D01*
X82737758Y-111760000D01*
X82385423Y-111995423D01*
X82068260Y-112470091D01*
X81956887Y-113030000D01*
X82068260Y-113589909D01*
X82385423Y-114064577D01*
X82737758Y-114300000D01*
X82385423Y-114535423D01*
X82068260Y-115010091D01*
X81956887Y-115570000D01*
X82068260Y-116129909D01*
X82385423Y-116604577D01*
X82737758Y-116840000D01*
X82385423Y-117075423D01*
X82068260Y-117550091D01*
X81956887Y-118110000D01*
X82068260Y-118669909D01*
X82385423Y-119144577D01*
X82860091Y-119461740D01*
X83278667Y-119545000D01*
X84361333Y-119545000D01*
X84779909Y-119461740D01*
X85254577Y-119144577D01*
X85571740Y-118669909D01*
X85683113Y-118110000D01*
X85571740Y-117550091D01*
X85254577Y-117075423D01*
X84902242Y-116840000D01*
X85254577Y-116604577D01*
X85274804Y-116574305D01*
X85904271Y-117203773D01*
X85946671Y-117267229D01*
X86010127Y-117309629D01*
X86198062Y-117435204D01*
X86224446Y-117440452D01*
X86419748Y-117479300D01*
X86419752Y-117479300D01*
X86494600Y-117494188D01*
X86569448Y-117479300D01*
X92314483Y-117479300D01*
X92205633Y-117678181D01*
X92188096Y-117760961D01*
X92310085Y-117983000D01*
X93853000Y-117983000D01*
X93853000Y-117963000D01*
X94107000Y-117963000D01*
X94107000Y-117983000D01*
X95649915Y-117983000D01*
X95771904Y-117760961D01*
X95754367Y-117678181D01*
X95645517Y-117479300D01*
X106470553Y-117479300D01*
X106545400Y-117494188D01*
X106620247Y-117479300D01*
X106620252Y-117479300D01*
X106841937Y-117435204D01*
X107093329Y-117267229D01*
X107135731Y-117203770D01*
X107765196Y-116574305D01*
X107785423Y-116604577D01*
X108137758Y-116840000D01*
X107785423Y-117075423D01*
X107468260Y-117550091D01*
X107356887Y-118110000D01*
X107468260Y-118669909D01*
X107785423Y-119144577D01*
X108260091Y-119461740D01*
X108678667Y-119545000D01*
X109761333Y-119545000D01*
X110179909Y-119461740D01*
X110654577Y-119144577D01*
X110672505Y-119117745D01*
X112201861Y-119117745D01*
X112275995Y-119363864D01*
X112813223Y-119556965D01*
X113383454Y-119529778D01*
X113784005Y-119363864D01*
X113858139Y-119117745D01*
X113030000Y-118289605D01*
X112201861Y-119117745D01*
X110672505Y-119117745D01*
X110840786Y-118865896D01*
X111041837Y-118825904D01*
X111293229Y-118657929D01*
X111335631Y-118594470D01*
X111603688Y-118326413D01*
X111610222Y-118463454D01*
X111776136Y-118864005D01*
X112022255Y-118938139D01*
X112850395Y-118110000D01*
X112836253Y-118095858D01*
X113015858Y-117916253D01*
X113030000Y-117930395D01*
X113044143Y-117916253D01*
X113223748Y-118095858D01*
X113209605Y-118110000D01*
X114037745Y-118938139D01*
X114283864Y-118864005D01*
X114429424Y-118459039D01*
X115048096Y-118459039D01*
X115065633Y-118541819D01*
X115335500Y-119034896D01*
X115773517Y-119387166D01*
X116313000Y-119545000D01*
X116713000Y-119545000D01*
X116713000Y-118237000D01*
X116967000Y-118237000D01*
X116967000Y-119545000D01*
X117367000Y-119545000D01*
X117906483Y-119387166D01*
X118344500Y-119034896D01*
X118614367Y-118541819D01*
X118631904Y-118459039D01*
X118509915Y-118237000D01*
X116967000Y-118237000D01*
X116713000Y-118237000D01*
X115170085Y-118237000D01*
X115048096Y-118459039D01*
X114429424Y-118459039D01*
X114476965Y-118326777D01*
X114449778Y-117756546D01*
X114444830Y-117744600D01*
X115051562Y-117744600D01*
X115048096Y-117760961D01*
X115170085Y-117983000D01*
X116713000Y-117983000D01*
X116713000Y-117963000D01*
X116967000Y-117963000D01*
X116967000Y-117983000D01*
X118509915Y-117983000D01*
X118631904Y-117760961D01*
X118628438Y-117744600D01*
X122669570Y-117744600D01*
X122596887Y-118110000D01*
X122708260Y-118669909D01*
X123025423Y-119144577D01*
X123500091Y-119461740D01*
X123918667Y-119545000D01*
X125001333Y-119545000D01*
X125419909Y-119461740D01*
X125894577Y-119144577D01*
X126211740Y-118669909D01*
X126323113Y-118110000D01*
X126265907Y-117822409D01*
X126977971Y-118534473D01*
X127020371Y-118597929D01*
X127271763Y-118765904D01*
X127493448Y-118810000D01*
X127493452Y-118810000D01*
X127568299Y-118824888D01*
X127643146Y-118810000D01*
X128139288Y-118810000D01*
X128025908Y-119380000D01*
X128141161Y-119959418D01*
X128469375Y-120450625D01*
X128767761Y-120650000D01*
X128469375Y-120849375D01*
X128141161Y-121340582D01*
X128025908Y-121920000D01*
X128141161Y-122499418D01*
X128469375Y-122990625D01*
X128577692Y-123063000D01*
X42035119Y-123063000D01*
X41973026Y-118902800D01*
X46796191Y-118902800D01*
X46725000Y-119074670D01*
X46725000Y-119685330D01*
X46958690Y-120249507D01*
X47390493Y-120681310D01*
X47954670Y-120915000D01*
X48565330Y-120915000D01*
X49129507Y-120681310D01*
X49561310Y-120249507D01*
X49795000Y-119685330D01*
X49795000Y-119074670D01*
X49723809Y-118902800D01*
X53254430Y-118902800D01*
X53175000Y-119094561D01*
X53175000Y-119665439D01*
X53393466Y-120192862D01*
X53797138Y-120596534D01*
X54324561Y-120815000D01*
X54895439Y-120815000D01*
X55422862Y-120596534D01*
X55826534Y-120192862D01*
X56045000Y-119665439D01*
X56045000Y-119094561D01*
X55965570Y-118902800D01*
X60861808Y-118902800D01*
X60766887Y-119380000D01*
X60878260Y-119939909D01*
X61195423Y-120414577D01*
X61670091Y-120731740D01*
X62088667Y-120815000D01*
X62371333Y-120815000D01*
X62789909Y-120731740D01*
X63264577Y-120414577D01*
X63404324Y-120205431D01*
X86665000Y-120205431D01*
X86665000Y-121094569D01*
X87005259Y-121916026D01*
X87633974Y-122544741D01*
X88455431Y-122885000D01*
X89344569Y-122885000D01*
X90166026Y-122544741D01*
X90794741Y-121916026D01*
X91135000Y-121094569D01*
X91135000Y-120205431D01*
X90794741Y-119383974D01*
X90166026Y-118755259D01*
X89450889Y-118459039D01*
X92188096Y-118459039D01*
X92205633Y-118541819D01*
X92475500Y-119034896D01*
X92913517Y-119387166D01*
X93453000Y-119545000D01*
X93853000Y-119545000D01*
X93853000Y-118237000D01*
X94107000Y-118237000D01*
X94107000Y-119545000D01*
X94507000Y-119545000D01*
X95046483Y-119387166D01*
X95484500Y-119034896D01*
X95754367Y-118541819D01*
X95771904Y-118459039D01*
X95649915Y-118237000D01*
X94107000Y-118237000D01*
X93853000Y-118237000D01*
X92310085Y-118237000D01*
X92188096Y-118459039D01*
X89450889Y-118459039D01*
X89344569Y-118415000D01*
X88455431Y-118415000D01*
X87633974Y-118755259D01*
X87005259Y-119383974D01*
X86665000Y-120205431D01*
X63404324Y-120205431D01*
X63450786Y-120135896D01*
X63651837Y-120095904D01*
X63903229Y-119927929D01*
X64071204Y-119676537D01*
X64115300Y-119454852D01*
X64130189Y-119380000D01*
X64115300Y-119305148D01*
X64115300Y-119102501D01*
X64758762Y-118459039D01*
X66788096Y-118459039D01*
X66805633Y-118541819D01*
X67075500Y-119034896D01*
X67513517Y-119387166D01*
X68053000Y-119545000D01*
X68453000Y-119545000D01*
X68453000Y-118237000D01*
X68707000Y-118237000D01*
X68707000Y-119545000D01*
X69107000Y-119545000D01*
X69646483Y-119387166D01*
X70084500Y-119034896D01*
X70354367Y-118541819D01*
X70371904Y-118459039D01*
X70249915Y-118237000D01*
X68707000Y-118237000D01*
X68453000Y-118237000D01*
X66910085Y-118237000D01*
X66788096Y-118459039D01*
X64758762Y-118459039D01*
X66932254Y-116285547D01*
X67145423Y-116604577D01*
X67501499Y-116842499D01*
X67075500Y-117185104D01*
X66805633Y-117678181D01*
X66788096Y-117760961D01*
X66910085Y-117983000D01*
X68453000Y-117983000D01*
X68453000Y-117963000D01*
X68707000Y-117963000D01*
X68707000Y-117983000D01*
X70249915Y-117983000D01*
X70371904Y-117760961D01*
X70354367Y-117678181D01*
X70084500Y-117185104D01*
X69658501Y-116842499D01*
X70014577Y-116604577D01*
X70331740Y-116129909D01*
X70443113Y-115570000D01*
X70341668Y-115060000D01*
X70403453Y-115060000D01*
X70478300Y-115074888D01*
X70553147Y-115060000D01*
X70553152Y-115060000D01*
X70774837Y-115015904D01*
X71026229Y-114847929D01*
X71068631Y-114784470D01*
X80953102Y-104900000D01*
X82058332Y-104900000D01*
X81956887Y-105410000D01*
G36*
X132207000Y-39243000D02*
X132227000Y-39243000D01*
X132227000Y-39497000D01*
X132207000Y-39497000D01*
X132207000Y-41783000D01*
X132227000Y-41783000D01*
X132227000Y-42037000D01*
X132207000Y-42037000D01*
X132207000Y-44323000D01*
X132227000Y-44323000D01*
X132227000Y-44577000D01*
X132207000Y-44577000D01*
X132207000Y-46863000D01*
X132227000Y-46863000D01*
X132227000Y-47117000D01*
X132207000Y-47117000D01*
X132207000Y-49403000D01*
X132227000Y-49403000D01*
X132227000Y-49657000D01*
X132207000Y-49657000D01*
X132207000Y-51943000D01*
X132227000Y-51943000D01*
X132227000Y-52197000D01*
X132207000Y-52197000D01*
X132207000Y-54483000D01*
X132227000Y-54483000D01*
X132227000Y-54737000D01*
X132207000Y-54737000D01*
X132207000Y-57023000D01*
X132227000Y-57023000D01*
X132227000Y-57277000D01*
X132207000Y-57277000D01*
X132207000Y-59563000D01*
X132227000Y-59563000D01*
X132227000Y-59817000D01*
X132207000Y-59817000D01*
X132207000Y-62103000D01*
X132227000Y-62103000D01*
X132227000Y-62357000D01*
X132207000Y-62357000D01*
X132207000Y-64643000D01*
X132227000Y-64643000D01*
X132227000Y-64897000D01*
X132207000Y-64897000D01*
X132207000Y-67183000D01*
X132227000Y-67183000D01*
X132227000Y-67437000D01*
X132207000Y-67437000D01*
X132207000Y-69723000D01*
X132227000Y-69723000D01*
X132227000Y-69977000D01*
X132207000Y-69977000D01*
X132207000Y-72263000D01*
X132227000Y-72263000D01*
X132227000Y-72517000D01*
X132207000Y-72517000D01*
X132207000Y-74803000D01*
X132227000Y-74803000D01*
X132227000Y-75057000D01*
X132207000Y-75057000D01*
X132207000Y-77343000D01*
X132227000Y-77343000D01*
X132227000Y-77597000D01*
X132207000Y-77597000D01*
X132207000Y-79883000D01*
X132227000Y-79883000D01*
X132227000Y-80137000D01*
X132207000Y-80137000D01*
X132207000Y-81336250D01*
X132365750Y-81495000D01*
X133056309Y-81495000D01*
X133223000Y-81425954D01*
X133223000Y-90531915D01*
X132961358Y-90244817D01*
X132436892Y-89998514D01*
X132207000Y-90119181D01*
X132207000Y-91313000D01*
X132227000Y-91313000D01*
X132227000Y-91567000D01*
X132207000Y-91567000D01*
X132207000Y-93853000D01*
X132227000Y-93853000D01*
X132227000Y-94107000D01*
X132207000Y-94107000D01*
X132207000Y-96393000D01*
X132227000Y-96393000D01*
X132227000Y-96647000D01*
X132207000Y-96647000D01*
X132207000Y-98933000D01*
X132227000Y-98933000D01*
X132227000Y-99187000D01*
X132207000Y-99187000D01*
X132207000Y-101473000D01*
X132227000Y-101473000D01*
X132227000Y-101727000D01*
X132207000Y-101727000D01*
X132207000Y-104013000D01*
X132227000Y-104013000D01*
X132227000Y-104267000D01*
X132207000Y-104267000D01*
X132207000Y-106553000D01*
X132227000Y-106553000D01*
X132227000Y-106807000D01*
X132207000Y-106807000D01*
X132207000Y-109093000D01*
X132227000Y-109093000D01*
X132227000Y-109347000D01*
X132207000Y-109347000D01*
X132207000Y-111633000D01*
X132227000Y-111633000D01*
X132227000Y-111887000D01*
X132207000Y-111887000D01*
X132207000Y-114173000D01*
X132227000Y-114173000D01*
X132227000Y-114427000D01*
X132207000Y-114427000D01*
X132207000Y-116713000D01*
X132227000Y-116713000D01*
X132227000Y-116967000D01*
X132207000Y-116967000D01*
X132207000Y-119253000D01*
X132227000Y-119253000D01*
X132227000Y-119507000D01*
X132207000Y-119507000D01*
X132207000Y-119527000D01*
X131953000Y-119527000D01*
X131953000Y-119507000D01*
X131933000Y-119507000D01*
X131933000Y-119253000D01*
X131953000Y-119253000D01*
X131953000Y-116967000D01*
X131933000Y-116967000D01*
X131933000Y-116713000D01*
X131953000Y-116713000D01*
X131953000Y-114427000D01*
X131933000Y-114427000D01*
X131933000Y-114173000D01*
X131953000Y-114173000D01*
X131953000Y-111887000D01*
X131933000Y-111887000D01*
X131933000Y-111633000D01*
X131953000Y-111633000D01*
X131953000Y-109347000D01*
X131933000Y-109347000D01*
X131933000Y-109093000D01*
X131953000Y-109093000D01*
X131953000Y-106807000D01*
X131933000Y-106807000D01*
X131933000Y-106553000D01*
X131953000Y-106553000D01*
X131953000Y-104267000D01*
X131933000Y-104267000D01*
X131933000Y-104013000D01*
X131953000Y-104013000D01*
X131953000Y-101727000D01*
X131933000Y-101727000D01*
X131933000Y-101473000D01*
X131953000Y-101473000D01*
X131953000Y-99187000D01*
X131933000Y-99187000D01*
X131933000Y-98933000D01*
X131953000Y-98933000D01*
X131953000Y-96647000D01*
X131933000Y-96647000D01*
X131933000Y-96393000D01*
X131953000Y-96393000D01*
X131953000Y-94107000D01*
X131933000Y-94107000D01*
X131933000Y-93853000D01*
X131953000Y-93853000D01*
X131953000Y-91567000D01*
X131933000Y-91567000D01*
X131933000Y-91313000D01*
X131953000Y-91313000D01*
X131953000Y-90119181D01*
X131723108Y-89998514D01*
X131198642Y-90244817D01*
X131009961Y-90451855D01*
X130988157Y-90342235D01*
X130847809Y-90132191D01*
X130637765Y-89991843D01*
X130390000Y-89942560D01*
X128690000Y-89942560D01*
X128524652Y-89975449D01*
X131199773Y-87300329D01*
X131263229Y-87257929D01*
X131431204Y-87006537D01*
X131475300Y-86784852D01*
X131475300Y-86784848D01*
X131490188Y-86710001D01*
X131475300Y-86635154D01*
X131475300Y-81495000D01*
X131794250Y-81495000D01*
X131953000Y-81336250D01*
X131953000Y-80137000D01*
X131933000Y-80137000D01*
X131933000Y-79883000D01*
X131953000Y-79883000D01*
X131953000Y-77597000D01*
X131933000Y-77597000D01*
X131933000Y-77343000D01*
X131953000Y-77343000D01*
X131953000Y-75057000D01*
X131933000Y-75057000D01*
X131933000Y-74803000D01*
X131953000Y-74803000D01*
X131953000Y-72517000D01*
X131933000Y-72517000D01*
X131933000Y-72263000D01*
X131953000Y-72263000D01*
X131953000Y-69977000D01*
X131933000Y-69977000D01*
X131933000Y-69723000D01*
X131953000Y-69723000D01*
X131953000Y-67437000D01*
X131933000Y-67437000D01*
X131933000Y-67183000D01*
X131953000Y-67183000D01*
X131953000Y-64897000D01*
X131933000Y-64897000D01*
X131933000Y-64643000D01*
X131953000Y-64643000D01*
X131953000Y-62357000D01*
X131933000Y-62357000D01*
X131933000Y-62103000D01*
X131953000Y-62103000D01*
X131953000Y-59817000D01*
X131933000Y-59817000D01*
X131933000Y-59563000D01*
X131953000Y-59563000D01*
X131953000Y-57277000D01*
X131933000Y-57277000D01*
X131933000Y-57023000D01*
X131953000Y-57023000D01*
X131953000Y-54737000D01*
X131933000Y-54737000D01*
X131933000Y-54483000D01*
X131953000Y-54483000D01*
X131953000Y-52197000D01*
X131933000Y-52197000D01*
X131933000Y-51943000D01*
X131953000Y-51943000D01*
X131953000Y-49657000D01*
X131933000Y-49657000D01*
X131933000Y-49403000D01*
X131953000Y-49403000D01*
X131953000Y-47117000D01*
X131933000Y-47117000D01*
X131933000Y-46863000D01*
X131953000Y-46863000D01*
X131953000Y-44577000D01*
X131933000Y-44577000D01*
X131933000Y-44323000D01*
X131953000Y-44323000D01*
X131953000Y-42037000D01*
X131933000Y-42037000D01*
X131933000Y-41783000D01*
X131953000Y-41783000D01*
X131953000Y-39497000D01*
X131933000Y-39497000D01*
X131933000Y-39243000D01*
X131953000Y-39243000D01*
X131953000Y-39223000D01*
X132207000Y-39223000D01*
X132207000Y-39243000D01*
X132207000Y-39243000D01*
G37*
X132207000Y-39243000D02*
X132227000Y-39243000D01*
X132227000Y-39497000D01*
X132207000Y-39497000D01*
X132207000Y-41783000D01*
X132227000Y-41783000D01*
X132227000Y-42037000D01*
X132207000Y-42037000D01*
X132207000Y-44323000D01*
X132227000Y-44323000D01*
X132227000Y-44577000D01*
X132207000Y-44577000D01*
X132207000Y-46863000D01*
X132227000Y-46863000D01*
X132227000Y-47117000D01*
X132207000Y-47117000D01*
X132207000Y-49403000D01*
X132227000Y-49403000D01*
X132227000Y-49657000D01*
X132207000Y-49657000D01*
X132207000Y-51943000D01*
X132227000Y-51943000D01*
X132227000Y-52197000D01*
X132207000Y-52197000D01*
X132207000Y-54483000D01*
X132227000Y-54483000D01*
X132227000Y-54737000D01*
X132207000Y-54737000D01*
X132207000Y-57023000D01*
X132227000Y-57023000D01*
X132227000Y-57277000D01*
X132207000Y-57277000D01*
X132207000Y-59563000D01*
X132227000Y-59563000D01*
X132227000Y-59817000D01*
X132207000Y-59817000D01*
X132207000Y-62103000D01*
X132227000Y-62103000D01*
X132227000Y-62357000D01*
X132207000Y-62357000D01*
X132207000Y-64643000D01*
X132227000Y-64643000D01*
X132227000Y-64897000D01*
X132207000Y-64897000D01*
X132207000Y-67183000D01*
X132227000Y-67183000D01*
X132227000Y-67437000D01*
X132207000Y-67437000D01*
X132207000Y-69723000D01*
X132227000Y-69723000D01*
X132227000Y-69977000D01*
X132207000Y-69977000D01*
X132207000Y-72263000D01*
X132227000Y-72263000D01*
X132227000Y-72517000D01*
X132207000Y-72517000D01*
X132207000Y-74803000D01*
X132227000Y-74803000D01*
X132227000Y-75057000D01*
X132207000Y-75057000D01*
X132207000Y-77343000D01*
X132227000Y-77343000D01*
X132227000Y-77597000D01*
X132207000Y-77597000D01*
X132207000Y-79883000D01*
X132227000Y-79883000D01*
X132227000Y-80137000D01*
X132207000Y-80137000D01*
X132207000Y-81336250D01*
X132365750Y-81495000D01*
X133056309Y-81495000D01*
X133223000Y-81425954D01*
X133223000Y-90531915D01*
X132961358Y-90244817D01*
X132436892Y-89998514D01*
X132207000Y-90119181D01*
X132207000Y-91313000D01*
X132227000Y-91313000D01*
X132227000Y-91567000D01*
X132207000Y-91567000D01*
X132207000Y-93853000D01*
X132227000Y-93853000D01*
X132227000Y-94107000D01*
X132207000Y-94107000D01*
X132207000Y-96393000D01*
X132227000Y-96393000D01*
X132227000Y-96647000D01*
X132207000Y-96647000D01*
X132207000Y-98933000D01*
X132227000Y-98933000D01*
X132227000Y-99187000D01*
X132207000Y-99187000D01*
X132207000Y-101473000D01*
X132227000Y-101473000D01*
X132227000Y-101727000D01*
X132207000Y-101727000D01*
X132207000Y-104013000D01*
X132227000Y-104013000D01*
X132227000Y-104267000D01*
X132207000Y-104267000D01*
X132207000Y-106553000D01*
X132227000Y-106553000D01*
X132227000Y-106807000D01*
X132207000Y-106807000D01*
X132207000Y-109093000D01*
X132227000Y-109093000D01*
X132227000Y-109347000D01*
X132207000Y-109347000D01*
X132207000Y-111633000D01*
X132227000Y-111633000D01*
X132227000Y-111887000D01*
X132207000Y-111887000D01*
X132207000Y-114173000D01*
X132227000Y-114173000D01*
X132227000Y-114427000D01*
X132207000Y-114427000D01*
X132207000Y-116713000D01*
X132227000Y-116713000D01*
X132227000Y-116967000D01*
X132207000Y-116967000D01*
X132207000Y-119253000D01*
X132227000Y-119253000D01*
X132227000Y-119507000D01*
X132207000Y-119507000D01*
X132207000Y-119527000D01*
X131953000Y-119527000D01*
X131953000Y-119507000D01*
X131933000Y-119507000D01*
X131933000Y-119253000D01*
X131953000Y-119253000D01*
X131953000Y-116967000D01*
X131933000Y-116967000D01*
X131933000Y-116713000D01*
X131953000Y-116713000D01*
X131953000Y-114427000D01*
X131933000Y-114427000D01*
X131933000Y-114173000D01*
X131953000Y-114173000D01*
X131953000Y-111887000D01*
X131933000Y-111887000D01*
X131933000Y-111633000D01*
X131953000Y-111633000D01*
X131953000Y-109347000D01*
X131933000Y-109347000D01*
X131933000Y-109093000D01*
X131953000Y-109093000D01*
X131953000Y-106807000D01*
X131933000Y-106807000D01*
X131933000Y-106553000D01*
X131953000Y-106553000D01*
X131953000Y-104267000D01*
X131933000Y-104267000D01*
X131933000Y-104013000D01*
X131953000Y-104013000D01*
X131953000Y-101727000D01*
X131933000Y-101727000D01*
X131933000Y-101473000D01*
X131953000Y-101473000D01*
X131953000Y-99187000D01*
X131933000Y-99187000D01*
X131933000Y-98933000D01*
X131953000Y-98933000D01*
X131953000Y-96647000D01*
X131933000Y-96647000D01*
X131933000Y-96393000D01*
X131953000Y-96393000D01*
X131953000Y-94107000D01*
X131933000Y-94107000D01*
X131933000Y-93853000D01*
X131953000Y-93853000D01*
X131953000Y-91567000D01*
X131933000Y-91567000D01*
X131933000Y-91313000D01*
X131953000Y-91313000D01*
X131953000Y-90119181D01*
X131723108Y-89998514D01*
X131198642Y-90244817D01*
X131009961Y-90451855D01*
X130988157Y-90342235D01*
X130847809Y-90132191D01*
X130637765Y-89991843D01*
X130390000Y-89942560D01*
X128690000Y-89942560D01*
X128524652Y-89975449D01*
X131199773Y-87300329D01*
X131263229Y-87257929D01*
X131431204Y-87006537D01*
X131475300Y-86784852D01*
X131475300Y-86784848D01*
X131490188Y-86710001D01*
X131475300Y-86635154D01*
X131475300Y-81495000D01*
X131794250Y-81495000D01*
X131953000Y-81336250D01*
X131953000Y-80137000D01*
X131933000Y-80137000D01*
X131933000Y-79883000D01*
X131953000Y-79883000D01*
X131953000Y-77597000D01*
X131933000Y-77597000D01*
X131933000Y-77343000D01*
X131953000Y-77343000D01*
X131953000Y-75057000D01*
X131933000Y-75057000D01*
X131933000Y-74803000D01*
X131953000Y-74803000D01*
X131953000Y-72517000D01*
X131933000Y-72517000D01*
X131933000Y-72263000D01*
X131953000Y-72263000D01*
X131953000Y-69977000D01*
X131933000Y-69977000D01*
X131933000Y-69723000D01*
X131953000Y-69723000D01*
X131953000Y-67437000D01*
X131933000Y-67437000D01*
X131933000Y-67183000D01*
X131953000Y-67183000D01*
X131953000Y-64897000D01*
X131933000Y-64897000D01*
X131933000Y-64643000D01*
X131953000Y-64643000D01*
X131953000Y-62357000D01*
X131933000Y-62357000D01*
X131933000Y-62103000D01*
X131953000Y-62103000D01*
X131953000Y-59817000D01*
X131933000Y-59817000D01*
X131933000Y-59563000D01*
X131953000Y-59563000D01*
X131953000Y-57277000D01*
X131933000Y-57277000D01*
X131933000Y-57023000D01*
X131953000Y-57023000D01*
X131953000Y-54737000D01*
X131933000Y-54737000D01*
X131933000Y-54483000D01*
X131953000Y-54483000D01*
X131953000Y-52197000D01*
X131933000Y-52197000D01*
X131933000Y-51943000D01*
X131953000Y-51943000D01*
X131953000Y-49657000D01*
X131933000Y-49657000D01*
X131933000Y-49403000D01*
X131953000Y-49403000D01*
X131953000Y-47117000D01*
X131933000Y-47117000D01*
X131933000Y-46863000D01*
X131953000Y-46863000D01*
X131953000Y-44577000D01*
X131933000Y-44577000D01*
X131933000Y-44323000D01*
X131953000Y-44323000D01*
X131953000Y-42037000D01*
X131933000Y-42037000D01*
X131933000Y-41783000D01*
X131953000Y-41783000D01*
X131953000Y-39497000D01*
X131933000Y-39497000D01*
X131933000Y-39243000D01*
X131953000Y-39243000D01*
X131953000Y-39223000D01*
X132207000Y-39223000D01*
X132207000Y-39243000D01*
G36*
X52494371Y-110974473D02*
X52536771Y-111037929D01*
X52788163Y-111205904D01*
X52989214Y-111245896D01*
X53175423Y-111524577D01*
X53527758Y-111760000D01*
X53175423Y-111995423D01*
X52858260Y-112470091D01*
X52746887Y-113030000D01*
X52858260Y-113589909D01*
X53175423Y-114064577D01*
X53531499Y-114302499D01*
X53105500Y-114645104D01*
X52835633Y-115138181D01*
X52818096Y-115220961D01*
X52940085Y-115443000D01*
X54483000Y-115443000D01*
X54483000Y-115423000D01*
X54737000Y-115423000D01*
X54737000Y-115443000D01*
X56279915Y-115443000D01*
X56401904Y-115220961D01*
X56384367Y-115138181D01*
X56114500Y-114645104D01*
X55688501Y-114302499D01*
X56044577Y-114064577D01*
X56110186Y-113966387D01*
X58555797Y-116412000D01*
X56159870Y-116412000D01*
X56384367Y-116001819D01*
X56401904Y-115919039D01*
X56279915Y-115697000D01*
X54737000Y-115697000D01*
X54737000Y-115717000D01*
X54483000Y-115717000D01*
X54483000Y-115697000D01*
X52940085Y-115697000D01*
X52818096Y-115919039D01*
X52835633Y-116001819D01*
X52942768Y-116197566D01*
X51857931Y-115112730D01*
X51815529Y-115049271D01*
X51564137Y-114881296D01*
X51342452Y-114837200D01*
X51342447Y-114837200D01*
X51267600Y-114822312D01*
X51192753Y-114837200D01*
X41912346Y-114837200D01*
X41884345Y-112961170D01*
X41922191Y-113017809D01*
X42132235Y-113158157D01*
X42380000Y-113207440D01*
X43980000Y-113207440D01*
X44227765Y-113158157D01*
X44437809Y-113017809D01*
X44578157Y-112807765D01*
X44627440Y-112560000D01*
X44627440Y-110960000D01*
X44578157Y-110712235D01*
X44437809Y-110502191D01*
X44227765Y-110361843D01*
X43980000Y-110312560D01*
X42380000Y-110312560D01*
X42132235Y-110361843D01*
X41922191Y-110502191D01*
X41849273Y-110611320D01*
X41839850Y-109980000D01*
X51499899Y-109980000D01*
X52494371Y-110974473D01*
X52494371Y-110974473D01*
G37*
X52494371Y-110974473D02*
X52536771Y-111037929D01*
X52788163Y-111205904D01*
X52989214Y-111245896D01*
X53175423Y-111524577D01*
X53527758Y-111760000D01*
X53175423Y-111995423D01*
X52858260Y-112470091D01*
X52746887Y-113030000D01*
X52858260Y-113589909D01*
X53175423Y-114064577D01*
X53531499Y-114302499D01*
X53105500Y-114645104D01*
X52835633Y-115138181D01*
X52818096Y-115220961D01*
X52940085Y-115443000D01*
X54483000Y-115443000D01*
X54483000Y-115423000D01*
X54737000Y-115423000D01*
X54737000Y-115443000D01*
X56279915Y-115443000D01*
X56401904Y-115220961D01*
X56384367Y-115138181D01*
X56114500Y-114645104D01*
X55688501Y-114302499D01*
X56044577Y-114064577D01*
X56110186Y-113966387D01*
X58555797Y-116412000D01*
X56159870Y-116412000D01*
X56384367Y-116001819D01*
X56401904Y-115919039D01*
X56279915Y-115697000D01*
X54737000Y-115697000D01*
X54737000Y-115717000D01*
X54483000Y-115717000D01*
X54483000Y-115697000D01*
X52940085Y-115697000D01*
X52818096Y-115919039D01*
X52835633Y-116001819D01*
X52942768Y-116197566D01*
X51857931Y-115112730D01*
X51815529Y-115049271D01*
X51564137Y-114881296D01*
X51342452Y-114837200D01*
X51342447Y-114837200D01*
X51267600Y-114822312D01*
X51192753Y-114837200D01*
X41912346Y-114837200D01*
X41884345Y-112961170D01*
X41922191Y-113017809D01*
X42132235Y-113158157D01*
X42380000Y-113207440D01*
X43980000Y-113207440D01*
X44227765Y-113158157D01*
X44437809Y-113017809D01*
X44578157Y-112807765D01*
X44627440Y-112560000D01*
X44627440Y-110960000D01*
X44578157Y-110712235D01*
X44437809Y-110502191D01*
X44227765Y-110361843D01*
X43980000Y-110312560D01*
X42380000Y-110312560D01*
X42132235Y-110361843D01*
X41922191Y-110502191D01*
X41849273Y-110611320D01*
X41839850Y-109980000D01*
X51499899Y-109980000D01*
X52494371Y-110974473D01*
G36*
X110660701Y-86281748D02*
X110645812Y-86356600D01*
X110704797Y-86653137D01*
X110824358Y-86832072D01*
X110872772Y-86904529D01*
X110936228Y-86946929D01*
X111964951Y-87975653D01*
X111813466Y-88127138D01*
X111595000Y-88654561D01*
X111595000Y-89225439D01*
X111813466Y-89752862D01*
X112217138Y-90156534D01*
X112282299Y-90183525D01*
X112275995Y-90186136D01*
X112201861Y-90432255D01*
X113030000Y-91260395D01*
X113044143Y-91246253D01*
X113223748Y-91425858D01*
X113209605Y-91440000D01*
X113223748Y-91454143D01*
X113044142Y-91633748D01*
X113030000Y-91619605D01*
X112201861Y-92447745D01*
X112275995Y-92693864D01*
X112813223Y-92886965D01*
X113383454Y-92859778D01*
X113395400Y-92854830D01*
X113395401Y-114169797D01*
X113368302Y-114196896D01*
X113315439Y-114175000D01*
X112744561Y-114175000D01*
X112406000Y-114315237D01*
X112406000Y-100822648D01*
X112420888Y-100747800D01*
X112406000Y-100672952D01*
X112406000Y-100672948D01*
X112363411Y-100458839D01*
X112361904Y-100451262D01*
X112236329Y-100263327D01*
X112193929Y-100199871D01*
X112130473Y-100157471D01*
X110711855Y-98738854D01*
X110971740Y-98349909D01*
X111083113Y-97790000D01*
X110971740Y-97230091D01*
X110654577Y-96755423D01*
X110302242Y-96520000D01*
X110654577Y-96284577D01*
X110971740Y-95809909D01*
X111083113Y-95250000D01*
X110971740Y-94690091D01*
X110654577Y-94215423D01*
X110302242Y-93980000D01*
X110654577Y-93744577D01*
X110971740Y-93269909D01*
X111083113Y-92710000D01*
X110971740Y-92150091D01*
X110654577Y-91675423D01*
X110302242Y-91440000D01*
X110626671Y-91223223D01*
X111583035Y-91223223D01*
X111610222Y-91793454D01*
X111776136Y-92194005D01*
X112022255Y-92268139D01*
X112850395Y-91440000D01*
X112022255Y-90611861D01*
X111776136Y-90685995D01*
X111583035Y-91223223D01*
X110626671Y-91223223D01*
X110654577Y-91204577D01*
X110971740Y-90729909D01*
X111083113Y-90170000D01*
X110971740Y-89610091D01*
X110654577Y-89135423D01*
X110302242Y-88900000D01*
X110654577Y-88664577D01*
X110971740Y-88189909D01*
X111083113Y-87630000D01*
X110971740Y-87070091D01*
X110654577Y-86595423D01*
X110302242Y-86360000D01*
X110654577Y-86124577D01*
X110660701Y-86115412D01*
X110660701Y-86281748D01*
X110660701Y-86281748D01*
G37*
X110660701Y-86281748D02*
X110645812Y-86356600D01*
X110704797Y-86653137D01*
X110824358Y-86832072D01*
X110872772Y-86904529D01*
X110936228Y-86946929D01*
X111964951Y-87975653D01*
X111813466Y-88127138D01*
X111595000Y-88654561D01*
X111595000Y-89225439D01*
X111813466Y-89752862D01*
X112217138Y-90156534D01*
X112282299Y-90183525D01*
X112275995Y-90186136D01*
X112201861Y-90432255D01*
X113030000Y-91260395D01*
X113044143Y-91246253D01*
X113223748Y-91425858D01*
X113209605Y-91440000D01*
X113223748Y-91454143D01*
X113044142Y-91633748D01*
X113030000Y-91619605D01*
X112201861Y-92447745D01*
X112275995Y-92693864D01*
X112813223Y-92886965D01*
X113383454Y-92859778D01*
X113395400Y-92854830D01*
X113395401Y-114169797D01*
X113368302Y-114196896D01*
X113315439Y-114175000D01*
X112744561Y-114175000D01*
X112406000Y-114315237D01*
X112406000Y-100822648D01*
X112420888Y-100747800D01*
X112406000Y-100672952D01*
X112406000Y-100672948D01*
X112363411Y-100458839D01*
X112361904Y-100451262D01*
X112236329Y-100263327D01*
X112193929Y-100199871D01*
X112130473Y-100157471D01*
X110711855Y-98738854D01*
X110971740Y-98349909D01*
X111083113Y-97790000D01*
X110971740Y-97230091D01*
X110654577Y-96755423D01*
X110302242Y-96520000D01*
X110654577Y-96284577D01*
X110971740Y-95809909D01*
X111083113Y-95250000D01*
X110971740Y-94690091D01*
X110654577Y-94215423D01*
X110302242Y-93980000D01*
X110654577Y-93744577D01*
X110971740Y-93269909D01*
X111083113Y-92710000D01*
X110971740Y-92150091D01*
X110654577Y-91675423D01*
X110302242Y-91440000D01*
X110626671Y-91223223D01*
X111583035Y-91223223D01*
X111610222Y-91793454D01*
X111776136Y-92194005D01*
X112022255Y-92268139D01*
X112850395Y-91440000D01*
X112022255Y-90611861D01*
X111776136Y-90685995D01*
X111583035Y-91223223D01*
X110626671Y-91223223D01*
X110654577Y-91204577D01*
X110971740Y-90729909D01*
X111083113Y-90170000D01*
X110971740Y-89610091D01*
X110654577Y-89135423D01*
X110302242Y-88900000D01*
X110654577Y-88664577D01*
X110971740Y-88189909D01*
X111083113Y-87630000D01*
X110971740Y-87070091D01*
X110654577Y-86595423D01*
X110302242Y-86360000D01*
X110654577Y-86124577D01*
X110660701Y-86115412D01*
X110660701Y-86281748D01*
G36*
X41732560Y-87160000D02*
X41781843Y-87407765D01*
X41922191Y-87617809D01*
X42132235Y-87758157D01*
X42380000Y-87807440D01*
X43980000Y-87807440D01*
X44225301Y-87758647D01*
X44225301Y-88115500D01*
X44054026Y-88115500D01*
X43673620Y-88273069D01*
X43382469Y-88564220D01*
X43224900Y-88944626D01*
X43224900Y-89110699D01*
X43050130Y-89285469D01*
X42986671Y-89327871D01*
X42818696Y-89579264D01*
X42774600Y-89800949D01*
X42774600Y-89800953D01*
X42759712Y-89875800D01*
X42774600Y-89950647D01*
X42774601Y-91893648D01*
X42759712Y-91968500D01*
X42818697Y-92265037D01*
X42940779Y-92447745D01*
X42986672Y-92516429D01*
X43050128Y-92558829D01*
X43570500Y-93079202D01*
X43570500Y-95135478D01*
X43396777Y-95073035D01*
X42826546Y-95100222D01*
X42425995Y-95266136D01*
X42351861Y-95512255D01*
X43180000Y-96340395D01*
X43194143Y-96326253D01*
X43373748Y-96505858D01*
X43359605Y-96520000D01*
X43373748Y-96534143D01*
X43194143Y-96713748D01*
X43180000Y-96699605D01*
X42351861Y-97527745D01*
X42425995Y-97773864D01*
X42432746Y-97776290D01*
X42367138Y-97803466D01*
X41963466Y-98207138D01*
X41941570Y-98260000D01*
X41664925Y-98260000D01*
X41635720Y-96303223D01*
X41733035Y-96303223D01*
X41760222Y-96873454D01*
X41926136Y-97274005D01*
X42172255Y-97348139D01*
X43000395Y-96520000D01*
X42172255Y-95691861D01*
X41926136Y-95765995D01*
X41733035Y-96303223D01*
X41635720Y-96303223D01*
X41498656Y-87120000D01*
X41732560Y-87120000D01*
X41732560Y-87160000D01*
X41732560Y-87160000D01*
G37*
X41732560Y-87160000D02*
X41781843Y-87407765D01*
X41922191Y-87617809D01*
X42132235Y-87758157D01*
X42380000Y-87807440D01*
X43980000Y-87807440D01*
X44225301Y-87758647D01*
X44225301Y-88115500D01*
X44054026Y-88115500D01*
X43673620Y-88273069D01*
X43382469Y-88564220D01*
X43224900Y-88944626D01*
X43224900Y-89110699D01*
X43050130Y-89285469D01*
X42986671Y-89327871D01*
X42818696Y-89579264D01*
X42774600Y-89800949D01*
X42774600Y-89800953D01*
X42759712Y-89875800D01*
X42774600Y-89950647D01*
X42774601Y-91893648D01*
X42759712Y-91968500D01*
X42818697Y-92265037D01*
X42940779Y-92447745D01*
X42986672Y-92516429D01*
X43050128Y-92558829D01*
X43570500Y-93079202D01*
X43570500Y-95135478D01*
X43396777Y-95073035D01*
X42826546Y-95100222D01*
X42425995Y-95266136D01*
X42351861Y-95512255D01*
X43180000Y-96340395D01*
X43194143Y-96326253D01*
X43373748Y-96505858D01*
X43359605Y-96520000D01*
X43373748Y-96534143D01*
X43194143Y-96713748D01*
X43180000Y-96699605D01*
X42351861Y-97527745D01*
X42425995Y-97773864D01*
X42432746Y-97776290D01*
X42367138Y-97803466D01*
X41963466Y-98207138D01*
X41941570Y-98260000D01*
X41664925Y-98260000D01*
X41635720Y-96303223D01*
X41733035Y-96303223D01*
X41760222Y-96873454D01*
X41926136Y-97274005D01*
X42172255Y-97348139D01*
X43000395Y-96520000D01*
X42172255Y-95691861D01*
X41926136Y-95765995D01*
X41733035Y-96303223D01*
X41635720Y-96303223D01*
X41498656Y-87120000D01*
X41732560Y-87120000D01*
X41732560Y-87160000D01*
G36*
X99660953Y-64920455D02*
X99705971Y-64987829D01*
X99769429Y-65030230D01*
X104142000Y-69402802D01*
X104142001Y-77803848D01*
X104127112Y-77878700D01*
X104186097Y-78175237D01*
X104256986Y-78281329D01*
X104354072Y-78426629D01*
X104417528Y-78469029D01*
X105969546Y-80021047D01*
X105867138Y-80063466D01*
X105463466Y-80467138D01*
X105436475Y-80532299D01*
X105433864Y-80525995D01*
X105187745Y-80451861D01*
X104359605Y-81280000D01*
X105187745Y-82108139D01*
X105433864Y-82034005D01*
X105436290Y-82027254D01*
X105463466Y-82092862D01*
X105867138Y-82496534D01*
X106394561Y-82715000D01*
X106965439Y-82715000D01*
X107018302Y-82693103D01*
X108142218Y-83817020D01*
X107785423Y-84055423D01*
X107468260Y-84530091D01*
X107356887Y-85090000D01*
X107468260Y-85649909D01*
X107785423Y-86124577D01*
X108137758Y-86360000D01*
X107785423Y-86595423D01*
X107468260Y-87070091D01*
X107356887Y-87630000D01*
X107468260Y-88189909D01*
X107785423Y-88664577D01*
X108137758Y-88900000D01*
X107785423Y-89135423D01*
X107468260Y-89610091D01*
X107356887Y-90170000D01*
X107468260Y-90729909D01*
X107785423Y-91204577D01*
X108137758Y-91440000D01*
X107785423Y-91675423D01*
X107468260Y-92150091D01*
X107356887Y-92710000D01*
X107468260Y-93269909D01*
X107785423Y-93744577D01*
X108137758Y-93980000D01*
X107785423Y-94215423D01*
X107468260Y-94690091D01*
X107356887Y-95250000D01*
X107468260Y-95809909D01*
X107785423Y-96284577D01*
X108137758Y-96520000D01*
X107785423Y-96755423D01*
X107568049Y-97080747D01*
X101561931Y-91074630D01*
X101519529Y-91011171D01*
X101412377Y-90939574D01*
X100074000Y-89601199D01*
X100074000Y-82287745D01*
X103351861Y-82287745D01*
X103425995Y-82533864D01*
X103963223Y-82726965D01*
X104533454Y-82699778D01*
X104934005Y-82533864D01*
X105008139Y-82287745D01*
X104180000Y-81459605D01*
X103351861Y-82287745D01*
X100074000Y-82287745D01*
X100074000Y-81063223D01*
X102733035Y-81063223D01*
X102760222Y-81633454D01*
X102926136Y-82034005D01*
X103172255Y-82108139D01*
X104000395Y-81280000D01*
X103172255Y-80451861D01*
X102926136Y-80525995D01*
X102733035Y-81063223D01*
X100074000Y-81063223D01*
X100074000Y-80272255D01*
X103351861Y-80272255D01*
X104180000Y-81100395D01*
X105008139Y-80272255D01*
X104934005Y-80026136D01*
X104396777Y-79833035D01*
X103826546Y-79860222D01*
X103425995Y-80026136D01*
X103351861Y-80272255D01*
X100074000Y-80272255D01*
X100074000Y-75396448D01*
X100088888Y-75321600D01*
X100074000Y-75246752D01*
X100074000Y-75246748D01*
X100029904Y-75025063D01*
X99861929Y-74773671D01*
X99798473Y-74731271D01*
X99212600Y-74145399D01*
X99212600Y-65252148D01*
X99227488Y-65177300D01*
X99212600Y-65102452D01*
X99212600Y-65102448D01*
X99168504Y-64880763D01*
X99000529Y-64629371D01*
X98937073Y-64586971D01*
X96095631Y-61745530D01*
X96053229Y-61682071D01*
X95801837Y-61514096D01*
X95600786Y-61474104D01*
X95414577Y-61195423D01*
X95062242Y-60960000D01*
X95414577Y-60724577D01*
X95434804Y-60694305D01*
X99660953Y-64920455D01*
X99660953Y-64920455D01*
G37*
X99660953Y-64920455D02*
X99705971Y-64987829D01*
X99769429Y-65030230D01*
X104142000Y-69402802D01*
X104142001Y-77803848D01*
X104127112Y-77878700D01*
X104186097Y-78175237D01*
X104256986Y-78281329D01*
X104354072Y-78426629D01*
X104417528Y-78469029D01*
X105969546Y-80021047D01*
X105867138Y-80063466D01*
X105463466Y-80467138D01*
X105436475Y-80532299D01*
X105433864Y-80525995D01*
X105187745Y-80451861D01*
X104359605Y-81280000D01*
X105187745Y-82108139D01*
X105433864Y-82034005D01*
X105436290Y-82027254D01*
X105463466Y-82092862D01*
X105867138Y-82496534D01*
X106394561Y-82715000D01*
X106965439Y-82715000D01*
X107018302Y-82693103D01*
X108142218Y-83817020D01*
X107785423Y-84055423D01*
X107468260Y-84530091D01*
X107356887Y-85090000D01*
X107468260Y-85649909D01*
X107785423Y-86124577D01*
X108137758Y-86360000D01*
X107785423Y-86595423D01*
X107468260Y-87070091D01*
X107356887Y-87630000D01*
X107468260Y-88189909D01*
X107785423Y-88664577D01*
X108137758Y-88900000D01*
X107785423Y-89135423D01*
X107468260Y-89610091D01*
X107356887Y-90170000D01*
X107468260Y-90729909D01*
X107785423Y-91204577D01*
X108137758Y-91440000D01*
X107785423Y-91675423D01*
X107468260Y-92150091D01*
X107356887Y-92710000D01*
X107468260Y-93269909D01*
X107785423Y-93744577D01*
X108137758Y-93980000D01*
X107785423Y-94215423D01*
X107468260Y-94690091D01*
X107356887Y-95250000D01*
X107468260Y-95809909D01*
X107785423Y-96284577D01*
X108137758Y-96520000D01*
X107785423Y-96755423D01*
X107568049Y-97080747D01*
X101561931Y-91074630D01*
X101519529Y-91011171D01*
X101412377Y-90939574D01*
X100074000Y-89601199D01*
X100074000Y-82287745D01*
X103351861Y-82287745D01*
X103425995Y-82533864D01*
X103963223Y-82726965D01*
X104533454Y-82699778D01*
X104934005Y-82533864D01*
X105008139Y-82287745D01*
X104180000Y-81459605D01*
X103351861Y-82287745D01*
X100074000Y-82287745D01*
X100074000Y-81063223D01*
X102733035Y-81063223D01*
X102760222Y-81633454D01*
X102926136Y-82034005D01*
X103172255Y-82108139D01*
X104000395Y-81280000D01*
X103172255Y-80451861D01*
X102926136Y-80525995D01*
X102733035Y-81063223D01*
X100074000Y-81063223D01*
X100074000Y-80272255D01*
X103351861Y-80272255D01*
X104180000Y-81100395D01*
X105008139Y-80272255D01*
X104934005Y-80026136D01*
X104396777Y-79833035D01*
X103826546Y-79860222D01*
X103425995Y-80026136D01*
X103351861Y-80272255D01*
X100074000Y-80272255D01*
X100074000Y-75396448D01*
X100088888Y-75321600D01*
X100074000Y-75246752D01*
X100074000Y-75246748D01*
X100029904Y-75025063D01*
X99861929Y-74773671D01*
X99798473Y-74731271D01*
X99212600Y-74145399D01*
X99212600Y-65252148D01*
X99227488Y-65177300D01*
X99212600Y-65102452D01*
X99212600Y-65102448D01*
X99168504Y-64880763D01*
X99000529Y-64629371D01*
X98937073Y-64586971D01*
X96095631Y-61745530D01*
X96053229Y-61682071D01*
X95801837Y-61514096D01*
X95600786Y-61474104D01*
X95414577Y-61195423D01*
X95062242Y-60960000D01*
X95414577Y-60724577D01*
X95434804Y-60694305D01*
X99660953Y-64920455D01*
G36*
X116967000Y-91313000D02*
X116987000Y-91313000D01*
X116987000Y-91567000D01*
X116967000Y-91567000D01*
X116967000Y-92875000D01*
X117367000Y-92875000D01*
X117605301Y-92805281D01*
X117605301Y-93815000D01*
X117125750Y-93815000D01*
X116967000Y-93973750D01*
X116967000Y-95123000D01*
X116987000Y-95123000D01*
X116987000Y-95377000D01*
X116967000Y-95377000D01*
X116967000Y-95397000D01*
X116713000Y-95397000D01*
X116713000Y-95377000D01*
X116693000Y-95377000D01*
X116693000Y-95123000D01*
X116713000Y-95123000D01*
X116713000Y-93973750D01*
X116554250Y-93815000D01*
X116074700Y-93815000D01*
X116074700Y-92805282D01*
X116313000Y-92875000D01*
X116713000Y-92875000D01*
X116713000Y-91567000D01*
X116693000Y-91567000D01*
X116693000Y-91313000D01*
X116713000Y-91313000D01*
X116713000Y-91293000D01*
X116967000Y-91293000D01*
X116967000Y-91313000D01*
X116967000Y-91313000D01*
G37*
X116967000Y-91313000D02*
X116987000Y-91313000D01*
X116987000Y-91567000D01*
X116967000Y-91567000D01*
X116967000Y-92875000D01*
X117367000Y-92875000D01*
X117605301Y-92805281D01*
X117605301Y-93815000D01*
X117125750Y-93815000D01*
X116967000Y-93973750D01*
X116967000Y-95123000D01*
X116987000Y-95123000D01*
X116987000Y-95377000D01*
X116967000Y-95377000D01*
X116967000Y-95397000D01*
X116713000Y-95397000D01*
X116713000Y-95377000D01*
X116693000Y-95377000D01*
X116693000Y-95123000D01*
X116713000Y-95123000D01*
X116713000Y-93973750D01*
X116554250Y-93815000D01*
X116074700Y-93815000D01*
X116074700Y-92805282D01*
X116313000Y-92875000D01*
X116713000Y-92875000D01*
X116713000Y-91567000D01*
X116693000Y-91567000D01*
X116693000Y-91313000D01*
X116713000Y-91313000D01*
X116713000Y-91293000D01*
X116967000Y-91293000D01*
X116967000Y-91313000D01*
G36*
X83947000Y-90043000D02*
X83967000Y-90043000D01*
X83967000Y-90297000D01*
X83947000Y-90297000D01*
X83947000Y-90317000D01*
X83693000Y-90317000D01*
X83693000Y-90297000D01*
X83673000Y-90297000D01*
X83673000Y-90043000D01*
X83693000Y-90043000D01*
X83693000Y-90023000D01*
X83947000Y-90023000D01*
X83947000Y-90043000D01*
X83947000Y-90043000D01*
G37*
X83947000Y-90043000D02*
X83967000Y-90043000D01*
X83967000Y-90297000D01*
X83947000Y-90297000D01*
X83947000Y-90317000D01*
X83693000Y-90317000D01*
X83693000Y-90297000D01*
X83673000Y-90297000D01*
X83673000Y-90043000D01*
X83693000Y-90043000D01*
X83693000Y-90023000D01*
X83947000Y-90023000D01*
X83947000Y-90043000D01*
G36*
X84208500Y-79898302D02*
X84208500Y-80064374D01*
X84366069Y-80444780D01*
X84487144Y-80565855D01*
X81810228Y-83242771D01*
X81746772Y-83285171D01*
X81704372Y-83348627D01*
X81704371Y-83348628D01*
X81578797Y-83536563D01*
X81519812Y-83833100D01*
X81534701Y-83907952D01*
X81534700Y-87555148D01*
X81519811Y-87630000D01*
X81578796Y-87926537D01*
X81738180Y-88165071D01*
X81746771Y-88177929D01*
X81998163Y-88345904D01*
X82199214Y-88385896D01*
X82385423Y-88664577D01*
X82741499Y-88902499D01*
X82315500Y-89245104D01*
X82045633Y-89738181D01*
X82028096Y-89820961D01*
X82150084Y-90042998D01*
X81985000Y-90042998D01*
X81985000Y-90053798D01*
X80594006Y-88662805D01*
X80715131Y-88541680D01*
X80872700Y-88161274D01*
X80872700Y-87749526D01*
X80715131Y-87369120D01*
X80505600Y-87159589D01*
X80505600Y-80737619D01*
X80753000Y-80810000D01*
X81153000Y-80810000D01*
X81153000Y-79502000D01*
X81407000Y-79502000D01*
X81407000Y-80810000D01*
X81807000Y-80810000D01*
X82346483Y-80652166D01*
X82784500Y-80299896D01*
X83054367Y-79806819D01*
X83071904Y-79724039D01*
X82949915Y-79502000D01*
X81407000Y-79502000D01*
X81153000Y-79502000D01*
X81133000Y-79502000D01*
X81133000Y-79248000D01*
X81153000Y-79248000D01*
X81153000Y-79228000D01*
X81407000Y-79228000D01*
X81407000Y-79248000D01*
X82949915Y-79248000D01*
X83071904Y-79025961D01*
X83054367Y-78943181D01*
X82813755Y-78503556D01*
X84208500Y-79898302D01*
X84208500Y-79898302D01*
G37*
X84208500Y-79898302D02*
X84208500Y-80064374D01*
X84366069Y-80444780D01*
X84487144Y-80565855D01*
X81810228Y-83242771D01*
X81746772Y-83285171D01*
X81704372Y-83348627D01*
X81704371Y-83348628D01*
X81578797Y-83536563D01*
X81519812Y-83833100D01*
X81534701Y-83907952D01*
X81534700Y-87555148D01*
X81519811Y-87630000D01*
X81578796Y-87926537D01*
X81738180Y-88165071D01*
X81746771Y-88177929D01*
X81998163Y-88345904D01*
X82199214Y-88385896D01*
X82385423Y-88664577D01*
X82741499Y-88902499D01*
X82315500Y-89245104D01*
X82045633Y-89738181D01*
X82028096Y-89820961D01*
X82150084Y-90042998D01*
X81985000Y-90042998D01*
X81985000Y-90053798D01*
X80594006Y-88662805D01*
X80715131Y-88541680D01*
X80872700Y-88161274D01*
X80872700Y-87749526D01*
X80715131Y-87369120D01*
X80505600Y-87159589D01*
X80505600Y-80737619D01*
X80753000Y-80810000D01*
X81153000Y-80810000D01*
X81153000Y-79502000D01*
X81407000Y-79502000D01*
X81407000Y-80810000D01*
X81807000Y-80810000D01*
X82346483Y-80652166D01*
X82784500Y-80299896D01*
X83054367Y-79806819D01*
X83071904Y-79724039D01*
X82949915Y-79502000D01*
X81407000Y-79502000D01*
X81153000Y-79502000D01*
X81133000Y-79502000D01*
X81133000Y-79248000D01*
X81153000Y-79248000D01*
X81153000Y-79228000D01*
X81407000Y-79228000D01*
X81407000Y-79248000D01*
X82949915Y-79248000D01*
X83071904Y-79025961D01*
X83054367Y-78943181D01*
X82813755Y-78503556D01*
X84208500Y-79898302D01*
G36*
X78985601Y-87054400D02*
X78155200Y-86223999D01*
X78155200Y-85798148D01*
X78170088Y-85723300D01*
X78155200Y-85648452D01*
X78155200Y-85648448D01*
X78111104Y-85426763D01*
X77943129Y-85175371D01*
X77879673Y-85132971D01*
X75398730Y-82652029D01*
X75684005Y-82533864D01*
X75758139Y-82287745D01*
X74930000Y-81459605D01*
X74915858Y-81473748D01*
X74736253Y-81294143D01*
X74750395Y-81280000D01*
X74736252Y-81265858D01*
X74915858Y-81086252D01*
X74930000Y-81100395D01*
X74944143Y-81086253D01*
X75123748Y-81265858D01*
X75109605Y-81280000D01*
X75937745Y-82108139D01*
X76183864Y-82034005D01*
X76186290Y-82027254D01*
X76213466Y-82092862D01*
X76617138Y-82496534D01*
X77144561Y-82715000D01*
X77715439Y-82715000D01*
X78242862Y-82496534D01*
X78646534Y-82092862D01*
X78865000Y-81565439D01*
X78865000Y-80994561D01*
X78646534Y-80467138D01*
X78242862Y-80063466D01*
X77715439Y-79845000D01*
X77285800Y-79845000D01*
X77285800Y-79769701D01*
X78985600Y-78069901D01*
X78985601Y-87054400D01*
X78985601Y-87054400D01*
G37*
X78985601Y-87054400D02*
X78155200Y-86223999D01*
X78155200Y-85798148D01*
X78170088Y-85723300D01*
X78155200Y-85648452D01*
X78155200Y-85648448D01*
X78111104Y-85426763D01*
X77943129Y-85175371D01*
X77879673Y-85132971D01*
X75398730Y-82652029D01*
X75684005Y-82533864D01*
X75758139Y-82287745D01*
X74930000Y-81459605D01*
X74915858Y-81473748D01*
X74736253Y-81294143D01*
X74750395Y-81280000D01*
X74736252Y-81265858D01*
X74915858Y-81086252D01*
X74930000Y-81100395D01*
X74944143Y-81086253D01*
X75123748Y-81265858D01*
X75109605Y-81280000D01*
X75937745Y-82108139D01*
X76183864Y-82034005D01*
X76186290Y-82027254D01*
X76213466Y-82092862D01*
X76617138Y-82496534D01*
X77144561Y-82715000D01*
X77715439Y-82715000D01*
X78242862Y-82496534D01*
X78646534Y-82092862D01*
X78865000Y-81565439D01*
X78865000Y-80994561D01*
X78646534Y-80467138D01*
X78242862Y-80063466D01*
X77715439Y-79845000D01*
X77285800Y-79845000D01*
X77285800Y-79769701D01*
X78985600Y-78069901D01*
X78985601Y-87054400D01*
G36*
X62940091Y-81761740D02*
X63500000Y-81873113D01*
X64059908Y-81761740D01*
X64325126Y-81584527D01*
X65203493Y-82462895D01*
X65015439Y-82385000D01*
X64444561Y-82385000D01*
X63917138Y-82603466D01*
X63513466Y-83007138D01*
X63486475Y-83072299D01*
X63483864Y-83065995D01*
X63237745Y-82991861D01*
X62409605Y-83820000D01*
X63237745Y-84648139D01*
X63483864Y-84574005D01*
X63486290Y-84567254D01*
X63513466Y-84632862D01*
X63917138Y-85036534D01*
X63970000Y-85058430D01*
X63970001Y-87052522D01*
X63664577Y-86595423D01*
X63189909Y-86278260D01*
X62771333Y-86195000D01*
X61688667Y-86195000D01*
X61464600Y-86239570D01*
X61464600Y-85036034D01*
X61475995Y-85073864D01*
X62013223Y-85266965D01*
X62583454Y-85239778D01*
X62984005Y-85073864D01*
X63058139Y-84827745D01*
X62230000Y-83999605D01*
X62215858Y-84013748D01*
X62036252Y-83834142D01*
X62050395Y-83820000D01*
X62036252Y-83805858D01*
X62215858Y-83626252D01*
X62230000Y-83640395D01*
X63058139Y-82812255D01*
X62984005Y-82566136D01*
X62446777Y-82373035D01*
X61876546Y-82400222D01*
X61493869Y-82558732D01*
X62550907Y-81501695D01*
X62940091Y-81761740D01*
X62940091Y-81761740D01*
G37*
X62940091Y-81761740D02*
X63500000Y-81873113D01*
X64059908Y-81761740D01*
X64325126Y-81584527D01*
X65203493Y-82462895D01*
X65015439Y-82385000D01*
X64444561Y-82385000D01*
X63917138Y-82603466D01*
X63513466Y-83007138D01*
X63486475Y-83072299D01*
X63483864Y-83065995D01*
X63237745Y-82991861D01*
X62409605Y-83820000D01*
X63237745Y-84648139D01*
X63483864Y-84574005D01*
X63486290Y-84567254D01*
X63513466Y-84632862D01*
X63917138Y-85036534D01*
X63970000Y-85058430D01*
X63970001Y-87052522D01*
X63664577Y-86595423D01*
X63189909Y-86278260D01*
X62771333Y-86195000D01*
X61688667Y-86195000D01*
X61464600Y-86239570D01*
X61464600Y-85036034D01*
X61475995Y-85073864D01*
X62013223Y-85266965D01*
X62583454Y-85239778D01*
X62984005Y-85073864D01*
X63058139Y-84827745D01*
X62230000Y-83999605D01*
X62215858Y-84013748D01*
X62036252Y-83834142D01*
X62050395Y-83820000D01*
X62036252Y-83805858D01*
X62215858Y-83626252D01*
X62230000Y-83640395D01*
X63058139Y-82812255D01*
X62984005Y-82566136D01*
X62446777Y-82373035D01*
X61876546Y-82400222D01*
X61493869Y-82558732D01*
X62550907Y-81501695D01*
X62940091Y-81761740D01*
G36*
X71885416Y-84571818D02*
X71669220Y-84661369D01*
X71378069Y-84952520D01*
X71220500Y-85332926D01*
X71220500Y-85744674D01*
X71272642Y-85870556D01*
X70228146Y-86915052D01*
X70014577Y-86595423D01*
X69908082Y-86524265D01*
X70139698Y-86428327D01*
X70318327Y-86249699D01*
X70415000Y-86016310D01*
X70415000Y-85375750D01*
X70256250Y-85217000D01*
X68707000Y-85217000D01*
X68707000Y-85237000D01*
X68453000Y-85237000D01*
X68453000Y-85217000D01*
X68433000Y-85217000D01*
X68433000Y-84963000D01*
X68453000Y-84963000D01*
X68453000Y-83813750D01*
X68707000Y-83813750D01*
X68707000Y-84963000D01*
X70256250Y-84963000D01*
X70415000Y-84804250D01*
X70415000Y-84163690D01*
X70318327Y-83930301D01*
X70139698Y-83751673D01*
X69906309Y-83655000D01*
X68865750Y-83655000D01*
X68707000Y-83813750D01*
X68453000Y-83813750D01*
X68294250Y-83655000D01*
X67814700Y-83655000D01*
X67814700Y-83314146D01*
X67829588Y-83239299D01*
X67814700Y-83164452D01*
X67814700Y-83164448D01*
X67770604Y-82942763D01*
X67602629Y-82691371D01*
X67539173Y-82648971D01*
X67185502Y-82295300D01*
X69608899Y-82295300D01*
X71885416Y-84571818D01*
X71885416Y-84571818D01*
G37*
X71885416Y-84571818D02*
X71669220Y-84661369D01*
X71378069Y-84952520D01*
X71220500Y-85332926D01*
X71220500Y-85744674D01*
X71272642Y-85870556D01*
X70228146Y-86915052D01*
X70014577Y-86595423D01*
X69908082Y-86524265D01*
X70139698Y-86428327D01*
X70318327Y-86249699D01*
X70415000Y-86016310D01*
X70415000Y-85375750D01*
X70256250Y-85217000D01*
X68707000Y-85217000D01*
X68707000Y-85237000D01*
X68453000Y-85237000D01*
X68453000Y-85217000D01*
X68433000Y-85217000D01*
X68433000Y-84963000D01*
X68453000Y-84963000D01*
X68453000Y-83813750D01*
X68707000Y-83813750D01*
X68707000Y-84963000D01*
X70256250Y-84963000D01*
X70415000Y-84804250D01*
X70415000Y-84163690D01*
X70318327Y-83930301D01*
X70139698Y-83751673D01*
X69906309Y-83655000D01*
X68865750Y-83655000D01*
X68707000Y-83813750D01*
X68453000Y-83813750D01*
X68294250Y-83655000D01*
X67814700Y-83655000D01*
X67814700Y-83314146D01*
X67829588Y-83239299D01*
X67814700Y-83164452D01*
X67814700Y-83164448D01*
X67770604Y-82942763D01*
X67602629Y-82691371D01*
X67539173Y-82648971D01*
X67185502Y-82295300D01*
X69608899Y-82295300D01*
X71885416Y-84571818D01*
G36*
X44225300Y-84496102D02*
X44225300Y-84961353D01*
X43980000Y-84912560D01*
X42380000Y-84912560D01*
X42132235Y-84961843D01*
X41922191Y-85102191D01*
X41781843Y-85312235D01*
X41732560Y-85560000D01*
X41732560Y-85600000D01*
X41475970Y-85600000D01*
X41417587Y-81688389D01*
X44225300Y-84496102D01*
X44225300Y-84496102D01*
G37*
X44225300Y-84496102D02*
X44225300Y-84961353D01*
X43980000Y-84912560D01*
X42380000Y-84912560D01*
X42132235Y-84961843D01*
X41922191Y-85102191D01*
X41781843Y-85312235D01*
X41732560Y-85560000D01*
X41732560Y-85600000D01*
X41475970Y-85600000D01*
X41417587Y-81688389D01*
X44225300Y-84496102D01*
G36*
X52070000Y-83640395D02*
X52084143Y-83626253D01*
X52263748Y-83805858D01*
X52249605Y-83820000D01*
X52263748Y-83834143D01*
X52084143Y-84013748D01*
X52070000Y-83999605D01*
X52055858Y-84013748D01*
X51876253Y-83834143D01*
X51890395Y-83820000D01*
X51876253Y-83805858D01*
X52055858Y-83626252D01*
X52070000Y-83640395D01*
X52070000Y-83640395D01*
G37*
X52070000Y-83640395D02*
X52084143Y-83626253D01*
X52263748Y-83805858D01*
X52249605Y-83820000D01*
X52263748Y-83834143D01*
X52084143Y-84013748D01*
X52070000Y-83999605D01*
X52055858Y-84013748D01*
X51876253Y-83834143D01*
X51890395Y-83820000D01*
X51876253Y-83805858D01*
X52055858Y-83626252D01*
X52070000Y-83640395D01*
G36*
X94107000Y-77343000D02*
X94127000Y-77343000D01*
X94127000Y-77597000D01*
X94107000Y-77597000D01*
X94107000Y-77617000D01*
X93853000Y-77617000D01*
X93853000Y-77597000D01*
X93833000Y-77597000D01*
X93833000Y-77343000D01*
X93853000Y-77343000D01*
X93853000Y-77323000D01*
X94107000Y-77323000D01*
X94107000Y-77343000D01*
X94107000Y-77343000D01*
G37*
X94107000Y-77343000D02*
X94127000Y-77343000D01*
X94127000Y-77597000D01*
X94107000Y-77597000D01*
X94107000Y-77617000D01*
X93853000Y-77617000D01*
X93853000Y-77597000D01*
X93833000Y-77597000D01*
X93833000Y-77343000D01*
X93853000Y-77343000D01*
X93853000Y-77323000D01*
X94107000Y-77323000D01*
X94107000Y-77343000D01*
G36*
X70955000Y-61984561D02*
X70955000Y-62555439D01*
X71173466Y-63082862D01*
X71577138Y-63486534D01*
X71642299Y-63513525D01*
X71635995Y-63516136D01*
X71561861Y-63762255D01*
X72390000Y-64590395D01*
X72404142Y-64576252D01*
X72583748Y-64755858D01*
X72569605Y-64770000D01*
X72583748Y-64784142D01*
X72404142Y-64963748D01*
X72390000Y-64949605D01*
X72375858Y-64963748D01*
X72196252Y-64784142D01*
X72210395Y-64770000D01*
X71382255Y-63941861D01*
X71136136Y-64015995D01*
X70943035Y-64553223D01*
X70970222Y-65123454D01*
X71096650Y-65428677D01*
X71069397Y-65446887D01*
X70912426Y-65551771D01*
X70912424Y-65551773D01*
X70848971Y-65594171D01*
X70806573Y-65657624D01*
X70169198Y-66295000D01*
X70003126Y-66295000D01*
X69886376Y-66343359D01*
X69857166Y-66243517D01*
X69504896Y-65805500D01*
X69011819Y-65535633D01*
X68929039Y-65518096D01*
X68707000Y-65640085D01*
X68707000Y-67183000D01*
X68727000Y-67183000D01*
X68727000Y-67437000D01*
X68707000Y-67437000D01*
X68707000Y-68979915D01*
X68929039Y-69101904D01*
X69011819Y-69084367D01*
X69504896Y-68814500D01*
X69857166Y-68376483D01*
X69875939Y-68312317D01*
X70003126Y-68365000D01*
X70414874Y-68365000D01*
X70795280Y-68207431D01*
X71086431Y-67916280D01*
X71244000Y-67535874D01*
X71244000Y-67369802D01*
X71711703Y-66902100D01*
X72878089Y-66902100D01*
X72995520Y-67019531D01*
X73375926Y-67177100D01*
X73589100Y-67177100D01*
X73589101Y-73060398D01*
X73538429Y-73111069D01*
X73474971Y-73153471D01*
X73306996Y-73404864D01*
X73288132Y-73499697D01*
X73241777Y-73483035D01*
X72671546Y-73510222D01*
X72270995Y-73676136D01*
X72196861Y-73922255D01*
X73025000Y-74750395D01*
X73039142Y-74736252D01*
X73218748Y-74915858D01*
X73204605Y-74930000D01*
X73218748Y-74944143D01*
X73039142Y-75123748D01*
X73025000Y-75109605D01*
X72196861Y-75937745D01*
X72270995Y-76183864D01*
X72277746Y-76186290D01*
X72212138Y-76213466D01*
X71808466Y-76617138D01*
X71590000Y-77144561D01*
X71590000Y-77161799D01*
X69340000Y-74911799D01*
X69340000Y-74713223D01*
X71578035Y-74713223D01*
X71605222Y-75283454D01*
X71771136Y-75684005D01*
X72017255Y-75758139D01*
X72845395Y-74930000D01*
X72017255Y-74101861D01*
X71771136Y-74175995D01*
X71578035Y-74713223D01*
X69340000Y-74713223D01*
X69340000Y-74237440D01*
X69380000Y-74237440D01*
X69627765Y-74188157D01*
X69837809Y-74047809D01*
X69978157Y-73837765D01*
X70027440Y-73590000D01*
X70027440Y-71190000D01*
X69978157Y-70942235D01*
X69837809Y-70732191D01*
X69627765Y-70591843D01*
X69380000Y-70542560D01*
X67780000Y-70542560D01*
X67532235Y-70591843D01*
X67322191Y-70732191D01*
X67181843Y-70942235D01*
X67155215Y-71076106D01*
X67074577Y-70955423D01*
X66599909Y-70638260D01*
X66040000Y-70526887D01*
X65480092Y-70638260D01*
X65005424Y-70955423D01*
X64770000Y-71307759D01*
X64534577Y-70955423D01*
X64181798Y-70719704D01*
X65306202Y-69595300D01*
X65965148Y-69595300D01*
X66040000Y-69610189D01*
X66336537Y-69551204D01*
X66587929Y-69383229D01*
X66755904Y-69131837D01*
X66795896Y-68930785D01*
X67074576Y-68744577D01*
X67312499Y-68388501D01*
X67655104Y-68814500D01*
X68148181Y-69084367D01*
X68230961Y-69101904D01*
X68453000Y-68979915D01*
X68453000Y-67437000D01*
X68433000Y-67437000D01*
X68433000Y-67183000D01*
X68453000Y-67183000D01*
X68453000Y-65640085D01*
X68230961Y-65518096D01*
X68148181Y-65535633D01*
X67655104Y-65805500D01*
X67312499Y-66231499D01*
X67074577Y-65875423D01*
X66599909Y-65558260D01*
X66040000Y-65446887D01*
X65480092Y-65558260D01*
X65005424Y-65875423D01*
X64770000Y-66227759D01*
X64534577Y-65875423D01*
X64255896Y-65689214D01*
X64215904Y-65488163D01*
X64047929Y-65236771D01*
X63796537Y-65068796D01*
X63574852Y-65024700D01*
X63500000Y-65009811D01*
X63425148Y-65024700D01*
X58028348Y-65024700D01*
X57953500Y-65009812D01*
X57878652Y-65024700D01*
X57878648Y-65024700D01*
X57656963Y-65068796D01*
X57405571Y-65236771D01*
X57363171Y-65300227D01*
X56838685Y-65824714D01*
X56439909Y-65558260D01*
X55880000Y-65446887D01*
X55320092Y-65558260D01*
X54845424Y-65875423D01*
X54610000Y-66227759D01*
X54374577Y-65875423D01*
X54344305Y-65855196D01*
X58212002Y-61987500D01*
X70543353Y-61987500D01*
X70618200Y-62002388D01*
X70693047Y-61987500D01*
X70693052Y-61987500D01*
X70914737Y-61943404D01*
X70993980Y-61890456D01*
X70955000Y-61984561D01*
X70955000Y-61984561D01*
G37*
X70955000Y-61984561D02*
X70955000Y-62555439D01*
X71173466Y-63082862D01*
X71577138Y-63486534D01*
X71642299Y-63513525D01*
X71635995Y-63516136D01*
X71561861Y-63762255D01*
X72390000Y-64590395D01*
X72404142Y-64576252D01*
X72583748Y-64755858D01*
X72569605Y-64770000D01*
X72583748Y-64784142D01*
X72404142Y-64963748D01*
X72390000Y-64949605D01*
X72375858Y-64963748D01*
X72196252Y-64784142D01*
X72210395Y-64770000D01*
X71382255Y-63941861D01*
X71136136Y-64015995D01*
X70943035Y-64553223D01*
X70970222Y-65123454D01*
X71096650Y-65428677D01*
X71069397Y-65446887D01*
X70912426Y-65551771D01*
X70912424Y-65551773D01*
X70848971Y-65594171D01*
X70806573Y-65657624D01*
X70169198Y-66295000D01*
X70003126Y-66295000D01*
X69886376Y-66343359D01*
X69857166Y-66243517D01*
X69504896Y-65805500D01*
X69011819Y-65535633D01*
X68929039Y-65518096D01*
X68707000Y-65640085D01*
X68707000Y-67183000D01*
X68727000Y-67183000D01*
X68727000Y-67437000D01*
X68707000Y-67437000D01*
X68707000Y-68979915D01*
X68929039Y-69101904D01*
X69011819Y-69084367D01*
X69504896Y-68814500D01*
X69857166Y-68376483D01*
X69875939Y-68312317D01*
X70003126Y-68365000D01*
X70414874Y-68365000D01*
X70795280Y-68207431D01*
X71086431Y-67916280D01*
X71244000Y-67535874D01*
X71244000Y-67369802D01*
X71711703Y-66902100D01*
X72878089Y-66902100D01*
X72995520Y-67019531D01*
X73375926Y-67177100D01*
X73589100Y-67177100D01*
X73589101Y-73060398D01*
X73538429Y-73111069D01*
X73474971Y-73153471D01*
X73306996Y-73404864D01*
X73288132Y-73499697D01*
X73241777Y-73483035D01*
X72671546Y-73510222D01*
X72270995Y-73676136D01*
X72196861Y-73922255D01*
X73025000Y-74750395D01*
X73039142Y-74736252D01*
X73218748Y-74915858D01*
X73204605Y-74930000D01*
X73218748Y-74944143D01*
X73039142Y-75123748D01*
X73025000Y-75109605D01*
X72196861Y-75937745D01*
X72270995Y-76183864D01*
X72277746Y-76186290D01*
X72212138Y-76213466D01*
X71808466Y-76617138D01*
X71590000Y-77144561D01*
X71590000Y-77161799D01*
X69340000Y-74911799D01*
X69340000Y-74713223D01*
X71578035Y-74713223D01*
X71605222Y-75283454D01*
X71771136Y-75684005D01*
X72017255Y-75758139D01*
X72845395Y-74930000D01*
X72017255Y-74101861D01*
X71771136Y-74175995D01*
X71578035Y-74713223D01*
X69340000Y-74713223D01*
X69340000Y-74237440D01*
X69380000Y-74237440D01*
X69627765Y-74188157D01*
X69837809Y-74047809D01*
X69978157Y-73837765D01*
X70027440Y-73590000D01*
X70027440Y-71190000D01*
X69978157Y-70942235D01*
X69837809Y-70732191D01*
X69627765Y-70591843D01*
X69380000Y-70542560D01*
X67780000Y-70542560D01*
X67532235Y-70591843D01*
X67322191Y-70732191D01*
X67181843Y-70942235D01*
X67155215Y-71076106D01*
X67074577Y-70955423D01*
X66599909Y-70638260D01*
X66040000Y-70526887D01*
X65480092Y-70638260D01*
X65005424Y-70955423D01*
X64770000Y-71307759D01*
X64534577Y-70955423D01*
X64181798Y-70719704D01*
X65306202Y-69595300D01*
X65965148Y-69595300D01*
X66040000Y-69610189D01*
X66336537Y-69551204D01*
X66587929Y-69383229D01*
X66755904Y-69131837D01*
X66795896Y-68930785D01*
X67074576Y-68744577D01*
X67312499Y-68388501D01*
X67655104Y-68814500D01*
X68148181Y-69084367D01*
X68230961Y-69101904D01*
X68453000Y-68979915D01*
X68453000Y-67437000D01*
X68433000Y-67437000D01*
X68433000Y-67183000D01*
X68453000Y-67183000D01*
X68453000Y-65640085D01*
X68230961Y-65518096D01*
X68148181Y-65535633D01*
X67655104Y-65805500D01*
X67312499Y-66231499D01*
X67074577Y-65875423D01*
X66599909Y-65558260D01*
X66040000Y-65446887D01*
X65480092Y-65558260D01*
X65005424Y-65875423D01*
X64770000Y-66227759D01*
X64534577Y-65875423D01*
X64255896Y-65689214D01*
X64215904Y-65488163D01*
X64047929Y-65236771D01*
X63796537Y-65068796D01*
X63574852Y-65024700D01*
X63500000Y-65009811D01*
X63425148Y-65024700D01*
X58028348Y-65024700D01*
X57953500Y-65009812D01*
X57878652Y-65024700D01*
X57878648Y-65024700D01*
X57656963Y-65068796D01*
X57405571Y-65236771D01*
X57363171Y-65300227D01*
X56838685Y-65824714D01*
X56439909Y-65558260D01*
X55880000Y-65446887D01*
X55320092Y-65558260D01*
X54845424Y-65875423D01*
X54610000Y-66227759D01*
X54374577Y-65875423D01*
X54344305Y-65855196D01*
X58212002Y-61987500D01*
X70543353Y-61987500D01*
X70618200Y-62002388D01*
X70693047Y-61987500D01*
X70693052Y-61987500D01*
X70914737Y-61943404D01*
X70993980Y-61890456D01*
X70955000Y-61984561D01*
G36*
X51411300Y-69145753D02*
X51396412Y-69220600D01*
X51411300Y-69295447D01*
X51411300Y-69295451D01*
X51455396Y-69517136D01*
X51623371Y-69768529D01*
X51686830Y-69810931D01*
X52638908Y-70763010D01*
X52415104Y-70885500D01*
X52062834Y-71323517D01*
X51905000Y-71863000D01*
X51905000Y-72263000D01*
X53213000Y-72263000D01*
X53213000Y-72243000D01*
X53467000Y-72243000D01*
X53467000Y-72263000D01*
X53487000Y-72263000D01*
X53487000Y-72517000D01*
X53467000Y-72517000D01*
X53467000Y-74059915D01*
X53689039Y-74181904D01*
X53741500Y-74170790D01*
X53741500Y-74863698D01*
X51678028Y-76927171D01*
X51614572Y-76969571D01*
X51599500Y-76992128D01*
X51599500Y-72517000D01*
X51905000Y-72517000D01*
X51905000Y-72917000D01*
X52062834Y-73456483D01*
X52415104Y-73894500D01*
X52908181Y-74164367D01*
X52990961Y-74181904D01*
X53213000Y-74059915D01*
X53213000Y-72517000D01*
X51905000Y-72517000D01*
X51599500Y-72517000D01*
X51599500Y-71755847D01*
X51614388Y-71681000D01*
X51599500Y-71606153D01*
X51599500Y-71606148D01*
X51555404Y-71384463D01*
X51387429Y-71133071D01*
X51323973Y-71090671D01*
X50595300Y-70361999D01*
X50595300Y-70195926D01*
X50437731Y-69815520D01*
X50146580Y-69524369D01*
X50109719Y-69509101D01*
X50108229Y-69506871D01*
X50044773Y-69464471D01*
X49309568Y-68729266D01*
X49388667Y-68745000D01*
X49671333Y-68745000D01*
X50089909Y-68661740D01*
X50564577Y-68344577D01*
X50750786Y-68065896D01*
X50883129Y-68039571D01*
X50951837Y-68025904D01*
X51203229Y-67857929D01*
X51371204Y-67606537D01*
X51411301Y-67404958D01*
X51411300Y-69145753D01*
X51411300Y-69145753D01*
G37*
X51411300Y-69145753D02*
X51396412Y-69220600D01*
X51411300Y-69295447D01*
X51411300Y-69295451D01*
X51455396Y-69517136D01*
X51623371Y-69768529D01*
X51686830Y-69810931D01*
X52638908Y-70763010D01*
X52415104Y-70885500D01*
X52062834Y-71323517D01*
X51905000Y-71863000D01*
X51905000Y-72263000D01*
X53213000Y-72263000D01*
X53213000Y-72243000D01*
X53467000Y-72243000D01*
X53467000Y-72263000D01*
X53487000Y-72263000D01*
X53487000Y-72517000D01*
X53467000Y-72517000D01*
X53467000Y-74059915D01*
X53689039Y-74181904D01*
X53741500Y-74170790D01*
X53741500Y-74863698D01*
X51678028Y-76927171D01*
X51614572Y-76969571D01*
X51599500Y-76992128D01*
X51599500Y-72517000D01*
X51905000Y-72517000D01*
X51905000Y-72917000D01*
X52062834Y-73456483D01*
X52415104Y-73894500D01*
X52908181Y-74164367D01*
X52990961Y-74181904D01*
X53213000Y-74059915D01*
X53213000Y-72517000D01*
X51905000Y-72517000D01*
X51599500Y-72517000D01*
X51599500Y-71755847D01*
X51614388Y-71681000D01*
X51599500Y-71606153D01*
X51599500Y-71606148D01*
X51555404Y-71384463D01*
X51387429Y-71133071D01*
X51323973Y-71090671D01*
X50595300Y-70361999D01*
X50595300Y-70195926D01*
X50437731Y-69815520D01*
X50146580Y-69524369D01*
X50109719Y-69509101D01*
X50108229Y-69506871D01*
X50044773Y-69464471D01*
X49309568Y-68729266D01*
X49388667Y-68745000D01*
X49671333Y-68745000D01*
X50089909Y-68661740D01*
X50564577Y-68344577D01*
X50750786Y-68065896D01*
X50883129Y-68039571D01*
X50951837Y-68025904D01*
X51203229Y-67857929D01*
X51371204Y-67606537D01*
X51411301Y-67404958D01*
X51411300Y-69145753D01*
G36*
X114992560Y-54140000D02*
X115041843Y-54387765D01*
X115182191Y-54597809D01*
X115392235Y-54738157D01*
X115526106Y-54764785D01*
X115405423Y-54845423D01*
X115088260Y-55320091D01*
X114976887Y-55880000D01*
X115088260Y-56439909D01*
X115405423Y-56914577D01*
X115757758Y-57150000D01*
X115405423Y-57385423D01*
X115088260Y-57860091D01*
X114976887Y-58420000D01*
X115088260Y-58979909D01*
X115405423Y-59454577D01*
X115757758Y-59690000D01*
X115405423Y-59925423D01*
X115088260Y-60400091D01*
X114976887Y-60960000D01*
X115088260Y-61519909D01*
X115405423Y-61994577D01*
X115757758Y-62230000D01*
X115405423Y-62465423D01*
X115219214Y-62744104D01*
X115018163Y-62784096D01*
X114766771Y-62952071D01*
X114598796Y-63203463D01*
X114539811Y-63500000D01*
X114554701Y-63574857D01*
X114554700Y-70045797D01*
X112499063Y-72101435D01*
X112512653Y-72033110D01*
X112539200Y-71899652D01*
X112539200Y-71899648D01*
X112554088Y-71824800D01*
X112539200Y-71749952D01*
X112539200Y-69928470D01*
X112813223Y-70026965D01*
X113383454Y-69999778D01*
X113784005Y-69833864D01*
X113858139Y-69587745D01*
X113030000Y-68759605D01*
X113015858Y-68773748D01*
X112836253Y-68594143D01*
X112850395Y-68580000D01*
X113209605Y-68580000D01*
X114037745Y-69408139D01*
X114283864Y-69334005D01*
X114476965Y-68796777D01*
X114449778Y-68226546D01*
X114283864Y-67825995D01*
X114037745Y-67751861D01*
X113209605Y-68580000D01*
X112850395Y-68580000D01*
X112836253Y-68565858D01*
X113015858Y-68386252D01*
X113030000Y-68400395D01*
X113858139Y-67572255D01*
X113784005Y-67326136D01*
X113777254Y-67323710D01*
X113842862Y-67296534D01*
X114246534Y-66892862D01*
X114465000Y-66365439D01*
X114465000Y-65794561D01*
X114246534Y-65267138D01*
X113842862Y-64863466D01*
X113790000Y-64841570D01*
X113790000Y-54780101D01*
X114992560Y-53577541D01*
X114992560Y-54140000D01*
X114992560Y-54140000D01*
G37*
X114992560Y-54140000D02*
X115041843Y-54387765D01*
X115182191Y-54597809D01*
X115392235Y-54738157D01*
X115526106Y-54764785D01*
X115405423Y-54845423D01*
X115088260Y-55320091D01*
X114976887Y-55880000D01*
X115088260Y-56439909D01*
X115405423Y-56914577D01*
X115757758Y-57150000D01*
X115405423Y-57385423D01*
X115088260Y-57860091D01*
X114976887Y-58420000D01*
X115088260Y-58979909D01*
X115405423Y-59454577D01*
X115757758Y-59690000D01*
X115405423Y-59925423D01*
X115088260Y-60400091D01*
X114976887Y-60960000D01*
X115088260Y-61519909D01*
X115405423Y-61994577D01*
X115757758Y-62230000D01*
X115405423Y-62465423D01*
X115219214Y-62744104D01*
X115018163Y-62784096D01*
X114766771Y-62952071D01*
X114598796Y-63203463D01*
X114539811Y-63500000D01*
X114554701Y-63574857D01*
X114554700Y-70045797D01*
X112499063Y-72101435D01*
X112512653Y-72033110D01*
X112539200Y-71899652D01*
X112539200Y-71899648D01*
X112554088Y-71824800D01*
X112539200Y-71749952D01*
X112539200Y-69928470D01*
X112813223Y-70026965D01*
X113383454Y-69999778D01*
X113784005Y-69833864D01*
X113858139Y-69587745D01*
X113030000Y-68759605D01*
X113015858Y-68773748D01*
X112836253Y-68594143D01*
X112850395Y-68580000D01*
X113209605Y-68580000D01*
X114037745Y-69408139D01*
X114283864Y-69334005D01*
X114476965Y-68796777D01*
X114449778Y-68226546D01*
X114283864Y-67825995D01*
X114037745Y-67751861D01*
X113209605Y-68580000D01*
X112850395Y-68580000D01*
X112836253Y-68565858D01*
X113015858Y-68386252D01*
X113030000Y-68400395D01*
X113858139Y-67572255D01*
X113784005Y-67326136D01*
X113777254Y-67323710D01*
X113842862Y-67296534D01*
X114246534Y-66892862D01*
X114465000Y-66365439D01*
X114465000Y-65794561D01*
X114246534Y-65267138D01*
X113842862Y-64863466D01*
X113790000Y-64841570D01*
X113790000Y-54780101D01*
X114992560Y-53577541D01*
X114992560Y-54140000D01*
G36*
X116967000Y-68453000D02*
X116987000Y-68453000D01*
X116987000Y-68707000D01*
X116967000Y-68707000D01*
X116967000Y-68727000D01*
X116713000Y-68727000D01*
X116713000Y-68707000D01*
X116693000Y-68707000D01*
X116693000Y-68453000D01*
X116713000Y-68453000D01*
X116713000Y-68433000D01*
X116967000Y-68433000D01*
X116967000Y-68453000D01*
X116967000Y-68453000D01*
G37*
X116967000Y-68453000D02*
X116987000Y-68453000D01*
X116987000Y-68707000D01*
X116967000Y-68707000D01*
X116967000Y-68727000D01*
X116713000Y-68727000D01*
X116713000Y-68707000D01*
X116693000Y-68707000D01*
X116693000Y-68453000D01*
X116713000Y-68453000D01*
X116713000Y-68433000D01*
X116967000Y-68433000D01*
X116967000Y-68453000D01*
G36*
X45452001Y-58253604D02*
X45452001Y-65006599D01*
X44381731Y-63936330D01*
X44339329Y-63872871D01*
X44087937Y-63704896D01*
X43866252Y-63660800D01*
X43866247Y-63660800D01*
X43791400Y-63645912D01*
X43716553Y-63660800D01*
X42620746Y-63660800D01*
X42545899Y-63645912D01*
X42471052Y-63660800D01*
X42471048Y-63660800D01*
X42249363Y-63704896D01*
X41997971Y-63872871D01*
X41955571Y-63936327D01*
X41164439Y-64727459D01*
X41154503Y-64061709D01*
X41207593Y-63965878D01*
X41231134Y-63863013D01*
X41149146Y-63702835D01*
X41143263Y-63308659D01*
X41231134Y-63136987D01*
X41207593Y-63034122D01*
X41137271Y-62907187D01*
X41081520Y-59171862D01*
X41081590Y-59171757D01*
X41261837Y-59135904D01*
X41513229Y-58967929D01*
X41681204Y-58716537D01*
X41732560Y-58458353D01*
X41732560Y-59220000D01*
X41781843Y-59467765D01*
X41922191Y-59677809D01*
X42132235Y-59818157D01*
X42380000Y-59867440D01*
X43980000Y-59867440D01*
X44227765Y-59818157D01*
X44437809Y-59677809D01*
X44578157Y-59467765D01*
X44627440Y-59220000D01*
X44627440Y-57620000D01*
X44580025Y-57381627D01*
X45452001Y-58253604D01*
X45452001Y-58253604D01*
G37*
X45452001Y-58253604D02*
X45452001Y-65006599D01*
X44381731Y-63936330D01*
X44339329Y-63872871D01*
X44087937Y-63704896D01*
X43866252Y-63660800D01*
X43866247Y-63660800D01*
X43791400Y-63645912D01*
X43716553Y-63660800D01*
X42620746Y-63660800D01*
X42545899Y-63645912D01*
X42471052Y-63660800D01*
X42471048Y-63660800D01*
X42249363Y-63704896D01*
X41997971Y-63872871D01*
X41955571Y-63936327D01*
X41164439Y-64727459D01*
X41154503Y-64061709D01*
X41207593Y-63965878D01*
X41231134Y-63863013D01*
X41149146Y-63702835D01*
X41143263Y-63308659D01*
X41231134Y-63136987D01*
X41207593Y-63034122D01*
X41137271Y-62907187D01*
X41081520Y-59171862D01*
X41081590Y-59171757D01*
X41261837Y-59135904D01*
X41513229Y-58967929D01*
X41681204Y-58716537D01*
X41732560Y-58458353D01*
X41732560Y-59220000D01*
X41781843Y-59467765D01*
X41922191Y-59677809D01*
X42132235Y-59818157D01*
X42380000Y-59867440D01*
X43980000Y-59867440D01*
X44227765Y-59818157D01*
X44437809Y-59677809D01*
X44578157Y-59467765D01*
X44627440Y-59220000D01*
X44627440Y-57620000D01*
X44580025Y-57381627D01*
X45452001Y-58253604D01*
G36*
X52580001Y-56495304D02*
X52580000Y-58071957D01*
X52305424Y-58255423D01*
X51988260Y-58730091D01*
X51905000Y-59148667D01*
X51905000Y-60231332D01*
X51988260Y-60649908D01*
X52305423Y-61124576D01*
X52780091Y-61441740D01*
X53340000Y-61553113D01*
X53718001Y-61477924D01*
X53718001Y-61590896D01*
X51376627Y-63932271D01*
X51385804Y-63918537D01*
X51429900Y-63696852D01*
X51429900Y-63696848D01*
X51444788Y-63622001D01*
X51429900Y-63547154D01*
X51429900Y-55974746D01*
X51444788Y-55899899D01*
X51429900Y-55825052D01*
X51429900Y-55825048D01*
X51385804Y-55603363D01*
X51308986Y-55488397D01*
X51260229Y-55415426D01*
X51260227Y-55415424D01*
X51217829Y-55351971D01*
X51154376Y-55309573D01*
X49561372Y-53716570D01*
X49595000Y-53635385D01*
X49595000Y-53510302D01*
X52580001Y-56495304D01*
X52580001Y-56495304D01*
G37*
X52580001Y-56495304D02*
X52580000Y-58071957D01*
X52305424Y-58255423D01*
X51988260Y-58730091D01*
X51905000Y-59148667D01*
X51905000Y-60231332D01*
X51988260Y-60649908D01*
X52305423Y-61124576D01*
X52780091Y-61441740D01*
X53340000Y-61553113D01*
X53718001Y-61477924D01*
X53718001Y-61590896D01*
X51376627Y-63932271D01*
X51385804Y-63918537D01*
X51429900Y-63696852D01*
X51429900Y-63696848D01*
X51444788Y-63622001D01*
X51429900Y-63547154D01*
X51429900Y-55974746D01*
X51444788Y-55899899D01*
X51429900Y-55825052D01*
X51429900Y-55825048D01*
X51385804Y-55603363D01*
X51308986Y-55488397D01*
X51260229Y-55415426D01*
X51260227Y-55415424D01*
X51217829Y-55351971D01*
X51154376Y-55309573D01*
X49561372Y-53716570D01*
X49595000Y-53635385D01*
X49595000Y-53510302D01*
X52580001Y-56495304D01*
G36*
X128469375Y-38299375D02*
X128141161Y-38790582D01*
X128025908Y-39370000D01*
X128141161Y-39949418D01*
X128469375Y-40440625D01*
X128767761Y-40640000D01*
X128469375Y-40839375D01*
X128141161Y-41330582D01*
X128025908Y-41910000D01*
X128141161Y-42489418D01*
X128469375Y-42980625D01*
X128767761Y-43180000D01*
X128469375Y-43379375D01*
X128141161Y-43870582D01*
X128025908Y-44450000D01*
X128141161Y-45029418D01*
X128469375Y-45520625D01*
X128767761Y-45720000D01*
X128469375Y-45919375D01*
X128141161Y-46410582D01*
X128025908Y-46990000D01*
X128141161Y-47569418D01*
X128469375Y-48060625D01*
X128767761Y-48260000D01*
X128469375Y-48459375D01*
X128141161Y-48950582D01*
X128025908Y-49530000D01*
X128141161Y-50109418D01*
X128469375Y-50600625D01*
X128767761Y-50800000D01*
X128469375Y-50999375D01*
X128141161Y-51490582D01*
X128025908Y-52070000D01*
X128141161Y-52649418D01*
X128362469Y-52980629D01*
X126136144Y-55206954D01*
X125894577Y-54845423D01*
X125542242Y-54610000D01*
X125894577Y-54374577D01*
X126211740Y-53899909D01*
X126323113Y-53340000D01*
X126211740Y-52780091D01*
X125894577Y-52305423D01*
X125419909Y-51988260D01*
X125001333Y-51905000D01*
X123918667Y-51905000D01*
X123500091Y-51988260D01*
X123025423Y-52305423D01*
X123005196Y-52335694D01*
X120840331Y-50170830D01*
X120797929Y-50107371D01*
X120546537Y-49939396D01*
X120324852Y-49895300D01*
X120324847Y-49895300D01*
X120250000Y-49880412D01*
X120175153Y-49895300D01*
X118230450Y-49895300D01*
X118303113Y-49530000D01*
X118246336Y-49244561D01*
X123025000Y-49244561D01*
X123025000Y-49815439D01*
X123243466Y-50342862D01*
X123647138Y-50746534D01*
X124174561Y-50965000D01*
X124745439Y-50965000D01*
X125272862Y-50746534D01*
X125676534Y-50342862D01*
X125895000Y-49815439D01*
X125895000Y-49244561D01*
X125676534Y-48717138D01*
X125272862Y-48313466D01*
X124745439Y-48095000D01*
X124174561Y-48095000D01*
X123647138Y-48313466D01*
X123243466Y-48717138D01*
X123025000Y-49244561D01*
X118246336Y-49244561D01*
X118191740Y-48970091D01*
X117874577Y-48495423D01*
X117600000Y-48311957D01*
X117600000Y-46938043D01*
X117874577Y-46754577D01*
X118191740Y-46279909D01*
X118303113Y-45720000D01*
X118246336Y-45434561D01*
X123025000Y-45434561D01*
X123025000Y-46005439D01*
X123243466Y-46532862D01*
X123647138Y-46936534D01*
X124174561Y-47155000D01*
X124745439Y-47155000D01*
X125272862Y-46936534D01*
X125676534Y-46532862D01*
X125895000Y-46005439D01*
X125895000Y-45434561D01*
X125676534Y-44907138D01*
X125272862Y-44503466D01*
X124745439Y-44285000D01*
X124174561Y-44285000D01*
X123647138Y-44503466D01*
X123243466Y-44907138D01*
X123025000Y-45434561D01*
X118246336Y-45434561D01*
X118191740Y-45160091D01*
X117874577Y-44685423D01*
X117600000Y-44501957D01*
X117600000Y-43128043D01*
X117874577Y-42944577D01*
X118191740Y-42469909D01*
X118303113Y-41910000D01*
X118220405Y-41494200D01*
X122969399Y-41494200D01*
X123046897Y-41571698D01*
X123025000Y-41624561D01*
X123025000Y-42195439D01*
X123243466Y-42722862D01*
X123647138Y-43126534D01*
X124174561Y-43345000D01*
X124745439Y-43345000D01*
X125272862Y-43126534D01*
X125676534Y-42722862D01*
X125895000Y-42195439D01*
X125895000Y-41624561D01*
X125676534Y-41097138D01*
X125272862Y-40693466D01*
X124745439Y-40475000D01*
X124174561Y-40475000D01*
X124121698Y-40496897D01*
X123874531Y-40249730D01*
X123832129Y-40186271D01*
X123580737Y-40018296D01*
X123359052Y-39974200D01*
X123359047Y-39974200D01*
X123284200Y-39959312D01*
X123209353Y-39974200D01*
X116446648Y-39974200D01*
X116371800Y-39959312D01*
X116296952Y-39974200D01*
X116296948Y-39974200D01*
X116075263Y-40018296D01*
X115823871Y-40186271D01*
X115781471Y-40249727D01*
X110871963Y-45159236D01*
X110971740Y-45009909D01*
X111083113Y-44450000D01*
X110971740Y-43890091D01*
X110654577Y-43415423D01*
X110179909Y-43098260D01*
X109761333Y-43015000D01*
X108678667Y-43015000D01*
X108260091Y-43098260D01*
X107785423Y-43415423D01*
X107468260Y-43890091D01*
X107356887Y-44450000D01*
X107468260Y-45009909D01*
X107785423Y-45484577D01*
X108137758Y-45720000D01*
X107785423Y-45955423D01*
X107468260Y-46430091D01*
X107356887Y-46990000D01*
X107468260Y-47549909D01*
X107785423Y-48024577D01*
X108141499Y-48262499D01*
X107715500Y-48605104D01*
X107445633Y-49098181D01*
X107428096Y-49180961D01*
X107550085Y-49403000D01*
X109093000Y-49403000D01*
X109093000Y-49383000D01*
X109347000Y-49383000D01*
X109347000Y-49403000D01*
X109367000Y-49403000D01*
X109367000Y-49657000D01*
X109347000Y-49657000D01*
X109347000Y-49677000D01*
X109093000Y-49677000D01*
X109093000Y-49657000D01*
X107550085Y-49657000D01*
X107428096Y-49879039D01*
X107445633Y-49961819D01*
X107715500Y-50454896D01*
X108141499Y-50797501D01*
X107785423Y-51035423D01*
X107468260Y-51510091D01*
X107356887Y-52070000D01*
X107468260Y-52629909D01*
X107785423Y-53104577D01*
X108137758Y-53340000D01*
X107785423Y-53575423D01*
X107468260Y-54050091D01*
X107411308Y-54336406D01*
X95915031Y-42840130D01*
X95872629Y-42776671D01*
X95621237Y-42608696D01*
X95399552Y-42564600D01*
X95399547Y-42564600D01*
X95324700Y-42549712D01*
X95249853Y-42564600D01*
X91915248Y-42564600D01*
X91840400Y-42549712D01*
X91765552Y-42564600D01*
X91765548Y-42564600D01*
X91592005Y-42599120D01*
X91543862Y-42608696D01*
X91392251Y-42710000D01*
X91292471Y-42776671D01*
X91250071Y-42840127D01*
X90116902Y-43973296D01*
X90026620Y-43519420D01*
X89499489Y-42730511D01*
X88710580Y-42203380D01*
X88014897Y-42065000D01*
X87545103Y-42065000D01*
X86849420Y-42203380D01*
X86060511Y-42730511D01*
X85533380Y-43519420D01*
X85348276Y-44450000D01*
X85533380Y-45380580D01*
X86060511Y-46169489D01*
X86849420Y-46696620D01*
X87303297Y-46786902D01*
X77558599Y-56531600D01*
X76206295Y-56531600D01*
X76376965Y-56056777D01*
X76349778Y-55486546D01*
X76183864Y-55085995D01*
X75937745Y-55011861D01*
X75109605Y-55840000D01*
X75123748Y-55854142D01*
X74944142Y-56033748D01*
X74930000Y-56019605D01*
X74402799Y-56546807D01*
X74257563Y-56575696D01*
X74006171Y-56743671D01*
X73963771Y-56807127D01*
X70303399Y-60467500D01*
X70027440Y-60467500D01*
X70027440Y-58490000D01*
X69978157Y-58242235D01*
X69837809Y-58032191D01*
X69627765Y-57891843D01*
X69380000Y-57842560D01*
X67780000Y-57842560D01*
X67532235Y-57891843D01*
X67322191Y-58032191D01*
X67181843Y-58242235D01*
X67155215Y-58376106D01*
X67074577Y-58255423D01*
X66800000Y-58071957D01*
X66800000Y-55897865D01*
X67034506Y-55995000D01*
X67585494Y-55995000D01*
X68094540Y-55784147D01*
X68255464Y-55623223D01*
X73483035Y-55623223D01*
X73510222Y-56193454D01*
X73676136Y-56594005D01*
X73922255Y-56668139D01*
X74750395Y-55840000D01*
X73922255Y-55011861D01*
X73676136Y-55085995D01*
X73483035Y-55623223D01*
X68255464Y-55623223D01*
X68484147Y-55394540D01*
X68695000Y-54885494D01*
X68695000Y-54334506D01*
X68484147Y-53825460D01*
X68094540Y-53435853D01*
X68070000Y-53425688D01*
X68070000Y-50768430D01*
X68122862Y-50746534D01*
X68526534Y-50342862D01*
X68745000Y-49815439D01*
X68745000Y-49244561D01*
X68526534Y-48717138D01*
X68122862Y-48313466D01*
X67595439Y-48095000D01*
X67024561Y-48095000D01*
X66497138Y-48313466D01*
X66417503Y-48393101D01*
X65014402Y-46990000D01*
X69554928Y-46990000D01*
X69674062Y-47588927D01*
X70013327Y-48096673D01*
X70521073Y-48435938D01*
X70968818Y-48525000D01*
X71271182Y-48525000D01*
X71718927Y-48435938D01*
X72226673Y-48096673D01*
X72565938Y-47588927D01*
X72685072Y-46990000D01*
X72565938Y-46391073D01*
X72226673Y-45883327D01*
X71970826Y-45712376D01*
X72357966Y-45357576D01*
X72475301Y-45105903D01*
X74170000Y-46800602D01*
X74170001Y-51892560D01*
X74130000Y-51892560D01*
X73882235Y-51941843D01*
X73672191Y-52082191D01*
X73531843Y-52292235D01*
X73482560Y-52540000D01*
X73482560Y-54140000D01*
X73531843Y-54387765D01*
X73672191Y-54597809D01*
X73882235Y-54738157D01*
X74116187Y-54784693D01*
X74101861Y-54832255D01*
X74930000Y-55660395D01*
X75758139Y-54832255D01*
X75743813Y-54784693D01*
X75977765Y-54738157D01*
X76187809Y-54597809D01*
X76328157Y-54387765D01*
X76377440Y-54140000D01*
X76377440Y-52540000D01*
X76328157Y-52292235D01*
X76187809Y-52082191D01*
X75977765Y-51941843D01*
X75730000Y-51892560D01*
X75690000Y-51892560D01*
X75690000Y-46560648D01*
X75704888Y-46485800D01*
X75690000Y-46410952D01*
X75690000Y-46410948D01*
X75645904Y-46189263D01*
X75477929Y-45937871D01*
X75414473Y-45895471D01*
X72601578Y-43082577D01*
X72618157Y-43057765D01*
X72667440Y-42810000D01*
X72667440Y-41647745D01*
X105216861Y-41647745D01*
X105290995Y-41893864D01*
X105828223Y-42086965D01*
X106398454Y-42059778D01*
X106799005Y-41893864D01*
X106873139Y-41647745D01*
X106045000Y-40819605D01*
X105216861Y-41647745D01*
X72667440Y-41647745D01*
X72667440Y-41010000D01*
X72618157Y-40762235D01*
X72477809Y-40552191D01*
X72284797Y-40423223D01*
X104598035Y-40423223D01*
X104625222Y-40993454D01*
X104791136Y-41394005D01*
X105037255Y-41468139D01*
X105865395Y-40640000D01*
X106224605Y-40640000D01*
X107052745Y-41468139D01*
X107298864Y-41394005D01*
X107301290Y-41387254D01*
X107328466Y-41452862D01*
X107732138Y-41856534D01*
X108259561Y-42075000D01*
X108830439Y-42075000D01*
X109357862Y-41856534D01*
X109761534Y-41452862D01*
X109980000Y-40925439D01*
X109980000Y-40354561D01*
X109761534Y-39827138D01*
X109357862Y-39423466D01*
X108830439Y-39205000D01*
X108259561Y-39205000D01*
X107732138Y-39423466D01*
X107328466Y-39827138D01*
X107301475Y-39892299D01*
X107298864Y-39885995D01*
X107052745Y-39811861D01*
X106224605Y-40640000D01*
X105865395Y-40640000D01*
X105037255Y-39811861D01*
X104791136Y-39885995D01*
X104598035Y-40423223D01*
X72284797Y-40423223D01*
X72267765Y-40411843D01*
X72020000Y-40362560D01*
X70220000Y-40362560D01*
X69972235Y-40411843D01*
X69762191Y-40552191D01*
X69621843Y-40762235D01*
X69572560Y-41010000D01*
X69572560Y-42810000D01*
X69621843Y-43057765D01*
X69762191Y-43267809D01*
X69972235Y-43408157D01*
X70018498Y-43417359D01*
X69882034Y-43542424D01*
X69628954Y-44085258D01*
X69749003Y-44323000D01*
X70993000Y-44323000D01*
X70993000Y-44303000D01*
X71247000Y-44303000D01*
X71247000Y-44323000D01*
X71267000Y-44323000D01*
X71267000Y-44577000D01*
X71247000Y-44577000D01*
X71247000Y-44597000D01*
X70993000Y-44597000D01*
X70993000Y-44577000D01*
X69749003Y-44577000D01*
X69628954Y-44814742D01*
X69882034Y-45357576D01*
X70269174Y-45712376D01*
X70013327Y-45883327D01*
X69674062Y-46391073D01*
X69554928Y-46990000D01*
X65014402Y-46990000D01*
X63482147Y-45457745D01*
X66481861Y-45457745D01*
X66555995Y-45703864D01*
X67093223Y-45896965D01*
X67663454Y-45869778D01*
X68064005Y-45703864D01*
X68138139Y-45457745D01*
X67310000Y-44629605D01*
X66481861Y-45457745D01*
X63482147Y-45457745D01*
X62395000Y-44370599D01*
X62395000Y-44233223D01*
X65863035Y-44233223D01*
X65890222Y-44803454D01*
X66056136Y-45204005D01*
X66302255Y-45278139D01*
X67130395Y-44450000D01*
X67489605Y-44450000D01*
X68317745Y-45278139D01*
X68563864Y-45204005D01*
X68756965Y-44666777D01*
X68729778Y-44096546D01*
X68563864Y-43695995D01*
X68317745Y-43621861D01*
X67489605Y-44450000D01*
X67130395Y-44450000D01*
X66302255Y-43621861D01*
X66056136Y-43695995D01*
X65863035Y-44233223D01*
X62395000Y-44233223D01*
X62395000Y-44124561D01*
X62176534Y-43597138D01*
X61907497Y-43328101D01*
X62007765Y-43308157D01*
X62217809Y-43167809D01*
X62358157Y-42957765D01*
X62407440Y-42710000D01*
X62407440Y-41664561D01*
X65875000Y-41664561D01*
X65875000Y-42235439D01*
X66093466Y-42762862D01*
X66497138Y-43166534D01*
X66562299Y-43193525D01*
X66555995Y-43196136D01*
X66481861Y-43442255D01*
X67310000Y-44270395D01*
X68138139Y-43442255D01*
X68064005Y-43196136D01*
X68057254Y-43193710D01*
X68122862Y-43166534D01*
X68526534Y-42762862D01*
X68745000Y-42235439D01*
X68745000Y-41664561D01*
X68526534Y-41137138D01*
X68122862Y-40733466D01*
X67595439Y-40515000D01*
X67024561Y-40515000D01*
X66497138Y-40733466D01*
X66093466Y-41137138D01*
X65875000Y-41664561D01*
X62407440Y-41664561D01*
X62407440Y-41110000D01*
X62358157Y-40862235D01*
X62217809Y-40652191D01*
X62007765Y-40511843D01*
X61760000Y-40462560D01*
X60160000Y-40462560D01*
X59912235Y-40511843D01*
X59702191Y-40652191D01*
X59561843Y-40862235D01*
X59512560Y-41110000D01*
X59512560Y-42710000D01*
X59561843Y-42957765D01*
X59702191Y-43167809D01*
X59912235Y-43308157D01*
X60012503Y-43328101D01*
X59743466Y-43597138D01*
X59525000Y-44124561D01*
X59525000Y-44695439D01*
X59743466Y-45222862D01*
X60147138Y-45626534D01*
X60674561Y-45845000D01*
X61245439Y-45845000D01*
X61580862Y-45706063D01*
X64132285Y-48257486D01*
X63997138Y-48313466D01*
X63593466Y-48717138D01*
X63375000Y-49244561D01*
X63375000Y-49815439D01*
X63396897Y-49868302D01*
X63015528Y-50249671D01*
X62952072Y-50292071D01*
X62909672Y-50355527D01*
X62909671Y-50355528D01*
X62784097Y-50543463D01*
X62725112Y-50840000D01*
X62740001Y-50914852D01*
X62740001Y-53247577D01*
X62685494Y-53225000D01*
X62134506Y-53225000D01*
X61625460Y-53435853D01*
X61235853Y-53825460D01*
X61025000Y-54334506D01*
X61025000Y-54885494D01*
X61035165Y-54910034D01*
X60475530Y-55469669D01*
X60412071Y-55512071D01*
X60244096Y-55763464D01*
X60200000Y-55985149D01*
X60200000Y-55985153D01*
X60185112Y-56060000D01*
X60200000Y-56134847D01*
X60200001Y-58071957D01*
X59925424Y-58255423D01*
X59690000Y-58607759D01*
X59454577Y-58255423D01*
X58979909Y-57938260D01*
X58420000Y-57826887D01*
X57860092Y-57938260D01*
X57663599Y-58069552D01*
X57568129Y-57926671D01*
X57504673Y-57884271D01*
X54445402Y-54825000D01*
X54905385Y-54825000D01*
X55451185Y-54598922D01*
X55868922Y-54181185D01*
X56095000Y-53635385D01*
X56095000Y-53044615D01*
X55868922Y-52498815D01*
X55451185Y-52081078D01*
X54905385Y-51855000D01*
X54314615Y-51855000D01*
X53768815Y-52081078D01*
X53351078Y-52498815D01*
X53125000Y-53044615D01*
X53125000Y-53504599D01*
X49840131Y-50219730D01*
X49797729Y-50156271D01*
X49546337Y-49988296D01*
X49324652Y-49944200D01*
X49324647Y-49944200D01*
X49249800Y-49929312D01*
X49174953Y-49944200D01*
X49105907Y-49944200D01*
X49368922Y-49681185D01*
X49595000Y-49135385D01*
X49595000Y-48544615D01*
X53125000Y-48544615D01*
X53125000Y-49135385D01*
X53351078Y-49681185D01*
X53768815Y-50098922D01*
X54314615Y-50325000D01*
X54905385Y-50325000D01*
X55451185Y-50098922D01*
X55868922Y-49681185D01*
X56095000Y-49135385D01*
X56095000Y-48544615D01*
X55868922Y-47998815D01*
X55451185Y-47581078D01*
X54905385Y-47355000D01*
X54314615Y-47355000D01*
X53768815Y-47581078D01*
X53351078Y-47998815D01*
X53125000Y-48544615D01*
X49595000Y-48544615D01*
X49368922Y-47998815D01*
X48951185Y-47581078D01*
X48405385Y-47355000D01*
X47814615Y-47355000D01*
X47268815Y-47581078D01*
X46851078Y-47998815D01*
X46625000Y-48544615D01*
X46625000Y-49135385D01*
X46851078Y-49681185D01*
X47114093Y-49944200D01*
X41135948Y-49944200D01*
X41061100Y-49929312D01*
X41009042Y-49939667D01*
X40942234Y-49839681D01*
X40830305Y-42340462D01*
X41264741Y-41906026D01*
X41605000Y-41084569D01*
X41605000Y-40195431D01*
X41371725Y-39632255D01*
X105216861Y-39632255D01*
X106045000Y-40460395D01*
X106873139Y-39632255D01*
X106799005Y-39386136D01*
X106261777Y-39193035D01*
X105691546Y-39220222D01*
X105290995Y-39386136D01*
X105216861Y-39632255D01*
X41371725Y-39632255D01*
X41264741Y-39373974D01*
X40778776Y-38888009D01*
X40768910Y-38227000D01*
X128577692Y-38227000D01*
X128469375Y-38299375D01*
X128469375Y-38299375D01*
G37*
X128469375Y-38299375D02*
X128141161Y-38790582D01*
X128025908Y-39370000D01*
X128141161Y-39949418D01*
X128469375Y-40440625D01*
X128767761Y-40640000D01*
X128469375Y-40839375D01*
X128141161Y-41330582D01*
X128025908Y-41910000D01*
X128141161Y-42489418D01*
X128469375Y-42980625D01*
X128767761Y-43180000D01*
X128469375Y-43379375D01*
X128141161Y-43870582D01*
X128025908Y-44450000D01*
X128141161Y-45029418D01*
X128469375Y-45520625D01*
X128767761Y-45720000D01*
X128469375Y-45919375D01*
X128141161Y-46410582D01*
X128025908Y-46990000D01*
X128141161Y-47569418D01*
X128469375Y-48060625D01*
X128767761Y-48260000D01*
X128469375Y-48459375D01*
X128141161Y-48950582D01*
X128025908Y-49530000D01*
X128141161Y-50109418D01*
X128469375Y-50600625D01*
X128767761Y-50800000D01*
X128469375Y-50999375D01*
X128141161Y-51490582D01*
X128025908Y-52070000D01*
X128141161Y-52649418D01*
X128362469Y-52980629D01*
X126136144Y-55206954D01*
X125894577Y-54845423D01*
X125542242Y-54610000D01*
X125894577Y-54374577D01*
X126211740Y-53899909D01*
X126323113Y-53340000D01*
X126211740Y-52780091D01*
X125894577Y-52305423D01*
X125419909Y-51988260D01*
X125001333Y-51905000D01*
X123918667Y-51905000D01*
X123500091Y-51988260D01*
X123025423Y-52305423D01*
X123005196Y-52335694D01*
X120840331Y-50170830D01*
X120797929Y-50107371D01*
X120546537Y-49939396D01*
X120324852Y-49895300D01*
X120324847Y-49895300D01*
X120250000Y-49880412D01*
X120175153Y-49895300D01*
X118230450Y-49895300D01*
X118303113Y-49530000D01*
X118246336Y-49244561D01*
X123025000Y-49244561D01*
X123025000Y-49815439D01*
X123243466Y-50342862D01*
X123647138Y-50746534D01*
X124174561Y-50965000D01*
X124745439Y-50965000D01*
X125272862Y-50746534D01*
X125676534Y-50342862D01*
X125895000Y-49815439D01*
X125895000Y-49244561D01*
X125676534Y-48717138D01*
X125272862Y-48313466D01*
X124745439Y-48095000D01*
X124174561Y-48095000D01*
X123647138Y-48313466D01*
X123243466Y-48717138D01*
X123025000Y-49244561D01*
X118246336Y-49244561D01*
X118191740Y-48970091D01*
X117874577Y-48495423D01*
X117600000Y-48311957D01*
X117600000Y-46938043D01*
X117874577Y-46754577D01*
X118191740Y-46279909D01*
X118303113Y-45720000D01*
X118246336Y-45434561D01*
X123025000Y-45434561D01*
X123025000Y-46005439D01*
X123243466Y-46532862D01*
X123647138Y-46936534D01*
X124174561Y-47155000D01*
X124745439Y-47155000D01*
X125272862Y-46936534D01*
X125676534Y-46532862D01*
X125895000Y-46005439D01*
X125895000Y-45434561D01*
X125676534Y-44907138D01*
X125272862Y-44503466D01*
X124745439Y-44285000D01*
X124174561Y-44285000D01*
X123647138Y-44503466D01*
X123243466Y-44907138D01*
X123025000Y-45434561D01*
X118246336Y-45434561D01*
X118191740Y-45160091D01*
X117874577Y-44685423D01*
X117600000Y-44501957D01*
X117600000Y-43128043D01*
X117874577Y-42944577D01*
X118191740Y-42469909D01*
X118303113Y-41910000D01*
X118220405Y-41494200D01*
X122969399Y-41494200D01*
X123046897Y-41571698D01*
X123025000Y-41624561D01*
X123025000Y-42195439D01*
X123243466Y-42722862D01*
X123647138Y-43126534D01*
X124174561Y-43345000D01*
X124745439Y-43345000D01*
X125272862Y-43126534D01*
X125676534Y-42722862D01*
X125895000Y-42195439D01*
X125895000Y-41624561D01*
X125676534Y-41097138D01*
X125272862Y-40693466D01*
X124745439Y-40475000D01*
X124174561Y-40475000D01*
X124121698Y-40496897D01*
X123874531Y-40249730D01*
X123832129Y-40186271D01*
X123580737Y-40018296D01*
X123359052Y-39974200D01*
X123359047Y-39974200D01*
X123284200Y-39959312D01*
X123209353Y-39974200D01*
X116446648Y-39974200D01*
X116371800Y-39959312D01*
X116296952Y-39974200D01*
X116296948Y-39974200D01*
X116075263Y-40018296D01*
X115823871Y-40186271D01*
X115781471Y-40249727D01*
X110871963Y-45159236D01*
X110971740Y-45009909D01*
X111083113Y-44450000D01*
X110971740Y-43890091D01*
X110654577Y-43415423D01*
X110179909Y-43098260D01*
X109761333Y-43015000D01*
X108678667Y-43015000D01*
X108260091Y-43098260D01*
X107785423Y-43415423D01*
X107468260Y-43890091D01*
X107356887Y-44450000D01*
X107468260Y-45009909D01*
X107785423Y-45484577D01*
X108137758Y-45720000D01*
X107785423Y-45955423D01*
X107468260Y-46430091D01*
X107356887Y-46990000D01*
X107468260Y-47549909D01*
X107785423Y-48024577D01*
X108141499Y-48262499D01*
X107715500Y-48605104D01*
X107445633Y-49098181D01*
X107428096Y-49180961D01*
X107550085Y-49403000D01*
X109093000Y-49403000D01*
X109093000Y-49383000D01*
X109347000Y-49383000D01*
X109347000Y-49403000D01*
X109367000Y-49403000D01*
X109367000Y-49657000D01*
X109347000Y-49657000D01*
X109347000Y-49677000D01*
X109093000Y-49677000D01*
X109093000Y-49657000D01*
X107550085Y-49657000D01*
X107428096Y-49879039D01*
X107445633Y-49961819D01*
X107715500Y-50454896D01*
X108141499Y-50797501D01*
X107785423Y-51035423D01*
X107468260Y-51510091D01*
X107356887Y-52070000D01*
X107468260Y-52629909D01*
X107785423Y-53104577D01*
X108137758Y-53340000D01*
X107785423Y-53575423D01*
X107468260Y-54050091D01*
X107411308Y-54336406D01*
X95915031Y-42840130D01*
X95872629Y-42776671D01*
X95621237Y-42608696D01*
X95399552Y-42564600D01*
X95399547Y-42564600D01*
X95324700Y-42549712D01*
X95249853Y-42564600D01*
X91915248Y-42564600D01*
X91840400Y-42549712D01*
X91765552Y-42564600D01*
X91765548Y-42564600D01*
X91592005Y-42599120D01*
X91543862Y-42608696D01*
X91392251Y-42710000D01*
X91292471Y-42776671D01*
X91250071Y-42840127D01*
X90116902Y-43973296D01*
X90026620Y-43519420D01*
X89499489Y-42730511D01*
X88710580Y-42203380D01*
X88014897Y-42065000D01*
X87545103Y-42065000D01*
X86849420Y-42203380D01*
X86060511Y-42730511D01*
X85533380Y-43519420D01*
X85348276Y-44450000D01*
X85533380Y-45380580D01*
X86060511Y-46169489D01*
X86849420Y-46696620D01*
X87303297Y-46786902D01*
X77558599Y-56531600D01*
X76206295Y-56531600D01*
X76376965Y-56056777D01*
X76349778Y-55486546D01*
X76183864Y-55085995D01*
X75937745Y-55011861D01*
X75109605Y-55840000D01*
X75123748Y-55854142D01*
X74944142Y-56033748D01*
X74930000Y-56019605D01*
X74402799Y-56546807D01*
X74257563Y-56575696D01*
X74006171Y-56743671D01*
X73963771Y-56807127D01*
X70303399Y-60467500D01*
X70027440Y-60467500D01*
X70027440Y-58490000D01*
X69978157Y-58242235D01*
X69837809Y-58032191D01*
X69627765Y-57891843D01*
X69380000Y-57842560D01*
X67780000Y-57842560D01*
X67532235Y-57891843D01*
X67322191Y-58032191D01*
X67181843Y-58242235D01*
X67155215Y-58376106D01*
X67074577Y-58255423D01*
X66800000Y-58071957D01*
X66800000Y-55897865D01*
X67034506Y-55995000D01*
X67585494Y-55995000D01*
X68094540Y-55784147D01*
X68255464Y-55623223D01*
X73483035Y-55623223D01*
X73510222Y-56193454D01*
X73676136Y-56594005D01*
X73922255Y-56668139D01*
X74750395Y-55840000D01*
X73922255Y-55011861D01*
X73676136Y-55085995D01*
X73483035Y-55623223D01*
X68255464Y-55623223D01*
X68484147Y-55394540D01*
X68695000Y-54885494D01*
X68695000Y-54334506D01*
X68484147Y-53825460D01*
X68094540Y-53435853D01*
X68070000Y-53425688D01*
X68070000Y-50768430D01*
X68122862Y-50746534D01*
X68526534Y-50342862D01*
X68745000Y-49815439D01*
X68745000Y-49244561D01*
X68526534Y-48717138D01*
X68122862Y-48313466D01*
X67595439Y-48095000D01*
X67024561Y-48095000D01*
X66497138Y-48313466D01*
X66417503Y-48393101D01*
X65014402Y-46990000D01*
X69554928Y-46990000D01*
X69674062Y-47588927D01*
X70013327Y-48096673D01*
X70521073Y-48435938D01*
X70968818Y-48525000D01*
X71271182Y-48525000D01*
X71718927Y-48435938D01*
X72226673Y-48096673D01*
X72565938Y-47588927D01*
X72685072Y-46990000D01*
X72565938Y-46391073D01*
X72226673Y-45883327D01*
X71970826Y-45712376D01*
X72357966Y-45357576D01*
X72475301Y-45105903D01*
X74170000Y-46800602D01*
X74170001Y-51892560D01*
X74130000Y-51892560D01*
X73882235Y-51941843D01*
X73672191Y-52082191D01*
X73531843Y-52292235D01*
X73482560Y-52540000D01*
X73482560Y-54140000D01*
X73531843Y-54387765D01*
X73672191Y-54597809D01*
X73882235Y-54738157D01*
X74116187Y-54784693D01*
X74101861Y-54832255D01*
X74930000Y-55660395D01*
X75758139Y-54832255D01*
X75743813Y-54784693D01*
X75977765Y-54738157D01*
X76187809Y-54597809D01*
X76328157Y-54387765D01*
X76377440Y-54140000D01*
X76377440Y-52540000D01*
X76328157Y-52292235D01*
X76187809Y-52082191D01*
X75977765Y-51941843D01*
X75730000Y-51892560D01*
X75690000Y-51892560D01*
X75690000Y-46560648D01*
X75704888Y-46485800D01*
X75690000Y-46410952D01*
X75690000Y-46410948D01*
X75645904Y-46189263D01*
X75477929Y-45937871D01*
X75414473Y-45895471D01*
X72601578Y-43082577D01*
X72618157Y-43057765D01*
X72667440Y-42810000D01*
X72667440Y-41647745D01*
X105216861Y-41647745D01*
X105290995Y-41893864D01*
X105828223Y-42086965D01*
X106398454Y-42059778D01*
X106799005Y-41893864D01*
X106873139Y-41647745D01*
X106045000Y-40819605D01*
X105216861Y-41647745D01*
X72667440Y-41647745D01*
X72667440Y-41010000D01*
X72618157Y-40762235D01*
X72477809Y-40552191D01*
X72284797Y-40423223D01*
X104598035Y-40423223D01*
X104625222Y-40993454D01*
X104791136Y-41394005D01*
X105037255Y-41468139D01*
X105865395Y-40640000D01*
X106224605Y-40640000D01*
X107052745Y-41468139D01*
X107298864Y-41394005D01*
X107301290Y-41387254D01*
X107328466Y-41452862D01*
X107732138Y-41856534D01*
X108259561Y-42075000D01*
X108830439Y-42075000D01*
X109357862Y-41856534D01*
X109761534Y-41452862D01*
X109980000Y-40925439D01*
X109980000Y-40354561D01*
X109761534Y-39827138D01*
X109357862Y-39423466D01*
X108830439Y-39205000D01*
X108259561Y-39205000D01*
X107732138Y-39423466D01*
X107328466Y-39827138D01*
X107301475Y-39892299D01*
X107298864Y-39885995D01*
X107052745Y-39811861D01*
X106224605Y-40640000D01*
X105865395Y-40640000D01*
X105037255Y-39811861D01*
X104791136Y-39885995D01*
X104598035Y-40423223D01*
X72284797Y-40423223D01*
X72267765Y-40411843D01*
X72020000Y-40362560D01*
X70220000Y-40362560D01*
X69972235Y-40411843D01*
X69762191Y-40552191D01*
X69621843Y-40762235D01*
X69572560Y-41010000D01*
X69572560Y-42810000D01*
X69621843Y-43057765D01*
X69762191Y-43267809D01*
X69972235Y-43408157D01*
X70018498Y-43417359D01*
X69882034Y-43542424D01*
X69628954Y-44085258D01*
X69749003Y-44323000D01*
X70993000Y-44323000D01*
X70993000Y-44303000D01*
X71247000Y-44303000D01*
X71247000Y-44323000D01*
X71267000Y-44323000D01*
X71267000Y-44577000D01*
X71247000Y-44577000D01*
X71247000Y-44597000D01*
X70993000Y-44597000D01*
X70993000Y-44577000D01*
X69749003Y-44577000D01*
X69628954Y-44814742D01*
X69882034Y-45357576D01*
X70269174Y-45712376D01*
X70013327Y-45883327D01*
X69674062Y-46391073D01*
X69554928Y-46990000D01*
X65014402Y-46990000D01*
X63482147Y-45457745D01*
X66481861Y-45457745D01*
X66555995Y-45703864D01*
X67093223Y-45896965D01*
X67663454Y-45869778D01*
X68064005Y-45703864D01*
X68138139Y-45457745D01*
X67310000Y-44629605D01*
X66481861Y-45457745D01*
X63482147Y-45457745D01*
X62395000Y-44370599D01*
X62395000Y-44233223D01*
X65863035Y-44233223D01*
X65890222Y-44803454D01*
X66056136Y-45204005D01*
X66302255Y-45278139D01*
X67130395Y-44450000D01*
X67489605Y-44450000D01*
X68317745Y-45278139D01*
X68563864Y-45204005D01*
X68756965Y-44666777D01*
X68729778Y-44096546D01*
X68563864Y-43695995D01*
X68317745Y-43621861D01*
X67489605Y-44450000D01*
X67130395Y-44450000D01*
X66302255Y-43621861D01*
X66056136Y-43695995D01*
X65863035Y-44233223D01*
X62395000Y-44233223D01*
X62395000Y-44124561D01*
X62176534Y-43597138D01*
X61907497Y-43328101D01*
X62007765Y-43308157D01*
X62217809Y-43167809D01*
X62358157Y-42957765D01*
X62407440Y-42710000D01*
X62407440Y-41664561D01*
X65875000Y-41664561D01*
X65875000Y-42235439D01*
X66093466Y-42762862D01*
X66497138Y-43166534D01*
X66562299Y-43193525D01*
X66555995Y-43196136D01*
X66481861Y-43442255D01*
X67310000Y-44270395D01*
X68138139Y-43442255D01*
X68064005Y-43196136D01*
X68057254Y-43193710D01*
X68122862Y-43166534D01*
X68526534Y-42762862D01*
X68745000Y-42235439D01*
X68745000Y-41664561D01*
X68526534Y-41137138D01*
X68122862Y-40733466D01*
X67595439Y-40515000D01*
X67024561Y-40515000D01*
X66497138Y-40733466D01*
X66093466Y-41137138D01*
X65875000Y-41664561D01*
X62407440Y-41664561D01*
X62407440Y-41110000D01*
X62358157Y-40862235D01*
X62217809Y-40652191D01*
X62007765Y-40511843D01*
X61760000Y-40462560D01*
X60160000Y-40462560D01*
X59912235Y-40511843D01*
X59702191Y-40652191D01*
X59561843Y-40862235D01*
X59512560Y-41110000D01*
X59512560Y-42710000D01*
X59561843Y-42957765D01*
X59702191Y-43167809D01*
X59912235Y-43308157D01*
X60012503Y-43328101D01*
X59743466Y-43597138D01*
X59525000Y-44124561D01*
X59525000Y-44695439D01*
X59743466Y-45222862D01*
X60147138Y-45626534D01*
X60674561Y-45845000D01*
X61245439Y-45845000D01*
X61580862Y-45706063D01*
X64132285Y-48257486D01*
X63997138Y-48313466D01*
X63593466Y-48717138D01*
X63375000Y-49244561D01*
X63375000Y-49815439D01*
X63396897Y-49868302D01*
X63015528Y-50249671D01*
X62952072Y-50292071D01*
X62909672Y-50355527D01*
X62909671Y-50355528D01*
X62784097Y-50543463D01*
X62725112Y-50840000D01*
X62740001Y-50914852D01*
X62740001Y-53247577D01*
X62685494Y-53225000D01*
X62134506Y-53225000D01*
X61625460Y-53435853D01*
X61235853Y-53825460D01*
X61025000Y-54334506D01*
X61025000Y-54885494D01*
X61035165Y-54910034D01*
X60475530Y-55469669D01*
X60412071Y-55512071D01*
X60244096Y-55763464D01*
X60200000Y-55985149D01*
X60200000Y-55985153D01*
X60185112Y-56060000D01*
X60200000Y-56134847D01*
X60200001Y-58071957D01*
X59925424Y-58255423D01*
X59690000Y-58607759D01*
X59454577Y-58255423D01*
X58979909Y-57938260D01*
X58420000Y-57826887D01*
X57860092Y-57938260D01*
X57663599Y-58069552D01*
X57568129Y-57926671D01*
X57504673Y-57884271D01*
X54445402Y-54825000D01*
X54905385Y-54825000D01*
X55451185Y-54598922D01*
X55868922Y-54181185D01*
X56095000Y-53635385D01*
X56095000Y-53044615D01*
X55868922Y-52498815D01*
X55451185Y-52081078D01*
X54905385Y-51855000D01*
X54314615Y-51855000D01*
X53768815Y-52081078D01*
X53351078Y-52498815D01*
X53125000Y-53044615D01*
X53125000Y-53504599D01*
X49840131Y-50219730D01*
X49797729Y-50156271D01*
X49546337Y-49988296D01*
X49324652Y-49944200D01*
X49324647Y-49944200D01*
X49249800Y-49929312D01*
X49174953Y-49944200D01*
X49105907Y-49944200D01*
X49368922Y-49681185D01*
X49595000Y-49135385D01*
X49595000Y-48544615D01*
X53125000Y-48544615D01*
X53125000Y-49135385D01*
X53351078Y-49681185D01*
X53768815Y-50098922D01*
X54314615Y-50325000D01*
X54905385Y-50325000D01*
X55451185Y-50098922D01*
X55868922Y-49681185D01*
X56095000Y-49135385D01*
X56095000Y-48544615D01*
X55868922Y-47998815D01*
X55451185Y-47581078D01*
X54905385Y-47355000D01*
X54314615Y-47355000D01*
X53768815Y-47581078D01*
X53351078Y-47998815D01*
X53125000Y-48544615D01*
X49595000Y-48544615D01*
X49368922Y-47998815D01*
X48951185Y-47581078D01*
X48405385Y-47355000D01*
X47814615Y-47355000D01*
X47268815Y-47581078D01*
X46851078Y-47998815D01*
X46625000Y-48544615D01*
X46625000Y-49135385D01*
X46851078Y-49681185D01*
X47114093Y-49944200D01*
X41135948Y-49944200D01*
X41061100Y-49929312D01*
X41009042Y-49939667D01*
X40942234Y-49839681D01*
X40830305Y-42340462D01*
X41264741Y-41906026D01*
X41605000Y-41084569D01*
X41605000Y-40195431D01*
X41371725Y-39632255D01*
X105216861Y-39632255D01*
X106045000Y-40460395D01*
X106873139Y-39632255D01*
X106799005Y-39386136D01*
X106261777Y-39193035D01*
X105691546Y-39220222D01*
X105290995Y-39386136D01*
X105216861Y-39632255D01*
X41371725Y-39632255D01*
X41264741Y-39373974D01*
X40778776Y-38888009D01*
X40768910Y-38227000D01*
X128577692Y-38227000D01*
X128469375Y-38299375D01*
G36*
X81280000Y-58240395D02*
X81294143Y-58226253D01*
X81473748Y-58405858D01*
X81459605Y-58420000D01*
X81473748Y-58434143D01*
X81294143Y-58613748D01*
X81280000Y-58599605D01*
X80451861Y-59427745D01*
X80525995Y-59673864D01*
X80583107Y-59694392D01*
X80567899Y-59709600D01*
X80020146Y-59709600D01*
X79945299Y-59694712D01*
X79891800Y-59705354D01*
X79891800Y-59275701D01*
X80016576Y-59150925D01*
X80026136Y-59174005D01*
X80272255Y-59248139D01*
X81100395Y-58420000D01*
X81086253Y-58405858D01*
X81265858Y-58226252D01*
X81280000Y-58240395D01*
X81280000Y-58240395D01*
G37*
X81280000Y-58240395D02*
X81294143Y-58226253D01*
X81473748Y-58405858D01*
X81459605Y-58420000D01*
X81473748Y-58434143D01*
X81294143Y-58613748D01*
X81280000Y-58599605D01*
X80451861Y-59427745D01*
X80525995Y-59673864D01*
X80583107Y-59694392D01*
X80567899Y-59709600D01*
X80020146Y-59709600D01*
X79945299Y-59694712D01*
X79891800Y-59705354D01*
X79891800Y-59275701D01*
X80016576Y-59150925D01*
X80026136Y-59174005D01*
X80272255Y-59248139D01*
X81100395Y-58420000D01*
X81086253Y-58405858D01*
X81265858Y-58226252D01*
X81280000Y-58240395D01*
G36*
X87630000Y-56930395D02*
X87644143Y-56916253D01*
X87823748Y-57095858D01*
X87809605Y-57110000D01*
X87823748Y-57124143D01*
X87644142Y-57303748D01*
X87630000Y-57289605D01*
X87615858Y-57303748D01*
X87436253Y-57124143D01*
X87450395Y-57110000D01*
X87436253Y-57095858D01*
X87615858Y-56916252D01*
X87630000Y-56930395D01*
X87630000Y-56930395D01*
G37*
X87630000Y-56930395D02*
X87644143Y-56916253D01*
X87823748Y-57095858D01*
X87809605Y-57110000D01*
X87823748Y-57124143D01*
X87644142Y-57303748D01*
X87630000Y-57289605D01*
X87615858Y-57303748D01*
X87436253Y-57124143D01*
X87450395Y-57110000D01*
X87436253Y-57095858D01*
X87615858Y-56916252D01*
X87630000Y-56930395D01*
G04 #@! TD*
M02*
