G04 #@! TF.GenerationSoftware,KiCad,Pcbnew,5.0.0-rc2-be01b52~65~ubuntu18.04.1*
G04 #@! TF.CreationDate,2018-06-09T19:25:23+04:00*
G04 #@! TF.ProjectId,plusd,706C7573642E6B696361645F70636200,rev?*
G04 #@! TF.SameCoordinates,Original*
G04 #@! TF.FileFunction,Copper,L1,Top,Signal*
G04 #@! TF.FilePolarity,Positive*
%FSLAX46Y46*%
G04 Gerber Fmt 4.6, Leading zero omitted, Abs format (unit mm)*
G04 Created by KiCad (PCBNEW 5.0.0-rc2-be01b52~65~ubuntu18.04.1) date Sat Jun  9 19:25:23 2018*
%MOMM*%
%LPD*%
G01*
G04 APERTURE LIST*
G04 #@! TA.AperFunction,ComponentPad*
%ADD10O,1.800000X1.800000*%
G04 #@! TD*
G04 #@! TA.AperFunction,ComponentPad*
%ADD11R,1.800000X1.800000*%
G04 #@! TD*
G04 #@! TA.AperFunction,ComponentPad*
%ADD12R,1.600000X1.600000*%
G04 #@! TD*
G04 #@! TA.AperFunction,ComponentPad*
%ADD13C,1.600000*%
G04 #@! TD*
G04 #@! TA.AperFunction,ComponentPad*
%ADD14C,1.800000*%
G04 #@! TD*
G04 #@! TA.AperFunction,ComponentPad*
%ADD15R,1.700000X1.700000*%
G04 #@! TD*
G04 #@! TA.AperFunction,ComponentPad*
%ADD16O,1.700000X1.700000*%
G04 #@! TD*
G04 #@! TA.AperFunction,ConnectorPad*
%ADD17O,5.080000X1.778000*%
G04 #@! TD*
G04 #@! TA.AperFunction,ComponentPad*
%ADD18O,1.600000X1.600000*%
G04 #@! TD*
G04 #@! TA.AperFunction,ComponentPad*
%ADD19C,1.700000*%
G04 #@! TD*
G04 #@! TA.AperFunction,ComponentPad*
%ADD20R,2.400000X1.600000*%
G04 #@! TD*
G04 #@! TA.AperFunction,ComponentPad*
%ADD21O,2.400000X1.600000*%
G04 #@! TD*
G04 #@! TA.AperFunction,ComponentPad*
%ADD22O,1.600000X2.400000*%
G04 #@! TD*
G04 #@! TA.AperFunction,ComponentPad*
%ADD23R,1.600000X2.400000*%
G04 #@! TD*
G04 #@! TA.AperFunction,ComponentPad*
%ADD24C,1.500000*%
G04 #@! TD*
G04 #@! TA.AperFunction,ViaPad*
%ADD25C,0.800000*%
G04 #@! TD*
G04 #@! TA.AperFunction,Conductor*
%ADD26C,0.250000*%
G04 #@! TD*
G04 #@! TA.AperFunction,Conductor*
%ADD27C,0.254000*%
G04 #@! TD*
G04 APERTURE END LIST*
D10*
G04 #@! TO.P,U12,3*
G04 #@! TO.N,+5V*
X71120000Y-46990000D03*
G04 #@! TO.P,U12,2*
G04 #@! TO.N,GND*
X71120000Y-44450000D03*
D11*
G04 #@! TO.P,U12,1*
G04 #@! TO.N,+9V*
X71120000Y-41910000D03*
G04 #@! TD*
D12*
G04 #@! TO.P,C1,1*
G04 #@! TO.N,Net-(C1-Pad1)*
X60960000Y-41910000D03*
D13*
G04 #@! TO.P,C1,2*
G04 #@! TO.N,Net-(C1-Pad2)*
X60960000Y-44410000D03*
G04 #@! TD*
G04 #@! TO.P,C2,2*
G04 #@! TO.N,Net-(C2-Pad2)*
X64810000Y-49530000D03*
G04 #@! TO.P,C2,1*
G04 #@! TO.N,Net-(C2-Pad1)*
X67310000Y-49530000D03*
G04 #@! TD*
G04 #@! TO.P,C3,1*
G04 #@! TO.N,GND*
X43180000Y-96520000D03*
G04 #@! TO.P,C3,2*
G04 #@! TO.N,/RESET*
X43180000Y-99020000D03*
G04 #@! TD*
G04 #@! TO.P,C4,2*
G04 #@! TO.N,Net-(C4-Pad2)*
X64730000Y-83820000D03*
G04 #@! TO.P,C4,1*
G04 #@! TO.N,GND*
X62230000Y-83820000D03*
G04 #@! TD*
G04 #@! TO.P,C5,1*
G04 #@! TO.N,GND*
X67310000Y-44450000D03*
G04 #@! TO.P,C5,2*
G04 #@! TO.N,+9V*
X67310000Y-41950000D03*
G04 #@! TD*
D12*
G04 #@! TO.P,C6,1*
G04 #@! TO.N,+9V*
X74930000Y-53340000D03*
D13*
G04 #@! TO.P,C6,2*
G04 #@! TO.N,GND*
X74930000Y-55840000D03*
G04 #@! TD*
G04 #@! TO.P,C7,2*
G04 #@! TO.N,GND*
X87630000Y-57110000D03*
D12*
G04 #@! TO.P,C7,1*
G04 #@! TO.N,+5V*
X87630000Y-54610000D03*
G04 #@! TD*
D13*
G04 #@! TO.P,C8,1*
G04 #@! TO.N,GND*
X52070000Y-83820000D03*
G04 #@! TO.P,C8,2*
G04 #@! TO.N,+5V*
X54570000Y-83820000D03*
G04 #@! TD*
G04 #@! TO.P,C9,1*
G04 #@! TO.N,GND*
X73025000Y-74930000D03*
G04 #@! TO.P,C9,2*
G04 #@! TO.N,+5V*
X73025000Y-77430000D03*
G04 #@! TD*
G04 #@! TO.P,C10,2*
G04 #@! TO.N,+5V*
X72390000Y-62270000D03*
G04 #@! TO.P,C10,1*
G04 #@! TO.N,GND*
X72390000Y-64770000D03*
G04 #@! TD*
G04 #@! TO.P,C11,2*
G04 #@! TO.N,+5V*
X77430000Y-81280000D03*
G04 #@! TO.P,C11,1*
G04 #@! TO.N,GND*
X74930000Y-81280000D03*
G04 #@! TD*
G04 #@! TO.P,C12,2*
G04 #@! TO.N,+5V*
X81280000Y-55920000D03*
G04 #@! TO.P,C12,1*
G04 #@! TO.N,GND*
X81280000Y-58420000D03*
G04 #@! TD*
G04 #@! TO.P,C13,1*
G04 #@! TO.N,GND*
X104180000Y-81280000D03*
G04 #@! TO.P,C13,2*
G04 #@! TO.N,+5V*
X106680000Y-81280000D03*
G04 #@! TD*
G04 #@! TO.P,C14,2*
G04 #@! TO.N,+5V*
X108545000Y-40640000D03*
G04 #@! TO.P,C14,1*
G04 #@! TO.N,GND*
X106045000Y-40640000D03*
G04 #@! TD*
G04 #@! TO.P,C15,1*
G04 #@! TO.N,GND*
X113030000Y-118110000D03*
G04 #@! TO.P,C15,2*
G04 #@! TO.N,+5V*
X113030000Y-115610000D03*
G04 #@! TD*
G04 #@! TO.P,C16,2*
G04 #@! TO.N,+5V*
X113030000Y-88940000D03*
G04 #@! TO.P,C16,1*
G04 #@! TO.N,GND*
X113030000Y-91440000D03*
G04 #@! TD*
G04 #@! TO.P,C17,1*
G04 #@! TO.N,GND*
X113030000Y-68580000D03*
G04 #@! TO.P,C17,2*
G04 #@! TO.N,+5V*
X113030000Y-66080000D03*
G04 #@! TD*
D11*
G04 #@! TO.P,D2,1*
G04 #@! TO.N,Net-(D2-Pad1)*
X48260000Y-116840000D03*
D14*
G04 #@! TO.P,D2,2*
G04 #@! TO.N,Net-(D2-Pad2)*
X48260000Y-119380000D03*
G04 #@! TD*
D15*
G04 #@! TO.P,J1,1*
G04 #@! TO.N,GND*
X132080000Y-80010000D03*
D16*
G04 #@! TO.P,J1,2*
G04 #@! TO.N,N/C*
X129540000Y-80010000D03*
G04 #@! TO.P,J1,3*
G04 #@! TO.N,GND*
X132080000Y-77470000D03*
G04 #@! TO.P,J1,4*
G04 #@! TO.N,N/C*
X129540000Y-77470000D03*
G04 #@! TO.P,J1,5*
G04 #@! TO.N,GND*
X132080000Y-74930000D03*
G04 #@! TO.P,J1,6*
G04 #@! TO.N,N/C*
X129540000Y-74930000D03*
G04 #@! TO.P,J1,7*
G04 #@! TO.N,GND*
X132080000Y-72390000D03*
G04 #@! TO.P,J1,8*
G04 #@! TO.N,Net-(J1-Pad8)*
X129540000Y-72390000D03*
G04 #@! TO.P,J1,9*
G04 #@! TO.N,GND*
X132080000Y-69850000D03*
G04 #@! TO.P,J1,10*
G04 #@! TO.N,/DS0*
X129540000Y-69850000D03*
G04 #@! TO.P,J1,11*
G04 #@! TO.N,GND*
X132080000Y-67310000D03*
G04 #@! TO.P,J1,12*
G04 #@! TO.N,/DS1*
X129540000Y-67310000D03*
G04 #@! TO.P,J1,13*
G04 #@! TO.N,GND*
X132080000Y-64770000D03*
G04 #@! TO.P,J1,14*
G04 #@! TO.N,N/C*
X129540000Y-64770000D03*
G04 #@! TO.P,J1,15*
G04 #@! TO.N,GND*
X132080000Y-62230000D03*
G04 #@! TO.P,J1,16*
G04 #@! TO.N,Net-(J1-Pad16)*
X129540000Y-62230000D03*
G04 #@! TO.P,J1,17*
G04 #@! TO.N,GND*
X132080000Y-59690000D03*
G04 #@! TO.P,J1,18*
G04 #@! TO.N,Net-(J1-Pad18)*
X129540000Y-59690000D03*
G04 #@! TO.P,J1,19*
G04 #@! TO.N,GND*
X132080000Y-57150000D03*
G04 #@! TO.P,J1,20*
G04 #@! TO.N,Net-(J1-Pad20)*
X129540000Y-57150000D03*
G04 #@! TO.P,J1,21*
G04 #@! TO.N,GND*
X132080000Y-54610000D03*
G04 #@! TO.P,J1,22*
G04 #@! TO.N,Net-(J1-Pad22)*
X129540000Y-54610000D03*
G04 #@! TO.P,J1,23*
G04 #@! TO.N,GND*
X132080000Y-52070000D03*
G04 #@! TO.P,J1,24*
G04 #@! TO.N,Net-(J1-Pad24)*
X129540000Y-52070000D03*
G04 #@! TO.P,J1,25*
G04 #@! TO.N,GND*
X132080000Y-49530000D03*
G04 #@! TO.P,J1,26*
G04 #@! TO.N,Net-(J1-Pad26)*
X129540000Y-49530000D03*
G04 #@! TO.P,J1,27*
G04 #@! TO.N,GND*
X132080000Y-46990000D03*
G04 #@! TO.P,J1,28*
G04 #@! TO.N,Net-(J1-Pad28)*
X129540000Y-46990000D03*
G04 #@! TO.P,J1,29*
G04 #@! TO.N,GND*
X132080000Y-44450000D03*
G04 #@! TO.P,J1,30*
G04 #@! TO.N,Net-(J1-Pad30)*
X129540000Y-44450000D03*
G04 #@! TO.P,J1,31*
G04 #@! TO.N,GND*
X132080000Y-41910000D03*
G04 #@! TO.P,J1,32*
G04 #@! TO.N,/XXX*
X129540000Y-41910000D03*
G04 #@! TO.P,J1,33*
G04 #@! TO.N,GND*
X132080000Y-39370000D03*
G04 #@! TO.P,J1,34*
G04 #@! TO.N,N/C*
X129540000Y-39370000D03*
G04 #@! TD*
D17*
G04 #@! TO.P,J2,B28*
G04 #@! TO.N,N/C*
X38100000Y-119380000D03*
G04 #@! TO.P,J2,B27*
G04 #@! TO.N,/A10*
X38100000Y-116840000D03*
G04 #@! TO.P,J2,B26*
G04 #@! TO.N,/A8*
X38100000Y-114300000D03*
G04 #@! TO.P,J2,B25*
G04 #@! TO.N,N/C*
X38100000Y-111760000D03*
G04 #@! TO.P,J2,B24*
G04 #@! TO.N,/M1*
X38100000Y-109220000D03*
G04 #@! TO.P,J2,B23*
G04 #@! TO.N,N/C*
X38100000Y-106680000D03*
G04 #@! TO.P,J2,B22*
X38100000Y-104140000D03*
G04 #@! TO.P,J2,B21*
X38100000Y-101600000D03*
G04 #@! TO.P,J2,B20*
X38100000Y-99060000D03*
G04 #@! TO.P,J2,B19*
G04 #@! TO.N,/WR*
X38100000Y-96520000D03*
G04 #@! TO.P,J2,B18*
G04 #@! TO.N,/RD*
X38100000Y-93980000D03*
G04 #@! TO.P,J2,B17*
G04 #@! TO.N,/IOREQ*
X38100000Y-91440000D03*
G04 #@! TO.P,J2,B16*
G04 #@! TO.N,/MREQ*
X38100000Y-88900000D03*
G04 #@! TO.P,J2,B15*
G04 #@! TO.N,N/C*
X38100000Y-86360000D03*
G04 #@! TO.P,J2,B14*
G04 #@! TO.N,NMI*
X38100000Y-83820000D03*
G04 #@! TO.P,J2,B13*
G04 #@! TO.N,N/C*
X38100000Y-81280000D03*
G04 #@! TO.P,J2,B12*
G04 #@! TO.N,/D4*
X38100000Y-78740000D03*
G04 #@! TO.P,J2,B11*
G04 #@! TO.N,/D3*
X38100000Y-76200000D03*
G04 #@! TO.P,J2,B10*
G04 #@! TO.N,/D5*
X38100000Y-73660000D03*
G04 #@! TO.P,J2,B9*
G04 #@! TO.N,/D6*
X38100000Y-71120000D03*
G04 #@! TO.P,J2,B8*
G04 #@! TO.N,/D2*
X38100000Y-68580000D03*
G04 #@! TO.P,J2,B7*
G04 #@! TO.N,/D1*
X38100000Y-66040000D03*
G04 #@! TO.P,J2,B6*
G04 #@! TO.N,/D0*
X38100000Y-63500000D03*
G04 #@! TO.P,J2,B4*
G04 #@! TO.N,ZX_ROMOE1*
X38100000Y-58420000D03*
G04 #@! TO.P,J2,B3*
G04 #@! TO.N,/D7*
X38100000Y-55880000D03*
G04 #@! TO.P,J2,B2*
G04 #@! TO.N,/A13*
X38100000Y-53340000D03*
G04 #@! TO.P,J2,B1*
G04 #@! TO.N,/A15*
X38100000Y-50800000D03*
G04 #@! TD*
D15*
G04 #@! TO.P,J3,1*
G04 #@! TO.N,Net-(J3-Pad1)*
X129540000Y-91440000D03*
D16*
G04 #@! TO.P,J3,2*
G04 #@! TO.N,GND*
X132080000Y-91440000D03*
G04 #@! TO.P,J3,3*
G04 #@! TO.N,Net-(J3-Pad3)*
X129540000Y-93980000D03*
G04 #@! TO.P,J3,4*
G04 #@! TO.N,GND*
X132080000Y-93980000D03*
G04 #@! TO.P,J3,5*
G04 #@! TO.N,Net-(J3-Pad5)*
X129540000Y-96520000D03*
G04 #@! TO.P,J3,6*
G04 #@! TO.N,GND*
X132080000Y-96520000D03*
G04 #@! TO.P,J3,7*
G04 #@! TO.N,Net-(J3-Pad7)*
X129540000Y-99060000D03*
G04 #@! TO.P,J3,8*
G04 #@! TO.N,GND*
X132080000Y-99060000D03*
G04 #@! TO.P,J3,9*
G04 #@! TO.N,Net-(J3-Pad9)*
X129540000Y-101600000D03*
G04 #@! TO.P,J3,10*
G04 #@! TO.N,GND*
X132080000Y-101600000D03*
G04 #@! TO.P,J3,11*
G04 #@! TO.N,Net-(J3-Pad11)*
X129540000Y-104140000D03*
G04 #@! TO.P,J3,12*
G04 #@! TO.N,GND*
X132080000Y-104140000D03*
G04 #@! TO.P,J3,13*
G04 #@! TO.N,Net-(J3-Pad13)*
X129540000Y-106680000D03*
G04 #@! TO.P,J3,14*
G04 #@! TO.N,GND*
X132080000Y-106680000D03*
G04 #@! TO.P,J3,15*
G04 #@! TO.N,Net-(J3-Pad15)*
X129540000Y-109220000D03*
G04 #@! TO.P,J3,16*
G04 #@! TO.N,GND*
X132080000Y-109220000D03*
G04 #@! TO.P,J3,17*
G04 #@! TO.N,Net-(J3-Pad17)*
X129540000Y-111760000D03*
G04 #@! TO.P,J3,18*
G04 #@! TO.N,GND*
X132080000Y-111760000D03*
G04 #@! TO.P,J3,19*
G04 #@! TO.N,N/C*
X129540000Y-114300000D03*
G04 #@! TO.P,J3,20*
G04 #@! TO.N,GND*
X132080000Y-114300000D03*
G04 #@! TO.P,J3,21*
G04 #@! TO.N,Net-(J3-Pad21)*
X129540000Y-116840000D03*
G04 #@! TO.P,J3,22*
G04 #@! TO.N,GND*
X132080000Y-116840000D03*
G04 #@! TO.P,J3,23*
G04 #@! TO.N,N/C*
X129540000Y-119380000D03*
G04 #@! TO.P,J3,24*
G04 #@! TO.N,GND*
X132080000Y-119380000D03*
G04 #@! TO.P,J3,25*
G04 #@! TO.N,N/C*
X129540000Y-121920000D03*
G04 #@! TO.P,J3,26*
X132080000Y-121920000D03*
G04 #@! TD*
D15*
G04 #@! TO.P,J4,1*
G04 #@! TO.N,Net-(D4-Pad2)*
X43180000Y-74930000D03*
D16*
G04 #@! TO.P,J4,2*
G04 #@! TO.N,Net-(D2-Pad1)*
X43180000Y-72390000D03*
G04 #@! TO.P,J4,3*
G04 #@! TO.N,Net-(D1-Pad2)*
X43180000Y-69850000D03*
G04 #@! TD*
D13*
G04 #@! TO.P,R1,1*
G04 #@! TO.N,Net-(J1-Pad8)*
X124460000Y-72390000D03*
D18*
G04 #@! TO.P,R1,2*
G04 #@! TO.N,+5V*
X116840000Y-72390000D03*
G04 #@! TD*
G04 #@! TO.P,R2,2*
G04 #@! TO.N,+5V*
X116840000Y-49530000D03*
D13*
G04 #@! TO.P,R2,1*
G04 #@! TO.N,Net-(J1-Pad26)*
X124460000Y-49530000D03*
G04 #@! TD*
G04 #@! TO.P,R3,1*
G04 #@! TO.N,Net-(J1-Pad28)*
X124460000Y-45720000D03*
D18*
G04 #@! TO.P,R3,2*
G04 #@! TO.N,+5V*
X116840000Y-45720000D03*
G04 #@! TD*
G04 #@! TO.P,R4,2*
G04 #@! TO.N,+5V*
X116840000Y-41910000D03*
D13*
G04 #@! TO.P,R4,1*
G04 #@! TO.N,Net-(J1-Pad30)*
X124460000Y-41910000D03*
G04 #@! TD*
D18*
G04 #@! TO.P,R5,2*
G04 #@! TO.N,Net-(C2-Pad2)*
X77470000Y-67310000D03*
D13*
G04 #@! TO.P,R5,1*
G04 #@! TO.N,Net-(C1-Pad2)*
X77470000Y-59690000D03*
G04 #@! TD*
G04 #@! TO.P,R6,1*
G04 #@! TO.N,Net-(R6-Pad1)*
X49530000Y-59690000D03*
D18*
G04 #@! TO.P,R6,2*
G04 #@! TO.N,Net-(C1-Pad1)*
X49530000Y-67310000D03*
G04 #@! TD*
D13*
G04 #@! TO.P,R7,1*
G04 #@! TO.N,Net-(D2-Pad2)*
X54610000Y-119380000D03*
D18*
G04 #@! TO.P,R7,2*
G04 #@! TO.N,+5V*
X62230000Y-119380000D03*
G04 #@! TD*
G04 #@! TO.P,R8,2*
G04 #@! TO.N,Net-(R8-Pad2)*
X49530000Y-72390000D03*
D13*
G04 #@! TO.P,R8,1*
G04 #@! TO.N,Net-(C4-Pad2)*
X49530000Y-80010000D03*
G04 #@! TD*
G04 #@! TO.P,R9,1*
G04 #@! TO.N,Net-(J3-Pad21)*
X113030000Y-86360000D03*
D18*
G04 #@! TO.P,R9,2*
G04 #@! TO.N,+5V*
X113030000Y-78740000D03*
G04 #@! TD*
D19*
G04 #@! TO.P,SW1,4*
G04 #@! TO.N,N/C*
X48110000Y-48840000D03*
G04 #@! TO.P,SW1,3*
X54610000Y-48840000D03*
G04 #@! TO.P,SW1,2*
G04 #@! TO.N,Net-(D2-Pad1)*
X48110000Y-53340000D03*
G04 #@! TO.P,SW1,1*
G04 #@! TO.N,NMI*
X54610000Y-53340000D03*
G04 #@! TD*
D20*
G04 #@! TO.P,U1,1*
G04 #@! TO.N,Net-(U1-Pad1)*
X116840000Y-53340000D03*
D21*
G04 #@! TO.P,U1,8*
G04 #@! TO.N,Net-(J3-Pad1)*
X124460000Y-68580000D03*
G04 #@! TO.P,U1,2*
G04 #@! TO.N,Net-(J1-Pad22)*
X116840000Y-55880000D03*
G04 #@! TO.P,U1,9*
G04 #@! TO.N,Net-(U1-Pad9)*
X124460000Y-66040000D03*
G04 #@! TO.P,U1,3*
G04 #@! TO.N,Net-(U1-Pad3)*
X116840000Y-58420000D03*
G04 #@! TO.P,U1,10*
G04 #@! TO.N,Net-(J1-Pad18)*
X124460000Y-63500000D03*
G04 #@! TO.P,U1,4*
G04 #@! TO.N,Net-(J1-Pad16)*
X116840000Y-60960000D03*
G04 #@! TO.P,U1,11*
G04 #@! TO.N,Net-(U1-Pad11)*
X124460000Y-60960000D03*
G04 #@! TO.P,U1,5*
G04 #@! TO.N,Net-(U1-Pad5)*
X116840000Y-63500000D03*
G04 #@! TO.P,U1,12*
G04 #@! TO.N,Net-(J1-Pad24)*
X124460000Y-58420000D03*
G04 #@! TO.P,U1,6*
G04 #@! TO.N,Net-(J1-Pad20)*
X116840000Y-66040000D03*
G04 #@! TO.P,U1,13*
G04 #@! TO.N,Net-(U1-Pad13)*
X124460000Y-55880000D03*
G04 #@! TO.P,U1,7*
G04 #@! TO.N,GND*
X116840000Y-68580000D03*
G04 #@! TO.P,U1,14*
G04 #@! TO.N,+5V*
X124460000Y-53340000D03*
G04 #@! TD*
G04 #@! TO.P,U2,28*
G04 #@! TO.N,+5V*
X109220000Y-85090000D03*
G04 #@! TO.P,U2,14*
G04 #@! TO.N,GND*
X93980000Y-118110000D03*
G04 #@! TO.P,U2,27*
G04 #@! TO.N,+5V*
X109220000Y-87630000D03*
G04 #@! TO.P,U2,13*
G04 #@! TO.N,/D2*
X93980000Y-115570000D03*
G04 #@! TO.P,U2,26*
G04 #@! TO.N,N/C*
X109220000Y-90170000D03*
G04 #@! TO.P,U2,12*
G04 #@! TO.N,/D1*
X93980000Y-113030000D03*
G04 #@! TO.P,U2,25*
G04 #@! TO.N,/A8*
X109220000Y-92710000D03*
G04 #@! TO.P,U2,11*
G04 #@! TO.N,/D0*
X93980000Y-110490000D03*
G04 #@! TO.P,U2,24*
G04 #@! TO.N,/A9*
X109220000Y-95250000D03*
G04 #@! TO.P,U2,10*
G04 #@! TO.N,/A0*
X93980000Y-107950000D03*
G04 #@! TO.P,U2,23*
G04 #@! TO.N,/A11*
X109220000Y-97790000D03*
G04 #@! TO.P,U2,9*
G04 #@! TO.N,/A1*
X93980000Y-105410000D03*
G04 #@! TO.P,U2,22*
G04 #@! TO.N,/RD*
X109220000Y-100330000D03*
G04 #@! TO.P,U2,8*
G04 #@! TO.N,/A2*
X93980000Y-102870000D03*
G04 #@! TO.P,U2,21*
G04 #@! TO.N,/A10*
X109220000Y-102870000D03*
G04 #@! TO.P,U2,7*
G04 #@! TO.N,/A3*
X93980000Y-100330000D03*
G04 #@! TO.P,U2,20*
G04 #@! TO.N,ROM_CS*
X109220000Y-105410000D03*
G04 #@! TO.P,U2,6*
G04 #@! TO.N,/A4*
X93980000Y-97790000D03*
G04 #@! TO.P,U2,19*
G04 #@! TO.N,/D7*
X109220000Y-107950000D03*
G04 #@! TO.P,U2,5*
G04 #@! TO.N,/A5*
X93980000Y-95250000D03*
G04 #@! TO.P,U2,18*
G04 #@! TO.N,/D6*
X109220000Y-110490000D03*
G04 #@! TO.P,U2,4*
G04 #@! TO.N,/A6*
X93980000Y-92710000D03*
G04 #@! TO.P,U2,17*
G04 #@! TO.N,/D5*
X109220000Y-113030000D03*
G04 #@! TO.P,U2,3*
G04 #@! TO.N,/A7*
X93980000Y-90170000D03*
G04 #@! TO.P,U2,16*
G04 #@! TO.N,/D4*
X109220000Y-115570000D03*
G04 #@! TO.P,U2,2*
G04 #@! TO.N,/A12*
X93980000Y-87630000D03*
G04 #@! TO.P,U2,15*
G04 #@! TO.N,/D3*
X109220000Y-118110000D03*
D20*
G04 #@! TO.P,U2,1*
G04 #@! TO.N,N/C*
X93980000Y-85090000D03*
G04 #@! TD*
G04 #@! TO.P,U3,1*
G04 #@! TO.N,FDC_CS*
X93980000Y-44450000D03*
D21*
G04 #@! TO.P,U3,15*
G04 #@! TO.N,+5V*
X109220000Y-77470000D03*
G04 #@! TO.P,U3,2*
G04 #@! TO.N,/WR*
X93980000Y-46990000D03*
G04 #@! TO.P,U3,16*
G04 #@! TO.N,Net-(U1-Pad5)*
X109220000Y-74930000D03*
G04 #@! TO.P,U3,3*
G04 #@! TO.N,/A3*
X93980000Y-49530000D03*
G04 #@! TO.P,U3,17*
G04 #@! TO.N,Net-(U1-Pad11)*
X109220000Y-72390000D03*
G04 #@! TO.P,U3,4*
G04 #@! TO.N,/A4*
X93980000Y-52070000D03*
G04 #@! TO.P,U3,18*
G04 #@! TO.N,Net-(C2-Pad2)*
X109220000Y-69850000D03*
G04 #@! TO.P,U3,5*
G04 #@! TO.N,/D0*
X93980000Y-54610000D03*
G04 #@! TO.P,U3,19*
G04 #@! TO.N,Net-(J1-Pad30)*
X109220000Y-67310000D03*
G04 #@! TO.P,U3,6*
G04 #@! TO.N,/D1*
X93980000Y-57150000D03*
G04 #@! TO.P,U3,20*
G04 #@! TO.N,Net-(U1-Pad3)*
X109220000Y-64770000D03*
G04 #@! TO.P,U3,7*
G04 #@! TO.N,/D2*
X93980000Y-59690000D03*
G04 #@! TO.P,U3,21*
G04 #@! TO.N,Net-(U1-Pad13)*
X109220000Y-62230000D03*
G04 #@! TO.P,U3,8*
G04 #@! TO.N,/D3*
X93980000Y-62230000D03*
G04 #@! TO.P,U3,22*
G04 #@! TO.N,Net-(U1-Pad1)*
X109220000Y-59690000D03*
G04 #@! TO.P,U3,9*
G04 #@! TO.N,/D4*
X93980000Y-64770000D03*
G04 #@! TO.P,U3,23*
G04 #@! TO.N,Net-(J1-Pad26)*
X109220000Y-57150000D03*
G04 #@! TO.P,U3,10*
G04 #@! TO.N,/D5*
X93980000Y-67310000D03*
G04 #@! TO.P,U3,24*
G04 #@! TO.N,Net-(J1-Pad8)*
X109220000Y-54610000D03*
G04 #@! TO.P,U3,11*
G04 #@! TO.N,/D6*
X93980000Y-69850000D03*
G04 #@! TO.P,U3,25*
G04 #@! TO.N,Net-(J1-Pad28)*
X109220000Y-52070000D03*
G04 #@! TO.P,U3,12*
G04 #@! TO.N,/D7*
X93980000Y-72390000D03*
G04 #@! TO.P,U3,26*
G04 #@! TO.N,GND*
X109220000Y-49530000D03*
G04 #@! TO.P,U3,13*
G04 #@! TO.N,/RESET*
X93980000Y-74930000D03*
G04 #@! TO.P,U3,27*
G04 #@! TO.N,N/C*
X109220000Y-46990000D03*
G04 #@! TO.P,U3,14*
G04 #@! TO.N,GND*
X93980000Y-77470000D03*
G04 #@! TO.P,U3,28*
G04 #@! TO.N,N/C*
X109220000Y-44450000D03*
G04 #@! TD*
D22*
G04 #@! TO.P,U4,14*
G04 #@! TO.N,GND*
X68580000Y-67310000D03*
G04 #@! TO.P,U4,7*
G04 #@! TO.N,+5V*
X53340000Y-59690000D03*
G04 #@! TO.P,U4,13*
G04 #@! TO.N,Net-(U10-Pad12)*
X66040000Y-67310000D03*
G04 #@! TO.P,U4,6*
G04 #@! TO.N,Net-(C1-Pad1)*
X55880000Y-59690000D03*
G04 #@! TO.P,U4,12*
G04 #@! TO.N,Net-(U10-Pad8)*
X63500000Y-67310000D03*
G04 #@! TO.P,U4,5*
G04 #@! TO.N,Net-(R6-Pad1)*
X58420000Y-59690000D03*
G04 #@! TO.P,U4,11*
G04 #@! TO.N,Net-(U10-Pad5)*
X60960000Y-67310000D03*
G04 #@! TO.P,U4,4*
G04 #@! TO.N,Net-(R6-Pad1)*
X60960000Y-59690000D03*
G04 #@! TO.P,U4,10*
G04 #@! TO.N,PRN_STR*
X58420000Y-67310000D03*
G04 #@! TO.P,U4,3*
G04 #@! TO.N,Net-(C2-Pad2)*
X63500000Y-59690000D03*
G04 #@! TO.P,U4,9*
G04 #@! TO.N,PRN_STR*
X55880000Y-67310000D03*
G04 #@! TO.P,U4,2*
G04 #@! TO.N,Net-(C1-Pad2)*
X66040000Y-59690000D03*
G04 #@! TO.P,U4,8*
G04 #@! TO.N,Net-(U4-Pad8)*
X53340000Y-67310000D03*
D23*
G04 #@! TO.P,U4,1*
G04 #@! TO.N,Net-(C1-Pad2)*
X68580000Y-59690000D03*
G04 #@! TD*
D20*
G04 #@! TO.P,U5,1*
G04 #@! TO.N,+5V*
X116840000Y-76200000D03*
D21*
G04 #@! TO.P,U5,8*
G04 #@! TO.N,/DS1*
X124460000Y-91440000D03*
G04 #@! TO.P,U5,2*
G04 #@! TO.N,Net-(U5-Pad2)*
X116840000Y-78740000D03*
G04 #@! TO.P,U5,9*
G04 #@! TO.N,Net-(U5-Pad9)*
X124460000Y-88900000D03*
G04 #@! TO.P,U5,3*
G04 #@! TO.N,/XXX*
X116840000Y-81280000D03*
G04 #@! TO.P,U5,10*
G04 #@! TO.N,+5V*
X124460000Y-86360000D03*
G04 #@! TO.P,U5,4*
G04 #@! TO.N,Net-(U4-Pad8)*
X116840000Y-83820000D03*
G04 #@! TO.P,U5,11*
G04 #@! TO.N,/DS0*
X124460000Y-83820000D03*
G04 #@! TO.P,U5,5*
G04 #@! TO.N,Net-(J3-Pad21)*
X116840000Y-86360000D03*
G04 #@! TO.P,U5,12*
G04 #@! TO.N,Net-(U5-Pad12)*
X124460000Y-81280000D03*
G04 #@! TO.P,U5,6*
G04 #@! TO.N,/D7*
X116840000Y-88900000D03*
G04 #@! TO.P,U5,13*
G04 #@! TO.N,+5V*
X124460000Y-78740000D03*
G04 #@! TO.P,U5,7*
G04 #@! TO.N,GND*
X116840000Y-91440000D03*
G04 #@! TO.P,U5,14*
G04 #@! TO.N,+5V*
X124460000Y-76200000D03*
G04 #@! TD*
D20*
G04 #@! TO.P,U6,1*
G04 #@! TO.N,/RESET*
X81280000Y-61595000D03*
D21*
G04 #@! TO.P,U6,9*
G04 #@! TO.N,DSK_CS*
X88900000Y-79375000D03*
G04 #@! TO.P,U6,2*
G04 #@! TO.N,N/C*
X81280000Y-64135000D03*
G04 #@! TO.P,U6,10*
G04 #@! TO.N,Net-(U1-Pad9)*
X88900000Y-76835000D03*
G04 #@! TO.P,U6,3*
G04 #@! TO.N,Net-(U5-Pad12)*
X81280000Y-66675000D03*
G04 #@! TO.P,U6,11*
G04 #@! TO.N,N/C*
X88900000Y-74295000D03*
G04 #@! TO.P,U6,4*
G04 #@! TO.N,/D0*
X81280000Y-69215000D03*
G04 #@! TO.P,U6,12*
G04 #@! TO.N,/D6*
X88900000Y-71755000D03*
G04 #@! TO.P,U6,5*
G04 #@! TO.N,/D1*
X81280000Y-71755000D03*
G04 #@! TO.P,U6,13*
G04 #@! TO.N,/D7*
X88900000Y-69215000D03*
G04 #@! TO.P,U6,6*
G04 #@! TO.N,Net-(U5-Pad9)*
X81280000Y-74295000D03*
G04 #@! TO.P,U6,14*
G04 #@! TO.N,Net-(U5-Pad2)*
X88900000Y-66675000D03*
G04 #@! TO.P,U6,7*
G04 #@! TO.N,N/C*
X81280000Y-76835000D03*
G04 #@! TO.P,U6,15*
X88900000Y-64135000D03*
G04 #@! TO.P,U6,8*
G04 #@! TO.N,GND*
X81280000Y-79375000D03*
G04 #@! TO.P,U6,16*
G04 #@! TO.N,+5V*
X88900000Y-61595000D03*
G04 #@! TD*
D20*
G04 #@! TO.P,U7,1*
G04 #@! TO.N,GND*
X68580000Y-85090000D03*
D21*
G04 #@! TO.P,U7,15*
G04 #@! TO.N,/D3*
X83820000Y-118110000D03*
G04 #@! TO.P,U7,2*
G04 #@! TO.N,/A12*
X68580000Y-87630000D03*
G04 #@! TO.P,U7,16*
G04 #@! TO.N,/D4*
X83820000Y-115570000D03*
G04 #@! TO.P,U7,3*
G04 #@! TO.N,/A7*
X68580000Y-90170000D03*
G04 #@! TO.P,U7,17*
G04 #@! TO.N,/D5*
X83820000Y-113030000D03*
G04 #@! TO.P,U7,4*
G04 #@! TO.N,/A6*
X68580000Y-92710000D03*
G04 #@! TO.P,U7,18*
G04 #@! TO.N,/D6*
X83820000Y-110490000D03*
G04 #@! TO.P,U7,5*
G04 #@! TO.N,/A5*
X68580000Y-95250000D03*
G04 #@! TO.P,U7,19*
G04 #@! TO.N,/D7*
X83820000Y-107950000D03*
G04 #@! TO.P,U7,6*
G04 #@! TO.N,/A4*
X68580000Y-97790000D03*
G04 #@! TO.P,U7,20*
G04 #@! TO.N,/RD*
X83820000Y-105410000D03*
G04 #@! TO.P,U7,7*
G04 #@! TO.N,/A3*
X68580000Y-100330000D03*
G04 #@! TO.P,U7,21*
G04 #@! TO.N,/A10*
X83820000Y-102870000D03*
G04 #@! TO.P,U7,8*
G04 #@! TO.N,/A2*
X68580000Y-102870000D03*
G04 #@! TO.P,U7,22*
G04 #@! TO.N,RAM_CS*
X83820000Y-100330000D03*
G04 #@! TO.P,U7,9*
G04 #@! TO.N,/A1*
X68580000Y-105410000D03*
G04 #@! TO.P,U7,23*
G04 #@! TO.N,/A11*
X83820000Y-97790000D03*
G04 #@! TO.P,U7,10*
G04 #@! TO.N,/A0*
X68580000Y-107950000D03*
G04 #@! TO.P,U7,24*
G04 #@! TO.N,/A9*
X83820000Y-95250000D03*
G04 #@! TO.P,U7,11*
G04 #@! TO.N,/D0*
X68580000Y-110490000D03*
G04 #@! TO.P,U7,25*
G04 #@! TO.N,/A8*
X83820000Y-92710000D03*
G04 #@! TO.P,U7,12*
G04 #@! TO.N,/D1*
X68580000Y-113030000D03*
G04 #@! TO.P,U7,26*
G04 #@! TO.N,GND*
X83820000Y-90170000D03*
G04 #@! TO.P,U7,13*
G04 #@! TO.N,/D2*
X68580000Y-115570000D03*
G04 #@! TO.P,U7,27*
G04 #@! TO.N,/WR*
X83820000Y-87630000D03*
G04 #@! TO.P,U7,14*
G04 #@! TO.N,GND*
X68580000Y-118110000D03*
G04 #@! TO.P,U7,28*
G04 #@! TO.N,+5V*
X83820000Y-85090000D03*
G04 #@! TD*
D20*
G04 #@! TO.P,U8,1*
G04 #@! TO.N,/A14*
X54610000Y-87630000D03*
D21*
G04 #@! TO.P,U8,13*
G04 #@! TO.N,/A1*
X62230000Y-115570000D03*
G04 #@! TO.P,U8,2*
G04 #@! TO.N,/A15*
X54610000Y-90170000D03*
G04 #@! TO.P,U8,14*
G04 #@! TO.N,/A2*
X62230000Y-113030000D03*
G04 #@! TO.P,U8,3*
G04 #@! TO.N,/A13*
X54610000Y-92710000D03*
G04 #@! TO.P,U8,15*
G04 #@! TO.N,ROM_CS*
X62230000Y-110490000D03*
G04 #@! TO.P,U8,4*
G04 #@! TO.N,/MREQ*
X54610000Y-95250000D03*
G04 #@! TO.P,U8,16*
G04 #@! TO.N,RAM_CS*
X62230000Y-107950000D03*
G04 #@! TO.P,U8,5*
G04 #@! TO.N,/IOREQ*
X54610000Y-97790000D03*
G04 #@! TO.P,U8,17*
G04 #@! TO.N,N/C*
X62230000Y-105410000D03*
G04 #@! TO.P,U8,6*
G04 #@! TO.N,/RD*
X54610000Y-100330000D03*
G04 #@! TO.P,U8,18*
G04 #@! TO.N,PRN_CS*
X62230000Y-102870000D03*
G04 #@! TO.P,U8,7*
G04 #@! TO.N,/WR*
X54610000Y-102870000D03*
G04 #@! TO.P,U8,19*
G04 #@! TO.N,DSK_CS*
X62230000Y-100330000D03*
G04 #@! TO.P,U8,8*
G04 #@! TO.N,/A6*
X54610000Y-105410000D03*
G04 #@! TO.P,U8,20*
G04 #@! TO.N,PRN_STR*
X62230000Y-97790000D03*
G04 #@! TO.P,U8,9*
G04 #@! TO.N,/A5*
X54610000Y-107950000D03*
G04 #@! TO.P,U8,21*
G04 #@! TO.N,Net-(D2-Pad1)*
X62230000Y-95250000D03*
G04 #@! TO.P,U8,10*
G04 #@! TO.N,/A4*
X54610000Y-110490000D03*
G04 #@! TO.P,U8,22*
G04 #@! TO.N,FDC_CS*
X62230000Y-92710000D03*
G04 #@! TO.P,U8,11*
G04 #@! TO.N,/A3*
X54610000Y-113030000D03*
G04 #@! TO.P,U8,23*
G04 #@! TO.N,Net-(C4-Pad2)*
X62230000Y-90170000D03*
G04 #@! TO.P,U8,12*
G04 #@! TO.N,GND*
X54610000Y-115570000D03*
G04 #@! TO.P,U8,24*
G04 #@! TO.N,+5V*
X62230000Y-87630000D03*
G04 #@! TD*
D20*
G04 #@! TO.P,U9,1*
G04 #@! TO.N,GND*
X116840000Y-95250000D03*
D21*
G04 #@! TO.P,U9,11*
G04 #@! TO.N,PRN_CS*
X124460000Y-118110000D03*
G04 #@! TO.P,U9,2*
G04 #@! TO.N,Net-(J3-Pad5)*
X116840000Y-97790000D03*
G04 #@! TO.P,U9,12*
G04 #@! TO.N,Net-(J3-Pad17)*
X124460000Y-115570000D03*
G04 #@! TO.P,U9,3*
G04 #@! TO.N,/D1*
X116840000Y-100330000D03*
G04 #@! TO.P,U9,13*
G04 #@! TO.N,/D7*
X124460000Y-113030000D03*
G04 #@! TO.P,U9,4*
G04 #@! TO.N,/D2*
X116840000Y-102870000D03*
G04 #@! TO.P,U9,14*
G04 #@! TO.N,/D4*
X124460000Y-110490000D03*
G04 #@! TO.P,U9,5*
G04 #@! TO.N,Net-(J3-Pad7)*
X116840000Y-105410000D03*
G04 #@! TO.P,U9,15*
G04 #@! TO.N,Net-(J3-Pad11)*
X124460000Y-107950000D03*
G04 #@! TO.P,U9,6*
G04 #@! TO.N,Net-(J3-Pad13)*
X116840000Y-107950000D03*
G04 #@! TO.P,U9,16*
G04 #@! TO.N,Net-(J3-Pad9)*
X124460000Y-105410000D03*
G04 #@! TO.P,U9,7*
G04 #@! TO.N,/D5*
X116840000Y-110490000D03*
G04 #@! TO.P,U9,17*
G04 #@! TO.N,/D3*
X124460000Y-102870000D03*
G04 #@! TO.P,U9,8*
G04 #@! TO.N,/D6*
X116840000Y-113030000D03*
G04 #@! TO.P,U9,18*
G04 #@! TO.N,/D0*
X124460000Y-100330000D03*
G04 #@! TO.P,U9,9*
G04 #@! TO.N,Net-(J3-Pad15)*
X116840000Y-115570000D03*
G04 #@! TO.P,U9,19*
G04 #@! TO.N,Net-(J3-Pad3)*
X124460000Y-97790000D03*
G04 #@! TO.P,U9,10*
G04 #@! TO.N,GND*
X116840000Y-118110000D03*
G04 #@! TO.P,U9,20*
G04 #@! TO.N,+5V*
X124460000Y-95250000D03*
G04 #@! TD*
D22*
G04 #@! TO.P,U10,14*
G04 #@! TO.N,+5V*
X68580000Y-80010000D03*
G04 #@! TO.P,U10,7*
G04 #@! TO.N,GND*
X53340000Y-72390000D03*
G04 #@! TO.P,U10,13*
G04 #@! TO.N,/A9*
X66040000Y-80010000D03*
G04 #@! TO.P,U10,6*
G04 #@! TO.N,Net-(R8-Pad2)*
X55880000Y-72390000D03*
G04 #@! TO.P,U10,12*
G04 #@! TO.N,Net-(U10-Pad12)*
X63500000Y-80010000D03*
G04 #@! TO.P,U10,5*
G04 #@! TO.N,Net-(U10-Pad5)*
X58420000Y-72390000D03*
G04 #@! TO.P,U10,11*
G04 #@! TO.N,/A8*
X60960000Y-80010000D03*
G04 #@! TO.P,U10,4*
G04 #@! TO.N,/M1*
X60960000Y-72390000D03*
G04 #@! TO.P,U10,10*
G04 #@! TO.N,/A7*
X58420000Y-80010000D03*
G04 #@! TO.P,U10,3*
G04 #@! TO.N,/A12*
X63500000Y-72390000D03*
G04 #@! TO.P,U10,9*
G04 #@! TO.N,/A0*
X55880000Y-80010000D03*
G04 #@! TO.P,U10,2*
G04 #@! TO.N,/A11*
X66040000Y-72390000D03*
G04 #@! TO.P,U10,8*
G04 #@! TO.N,Net-(U10-Pad8)*
X53340000Y-80010000D03*
D23*
G04 #@! TO.P,U10,1*
G04 #@! TO.N,/A10*
X68580000Y-72390000D03*
G04 #@! TD*
D24*
G04 #@! TO.P,Y1,1*
G04 #@! TO.N,Net-(C2-Pad1)*
X67310000Y-54610000D03*
G04 #@! TO.P,Y1,2*
G04 #@! TO.N,Net-(R6-Pad1)*
X62410000Y-54610000D03*
G04 #@! TD*
D12*
G04 #@! TO.P,D1,1*
G04 #@! TO.N,ZX_ROMOE1*
X43180000Y-58420000D03*
D18*
G04 #@! TO.P,D1,2*
G04 #@! TO.N,Net-(D1-Pad2)*
X43180000Y-66040000D03*
G04 #@! TD*
D12*
G04 #@! TO.P,D3,1*
G04 #@! TO.N,ZX_ROMOE2*
X43180000Y-86360000D03*
D18*
G04 #@! TO.P,D3,2*
G04 #@! TO.N,Net-(D1-Pad2)*
X43180000Y-78740000D03*
G04 #@! TD*
G04 #@! TO.P,D4,2*
G04 #@! TO.N,Net-(D4-Pad2)*
X43180000Y-104140000D03*
D12*
G04 #@! TO.P,D4,1*
G04 #@! TO.N,ZX_ROMOE48*
X43180000Y-111760000D03*
G04 #@! TD*
D25*
G04 #@! TO.N,GND*
X43973500Y-84898500D03*
G04 #@! TO.N,/RESET*
X82717500Y-70441100D03*
X44259900Y-89150500D03*
X79837700Y-87955400D03*
G04 #@! TO.N,+9V*
X46326200Y-52370000D03*
G04 #@! TO.N,Net-(D2-Pad1)*
X49560300Y-70401800D03*
X58789300Y-109517800D03*
X57285300Y-101985800D03*
X58616200Y-96559400D03*
G04 #@! TO.N,/A5*
X60106600Y-100690100D03*
G04 #@! TO.N,/A7*
X72990800Y-90643400D03*
X44259900Y-90199100D03*
G04 #@! TO.N,/A10*
X102471600Y-102691300D03*
G04 #@! TO.N,/A8*
X72953900Y-82471800D03*
G04 #@! TO.N,/M1*
X59989000Y-94789000D03*
G04 #@! TO.N,/A12*
X50782700Y-65601000D03*
G04 #@! TO.N,/RD*
X59561400Y-106686300D03*
G04 #@! TO.N,NMI*
X46937400Y-79559000D03*
X49942500Y-57110600D03*
G04 #@! TO.N,/D4*
X97793700Y-82971700D03*
G04 #@! TO.N,/D3*
X74748200Y-74001800D03*
X77205500Y-62159700D03*
G04 #@! TO.N,/D5*
X94684200Y-79997200D03*
G04 #@! TO.N,/D2*
X70209000Y-67330000D03*
X73581800Y-66142100D03*
G04 #@! TO.N,/D1*
X85701300Y-61634400D03*
G04 #@! TO.N,/A13*
X44477500Y-56204300D03*
G04 #@! TO.N,/A15*
X47717800Y-60371700D03*
G04 #@! TO.N,Net-(U1-Pad9)*
X111162100Y-78239900D03*
G04 #@! TO.N,FDC_CS*
X76250800Y-79729900D03*
X72255500Y-85538800D03*
G04 #@! TO.N,Net-(U5-Pad9)*
X85243500Y-79858500D03*
G04 #@! TO.N,DSK_CS*
X74184400Y-86873800D03*
G04 #@! TO.N,RAM_CS*
X74596200Y-108332900D03*
G04 #@! TO.N,PRN_CS*
X64747400Y-103943200D03*
X63890900Y-112169200D03*
G04 #@! TD*
D26*
G04 #@! TO.N,Net-(C1-Pad1)*
X55880000Y-58164700D02*
X55880000Y-47834000D01*
X55880000Y-47834000D02*
X60678700Y-43035300D01*
X60678700Y-43035300D02*
X60960000Y-43035300D01*
X55880000Y-59690000D02*
X55880000Y-58164700D01*
X60960000Y-41910000D02*
X60960000Y-43035300D01*
G04 #@! TO.N,Net-(C1-Pad2)*
X68580000Y-59690000D02*
X77470000Y-59690000D01*
X68580000Y-59690000D02*
X66040000Y-59690000D01*
G04 #@! TO.N,Net-(C2-Pad2)*
X63500000Y-61215300D02*
X63950300Y-61665600D01*
X63950300Y-61665600D02*
X67502600Y-61665600D01*
X67502600Y-61665600D02*
X73147000Y-67310000D01*
X73147000Y-67310000D02*
X77470000Y-67310000D01*
X78595300Y-67310000D02*
X80500300Y-65405000D01*
X80500300Y-65405000D02*
X83753700Y-65405000D01*
X83753700Y-65405000D02*
X86160000Y-62998700D01*
X86160000Y-62998700D02*
X92443700Y-62998700D01*
X92443700Y-62998700D02*
X93089600Y-63644600D01*
X93089600Y-63644600D02*
X101489300Y-63644600D01*
X101489300Y-63644600D02*
X107694700Y-69850000D01*
X109220000Y-69850000D02*
X107694700Y-69850000D01*
X77470000Y-67310000D02*
X78595300Y-67310000D01*
X63500000Y-59690000D02*
X63500000Y-61215300D01*
G04 #@! TO.N,GND*
X79071000Y-59685600D02*
X77322200Y-61434400D01*
X77322200Y-61434400D02*
X76905100Y-61434400D01*
X76905100Y-61434400D02*
X76773000Y-61566500D01*
X76773000Y-61566500D02*
X75593500Y-61566500D01*
X75593500Y-61566500D02*
X72390000Y-64770000D01*
X70105300Y-85090000D02*
X71363700Y-85090000D01*
X71363700Y-85090000D02*
X74930000Y-81523700D01*
X74930000Y-81523700D02*
X74930000Y-81280000D01*
X75849500Y-78800600D02*
X74930000Y-79720100D01*
X74930000Y-79720100D02*
X74930000Y-81280000D01*
X79754700Y-79375000D02*
X79180300Y-78800600D01*
X79180300Y-78800600D02*
X75849500Y-78800600D01*
X75849500Y-78800600D02*
X75849500Y-77754500D01*
X75849500Y-77754500D02*
X73025000Y-74930000D01*
X93980000Y-77470000D02*
X95505300Y-77470000D01*
X104180000Y-81280000D02*
X99315300Y-81280000D01*
X99315300Y-81280000D02*
X95505300Y-77470000D01*
X130904700Y-46622600D02*
X130096800Y-45814700D01*
X130096800Y-45814700D02*
X126773200Y-45814700D01*
X126773200Y-45814700D02*
X125518200Y-44559700D01*
X125518200Y-44559700D02*
X115715600Y-44559700D01*
X115715600Y-44559700D02*
X110745300Y-49530000D01*
X130904700Y-46990000D02*
X130904700Y-46622600D01*
X130904700Y-46622600D02*
X131902000Y-45625300D01*
X131902000Y-45625300D02*
X132080000Y-45625300D01*
X132080000Y-44450000D02*
X132080000Y-45625300D01*
X109220000Y-49530000D02*
X110745300Y-49530000D01*
X132080000Y-46990000D02*
X130904700Y-46990000D01*
X132080000Y-66110300D02*
X132080000Y-64770000D01*
X132080000Y-67310000D02*
X132080000Y-66110300D01*
X132080000Y-66110300D02*
X127966500Y-66110300D01*
X127966500Y-66110300D02*
X126911400Y-67165400D01*
X126911400Y-67165400D02*
X119779900Y-67165400D01*
X119779900Y-67165400D02*
X118365300Y-68580000D01*
X116840000Y-68580000D02*
X118365300Y-68580000D01*
X106045000Y-49530000D02*
X106045000Y-40640000D01*
X87630000Y-57110000D02*
X91255400Y-53484600D01*
X91255400Y-53484600D02*
X102090400Y-53484600D01*
X102090400Y-53484600D02*
X106045000Y-49530000D01*
X106045000Y-49530000D02*
X107694700Y-49530000D01*
X109220000Y-49530000D02*
X107694700Y-49530000D01*
X81280000Y-58420000D02*
X86320000Y-58420000D01*
X86320000Y-58420000D02*
X87630000Y-57110000D01*
X116840000Y-91440000D02*
X113030000Y-91440000D01*
X43973500Y-84898500D02*
X50991500Y-84898500D01*
X50991500Y-84898500D02*
X52070000Y-83820000D01*
X79071000Y-59685600D02*
X80336600Y-58420000D01*
X80336600Y-58420000D02*
X81280000Y-58420000D01*
X79071000Y-59685600D02*
X75225300Y-55840000D01*
X75225300Y-55840000D02*
X74930000Y-55840000D01*
X120270300Y-93345000D02*
X118365300Y-95250000D01*
X130904700Y-93612600D02*
X130094400Y-92802300D01*
X130094400Y-92802300D02*
X120813000Y-92802300D01*
X120813000Y-92802300D02*
X120270300Y-93345000D01*
X120270300Y-93345000D02*
X118365300Y-91440000D01*
X116840000Y-91440000D02*
X118365300Y-91440000D01*
X130904700Y-93612600D02*
X131902000Y-92615300D01*
X131902000Y-92615300D02*
X132080000Y-92615300D01*
X130904700Y-93980000D02*
X130904700Y-93612600D01*
X116840000Y-95250000D02*
X118365300Y-95250000D01*
X52070000Y-83820000D02*
X53206300Y-82683700D01*
X53206300Y-82683700D02*
X61093700Y-82683700D01*
X61093700Y-82683700D02*
X62230000Y-83820000D01*
X132080000Y-91440000D02*
X132080000Y-92615300D01*
X132080000Y-93980000D02*
X130904700Y-93980000D01*
X113030000Y-68580000D02*
X116840000Y-68580000D01*
X93980000Y-118110000D02*
X95505300Y-118110000D01*
X113030000Y-118110000D02*
X111900600Y-119239400D01*
X111900600Y-119239400D02*
X96634700Y-119239400D01*
X96634700Y-119239400D02*
X95505300Y-118110000D01*
X116840000Y-118110000D02*
X113030000Y-118110000D01*
X81280000Y-79375000D02*
X79754700Y-79375000D01*
X68580000Y-85090000D02*
X63500000Y-85090000D01*
X63500000Y-85090000D02*
X62230000Y-83820000D01*
X68580000Y-118110000D02*
X67054700Y-118110000D01*
X67054700Y-118110000D02*
X58675300Y-118110000D01*
X58675300Y-118110000D02*
X56135300Y-115570000D01*
X68580000Y-85090000D02*
X70105300Y-85090000D01*
X67310000Y-44450000D02*
X71120000Y-44450000D01*
X54610000Y-115570000D02*
X56135300Y-115570000D01*
G04 #@! TO.N,/RESET*
X79837700Y-87955400D02*
X79037700Y-88755400D01*
X79037700Y-88755400D02*
X44655000Y-88755400D01*
X44655000Y-88755400D02*
X44259900Y-89150500D01*
X92454700Y-74930000D02*
X92454700Y-73286200D01*
X92454700Y-73286200D02*
X89609600Y-70441100D01*
X89609600Y-70441100D02*
X82717500Y-70441100D01*
X93980000Y-74930000D02*
X92454700Y-74930000D01*
G04 #@! TO.N,Net-(C4-Pad2)*
X49530000Y-80010000D02*
X51563600Y-82043600D01*
X51563600Y-82043600D02*
X62953600Y-82043600D01*
X62953600Y-82043600D02*
X64730000Y-83820000D01*
G04 #@! TO.N,+9V*
X46326200Y-52370000D02*
X57911600Y-40784600D01*
X57911600Y-40784600D02*
X66144600Y-40784600D01*
X66144600Y-40784600D02*
X67310000Y-41950000D01*
X71120000Y-41910000D02*
X69894700Y-41910000D01*
X67310000Y-41950000D02*
X69854700Y-41950000D01*
X69854700Y-41950000D02*
X69894700Y-41910000D01*
G04 #@! TO.N,+5V*
X87630000Y-54610000D02*
X82590000Y-54610000D01*
X82590000Y-54610000D02*
X81280000Y-55920000D01*
X73025000Y-77430000D02*
X70445000Y-80010000D01*
X70445000Y-80010000D02*
X68580000Y-80010000D01*
X73459100Y-86456400D02*
X77430000Y-82485500D01*
X77430000Y-82485500D02*
X77430000Y-81280000D01*
X63755300Y-87630000D02*
X64928900Y-86456400D01*
X64928900Y-86456400D02*
X73459100Y-86456400D01*
X73459100Y-86456400D02*
X73459100Y-87174200D01*
X73459100Y-87174200D02*
X73884000Y-87599100D01*
X73884000Y-87599100D02*
X78136000Y-87599100D01*
X78136000Y-87599100D02*
X80645100Y-85090000D01*
X80645100Y-85090000D02*
X82294700Y-85090000D01*
X64770000Y-58137400D02*
X64770000Y-60420500D01*
X64770000Y-60420500D02*
X65564800Y-61215300D01*
X65564800Y-61215300D02*
X71335300Y-61215300D01*
X71335300Y-61215300D02*
X72390000Y-62270000D01*
X71120000Y-48215300D02*
X64770000Y-54565300D01*
X64770000Y-54565300D02*
X64770000Y-58137400D01*
X53340000Y-61215300D02*
X56361400Y-61215300D01*
X56361400Y-61215300D02*
X57150000Y-60426700D01*
X57150000Y-60426700D02*
X57150000Y-58871500D01*
X57150000Y-58871500D02*
X57884100Y-58137400D01*
X57884100Y-58137400D02*
X64770000Y-58137400D01*
X111904700Y-78740000D02*
X111904700Y-77956700D01*
X111904700Y-77956700D02*
X111418000Y-77470000D01*
X111418000Y-77470000D02*
X110745300Y-77470000D01*
X124460000Y-76200000D02*
X118365300Y-76200000D01*
X116840000Y-76200000D02*
X118365300Y-76200000D01*
X118365300Y-76200000D02*
X118365300Y-75040600D01*
X118365300Y-75040600D02*
X116840000Y-73515300D01*
X116840000Y-72390000D02*
X116840000Y-73515300D01*
X85345300Y-85090000D02*
X91520000Y-85090000D01*
X91520000Y-85090000D02*
X91520000Y-85090100D01*
X91520000Y-85090100D02*
X92645200Y-86215300D01*
X92645200Y-86215300D02*
X106569400Y-86215300D01*
X106569400Y-86215300D02*
X107694700Y-85090000D01*
X109220000Y-77470000D02*
X107694700Y-77470000D01*
X106680000Y-81280000D02*
X106680000Y-78484700D01*
X106680000Y-78484700D02*
X107694700Y-77470000D01*
X113030000Y-78740000D02*
X111904700Y-78740000D01*
X109220000Y-77470000D02*
X110745300Y-77470000D01*
X83820000Y-85090000D02*
X85345300Y-85090000D01*
X109220000Y-85090000D02*
X107694700Y-85090000D01*
X62230000Y-87630000D02*
X63755300Y-87630000D01*
X61467400Y-87630000D02*
X62230000Y-87630000D01*
X83820000Y-85090000D02*
X82294700Y-85090000D01*
X116840000Y-41910000D02*
X109815000Y-41910000D01*
X109815000Y-41910000D02*
X108545000Y-40640000D01*
X109220000Y-87630000D02*
X110745300Y-87630000D01*
X110745300Y-87630000D02*
X112055300Y-88940000D01*
X112055300Y-88940000D02*
X113030000Y-88940000D01*
X71120000Y-46990000D02*
X71120000Y-48215300D01*
X53340000Y-59690000D02*
X53340000Y-61215300D01*
X54570000Y-83820000D02*
X58380000Y-87630000D01*
X58380000Y-87630000D02*
X60704700Y-87630000D01*
X61467400Y-87630000D02*
X60704700Y-87630000D01*
G04 #@! TO.N,Net-(D2-Pad1)*
X43180000Y-72390000D02*
X44355300Y-72390000D01*
X49560300Y-70401800D02*
X46343500Y-70401800D01*
X46343500Y-70401800D02*
X44355300Y-72390000D01*
X58616200Y-96559400D02*
X59395300Y-96559400D01*
X59395300Y-96559400D02*
X60704700Y-95250000D01*
X57285300Y-101985800D02*
X57377900Y-101893200D01*
X57377900Y-101893200D02*
X57377900Y-97797700D01*
X57377900Y-97797700D02*
X58616200Y-96559400D01*
X48260000Y-116840000D02*
X49485300Y-116840000D01*
X58789300Y-109517800D02*
X58789300Y-110871100D01*
X58789300Y-110871100D02*
X55360400Y-114300000D01*
X55360400Y-114300000D02*
X52025300Y-114300000D01*
X52025300Y-114300000D02*
X49485300Y-116840000D01*
X62230000Y-95250000D02*
X60704700Y-95250000D01*
G04 #@! TO.N,Net-(D2-Pad2)*
X54610000Y-119380000D02*
X48260000Y-119380000D01*
G04 #@! TO.N,Net-(J1-Pad8)*
X129540000Y-71214700D02*
X129907400Y-71214700D01*
X129907400Y-71214700D02*
X130715300Y-70406800D01*
X130715300Y-70406800D02*
X130715300Y-69550500D01*
X130715300Y-69550500D02*
X131780400Y-68485400D01*
X131780400Y-68485400D02*
X132615500Y-68485400D01*
X132615500Y-68485400D02*
X133258200Y-67842700D01*
X133258200Y-67842700D02*
X133258200Y-64257400D01*
X133258200Y-64257400D02*
X132500800Y-63500000D01*
X132500800Y-63500000D02*
X131649000Y-63500000D01*
X131649000Y-63500000D02*
X130904600Y-62755600D01*
X130904600Y-62755600D02*
X130904600Y-49205500D01*
X130904600Y-49205500D02*
X130053700Y-48354600D01*
X130053700Y-48354600D02*
X123895500Y-48354600D01*
X123895500Y-48354600D02*
X120672500Y-51577600D01*
X120672500Y-51577600D02*
X113777700Y-51577600D01*
X113777700Y-51577600D02*
X110745300Y-54610000D01*
X129540000Y-72390000D02*
X129540000Y-71214700D01*
X109220000Y-54610000D02*
X110745300Y-54610000D01*
X124460000Y-72390000D02*
X128364700Y-72390000D01*
X129540000Y-72390000D02*
X128364700Y-72390000D01*
G04 #@! TO.N,Net-(J1-Pad18)*
X129540000Y-59690000D02*
X129540000Y-60865300D01*
X124460000Y-63500000D02*
X125985300Y-63500000D01*
X125985300Y-63500000D02*
X128620000Y-60865300D01*
X128620000Y-60865300D02*
X129540000Y-60865300D01*
G04 #@! TO.N,Net-(J1-Pad20)*
X118365300Y-66040000D02*
X122066300Y-62339000D01*
X122066300Y-62339000D02*
X125143000Y-62339000D01*
X125143000Y-62339000D02*
X129156700Y-58325300D01*
X129156700Y-58325300D02*
X129540000Y-58325300D01*
X129540000Y-57150000D02*
X129540000Y-58325300D01*
X116840000Y-66040000D02*
X118365300Y-66040000D01*
G04 #@! TO.N,Net-(J1-Pad22)*
X116840000Y-55880000D02*
X118365300Y-55880000D01*
X118365300Y-55880000D02*
X119635300Y-54610000D01*
X119635300Y-54610000D02*
X129540000Y-54610000D01*
G04 #@! TO.N,Net-(J1-Pad26)*
X109220000Y-57150000D02*
X110745300Y-57150000D01*
X110745300Y-57150000D02*
X110745300Y-56959300D01*
X110745300Y-56959300D02*
X115490000Y-52214600D01*
X115490000Y-52214600D02*
X121775400Y-52214600D01*
X121775400Y-52214600D02*
X124460000Y-49530000D01*
X124460000Y-49530000D02*
X128364700Y-49530000D01*
X129540000Y-49530000D02*
X128364700Y-49530000D01*
G04 #@! TO.N,Net-(J1-Pad28)*
X110745300Y-52070000D02*
X114817100Y-47998200D01*
X114817100Y-47998200D02*
X123134300Y-47998200D01*
X123134300Y-47998200D02*
X124460000Y-46672500D01*
X124460000Y-46672500D02*
X128047200Y-46672500D01*
X128047200Y-46672500D02*
X128364700Y-46990000D01*
X124460000Y-46672500D02*
X124460000Y-45720000D01*
X129540000Y-46990000D02*
X128364700Y-46990000D01*
X109220000Y-52070000D02*
X110745300Y-52070000D01*
G04 #@! TO.N,Net-(J1-Pad30)*
X129540000Y-44450000D02*
X127000000Y-44450000D01*
X127000000Y-44450000D02*
X124460000Y-41910000D01*
G04 #@! TO.N,/A11*
X109220000Y-97790000D02*
X107694700Y-97790000D01*
X83820000Y-97790000D02*
X85345300Y-97790000D01*
X85345300Y-97790000D02*
X86494600Y-98939300D01*
X86494600Y-98939300D02*
X106545400Y-98939300D01*
X106545400Y-98939300D02*
X107694700Y-97790000D01*
G04 #@! TO.N,/A9*
X107694700Y-95250000D02*
X106545400Y-96399300D01*
X106545400Y-96399300D02*
X86494600Y-96399300D01*
X86494600Y-96399300D02*
X85345300Y-95250000D01*
X109220000Y-95250000D02*
X107694700Y-95250000D01*
X83820000Y-95250000D02*
X85345300Y-95250000D01*
G04 #@! TO.N,/A4*
X93980000Y-97790000D02*
X85982200Y-97790000D01*
X85982200Y-97790000D02*
X84832400Y-96640200D01*
X84832400Y-96640200D02*
X71255100Y-96640200D01*
X71255100Y-96640200D02*
X70105300Y-97790000D01*
X68580000Y-97790000D02*
X67054700Y-97790000D01*
X54610000Y-110490000D02*
X57486300Y-107613700D01*
X57486300Y-107613700D02*
X57486300Y-105622100D01*
X57486300Y-105622100D02*
X61434500Y-101673900D01*
X61434500Y-101673900D02*
X63170800Y-101673900D01*
X63170800Y-101673900D02*
X67054700Y-97790000D01*
X68580000Y-97790000D02*
X70105300Y-97790000D01*
G04 #@! TO.N,/A5*
X56135300Y-107950000D02*
X57035900Y-107049400D01*
X57035900Y-107049400D02*
X57035900Y-104766600D01*
X57035900Y-104766600D02*
X60106600Y-101695900D01*
X60106600Y-101695900D02*
X60106600Y-100690100D01*
X70105300Y-95250000D02*
X71254500Y-94100800D01*
X71254500Y-94100800D02*
X90668600Y-94100800D01*
X90668600Y-94100800D02*
X91817800Y-95250000D01*
X91817800Y-95250000D02*
X92454700Y-95250000D01*
X54610000Y-107950000D02*
X56135300Y-107950000D01*
X68580000Y-95250000D02*
X70105300Y-95250000D01*
X93980000Y-95250000D02*
X92454700Y-95250000D01*
G04 #@! TO.N,/A6*
X56135300Y-105410000D02*
X56135300Y-104161600D01*
X56135300Y-104161600D02*
X58010600Y-102286300D01*
X58010600Y-102286300D02*
X58010600Y-101685300D01*
X58010600Y-101685300D02*
X58010400Y-101685100D01*
X58010400Y-101685100D02*
X58010400Y-99993000D01*
X58010400Y-99993000D02*
X61628000Y-96375400D01*
X61628000Y-96375400D02*
X63389300Y-96375400D01*
X63389300Y-96375400D02*
X67054700Y-92710000D01*
X70105300Y-92710000D02*
X71248000Y-91567300D01*
X71248000Y-91567300D02*
X91312000Y-91567300D01*
X91312000Y-91567300D02*
X92454700Y-92710000D01*
X68580000Y-92710000D02*
X67054700Y-92710000D01*
X69013500Y-92710000D02*
X68580000Y-92710000D01*
X54610000Y-105410000D02*
X56135300Y-105410000D01*
X69013500Y-92710000D02*
X70105300Y-92710000D01*
X93980000Y-92710000D02*
X92454700Y-92710000D01*
G04 #@! TO.N,/A7*
X44259900Y-90199100D02*
X51843700Y-90199100D01*
X51843700Y-90199100D02*
X52939900Y-91295300D01*
X52939900Y-91295300D02*
X65929400Y-91295300D01*
X65929400Y-91295300D02*
X67054700Y-90170000D01*
X58420000Y-78484700D02*
X49037500Y-78484700D01*
X49037500Y-78484700D02*
X42661000Y-84861200D01*
X42661000Y-84861200D02*
X42584400Y-84861200D01*
X42584400Y-84861200D02*
X42049200Y-85396400D01*
X42049200Y-85396400D02*
X42049200Y-87988400D01*
X42049200Y-87988400D02*
X44259900Y-90199100D01*
X93980000Y-90170000D02*
X92454700Y-90170000D01*
X72990800Y-90643400D02*
X80411300Y-90643400D01*
X80411300Y-90643400D02*
X82034000Y-89020700D01*
X82034000Y-89020700D02*
X91305400Y-89020700D01*
X91305400Y-89020700D02*
X92454700Y-90170000D01*
X68580000Y-90170000D02*
X67054700Y-90170000D01*
X58420000Y-80010000D02*
X58420000Y-78484700D01*
G04 #@! TO.N,/A10*
X82294700Y-102870000D02*
X71515300Y-102870000D01*
X71515300Y-102870000D02*
X70324700Y-104060600D01*
X70324700Y-104060600D02*
X67015600Y-104060600D01*
X67015600Y-104060600D02*
X66163000Y-104913200D01*
X66163000Y-104913200D02*
X64268300Y-104913200D01*
X64268300Y-104913200D02*
X63637300Y-104282200D01*
X63637300Y-104282200D02*
X60939800Y-104282200D01*
X60939800Y-104282200D02*
X58836100Y-106385900D01*
X58836100Y-106385900D02*
X58836100Y-108337200D01*
X58836100Y-108337200D02*
X55413300Y-111760000D01*
X55413300Y-111760000D02*
X50789000Y-111760000D01*
X50789000Y-111760000D02*
X45709000Y-116840000D01*
X45709000Y-116840000D02*
X38100000Y-116840000D01*
X83820000Y-102870000D02*
X90551700Y-102870000D01*
X90551700Y-102870000D02*
X91677100Y-103995400D01*
X91677100Y-103995400D02*
X101167500Y-103995400D01*
X101167500Y-103995400D02*
X102471600Y-102691300D01*
X83820000Y-102870000D02*
X82294700Y-102870000D01*
G04 #@! TO.N,/A8*
X60960000Y-81535300D02*
X72017400Y-81535300D01*
X72017400Y-81535300D02*
X72953900Y-82471800D01*
X38100000Y-114300000D02*
X43819800Y-114300000D01*
X43819800Y-114300000D02*
X51439800Y-106680000D01*
X51439800Y-106680000D02*
X55540800Y-106680000D01*
X55540800Y-106680000D02*
X56585600Y-105635200D01*
X56585600Y-105635200D02*
X56585600Y-104348200D01*
X56585600Y-104348200D02*
X58460900Y-102472900D01*
X58460900Y-102472900D02*
X58460900Y-101224500D01*
X58460900Y-101224500D02*
X60756400Y-98929000D01*
X60756400Y-98929000D02*
X63113400Y-98929000D01*
X63113400Y-98929000D02*
X65666600Y-96375800D01*
X65666600Y-96375800D02*
X65666600Y-96136500D01*
X65666600Y-96136500D02*
X67880800Y-93922300D01*
X67880800Y-93922300D02*
X70621400Y-93922300D01*
X70621400Y-93922300D02*
X71833700Y-92710000D01*
X71833700Y-92710000D02*
X83820000Y-92710000D01*
X60960000Y-80010000D02*
X60960000Y-81535300D01*
X107694700Y-92710000D02*
X106529100Y-93875600D01*
X106529100Y-93875600D02*
X91398600Y-93875600D01*
X91398600Y-93875600D02*
X90233000Y-92710000D01*
X90233000Y-92710000D02*
X83820000Y-92710000D01*
X109220000Y-92710000D02*
X107694700Y-92710000D01*
G04 #@! TO.N,/M1*
X38100000Y-109220000D02*
X42868800Y-109220000D01*
X42868800Y-109220000D02*
X47948800Y-104140000D01*
X47948800Y-104140000D02*
X55337400Y-104140000D01*
X55337400Y-104140000D02*
X56559800Y-102917600D01*
X56559800Y-102917600D02*
X56559800Y-101685200D01*
X56559800Y-101685200D02*
X56894700Y-101350300D01*
X56894700Y-101350300D02*
X56894700Y-97250700D01*
X56894700Y-97250700D02*
X59356400Y-94789000D01*
X59356400Y-94789000D02*
X59989000Y-94789000D01*
G04 #@! TO.N,/WR*
X82294700Y-87630000D02*
X80391700Y-89533000D01*
X80391700Y-89533000D02*
X71208500Y-89533000D01*
X71208500Y-89533000D02*
X69399300Y-91342200D01*
X69399300Y-91342200D02*
X67747600Y-91342200D01*
X67747600Y-91342200D02*
X65109800Y-93980000D01*
X65109800Y-93980000D02*
X59415900Y-93980000D01*
X59415900Y-93980000D02*
X56135400Y-97260500D01*
X56135400Y-97260500D02*
X56135400Y-101344600D01*
X56135400Y-101344600D02*
X54610000Y-102870000D01*
X53847400Y-102870000D02*
X54610000Y-102870000D01*
X83820000Y-87630000D02*
X82294700Y-87630000D01*
X53847400Y-102870000D02*
X53084700Y-102870000D01*
X40965300Y-96520000D02*
X42092000Y-97646700D01*
X42092000Y-97646700D02*
X47861400Y-97646700D01*
X47861400Y-97646700D02*
X53084700Y-102870000D01*
X38100000Y-96520000D02*
X40965300Y-96520000D01*
G04 #@! TO.N,/A3*
X68580000Y-100330000D02*
X70105300Y-100330000D01*
X70105300Y-100330000D02*
X71231100Y-99204200D01*
X71231100Y-99204200D02*
X85159900Y-99204200D01*
X85159900Y-99204200D02*
X86285700Y-100330000D01*
X86285700Y-100330000D02*
X93980000Y-100330000D01*
G04 #@! TO.N,/A2*
X93980000Y-102870000D02*
X92454700Y-102870000D01*
X68580000Y-102870000D02*
X70105300Y-102870000D01*
X70105300Y-102870000D02*
X71254600Y-101720700D01*
X71254600Y-101720700D02*
X91305400Y-101720700D01*
X91305400Y-101720700D02*
X92454700Y-102870000D01*
G04 #@! TO.N,/A1*
X70105300Y-105410000D02*
X71254600Y-104260700D01*
X71254600Y-104260700D02*
X91305400Y-104260700D01*
X91305400Y-104260700D02*
X92454700Y-105410000D01*
X69342700Y-105410000D02*
X68580000Y-105410000D01*
X69342700Y-105410000D02*
X70105300Y-105410000D01*
X93980000Y-105410000D02*
X92454700Y-105410000D01*
G04 #@! TO.N,/A0*
X68580000Y-107950000D02*
X70105300Y-107950000D01*
X70105300Y-107950000D02*
X70571800Y-107483500D01*
X70571800Y-107483500D02*
X81351200Y-107483500D01*
X81351200Y-107483500D02*
X82017000Y-106817700D01*
X82017000Y-106817700D02*
X85168400Y-106817700D01*
X85168400Y-106817700D02*
X86300700Y-107950000D01*
X86300700Y-107950000D02*
X93980000Y-107950000D01*
G04 #@! TO.N,/A12*
X70105300Y-87630000D02*
X70524700Y-88049400D01*
X70524700Y-88049400D02*
X78322600Y-88049400D01*
X78322600Y-88049400D02*
X79891300Y-86480700D01*
X79891300Y-86480700D02*
X91305400Y-86480700D01*
X91305400Y-86480700D02*
X92454700Y-87630000D01*
X63500000Y-70864700D02*
X62230000Y-69594700D01*
X62230000Y-69594700D02*
X62230000Y-66534900D01*
X62230000Y-66534900D02*
X61296100Y-65601000D01*
X61296100Y-65601000D02*
X50782700Y-65601000D01*
X93980000Y-87630000D02*
X92454700Y-87630000D01*
X68580000Y-87630000D02*
X70105300Y-87630000D01*
X63500000Y-72390000D02*
X63500000Y-70864700D01*
G04 #@! TO.N,/RD*
X82294700Y-105410000D02*
X81018400Y-106686300D01*
X81018400Y-106686300D02*
X59561400Y-106686300D01*
X83820000Y-105410000D02*
X82294700Y-105410000D01*
X83820000Y-105410000D02*
X85345300Y-105410000D01*
X85345300Y-105410000D02*
X86479600Y-106544300D01*
X86479600Y-106544300D02*
X99648000Y-106544300D01*
X99648000Y-106544300D02*
X105862300Y-100330000D01*
X105862300Y-100330000D02*
X109220000Y-100330000D01*
X38100000Y-93980000D02*
X46734700Y-93980000D01*
X46734700Y-93980000D02*
X53084700Y-100330000D01*
X54610000Y-100330000D02*
X53084700Y-100330000D01*
G04 #@! TO.N,/IOREQ*
X38100000Y-91440000D02*
X38179500Y-91519500D01*
X38179500Y-91519500D02*
X46814200Y-91519500D01*
X46814200Y-91519500D02*
X53084700Y-97790000D01*
X54610000Y-97790000D02*
X53084700Y-97790000D01*
G04 #@! TO.N,/MREQ*
X40965300Y-88900000D02*
X43134500Y-91069200D01*
X43134500Y-91069200D02*
X48903900Y-91069200D01*
X48903900Y-91069200D02*
X53084700Y-95250000D01*
X38100000Y-88900000D02*
X40965300Y-88900000D01*
X54610000Y-95250000D02*
X53084700Y-95250000D01*
G04 #@! TO.N,NMI*
X40965300Y-83820000D02*
X45226300Y-79559000D01*
X45226300Y-79559000D02*
X46937400Y-79559000D01*
X54610000Y-53340000D02*
X53713100Y-53340000D01*
X53713100Y-53340000D02*
X49942500Y-57110600D01*
X38100000Y-83820000D02*
X40965300Y-83820000D01*
G04 #@! TO.N,/D4*
X40965300Y-78740000D02*
X42092500Y-79867200D01*
X42092500Y-79867200D02*
X43841700Y-79867200D01*
X43841700Y-79867200D02*
X46161000Y-77547900D01*
X46161000Y-77547900D02*
X68604800Y-77547900D01*
X68604800Y-77547900D02*
X72348600Y-73804100D01*
X72348600Y-73804100D02*
X73524800Y-73804100D01*
X73524800Y-73804100D02*
X77825700Y-78105000D01*
X77825700Y-78105000D02*
X90486100Y-78105000D01*
X90486100Y-78105000D02*
X95352800Y-82971700D01*
X95352800Y-82971700D02*
X97793700Y-82971700D01*
X38100000Y-78740000D02*
X40965300Y-78740000D01*
X109220000Y-115570000D02*
X110745300Y-115570000D01*
X124460000Y-110490000D02*
X122934700Y-110490000D01*
X122934700Y-110490000D02*
X119041900Y-114382800D01*
X119041900Y-114382800D02*
X111932500Y-114382800D01*
X111932500Y-114382800D02*
X110745300Y-115570000D01*
G04 #@! TO.N,/D3*
X93980000Y-62230000D02*
X95505300Y-62230000D01*
X38100000Y-76200000D02*
X40965300Y-76200000D01*
X74748200Y-74001800D02*
X74049900Y-73303500D01*
X74049900Y-73303500D02*
X72212300Y-73303500D01*
X72212300Y-73303500D02*
X68921700Y-76594100D01*
X68921700Y-76594100D02*
X41359400Y-76594100D01*
X41359400Y-76594100D02*
X40965300Y-76200000D01*
X95505300Y-62230000D02*
X95505300Y-56680500D01*
X95505300Y-56680500D02*
X94806800Y-55982000D01*
X94806800Y-55982000D02*
X90534400Y-55982000D01*
X90534400Y-55982000D02*
X86349600Y-60166800D01*
X86349600Y-60166800D02*
X79754600Y-60166800D01*
X79754600Y-60166800D02*
X77761700Y-62159700D01*
X77761700Y-62159700D02*
X77205500Y-62159700D01*
X83820000Y-118110000D02*
X85345300Y-118110000D01*
X107694700Y-118110000D02*
X106504200Y-116919500D01*
X106504200Y-116919500D02*
X92235200Y-116919500D01*
X92235200Y-116919500D02*
X91044700Y-118110000D01*
X91044700Y-118110000D02*
X85345300Y-118110000D01*
X109220000Y-118110000D02*
X107694700Y-118110000D01*
G04 #@! TO.N,/D5*
X40965300Y-73660000D02*
X40965300Y-74935500D01*
X40965300Y-74935500D02*
X42173500Y-76143700D01*
X42173500Y-76143700D02*
X68217800Y-76143700D01*
X68217800Y-76143700D02*
X71508300Y-72853200D01*
X71508300Y-72853200D02*
X74934800Y-72853200D01*
X74934800Y-72853200D02*
X77547500Y-75465900D01*
X77547500Y-75465900D02*
X89923500Y-75465900D01*
X89923500Y-75465900D02*
X94454800Y-79997200D01*
X94454800Y-79997200D02*
X94684200Y-79997200D01*
X38100000Y-73660000D02*
X40965300Y-73660000D01*
X109220000Y-113030000D02*
X107694700Y-113030000D01*
X116840000Y-110490000D02*
X115314700Y-110490000D01*
X115314700Y-110490000D02*
X114848300Y-110023600D01*
X114848300Y-110023600D02*
X110960100Y-110023600D01*
X110960100Y-110023600D02*
X110245100Y-109308600D01*
X110245100Y-109308600D02*
X108409700Y-109308600D01*
X108409700Y-109308600D02*
X107694700Y-110023600D01*
X107694700Y-110023600D02*
X107694700Y-113030000D01*
G04 #@! TO.N,/D6*
X38100000Y-71120000D02*
X40965300Y-71120000D01*
X88900000Y-71755000D02*
X87374700Y-71755000D01*
X87374700Y-71755000D02*
X86203900Y-72925800D01*
X86203900Y-72925800D02*
X76155100Y-72925800D01*
X76155100Y-72925800D02*
X75632100Y-72402800D01*
X75632100Y-72402800D02*
X71096900Y-72402800D01*
X71096900Y-72402800D02*
X69545600Y-73954100D01*
X69545600Y-73954100D02*
X48245000Y-73954100D01*
X48245000Y-73954100D02*
X48045500Y-73754600D01*
X48045500Y-73754600D02*
X42819100Y-73754600D01*
X42819100Y-73754600D02*
X40965300Y-71900800D01*
X40965300Y-71900800D02*
X40965300Y-71120000D01*
X116840000Y-113030000D02*
X115314700Y-113030000D01*
X115314700Y-113030000D02*
X112774700Y-110490000D01*
X112774700Y-110490000D02*
X109220000Y-110490000D01*
G04 #@! TO.N,/D2*
X116840000Y-102870000D02*
X115314700Y-102870000D01*
X115314700Y-102870000D02*
X111504700Y-106680000D01*
X111504700Y-106680000D02*
X107694600Y-106680000D01*
X107694600Y-106680000D02*
X98804600Y-115570000D01*
X98804600Y-115570000D02*
X93980000Y-115570000D01*
X73581800Y-66142100D02*
X76838900Y-62885000D01*
X76838900Y-62885000D02*
X85594100Y-62885000D01*
X85594100Y-62885000D02*
X88789100Y-59690000D01*
X88789100Y-59690000D02*
X93980000Y-59690000D01*
X38100000Y-68580000D02*
X42787700Y-68580000D01*
X42787700Y-68580000D02*
X46538600Y-64829100D01*
X46538600Y-64829100D02*
X68118500Y-64829100D01*
X68118500Y-64829100D02*
X70208900Y-66919500D01*
X70208900Y-66919500D02*
X70208900Y-67330000D01*
X70208900Y-67330000D02*
X70209000Y-67330000D01*
X93217400Y-115570000D02*
X93980000Y-115570000D01*
X93217400Y-115570000D02*
X92454700Y-115570000D01*
X68580000Y-115570000D02*
X70105300Y-115570000D01*
X70105300Y-115570000D02*
X71230900Y-116695600D01*
X71230900Y-116695600D02*
X91329100Y-116695600D01*
X91329100Y-116695600D02*
X92454700Y-115570000D01*
G04 #@! TO.N,/D1*
X85701300Y-61634400D02*
X90185700Y-57150000D01*
X90185700Y-57150000D02*
X93980000Y-57150000D01*
X79754700Y-71755000D02*
X75681300Y-71755000D01*
X75681300Y-71755000D02*
X68305000Y-64378700D01*
X68305000Y-64378700D02*
X42626600Y-64378700D01*
X42626600Y-64378700D02*
X40965300Y-66040000D01*
X81280000Y-71755000D02*
X79754700Y-71755000D01*
X95505300Y-113030000D02*
X104395300Y-104140000D01*
X104395300Y-104140000D02*
X111504700Y-104140000D01*
X111504700Y-104140000D02*
X115314700Y-100330000D01*
X38100000Y-66040000D02*
X40965300Y-66040000D01*
X93980000Y-113030000D02*
X92454700Y-113030000D01*
X68580000Y-113030000D02*
X70105300Y-113030000D01*
X70105300Y-113030000D02*
X71295800Y-111839500D01*
X71295800Y-111839500D02*
X91264200Y-111839500D01*
X91264200Y-111839500D02*
X92454700Y-113030000D01*
X93980000Y-113030000D02*
X95505300Y-113030000D01*
X116840000Y-100330000D02*
X115314700Y-100330000D01*
G04 #@! TO.N,/D0*
X124460000Y-100330000D02*
X122934700Y-100330000D01*
X122934700Y-100330000D02*
X121785300Y-99180600D01*
X121785300Y-99180600D02*
X114319400Y-99180600D01*
X114319400Y-99180600D02*
X111900000Y-101600000D01*
X111900000Y-101600000D02*
X105229200Y-101600000D01*
X105229200Y-101600000D02*
X96339200Y-110490000D01*
X96339200Y-110490000D02*
X93980000Y-110490000D01*
X81280000Y-69215000D02*
X73778200Y-69215000D01*
X73778200Y-69215000D02*
X68063200Y-63500000D01*
X68063200Y-63500000D02*
X40965300Y-63500000D01*
X70105300Y-110490000D02*
X71254600Y-109340700D01*
X71254600Y-109340700D02*
X91305400Y-109340700D01*
X91305400Y-109340700D02*
X92454700Y-110490000D01*
X68580000Y-110490000D02*
X70105300Y-110490000D01*
X93980000Y-110490000D02*
X92454700Y-110490000D01*
X38100000Y-63500000D02*
X40965300Y-63500000D01*
G04 #@! TO.N,/D7*
X87374700Y-69215000D02*
X86232500Y-68072800D01*
X86232500Y-68072800D02*
X78612200Y-68072800D01*
X78612200Y-68072800D02*
X78229100Y-68455900D01*
X78229100Y-68455900D02*
X73656000Y-68455900D01*
X73656000Y-68455900D02*
X68228000Y-63027900D01*
X68228000Y-63027900D02*
X49330200Y-63027900D01*
X49330200Y-63027900D02*
X45049200Y-58746900D01*
X45049200Y-58746900D02*
X45049200Y-58209100D01*
X45049200Y-58209100D02*
X42720100Y-55880000D01*
X42720100Y-55880000D02*
X38100000Y-55880000D01*
X109220000Y-107950000D02*
X110745300Y-107950000D01*
X124460000Y-113030000D02*
X125985300Y-113030000D01*
X125985300Y-113030000D02*
X125985300Y-109984000D01*
X125985300Y-109984000D02*
X125221300Y-109220000D01*
X125221300Y-109220000D02*
X112015300Y-109220000D01*
X112015300Y-109220000D02*
X110745300Y-107950000D01*
X88900000Y-69215000D02*
X90425300Y-69215000D01*
X93980000Y-72390000D02*
X92454700Y-72390000D01*
X92454700Y-72390000D02*
X90425300Y-70360600D01*
X90425300Y-70360600D02*
X90425300Y-69215000D01*
X88900000Y-69215000D02*
X87374700Y-69215000D01*
G04 #@! TO.N,/A13*
X38100000Y-53340000D02*
X41613200Y-53340000D01*
X41613200Y-53340000D02*
X44477500Y-56204300D01*
G04 #@! TO.N,/A15*
X40965300Y-50800000D02*
X47717800Y-57552500D01*
X47717800Y-57552500D02*
X47717800Y-60371700D01*
X38100000Y-50800000D02*
X40965300Y-50800000D01*
G04 #@! TO.N,Net-(J3-Pad1)*
X129540000Y-91440000D02*
X129540000Y-90264700D01*
X124460000Y-68580000D02*
X122934700Y-68580000D01*
X122934700Y-68580000D02*
X122934700Y-72483800D01*
X122934700Y-72483800D02*
X128364700Y-77913800D01*
X128364700Y-77913800D02*
X128364700Y-89089400D01*
X128364700Y-89089400D02*
X129540000Y-90264700D01*
G04 #@! TO.N,Net-(J3-Pad5)*
X116840000Y-97790000D02*
X118365300Y-97790000D01*
X118365300Y-97790000D02*
X119635300Y-96520000D01*
X119635300Y-96520000D02*
X129540000Y-96520000D01*
G04 #@! TO.N,Net-(J3-Pad7)*
X116840000Y-105410000D02*
X118365300Y-105410000D01*
X129540000Y-99060000D02*
X128364700Y-99060000D01*
X128364700Y-99060000D02*
X125824700Y-101600000D01*
X125824700Y-101600000D02*
X122175300Y-101600000D01*
X122175300Y-101600000D02*
X118365300Y-105410000D01*
G04 #@! TO.N,Net-(J3-Pad9)*
X129540000Y-101600000D02*
X129540000Y-102775300D01*
X124460000Y-105410000D02*
X125985300Y-105410000D01*
X125985300Y-105410000D02*
X128620000Y-102775300D01*
X128620000Y-102775300D02*
X129540000Y-102775300D01*
G04 #@! TO.N,Net-(J3-Pad13)*
X116840000Y-107950000D02*
X118365300Y-107950000D01*
X118365300Y-107950000D02*
X119635300Y-106680000D01*
X119635300Y-106680000D02*
X129540000Y-106680000D01*
G04 #@! TO.N,Net-(J3-Pad15)*
X129540000Y-109220000D02*
X129540000Y-110395300D01*
X116840000Y-115570000D02*
X119940900Y-115570000D01*
X119940900Y-115570000D02*
X121355500Y-114155400D01*
X121355500Y-114155400D02*
X125602700Y-114155400D01*
X125602700Y-114155400D02*
X128364700Y-111393400D01*
X128364700Y-111393400D02*
X128364700Y-111268500D01*
X128364700Y-111268500D02*
X129237900Y-110395300D01*
X129237900Y-110395300D02*
X129540000Y-110395300D01*
G04 #@! TO.N,Net-(J3-Pad17)*
X129540000Y-111760000D02*
X129540000Y-112935300D01*
X124460000Y-115570000D02*
X125985300Y-115570000D01*
X125985300Y-115570000D02*
X128620000Y-112935300D01*
X128620000Y-112935300D02*
X129540000Y-112935300D01*
G04 #@! TO.N,Net-(J3-Pad21)*
X116840000Y-86360000D02*
X113030000Y-86360000D01*
G04 #@! TO.N,Net-(R6-Pad1)*
X49530000Y-59690000D02*
X51505600Y-61665600D01*
X51505600Y-61665600D02*
X57969700Y-61665600D01*
X57969700Y-61665600D02*
X58420000Y-61215300D01*
X60960000Y-59690000D02*
X58420000Y-59690000D01*
X58420000Y-59690000D02*
X58420000Y-61215300D01*
G04 #@! TO.N,Net-(R8-Pad2)*
X55880000Y-72390000D02*
X55880000Y-70864700D01*
X49530000Y-72390000D02*
X50655300Y-72390000D01*
X55880000Y-70864700D02*
X52180600Y-70864700D01*
X52180600Y-70864700D02*
X50655300Y-72390000D01*
G04 #@! TO.N,Net-(U1-Pad1)*
X116840000Y-53340000D02*
X115314700Y-53340000D01*
X109220000Y-59690000D02*
X110745300Y-59690000D01*
X110745300Y-59690000D02*
X110745300Y-57909400D01*
X110745300Y-57909400D02*
X115314700Y-53340000D01*
G04 #@! TO.N,Net-(U1-Pad9)*
X111162100Y-78239900D02*
X111162100Y-78445600D01*
X111162100Y-78445600D02*
X107160800Y-82446900D01*
X107160800Y-82446900D02*
X98294700Y-82446900D01*
X98294700Y-82446900D02*
X98094200Y-82246400D01*
X98094200Y-82246400D02*
X95836700Y-82246400D01*
X95836700Y-82246400D02*
X90425300Y-76835000D01*
X88900000Y-76835000D02*
X90425300Y-76835000D01*
G04 #@! TO.N,Net-(U1-Pad3)*
X116840000Y-58420000D02*
X115314700Y-58420000D01*
X109220000Y-64770000D02*
X107694700Y-64770000D01*
X107694700Y-64770000D02*
X107694700Y-61751000D01*
X107694700Y-61751000D02*
X108341100Y-61104600D01*
X108341100Y-61104600D02*
X112630100Y-61104600D01*
X112630100Y-61104600D02*
X115314700Y-58420000D01*
G04 #@! TO.N,Net-(U1-Pad11)*
X109220000Y-72390000D02*
X110745300Y-72390000D01*
X110745300Y-72390000D02*
X110745300Y-69239700D01*
X110745300Y-69239700D02*
X112655000Y-67330000D01*
X112655000Y-67330000D02*
X113445800Y-67330000D01*
X113445800Y-67330000D02*
X116005800Y-64770000D01*
X116005800Y-64770000D02*
X118365400Y-64770000D01*
X118365400Y-64770000D02*
X122175400Y-60960000D01*
X122175400Y-60960000D02*
X124460000Y-60960000D01*
G04 #@! TO.N,Net-(U1-Pad13)*
X124460000Y-55880000D02*
X122934700Y-55880000D01*
X109220000Y-62230000D02*
X117633300Y-62230000D01*
X117633300Y-62230000D02*
X122934700Y-56928600D01*
X122934700Y-56928600D02*
X122934700Y-55880000D01*
G04 #@! TO.N,ROM_CS*
X107694700Y-105410000D02*
X98913200Y-114191500D01*
X98913200Y-114191500D02*
X67456800Y-114191500D01*
X67456800Y-114191500D02*
X63755300Y-110490000D01*
X62230000Y-110490000D02*
X63755300Y-110490000D01*
X109220000Y-105410000D02*
X107694700Y-105410000D01*
G04 #@! TO.N,FDC_CS*
X72255500Y-85538800D02*
X72363400Y-85538800D01*
X72363400Y-85538800D02*
X76250800Y-81651400D01*
X76250800Y-81651400D02*
X76250800Y-79729900D01*
G04 #@! TO.N,Net-(U10-Pad5)*
X58420000Y-72390000D02*
X58420000Y-70864700D01*
X60960000Y-67310000D02*
X60960000Y-68835300D01*
X58420000Y-70864700D02*
X58930600Y-70864700D01*
X58930600Y-70864700D02*
X60960000Y-68835300D01*
G04 #@! TO.N,PRN_STR*
X55880000Y-67310000D02*
X58420000Y-67310000D01*
G04 #@! TO.N,Net-(U5-Pad2)*
X115314700Y-78740000D02*
X112855100Y-76280400D01*
X112855100Y-76280400D02*
X107717800Y-76280400D01*
X107717800Y-76280400D02*
X100162000Y-68724600D01*
X100162000Y-68724600D02*
X92474900Y-68724600D01*
X92474900Y-68724600D02*
X90425300Y-66675000D01*
X116840000Y-78740000D02*
X115314700Y-78740000D01*
X88900000Y-66675000D02*
X90425300Y-66675000D01*
G04 #@! TO.N,Net-(U5-Pad9)*
X85243500Y-79858500D02*
X89082000Y-83697000D01*
X89082000Y-83697000D02*
X112850100Y-83697000D01*
X112850100Y-83697000D02*
X114243100Y-85090000D01*
X114243100Y-85090000D02*
X119124700Y-85090000D01*
X119124700Y-85090000D02*
X122934700Y-88900000D01*
X124460000Y-88900000D02*
X122934700Y-88900000D01*
G04 #@! TO.N,Net-(U5-Pad12)*
X124460000Y-81280000D02*
X122934700Y-81280000D01*
X81280000Y-66675000D02*
X84385000Y-66675000D01*
X84385000Y-66675000D02*
X85531600Y-65528400D01*
X85531600Y-65528400D02*
X90844000Y-65528400D01*
X90844000Y-65528400D02*
X91355600Y-66040000D01*
X91355600Y-66040000D02*
X99234500Y-66040000D01*
X99234500Y-66040000D02*
X106854500Y-73660000D01*
X106854500Y-73660000D02*
X111101100Y-73660000D01*
X111101100Y-73660000D02*
X114766500Y-77325400D01*
X114766500Y-77325400D02*
X118980100Y-77325400D01*
X118980100Y-77325400D02*
X122934700Y-81280000D01*
G04 #@! TO.N,DSK_CS*
X87374700Y-79375000D02*
X87132900Y-79133200D01*
X87132900Y-79133200D02*
X83843700Y-79133200D01*
X83843700Y-79133200D02*
X76103100Y-86873800D01*
X76103100Y-86873800D02*
X74184400Y-86873800D01*
X88900000Y-79375000D02*
X87374700Y-79375000D01*
G04 #@! TO.N,RAM_CS*
X62230000Y-107950000D02*
X63755300Y-107950000D01*
X63755300Y-107950000D02*
X64881100Y-109075800D01*
X64881100Y-109075800D02*
X69919900Y-109075800D01*
X69919900Y-109075800D02*
X70662800Y-108332900D01*
X70662800Y-108332900D02*
X74596200Y-108332900D01*
G04 #@! TO.N,PRN_CS*
X63755300Y-102870000D02*
X64747400Y-103862100D01*
X64747400Y-103862100D02*
X64747400Y-103943200D01*
X122934700Y-118110000D02*
X121332300Y-119712400D01*
X121332300Y-119712400D02*
X93442400Y-119712400D01*
X93442400Y-119712400D02*
X92402800Y-118672800D01*
X92402800Y-118672800D02*
X86497400Y-118672800D01*
X86497400Y-118672800D02*
X85920000Y-119250200D01*
X85920000Y-119250200D02*
X71920400Y-119250200D01*
X71920400Y-119250200D02*
X69510200Y-116840000D01*
X69510200Y-116840000D02*
X67822900Y-116840000D01*
X67822900Y-116840000D02*
X63890900Y-112908000D01*
X63890900Y-112908000D02*
X63890900Y-112169200D01*
X124460000Y-118110000D02*
X122934700Y-118110000D01*
X62230000Y-102870000D02*
X63755300Y-102870000D01*
G04 #@! TO.N,ZX_ROMOE1*
X43180000Y-58420000D02*
X38100000Y-58420000D01*
G04 #@! TD*
D27*
G04 #@! TO.N,+5V*
G36*
X128141161Y-114879418D02*
X128469375Y-115370625D01*
X128767761Y-115570000D01*
X128469375Y-115769375D01*
X128141161Y-116260582D01*
X128025908Y-116840000D01*
X128141161Y-117419418D01*
X128469375Y-117910625D01*
X128767761Y-118110000D01*
X128469375Y-118309375D01*
X128141161Y-118800582D01*
X128025908Y-119380000D01*
X128141161Y-119959418D01*
X128469375Y-120450625D01*
X128767761Y-120650000D01*
X128469375Y-120849375D01*
X128141161Y-121340582D01*
X128025908Y-121920000D01*
X128141161Y-122499418D01*
X128469375Y-122990625D01*
X128577692Y-123063000D01*
X43307000Y-123063000D01*
X43307000Y-117600000D01*
X45634153Y-117600000D01*
X45709000Y-117614888D01*
X45783847Y-117600000D01*
X45783852Y-117600000D01*
X46005537Y-117555904D01*
X46256929Y-117387929D01*
X46299331Y-117324470D01*
X46712560Y-116911241D01*
X46712560Y-117740000D01*
X46761843Y-117987765D01*
X46902191Y-118197809D01*
X47112235Y-118338157D01*
X47127908Y-118341275D01*
X46958690Y-118510493D01*
X46725000Y-119074670D01*
X46725000Y-119685330D01*
X46958690Y-120249507D01*
X47390493Y-120681310D01*
X47954670Y-120915000D01*
X48565330Y-120915000D01*
X49129507Y-120681310D01*
X49561310Y-120249507D01*
X49606669Y-120140000D01*
X53371570Y-120140000D01*
X53393466Y-120192862D01*
X53797138Y-120596534D01*
X54324561Y-120815000D01*
X54895439Y-120815000D01*
X55422862Y-120596534D01*
X55826534Y-120192862D01*
X56018655Y-119729039D01*
X60838096Y-119729039D01*
X60998959Y-120117423D01*
X61374866Y-120532389D01*
X61880959Y-120771914D01*
X62103000Y-120650629D01*
X62103000Y-119507000D01*
X62357000Y-119507000D01*
X62357000Y-120650629D01*
X62579041Y-120771914D01*
X63085134Y-120532389D01*
X63461041Y-120117423D01*
X63621904Y-119729039D01*
X63499915Y-119507000D01*
X62357000Y-119507000D01*
X62103000Y-119507000D01*
X60960085Y-119507000D01*
X60838096Y-119729039D01*
X56018655Y-119729039D01*
X56045000Y-119665439D01*
X56045000Y-119094561D01*
X55826534Y-118567138D01*
X55422862Y-118163466D01*
X54895439Y-117945000D01*
X54324561Y-117945000D01*
X53797138Y-118163466D01*
X53393466Y-118567138D01*
X53371570Y-118620000D01*
X49606669Y-118620000D01*
X49561310Y-118510493D01*
X49392092Y-118341275D01*
X49407765Y-118338157D01*
X49617809Y-118197809D01*
X49758157Y-117987765D01*
X49807440Y-117740000D01*
X49807440Y-117538797D01*
X50033229Y-117387929D01*
X50075631Y-117324470D01*
X52340103Y-115060000D01*
X52848332Y-115060000D01*
X52746887Y-115570000D01*
X52858260Y-116129909D01*
X53175423Y-116604577D01*
X53650091Y-116921740D01*
X54068667Y-117005000D01*
X55151333Y-117005000D01*
X55569909Y-116921740D01*
X56044577Y-116604577D01*
X56064804Y-116574305D01*
X58084973Y-118594476D01*
X58127371Y-118657929D01*
X58190824Y-118700327D01*
X58190826Y-118700329D01*
X58272540Y-118754928D01*
X58378763Y-118825904D01*
X58600448Y-118870000D01*
X58600452Y-118870000D01*
X58675299Y-118884888D01*
X58750146Y-118870000D01*
X60904764Y-118870000D01*
X60838096Y-119030961D01*
X60960085Y-119253000D01*
X62103000Y-119253000D01*
X62103000Y-119233000D01*
X62357000Y-119233000D01*
X62357000Y-119253000D01*
X63499915Y-119253000D01*
X63621904Y-119030961D01*
X63555236Y-118870000D01*
X66961957Y-118870000D01*
X67145423Y-119144577D01*
X67620091Y-119461740D01*
X68038667Y-119545000D01*
X69121333Y-119545000D01*
X69539909Y-119461740D01*
X70014577Y-119144577D01*
X70305131Y-118709732D01*
X71330071Y-119734673D01*
X71372471Y-119798129D01*
X71623863Y-119966104D01*
X71845548Y-120010200D01*
X71845552Y-120010200D01*
X71920400Y-120025088D01*
X71995248Y-120010200D01*
X85845153Y-120010200D01*
X85920000Y-120025088D01*
X85994847Y-120010200D01*
X85994852Y-120010200D01*
X86216537Y-119966104D01*
X86467929Y-119798129D01*
X86510331Y-119734670D01*
X86812202Y-119432800D01*
X86985035Y-119432800D01*
X86665000Y-120205431D01*
X86665000Y-121094569D01*
X87005259Y-121916026D01*
X87633974Y-122544741D01*
X88455431Y-122885000D01*
X89344569Y-122885000D01*
X90166026Y-122544741D01*
X90794741Y-121916026D01*
X91135000Y-121094569D01*
X91135000Y-120205431D01*
X90814965Y-119432800D01*
X92087999Y-119432800D01*
X92852073Y-120196875D01*
X92894471Y-120260329D01*
X92957924Y-120302727D01*
X92957926Y-120302729D01*
X93083302Y-120386502D01*
X93145863Y-120428304D01*
X93367548Y-120472400D01*
X93367552Y-120472400D01*
X93442399Y-120487288D01*
X93517246Y-120472400D01*
X121257453Y-120472400D01*
X121332300Y-120487288D01*
X121407147Y-120472400D01*
X121407152Y-120472400D01*
X121628837Y-120428304D01*
X121880229Y-120260329D01*
X121922631Y-120196870D01*
X123005196Y-119114305D01*
X123025423Y-119144577D01*
X123500091Y-119461740D01*
X123918667Y-119545000D01*
X125001333Y-119545000D01*
X125419909Y-119461740D01*
X125894577Y-119144577D01*
X126211740Y-118669909D01*
X126323113Y-118110000D01*
X126211740Y-117550091D01*
X125894577Y-117075423D01*
X125542242Y-116840000D01*
X125894577Y-116604577D01*
X126080786Y-116325896D01*
X126281837Y-116285904D01*
X126533229Y-116117929D01*
X126575631Y-116054470D01*
X128076377Y-114553725D01*
X128141161Y-114879418D01*
X128141161Y-114879418D01*
G37*
X128141161Y-114879418D02*
X128469375Y-115370625D01*
X128767761Y-115570000D01*
X128469375Y-115769375D01*
X128141161Y-116260582D01*
X128025908Y-116840000D01*
X128141161Y-117419418D01*
X128469375Y-117910625D01*
X128767761Y-118110000D01*
X128469375Y-118309375D01*
X128141161Y-118800582D01*
X128025908Y-119380000D01*
X128141161Y-119959418D01*
X128469375Y-120450625D01*
X128767761Y-120650000D01*
X128469375Y-120849375D01*
X128141161Y-121340582D01*
X128025908Y-121920000D01*
X128141161Y-122499418D01*
X128469375Y-122990625D01*
X128577692Y-123063000D01*
X43307000Y-123063000D01*
X43307000Y-117600000D01*
X45634153Y-117600000D01*
X45709000Y-117614888D01*
X45783847Y-117600000D01*
X45783852Y-117600000D01*
X46005537Y-117555904D01*
X46256929Y-117387929D01*
X46299331Y-117324470D01*
X46712560Y-116911241D01*
X46712560Y-117740000D01*
X46761843Y-117987765D01*
X46902191Y-118197809D01*
X47112235Y-118338157D01*
X47127908Y-118341275D01*
X46958690Y-118510493D01*
X46725000Y-119074670D01*
X46725000Y-119685330D01*
X46958690Y-120249507D01*
X47390493Y-120681310D01*
X47954670Y-120915000D01*
X48565330Y-120915000D01*
X49129507Y-120681310D01*
X49561310Y-120249507D01*
X49606669Y-120140000D01*
X53371570Y-120140000D01*
X53393466Y-120192862D01*
X53797138Y-120596534D01*
X54324561Y-120815000D01*
X54895439Y-120815000D01*
X55422862Y-120596534D01*
X55826534Y-120192862D01*
X56018655Y-119729039D01*
X60838096Y-119729039D01*
X60998959Y-120117423D01*
X61374866Y-120532389D01*
X61880959Y-120771914D01*
X62103000Y-120650629D01*
X62103000Y-119507000D01*
X62357000Y-119507000D01*
X62357000Y-120650629D01*
X62579041Y-120771914D01*
X63085134Y-120532389D01*
X63461041Y-120117423D01*
X63621904Y-119729039D01*
X63499915Y-119507000D01*
X62357000Y-119507000D01*
X62103000Y-119507000D01*
X60960085Y-119507000D01*
X60838096Y-119729039D01*
X56018655Y-119729039D01*
X56045000Y-119665439D01*
X56045000Y-119094561D01*
X55826534Y-118567138D01*
X55422862Y-118163466D01*
X54895439Y-117945000D01*
X54324561Y-117945000D01*
X53797138Y-118163466D01*
X53393466Y-118567138D01*
X53371570Y-118620000D01*
X49606669Y-118620000D01*
X49561310Y-118510493D01*
X49392092Y-118341275D01*
X49407765Y-118338157D01*
X49617809Y-118197809D01*
X49758157Y-117987765D01*
X49807440Y-117740000D01*
X49807440Y-117538797D01*
X50033229Y-117387929D01*
X50075631Y-117324470D01*
X52340103Y-115060000D01*
X52848332Y-115060000D01*
X52746887Y-115570000D01*
X52858260Y-116129909D01*
X53175423Y-116604577D01*
X53650091Y-116921740D01*
X54068667Y-117005000D01*
X55151333Y-117005000D01*
X55569909Y-116921740D01*
X56044577Y-116604577D01*
X56064804Y-116574305D01*
X58084973Y-118594476D01*
X58127371Y-118657929D01*
X58190824Y-118700327D01*
X58190826Y-118700329D01*
X58272540Y-118754928D01*
X58378763Y-118825904D01*
X58600448Y-118870000D01*
X58600452Y-118870000D01*
X58675299Y-118884888D01*
X58750146Y-118870000D01*
X60904764Y-118870000D01*
X60838096Y-119030961D01*
X60960085Y-119253000D01*
X62103000Y-119253000D01*
X62103000Y-119233000D01*
X62357000Y-119233000D01*
X62357000Y-119253000D01*
X63499915Y-119253000D01*
X63621904Y-119030961D01*
X63555236Y-118870000D01*
X66961957Y-118870000D01*
X67145423Y-119144577D01*
X67620091Y-119461740D01*
X68038667Y-119545000D01*
X69121333Y-119545000D01*
X69539909Y-119461740D01*
X70014577Y-119144577D01*
X70305131Y-118709732D01*
X71330071Y-119734673D01*
X71372471Y-119798129D01*
X71623863Y-119966104D01*
X71845548Y-120010200D01*
X71845552Y-120010200D01*
X71920400Y-120025088D01*
X71995248Y-120010200D01*
X85845153Y-120010200D01*
X85920000Y-120025088D01*
X85994847Y-120010200D01*
X85994852Y-120010200D01*
X86216537Y-119966104D01*
X86467929Y-119798129D01*
X86510331Y-119734670D01*
X86812202Y-119432800D01*
X86985035Y-119432800D01*
X86665000Y-120205431D01*
X86665000Y-121094569D01*
X87005259Y-121916026D01*
X87633974Y-122544741D01*
X88455431Y-122885000D01*
X89344569Y-122885000D01*
X90166026Y-122544741D01*
X90794741Y-121916026D01*
X91135000Y-121094569D01*
X91135000Y-120205431D01*
X90814965Y-119432800D01*
X92087999Y-119432800D01*
X92852073Y-120196875D01*
X92894471Y-120260329D01*
X92957924Y-120302727D01*
X92957926Y-120302729D01*
X93083302Y-120386502D01*
X93145863Y-120428304D01*
X93367548Y-120472400D01*
X93367552Y-120472400D01*
X93442399Y-120487288D01*
X93517246Y-120472400D01*
X121257453Y-120472400D01*
X121332300Y-120487288D01*
X121407147Y-120472400D01*
X121407152Y-120472400D01*
X121628837Y-120428304D01*
X121880229Y-120260329D01*
X121922631Y-120196870D01*
X123005196Y-119114305D01*
X123025423Y-119144577D01*
X123500091Y-119461740D01*
X123918667Y-119545000D01*
X125001333Y-119545000D01*
X125419909Y-119461740D01*
X125894577Y-119144577D01*
X126211740Y-118669909D01*
X126323113Y-118110000D01*
X126211740Y-117550091D01*
X125894577Y-117075423D01*
X125542242Y-116840000D01*
X125894577Y-116604577D01*
X126080786Y-116325896D01*
X126281837Y-116285904D01*
X126533229Y-116117929D01*
X126575631Y-116054470D01*
X128076377Y-114553725D01*
X128141161Y-114879418D01*
G36*
X114976887Y-115570000D02*
X115088260Y-116129909D01*
X115405423Y-116604577D01*
X115757758Y-116840000D01*
X115405423Y-117075423D01*
X115221957Y-117350000D01*
X114268430Y-117350000D01*
X114246534Y-117297138D01*
X113842862Y-116893466D01*
X113777701Y-116866475D01*
X113784005Y-116863864D01*
X113858139Y-116617745D01*
X113030000Y-115789605D01*
X112201861Y-116617745D01*
X112275995Y-116863864D01*
X112282746Y-116866290D01*
X112217138Y-116893466D01*
X111813466Y-117297138D01*
X111595000Y-117824561D01*
X111595000Y-118395439D01*
X111616897Y-118448302D01*
X111585799Y-118479400D01*
X111009635Y-118479400D01*
X111083113Y-118110000D01*
X110971740Y-117550091D01*
X110654577Y-117075423D01*
X110302242Y-116840000D01*
X110654577Y-116604577D01*
X110840786Y-116325896D01*
X111041837Y-116285904D01*
X111293229Y-116117929D01*
X111335631Y-116054470D01*
X111601868Y-115788234D01*
X111610222Y-115963454D01*
X111776136Y-116364005D01*
X112022255Y-116438139D01*
X112850395Y-115610000D01*
X112836252Y-115595858D01*
X113015858Y-115416253D01*
X113030000Y-115430395D01*
X113044143Y-115416253D01*
X113223748Y-115595858D01*
X113209605Y-115610000D01*
X114037745Y-116438139D01*
X114283864Y-116364005D01*
X114476965Y-115826777D01*
X114449778Y-115256546D01*
X114402663Y-115142800D01*
X115061862Y-115142800D01*
X114976887Y-115570000D01*
X114976887Y-115570000D01*
G37*
X114976887Y-115570000D02*
X115088260Y-116129909D01*
X115405423Y-116604577D01*
X115757758Y-116840000D01*
X115405423Y-117075423D01*
X115221957Y-117350000D01*
X114268430Y-117350000D01*
X114246534Y-117297138D01*
X113842862Y-116893466D01*
X113777701Y-116866475D01*
X113784005Y-116863864D01*
X113858139Y-116617745D01*
X113030000Y-115789605D01*
X112201861Y-116617745D01*
X112275995Y-116863864D01*
X112282746Y-116866290D01*
X112217138Y-116893466D01*
X111813466Y-117297138D01*
X111595000Y-117824561D01*
X111595000Y-118395439D01*
X111616897Y-118448302D01*
X111585799Y-118479400D01*
X111009635Y-118479400D01*
X111083113Y-118110000D01*
X110971740Y-117550091D01*
X110654577Y-117075423D01*
X110302242Y-116840000D01*
X110654577Y-116604577D01*
X110840786Y-116325896D01*
X111041837Y-116285904D01*
X111293229Y-116117929D01*
X111335631Y-116054470D01*
X111601868Y-115788234D01*
X111610222Y-115963454D01*
X111776136Y-116364005D01*
X112022255Y-116438139D01*
X112850395Y-115610000D01*
X112836252Y-115595858D01*
X113015858Y-115416253D01*
X113030000Y-115430395D01*
X113044143Y-115416253D01*
X113223748Y-115595858D01*
X113209605Y-115610000D01*
X114037745Y-116438139D01*
X114283864Y-116364005D01*
X114476965Y-115826777D01*
X114449778Y-115256546D01*
X114402663Y-115142800D01*
X115061862Y-115142800D01*
X114976887Y-115570000D01*
G36*
X107445633Y-84658181D02*
X107428096Y-84740961D01*
X107550085Y-84963000D01*
X109093000Y-84963000D01*
X109093000Y-84943000D01*
X109347000Y-84943000D01*
X109347000Y-84963000D01*
X110889915Y-84963000D01*
X111011904Y-84740961D01*
X110994367Y-84658181D01*
X110884258Y-84457000D01*
X112535299Y-84457000D01*
X113003298Y-84925000D01*
X112744561Y-84925000D01*
X112217138Y-85143466D01*
X111813466Y-85547138D01*
X111595000Y-86074561D01*
X111595000Y-86645439D01*
X111813466Y-87172862D01*
X112217138Y-87576534D01*
X112378868Y-87643525D01*
X112275995Y-87686136D01*
X112201861Y-87932255D01*
X113030000Y-88760395D01*
X113858139Y-87932255D01*
X113784005Y-87686136D01*
X113673849Y-87646542D01*
X113842862Y-87576534D01*
X114246534Y-87172862D01*
X114268430Y-87120000D01*
X115221957Y-87120000D01*
X115405423Y-87394577D01*
X115757758Y-87630000D01*
X115405423Y-87865423D01*
X115088260Y-88340091D01*
X114976887Y-88900000D01*
X115088260Y-89459909D01*
X115405423Y-89934577D01*
X115757758Y-90170000D01*
X115405423Y-90405423D01*
X115221957Y-90680000D01*
X114268430Y-90680000D01*
X114246534Y-90627138D01*
X113842862Y-90223466D01*
X113777701Y-90196475D01*
X113784005Y-90193864D01*
X113858139Y-89947745D01*
X113030000Y-89119605D01*
X112201861Y-89947745D01*
X112275995Y-90193864D01*
X112282746Y-90196290D01*
X112217138Y-90223466D01*
X111813466Y-90627138D01*
X111595000Y-91154561D01*
X111595000Y-91725439D01*
X111813466Y-92252862D01*
X112217138Y-92656534D01*
X112744561Y-92875000D01*
X113315439Y-92875000D01*
X113842862Y-92656534D01*
X114246534Y-92252862D01*
X114268430Y-92200000D01*
X115221957Y-92200000D01*
X115405423Y-92474577D01*
X115880091Y-92791740D01*
X116298667Y-92875000D01*
X117381333Y-92875000D01*
X117799909Y-92791740D01*
X118274577Y-92474577D01*
X118294804Y-92444305D01*
X119195498Y-93345000D01*
X118518036Y-94022463D01*
X118497809Y-93992191D01*
X118287765Y-93851843D01*
X118040000Y-93802560D01*
X115640000Y-93802560D01*
X115392235Y-93851843D01*
X115182191Y-93992191D01*
X115041843Y-94202235D01*
X114992560Y-94450000D01*
X114992560Y-96050000D01*
X115041843Y-96297765D01*
X115182191Y-96507809D01*
X115392235Y-96648157D01*
X115526106Y-96674785D01*
X115405423Y-96755423D01*
X115088260Y-97230091D01*
X114976887Y-97790000D01*
X115088260Y-98349909D01*
X115135494Y-98420600D01*
X114394246Y-98420600D01*
X114319399Y-98405712D01*
X114244552Y-98420600D01*
X114244548Y-98420600D01*
X114022863Y-98464696D01*
X113999088Y-98480582D01*
X113834926Y-98590271D01*
X113834924Y-98590273D01*
X113771471Y-98632671D01*
X113729073Y-98696124D01*
X111585199Y-100840000D01*
X110981668Y-100840000D01*
X111083113Y-100330000D01*
X110971740Y-99770091D01*
X110654577Y-99295423D01*
X110302242Y-99060000D01*
X110654577Y-98824577D01*
X110971740Y-98349909D01*
X111083113Y-97790000D01*
X110971740Y-97230091D01*
X110654577Y-96755423D01*
X110302242Y-96520000D01*
X110654577Y-96284577D01*
X110971740Y-95809909D01*
X111083113Y-95250000D01*
X110971740Y-94690091D01*
X110654577Y-94215423D01*
X110302242Y-93980000D01*
X110654577Y-93744577D01*
X110971740Y-93269909D01*
X111083113Y-92710000D01*
X110971740Y-92150091D01*
X110654577Y-91675423D01*
X110302242Y-91440000D01*
X110654577Y-91204577D01*
X110971740Y-90729909D01*
X111083113Y-90170000D01*
X110971740Y-89610091D01*
X110654577Y-89135423D01*
X110298501Y-88897501D01*
X110515200Y-88723223D01*
X111583035Y-88723223D01*
X111610222Y-89293454D01*
X111776136Y-89694005D01*
X112022255Y-89768139D01*
X112850395Y-88940000D01*
X113209605Y-88940000D01*
X114037745Y-89768139D01*
X114283864Y-89694005D01*
X114476965Y-89156777D01*
X114449778Y-88586546D01*
X114283864Y-88185995D01*
X114037745Y-88111861D01*
X113209605Y-88940000D01*
X112850395Y-88940000D01*
X112022255Y-88111861D01*
X111776136Y-88185995D01*
X111583035Y-88723223D01*
X110515200Y-88723223D01*
X110724500Y-88554896D01*
X110994367Y-88061819D01*
X111011904Y-87979039D01*
X110889915Y-87757000D01*
X109347000Y-87757000D01*
X109347000Y-87777000D01*
X109093000Y-87777000D01*
X109093000Y-87757000D01*
X107550085Y-87757000D01*
X107428096Y-87979039D01*
X107445633Y-88061819D01*
X107715500Y-88554896D01*
X108141499Y-88897501D01*
X107785423Y-89135423D01*
X107468260Y-89610091D01*
X107356887Y-90170000D01*
X107468260Y-90729909D01*
X107785423Y-91204577D01*
X108137758Y-91440000D01*
X107785423Y-91675423D01*
X107599214Y-91954104D01*
X107398163Y-91994096D01*
X107383383Y-92003972D01*
X107210226Y-92119671D01*
X107210224Y-92119673D01*
X107146771Y-92162071D01*
X107104373Y-92225524D01*
X106214299Y-93115600D01*
X95762434Y-93115600D01*
X95843113Y-92710000D01*
X95731740Y-92150091D01*
X95414577Y-91675423D01*
X95062242Y-91440000D01*
X95414577Y-91204577D01*
X95731740Y-90729909D01*
X95843113Y-90170000D01*
X95731740Y-89610091D01*
X95414577Y-89135423D01*
X95062242Y-88900000D01*
X95414577Y-88664577D01*
X95731740Y-88189909D01*
X95843113Y-87630000D01*
X95731740Y-87070091D01*
X95414577Y-86595423D01*
X95293894Y-86514785D01*
X95427765Y-86488157D01*
X95637809Y-86347809D01*
X95778157Y-86137765D01*
X95827440Y-85890000D01*
X95827440Y-85439039D01*
X107428096Y-85439039D01*
X107445633Y-85521819D01*
X107715500Y-86014896D01*
X108144607Y-86360000D01*
X107715500Y-86705104D01*
X107445633Y-87198181D01*
X107428096Y-87280961D01*
X107550085Y-87503000D01*
X109093000Y-87503000D01*
X109093000Y-85217000D01*
X109347000Y-85217000D01*
X109347000Y-87503000D01*
X110889915Y-87503000D01*
X111011904Y-87280961D01*
X110994367Y-87198181D01*
X110724500Y-86705104D01*
X110295393Y-86360000D01*
X110724500Y-86014896D01*
X110994367Y-85521819D01*
X111011904Y-85439039D01*
X110889915Y-85217000D01*
X109347000Y-85217000D01*
X109093000Y-85217000D01*
X107550085Y-85217000D01*
X107428096Y-85439039D01*
X95827440Y-85439039D01*
X95827440Y-84457000D01*
X107555742Y-84457000D01*
X107445633Y-84658181D01*
X107445633Y-84658181D01*
G37*
X107445633Y-84658181D02*
X107428096Y-84740961D01*
X107550085Y-84963000D01*
X109093000Y-84963000D01*
X109093000Y-84943000D01*
X109347000Y-84943000D01*
X109347000Y-84963000D01*
X110889915Y-84963000D01*
X111011904Y-84740961D01*
X110994367Y-84658181D01*
X110884258Y-84457000D01*
X112535299Y-84457000D01*
X113003298Y-84925000D01*
X112744561Y-84925000D01*
X112217138Y-85143466D01*
X111813466Y-85547138D01*
X111595000Y-86074561D01*
X111595000Y-86645439D01*
X111813466Y-87172862D01*
X112217138Y-87576534D01*
X112378868Y-87643525D01*
X112275995Y-87686136D01*
X112201861Y-87932255D01*
X113030000Y-88760395D01*
X113858139Y-87932255D01*
X113784005Y-87686136D01*
X113673849Y-87646542D01*
X113842862Y-87576534D01*
X114246534Y-87172862D01*
X114268430Y-87120000D01*
X115221957Y-87120000D01*
X115405423Y-87394577D01*
X115757758Y-87630000D01*
X115405423Y-87865423D01*
X115088260Y-88340091D01*
X114976887Y-88900000D01*
X115088260Y-89459909D01*
X115405423Y-89934577D01*
X115757758Y-90170000D01*
X115405423Y-90405423D01*
X115221957Y-90680000D01*
X114268430Y-90680000D01*
X114246534Y-90627138D01*
X113842862Y-90223466D01*
X113777701Y-90196475D01*
X113784005Y-90193864D01*
X113858139Y-89947745D01*
X113030000Y-89119605D01*
X112201861Y-89947745D01*
X112275995Y-90193864D01*
X112282746Y-90196290D01*
X112217138Y-90223466D01*
X111813466Y-90627138D01*
X111595000Y-91154561D01*
X111595000Y-91725439D01*
X111813466Y-92252862D01*
X112217138Y-92656534D01*
X112744561Y-92875000D01*
X113315439Y-92875000D01*
X113842862Y-92656534D01*
X114246534Y-92252862D01*
X114268430Y-92200000D01*
X115221957Y-92200000D01*
X115405423Y-92474577D01*
X115880091Y-92791740D01*
X116298667Y-92875000D01*
X117381333Y-92875000D01*
X117799909Y-92791740D01*
X118274577Y-92474577D01*
X118294804Y-92444305D01*
X119195498Y-93345000D01*
X118518036Y-94022463D01*
X118497809Y-93992191D01*
X118287765Y-93851843D01*
X118040000Y-93802560D01*
X115640000Y-93802560D01*
X115392235Y-93851843D01*
X115182191Y-93992191D01*
X115041843Y-94202235D01*
X114992560Y-94450000D01*
X114992560Y-96050000D01*
X115041843Y-96297765D01*
X115182191Y-96507809D01*
X115392235Y-96648157D01*
X115526106Y-96674785D01*
X115405423Y-96755423D01*
X115088260Y-97230091D01*
X114976887Y-97790000D01*
X115088260Y-98349909D01*
X115135494Y-98420600D01*
X114394246Y-98420600D01*
X114319399Y-98405712D01*
X114244552Y-98420600D01*
X114244548Y-98420600D01*
X114022863Y-98464696D01*
X113999088Y-98480582D01*
X113834926Y-98590271D01*
X113834924Y-98590273D01*
X113771471Y-98632671D01*
X113729073Y-98696124D01*
X111585199Y-100840000D01*
X110981668Y-100840000D01*
X111083113Y-100330000D01*
X110971740Y-99770091D01*
X110654577Y-99295423D01*
X110302242Y-99060000D01*
X110654577Y-98824577D01*
X110971740Y-98349909D01*
X111083113Y-97790000D01*
X110971740Y-97230091D01*
X110654577Y-96755423D01*
X110302242Y-96520000D01*
X110654577Y-96284577D01*
X110971740Y-95809909D01*
X111083113Y-95250000D01*
X110971740Y-94690091D01*
X110654577Y-94215423D01*
X110302242Y-93980000D01*
X110654577Y-93744577D01*
X110971740Y-93269909D01*
X111083113Y-92710000D01*
X110971740Y-92150091D01*
X110654577Y-91675423D01*
X110302242Y-91440000D01*
X110654577Y-91204577D01*
X110971740Y-90729909D01*
X111083113Y-90170000D01*
X110971740Y-89610091D01*
X110654577Y-89135423D01*
X110298501Y-88897501D01*
X110515200Y-88723223D01*
X111583035Y-88723223D01*
X111610222Y-89293454D01*
X111776136Y-89694005D01*
X112022255Y-89768139D01*
X112850395Y-88940000D01*
X113209605Y-88940000D01*
X114037745Y-89768139D01*
X114283864Y-89694005D01*
X114476965Y-89156777D01*
X114449778Y-88586546D01*
X114283864Y-88185995D01*
X114037745Y-88111861D01*
X113209605Y-88940000D01*
X112850395Y-88940000D01*
X112022255Y-88111861D01*
X111776136Y-88185995D01*
X111583035Y-88723223D01*
X110515200Y-88723223D01*
X110724500Y-88554896D01*
X110994367Y-88061819D01*
X111011904Y-87979039D01*
X110889915Y-87757000D01*
X109347000Y-87757000D01*
X109347000Y-87777000D01*
X109093000Y-87777000D01*
X109093000Y-87757000D01*
X107550085Y-87757000D01*
X107428096Y-87979039D01*
X107445633Y-88061819D01*
X107715500Y-88554896D01*
X108141499Y-88897501D01*
X107785423Y-89135423D01*
X107468260Y-89610091D01*
X107356887Y-90170000D01*
X107468260Y-90729909D01*
X107785423Y-91204577D01*
X108137758Y-91440000D01*
X107785423Y-91675423D01*
X107599214Y-91954104D01*
X107398163Y-91994096D01*
X107383383Y-92003972D01*
X107210226Y-92119671D01*
X107210224Y-92119673D01*
X107146771Y-92162071D01*
X107104373Y-92225524D01*
X106214299Y-93115600D01*
X95762434Y-93115600D01*
X95843113Y-92710000D01*
X95731740Y-92150091D01*
X95414577Y-91675423D01*
X95062242Y-91440000D01*
X95414577Y-91204577D01*
X95731740Y-90729909D01*
X95843113Y-90170000D01*
X95731740Y-89610091D01*
X95414577Y-89135423D01*
X95062242Y-88900000D01*
X95414577Y-88664577D01*
X95731740Y-88189909D01*
X95843113Y-87630000D01*
X95731740Y-87070091D01*
X95414577Y-86595423D01*
X95293894Y-86514785D01*
X95427765Y-86488157D01*
X95637809Y-86347809D01*
X95778157Y-86137765D01*
X95827440Y-85890000D01*
X95827440Y-85439039D01*
X107428096Y-85439039D01*
X107445633Y-85521819D01*
X107715500Y-86014896D01*
X108144607Y-86360000D01*
X107715500Y-86705104D01*
X107445633Y-87198181D01*
X107428096Y-87280961D01*
X107550085Y-87503000D01*
X109093000Y-87503000D01*
X109093000Y-85217000D01*
X109347000Y-85217000D01*
X109347000Y-87503000D01*
X110889915Y-87503000D01*
X111011904Y-87280961D01*
X110994367Y-87198181D01*
X110724500Y-86705104D01*
X110295393Y-86360000D01*
X110724500Y-86014896D01*
X110994367Y-85521819D01*
X111011904Y-85439039D01*
X110889915Y-85217000D01*
X109347000Y-85217000D01*
X109093000Y-85217000D01*
X107550085Y-85217000D01*
X107428096Y-85439039D01*
X95827440Y-85439039D01*
X95827440Y-84457000D01*
X107555742Y-84457000D01*
X107445633Y-84658181D01*
G36*
X128025908Y-93980000D02*
X128141161Y-94559418D01*
X128469375Y-95050625D01*
X128767761Y-95250000D01*
X128469375Y-95449375D01*
X128261822Y-95760000D01*
X126191578Y-95760000D01*
X126234367Y-95681819D01*
X126251904Y-95599039D01*
X126129915Y-95377000D01*
X124587000Y-95377000D01*
X124587000Y-95397000D01*
X124333000Y-95397000D01*
X124333000Y-95377000D01*
X122790085Y-95377000D01*
X122668096Y-95599039D01*
X122685633Y-95681819D01*
X122728422Y-95760000D01*
X119710146Y-95760000D01*
X119635299Y-95745112D01*
X119560452Y-95760000D01*
X119560448Y-95760000D01*
X119338763Y-95804096D01*
X119087371Y-95972071D01*
X119044971Y-96035527D01*
X118294804Y-96785695D01*
X118274577Y-96755423D01*
X118153894Y-96674785D01*
X118287765Y-96648157D01*
X118497809Y-96507809D01*
X118638157Y-96297765D01*
X118687440Y-96050000D01*
X118687440Y-95948797D01*
X118913229Y-95797929D01*
X118955631Y-95734470D01*
X119789140Y-94900961D01*
X122668096Y-94900961D01*
X122790085Y-95123000D01*
X124333000Y-95123000D01*
X124333000Y-93815000D01*
X124587000Y-93815000D01*
X124587000Y-95123000D01*
X126129915Y-95123000D01*
X126251904Y-94900961D01*
X126234367Y-94818181D01*
X125964500Y-94325104D01*
X125526483Y-93972834D01*
X124987000Y-93815000D01*
X124587000Y-93815000D01*
X124333000Y-93815000D01*
X123933000Y-93815000D01*
X123393517Y-93972834D01*
X122955500Y-94325104D01*
X122685633Y-94818181D01*
X122668096Y-94900961D01*
X119789140Y-94900961D01*
X120754773Y-93935329D01*
X120818229Y-93892929D01*
X120860631Y-93829470D01*
X121127802Y-93562300D01*
X128108993Y-93562300D01*
X128025908Y-93980000D01*
X128025908Y-93980000D01*
G37*
X128025908Y-93980000D02*
X128141161Y-94559418D01*
X128469375Y-95050625D01*
X128767761Y-95250000D01*
X128469375Y-95449375D01*
X128261822Y-95760000D01*
X126191578Y-95760000D01*
X126234367Y-95681819D01*
X126251904Y-95599039D01*
X126129915Y-95377000D01*
X124587000Y-95377000D01*
X124587000Y-95397000D01*
X124333000Y-95397000D01*
X124333000Y-95377000D01*
X122790085Y-95377000D01*
X122668096Y-95599039D01*
X122685633Y-95681819D01*
X122728422Y-95760000D01*
X119710146Y-95760000D01*
X119635299Y-95745112D01*
X119560452Y-95760000D01*
X119560448Y-95760000D01*
X119338763Y-95804096D01*
X119087371Y-95972071D01*
X119044971Y-96035527D01*
X118294804Y-96785695D01*
X118274577Y-96755423D01*
X118153894Y-96674785D01*
X118287765Y-96648157D01*
X118497809Y-96507809D01*
X118638157Y-96297765D01*
X118687440Y-96050000D01*
X118687440Y-95948797D01*
X118913229Y-95797929D01*
X118955631Y-95734470D01*
X119789140Y-94900961D01*
X122668096Y-94900961D01*
X122790085Y-95123000D01*
X124333000Y-95123000D01*
X124333000Y-93815000D01*
X124587000Y-93815000D01*
X124587000Y-95123000D01*
X126129915Y-95123000D01*
X126251904Y-94900961D01*
X126234367Y-94818181D01*
X125964500Y-94325104D01*
X125526483Y-93972834D01*
X124987000Y-93815000D01*
X124587000Y-93815000D01*
X124333000Y-93815000D01*
X123933000Y-93815000D01*
X123393517Y-93972834D01*
X122955500Y-94325104D01*
X122685633Y-94818181D01*
X122668096Y-94900961D01*
X119789140Y-94900961D01*
X120754773Y-93935329D01*
X120818229Y-93892929D01*
X120860631Y-93829470D01*
X121127802Y-93562300D01*
X128108993Y-93562300D01*
X128025908Y-93980000D01*
G36*
X122386771Y-68032071D02*
X122218796Y-68283463D01*
X122159811Y-68580000D01*
X122174700Y-68654852D01*
X122174701Y-72408948D01*
X122159812Y-72483800D01*
X122218797Y-72780337D01*
X122343388Y-72966800D01*
X122386772Y-73031729D01*
X122450228Y-73074129D01*
X124141099Y-74765000D01*
X123933000Y-74765000D01*
X123393517Y-74922834D01*
X122955500Y-75275104D01*
X122685633Y-75768181D01*
X122668096Y-75850961D01*
X122790085Y-76073000D01*
X124333000Y-76073000D01*
X124333000Y-76053000D01*
X124587000Y-76053000D01*
X124587000Y-76073000D01*
X124607000Y-76073000D01*
X124607000Y-76327000D01*
X124587000Y-76327000D01*
X124587000Y-78613000D01*
X126129915Y-78613000D01*
X126251904Y-78390961D01*
X126234367Y-78308181D01*
X125964500Y-77815104D01*
X125535393Y-77470000D01*
X125964500Y-77124896D01*
X126154268Y-76778169D01*
X127604700Y-78228602D01*
X127604701Y-89014548D01*
X127589812Y-89089400D01*
X127648797Y-89385937D01*
X127735302Y-89515400D01*
X127816772Y-89637329D01*
X127880228Y-89679729D01*
X128292435Y-90091937D01*
X128232191Y-90132191D01*
X128091843Y-90342235D01*
X128042560Y-90590000D01*
X128042560Y-92042300D01*
X126183415Y-92042300D01*
X126211740Y-91999909D01*
X126323113Y-91440000D01*
X126211740Y-90880091D01*
X125894577Y-90405423D01*
X125542242Y-90170000D01*
X125894577Y-89934577D01*
X126211740Y-89459909D01*
X126323113Y-88900000D01*
X126211740Y-88340091D01*
X125894577Y-87865423D01*
X125538501Y-87627501D01*
X125964500Y-87284896D01*
X126234367Y-86791819D01*
X126251904Y-86709039D01*
X126129915Y-86487000D01*
X124587000Y-86487000D01*
X124587000Y-86507000D01*
X124333000Y-86507000D01*
X124333000Y-86487000D01*
X122790085Y-86487000D01*
X122668096Y-86709039D01*
X122685633Y-86791819D01*
X122955500Y-87284896D01*
X123381499Y-87627501D01*
X123025423Y-87865423D01*
X123005196Y-87895694D01*
X119715031Y-84605530D01*
X119672629Y-84542071D01*
X119421237Y-84374096D01*
X119199552Y-84330000D01*
X119199547Y-84330000D01*
X119124700Y-84315112D01*
X119049853Y-84330000D01*
X118601668Y-84330000D01*
X118703113Y-83820000D01*
X118591740Y-83260091D01*
X118274577Y-82785423D01*
X117922242Y-82550000D01*
X118274577Y-82314577D01*
X118591740Y-81839909D01*
X118703113Y-81280000D01*
X118591740Y-80720091D01*
X118274577Y-80245423D01*
X117922242Y-80010000D01*
X118274577Y-79774577D01*
X118591740Y-79299909D01*
X118703113Y-78740000D01*
X118591740Y-78180091D01*
X118528470Y-78085400D01*
X118665299Y-78085400D01*
X122344371Y-81764473D01*
X122386771Y-81827929D01*
X122638163Y-81995904D01*
X122839214Y-82035896D01*
X123025423Y-82314577D01*
X123377758Y-82550000D01*
X123025423Y-82785423D01*
X122708260Y-83260091D01*
X122596887Y-83820000D01*
X122708260Y-84379909D01*
X123025423Y-84854577D01*
X123381499Y-85092499D01*
X122955500Y-85435104D01*
X122685633Y-85928181D01*
X122668096Y-86010961D01*
X122790085Y-86233000D01*
X124333000Y-86233000D01*
X124333000Y-86213000D01*
X124587000Y-86213000D01*
X124587000Y-86233000D01*
X126129915Y-86233000D01*
X126251904Y-86010961D01*
X126234367Y-85928181D01*
X125964500Y-85435104D01*
X125538501Y-85092499D01*
X125894577Y-84854577D01*
X126211740Y-84379909D01*
X126323113Y-83820000D01*
X126211740Y-83260091D01*
X125894577Y-82785423D01*
X125542242Y-82550000D01*
X125894577Y-82314577D01*
X126211740Y-81839909D01*
X126323113Y-81280000D01*
X126211740Y-80720091D01*
X125894577Y-80245423D01*
X125538501Y-80007501D01*
X125964500Y-79664896D01*
X126234367Y-79171819D01*
X126251904Y-79089039D01*
X126129915Y-78867000D01*
X124587000Y-78867000D01*
X124587000Y-78887000D01*
X124333000Y-78887000D01*
X124333000Y-78867000D01*
X122790085Y-78867000D01*
X122668096Y-79089039D01*
X122685633Y-79171819D01*
X122955500Y-79664896D01*
X123381499Y-80007501D01*
X123025423Y-80245423D01*
X123005196Y-80275694D01*
X119570431Y-76840930D01*
X119528029Y-76777471D01*
X119276637Y-76609496D01*
X119054952Y-76565400D01*
X119054947Y-76565400D01*
X118980100Y-76550512D01*
X118905253Y-76565400D01*
X118675000Y-76565400D01*
X118675000Y-76549039D01*
X122668096Y-76549039D01*
X122685633Y-76631819D01*
X122955500Y-77124896D01*
X123384607Y-77470000D01*
X122955500Y-77815104D01*
X122685633Y-78308181D01*
X122668096Y-78390961D01*
X122790085Y-78613000D01*
X124333000Y-78613000D01*
X124333000Y-76327000D01*
X122790085Y-76327000D01*
X122668096Y-76549039D01*
X118675000Y-76549039D01*
X118675000Y-76485750D01*
X118516250Y-76327000D01*
X116967000Y-76327000D01*
X116967000Y-76347000D01*
X116713000Y-76347000D01*
X116713000Y-76327000D01*
X115163750Y-76327000D01*
X115005000Y-76485750D01*
X115005000Y-76489097D01*
X113789593Y-75273690D01*
X115005000Y-75273690D01*
X115005000Y-75914250D01*
X115163750Y-76073000D01*
X116713000Y-76073000D01*
X116713000Y-74923750D01*
X116967000Y-74923750D01*
X116967000Y-76073000D01*
X118516250Y-76073000D01*
X118675000Y-75914250D01*
X118675000Y-75273690D01*
X118578327Y-75040301D01*
X118399698Y-74861673D01*
X118166309Y-74765000D01*
X117125750Y-74765000D01*
X116967000Y-74923750D01*
X116713000Y-74923750D01*
X116554250Y-74765000D01*
X115513691Y-74765000D01*
X115280302Y-74861673D01*
X115101673Y-75040301D01*
X115005000Y-75273690D01*
X113789593Y-75273690D01*
X111691431Y-73175530D01*
X111649029Y-73112071D01*
X111397637Y-72944096D01*
X111301841Y-72925041D01*
X111426123Y-72739039D01*
X115448096Y-72739039D01*
X115608959Y-73127423D01*
X115984866Y-73542389D01*
X116490959Y-73781914D01*
X116713000Y-73660629D01*
X116713000Y-72517000D01*
X116967000Y-72517000D01*
X116967000Y-73660629D01*
X117189041Y-73781914D01*
X117695134Y-73542389D01*
X118071041Y-73127423D01*
X118231904Y-72739039D01*
X118109915Y-72517000D01*
X116967000Y-72517000D01*
X116713000Y-72517000D01*
X115570085Y-72517000D01*
X115448096Y-72739039D01*
X111426123Y-72739039D01*
X111461204Y-72686537D01*
X111489656Y-72543500D01*
X111505300Y-72464852D01*
X111505300Y-72464851D01*
X111520189Y-72390000D01*
X111505300Y-72315148D01*
X111505300Y-72040961D01*
X115448096Y-72040961D01*
X115570085Y-72263000D01*
X116713000Y-72263000D01*
X116713000Y-71119371D01*
X116967000Y-71119371D01*
X116967000Y-72263000D01*
X118109915Y-72263000D01*
X118231904Y-72040961D01*
X118071041Y-71652577D01*
X117695134Y-71237611D01*
X117189041Y-70998086D01*
X116967000Y-71119371D01*
X116713000Y-71119371D01*
X116490959Y-70998086D01*
X115984866Y-71237611D01*
X115608959Y-71652577D01*
X115448096Y-72040961D01*
X111505300Y-72040961D01*
X111505300Y-69554501D01*
X111770549Y-69289252D01*
X111813466Y-69392862D01*
X112217138Y-69796534D01*
X112744561Y-70015000D01*
X113315439Y-70015000D01*
X113842862Y-69796534D01*
X114246534Y-69392862D01*
X114268430Y-69340000D01*
X115221957Y-69340000D01*
X115405423Y-69614577D01*
X115880091Y-69931740D01*
X116298667Y-70015000D01*
X117381333Y-70015000D01*
X117799909Y-69931740D01*
X118274577Y-69614577D01*
X118460786Y-69335896D01*
X118661837Y-69295904D01*
X118913229Y-69127929D01*
X118955631Y-69064470D01*
X120094702Y-67925400D01*
X122546415Y-67925400D01*
X122386771Y-68032071D01*
X122386771Y-68032071D01*
G37*
X122386771Y-68032071D02*
X122218796Y-68283463D01*
X122159811Y-68580000D01*
X122174700Y-68654852D01*
X122174701Y-72408948D01*
X122159812Y-72483800D01*
X122218797Y-72780337D01*
X122343388Y-72966800D01*
X122386772Y-73031729D01*
X122450228Y-73074129D01*
X124141099Y-74765000D01*
X123933000Y-74765000D01*
X123393517Y-74922834D01*
X122955500Y-75275104D01*
X122685633Y-75768181D01*
X122668096Y-75850961D01*
X122790085Y-76073000D01*
X124333000Y-76073000D01*
X124333000Y-76053000D01*
X124587000Y-76053000D01*
X124587000Y-76073000D01*
X124607000Y-76073000D01*
X124607000Y-76327000D01*
X124587000Y-76327000D01*
X124587000Y-78613000D01*
X126129915Y-78613000D01*
X126251904Y-78390961D01*
X126234367Y-78308181D01*
X125964500Y-77815104D01*
X125535393Y-77470000D01*
X125964500Y-77124896D01*
X126154268Y-76778169D01*
X127604700Y-78228602D01*
X127604701Y-89014548D01*
X127589812Y-89089400D01*
X127648797Y-89385937D01*
X127735302Y-89515400D01*
X127816772Y-89637329D01*
X127880228Y-89679729D01*
X128292435Y-90091937D01*
X128232191Y-90132191D01*
X128091843Y-90342235D01*
X128042560Y-90590000D01*
X128042560Y-92042300D01*
X126183415Y-92042300D01*
X126211740Y-91999909D01*
X126323113Y-91440000D01*
X126211740Y-90880091D01*
X125894577Y-90405423D01*
X125542242Y-90170000D01*
X125894577Y-89934577D01*
X126211740Y-89459909D01*
X126323113Y-88900000D01*
X126211740Y-88340091D01*
X125894577Y-87865423D01*
X125538501Y-87627501D01*
X125964500Y-87284896D01*
X126234367Y-86791819D01*
X126251904Y-86709039D01*
X126129915Y-86487000D01*
X124587000Y-86487000D01*
X124587000Y-86507000D01*
X124333000Y-86507000D01*
X124333000Y-86487000D01*
X122790085Y-86487000D01*
X122668096Y-86709039D01*
X122685633Y-86791819D01*
X122955500Y-87284896D01*
X123381499Y-87627501D01*
X123025423Y-87865423D01*
X123005196Y-87895694D01*
X119715031Y-84605530D01*
X119672629Y-84542071D01*
X119421237Y-84374096D01*
X119199552Y-84330000D01*
X119199547Y-84330000D01*
X119124700Y-84315112D01*
X119049853Y-84330000D01*
X118601668Y-84330000D01*
X118703113Y-83820000D01*
X118591740Y-83260091D01*
X118274577Y-82785423D01*
X117922242Y-82550000D01*
X118274577Y-82314577D01*
X118591740Y-81839909D01*
X118703113Y-81280000D01*
X118591740Y-80720091D01*
X118274577Y-80245423D01*
X117922242Y-80010000D01*
X118274577Y-79774577D01*
X118591740Y-79299909D01*
X118703113Y-78740000D01*
X118591740Y-78180091D01*
X118528470Y-78085400D01*
X118665299Y-78085400D01*
X122344371Y-81764473D01*
X122386771Y-81827929D01*
X122638163Y-81995904D01*
X122839214Y-82035896D01*
X123025423Y-82314577D01*
X123377758Y-82550000D01*
X123025423Y-82785423D01*
X122708260Y-83260091D01*
X122596887Y-83820000D01*
X122708260Y-84379909D01*
X123025423Y-84854577D01*
X123381499Y-85092499D01*
X122955500Y-85435104D01*
X122685633Y-85928181D01*
X122668096Y-86010961D01*
X122790085Y-86233000D01*
X124333000Y-86233000D01*
X124333000Y-86213000D01*
X124587000Y-86213000D01*
X124587000Y-86233000D01*
X126129915Y-86233000D01*
X126251904Y-86010961D01*
X126234367Y-85928181D01*
X125964500Y-85435104D01*
X125538501Y-85092499D01*
X125894577Y-84854577D01*
X126211740Y-84379909D01*
X126323113Y-83820000D01*
X126211740Y-83260091D01*
X125894577Y-82785423D01*
X125542242Y-82550000D01*
X125894577Y-82314577D01*
X126211740Y-81839909D01*
X126323113Y-81280000D01*
X126211740Y-80720091D01*
X125894577Y-80245423D01*
X125538501Y-80007501D01*
X125964500Y-79664896D01*
X126234367Y-79171819D01*
X126251904Y-79089039D01*
X126129915Y-78867000D01*
X124587000Y-78867000D01*
X124587000Y-78887000D01*
X124333000Y-78887000D01*
X124333000Y-78867000D01*
X122790085Y-78867000D01*
X122668096Y-79089039D01*
X122685633Y-79171819D01*
X122955500Y-79664896D01*
X123381499Y-80007501D01*
X123025423Y-80245423D01*
X123005196Y-80275694D01*
X119570431Y-76840930D01*
X119528029Y-76777471D01*
X119276637Y-76609496D01*
X119054952Y-76565400D01*
X119054947Y-76565400D01*
X118980100Y-76550512D01*
X118905253Y-76565400D01*
X118675000Y-76565400D01*
X118675000Y-76549039D01*
X122668096Y-76549039D01*
X122685633Y-76631819D01*
X122955500Y-77124896D01*
X123384607Y-77470000D01*
X122955500Y-77815104D01*
X122685633Y-78308181D01*
X122668096Y-78390961D01*
X122790085Y-78613000D01*
X124333000Y-78613000D01*
X124333000Y-76327000D01*
X122790085Y-76327000D01*
X122668096Y-76549039D01*
X118675000Y-76549039D01*
X118675000Y-76485750D01*
X118516250Y-76327000D01*
X116967000Y-76327000D01*
X116967000Y-76347000D01*
X116713000Y-76347000D01*
X116713000Y-76327000D01*
X115163750Y-76327000D01*
X115005000Y-76485750D01*
X115005000Y-76489097D01*
X113789593Y-75273690D01*
X115005000Y-75273690D01*
X115005000Y-75914250D01*
X115163750Y-76073000D01*
X116713000Y-76073000D01*
X116713000Y-74923750D01*
X116967000Y-74923750D01*
X116967000Y-76073000D01*
X118516250Y-76073000D01*
X118675000Y-75914250D01*
X118675000Y-75273690D01*
X118578327Y-75040301D01*
X118399698Y-74861673D01*
X118166309Y-74765000D01*
X117125750Y-74765000D01*
X116967000Y-74923750D01*
X116713000Y-74923750D01*
X116554250Y-74765000D01*
X115513691Y-74765000D01*
X115280302Y-74861673D01*
X115101673Y-75040301D01*
X115005000Y-75273690D01*
X113789593Y-75273690D01*
X111691431Y-73175530D01*
X111649029Y-73112071D01*
X111397637Y-72944096D01*
X111301841Y-72925041D01*
X111426123Y-72739039D01*
X115448096Y-72739039D01*
X115608959Y-73127423D01*
X115984866Y-73542389D01*
X116490959Y-73781914D01*
X116713000Y-73660629D01*
X116713000Y-72517000D01*
X116967000Y-72517000D01*
X116967000Y-73660629D01*
X117189041Y-73781914D01*
X117695134Y-73542389D01*
X118071041Y-73127423D01*
X118231904Y-72739039D01*
X118109915Y-72517000D01*
X116967000Y-72517000D01*
X116713000Y-72517000D01*
X115570085Y-72517000D01*
X115448096Y-72739039D01*
X111426123Y-72739039D01*
X111461204Y-72686537D01*
X111489656Y-72543500D01*
X111505300Y-72464852D01*
X111505300Y-72464851D01*
X111520189Y-72390000D01*
X111505300Y-72315148D01*
X111505300Y-72040961D01*
X115448096Y-72040961D01*
X115570085Y-72263000D01*
X116713000Y-72263000D01*
X116713000Y-71119371D01*
X116967000Y-71119371D01*
X116967000Y-72263000D01*
X118109915Y-72263000D01*
X118231904Y-72040961D01*
X118071041Y-71652577D01*
X117695134Y-71237611D01*
X117189041Y-70998086D01*
X116967000Y-71119371D01*
X116713000Y-71119371D01*
X116490959Y-70998086D01*
X115984866Y-71237611D01*
X115608959Y-71652577D01*
X115448096Y-72040961D01*
X111505300Y-72040961D01*
X111505300Y-69554501D01*
X111770549Y-69289252D01*
X111813466Y-69392862D01*
X112217138Y-69796534D01*
X112744561Y-70015000D01*
X113315439Y-70015000D01*
X113842862Y-69796534D01*
X114246534Y-69392862D01*
X114268430Y-69340000D01*
X115221957Y-69340000D01*
X115405423Y-69614577D01*
X115880091Y-69931740D01*
X116298667Y-70015000D01*
X117381333Y-70015000D01*
X117799909Y-69931740D01*
X118274577Y-69614577D01*
X118460786Y-69335896D01*
X118661837Y-69295904D01*
X118913229Y-69127929D01*
X118955631Y-69064470D01*
X120094702Y-67925400D01*
X122546415Y-67925400D01*
X122386771Y-68032071D01*
G36*
X60816897Y-83481698D02*
X60795000Y-83534561D01*
X60795000Y-84105439D01*
X61013466Y-84632862D01*
X61417138Y-85036534D01*
X61944561Y-85255000D01*
X62515439Y-85255000D01*
X62568302Y-85233103D01*
X62909670Y-85574472D01*
X62952071Y-85637929D01*
X63203463Y-85805904D01*
X63425148Y-85850000D01*
X63425152Y-85850000D01*
X63499999Y-85864888D01*
X63574846Y-85850000D01*
X66732560Y-85850000D01*
X66732560Y-85890000D01*
X66781843Y-86137765D01*
X66922191Y-86347809D01*
X67132235Y-86488157D01*
X67266106Y-86514785D01*
X67145423Y-86595423D01*
X66828260Y-87070091D01*
X66716887Y-87630000D01*
X66789570Y-87995400D01*
X64018438Y-87995400D01*
X64021904Y-87979039D01*
X63899915Y-87757000D01*
X62357000Y-87757000D01*
X62357000Y-87777000D01*
X62103000Y-87777000D01*
X62103000Y-87757000D01*
X60560085Y-87757000D01*
X60438096Y-87979039D01*
X60441562Y-87995400D01*
X56457440Y-87995400D01*
X56457440Y-87280961D01*
X60438096Y-87280961D01*
X60560085Y-87503000D01*
X62103000Y-87503000D01*
X62103000Y-86195000D01*
X62357000Y-86195000D01*
X62357000Y-87503000D01*
X63899915Y-87503000D01*
X64021904Y-87280961D01*
X64004367Y-87198181D01*
X63734500Y-86705104D01*
X63296483Y-86352834D01*
X62757000Y-86195000D01*
X62357000Y-86195000D01*
X62103000Y-86195000D01*
X61703000Y-86195000D01*
X61163517Y-86352834D01*
X60725500Y-86705104D01*
X60455633Y-87198181D01*
X60438096Y-87280961D01*
X56457440Y-87280961D01*
X56457440Y-86830000D01*
X56408157Y-86582235D01*
X56267809Y-86372191D01*
X56057765Y-86231843D01*
X55810000Y-86182560D01*
X53410000Y-86182560D01*
X53162235Y-86231843D01*
X52952191Y-86372191D01*
X52811843Y-86582235D01*
X52762560Y-86830000D01*
X52762560Y-87995400D01*
X44729848Y-87995400D01*
X44655000Y-87980512D01*
X44580152Y-87995400D01*
X44580148Y-87995400D01*
X44406605Y-88029920D01*
X44358462Y-88039496D01*
X44325054Y-88061819D01*
X44244715Y-88115500D01*
X44054026Y-88115500D01*
X43673620Y-88273069D01*
X43541145Y-88405544D01*
X43307000Y-88171399D01*
X43307000Y-87807440D01*
X43980000Y-87807440D01*
X44227765Y-87758157D01*
X44437809Y-87617809D01*
X44578157Y-87407765D01*
X44627440Y-87160000D01*
X44627440Y-85708271D01*
X44677211Y-85658500D01*
X50916653Y-85658500D01*
X50991500Y-85673388D01*
X51066347Y-85658500D01*
X51066352Y-85658500D01*
X51288037Y-85614404D01*
X51539429Y-85446429D01*
X51581831Y-85382971D01*
X51731698Y-85233103D01*
X51784561Y-85255000D01*
X52355439Y-85255000D01*
X52882862Y-85036534D01*
X53091651Y-84827745D01*
X53741861Y-84827745D01*
X53815995Y-85073864D01*
X54353223Y-85266965D01*
X54923454Y-85239778D01*
X55324005Y-85073864D01*
X55398139Y-84827745D01*
X54570000Y-83999605D01*
X53741861Y-84827745D01*
X53091651Y-84827745D01*
X53286534Y-84632862D01*
X53313525Y-84567701D01*
X53316136Y-84574005D01*
X53562255Y-84648139D01*
X54390395Y-83820000D01*
X54376253Y-83805858D01*
X54555858Y-83626253D01*
X54570000Y-83640395D01*
X54584143Y-83626253D01*
X54763748Y-83805858D01*
X54749605Y-83820000D01*
X55577745Y-84648139D01*
X55823864Y-84574005D01*
X56016965Y-84036777D01*
X55989778Y-83466546D01*
X55980315Y-83443700D01*
X60778899Y-83443700D01*
X60816897Y-83481698D01*
X60816897Y-83481698D01*
G37*
X60816897Y-83481698D02*
X60795000Y-83534561D01*
X60795000Y-84105439D01*
X61013466Y-84632862D01*
X61417138Y-85036534D01*
X61944561Y-85255000D01*
X62515439Y-85255000D01*
X62568302Y-85233103D01*
X62909670Y-85574472D01*
X62952071Y-85637929D01*
X63203463Y-85805904D01*
X63425148Y-85850000D01*
X63425152Y-85850000D01*
X63499999Y-85864888D01*
X63574846Y-85850000D01*
X66732560Y-85850000D01*
X66732560Y-85890000D01*
X66781843Y-86137765D01*
X66922191Y-86347809D01*
X67132235Y-86488157D01*
X67266106Y-86514785D01*
X67145423Y-86595423D01*
X66828260Y-87070091D01*
X66716887Y-87630000D01*
X66789570Y-87995400D01*
X64018438Y-87995400D01*
X64021904Y-87979039D01*
X63899915Y-87757000D01*
X62357000Y-87757000D01*
X62357000Y-87777000D01*
X62103000Y-87777000D01*
X62103000Y-87757000D01*
X60560085Y-87757000D01*
X60438096Y-87979039D01*
X60441562Y-87995400D01*
X56457440Y-87995400D01*
X56457440Y-87280961D01*
X60438096Y-87280961D01*
X60560085Y-87503000D01*
X62103000Y-87503000D01*
X62103000Y-86195000D01*
X62357000Y-86195000D01*
X62357000Y-87503000D01*
X63899915Y-87503000D01*
X64021904Y-87280961D01*
X64004367Y-87198181D01*
X63734500Y-86705104D01*
X63296483Y-86352834D01*
X62757000Y-86195000D01*
X62357000Y-86195000D01*
X62103000Y-86195000D01*
X61703000Y-86195000D01*
X61163517Y-86352834D01*
X60725500Y-86705104D01*
X60455633Y-87198181D01*
X60438096Y-87280961D01*
X56457440Y-87280961D01*
X56457440Y-86830000D01*
X56408157Y-86582235D01*
X56267809Y-86372191D01*
X56057765Y-86231843D01*
X55810000Y-86182560D01*
X53410000Y-86182560D01*
X53162235Y-86231843D01*
X52952191Y-86372191D01*
X52811843Y-86582235D01*
X52762560Y-86830000D01*
X52762560Y-87995400D01*
X44729848Y-87995400D01*
X44655000Y-87980512D01*
X44580152Y-87995400D01*
X44580148Y-87995400D01*
X44406605Y-88029920D01*
X44358462Y-88039496D01*
X44325054Y-88061819D01*
X44244715Y-88115500D01*
X44054026Y-88115500D01*
X43673620Y-88273069D01*
X43541145Y-88405544D01*
X43307000Y-88171399D01*
X43307000Y-87807440D01*
X43980000Y-87807440D01*
X44227765Y-87758157D01*
X44437809Y-87617809D01*
X44578157Y-87407765D01*
X44627440Y-87160000D01*
X44627440Y-85708271D01*
X44677211Y-85658500D01*
X50916653Y-85658500D01*
X50991500Y-85673388D01*
X51066347Y-85658500D01*
X51066352Y-85658500D01*
X51288037Y-85614404D01*
X51539429Y-85446429D01*
X51581831Y-85382971D01*
X51731698Y-85233103D01*
X51784561Y-85255000D01*
X52355439Y-85255000D01*
X52882862Y-85036534D01*
X53091651Y-84827745D01*
X53741861Y-84827745D01*
X53815995Y-85073864D01*
X54353223Y-85266965D01*
X54923454Y-85239778D01*
X55324005Y-85073864D01*
X55398139Y-84827745D01*
X54570000Y-83999605D01*
X53741861Y-84827745D01*
X53091651Y-84827745D01*
X53286534Y-84632862D01*
X53313525Y-84567701D01*
X53316136Y-84574005D01*
X53562255Y-84648139D01*
X54390395Y-83820000D01*
X54376253Y-83805858D01*
X54555858Y-83626253D01*
X54570000Y-83640395D01*
X54584143Y-83626253D01*
X54763748Y-83805858D01*
X54749605Y-83820000D01*
X55577745Y-84648139D01*
X55823864Y-84574005D01*
X56016965Y-84036777D01*
X55989778Y-83466546D01*
X55980315Y-83443700D01*
X60778899Y-83443700D01*
X60816897Y-83481698D01*
G36*
X79164371Y-79859473D02*
X79206771Y-79922929D01*
X79458163Y-80090904D01*
X79659214Y-80130896D01*
X79845423Y-80409577D01*
X80320091Y-80726740D01*
X80738667Y-80810000D01*
X81092098Y-80810000D01*
X75788299Y-86113800D01*
X74888111Y-86113800D01*
X74770680Y-85996369D01*
X74390274Y-85838800D01*
X73978526Y-85838800D01*
X73598120Y-85996369D01*
X73306969Y-86287520D01*
X73149400Y-86667926D01*
X73149400Y-87079674D01*
X73236271Y-87289400D01*
X70839501Y-87289400D01*
X70695631Y-87145530D01*
X70653229Y-87082071D01*
X70401837Y-86914096D01*
X70200786Y-86874104D01*
X70014577Y-86595423D01*
X69893894Y-86514785D01*
X70027765Y-86488157D01*
X70237809Y-86347809D01*
X70378157Y-86137765D01*
X70427440Y-85890000D01*
X70427440Y-85850000D01*
X71264127Y-85850000D01*
X71378069Y-86125080D01*
X71669220Y-86416231D01*
X72049626Y-86573800D01*
X72461374Y-86573800D01*
X72841780Y-86416231D01*
X73132931Y-86125080D01*
X73290500Y-85744674D01*
X73290500Y-85686501D01*
X76622092Y-82354910D01*
X76675995Y-82533864D01*
X77213223Y-82726965D01*
X77783454Y-82699778D01*
X78184005Y-82533864D01*
X78258139Y-82287745D01*
X77430000Y-81459605D01*
X77415858Y-81473748D01*
X77236253Y-81294143D01*
X77250395Y-81280000D01*
X77609605Y-81280000D01*
X78437745Y-82108139D01*
X78683864Y-82034005D01*
X78876965Y-81496777D01*
X78849778Y-80926546D01*
X78683864Y-80525995D01*
X78437745Y-80451861D01*
X77609605Y-81280000D01*
X77250395Y-81280000D01*
X77236253Y-81265858D01*
X77415858Y-81086252D01*
X77430000Y-81100395D01*
X78258139Y-80272255D01*
X78184005Y-80026136D01*
X77646777Y-79833035D01*
X77285800Y-79850245D01*
X77285800Y-79560600D01*
X78865499Y-79560600D01*
X79164371Y-79859473D01*
X79164371Y-79859473D01*
G37*
X79164371Y-79859473D02*
X79206771Y-79922929D01*
X79458163Y-80090904D01*
X79659214Y-80130896D01*
X79845423Y-80409577D01*
X80320091Y-80726740D01*
X80738667Y-80810000D01*
X81092098Y-80810000D01*
X75788299Y-86113800D01*
X74888111Y-86113800D01*
X74770680Y-85996369D01*
X74390274Y-85838800D01*
X73978526Y-85838800D01*
X73598120Y-85996369D01*
X73306969Y-86287520D01*
X73149400Y-86667926D01*
X73149400Y-87079674D01*
X73236271Y-87289400D01*
X70839501Y-87289400D01*
X70695631Y-87145530D01*
X70653229Y-87082071D01*
X70401837Y-86914096D01*
X70200786Y-86874104D01*
X70014577Y-86595423D01*
X69893894Y-86514785D01*
X70027765Y-86488157D01*
X70237809Y-86347809D01*
X70378157Y-86137765D01*
X70427440Y-85890000D01*
X70427440Y-85850000D01*
X71264127Y-85850000D01*
X71378069Y-86125080D01*
X71669220Y-86416231D01*
X72049626Y-86573800D01*
X72461374Y-86573800D01*
X72841780Y-86416231D01*
X73132931Y-86125080D01*
X73290500Y-85744674D01*
X73290500Y-85686501D01*
X76622092Y-82354910D01*
X76675995Y-82533864D01*
X77213223Y-82726965D01*
X77783454Y-82699778D01*
X78184005Y-82533864D01*
X78258139Y-82287745D01*
X77430000Y-81459605D01*
X77415858Y-81473748D01*
X77236253Y-81294143D01*
X77250395Y-81280000D01*
X77609605Y-81280000D01*
X78437745Y-82108139D01*
X78683864Y-82034005D01*
X78876965Y-81496777D01*
X78849778Y-80926546D01*
X78683864Y-80525995D01*
X78437745Y-80451861D01*
X77609605Y-81280000D01*
X77250395Y-81280000D01*
X77236253Y-81265858D01*
X77415858Y-81086252D01*
X77430000Y-81100395D01*
X78258139Y-80272255D01*
X78184005Y-80026136D01*
X77646777Y-79833035D01*
X77285800Y-79850245D01*
X77285800Y-79560600D01*
X78865499Y-79560600D01*
X79164371Y-79859473D01*
G36*
X84208500Y-80064374D02*
X84366069Y-80444780D01*
X84657220Y-80735931D01*
X85037626Y-80893500D01*
X85203699Y-80893500D01*
X88491670Y-84181472D01*
X88534071Y-84244929D01*
X88597527Y-84287329D01*
X88785462Y-84412904D01*
X88833605Y-84422480D01*
X89007148Y-84457000D01*
X89007152Y-84457000D01*
X89082000Y-84471888D01*
X89156848Y-84457000D01*
X92132560Y-84457000D01*
X92132560Y-85890000D01*
X92181843Y-86137765D01*
X92322191Y-86347809D01*
X92532235Y-86488157D01*
X92666106Y-86514785D01*
X92545423Y-86595423D01*
X92525196Y-86625695D01*
X91895731Y-85996230D01*
X91853329Y-85932771D01*
X91601937Y-85764796D01*
X91380252Y-85720700D01*
X91380247Y-85720700D01*
X91305400Y-85705812D01*
X91230553Y-85720700D01*
X85485517Y-85720700D01*
X85594367Y-85521819D01*
X85611904Y-85439039D01*
X85489915Y-85217000D01*
X83947000Y-85217000D01*
X83947000Y-85237000D01*
X83693000Y-85237000D01*
X83693000Y-85217000D01*
X82150085Y-85217000D01*
X82028096Y-85439039D01*
X82045633Y-85521819D01*
X82154483Y-85720700D01*
X79966148Y-85720700D01*
X79891300Y-85705812D01*
X79816452Y-85720700D01*
X79816448Y-85720700D01*
X79642905Y-85755220D01*
X79594762Y-85764796D01*
X79489191Y-85835337D01*
X79343371Y-85932771D01*
X79300971Y-85996227D01*
X78007799Y-87289400D01*
X76762301Y-87289400D01*
X79310740Y-84740961D01*
X82028096Y-84740961D01*
X82150085Y-84963000D01*
X83693000Y-84963000D01*
X83693000Y-83655000D01*
X83947000Y-83655000D01*
X83947000Y-84963000D01*
X85489915Y-84963000D01*
X85611904Y-84740961D01*
X85594367Y-84658181D01*
X85324500Y-84165104D01*
X84886483Y-83812834D01*
X84347000Y-83655000D01*
X83947000Y-83655000D01*
X83693000Y-83655000D01*
X83293000Y-83655000D01*
X82753517Y-83812834D01*
X82315500Y-84165104D01*
X82045633Y-84658181D01*
X82028096Y-84740961D01*
X79310740Y-84740961D01*
X84158502Y-79893200D01*
X84208500Y-79893200D01*
X84208500Y-80064374D01*
X84208500Y-80064374D01*
G37*
X84208500Y-80064374D02*
X84366069Y-80444780D01*
X84657220Y-80735931D01*
X85037626Y-80893500D01*
X85203699Y-80893500D01*
X88491670Y-84181472D01*
X88534071Y-84244929D01*
X88597527Y-84287329D01*
X88785462Y-84412904D01*
X88833605Y-84422480D01*
X89007148Y-84457000D01*
X89007152Y-84457000D01*
X89082000Y-84471888D01*
X89156848Y-84457000D01*
X92132560Y-84457000D01*
X92132560Y-85890000D01*
X92181843Y-86137765D01*
X92322191Y-86347809D01*
X92532235Y-86488157D01*
X92666106Y-86514785D01*
X92545423Y-86595423D01*
X92525196Y-86625695D01*
X91895731Y-85996230D01*
X91853329Y-85932771D01*
X91601937Y-85764796D01*
X91380252Y-85720700D01*
X91380247Y-85720700D01*
X91305400Y-85705812D01*
X91230553Y-85720700D01*
X85485517Y-85720700D01*
X85594367Y-85521819D01*
X85611904Y-85439039D01*
X85489915Y-85217000D01*
X83947000Y-85217000D01*
X83947000Y-85237000D01*
X83693000Y-85237000D01*
X83693000Y-85217000D01*
X82150085Y-85217000D01*
X82028096Y-85439039D01*
X82045633Y-85521819D01*
X82154483Y-85720700D01*
X79966148Y-85720700D01*
X79891300Y-85705812D01*
X79816452Y-85720700D01*
X79816448Y-85720700D01*
X79642905Y-85755220D01*
X79594762Y-85764796D01*
X79489191Y-85835337D01*
X79343371Y-85932771D01*
X79300971Y-85996227D01*
X78007799Y-87289400D01*
X76762301Y-87289400D01*
X79310740Y-84740961D01*
X82028096Y-84740961D01*
X82150085Y-84963000D01*
X83693000Y-84963000D01*
X83693000Y-83655000D01*
X83947000Y-83655000D01*
X83947000Y-84963000D01*
X85489915Y-84963000D01*
X85611904Y-84740961D01*
X85594367Y-84658181D01*
X85324500Y-84165104D01*
X84886483Y-83812834D01*
X84347000Y-83655000D01*
X83947000Y-83655000D01*
X83693000Y-83655000D01*
X83293000Y-83655000D01*
X82753517Y-83812834D01*
X82315500Y-84165104D01*
X82045633Y-84658181D01*
X82028096Y-84740961D01*
X79310740Y-84740961D01*
X84158502Y-79893200D01*
X84208500Y-79893200D01*
X84208500Y-80064374D01*
G36*
X113157000Y-78613000D02*
X113177000Y-78613000D01*
X113177000Y-78867000D01*
X113157000Y-78867000D01*
X113157000Y-80009915D01*
X113379039Y-80131904D01*
X113767423Y-79971041D01*
X114182389Y-79595134D01*
X114421914Y-79089041D01*
X114300630Y-78867002D01*
X114366900Y-78867002D01*
X114724371Y-79224473D01*
X114766771Y-79287929D01*
X114830227Y-79330329D01*
X115018162Y-79455904D01*
X115066305Y-79465480D01*
X115219214Y-79495896D01*
X115405423Y-79774577D01*
X115757758Y-80010000D01*
X115405423Y-80245423D01*
X115088260Y-80720091D01*
X114976887Y-81280000D01*
X115088260Y-81839909D01*
X115405423Y-82314577D01*
X115757758Y-82550000D01*
X115405423Y-82785423D01*
X115088260Y-83260091D01*
X114976887Y-83820000D01*
X115078332Y-84330000D01*
X114557903Y-84330000D01*
X113440431Y-83212530D01*
X113398029Y-83149071D01*
X113146637Y-82981096D01*
X112924952Y-82937000D01*
X112924947Y-82937000D01*
X112850100Y-82922112D01*
X112775253Y-82937000D01*
X107747369Y-82937000D01*
X107751131Y-82931370D01*
X111435623Y-79246879D01*
X111667359Y-79150891D01*
X111877611Y-79595134D01*
X112292577Y-79971041D01*
X112680961Y-80131904D01*
X112903000Y-80009915D01*
X112903000Y-78867000D01*
X112883000Y-78867000D01*
X112883000Y-78613000D01*
X112903000Y-78613000D01*
X112903000Y-78593000D01*
X113157000Y-78593000D01*
X113157000Y-78613000D01*
X113157000Y-78613000D01*
G37*
X113157000Y-78613000D02*
X113177000Y-78613000D01*
X113177000Y-78867000D01*
X113157000Y-78867000D01*
X113157000Y-80009915D01*
X113379039Y-80131904D01*
X113767423Y-79971041D01*
X114182389Y-79595134D01*
X114421914Y-79089041D01*
X114300630Y-78867002D01*
X114366900Y-78867002D01*
X114724371Y-79224473D01*
X114766771Y-79287929D01*
X114830227Y-79330329D01*
X115018162Y-79455904D01*
X115066305Y-79465480D01*
X115219214Y-79495896D01*
X115405423Y-79774577D01*
X115757758Y-80010000D01*
X115405423Y-80245423D01*
X115088260Y-80720091D01*
X114976887Y-81280000D01*
X115088260Y-81839909D01*
X115405423Y-82314577D01*
X115757758Y-82550000D01*
X115405423Y-82785423D01*
X115088260Y-83260091D01*
X114976887Y-83820000D01*
X115078332Y-84330000D01*
X114557903Y-84330000D01*
X113440431Y-83212530D01*
X113398029Y-83149071D01*
X113146637Y-82981096D01*
X112924952Y-82937000D01*
X112924947Y-82937000D01*
X112850100Y-82922112D01*
X112775253Y-82937000D01*
X107747369Y-82937000D01*
X107751131Y-82931370D01*
X111435623Y-79246879D01*
X111667359Y-79150891D01*
X111877611Y-79595134D01*
X112292577Y-79971041D01*
X112680961Y-80131904D01*
X112903000Y-80009915D01*
X112903000Y-78867000D01*
X112883000Y-78867000D01*
X112883000Y-78613000D01*
X112903000Y-78613000D01*
X112903000Y-78593000D01*
X113157000Y-78593000D01*
X113157000Y-78613000D01*
G36*
X71808466Y-75742862D02*
X72212138Y-76146534D01*
X72277299Y-76173525D01*
X72270995Y-76176136D01*
X72196861Y-76422255D01*
X73025000Y-77250395D01*
X73039142Y-77236252D01*
X73218748Y-77415858D01*
X73204605Y-77430000D01*
X74032745Y-78258139D01*
X74278864Y-78184005D01*
X74471965Y-77646777D01*
X74462202Y-77442004D01*
X75089501Y-78069303D01*
X75089500Y-78485797D01*
X74445529Y-79129769D01*
X74382071Y-79172171D01*
X74214096Y-79423564D01*
X74170000Y-79645249D01*
X74170000Y-79645253D01*
X74155112Y-79720100D01*
X74170000Y-79794947D01*
X74170000Y-80041570D01*
X74117138Y-80063466D01*
X73713466Y-80467138D01*
X73495000Y-80994561D01*
X73495000Y-81565439D01*
X73500108Y-81577771D01*
X73159774Y-81436800D01*
X72993701Y-81436800D01*
X72607731Y-81050830D01*
X72565329Y-80987371D01*
X72313937Y-80819396D01*
X72092252Y-80775300D01*
X72092247Y-80775300D01*
X72017400Y-80760412D01*
X71942553Y-80775300D01*
X69945282Y-80775300D01*
X70015000Y-80537000D01*
X70015000Y-80137000D01*
X68707000Y-80137000D01*
X68707000Y-80157000D01*
X68453000Y-80157000D01*
X68453000Y-80137000D01*
X68433000Y-80137000D01*
X68433000Y-79883000D01*
X68453000Y-79883000D01*
X68453000Y-79863000D01*
X68707000Y-79863000D01*
X68707000Y-79883000D01*
X70015000Y-79883000D01*
X70015000Y-79483000D01*
X69857166Y-78943517D01*
X69504896Y-78505500D01*
X69381101Y-78437745D01*
X72196861Y-78437745D01*
X72270995Y-78683864D01*
X72808223Y-78876965D01*
X73378454Y-78849778D01*
X73779005Y-78683864D01*
X73853139Y-78437745D01*
X73025000Y-77609605D01*
X72196861Y-78437745D01*
X69381101Y-78437745D01*
X69011819Y-78235633D01*
X68959945Y-78224643D01*
X69152729Y-78095829D01*
X69195131Y-78032370D01*
X70014278Y-77213223D01*
X71578035Y-77213223D01*
X71605222Y-77783454D01*
X71771136Y-78184005D01*
X72017255Y-78258139D01*
X72845395Y-77430000D01*
X72017255Y-76601861D01*
X71771136Y-76675995D01*
X71578035Y-77213223D01*
X70014278Y-77213223D01*
X71713619Y-75513882D01*
X71808466Y-75742862D01*
X71808466Y-75742862D01*
G37*
X71808466Y-75742862D02*
X72212138Y-76146534D01*
X72277299Y-76173525D01*
X72270995Y-76176136D01*
X72196861Y-76422255D01*
X73025000Y-77250395D01*
X73039142Y-77236252D01*
X73218748Y-77415858D01*
X73204605Y-77430000D01*
X74032745Y-78258139D01*
X74278864Y-78184005D01*
X74471965Y-77646777D01*
X74462202Y-77442004D01*
X75089501Y-78069303D01*
X75089500Y-78485797D01*
X74445529Y-79129769D01*
X74382071Y-79172171D01*
X74214096Y-79423564D01*
X74170000Y-79645249D01*
X74170000Y-79645253D01*
X74155112Y-79720100D01*
X74170000Y-79794947D01*
X74170000Y-80041570D01*
X74117138Y-80063466D01*
X73713466Y-80467138D01*
X73495000Y-80994561D01*
X73495000Y-81565439D01*
X73500108Y-81577771D01*
X73159774Y-81436800D01*
X72993701Y-81436800D01*
X72607731Y-81050830D01*
X72565329Y-80987371D01*
X72313937Y-80819396D01*
X72092252Y-80775300D01*
X72092247Y-80775300D01*
X72017400Y-80760412D01*
X71942553Y-80775300D01*
X69945282Y-80775300D01*
X70015000Y-80537000D01*
X70015000Y-80137000D01*
X68707000Y-80137000D01*
X68707000Y-80157000D01*
X68453000Y-80157000D01*
X68453000Y-80137000D01*
X68433000Y-80137000D01*
X68433000Y-79883000D01*
X68453000Y-79883000D01*
X68453000Y-79863000D01*
X68707000Y-79863000D01*
X68707000Y-79883000D01*
X70015000Y-79883000D01*
X70015000Y-79483000D01*
X69857166Y-78943517D01*
X69504896Y-78505500D01*
X69381101Y-78437745D01*
X72196861Y-78437745D01*
X72270995Y-78683864D01*
X72808223Y-78876965D01*
X73378454Y-78849778D01*
X73779005Y-78683864D01*
X73853139Y-78437745D01*
X73025000Y-77609605D01*
X72196861Y-78437745D01*
X69381101Y-78437745D01*
X69011819Y-78235633D01*
X68959945Y-78224643D01*
X69152729Y-78095829D01*
X69195131Y-78032370D01*
X70014278Y-77213223D01*
X71578035Y-77213223D01*
X71605222Y-77783454D01*
X71771136Y-78184005D01*
X72017255Y-78258139D01*
X72845395Y-77430000D01*
X72017255Y-76601861D01*
X71771136Y-76675995D01*
X71578035Y-77213223D01*
X70014278Y-77213223D01*
X71713619Y-75513882D01*
X71808466Y-75742862D01*
G36*
X107127470Y-76764872D02*
X107169871Y-76828329D01*
X107233327Y-76870729D01*
X107421262Y-76996304D01*
X107439698Y-76999971D01*
X107463910Y-77004787D01*
X107445633Y-77038181D01*
X107428096Y-77120961D01*
X107550085Y-77343000D01*
X109093000Y-77343000D01*
X109093000Y-77323000D01*
X109347000Y-77323000D01*
X109347000Y-77343000D01*
X109367000Y-77343000D01*
X109367000Y-77597000D01*
X109347000Y-77597000D01*
X109347000Y-78905000D01*
X109627898Y-78905000D01*
X107955257Y-80577642D01*
X107933864Y-80525995D01*
X107687745Y-80451861D01*
X106859605Y-81280000D01*
X106873748Y-81294143D01*
X106694143Y-81473748D01*
X106680000Y-81459605D01*
X106665858Y-81473748D01*
X106486253Y-81294143D01*
X106500395Y-81280000D01*
X105672255Y-80451861D01*
X105426136Y-80525995D01*
X105423710Y-80532746D01*
X105396534Y-80467138D01*
X105201651Y-80272255D01*
X105851861Y-80272255D01*
X106680000Y-81100395D01*
X107508139Y-80272255D01*
X107434005Y-80026136D01*
X106896777Y-79833035D01*
X106326546Y-79860222D01*
X105925995Y-80026136D01*
X105851861Y-80272255D01*
X105201651Y-80272255D01*
X104992862Y-80063466D01*
X104465439Y-79845000D01*
X103894561Y-79845000D01*
X103367138Y-80063466D01*
X102963466Y-80467138D01*
X102941570Y-80520000D01*
X99630102Y-80520000D01*
X96929141Y-77819039D01*
X107428096Y-77819039D01*
X107445633Y-77901819D01*
X107715500Y-78394896D01*
X108153517Y-78747166D01*
X108693000Y-78905000D01*
X109093000Y-78905000D01*
X109093000Y-77597000D01*
X107550085Y-77597000D01*
X107428096Y-77819039D01*
X96929141Y-77819039D01*
X96095631Y-76985530D01*
X96053229Y-76922071D01*
X95801837Y-76754096D01*
X95600786Y-76714104D01*
X95414577Y-76435423D01*
X95062242Y-76200000D01*
X95414577Y-75964577D01*
X95731740Y-75489909D01*
X95843113Y-74930000D01*
X95731740Y-74370091D01*
X95414577Y-73895423D01*
X95062242Y-73660000D01*
X95414577Y-73424577D01*
X95731740Y-72949909D01*
X95843113Y-72390000D01*
X95731740Y-71830091D01*
X95414577Y-71355423D01*
X95062242Y-71120000D01*
X95414577Y-70884577D01*
X95731740Y-70409909D01*
X95843113Y-69850000D01*
X95770430Y-69484600D01*
X99847199Y-69484600D01*
X107127470Y-76764872D01*
X107127470Y-76764872D01*
G37*
X107127470Y-76764872D02*
X107169871Y-76828329D01*
X107233327Y-76870729D01*
X107421262Y-76996304D01*
X107439698Y-76999971D01*
X107463910Y-77004787D01*
X107445633Y-77038181D01*
X107428096Y-77120961D01*
X107550085Y-77343000D01*
X109093000Y-77343000D01*
X109093000Y-77323000D01*
X109347000Y-77323000D01*
X109347000Y-77343000D01*
X109367000Y-77343000D01*
X109367000Y-77597000D01*
X109347000Y-77597000D01*
X109347000Y-78905000D01*
X109627898Y-78905000D01*
X107955257Y-80577642D01*
X107933864Y-80525995D01*
X107687745Y-80451861D01*
X106859605Y-81280000D01*
X106873748Y-81294143D01*
X106694143Y-81473748D01*
X106680000Y-81459605D01*
X106665858Y-81473748D01*
X106486253Y-81294143D01*
X106500395Y-81280000D01*
X105672255Y-80451861D01*
X105426136Y-80525995D01*
X105423710Y-80532746D01*
X105396534Y-80467138D01*
X105201651Y-80272255D01*
X105851861Y-80272255D01*
X106680000Y-81100395D01*
X107508139Y-80272255D01*
X107434005Y-80026136D01*
X106896777Y-79833035D01*
X106326546Y-79860222D01*
X105925995Y-80026136D01*
X105851861Y-80272255D01*
X105201651Y-80272255D01*
X104992862Y-80063466D01*
X104465439Y-79845000D01*
X103894561Y-79845000D01*
X103367138Y-80063466D01*
X102963466Y-80467138D01*
X102941570Y-80520000D01*
X99630102Y-80520000D01*
X96929141Y-77819039D01*
X107428096Y-77819039D01*
X107445633Y-77901819D01*
X107715500Y-78394896D01*
X108153517Y-78747166D01*
X108693000Y-78905000D01*
X109093000Y-78905000D01*
X109093000Y-77597000D01*
X107550085Y-77597000D01*
X107428096Y-77819039D01*
X96929141Y-77819039D01*
X96095631Y-76985530D01*
X96053229Y-76922071D01*
X95801837Y-76754096D01*
X95600786Y-76714104D01*
X95414577Y-76435423D01*
X95062242Y-76200000D01*
X95414577Y-75964577D01*
X95731740Y-75489909D01*
X95843113Y-74930000D01*
X95731740Y-74370091D01*
X95414577Y-73895423D01*
X95062242Y-73660000D01*
X95414577Y-73424577D01*
X95731740Y-72949909D01*
X95843113Y-72390000D01*
X95731740Y-71830091D01*
X95414577Y-71355423D01*
X95062242Y-71120000D01*
X95414577Y-70884577D01*
X95731740Y-70409909D01*
X95843113Y-69850000D01*
X95770430Y-69484600D01*
X99847199Y-69484600D01*
X107127470Y-76764872D01*
G36*
X112902998Y-77403099D02*
X112902998Y-77470084D01*
X112680961Y-77348096D01*
X112292577Y-77508959D01*
X112065002Y-77715113D01*
X112039531Y-77653620D01*
X111748380Y-77362469D01*
X111367974Y-77204900D01*
X110965788Y-77204900D01*
X111011904Y-77120961D01*
X110994837Y-77040400D01*
X112540299Y-77040400D01*
X112902998Y-77403099D01*
X112902998Y-77403099D01*
G37*
X112902998Y-77403099D02*
X112902998Y-77470084D01*
X112680961Y-77348096D01*
X112292577Y-77508959D01*
X112065002Y-77715113D01*
X112039531Y-77653620D01*
X111748380Y-77362469D01*
X111367974Y-77204900D01*
X110965788Y-77204900D01*
X111011904Y-77120961D01*
X110994837Y-77040400D01*
X112540299Y-77040400D01*
X112902998Y-77403099D01*
G36*
X114976887Y-63500000D02*
X115088260Y-64059909D01*
X115309692Y-64391306D01*
X114310558Y-65390440D01*
X114283864Y-65325995D01*
X114037745Y-65251861D01*
X113209605Y-66080000D01*
X113223748Y-66094143D01*
X113044143Y-66273748D01*
X113030000Y-66259605D01*
X113015858Y-66273748D01*
X112836252Y-66094142D01*
X112850395Y-66080000D01*
X112022255Y-65251861D01*
X111776136Y-65325995D01*
X111583035Y-65863223D01*
X111610222Y-66433454D01*
X111776136Y-66834005D01*
X112006734Y-66903464D01*
X110833704Y-68076495D01*
X110971740Y-67869909D01*
X111083113Y-67310000D01*
X110971740Y-66750091D01*
X110654577Y-66275423D01*
X110302242Y-66040000D01*
X110654577Y-65804577D01*
X110971740Y-65329909D01*
X111022990Y-65072255D01*
X112201861Y-65072255D01*
X113030000Y-65900395D01*
X113858139Y-65072255D01*
X113784005Y-64826136D01*
X113246777Y-64633035D01*
X112676546Y-64660222D01*
X112275995Y-64826136D01*
X112201861Y-65072255D01*
X111022990Y-65072255D01*
X111083113Y-64770000D01*
X110971740Y-64210091D01*
X110654577Y-63735423D01*
X110302242Y-63500000D01*
X110654577Y-63264577D01*
X110838043Y-62990000D01*
X115078332Y-62990000D01*
X114976887Y-63500000D01*
X114976887Y-63500000D01*
G37*
X114976887Y-63500000D02*
X115088260Y-64059909D01*
X115309692Y-64391306D01*
X114310558Y-65390440D01*
X114283864Y-65325995D01*
X114037745Y-65251861D01*
X113209605Y-66080000D01*
X113223748Y-66094143D01*
X113044143Y-66273748D01*
X113030000Y-66259605D01*
X113015858Y-66273748D01*
X112836252Y-66094142D01*
X112850395Y-66080000D01*
X112022255Y-65251861D01*
X111776136Y-65325995D01*
X111583035Y-65863223D01*
X111610222Y-66433454D01*
X111776136Y-66834005D01*
X112006734Y-66903464D01*
X110833704Y-68076495D01*
X110971740Y-67869909D01*
X111083113Y-67310000D01*
X110971740Y-66750091D01*
X110654577Y-66275423D01*
X110302242Y-66040000D01*
X110654577Y-65804577D01*
X110971740Y-65329909D01*
X111022990Y-65072255D01*
X112201861Y-65072255D01*
X113030000Y-65900395D01*
X113858139Y-65072255D01*
X113784005Y-64826136D01*
X113246777Y-64633035D01*
X112676546Y-64660222D01*
X112275995Y-64826136D01*
X112201861Y-65072255D01*
X111022990Y-65072255D01*
X111083113Y-64770000D01*
X110971740Y-64210091D01*
X110654577Y-63735423D01*
X110302242Y-63500000D01*
X110654577Y-63264577D01*
X110838043Y-62990000D01*
X115078332Y-62990000D01*
X114976887Y-63500000D01*
G36*
X76253466Y-60502862D02*
X76524961Y-60774357D01*
X76476856Y-60806500D01*
X75668346Y-60806500D01*
X75593499Y-60791612D01*
X75518652Y-60806500D01*
X75518648Y-60806500D01*
X75296963Y-60850596D01*
X75045571Y-61018571D01*
X75003171Y-61082027D01*
X73826109Y-62259089D01*
X73809778Y-61916546D01*
X73643864Y-61515995D01*
X73397745Y-61441861D01*
X72569605Y-62270000D01*
X72583748Y-62284142D01*
X72404142Y-62463748D01*
X72390000Y-62449605D01*
X71561861Y-63277745D01*
X71635995Y-63523864D01*
X71642746Y-63526290D01*
X71577138Y-63553466D01*
X71173466Y-63957138D01*
X71084272Y-64172471D01*
X68965024Y-62053223D01*
X70943035Y-62053223D01*
X70970222Y-62623454D01*
X71136136Y-63024005D01*
X71382255Y-63098139D01*
X72210395Y-62270000D01*
X71382255Y-61441861D01*
X71136136Y-61515995D01*
X70943035Y-62053223D01*
X68965024Y-62053223D01*
X68449241Y-61537440D01*
X69380000Y-61537440D01*
X69627765Y-61488157D01*
X69837809Y-61347809D01*
X69894974Y-61262255D01*
X71561861Y-61262255D01*
X72390000Y-62090395D01*
X73218139Y-61262255D01*
X73144005Y-61016136D01*
X72606777Y-60823035D01*
X72036546Y-60850222D01*
X71635995Y-61016136D01*
X71561861Y-61262255D01*
X69894974Y-61262255D01*
X69978157Y-61137765D01*
X70027440Y-60890000D01*
X70027440Y-60450000D01*
X76231570Y-60450000D01*
X76253466Y-60502862D01*
X76253466Y-60502862D01*
G37*
X76253466Y-60502862D02*
X76524961Y-60774357D01*
X76476856Y-60806500D01*
X75668346Y-60806500D01*
X75593499Y-60791612D01*
X75518652Y-60806500D01*
X75518648Y-60806500D01*
X75296963Y-60850596D01*
X75045571Y-61018571D01*
X75003171Y-61082027D01*
X73826109Y-62259089D01*
X73809778Y-61916546D01*
X73643864Y-61515995D01*
X73397745Y-61441861D01*
X72569605Y-62270000D01*
X72583748Y-62284142D01*
X72404142Y-62463748D01*
X72390000Y-62449605D01*
X71561861Y-63277745D01*
X71635995Y-63523864D01*
X71642746Y-63526290D01*
X71577138Y-63553466D01*
X71173466Y-63957138D01*
X71084272Y-64172471D01*
X68965024Y-62053223D01*
X70943035Y-62053223D01*
X70970222Y-62623454D01*
X71136136Y-63024005D01*
X71382255Y-63098139D01*
X72210395Y-62270000D01*
X71382255Y-61441861D01*
X71136136Y-61515995D01*
X70943035Y-62053223D01*
X68965024Y-62053223D01*
X68449241Y-61537440D01*
X69380000Y-61537440D01*
X69627765Y-61488157D01*
X69837809Y-61347809D01*
X69894974Y-61262255D01*
X71561861Y-61262255D01*
X72390000Y-62090395D01*
X73218139Y-61262255D01*
X73144005Y-61016136D01*
X72606777Y-60823035D01*
X72036546Y-60850222D01*
X71635995Y-61016136D01*
X71561861Y-61262255D01*
X69894974Y-61262255D01*
X69978157Y-61137765D01*
X70027440Y-60890000D01*
X70027440Y-60450000D01*
X76231570Y-60450000D01*
X76253466Y-60502862D01*
G36*
X92545423Y-60724577D02*
X92897758Y-60960000D01*
X92545423Y-61195423D01*
X92228260Y-61670091D01*
X92116887Y-62230000D01*
X92118618Y-62238700D01*
X90558402Y-62238700D01*
X90674367Y-62026819D01*
X90691904Y-61944039D01*
X90569915Y-61722000D01*
X89027000Y-61722000D01*
X89027000Y-61742000D01*
X88773000Y-61742000D01*
X88773000Y-61722000D01*
X88753000Y-61722000D01*
X88753000Y-61468000D01*
X88773000Y-61468000D01*
X88773000Y-61448000D01*
X89027000Y-61448000D01*
X89027000Y-61468000D01*
X90569915Y-61468000D01*
X90691904Y-61245961D01*
X90674367Y-61163181D01*
X90404500Y-60670104D01*
X90130820Y-60450000D01*
X92361957Y-60450000D01*
X92545423Y-60724577D01*
X92545423Y-60724577D01*
G37*
X92545423Y-60724577D02*
X92897758Y-60960000D01*
X92545423Y-61195423D01*
X92228260Y-61670091D01*
X92116887Y-62230000D01*
X92118618Y-62238700D01*
X90558402Y-62238700D01*
X90674367Y-62026819D01*
X90691904Y-61944039D01*
X90569915Y-61722000D01*
X89027000Y-61722000D01*
X89027000Y-61742000D01*
X88773000Y-61742000D01*
X88773000Y-61722000D01*
X88753000Y-61722000D01*
X88753000Y-61468000D01*
X88773000Y-61468000D01*
X88773000Y-61448000D01*
X89027000Y-61448000D01*
X89027000Y-61468000D01*
X90569915Y-61468000D01*
X90691904Y-61245961D01*
X90674367Y-61163181D01*
X90404500Y-60670104D01*
X90130820Y-60450000D01*
X92361957Y-60450000D01*
X92545423Y-60724577D01*
G36*
X67183000Y-40515000D02*
X67024561Y-40515000D01*
X66971698Y-40536897D01*
X66734931Y-40300130D01*
X66692529Y-40236671D01*
X66441137Y-40068696D01*
X66219452Y-40024600D01*
X66219447Y-40024600D01*
X66144600Y-40009712D01*
X66069753Y-40024600D01*
X57986448Y-40024600D01*
X57911600Y-40009712D01*
X57836752Y-40024600D01*
X57836748Y-40024600D01*
X57663205Y-40059120D01*
X57615062Y-40068696D01*
X57428018Y-40193676D01*
X57363671Y-40236671D01*
X57321271Y-40300127D01*
X49443218Y-48178181D01*
X49368922Y-47998815D01*
X48951185Y-47581078D01*
X48405385Y-47355000D01*
X47814615Y-47355000D01*
X47268815Y-47581078D01*
X46851078Y-47998815D01*
X46625000Y-48544615D01*
X46625000Y-49135385D01*
X46851078Y-49681185D01*
X47268815Y-50098922D01*
X47448181Y-50173218D01*
X46286399Y-51335000D01*
X46120326Y-51335000D01*
X45739920Y-51492569D01*
X45448769Y-51783720D01*
X45291200Y-52164126D01*
X45291200Y-52575874D01*
X45448769Y-52956280D01*
X45739920Y-53247431D01*
X46120326Y-53405000D01*
X46532074Y-53405000D01*
X46625000Y-53366509D01*
X46625000Y-53635385D01*
X46851078Y-54181185D01*
X47268815Y-54598922D01*
X47814615Y-54825000D01*
X48405385Y-54825000D01*
X48951185Y-54598922D01*
X49368922Y-54181185D01*
X49595000Y-53635385D01*
X49595000Y-53044615D01*
X49368922Y-52498815D01*
X48951185Y-52081078D01*
X48405385Y-51855000D01*
X47916001Y-51855000D01*
X58226402Y-41544600D01*
X59512560Y-41544600D01*
X59512560Y-42710000D01*
X59561843Y-42957765D01*
X59609744Y-43029454D01*
X55395528Y-47243671D01*
X55332072Y-47286071D01*
X55289672Y-47349527D01*
X55289671Y-47349528D01*
X55203505Y-47478485D01*
X54905385Y-47355000D01*
X54314615Y-47355000D01*
X53768815Y-47581078D01*
X53351078Y-47998815D01*
X53125000Y-48544615D01*
X53125000Y-49135385D01*
X53351078Y-49681185D01*
X53768815Y-50098922D01*
X54314615Y-50325000D01*
X54905385Y-50325000D01*
X55120001Y-50236103D01*
X55120001Y-51943897D01*
X54905385Y-51855000D01*
X54314615Y-51855000D01*
X53768815Y-52081078D01*
X53351078Y-52498815D01*
X53254266Y-52732540D01*
X53165171Y-52792071D01*
X53122771Y-52855527D01*
X49902699Y-56075600D01*
X49736626Y-56075600D01*
X49356220Y-56233169D01*
X49065069Y-56524320D01*
X48907500Y-56904726D01*
X48907500Y-57316474D01*
X49065069Y-57696880D01*
X49356220Y-57988031D01*
X49736626Y-58145600D01*
X50148374Y-58145600D01*
X50528780Y-57988031D01*
X50819931Y-57696880D01*
X50977500Y-57316474D01*
X50977500Y-57150401D01*
X53648897Y-54479004D01*
X53768815Y-54598922D01*
X54314615Y-54825000D01*
X54905385Y-54825000D01*
X55120000Y-54736103D01*
X55120000Y-58071957D01*
X54845424Y-58255423D01*
X54607501Y-58611499D01*
X54264896Y-58185500D01*
X53771819Y-57915633D01*
X53689039Y-57898096D01*
X53467000Y-58020085D01*
X53467000Y-59563000D01*
X53487000Y-59563000D01*
X53487000Y-59817000D01*
X53467000Y-59817000D01*
X53467000Y-59837000D01*
X53213000Y-59837000D01*
X53213000Y-59817000D01*
X51905000Y-59817000D01*
X51905000Y-60217000D01*
X52062834Y-60756483D01*
X52182760Y-60905600D01*
X51820403Y-60905600D01*
X50943104Y-60028302D01*
X50965000Y-59975439D01*
X50965000Y-59404561D01*
X50864943Y-59163000D01*
X51905000Y-59163000D01*
X51905000Y-59563000D01*
X53213000Y-59563000D01*
X53213000Y-58020085D01*
X52990961Y-57898096D01*
X52908181Y-57915633D01*
X52415104Y-58185500D01*
X52062834Y-58623517D01*
X51905000Y-59163000D01*
X50864943Y-59163000D01*
X50746534Y-58877138D01*
X50342862Y-58473466D01*
X49815439Y-58255000D01*
X49244561Y-58255000D01*
X48717138Y-58473466D01*
X48477800Y-58712804D01*
X48477800Y-57627346D01*
X48492688Y-57552499D01*
X48477800Y-57477652D01*
X48477800Y-57477648D01*
X48433704Y-57255963D01*
X48265729Y-57004571D01*
X48202273Y-56962171D01*
X43307000Y-52066899D01*
X43307000Y-38227000D01*
X67183000Y-38227000D01*
X67183000Y-40515000D01*
X67183000Y-40515000D01*
G37*
X67183000Y-40515000D02*
X67024561Y-40515000D01*
X66971698Y-40536897D01*
X66734931Y-40300130D01*
X66692529Y-40236671D01*
X66441137Y-40068696D01*
X66219452Y-40024600D01*
X66219447Y-40024600D01*
X66144600Y-40009712D01*
X66069753Y-40024600D01*
X57986448Y-40024600D01*
X57911600Y-40009712D01*
X57836752Y-40024600D01*
X57836748Y-40024600D01*
X57663205Y-40059120D01*
X57615062Y-40068696D01*
X57428018Y-40193676D01*
X57363671Y-40236671D01*
X57321271Y-40300127D01*
X49443218Y-48178181D01*
X49368922Y-47998815D01*
X48951185Y-47581078D01*
X48405385Y-47355000D01*
X47814615Y-47355000D01*
X47268815Y-47581078D01*
X46851078Y-47998815D01*
X46625000Y-48544615D01*
X46625000Y-49135385D01*
X46851078Y-49681185D01*
X47268815Y-50098922D01*
X47448181Y-50173218D01*
X46286399Y-51335000D01*
X46120326Y-51335000D01*
X45739920Y-51492569D01*
X45448769Y-51783720D01*
X45291200Y-52164126D01*
X45291200Y-52575874D01*
X45448769Y-52956280D01*
X45739920Y-53247431D01*
X46120326Y-53405000D01*
X46532074Y-53405000D01*
X46625000Y-53366509D01*
X46625000Y-53635385D01*
X46851078Y-54181185D01*
X47268815Y-54598922D01*
X47814615Y-54825000D01*
X48405385Y-54825000D01*
X48951185Y-54598922D01*
X49368922Y-54181185D01*
X49595000Y-53635385D01*
X49595000Y-53044615D01*
X49368922Y-52498815D01*
X48951185Y-52081078D01*
X48405385Y-51855000D01*
X47916001Y-51855000D01*
X58226402Y-41544600D01*
X59512560Y-41544600D01*
X59512560Y-42710000D01*
X59561843Y-42957765D01*
X59609744Y-43029454D01*
X55395528Y-47243671D01*
X55332072Y-47286071D01*
X55289672Y-47349527D01*
X55289671Y-47349528D01*
X55203505Y-47478485D01*
X54905385Y-47355000D01*
X54314615Y-47355000D01*
X53768815Y-47581078D01*
X53351078Y-47998815D01*
X53125000Y-48544615D01*
X53125000Y-49135385D01*
X53351078Y-49681185D01*
X53768815Y-50098922D01*
X54314615Y-50325000D01*
X54905385Y-50325000D01*
X55120001Y-50236103D01*
X55120001Y-51943897D01*
X54905385Y-51855000D01*
X54314615Y-51855000D01*
X53768815Y-52081078D01*
X53351078Y-52498815D01*
X53254266Y-52732540D01*
X53165171Y-52792071D01*
X53122771Y-52855527D01*
X49902699Y-56075600D01*
X49736626Y-56075600D01*
X49356220Y-56233169D01*
X49065069Y-56524320D01*
X48907500Y-56904726D01*
X48907500Y-57316474D01*
X49065069Y-57696880D01*
X49356220Y-57988031D01*
X49736626Y-58145600D01*
X50148374Y-58145600D01*
X50528780Y-57988031D01*
X50819931Y-57696880D01*
X50977500Y-57316474D01*
X50977500Y-57150401D01*
X53648897Y-54479004D01*
X53768815Y-54598922D01*
X54314615Y-54825000D01*
X54905385Y-54825000D01*
X55120000Y-54736103D01*
X55120000Y-58071957D01*
X54845424Y-58255423D01*
X54607501Y-58611499D01*
X54264896Y-58185500D01*
X53771819Y-57915633D01*
X53689039Y-57898096D01*
X53467000Y-58020085D01*
X53467000Y-59563000D01*
X53487000Y-59563000D01*
X53487000Y-59817000D01*
X53467000Y-59817000D01*
X53467000Y-59837000D01*
X53213000Y-59837000D01*
X53213000Y-59817000D01*
X51905000Y-59817000D01*
X51905000Y-60217000D01*
X52062834Y-60756483D01*
X52182760Y-60905600D01*
X51820403Y-60905600D01*
X50943104Y-60028302D01*
X50965000Y-59975439D01*
X50965000Y-59404561D01*
X50864943Y-59163000D01*
X51905000Y-59163000D01*
X51905000Y-59563000D01*
X53213000Y-59563000D01*
X53213000Y-58020085D01*
X52990961Y-57898096D01*
X52908181Y-57915633D01*
X52415104Y-58185500D01*
X52062834Y-58623517D01*
X51905000Y-59163000D01*
X50864943Y-59163000D01*
X50746534Y-58877138D01*
X50342862Y-58473466D01*
X49815439Y-58255000D01*
X49244561Y-58255000D01*
X48717138Y-58473466D01*
X48477800Y-58712804D01*
X48477800Y-57627346D01*
X48492688Y-57552499D01*
X48477800Y-57477652D01*
X48477800Y-57477648D01*
X48433704Y-57255963D01*
X48265729Y-57004571D01*
X48202273Y-56962171D01*
X43307000Y-52066899D01*
X43307000Y-38227000D01*
X67183000Y-38227000D01*
X67183000Y-40515000D01*
G36*
X65896897Y-41611698D02*
X65875000Y-41664561D01*
X65875000Y-42235439D01*
X66093466Y-42762862D01*
X66497138Y-43166534D01*
X66577932Y-43200000D01*
X66497138Y-43233466D01*
X66093466Y-43637138D01*
X65875000Y-44164561D01*
X65875000Y-44735439D01*
X66093466Y-45262862D01*
X66497138Y-45666534D01*
X67024561Y-45885000D01*
X67183000Y-45885000D01*
X67183000Y-48095000D01*
X67024561Y-48095000D01*
X66497138Y-48313466D01*
X66093466Y-48717138D01*
X66060000Y-48797932D01*
X66026534Y-48717138D01*
X65622862Y-48313466D01*
X65095439Y-48095000D01*
X64524561Y-48095000D01*
X63997138Y-48313466D01*
X63593466Y-48717138D01*
X63375000Y-49244561D01*
X63375000Y-49815439D01*
X63593466Y-50342862D01*
X63997138Y-50746534D01*
X64524561Y-50965000D01*
X65095439Y-50965000D01*
X65622862Y-50746534D01*
X66026534Y-50342862D01*
X66060000Y-50262068D01*
X66093466Y-50342862D01*
X66497138Y-50746534D01*
X67024561Y-50965000D01*
X67183000Y-50965000D01*
X67183000Y-52070000D01*
X67192667Y-52118601D01*
X67220197Y-52159803D01*
X67261399Y-52187333D01*
X67310000Y-52197000D01*
X73595477Y-52197000D01*
X73531843Y-52292235D01*
X73482560Y-52540000D01*
X73482560Y-54140000D01*
X73531843Y-54387765D01*
X73672191Y-54597809D01*
X73882235Y-54738157D01*
X73982503Y-54758101D01*
X73713466Y-55027138D01*
X73495000Y-55554561D01*
X73495000Y-56125439D01*
X73713466Y-56652862D01*
X74117138Y-57056534D01*
X74644561Y-57275000D01*
X75215439Y-57275000D01*
X75477125Y-57166606D01*
X76746855Y-58436304D01*
X76657138Y-58473466D01*
X76253466Y-58877138D01*
X76231570Y-58930000D01*
X70027440Y-58930000D01*
X70027440Y-58490000D01*
X69978157Y-58242235D01*
X69837809Y-58032191D01*
X69627765Y-57891843D01*
X69380000Y-57842560D01*
X67780000Y-57842560D01*
X67532235Y-57891843D01*
X67322191Y-58032191D01*
X67181843Y-58242235D01*
X67155215Y-58376106D01*
X67074577Y-58255423D01*
X66599909Y-57938260D01*
X66040000Y-57826887D01*
X65480092Y-57938260D01*
X65005424Y-58255423D01*
X64770000Y-58607759D01*
X64534577Y-58255423D01*
X64059909Y-57938260D01*
X63500000Y-57826887D01*
X62940092Y-57938260D01*
X62465424Y-58255423D01*
X62230000Y-58607759D01*
X61994577Y-58255423D01*
X61519909Y-57938260D01*
X60960000Y-57826887D01*
X60400092Y-57938260D01*
X59925424Y-58255423D01*
X59690000Y-58607759D01*
X59454577Y-58255423D01*
X58979909Y-57938260D01*
X58420000Y-57826887D01*
X57860092Y-57938260D01*
X57385424Y-58255423D01*
X57150000Y-58607759D01*
X56914577Y-58255423D01*
X56640000Y-58071957D01*
X56640000Y-54334506D01*
X61025000Y-54334506D01*
X61025000Y-54885494D01*
X61235853Y-55394540D01*
X61625460Y-55784147D01*
X62134506Y-55995000D01*
X62685494Y-55995000D01*
X63194540Y-55784147D01*
X63584147Y-55394540D01*
X63795000Y-54885494D01*
X63795000Y-54334506D01*
X65925000Y-54334506D01*
X65925000Y-54885494D01*
X66135853Y-55394540D01*
X66525460Y-55784147D01*
X67034506Y-55995000D01*
X67585494Y-55995000D01*
X68094540Y-55784147D01*
X68484147Y-55394540D01*
X68695000Y-54885494D01*
X68695000Y-54334506D01*
X68484147Y-53825460D01*
X68094540Y-53435853D01*
X67585494Y-53225000D01*
X67034506Y-53225000D01*
X66525460Y-53435853D01*
X66135853Y-53825460D01*
X65925000Y-54334506D01*
X63795000Y-54334506D01*
X63584147Y-53825460D01*
X63194540Y-53435853D01*
X62685494Y-53225000D01*
X62134506Y-53225000D01*
X61625460Y-53435853D01*
X61235853Y-53825460D01*
X61025000Y-54334506D01*
X56640000Y-54334506D01*
X56640000Y-48148801D01*
X59691470Y-45097332D01*
X59743466Y-45222862D01*
X60147138Y-45626534D01*
X60674561Y-45845000D01*
X61245439Y-45845000D01*
X61772862Y-45626534D01*
X62176534Y-45222862D01*
X62395000Y-44695439D01*
X62395000Y-44124561D01*
X62176534Y-43597138D01*
X61907497Y-43328101D01*
X62007765Y-43308157D01*
X62217809Y-43167809D01*
X62358157Y-42957765D01*
X62407440Y-42710000D01*
X62407440Y-41544600D01*
X65829799Y-41544600D01*
X65896897Y-41611698D01*
X65896897Y-41611698D01*
G37*
X65896897Y-41611698D02*
X65875000Y-41664561D01*
X65875000Y-42235439D01*
X66093466Y-42762862D01*
X66497138Y-43166534D01*
X66577932Y-43200000D01*
X66497138Y-43233466D01*
X66093466Y-43637138D01*
X65875000Y-44164561D01*
X65875000Y-44735439D01*
X66093466Y-45262862D01*
X66497138Y-45666534D01*
X67024561Y-45885000D01*
X67183000Y-45885000D01*
X67183000Y-48095000D01*
X67024561Y-48095000D01*
X66497138Y-48313466D01*
X66093466Y-48717138D01*
X66060000Y-48797932D01*
X66026534Y-48717138D01*
X65622862Y-48313466D01*
X65095439Y-48095000D01*
X64524561Y-48095000D01*
X63997138Y-48313466D01*
X63593466Y-48717138D01*
X63375000Y-49244561D01*
X63375000Y-49815439D01*
X63593466Y-50342862D01*
X63997138Y-50746534D01*
X64524561Y-50965000D01*
X65095439Y-50965000D01*
X65622862Y-50746534D01*
X66026534Y-50342862D01*
X66060000Y-50262068D01*
X66093466Y-50342862D01*
X66497138Y-50746534D01*
X67024561Y-50965000D01*
X67183000Y-50965000D01*
X67183000Y-52070000D01*
X67192667Y-52118601D01*
X67220197Y-52159803D01*
X67261399Y-52187333D01*
X67310000Y-52197000D01*
X73595477Y-52197000D01*
X73531843Y-52292235D01*
X73482560Y-52540000D01*
X73482560Y-54140000D01*
X73531843Y-54387765D01*
X73672191Y-54597809D01*
X73882235Y-54738157D01*
X73982503Y-54758101D01*
X73713466Y-55027138D01*
X73495000Y-55554561D01*
X73495000Y-56125439D01*
X73713466Y-56652862D01*
X74117138Y-57056534D01*
X74644561Y-57275000D01*
X75215439Y-57275000D01*
X75477125Y-57166606D01*
X76746855Y-58436304D01*
X76657138Y-58473466D01*
X76253466Y-58877138D01*
X76231570Y-58930000D01*
X70027440Y-58930000D01*
X70027440Y-58490000D01*
X69978157Y-58242235D01*
X69837809Y-58032191D01*
X69627765Y-57891843D01*
X69380000Y-57842560D01*
X67780000Y-57842560D01*
X67532235Y-57891843D01*
X67322191Y-58032191D01*
X67181843Y-58242235D01*
X67155215Y-58376106D01*
X67074577Y-58255423D01*
X66599909Y-57938260D01*
X66040000Y-57826887D01*
X65480092Y-57938260D01*
X65005424Y-58255423D01*
X64770000Y-58607759D01*
X64534577Y-58255423D01*
X64059909Y-57938260D01*
X63500000Y-57826887D01*
X62940092Y-57938260D01*
X62465424Y-58255423D01*
X62230000Y-58607759D01*
X61994577Y-58255423D01*
X61519909Y-57938260D01*
X60960000Y-57826887D01*
X60400092Y-57938260D01*
X59925424Y-58255423D01*
X59690000Y-58607759D01*
X59454577Y-58255423D01*
X58979909Y-57938260D01*
X58420000Y-57826887D01*
X57860092Y-57938260D01*
X57385424Y-58255423D01*
X57150000Y-58607759D01*
X56914577Y-58255423D01*
X56640000Y-58071957D01*
X56640000Y-54334506D01*
X61025000Y-54334506D01*
X61025000Y-54885494D01*
X61235853Y-55394540D01*
X61625460Y-55784147D01*
X62134506Y-55995000D01*
X62685494Y-55995000D01*
X63194540Y-55784147D01*
X63584147Y-55394540D01*
X63795000Y-54885494D01*
X63795000Y-54334506D01*
X65925000Y-54334506D01*
X65925000Y-54885494D01*
X66135853Y-55394540D01*
X66525460Y-55784147D01*
X67034506Y-55995000D01*
X67585494Y-55995000D01*
X68094540Y-55784147D01*
X68484147Y-55394540D01*
X68695000Y-54885494D01*
X68695000Y-54334506D01*
X68484147Y-53825460D01*
X68094540Y-53435853D01*
X67585494Y-53225000D01*
X67034506Y-53225000D01*
X66525460Y-53435853D01*
X66135853Y-53825460D01*
X65925000Y-54334506D01*
X63795000Y-54334506D01*
X63584147Y-53825460D01*
X63194540Y-53435853D01*
X62685494Y-53225000D01*
X62134506Y-53225000D01*
X61625460Y-53435853D01*
X61235853Y-53825460D01*
X61025000Y-54334506D01*
X56640000Y-54334506D01*
X56640000Y-48148801D01*
X59691470Y-45097332D01*
X59743466Y-45222862D01*
X60147138Y-45626534D01*
X60674561Y-45845000D01*
X61245439Y-45845000D01*
X61772862Y-45626534D01*
X62176534Y-45222862D01*
X62395000Y-44695439D01*
X62395000Y-44124561D01*
X62176534Y-43597138D01*
X61907497Y-43328101D01*
X62007765Y-43308157D01*
X62217809Y-43167809D01*
X62358157Y-42957765D01*
X62407440Y-42710000D01*
X62407440Y-41544600D01*
X65829799Y-41544600D01*
X65896897Y-41611698D01*
G36*
X92228260Y-52629909D02*
X92291530Y-52724600D01*
X91330248Y-52724600D01*
X91255400Y-52709712D01*
X91180552Y-52724600D01*
X91180548Y-52724600D01*
X91007005Y-52759120D01*
X90958862Y-52768696D01*
X90771818Y-52893676D01*
X90707471Y-52936671D01*
X90665071Y-53000127D01*
X89065000Y-54600198D01*
X89065000Y-54482998D01*
X88906252Y-54482998D01*
X89065000Y-54324250D01*
X89065000Y-53683691D01*
X88968327Y-53450302D01*
X88789699Y-53271673D01*
X88556310Y-53175000D01*
X87915750Y-53175000D01*
X87757000Y-53333750D01*
X87757000Y-54483000D01*
X87777000Y-54483000D01*
X87777000Y-54737000D01*
X87757000Y-54737000D01*
X87757000Y-54757000D01*
X87503000Y-54757000D01*
X87503000Y-54737000D01*
X86353750Y-54737000D01*
X86195000Y-54895750D01*
X86195000Y-55536309D01*
X86291673Y-55769698D01*
X86470301Y-55948327D01*
X86676759Y-56033845D01*
X86413466Y-56297138D01*
X86195000Y-56824561D01*
X86195000Y-57395439D01*
X86216897Y-57448302D01*
X86005199Y-57660000D01*
X82518430Y-57660000D01*
X82496534Y-57607138D01*
X82092862Y-57203466D01*
X82027701Y-57176475D01*
X82034005Y-57173864D01*
X82108139Y-56927745D01*
X81280000Y-56099605D01*
X80451861Y-56927745D01*
X80525995Y-57173864D01*
X80532746Y-57176290D01*
X80467138Y-57203466D01*
X80063466Y-57607138D01*
X80016892Y-57719578D01*
X79993855Y-57734971D01*
X79788671Y-57872071D01*
X79746271Y-57935527D01*
X79070993Y-58610805D01*
X76365000Y-55904883D01*
X76365000Y-55703223D01*
X79833035Y-55703223D01*
X79860222Y-56273454D01*
X80026136Y-56674005D01*
X80272255Y-56748139D01*
X81100395Y-55920000D01*
X81459605Y-55920000D01*
X82287745Y-56748139D01*
X82533864Y-56674005D01*
X82726965Y-56136777D01*
X82699778Y-55566546D01*
X82533864Y-55165995D01*
X82287745Y-55091861D01*
X81459605Y-55920000D01*
X81100395Y-55920000D01*
X80272255Y-55091861D01*
X80026136Y-55165995D01*
X79833035Y-55703223D01*
X76365000Y-55703223D01*
X76365000Y-55554561D01*
X76146534Y-55027138D01*
X76031651Y-54912255D01*
X80451861Y-54912255D01*
X81280000Y-55740395D01*
X82108139Y-54912255D01*
X82034005Y-54666136D01*
X81496777Y-54473035D01*
X80926546Y-54500222D01*
X80525995Y-54666136D01*
X80451861Y-54912255D01*
X76031651Y-54912255D01*
X75877497Y-54758101D01*
X75977765Y-54738157D01*
X76187809Y-54597809D01*
X76328157Y-54387765D01*
X76377440Y-54140000D01*
X76377440Y-53683691D01*
X86195000Y-53683691D01*
X86195000Y-54324250D01*
X86353750Y-54483000D01*
X87503000Y-54483000D01*
X87503000Y-53333750D01*
X87344250Y-53175000D01*
X86703690Y-53175000D01*
X86470301Y-53271673D01*
X86291673Y-53450302D01*
X86195000Y-53683691D01*
X76377440Y-53683691D01*
X76377440Y-52540000D01*
X76328157Y-52292235D01*
X76264523Y-52197000D01*
X92142149Y-52197000D01*
X92228260Y-52629909D01*
X92228260Y-52629909D01*
G37*
X92228260Y-52629909D02*
X92291530Y-52724600D01*
X91330248Y-52724600D01*
X91255400Y-52709712D01*
X91180552Y-52724600D01*
X91180548Y-52724600D01*
X91007005Y-52759120D01*
X90958862Y-52768696D01*
X90771818Y-52893676D01*
X90707471Y-52936671D01*
X90665071Y-53000127D01*
X89065000Y-54600198D01*
X89065000Y-54482998D01*
X88906252Y-54482998D01*
X89065000Y-54324250D01*
X89065000Y-53683691D01*
X88968327Y-53450302D01*
X88789699Y-53271673D01*
X88556310Y-53175000D01*
X87915750Y-53175000D01*
X87757000Y-53333750D01*
X87757000Y-54483000D01*
X87777000Y-54483000D01*
X87777000Y-54737000D01*
X87757000Y-54737000D01*
X87757000Y-54757000D01*
X87503000Y-54757000D01*
X87503000Y-54737000D01*
X86353750Y-54737000D01*
X86195000Y-54895750D01*
X86195000Y-55536309D01*
X86291673Y-55769698D01*
X86470301Y-55948327D01*
X86676759Y-56033845D01*
X86413466Y-56297138D01*
X86195000Y-56824561D01*
X86195000Y-57395439D01*
X86216897Y-57448302D01*
X86005199Y-57660000D01*
X82518430Y-57660000D01*
X82496534Y-57607138D01*
X82092862Y-57203466D01*
X82027701Y-57176475D01*
X82034005Y-57173864D01*
X82108139Y-56927745D01*
X81280000Y-56099605D01*
X80451861Y-56927745D01*
X80525995Y-57173864D01*
X80532746Y-57176290D01*
X80467138Y-57203466D01*
X80063466Y-57607138D01*
X80016892Y-57719578D01*
X79993855Y-57734971D01*
X79788671Y-57872071D01*
X79746271Y-57935527D01*
X79070993Y-58610805D01*
X76365000Y-55904883D01*
X76365000Y-55703223D01*
X79833035Y-55703223D01*
X79860222Y-56273454D01*
X80026136Y-56674005D01*
X80272255Y-56748139D01*
X81100395Y-55920000D01*
X81459605Y-55920000D01*
X82287745Y-56748139D01*
X82533864Y-56674005D01*
X82726965Y-56136777D01*
X82699778Y-55566546D01*
X82533864Y-55165995D01*
X82287745Y-55091861D01*
X81459605Y-55920000D01*
X81100395Y-55920000D01*
X80272255Y-55091861D01*
X80026136Y-55165995D01*
X79833035Y-55703223D01*
X76365000Y-55703223D01*
X76365000Y-55554561D01*
X76146534Y-55027138D01*
X76031651Y-54912255D01*
X80451861Y-54912255D01*
X81280000Y-55740395D01*
X82108139Y-54912255D01*
X82034005Y-54666136D01*
X81496777Y-54473035D01*
X80926546Y-54500222D01*
X80525995Y-54666136D01*
X80451861Y-54912255D01*
X76031651Y-54912255D01*
X75877497Y-54758101D01*
X75977765Y-54738157D01*
X76187809Y-54597809D01*
X76328157Y-54387765D01*
X76377440Y-54140000D01*
X76377440Y-53683691D01*
X86195000Y-53683691D01*
X86195000Y-54324250D01*
X86353750Y-54483000D01*
X87503000Y-54483000D01*
X87503000Y-53333750D01*
X87344250Y-53175000D01*
X86703690Y-53175000D01*
X86470301Y-53271673D01*
X86291673Y-53450302D01*
X86195000Y-53683691D01*
X76377440Y-53683691D01*
X76377440Y-52540000D01*
X76328157Y-52292235D01*
X76264523Y-52197000D01*
X92142149Y-52197000D01*
X92228260Y-52629909D01*
G36*
X128469375Y-50600625D02*
X128767761Y-50800000D01*
X128469375Y-50999375D01*
X128141161Y-51490582D01*
X128025908Y-52070000D01*
X128141161Y-52649418D01*
X128469375Y-53140625D01*
X128767761Y-53340000D01*
X128469375Y-53539375D01*
X128261822Y-53850000D01*
X126191578Y-53850000D01*
X126234367Y-53771819D01*
X126251904Y-53689039D01*
X126129915Y-53467000D01*
X124587000Y-53467000D01*
X124587000Y-53487000D01*
X124333000Y-53487000D01*
X124333000Y-53467000D01*
X122790085Y-53467000D01*
X122668096Y-53689039D01*
X122685633Y-53771819D01*
X122728422Y-53850000D01*
X119710146Y-53850000D01*
X119635299Y-53835112D01*
X119560452Y-53850000D01*
X119560448Y-53850000D01*
X119338763Y-53894096D01*
X119087371Y-54062071D01*
X119044971Y-54125527D01*
X118294804Y-54875695D01*
X118274577Y-54845423D01*
X118153894Y-54764785D01*
X118287765Y-54738157D01*
X118497809Y-54597809D01*
X118638157Y-54387765D01*
X118687440Y-54140000D01*
X118687440Y-52990961D01*
X122668096Y-52990961D01*
X122790085Y-53213000D01*
X124333000Y-53213000D01*
X124333000Y-51905000D01*
X124587000Y-51905000D01*
X124587000Y-53213000D01*
X126129915Y-53213000D01*
X126251904Y-52990961D01*
X126234367Y-52908181D01*
X125964500Y-52415104D01*
X125526483Y-52062834D01*
X124987000Y-51905000D01*
X124587000Y-51905000D01*
X124333000Y-51905000D01*
X123933000Y-51905000D01*
X123393517Y-52062834D01*
X122955500Y-52415104D01*
X122685633Y-52908181D01*
X122668096Y-52990961D01*
X118687440Y-52990961D01*
X118687440Y-52974600D01*
X121700553Y-52974600D01*
X121775400Y-52989488D01*
X121850247Y-52974600D01*
X121850252Y-52974600D01*
X122071937Y-52930504D01*
X122323329Y-52762529D01*
X122365731Y-52699070D01*
X124121698Y-50943103D01*
X124174561Y-50965000D01*
X124745439Y-50965000D01*
X125272862Y-50746534D01*
X125676534Y-50342862D01*
X125698430Y-50290000D01*
X128261822Y-50290000D01*
X128469375Y-50600625D01*
X128469375Y-50600625D01*
G37*
X128469375Y-50600625D02*
X128767761Y-50800000D01*
X128469375Y-50999375D01*
X128141161Y-51490582D01*
X128025908Y-52070000D01*
X128141161Y-52649418D01*
X128469375Y-53140625D01*
X128767761Y-53340000D01*
X128469375Y-53539375D01*
X128261822Y-53850000D01*
X126191578Y-53850000D01*
X126234367Y-53771819D01*
X126251904Y-53689039D01*
X126129915Y-53467000D01*
X124587000Y-53467000D01*
X124587000Y-53487000D01*
X124333000Y-53487000D01*
X124333000Y-53467000D01*
X122790085Y-53467000D01*
X122668096Y-53689039D01*
X122685633Y-53771819D01*
X122728422Y-53850000D01*
X119710146Y-53850000D01*
X119635299Y-53835112D01*
X119560452Y-53850000D01*
X119560448Y-53850000D01*
X119338763Y-53894096D01*
X119087371Y-54062071D01*
X119044971Y-54125527D01*
X118294804Y-54875695D01*
X118274577Y-54845423D01*
X118153894Y-54764785D01*
X118287765Y-54738157D01*
X118497809Y-54597809D01*
X118638157Y-54387765D01*
X118687440Y-54140000D01*
X118687440Y-52990961D01*
X122668096Y-52990961D01*
X122790085Y-53213000D01*
X124333000Y-53213000D01*
X124333000Y-51905000D01*
X124587000Y-51905000D01*
X124587000Y-53213000D01*
X126129915Y-53213000D01*
X126251904Y-52990961D01*
X126234367Y-52908181D01*
X125964500Y-52415104D01*
X125526483Y-52062834D01*
X124987000Y-51905000D01*
X124587000Y-51905000D01*
X124333000Y-51905000D01*
X123933000Y-51905000D01*
X123393517Y-52062834D01*
X122955500Y-52415104D01*
X122685633Y-52908181D01*
X122668096Y-52990961D01*
X118687440Y-52990961D01*
X118687440Y-52974600D01*
X121700553Y-52974600D01*
X121775400Y-52989488D01*
X121850247Y-52974600D01*
X121850252Y-52974600D01*
X122071937Y-52930504D01*
X122323329Y-52762529D01*
X122365731Y-52699070D01*
X124121698Y-50943103D01*
X124174561Y-50965000D01*
X124745439Y-50965000D01*
X125272862Y-50746534D01*
X125676534Y-50342862D01*
X125698430Y-50290000D01*
X128261822Y-50290000D01*
X128469375Y-50600625D01*
G36*
X115608959Y-48792577D02*
X115448096Y-49180961D01*
X115570085Y-49403000D01*
X116713000Y-49403000D01*
X116713000Y-49383000D01*
X116967000Y-49383000D01*
X116967000Y-49403000D01*
X118109915Y-49403000D01*
X118231904Y-49180961D01*
X118071041Y-48792577D01*
X118039900Y-48758200D01*
X122417098Y-48758200D01*
X120357699Y-50817600D01*
X117409446Y-50817600D01*
X117695134Y-50682389D01*
X118071041Y-50267423D01*
X118231904Y-49879039D01*
X118109915Y-49657000D01*
X116967000Y-49657000D01*
X116967000Y-49677000D01*
X116713000Y-49677000D01*
X116713000Y-49657000D01*
X115570085Y-49657000D01*
X115448096Y-49879039D01*
X115608959Y-50267423D01*
X115984866Y-50682389D01*
X116270554Y-50817600D01*
X113852546Y-50817600D01*
X113777699Y-50802712D01*
X113702852Y-50817600D01*
X113702848Y-50817600D01*
X113481163Y-50861696D01*
X113229771Y-51029671D01*
X113187371Y-51093127D01*
X110674804Y-53605695D01*
X110654577Y-53575423D01*
X110302242Y-53340000D01*
X110654577Y-53104577D01*
X110840786Y-52825896D01*
X111041837Y-52785904D01*
X111293229Y-52617929D01*
X111335631Y-52554470D01*
X115131902Y-48758200D01*
X115640100Y-48758200D01*
X115608959Y-48792577D01*
X115608959Y-48792577D01*
G37*
X115608959Y-48792577D02*
X115448096Y-49180961D01*
X115570085Y-49403000D01*
X116713000Y-49403000D01*
X116713000Y-49383000D01*
X116967000Y-49383000D01*
X116967000Y-49403000D01*
X118109915Y-49403000D01*
X118231904Y-49180961D01*
X118071041Y-48792577D01*
X118039900Y-48758200D01*
X122417098Y-48758200D01*
X120357699Y-50817600D01*
X117409446Y-50817600D01*
X117695134Y-50682389D01*
X118071041Y-50267423D01*
X118231904Y-49879039D01*
X118109915Y-49657000D01*
X116967000Y-49657000D01*
X116967000Y-49677000D01*
X116713000Y-49677000D01*
X116713000Y-49657000D01*
X115570085Y-49657000D01*
X115448096Y-49879039D01*
X115608959Y-50267423D01*
X115984866Y-50682389D01*
X116270554Y-50817600D01*
X113852546Y-50817600D01*
X113777699Y-50802712D01*
X113702852Y-50817600D01*
X113702848Y-50817600D01*
X113481163Y-50861696D01*
X113229771Y-51029671D01*
X113187371Y-51093127D01*
X110674804Y-53605695D01*
X110654577Y-53575423D01*
X110302242Y-53340000D01*
X110654577Y-53104577D01*
X110840786Y-52825896D01*
X111041837Y-52785904D01*
X111293229Y-52617929D01*
X111335631Y-52554470D01*
X115131902Y-48758200D01*
X115640100Y-48758200D01*
X115608959Y-48792577D01*
G36*
X128469375Y-38299375D02*
X128141161Y-38790582D01*
X128025908Y-39370000D01*
X128141161Y-39949418D01*
X128469375Y-40440625D01*
X128767761Y-40640000D01*
X128469375Y-40839375D01*
X128141161Y-41330582D01*
X128025908Y-41910000D01*
X128141161Y-42489418D01*
X128469375Y-42980625D01*
X128767761Y-43180000D01*
X128469375Y-43379375D01*
X128261822Y-43690000D01*
X127314803Y-43690000D01*
X125873103Y-42248302D01*
X125895000Y-42195439D01*
X125895000Y-41624561D01*
X125676534Y-41097138D01*
X125272862Y-40693466D01*
X124745439Y-40475000D01*
X124174561Y-40475000D01*
X123647138Y-40693466D01*
X123243466Y-41097138D01*
X123025000Y-41624561D01*
X123025000Y-42195439D01*
X123243466Y-42722862D01*
X123647138Y-43126534D01*
X124174561Y-43345000D01*
X124745439Y-43345000D01*
X124798302Y-43323103D01*
X125274898Y-43799700D01*
X115790448Y-43799700D01*
X115715600Y-43784812D01*
X115640752Y-43799700D01*
X115640748Y-43799700D01*
X115467205Y-43834220D01*
X115419062Y-43843796D01*
X115331848Y-43902071D01*
X115167671Y-44011771D01*
X115125271Y-44075227D01*
X110674804Y-48525695D01*
X110654577Y-48495423D01*
X110302242Y-48260000D01*
X110654577Y-48024577D01*
X110971740Y-47549909D01*
X111083113Y-46990000D01*
X110971740Y-46430091D01*
X110654577Y-45955423D01*
X110302242Y-45720000D01*
X110654577Y-45484577D01*
X110971740Y-45009909D01*
X111083113Y-44450000D01*
X110971740Y-43890091D01*
X110654577Y-43415423D01*
X110179909Y-43098260D01*
X109761333Y-43015000D01*
X108678667Y-43015000D01*
X108260091Y-43098260D01*
X107785423Y-43415423D01*
X107468260Y-43890091D01*
X107356887Y-44450000D01*
X107468260Y-45009909D01*
X107785423Y-45484577D01*
X108137758Y-45720000D01*
X107785423Y-45955423D01*
X107468260Y-46430091D01*
X107356887Y-46990000D01*
X107468260Y-47549909D01*
X107785423Y-48024577D01*
X108137758Y-48260000D01*
X107785423Y-48495423D01*
X107601957Y-48770000D01*
X106805000Y-48770000D01*
X106805000Y-42259039D01*
X115448096Y-42259039D01*
X115608959Y-42647423D01*
X115984866Y-43062389D01*
X116490959Y-43301914D01*
X116713000Y-43180629D01*
X116713000Y-42037000D01*
X116967000Y-42037000D01*
X116967000Y-43180629D01*
X117189041Y-43301914D01*
X117695134Y-43062389D01*
X118071041Y-42647423D01*
X118231904Y-42259039D01*
X118109915Y-42037000D01*
X116967000Y-42037000D01*
X116713000Y-42037000D01*
X115570085Y-42037000D01*
X115448096Y-42259039D01*
X106805000Y-42259039D01*
X106805000Y-41878430D01*
X106857862Y-41856534D01*
X107066651Y-41647745D01*
X107716861Y-41647745D01*
X107790995Y-41893864D01*
X108328223Y-42086965D01*
X108898454Y-42059778D01*
X109299005Y-41893864D01*
X109373139Y-41647745D01*
X109286356Y-41560961D01*
X115448096Y-41560961D01*
X115570085Y-41783000D01*
X116713000Y-41783000D01*
X116713000Y-40639371D01*
X116967000Y-40639371D01*
X116967000Y-41783000D01*
X118109915Y-41783000D01*
X118231904Y-41560961D01*
X118071041Y-41172577D01*
X117695134Y-40757611D01*
X117189041Y-40518086D01*
X116967000Y-40639371D01*
X116713000Y-40639371D01*
X116490959Y-40518086D01*
X115984866Y-40757611D01*
X115608959Y-41172577D01*
X115448096Y-41560961D01*
X109286356Y-41560961D01*
X108545000Y-40819605D01*
X107716861Y-41647745D01*
X107066651Y-41647745D01*
X107261534Y-41452862D01*
X107288525Y-41387701D01*
X107291136Y-41394005D01*
X107537255Y-41468139D01*
X108365395Y-40640000D01*
X108724605Y-40640000D01*
X109552745Y-41468139D01*
X109798864Y-41394005D01*
X109991965Y-40856777D01*
X109964778Y-40286546D01*
X109798864Y-39885995D01*
X109552745Y-39811861D01*
X108724605Y-40640000D01*
X108365395Y-40640000D01*
X107537255Y-39811861D01*
X107291136Y-39885995D01*
X107288710Y-39892746D01*
X107261534Y-39827138D01*
X107066651Y-39632255D01*
X107716861Y-39632255D01*
X108545000Y-40460395D01*
X109373139Y-39632255D01*
X109299005Y-39386136D01*
X108761777Y-39193035D01*
X108191546Y-39220222D01*
X107790995Y-39386136D01*
X107716861Y-39632255D01*
X107066651Y-39632255D01*
X106857862Y-39423466D01*
X106330439Y-39205000D01*
X105759561Y-39205000D01*
X105232138Y-39423466D01*
X104828466Y-39827138D01*
X104610000Y-40354561D01*
X104610000Y-40925439D01*
X104828466Y-41452862D01*
X105232138Y-41856534D01*
X105285001Y-41878431D01*
X105285000Y-49215198D01*
X101775599Y-52724600D01*
X95668470Y-52724600D01*
X95731740Y-52629909D01*
X95843113Y-52070000D01*
X95731740Y-51510091D01*
X95414577Y-51035423D01*
X95062242Y-50800000D01*
X95414577Y-50564577D01*
X95731740Y-50089909D01*
X95843113Y-49530000D01*
X95731740Y-48970091D01*
X95414577Y-48495423D01*
X95062242Y-48260000D01*
X95414577Y-48024577D01*
X95731740Y-47549909D01*
X95843113Y-46990000D01*
X95731740Y-46430091D01*
X95414577Y-45955423D01*
X95293894Y-45874785D01*
X95427765Y-45848157D01*
X95637809Y-45707809D01*
X95778157Y-45497765D01*
X95827440Y-45250000D01*
X95827440Y-43650000D01*
X95778157Y-43402235D01*
X95637809Y-43192191D01*
X95427765Y-43051843D01*
X95180000Y-43002560D01*
X92837000Y-43002560D01*
X92837000Y-38227000D01*
X128577692Y-38227000D01*
X128469375Y-38299375D01*
X128469375Y-38299375D01*
G37*
X128469375Y-38299375D02*
X128141161Y-38790582D01*
X128025908Y-39370000D01*
X128141161Y-39949418D01*
X128469375Y-40440625D01*
X128767761Y-40640000D01*
X128469375Y-40839375D01*
X128141161Y-41330582D01*
X128025908Y-41910000D01*
X128141161Y-42489418D01*
X128469375Y-42980625D01*
X128767761Y-43180000D01*
X128469375Y-43379375D01*
X128261822Y-43690000D01*
X127314803Y-43690000D01*
X125873103Y-42248302D01*
X125895000Y-42195439D01*
X125895000Y-41624561D01*
X125676534Y-41097138D01*
X125272862Y-40693466D01*
X124745439Y-40475000D01*
X124174561Y-40475000D01*
X123647138Y-40693466D01*
X123243466Y-41097138D01*
X123025000Y-41624561D01*
X123025000Y-42195439D01*
X123243466Y-42722862D01*
X123647138Y-43126534D01*
X124174561Y-43345000D01*
X124745439Y-43345000D01*
X124798302Y-43323103D01*
X125274898Y-43799700D01*
X115790448Y-43799700D01*
X115715600Y-43784812D01*
X115640752Y-43799700D01*
X115640748Y-43799700D01*
X115467205Y-43834220D01*
X115419062Y-43843796D01*
X115331848Y-43902071D01*
X115167671Y-44011771D01*
X115125271Y-44075227D01*
X110674804Y-48525695D01*
X110654577Y-48495423D01*
X110302242Y-48260000D01*
X110654577Y-48024577D01*
X110971740Y-47549909D01*
X111083113Y-46990000D01*
X110971740Y-46430091D01*
X110654577Y-45955423D01*
X110302242Y-45720000D01*
X110654577Y-45484577D01*
X110971740Y-45009909D01*
X111083113Y-44450000D01*
X110971740Y-43890091D01*
X110654577Y-43415423D01*
X110179909Y-43098260D01*
X109761333Y-43015000D01*
X108678667Y-43015000D01*
X108260091Y-43098260D01*
X107785423Y-43415423D01*
X107468260Y-43890091D01*
X107356887Y-44450000D01*
X107468260Y-45009909D01*
X107785423Y-45484577D01*
X108137758Y-45720000D01*
X107785423Y-45955423D01*
X107468260Y-46430091D01*
X107356887Y-46990000D01*
X107468260Y-47549909D01*
X107785423Y-48024577D01*
X108137758Y-48260000D01*
X107785423Y-48495423D01*
X107601957Y-48770000D01*
X106805000Y-48770000D01*
X106805000Y-42259039D01*
X115448096Y-42259039D01*
X115608959Y-42647423D01*
X115984866Y-43062389D01*
X116490959Y-43301914D01*
X116713000Y-43180629D01*
X116713000Y-42037000D01*
X116967000Y-42037000D01*
X116967000Y-43180629D01*
X117189041Y-43301914D01*
X117695134Y-43062389D01*
X118071041Y-42647423D01*
X118231904Y-42259039D01*
X118109915Y-42037000D01*
X116967000Y-42037000D01*
X116713000Y-42037000D01*
X115570085Y-42037000D01*
X115448096Y-42259039D01*
X106805000Y-42259039D01*
X106805000Y-41878430D01*
X106857862Y-41856534D01*
X107066651Y-41647745D01*
X107716861Y-41647745D01*
X107790995Y-41893864D01*
X108328223Y-42086965D01*
X108898454Y-42059778D01*
X109299005Y-41893864D01*
X109373139Y-41647745D01*
X109286356Y-41560961D01*
X115448096Y-41560961D01*
X115570085Y-41783000D01*
X116713000Y-41783000D01*
X116713000Y-40639371D01*
X116967000Y-40639371D01*
X116967000Y-41783000D01*
X118109915Y-41783000D01*
X118231904Y-41560961D01*
X118071041Y-41172577D01*
X117695134Y-40757611D01*
X117189041Y-40518086D01*
X116967000Y-40639371D01*
X116713000Y-40639371D01*
X116490959Y-40518086D01*
X115984866Y-40757611D01*
X115608959Y-41172577D01*
X115448096Y-41560961D01*
X109286356Y-41560961D01*
X108545000Y-40819605D01*
X107716861Y-41647745D01*
X107066651Y-41647745D01*
X107261534Y-41452862D01*
X107288525Y-41387701D01*
X107291136Y-41394005D01*
X107537255Y-41468139D01*
X108365395Y-40640000D01*
X108724605Y-40640000D01*
X109552745Y-41468139D01*
X109798864Y-41394005D01*
X109991965Y-40856777D01*
X109964778Y-40286546D01*
X109798864Y-39885995D01*
X109552745Y-39811861D01*
X108724605Y-40640000D01*
X108365395Y-40640000D01*
X107537255Y-39811861D01*
X107291136Y-39885995D01*
X107288710Y-39892746D01*
X107261534Y-39827138D01*
X107066651Y-39632255D01*
X107716861Y-39632255D01*
X108545000Y-40460395D01*
X109373139Y-39632255D01*
X109299005Y-39386136D01*
X108761777Y-39193035D01*
X108191546Y-39220222D01*
X107790995Y-39386136D01*
X107716861Y-39632255D01*
X107066651Y-39632255D01*
X106857862Y-39423466D01*
X106330439Y-39205000D01*
X105759561Y-39205000D01*
X105232138Y-39423466D01*
X104828466Y-39827138D01*
X104610000Y-40354561D01*
X104610000Y-40925439D01*
X104828466Y-41452862D01*
X105232138Y-41856534D01*
X105285001Y-41878431D01*
X105285000Y-49215198D01*
X101775599Y-52724600D01*
X95668470Y-52724600D01*
X95731740Y-52629909D01*
X95843113Y-52070000D01*
X95731740Y-51510091D01*
X95414577Y-51035423D01*
X95062242Y-50800000D01*
X95414577Y-50564577D01*
X95731740Y-50089909D01*
X95843113Y-49530000D01*
X95731740Y-48970091D01*
X95414577Y-48495423D01*
X95062242Y-48260000D01*
X95414577Y-48024577D01*
X95731740Y-47549909D01*
X95843113Y-46990000D01*
X95731740Y-46430091D01*
X95414577Y-45955423D01*
X95293894Y-45874785D01*
X95427765Y-45848157D01*
X95637809Y-45707809D01*
X95778157Y-45497765D01*
X95827440Y-45250000D01*
X95827440Y-43650000D01*
X95778157Y-43402235D01*
X95637809Y-43192191D01*
X95427765Y-43051843D01*
X95180000Y-43002560D01*
X92837000Y-43002560D01*
X92837000Y-38227000D01*
X128577692Y-38227000D01*
X128469375Y-38299375D01*
G36*
X123025000Y-45434561D02*
X123025000Y-46005439D01*
X123243466Y-46532862D01*
X123384151Y-46673547D01*
X122819499Y-47238200D01*
X114891948Y-47238200D01*
X114817100Y-47223312D01*
X114742252Y-47238200D01*
X114742248Y-47238200D01*
X114568705Y-47272720D01*
X114520562Y-47282296D01*
X114436443Y-47338503D01*
X114269171Y-47450271D01*
X114226771Y-47513727D01*
X110674804Y-51065695D01*
X110654577Y-51035423D01*
X110302242Y-50800000D01*
X110654577Y-50564577D01*
X110840786Y-50285896D01*
X111041837Y-50245904D01*
X111293229Y-50077929D01*
X111335631Y-50014470D01*
X115503100Y-45847002D01*
X115570084Y-45847002D01*
X115448096Y-46069039D01*
X115608959Y-46457423D01*
X115984866Y-46872389D01*
X116490959Y-47111914D01*
X116713000Y-46990629D01*
X116713000Y-45847000D01*
X116967000Y-45847000D01*
X116967000Y-46990629D01*
X117189041Y-47111914D01*
X117695134Y-46872389D01*
X118071041Y-46457423D01*
X118231904Y-46069039D01*
X118109915Y-45847000D01*
X116967000Y-45847000D01*
X116713000Y-45847000D01*
X116693000Y-45847000D01*
X116693000Y-45593000D01*
X116713000Y-45593000D01*
X116713000Y-45573000D01*
X116967000Y-45573000D01*
X116967000Y-45593000D01*
X118109915Y-45593000D01*
X118231904Y-45370961D01*
X118210672Y-45319700D01*
X123072577Y-45319700D01*
X123025000Y-45434561D01*
X123025000Y-45434561D01*
G37*
X123025000Y-45434561D02*
X123025000Y-46005439D01*
X123243466Y-46532862D01*
X123384151Y-46673547D01*
X122819499Y-47238200D01*
X114891948Y-47238200D01*
X114817100Y-47223312D01*
X114742252Y-47238200D01*
X114742248Y-47238200D01*
X114568705Y-47272720D01*
X114520562Y-47282296D01*
X114436443Y-47338503D01*
X114269171Y-47450271D01*
X114226771Y-47513727D01*
X110674804Y-51065695D01*
X110654577Y-51035423D01*
X110302242Y-50800000D01*
X110654577Y-50564577D01*
X110840786Y-50285896D01*
X111041837Y-50245904D01*
X111293229Y-50077929D01*
X111335631Y-50014470D01*
X115503100Y-45847002D01*
X115570084Y-45847002D01*
X115448096Y-46069039D01*
X115608959Y-46457423D01*
X115984866Y-46872389D01*
X116490959Y-47111914D01*
X116713000Y-46990629D01*
X116713000Y-45847000D01*
X116967000Y-45847000D01*
X116967000Y-46990629D01*
X117189041Y-47111914D01*
X117695134Y-46872389D01*
X118071041Y-46457423D01*
X118231904Y-46069039D01*
X118109915Y-45847000D01*
X116967000Y-45847000D01*
X116713000Y-45847000D01*
X116693000Y-45847000D01*
X116693000Y-45593000D01*
X116713000Y-45593000D01*
X116713000Y-45573000D01*
X116967000Y-45573000D01*
X116967000Y-45593000D01*
X118109915Y-45593000D01*
X118231904Y-45370961D01*
X118210672Y-45319700D01*
X123072577Y-45319700D01*
X123025000Y-45434561D01*
G04 #@! TD*
M02*
