M48
;DRILL file {KiCad 5.0.0-rc2-be01b52~65~ubuntu18.04.1} date Sat Jun  9 21:21:59 2018
;FORMAT={-:-/ absolute / metric / decimal}
FMAT,2
METRIC,TZ
T1C0.400
T2C0.500
T3C0.800
T4C0.900
T5C1.000
T6C3.000
%
G90
G05
M71
T1
X41.226Y-83.169
X41.244Y-74.713
X41.251Y-55.299
X41.755Y-78.644
X42.566Y-65.012
X42.586Y-57.982
X43.6Y-84.446
X45.048Y-55.847
X45.682Y-54.672
X46.084Y-58.136
X46.327Y-84.896
X46.614Y-57.249
X47.27Y-61.64
X48.237Y-107.207
X48.474Y-112.902
X48.521Y-90.989
X48.791Y-54.174
X49.344Y-106.781
X49.344Y-112.1
X49.457Y-90.053
X49.658Y-85.404
X50.477Y-88.004
X50.514Y-89.059
X50.64Y-84.334
X50.725Y-101.004
X51.48Y-61.265
X51.705Y-104.437
X52.803Y-115.964
X55.028Y-61.772
X56.609Y-82.251
X56.781Y-96.147
X57.423Y-111.055
X57.441Y-116.345
X58.088Y-103.293
X58.275Y-86.412
X58.645Y-105.343
X59.Y-101.029
X59.355Y-104.542
X59.39Y-70.138
X60.184Y-109.191
X64.474Y-55.83
X64.515Y-109.075
X64.939Y-91.366
X65.404Y-105.75
X66.113Y-102.813
X72.554Y-96.387
X73.122Y-93.29
X73.459Y-87.465
X74.274Y-46.488
X74.406Y-71.316
X74.416Y-93.551
X75.02Y-89.393
X75.912Y-94.457
X75.971Y-46.897
X76.177Y-84.733
X76.211Y-87.451
X76.595Y-70.838
X76.937Y-84.075
X78.046Y-70.489
X78.132Y-109.468
X78.709Y-106.818
X78.866Y-101.091
X79.715Y-85.09
X80.45Y-101.669
X84.874Y-54.719
X85.228Y-80.451
X85.888Y-91.574
X85.907Y-78.055
X88.495Y-52.525
X89.878Y-114.388
X89.933Y-50.022
X90.841Y-53.351
X97.33Y-110.913
X98.459Y-108.064
X99.536Y-106.267
X102.558Y-73.373
X104.52Y-103.505
X104.816Y-74.346
X105.022Y-71.347
X105.959Y-70.556
X106.33Y-77.598
X106.352Y-68.266
X106.936Y-90.064
X107.673Y-113.923
X111.025Y-84.943
X111.512Y-74.127
X113.48Y-104.964
X115.309Y-70.941
X118.983Y-80.318
X127.362Y-89.348
X127.509Y-57.802
T2
X86.65Y-121.285
X87.309Y-119.694
X87.309Y-122.876
X88.9Y-119.035
X88.9Y-123.535
X90.491Y-119.694
X90.491Y-122.876
X91.15Y-121.285
T3
X43.18Y-60.96
X43.18Y-68.58
X55.88Y-54.61
X60.78Y-54.61
X116.84Y-53.34
X116.84Y-55.88
X116.84Y-58.42
X116.84Y-60.96
X116.84Y-63.5
X116.84Y-66.04
X116.84Y-68.58
X124.46Y-53.34
X124.46Y-55.88
X124.46Y-58.42
X124.46Y-60.96
X124.46Y-63.5
X124.46Y-66.04
X124.46Y-68.58
X73.025Y-74.93
X73.025Y-77.43
X116.84Y-95.25
X116.84Y-97.79
X116.84Y-100.33
X116.84Y-102.87
X116.84Y-105.41
X116.84Y-107.95
X116.84Y-110.49
X116.84Y-113.03
X116.84Y-115.57
X116.84Y-118.11
X124.46Y-95.25
X124.46Y-97.79
X124.46Y-100.33
X124.46Y-102.87
X124.46Y-105.41
X124.46Y-107.95
X124.46Y-110.49
X124.46Y-113.03
X124.46Y-115.57
X124.46Y-118.11
X113.03Y-115.61
X113.03Y-118.11
X66.04Y-52.11
X66.04Y-54.61
X104.18Y-81.28
X106.68Y-81.28
X49.53Y-72.39
X49.53Y-80.01
X62.23Y-83.82
X64.73Y-83.82
X43.18Y-81.28
X43.18Y-88.9
X77.47Y-59.69
X77.47Y-67.31
X74.93Y-81.28
X77.43Y-81.28
X116.84Y-45.72
X124.46Y-45.72
X68.58Y-85.09
X68.58Y-87.63
X68.58Y-90.17
X68.58Y-92.71
X68.58Y-95.25
X68.58Y-97.79
X68.58Y-100.33
X68.58Y-102.87
X68.58Y-105.41
X68.58Y-107.95
X68.58Y-110.49
X68.58Y-113.03
X68.58Y-115.57
X68.58Y-118.11
X83.82Y-85.09
X83.82Y-87.63
X83.82Y-90.17
X83.82Y-92.71
X83.82Y-95.25
X83.82Y-97.79
X83.82Y-100.33
X83.82Y-102.87
X83.82Y-105.41
X83.82Y-107.95
X83.82Y-110.49
X83.82Y-113.03
X83.82Y-115.57
X83.82Y-118.11
X116.84Y-41.91
X124.46Y-41.91
X81.28Y-61.595
X81.28Y-64.135
X81.28Y-66.675
X81.28Y-69.215
X81.28Y-71.755
X81.28Y-74.295
X81.28Y-76.835
X81.28Y-79.375
X88.9Y-61.595
X88.9Y-64.135
X88.9Y-66.675
X88.9Y-69.215
X88.9Y-71.755
X88.9Y-74.295
X88.9Y-76.835
X88.9Y-79.375
X69.85Y-48.895
X69.85Y-56.515
X93.98Y-44.45
X93.98Y-46.99
X93.98Y-49.53
X93.98Y-52.07
X93.98Y-54.61
X93.98Y-57.15
X93.98Y-59.69
X93.98Y-62.23
X93.98Y-64.77
X93.98Y-67.31
X93.98Y-69.85
X93.98Y-72.39
X93.98Y-74.93
X93.98Y-77.47
X109.22Y-44.45
X109.22Y-46.99
X109.22Y-49.53
X109.22Y-52.07
X109.22Y-54.61
X109.22Y-57.15
X109.22Y-59.69
X109.22Y-62.23
X109.22Y-64.77
X109.22Y-67.31
X109.22Y-69.85
X109.22Y-72.39
X109.22Y-74.93
X109.22Y-77.47
X46.99Y-53.34
X46.99Y-55.84
X113.03Y-78.74
X113.03Y-86.36
X87.63Y-54.61
X87.63Y-57.11
X81.28Y-55.92
X81.28Y-58.42
X106.045Y-40.64
X108.545Y-40.64
X77.47Y-48.895
X77.47Y-56.515
X53.34Y-59.69
X53.34Y-67.31
X55.88Y-59.69
X55.88Y-67.31
X58.42Y-59.69
X58.42Y-67.31
X60.96Y-59.69
X60.96Y-67.31
X63.5Y-59.69
X63.5Y-67.31
X66.04Y-59.69
X66.04Y-67.31
X68.58Y-59.69
X68.58Y-67.31
X53.34Y-72.39
X53.34Y-80.01
X55.88Y-72.39
X55.88Y-80.01
X58.42Y-72.39
X58.42Y-80.01
X60.96Y-72.39
X60.96Y-80.01
X63.5Y-72.39
X63.5Y-80.01
X66.04Y-72.39
X66.04Y-80.01
X68.58Y-72.39
X68.58Y-80.01
X52.11Y-48.26
X54.61Y-48.26
X93.98Y-85.09
X93.98Y-87.63
X93.98Y-90.17
X93.98Y-92.71
X93.98Y-95.25
X93.98Y-97.79
X93.98Y-100.33
X93.98Y-102.87
X93.98Y-105.41
X93.98Y-107.95
X93.98Y-110.49
X93.98Y-113.03
X93.98Y-115.57
X93.98Y-118.11
X109.22Y-85.09
X109.22Y-87.63
X109.22Y-90.17
X109.22Y-92.71
X109.22Y-95.25
X109.22Y-97.79
X109.22Y-100.33
X109.22Y-102.87
X109.22Y-105.41
X109.22Y-107.95
X109.22Y-110.49
X109.22Y-113.03
X109.22Y-115.57
X109.22Y-118.11
X77.47Y-38.1
X77.47Y-45.72
X80.01Y-38.1
X80.01Y-45.72
X116.84Y-72.39
X124.46Y-72.39
X52.07Y-83.82
X54.57Y-83.82
X43.18Y-106.68
X43.18Y-114.3
X54.61Y-87.63
X54.61Y-90.17
X54.61Y-92.71
X54.61Y-95.25
X54.61Y-97.79
X54.61Y-100.33
X54.61Y-102.87
X54.61Y-105.41
X54.61Y-107.95
X54.61Y-110.49
X54.61Y-113.03
X54.61Y-115.57
X62.23Y-87.63
X62.23Y-90.17
X62.23Y-92.71
X62.23Y-95.25
X62.23Y-97.79
X62.23Y-100.33
X62.23Y-102.87
X62.23Y-105.41
X62.23Y-107.95
X62.23Y-110.49
X62.23Y-113.03
X62.23Y-115.57
X52.07Y-40.68
X52.07Y-43.18
X49.53Y-59.69
X49.53Y-67.31
X113.03Y-66.08
X113.03Y-68.58
X113.03Y-88.94
X113.03Y-91.44
X72.39Y-62.27
X72.39Y-64.77
X43.18Y-99.1
X43.18Y-101.6
X116.84Y-49.53
X124.46Y-49.53
X73.66Y-48.895
X73.66Y-56.515
X116.84Y-76.2
X116.84Y-78.74
X116.84Y-81.28
X116.84Y-83.82
X116.84Y-86.36
X116.84Y-88.9
X116.84Y-91.44
X124.46Y-76.2
X124.46Y-78.74
X124.46Y-81.28
X124.46Y-83.82
X124.46Y-86.36
X124.46Y-88.9
X124.46Y-91.44
T4
X86.36Y-46.355
X88.9Y-46.355
T5
X43.18Y-71.12
X43.18Y-73.66
X43.18Y-76.2
X58.905Y-40.585
X58.905Y-45.085
X65.405Y-40.585
X65.405Y-45.085
X129.54Y-91.44
X129.54Y-93.98
X129.54Y-96.52
X129.54Y-99.06
X129.54Y-101.6
X129.54Y-104.14
X129.54Y-106.68
X129.54Y-109.22
X129.54Y-111.76
X129.54Y-114.3
X129.54Y-116.84
X129.54Y-119.38
X129.54Y-121.92
X132.08Y-91.44
X132.08Y-93.98
X132.08Y-96.52
X132.08Y-99.06
X132.08Y-101.6
X132.08Y-104.14
X132.08Y-106.68
X132.08Y-109.22
X132.08Y-111.76
X132.08Y-114.3
X132.08Y-116.84
X132.08Y-119.38
X132.08Y-121.92
X129.54Y-39.37
X129.54Y-41.91
X129.54Y-44.45
X129.54Y-46.99
X129.54Y-49.53
X129.54Y-52.07
X129.54Y-54.61
X129.54Y-57.15
X129.54Y-59.69
X129.54Y-62.23
X129.54Y-64.77
X129.54Y-67.31
X129.54Y-69.85
X129.54Y-72.39
X129.54Y-74.93
X129.54Y-77.47
X129.54Y-80.01
X132.08Y-39.37
X132.08Y-41.91
X132.08Y-44.45
X132.08Y-46.99
X132.08Y-49.53
X132.08Y-52.07
X132.08Y-54.61
X132.08Y-57.15
X132.08Y-59.69
X132.08Y-62.23
X132.08Y-64.77
X132.08Y-67.31
X132.08Y-69.85
X132.08Y-72.39
X132.08Y-74.93
X132.08Y-77.47
X132.08Y-80.01
X44.45Y-40.64
X44.45Y-43.18
X44.45Y-45.72
T6
X88.9Y-121.285
T0
M30
