M48
;DRILL file {KiCad 5.0.0-rc2-be01b52~65~ubuntu18.04.1} date Thu Jun 28 00:06:44 2018
;FORMAT={-:-/ absolute / metric / decimal}
FMAT,2
METRIC,TZ
T1C0.400
T2C0.500
T3C0.800
T4C0.900
T5C1.000
T6C1.600
T7C3.000
T8C3.200
%
G90
G05
M71
T1
X41.402Y-49.022
X41.402Y-84.074
X41.649Y-53.683
X41.91Y-58.42
X44.286Y-114.586
X45.234Y-65.388
X45.785Y-91.216
X46.443Y-65.976
X47.625Y-53.975
X48.957Y-91.13
X49.218Y-106.552
X49.403Y-88.271
X52.484Y-43.18
X53.507Y-103.995
X55.096Y-75.16
X55.928Y-104.631
X58.067Y-99.196
X58.659Y-87.859
X59.49Y-67.023
X60.437Y-88.516
X61.362Y-111.898
X62.638Y-66.3
X62.766Y-96.774
X62.883Y-117.855
X65.928Y-115.383
X67.825Y-100.369
X69.391Y-101.613
X69.394Y-111.442
X70.016Y-92.107
X70.15Y-100.854
X70.657Y-68.613
X71.932Y-108.371
X72.23Y-68.05
X73.366Y-78.95
X73.412Y-50.372
X75.903Y-75.095
X76.2Y-38.1
X76.6Y-90.91
X76.745Y-89.731
X76.851Y-60.79
X77.831Y-98.886
X77.877Y-85.393
X80.243Y-85.959
X80.645Y-101.6
X80.892Y-84.228
X81.28Y-29.972
X86.245Y-83.575
X87.266Y-85.691
X91.433Y-59.69
X94.488Y-48.514
X94.781Y-91.315
X94.996Y-45.466
X96.012Y-48.006
X96.477Y-61.547
X98.428Y-89.633
X98.453Y-112.777
X98.679Y-44.38
X100.457Y-77.47
X100.803Y-89.53
X101.441Y-67.12
X102.566Y-69.365
X104.14Y-38.1
X118.11Y-55.88
X120.957Y-58.371
X125.222Y-49.53
T2
X65.06Y-120.65
X65.719Y-119.059
X65.719Y-122.241
X67.31Y-118.4
X67.31Y-122.9
X68.901Y-119.059
X68.901Y-122.241
X69.56Y-120.65
T3
X55.88Y-77.47
X55.88Y-85.09
X58.42Y-77.47
X58.42Y-85.09
X60.96Y-77.47
X60.96Y-85.09
X63.5Y-77.47
X63.5Y-85.09
X66.04Y-77.47
X66.04Y-85.09
X68.58Y-77.47
X68.58Y-85.09
X71.12Y-77.47
X71.12Y-85.09
X52.07Y-64.85
X52.07Y-69.85
X114.3Y-73.66
X114.3Y-76.2
X114.3Y-78.74
X114.3Y-81.28
X114.3Y-83.82
X114.3Y-86.36
X114.3Y-88.9
X121.92Y-73.66
X121.92Y-76.2
X121.92Y-78.74
X121.92Y-81.28
X121.92Y-83.82
X121.92Y-86.36
X121.92Y-88.9
X116.84Y-93.98
X121.84Y-93.98
X83.82Y-85.09
X88.82Y-85.09
X77.47Y-63.5
X77.47Y-66.04
X77.47Y-68.58
X77.47Y-71.12
X77.47Y-73.66
X77.47Y-76.2
X77.47Y-78.74
X77.47Y-81.28
X85.09Y-63.5
X85.09Y-66.04
X85.09Y-68.58
X85.09Y-71.12
X85.09Y-73.66
X85.09Y-76.2
X85.09Y-78.74
X85.09Y-81.28
X44.45Y-109.22
X44.45Y-116.84
X52.07Y-80.725
X52.07Y-85.725
X72.39Y-52.07
X80.01Y-52.07
X99.06Y-41.91
X106.68Y-41.91
X93.98Y-82.55
X98.98Y-82.55
X72.39Y-55.88
X80.01Y-55.88
X115.57Y-41.91
X123.19Y-41.91
X90.17Y-45.72
X90.17Y-48.26
X90.17Y-50.8
X90.17Y-53.34
X90.17Y-55.88
X90.17Y-58.42
X90.17Y-60.96
X90.17Y-63.5
X90.17Y-66.04
X90.17Y-68.58
X90.17Y-71.12
X90.17Y-73.66
X90.17Y-76.2
X90.17Y-78.74
X105.41Y-45.72
X105.41Y-48.26
X105.41Y-50.8
X105.41Y-53.34
X105.41Y-55.88
X105.41Y-58.42
X105.41Y-60.96
X105.41Y-63.5
X105.41Y-66.04
X105.41Y-68.58
X105.41Y-71.12
X105.41Y-73.66
X105.41Y-76.2
X105.41Y-78.74
X110.49Y-43.18
X110.49Y-50.8
X44.45Y-81.28
X44.45Y-88.9
X115.57Y-49.53
X115.57Y-52.07
X115.57Y-54.61
X115.57Y-57.15
X115.57Y-59.69
X115.57Y-62.23
X115.57Y-64.77
X123.19Y-49.53
X123.19Y-52.07
X123.19Y-54.61
X123.19Y-57.15
X123.19Y-59.69
X123.19Y-62.23
X123.19Y-64.77
X52.07Y-72.47
X52.07Y-77.47
X110.49Y-63.5
X110.49Y-71.12
X66.04Y-60.96
X73.66Y-60.96
X92.71Y-88.9
X92.71Y-91.44
X92.71Y-93.98
X92.71Y-96.52
X92.71Y-99.06
X92.71Y-101.6
X92.71Y-104.14
X92.71Y-106.68
X92.71Y-109.22
X92.71Y-111.76
X92.71Y-114.3
X92.71Y-116.84
X92.71Y-119.38
X92.71Y-121.92
X107.95Y-88.9
X107.95Y-91.44
X107.95Y-93.98
X107.95Y-96.52
X107.95Y-99.06
X107.95Y-101.6
X107.95Y-104.14
X107.95Y-106.68
X107.95Y-109.22
X107.95Y-111.76
X107.95Y-114.3
X107.95Y-116.84
X107.95Y-119.38
X107.95Y-121.92
X43.26Y-120.65
X48.26Y-120.65
X44.45Y-101.68
X44.45Y-106.68
X62.23Y-27.94
X62.23Y-35.56
X64.77Y-27.94
X64.77Y-35.56
X67.31Y-27.94
X67.31Y-35.56
X69.85Y-27.94
X69.85Y-35.56
X72.39Y-27.94
X72.39Y-35.56
X74.93Y-27.94
X74.93Y-35.56
X77.47Y-27.94
X77.47Y-35.56
X80.01Y-27.94
X80.01Y-35.56
X82.55Y-27.94
X82.55Y-35.56
X85.09Y-27.94
X85.09Y-35.56
X87.63Y-27.94
X87.63Y-35.56
X90.17Y-27.94
X90.17Y-35.56
X80.01Y-59.69
X85.01Y-59.69
X114.3Y-97.79
X114.3Y-100.33
X114.3Y-102.87
X114.3Y-105.41
X114.3Y-107.95
X114.3Y-110.49
X114.3Y-113.03
X114.3Y-115.57
X114.3Y-118.11
X114.3Y-120.65
X121.92Y-97.79
X121.92Y-100.33
X121.92Y-102.87
X121.92Y-105.41
X121.92Y-107.95
X121.92Y-110.49
X121.92Y-113.03
X121.92Y-115.57
X121.92Y-118.11
X121.92Y-120.65
X52.07Y-92.71
X52.07Y-95.25
X52.07Y-97.79
X52.07Y-100.33
X52.07Y-102.87
X52.07Y-105.41
X52.07Y-107.95
X52.07Y-110.49
X52.07Y-113.03
X52.07Y-115.57
X52.07Y-118.11
X52.07Y-120.65
X59.69Y-92.71
X59.69Y-95.25
X59.69Y-97.79
X59.69Y-100.33
X59.69Y-102.87
X59.69Y-105.41
X59.69Y-107.95
X59.69Y-110.49
X59.69Y-113.03
X59.69Y-115.57
X59.69Y-118.11
X59.69Y-120.65
X60.96Y-60.96
X63.46Y-60.96
X110.49Y-73.66
X110.49Y-81.28
X85.09Y-48.26
X85.09Y-55.88
X55.88Y-53.38
X55.88Y-55.88
X66.04Y-49.71
X66.04Y-54.61
X102.87Y-85.09
X107.87Y-85.09
X49.53Y-48.3
X49.53Y-50.8
X118.11Y-45.72
X123.11Y-45.72
X55.88Y-35.6
X55.88Y-38.1
X110.49Y-53.34
X110.49Y-60.96
X116.84Y-69.85
X121.84Y-69.85
X44.45Y-60.96
X44.45Y-68.58
X54.055Y-27.94
X59.055Y-27.94
X73.66Y-40.64
X73.66Y-43.18
X81.28Y-40.64
X81.28Y-43.18
X55.88Y-44.49
X55.88Y-46.99
X55.88Y-88.9
X63.5Y-88.9
X72.39Y-48.26
X80.01Y-48.26
X73.66Y-88.9
X73.66Y-91.44
X73.66Y-93.98
X73.66Y-96.52
X73.66Y-99.06
X73.66Y-101.6
X73.66Y-104.14
X73.66Y-106.68
X73.66Y-109.22
X73.66Y-111.76
X73.66Y-114.3
X73.66Y-116.84
X73.66Y-119.38
X73.66Y-121.92
X88.9Y-88.9
X88.9Y-91.44
X88.9Y-93.98
X88.9Y-96.52
X88.9Y-99.06
X88.9Y-101.6
X88.9Y-104.14
X88.9Y-106.68
X88.9Y-109.22
X88.9Y-111.76
X88.9Y-114.3
X88.9Y-116.84
X88.9Y-119.38
X88.9Y-121.92
X55.88Y-64.77
X55.88Y-72.39
X58.42Y-64.77
X58.42Y-72.39
X60.96Y-64.77
X60.96Y-72.39
X63.5Y-64.77
X63.5Y-72.39
X66.04Y-64.77
X66.04Y-72.39
X68.58Y-64.77
X68.58Y-72.39
X71.12Y-64.77
X71.12Y-72.39
T4
X92.71Y-40.64
X95.25Y-40.64
X85.09Y-40.64
X87.63Y-40.64
T5
X109.855Y-39.37
X112.395Y-39.37
X44.45Y-50.8
X44.45Y-53.34
X44.45Y-55.88
X48.26Y-38.1
X48.26Y-40.64
X48.26Y-43.18
X128.27Y-31.75
X128.27Y-34.29
X128.27Y-36.83
X128.27Y-39.37
X128.27Y-41.91
X128.27Y-44.45
X128.27Y-46.99
X128.27Y-49.53
X128.27Y-52.07
X128.27Y-54.61
X128.27Y-57.15
X128.27Y-59.69
X128.27Y-62.23
X128.27Y-64.77
X128.27Y-67.31
X128.27Y-69.85
X128.27Y-72.39
X130.81Y-31.75
X130.81Y-34.29
X130.81Y-36.83
X130.81Y-39.37
X130.81Y-41.91
X130.81Y-44.45
X130.81Y-46.99
X130.81Y-49.53
X130.81Y-52.07
X130.81Y-54.61
X130.81Y-57.15
X130.81Y-59.69
X130.81Y-62.23
X130.81Y-64.77
X130.81Y-67.31
X130.81Y-69.85
X130.81Y-72.39
X63.5Y-105.41
X63.5Y-109.91
X70.Y-105.41
X70.Y-109.91
X63.35Y-39.95
X63.35Y-44.45
X69.85Y-39.95
X69.85Y-44.45
X44.45Y-92.71
X44.45Y-95.25
X44.45Y-97.79
X128.27Y-86.36
X128.27Y-88.9
X128.27Y-91.44
X128.27Y-93.98
X128.27Y-96.52
X128.27Y-99.06
X128.27Y-101.6
X128.27Y-104.14
X128.27Y-106.68
X128.27Y-109.22
X128.27Y-111.76
X128.27Y-114.3
X128.27Y-116.84
X130.81Y-86.36
X130.81Y-88.9
X130.81Y-91.44
X130.81Y-93.98
X130.81Y-96.52
X130.81Y-99.06
X130.81Y-101.6
X130.81Y-104.14
X130.81Y-106.68
X130.81Y-109.22
X130.81Y-111.76
X130.81Y-114.3
X130.81Y-116.84
T6
X103.22Y-33.655
X104.605Y-30.815
X105.99Y-33.655
X107.375Y-30.815
X108.76Y-33.655
X110.145Y-30.815
X111.53Y-33.655
X112.915Y-30.815
X114.3Y-33.655
T7
X67.31Y-120.65
T8
X96.26Y-33.355
X121.26Y-33.355
T0
M30
