%TF.GenerationSoftware,KiCad,Pcbnew,5.0.2-bee76a0~70~ubuntu18.10.1*%
%TF.CreationDate,2019-02-24T14:53:23+01:00*%
%TF.ProjectId,plusd,706c7573-642e-46b6-9963-61645f706362,rev?*%
%TF.SameCoordinates,Original*%
%TF.FileFunction,Legend,Bot*%
%TF.FilePolarity,Positive*%
%FSLAX46Y46*%
G04 Gerber Fmt 4.6, Leading zero omitted, Abs format (unit mm)*
G04 Created by KiCad (PCBNEW 5.0.2-bee76a0~70~ubuntu18.10.1) date dom 24 feb 2019 14:53:23 CET*
%MOMM*%
%LPD*%
G01*
G04 APERTURE LIST*
%ADD10C,0.150000*%
%ADD11C,0.200000*%
%ADD12C,0.300000*%
%ADD13C,0.120000*%
%ADD14C,0.010000*%
%ADD15C,0.100000*%
G04 APERTURE END LIST*
D10*
X71628000Y-122936000D02*
X63500000Y-122936000D01*
X71628000Y-115316000D02*
X71628000Y-122936000D01*
X70104000Y-115316000D02*
X71628000Y-115316000D01*
X70104000Y-114300000D02*
X70104000Y-115316000D01*
D11*
X94002380Y-61722142D02*
X94002380Y-61150714D01*
X94002380Y-61436428D02*
X93002380Y-61436428D01*
X93145238Y-61341190D01*
X93240476Y-61245952D01*
X93288095Y-61150714D01*
X93002380Y-62055476D02*
X93002380Y-62722142D01*
X94002380Y-62293571D01*
X93002380Y-63007857D02*
X93002380Y-63674523D01*
X94002380Y-63245952D01*
X93002380Y-63960238D02*
X93002380Y-64579285D01*
X93383333Y-64245952D01*
X93383333Y-64388809D01*
X93430952Y-64484047D01*
X93478571Y-64531666D01*
X93573809Y-64579285D01*
X93811904Y-64579285D01*
X93907142Y-64531666D01*
X93954761Y-64484047D01*
X94002380Y-64388809D01*
X94002380Y-64103095D01*
X93954761Y-64007857D01*
X93907142Y-63960238D01*
X97402380Y-61722142D02*
X97402380Y-61150714D01*
X97402380Y-61436428D02*
X96402380Y-61436428D01*
X96545238Y-61341190D01*
X96640476Y-61245952D01*
X96688095Y-61150714D01*
X96402380Y-62055476D02*
X96402380Y-62722142D01*
X97402380Y-62293571D01*
X96402380Y-63007857D02*
X96402380Y-63674523D01*
X97402380Y-63245952D01*
X96497619Y-64007857D02*
X96450000Y-64055476D01*
X96402380Y-64150714D01*
X96402380Y-64388809D01*
X96450000Y-64484047D01*
X96497619Y-64531666D01*
X96592857Y-64579285D01*
X96688095Y-64579285D01*
X96830952Y-64531666D01*
X97402380Y-63960238D01*
X97402380Y-64579285D01*
X74428571Y-40600476D02*
X74428571Y-40933809D01*
X74952380Y-41076666D02*
X74952380Y-40600476D01*
X73952380Y-40600476D01*
X73952380Y-41076666D01*
X74952380Y-41505238D02*
X73952380Y-41505238D01*
X74666666Y-41838571D01*
X73952380Y-42171904D01*
X74952380Y-42171904D01*
X73952380Y-42648095D02*
X74761904Y-42648095D01*
X74857142Y-42695714D01*
X74904761Y-42743333D01*
X74952380Y-42838571D01*
X74952380Y-43029047D01*
X74904761Y-43124285D01*
X74857142Y-43171904D01*
X74761904Y-43219523D01*
X73952380Y-43219523D01*
X78352380Y-40933809D02*
X77876190Y-40600476D01*
X78352380Y-40362380D02*
X77352380Y-40362380D01*
X77352380Y-40743333D01*
X77400000Y-40838571D01*
X77447619Y-40886190D01*
X77542857Y-40933809D01*
X77685714Y-40933809D01*
X77780952Y-40886190D01*
X77828571Y-40838571D01*
X77876190Y-40743333D01*
X77876190Y-40362380D01*
X77828571Y-41362380D02*
X77828571Y-41695714D01*
X78352380Y-41838571D02*
X78352380Y-41362380D01*
X77352380Y-41362380D01*
X77352380Y-41838571D01*
X78066666Y-42219523D02*
X78066666Y-42695714D01*
X78352380Y-42124285D02*
X77352380Y-42457619D01*
X78352380Y-42790952D01*
X78352380Y-43600476D02*
X78352380Y-43124285D01*
X77352380Y-43124285D01*
D10*
X86360000Y-124460000D02*
X162560000Y-124460000D01*
X86360000Y-114300000D02*
X86360000Y-124460000D01*
X70104000Y-114300000D02*
X86360000Y-114300000D01*
D12*
X153867142Y-74897142D02*
X153652857Y-74968571D01*
X153295714Y-74968571D01*
X153152857Y-74897142D01*
X153081428Y-74825714D01*
X153010000Y-74682857D01*
X153010000Y-74540000D01*
X153081428Y-74397142D01*
X153152857Y-74325714D01*
X153295714Y-74254285D01*
X153581428Y-74182857D01*
X153724285Y-74111428D01*
X153795714Y-74040000D01*
X153867142Y-73897142D01*
X153867142Y-73754285D01*
X153795714Y-73611428D01*
X153724285Y-73540000D01*
X153581428Y-73468571D01*
X153224285Y-73468571D01*
X153010000Y-73540000D01*
X152367142Y-73968571D02*
X152367142Y-75468571D01*
X152367142Y-74040000D02*
X152224285Y-73968571D01*
X151938571Y-73968571D01*
X151795714Y-74040000D01*
X151724285Y-74111428D01*
X151652857Y-74254285D01*
X151652857Y-74682857D01*
X151724285Y-74825714D01*
X151795714Y-74897142D01*
X151938571Y-74968571D01*
X152224285Y-74968571D01*
X152367142Y-74897142D01*
X150438571Y-74897142D02*
X150581428Y-74968571D01*
X150867142Y-74968571D01*
X151010000Y-74897142D01*
X151081428Y-74754285D01*
X151081428Y-74182857D01*
X151010000Y-74040000D01*
X150867142Y-73968571D01*
X150581428Y-73968571D01*
X150438571Y-74040000D01*
X150367142Y-74182857D01*
X150367142Y-74325714D01*
X151081428Y-74468571D01*
X149081428Y-74897142D02*
X149224285Y-74968571D01*
X149510000Y-74968571D01*
X149652857Y-74897142D01*
X149724285Y-74825714D01*
X149795714Y-74682857D01*
X149795714Y-74254285D01*
X149724285Y-74111428D01*
X149652857Y-74040000D01*
X149510000Y-73968571D01*
X149224285Y-73968571D01*
X149081428Y-74040000D01*
X148438571Y-74968571D02*
X148438571Y-73968571D01*
X148438571Y-73468571D02*
X148510000Y-73540000D01*
X148438571Y-73611428D01*
X148367142Y-73540000D01*
X148438571Y-73468571D01*
X148438571Y-73611428D01*
X147081428Y-74968571D02*
X147081428Y-74182857D01*
X147152857Y-74040000D01*
X147295714Y-73968571D01*
X147581428Y-73968571D01*
X147724285Y-74040000D01*
X147081428Y-74897142D02*
X147224285Y-74968571D01*
X147581428Y-74968571D01*
X147724285Y-74897142D01*
X147795714Y-74754285D01*
X147795714Y-74611428D01*
X147724285Y-74468571D01*
X147581428Y-74397142D01*
X147224285Y-74397142D01*
X147081428Y-74325714D01*
X146152857Y-74968571D02*
X146295714Y-74897142D01*
X146367142Y-74754285D01*
X146367142Y-73468571D01*
X143867142Y-74897142D02*
X144010000Y-74968571D01*
X144295714Y-74968571D01*
X144438571Y-74897142D01*
X144510000Y-74754285D01*
X144510000Y-74182857D01*
X144438571Y-74040000D01*
X144295714Y-73968571D01*
X144010000Y-73968571D01*
X143867142Y-74040000D01*
X143795714Y-74182857D01*
X143795714Y-74325714D01*
X144510000Y-74468571D01*
X142510000Y-74968571D02*
X142510000Y-73468571D01*
X142510000Y-74897142D02*
X142652857Y-74968571D01*
X142938571Y-74968571D01*
X143081428Y-74897142D01*
X143152857Y-74825714D01*
X143224285Y-74682857D01*
X143224285Y-74254285D01*
X143152857Y-74111428D01*
X143081428Y-74040000D01*
X142938571Y-73968571D01*
X142652857Y-73968571D01*
X142510000Y-74040000D01*
X141795714Y-74968571D02*
X141795714Y-73968571D01*
X141795714Y-73468571D02*
X141867142Y-73540000D01*
X141795714Y-73611428D01*
X141724285Y-73540000D01*
X141795714Y-73468571D01*
X141795714Y-73611428D01*
X141295714Y-73968571D02*
X140724285Y-73968571D01*
X141081428Y-73468571D02*
X141081428Y-74754285D01*
X141010000Y-74897142D01*
X140867142Y-74968571D01*
X140724285Y-74968571D01*
X140224285Y-74968571D02*
X140224285Y-73968571D01*
X140224285Y-73468571D02*
X140295714Y-73540000D01*
X140224285Y-73611428D01*
X140152857Y-73540000D01*
X140224285Y-73468571D01*
X140224285Y-73611428D01*
X139295714Y-74968571D02*
X139438571Y-74897142D01*
X139510000Y-74825714D01*
X139581428Y-74682857D01*
X139581428Y-74254285D01*
X139510000Y-74111428D01*
X139438571Y-74040000D01*
X139295714Y-73968571D01*
X139081428Y-73968571D01*
X138938571Y-74040000D01*
X138867142Y-74111428D01*
X138795714Y-74254285D01*
X138795714Y-74682857D01*
X138867142Y-74825714D01*
X138938571Y-74897142D01*
X139081428Y-74968571D01*
X139295714Y-74968571D01*
X138152857Y-73968571D02*
X138152857Y-74968571D01*
X138152857Y-74111428D02*
X138081428Y-74040000D01*
X137938571Y-73968571D01*
X137724285Y-73968571D01*
X137581428Y-74040000D01*
X137510000Y-74182857D01*
X137510000Y-74968571D01*
X135867142Y-73968571D02*
X135295714Y-73968571D01*
X135652857Y-74968571D02*
X135652857Y-73682857D01*
X135581428Y-73540000D01*
X135438571Y-73468571D01*
X135295714Y-73468571D01*
X134581428Y-74968571D02*
X134724285Y-74897142D01*
X134795714Y-74825714D01*
X134867142Y-74682857D01*
X134867142Y-74254285D01*
X134795714Y-74111428D01*
X134724285Y-74040000D01*
X134581428Y-73968571D01*
X134367142Y-73968571D01*
X134224285Y-74040000D01*
X134152857Y-74111428D01*
X134081428Y-74254285D01*
X134081428Y-74682857D01*
X134152857Y-74825714D01*
X134224285Y-74897142D01*
X134367142Y-74968571D01*
X134581428Y-74968571D01*
X133438571Y-74968571D02*
X133438571Y-73968571D01*
X133438571Y-74254285D02*
X133367142Y-74111428D01*
X133295714Y-74040000D01*
X133152857Y-73968571D01*
X133010000Y-73968571D01*
X155795714Y-76518571D02*
X155510000Y-77518571D01*
X155224285Y-76804285D01*
X154938571Y-77518571D01*
X154652857Y-76518571D01*
X154224285Y-76518571D02*
X153938571Y-77518571D01*
X153652857Y-76804285D01*
X153367142Y-77518571D01*
X153081428Y-76518571D01*
X152652857Y-76518571D02*
X152367142Y-77518571D01*
X152081428Y-76804285D01*
X151795714Y-77518571D01*
X151510000Y-76518571D01*
X150938571Y-77375714D02*
X150867142Y-77447142D01*
X150938571Y-77518571D01*
X151010000Y-77447142D01*
X150938571Y-77375714D01*
X150938571Y-77518571D01*
X150367142Y-76518571D02*
X150010000Y-77518571D01*
X149652857Y-76518571D01*
X148438571Y-77518571D02*
X148438571Y-76732857D01*
X148510000Y-76590000D01*
X148652857Y-76518571D01*
X148938571Y-76518571D01*
X149081428Y-76590000D01*
X148438571Y-77447142D02*
X148581428Y-77518571D01*
X148938571Y-77518571D01*
X149081428Y-77447142D01*
X149152857Y-77304285D01*
X149152857Y-77161428D01*
X149081428Y-77018571D01*
X148938571Y-76947142D01*
X148581428Y-76947142D01*
X148438571Y-76875714D01*
X147724285Y-76947142D02*
X146581428Y-76947142D01*
X145224285Y-77518571D02*
X145224285Y-76018571D01*
X145224285Y-77447142D02*
X145367142Y-77518571D01*
X145652857Y-77518571D01*
X145795714Y-77447142D01*
X145867142Y-77375714D01*
X145938571Y-77232857D01*
X145938571Y-76804285D01*
X145867142Y-76661428D01*
X145795714Y-76590000D01*
X145652857Y-76518571D01*
X145367142Y-76518571D01*
X145224285Y-76590000D01*
X143938571Y-77447142D02*
X144081428Y-77518571D01*
X144367142Y-77518571D01*
X144510000Y-77447142D01*
X144581428Y-77304285D01*
X144581428Y-76732857D01*
X144510000Y-76590000D01*
X144367142Y-76518571D01*
X144081428Y-76518571D01*
X143938571Y-76590000D01*
X143867142Y-76732857D01*
X143867142Y-76875714D01*
X144581428Y-77018571D01*
X143224285Y-76947142D02*
X142081428Y-76947142D01*
X141367142Y-77518571D02*
X141367142Y-76518571D01*
X141367142Y-76804285D02*
X141295714Y-76661428D01*
X141224285Y-76590000D01*
X141081428Y-76518571D01*
X140938571Y-76518571D01*
X139867142Y-77447142D02*
X140010000Y-77518571D01*
X140295714Y-77518571D01*
X140438571Y-77447142D01*
X140510000Y-77304285D01*
X140510000Y-76732857D01*
X140438571Y-76590000D01*
X140295714Y-76518571D01*
X140010000Y-76518571D01*
X139867142Y-76590000D01*
X139795714Y-76732857D01*
X139795714Y-76875714D01*
X140510000Y-77018571D01*
X139367142Y-76518571D02*
X138795714Y-76518571D01*
X139152857Y-76018571D02*
X139152857Y-77304285D01*
X139081428Y-77447142D01*
X138938571Y-77518571D01*
X138795714Y-77518571D01*
X138295714Y-77518571D02*
X138295714Y-76518571D01*
X138295714Y-76804285D02*
X138224285Y-76661428D01*
X138152857Y-76590000D01*
X138010000Y-76518571D01*
X137867142Y-76518571D01*
X137152857Y-77518571D02*
X137295714Y-77447142D01*
X137367142Y-77375714D01*
X137438571Y-77232857D01*
X137438571Y-76804285D01*
X137367142Y-76661428D01*
X137295714Y-76590000D01*
X137152857Y-76518571D01*
X136938571Y-76518571D01*
X136795714Y-76590000D01*
X136724285Y-76661428D01*
X136652857Y-76804285D01*
X136652857Y-77232857D01*
X136724285Y-77375714D01*
X136795714Y-77447142D01*
X136938571Y-77518571D01*
X137152857Y-77518571D01*
X136010000Y-77375714D02*
X135938571Y-77447142D01*
X136010000Y-77518571D01*
X136081428Y-77447142D01*
X136010000Y-77375714D01*
X136010000Y-77518571D01*
X134652857Y-77447142D02*
X134795714Y-77518571D01*
X135081428Y-77518571D01*
X135224285Y-77447142D01*
X135295714Y-77375714D01*
X135367142Y-77232857D01*
X135367142Y-76804285D01*
X135295714Y-76661428D01*
X135224285Y-76590000D01*
X135081428Y-76518571D01*
X134795714Y-76518571D01*
X134652857Y-76590000D01*
X133795714Y-77518571D02*
X133938571Y-77447142D01*
X134010000Y-77375714D01*
X134081428Y-77232857D01*
X134081428Y-76804285D01*
X134010000Y-76661428D01*
X133938571Y-76590000D01*
X133795714Y-76518571D01*
X133581428Y-76518571D01*
X133438571Y-76590000D01*
X133367142Y-76661428D01*
X133295714Y-76804285D01*
X133295714Y-77232857D01*
X133367142Y-77375714D01*
X133438571Y-77447142D01*
X133581428Y-77518571D01*
X133795714Y-77518571D01*
X132652857Y-77518571D02*
X132652857Y-76518571D01*
X132652857Y-76661428D02*
X132581428Y-76590000D01*
X132438571Y-76518571D01*
X132224285Y-76518571D01*
X132081428Y-76590000D01*
X132010000Y-76732857D01*
X132010000Y-77518571D01*
X132010000Y-76732857D02*
X131938571Y-76590000D01*
X131795714Y-76518571D01*
X131581428Y-76518571D01*
X131438571Y-76590000D01*
X131367142Y-76732857D01*
X131367142Y-77518571D01*
X149172857Y-81255000D02*
X149244285Y-81183571D01*
X149387142Y-80969285D01*
X149458571Y-80826428D01*
X149530000Y-80612142D01*
X149601428Y-80255000D01*
X149601428Y-79969285D01*
X149530000Y-79612142D01*
X149458571Y-79397857D01*
X149387142Y-79255000D01*
X149244285Y-79040714D01*
X149172857Y-78969285D01*
X147744285Y-80540714D02*
X147815714Y-80612142D01*
X148030000Y-80683571D01*
X148172857Y-80683571D01*
X148387142Y-80612142D01*
X148530000Y-80469285D01*
X148601428Y-80326428D01*
X148672857Y-80040714D01*
X148672857Y-79826428D01*
X148601428Y-79540714D01*
X148530000Y-79397857D01*
X148387142Y-79255000D01*
X148172857Y-79183571D01*
X148030000Y-79183571D01*
X147815714Y-79255000D01*
X147744285Y-79326428D01*
X147244285Y-81255000D02*
X147172857Y-81183571D01*
X147030000Y-80969285D01*
X146958571Y-80826428D01*
X146887142Y-80612142D01*
X146815714Y-80255000D01*
X146815714Y-79969285D01*
X146887142Y-79612142D01*
X146958571Y-79397857D01*
X147030000Y-79255000D01*
X147172857Y-79040714D01*
X147244285Y-78969285D01*
X145030000Y-79326428D02*
X144958571Y-79255000D01*
X144815714Y-79183571D01*
X144458571Y-79183571D01*
X144315714Y-79255000D01*
X144244285Y-79326428D01*
X144172857Y-79469285D01*
X144172857Y-79612142D01*
X144244285Y-79826428D01*
X145101428Y-80683571D01*
X144172857Y-80683571D01*
X143244285Y-79183571D02*
X143101428Y-79183571D01*
X142958571Y-79255000D01*
X142887142Y-79326428D01*
X142815714Y-79469285D01*
X142744285Y-79755000D01*
X142744285Y-80112142D01*
X142815714Y-80397857D01*
X142887142Y-80540714D01*
X142958571Y-80612142D01*
X143101428Y-80683571D01*
X143244285Y-80683571D01*
X143387142Y-80612142D01*
X143458571Y-80540714D01*
X143530000Y-80397857D01*
X143601428Y-80112142D01*
X143601428Y-79755000D01*
X143530000Y-79469285D01*
X143458571Y-79326428D01*
X143387142Y-79255000D01*
X143244285Y-79183571D01*
X141315714Y-80683571D02*
X142172857Y-80683571D01*
X141744285Y-80683571D02*
X141744285Y-79183571D01*
X141887142Y-79397857D01*
X142030000Y-79540714D01*
X142172857Y-79612142D01*
X140458571Y-79826428D02*
X140601428Y-79755000D01*
X140672857Y-79683571D01*
X140744285Y-79540714D01*
X140744285Y-79469285D01*
X140672857Y-79326428D01*
X140601428Y-79255000D01*
X140458571Y-79183571D01*
X140172857Y-79183571D01*
X140030000Y-79255000D01*
X139958571Y-79326428D01*
X139887142Y-79469285D01*
X139887142Y-79540714D01*
X139958571Y-79683571D01*
X140030000Y-79755000D01*
X140172857Y-79826428D01*
X140458571Y-79826428D01*
X140601428Y-79897857D01*
X140672857Y-79969285D01*
X140744285Y-80112142D01*
X140744285Y-80397857D01*
X140672857Y-80540714D01*
X140601428Y-80612142D01*
X140458571Y-80683571D01*
X140172857Y-80683571D01*
X140030000Y-80612142D01*
X139958571Y-80540714D01*
X139887142Y-80397857D01*
X139887142Y-80112142D01*
X139958571Y-79969285D01*
X140030000Y-79897857D01*
X140172857Y-79826428D01*
X153208571Y-83233571D02*
X153208571Y-81733571D01*
X152637142Y-81733571D01*
X152494285Y-81805000D01*
X152422857Y-81876428D01*
X152351428Y-82019285D01*
X152351428Y-82233571D01*
X152422857Y-82376428D01*
X152494285Y-82447857D01*
X152637142Y-82519285D01*
X153208571Y-82519285D01*
X150851428Y-83090714D02*
X150922857Y-83162142D01*
X151137142Y-83233571D01*
X151280000Y-83233571D01*
X151494285Y-83162142D01*
X151637142Y-83019285D01*
X151708571Y-82876428D01*
X151780000Y-82590714D01*
X151780000Y-82376428D01*
X151708571Y-82090714D01*
X151637142Y-81947857D01*
X151494285Y-81805000D01*
X151280000Y-81733571D01*
X151137142Y-81733571D01*
X150922857Y-81805000D01*
X150851428Y-81876428D01*
X149708571Y-82447857D02*
X149494285Y-82519285D01*
X149422857Y-82590714D01*
X149351428Y-82733571D01*
X149351428Y-82947857D01*
X149422857Y-83090714D01*
X149494285Y-83162142D01*
X149637142Y-83233571D01*
X150208571Y-83233571D01*
X150208571Y-81733571D01*
X149708571Y-81733571D01*
X149565714Y-81805000D01*
X149494285Y-81876428D01*
X149422857Y-82019285D01*
X149422857Y-82162142D01*
X149494285Y-82305000D01*
X149565714Y-82376428D01*
X149708571Y-82447857D01*
X150208571Y-82447857D01*
X147565714Y-83233571D02*
X147565714Y-81733571D01*
X147565714Y-82305000D02*
X147422857Y-82233571D01*
X147137142Y-82233571D01*
X146994285Y-82305000D01*
X146922857Y-82376428D01*
X146851428Y-82519285D01*
X146851428Y-82947857D01*
X146922857Y-83090714D01*
X146994285Y-83162142D01*
X147137142Y-83233571D01*
X147422857Y-83233571D01*
X147565714Y-83162142D01*
X146351428Y-82233571D02*
X145994285Y-83233571D01*
X145637142Y-82233571D02*
X145994285Y-83233571D01*
X146137142Y-83590714D01*
X146208571Y-83662142D01*
X146351428Y-83733571D01*
X143994285Y-82805000D02*
X143280000Y-82805000D01*
X144137142Y-83233571D02*
X143637142Y-81733571D01*
X143137142Y-83233571D01*
X142637142Y-83090714D02*
X142565714Y-83162142D01*
X142637142Y-83233571D01*
X142708571Y-83162142D01*
X142637142Y-83090714D01*
X142637142Y-83233571D01*
X140851428Y-82805000D02*
X140137142Y-82805000D01*
X140994285Y-83233571D02*
X140494285Y-81733571D01*
X139994285Y-83233571D01*
X138780000Y-83233571D02*
X139494285Y-83233571D01*
X139494285Y-81733571D01*
X138280000Y-82447857D02*
X137780000Y-82447857D01*
X137565714Y-83233571D02*
X138280000Y-83233571D01*
X138280000Y-81733571D01*
X137565714Y-81733571D01*
X136994285Y-82805000D02*
X136280000Y-82805000D01*
X137137142Y-83233571D02*
X136637142Y-81733571D01*
X136137142Y-83233571D01*
X152132857Y-57818571D02*
X152132857Y-56318571D01*
X151632857Y-57390000D01*
X151132857Y-56318571D01*
X151132857Y-57818571D01*
X149632857Y-56390000D02*
X149775714Y-56318571D01*
X149990000Y-56318571D01*
X150204285Y-56390000D01*
X150347142Y-56532857D01*
X150418571Y-56675714D01*
X150490000Y-56961428D01*
X150490000Y-57175714D01*
X150418571Y-57461428D01*
X150347142Y-57604285D01*
X150204285Y-57747142D01*
X149990000Y-57818571D01*
X149847142Y-57818571D01*
X149632857Y-57747142D01*
X149561428Y-57675714D01*
X149561428Y-57175714D01*
X149847142Y-57175714D01*
X149132857Y-56318571D02*
X148275714Y-56318571D01*
X148704285Y-57818571D02*
X148704285Y-56318571D01*
X147704285Y-56318571D02*
X147847142Y-56604285D01*
X147132857Y-57747142D02*
X146990000Y-57818571D01*
X146704285Y-57818571D01*
X146561428Y-57747142D01*
X146490000Y-57604285D01*
X146490000Y-57532857D01*
X146561428Y-57390000D01*
X146704285Y-57318571D01*
X146918571Y-57318571D01*
X147061428Y-57247142D01*
X147132857Y-57104285D01*
X147132857Y-57032857D01*
X147061428Y-56890000D01*
X146918571Y-56818571D01*
X146704285Y-56818571D01*
X146561428Y-56890000D01*
X144775714Y-56318571D02*
X144775714Y-56604285D01*
X144204285Y-56318571D02*
X144204285Y-56604285D01*
X143561428Y-57247142D02*
X142418571Y-57247142D01*
X142990000Y-57818571D02*
X142990000Y-56675714D01*
X141704285Y-57818571D02*
X141704285Y-56318571D01*
X141347142Y-56318571D01*
X141132857Y-56390000D01*
X140990000Y-56532857D01*
X140918571Y-56675714D01*
X140847142Y-56961428D01*
X140847142Y-57175714D01*
X140918571Y-57461428D01*
X140990000Y-57604285D01*
X141132857Y-57747142D01*
X141347142Y-57818571D01*
X141704285Y-57818571D01*
X140275714Y-56318571D02*
X140275714Y-56604285D01*
X139704285Y-56318571D02*
X139704285Y-56604285D01*
X137061428Y-57675714D02*
X137132857Y-57747142D01*
X137347142Y-57818571D01*
X137490000Y-57818571D01*
X137704285Y-57747142D01*
X137847142Y-57604285D01*
X137918571Y-57461428D01*
X137990000Y-57175714D01*
X137990000Y-56961428D01*
X137918571Y-56675714D01*
X137847142Y-56532857D01*
X137704285Y-56390000D01*
X137490000Y-56318571D01*
X137347142Y-56318571D01*
X137132857Y-56390000D01*
X137061428Y-56461428D01*
X136204285Y-57818571D02*
X136347142Y-57747142D01*
X136418571Y-57604285D01*
X136418571Y-56318571D01*
X135418571Y-57818571D02*
X135561428Y-57747142D01*
X135632857Y-57675714D01*
X135704285Y-57532857D01*
X135704285Y-57104285D01*
X135632857Y-56961428D01*
X135561428Y-56890000D01*
X135418571Y-56818571D01*
X135204285Y-56818571D01*
X135061428Y-56890000D01*
X134990000Y-56961428D01*
X134918571Y-57104285D01*
X134918571Y-57532857D01*
X134990000Y-57675714D01*
X135061428Y-57747142D01*
X135204285Y-57818571D01*
X135418571Y-57818571D01*
X134275714Y-56818571D02*
X134275714Y-57818571D01*
X134275714Y-56961428D02*
X134204285Y-56890000D01*
X134061428Y-56818571D01*
X133847142Y-56818571D01*
X133704285Y-56890000D01*
X133632857Y-57032857D01*
X133632857Y-57818571D01*
X132347142Y-57747142D02*
X132490000Y-57818571D01*
X132775714Y-57818571D01*
X132918571Y-57747142D01*
X132990000Y-57604285D01*
X132990000Y-57032857D01*
X132918571Y-56890000D01*
X132775714Y-56818571D01*
X132490000Y-56818571D01*
X132347142Y-56890000D01*
X132275714Y-57032857D01*
X132275714Y-57175714D01*
X132990000Y-57318571D01*
X153454285Y-59582857D02*
X153954285Y-59582857D01*
X153954285Y-60368571D02*
X153954285Y-58868571D01*
X153240000Y-58868571D01*
X152454285Y-60368571D02*
X152597142Y-60297142D01*
X152668571Y-60154285D01*
X152668571Y-58868571D01*
X151668571Y-60368571D02*
X151811428Y-60297142D01*
X151882857Y-60225714D01*
X151954285Y-60082857D01*
X151954285Y-59654285D01*
X151882857Y-59511428D01*
X151811428Y-59440000D01*
X151668571Y-59368571D01*
X151454285Y-59368571D01*
X151311428Y-59440000D01*
X151240000Y-59511428D01*
X151168571Y-59654285D01*
X151168571Y-60082857D01*
X151240000Y-60225714D01*
X151311428Y-60297142D01*
X151454285Y-60368571D01*
X151668571Y-60368571D01*
X150525714Y-59368571D02*
X150525714Y-60868571D01*
X150525714Y-59440000D02*
X150382857Y-59368571D01*
X150097142Y-59368571D01*
X149954285Y-59440000D01*
X149882857Y-59511428D01*
X149811428Y-59654285D01*
X149811428Y-60082857D01*
X149882857Y-60225714D01*
X149954285Y-60297142D01*
X150097142Y-60368571D01*
X150382857Y-60368571D01*
X150525714Y-60297142D01*
X149168571Y-59368571D02*
X149168571Y-60868571D01*
X149168571Y-59440000D02*
X149025714Y-59368571D01*
X148740000Y-59368571D01*
X148597142Y-59440000D01*
X148525714Y-59511428D01*
X148454285Y-59654285D01*
X148454285Y-60082857D01*
X148525714Y-60225714D01*
X148597142Y-60297142D01*
X148740000Y-60368571D01*
X149025714Y-60368571D01*
X149168571Y-60297142D01*
X147954285Y-59368571D02*
X147597142Y-60368571D01*
X147240000Y-59368571D02*
X147597142Y-60368571D01*
X147740000Y-60725714D01*
X147811428Y-60797142D01*
X147954285Y-60868571D01*
X145525714Y-60368571D02*
X145525714Y-58868571D01*
X145168571Y-58868571D01*
X144954285Y-58940000D01*
X144811428Y-59082857D01*
X144740000Y-59225714D01*
X144668571Y-59511428D01*
X144668571Y-59725714D01*
X144740000Y-60011428D01*
X144811428Y-60154285D01*
X144954285Y-60297142D01*
X145168571Y-60368571D01*
X145525714Y-60368571D01*
X144025714Y-60368571D02*
X144025714Y-59368571D01*
X144025714Y-58868571D02*
X144097142Y-58940000D01*
X144025714Y-59011428D01*
X143954285Y-58940000D01*
X144025714Y-58868571D01*
X144025714Y-59011428D01*
X143382857Y-60297142D02*
X143240000Y-60368571D01*
X142954285Y-60368571D01*
X142811428Y-60297142D01*
X142740000Y-60154285D01*
X142740000Y-60082857D01*
X142811428Y-59940000D01*
X142954285Y-59868571D01*
X143168571Y-59868571D01*
X143311428Y-59797142D01*
X143382857Y-59654285D01*
X143382857Y-59582857D01*
X143311428Y-59440000D01*
X143168571Y-59368571D01*
X142954285Y-59368571D01*
X142811428Y-59440000D01*
X142097142Y-60368571D02*
X142097142Y-58868571D01*
X141954285Y-59797142D02*
X141525714Y-60368571D01*
X141525714Y-59368571D02*
X142097142Y-59940000D01*
X139740000Y-60368571D02*
X139740000Y-58868571D01*
X139025714Y-59368571D02*
X139025714Y-60368571D01*
X139025714Y-59511428D02*
X138954285Y-59440000D01*
X138811428Y-59368571D01*
X138597142Y-59368571D01*
X138454285Y-59440000D01*
X138382857Y-59582857D01*
X138382857Y-60368571D01*
X137882857Y-59368571D02*
X137311428Y-59368571D01*
X137668571Y-58868571D02*
X137668571Y-60154285D01*
X137597142Y-60297142D01*
X137454285Y-60368571D01*
X137311428Y-60368571D01*
X136240000Y-60297142D02*
X136382857Y-60368571D01*
X136668571Y-60368571D01*
X136811428Y-60297142D01*
X136882857Y-60154285D01*
X136882857Y-59582857D01*
X136811428Y-59440000D01*
X136668571Y-59368571D01*
X136382857Y-59368571D01*
X136240000Y-59440000D01*
X136168571Y-59582857D01*
X136168571Y-59725714D01*
X136882857Y-59868571D01*
X135525714Y-60368571D02*
X135525714Y-59368571D01*
X135525714Y-59654285D02*
X135454285Y-59511428D01*
X135382857Y-59440000D01*
X135240000Y-59368571D01*
X135097142Y-59368571D01*
X134811428Y-59368571D02*
X134240000Y-59368571D01*
X134597142Y-60368571D02*
X134597142Y-59082857D01*
X134525714Y-58940000D01*
X134382857Y-58868571D01*
X134240000Y-58868571D01*
X133097142Y-60368571D02*
X133097142Y-59582857D01*
X133168571Y-59440000D01*
X133311428Y-59368571D01*
X133597142Y-59368571D01*
X133740000Y-59440000D01*
X133097142Y-60297142D02*
X133240000Y-60368571D01*
X133597142Y-60368571D01*
X133740000Y-60297142D01*
X133811428Y-60154285D01*
X133811428Y-60011428D01*
X133740000Y-59868571D01*
X133597142Y-59797142D01*
X133240000Y-59797142D01*
X133097142Y-59725714D01*
X131740000Y-60297142D02*
X131882857Y-60368571D01*
X132168571Y-60368571D01*
X132311428Y-60297142D01*
X132382857Y-60225714D01*
X132454285Y-60082857D01*
X132454285Y-59654285D01*
X132382857Y-59511428D01*
X132311428Y-59440000D01*
X132168571Y-59368571D01*
X131882857Y-59368571D01*
X131740000Y-59440000D01*
X130525714Y-60297142D02*
X130668571Y-60368571D01*
X130954285Y-60368571D01*
X131097142Y-60297142D01*
X131168571Y-60154285D01*
X131168571Y-59582857D01*
X131097142Y-59440000D01*
X130954285Y-59368571D01*
X130668571Y-59368571D01*
X130525714Y-59440000D01*
X130454285Y-59582857D01*
X130454285Y-59725714D01*
X131168571Y-59868571D01*
X159847142Y-62132857D02*
X160347142Y-62132857D01*
X160347142Y-62918571D02*
X160347142Y-61418571D01*
X159632857Y-61418571D01*
X158847142Y-62918571D02*
X158990000Y-62847142D01*
X159061428Y-62775714D01*
X159132857Y-62632857D01*
X159132857Y-62204285D01*
X159061428Y-62061428D01*
X158990000Y-61990000D01*
X158847142Y-61918571D01*
X158632857Y-61918571D01*
X158490000Y-61990000D01*
X158418571Y-62061428D01*
X158347142Y-62204285D01*
X158347142Y-62632857D01*
X158418571Y-62775714D01*
X158490000Y-62847142D01*
X158632857Y-62918571D01*
X158847142Y-62918571D01*
X157704285Y-62918571D02*
X157704285Y-61918571D01*
X157704285Y-62204285D02*
X157632857Y-62061428D01*
X157561428Y-61990000D01*
X157418571Y-61918571D01*
X157275714Y-61918571D01*
X155775714Y-61418571D02*
X154775714Y-61418571D01*
X155775714Y-62918571D01*
X154775714Y-62918571D01*
X154347142Y-61418571D02*
X153347142Y-62918571D01*
X153347142Y-61418571D02*
X154347142Y-62918571D01*
X151704285Y-62847142D02*
X151490000Y-62918571D01*
X151132857Y-62918571D01*
X150990000Y-62847142D01*
X150918571Y-62775714D01*
X150847142Y-62632857D01*
X150847142Y-62490000D01*
X150918571Y-62347142D01*
X150990000Y-62275714D01*
X151132857Y-62204285D01*
X151418571Y-62132857D01*
X151561428Y-62061428D01*
X151632857Y-61990000D01*
X151704285Y-61847142D01*
X151704285Y-61704285D01*
X151632857Y-61561428D01*
X151561428Y-61490000D01*
X151418571Y-61418571D01*
X151061428Y-61418571D01*
X150847142Y-61490000D01*
X150204285Y-61918571D02*
X150204285Y-63418571D01*
X150204285Y-61990000D02*
X150061428Y-61918571D01*
X149775714Y-61918571D01*
X149632857Y-61990000D01*
X149561428Y-62061428D01*
X149490000Y-62204285D01*
X149490000Y-62632857D01*
X149561428Y-62775714D01*
X149632857Y-62847142D01*
X149775714Y-62918571D01*
X150061428Y-62918571D01*
X150204285Y-62847142D01*
X148275714Y-62847142D02*
X148418571Y-62918571D01*
X148704285Y-62918571D01*
X148847142Y-62847142D01*
X148918571Y-62704285D01*
X148918571Y-62132857D01*
X148847142Y-61990000D01*
X148704285Y-61918571D01*
X148418571Y-61918571D01*
X148275714Y-61990000D01*
X148204285Y-62132857D01*
X148204285Y-62275714D01*
X148918571Y-62418571D01*
X146918571Y-62847142D02*
X147061428Y-62918571D01*
X147347142Y-62918571D01*
X147490000Y-62847142D01*
X147561428Y-62775714D01*
X147632857Y-62632857D01*
X147632857Y-62204285D01*
X147561428Y-62061428D01*
X147490000Y-61990000D01*
X147347142Y-61918571D01*
X147061428Y-61918571D01*
X146918571Y-61990000D01*
X146490000Y-61918571D02*
X145918571Y-61918571D01*
X146275714Y-61418571D02*
X146275714Y-62704285D01*
X146204285Y-62847142D01*
X146061428Y-62918571D01*
X145918571Y-62918571D01*
X145418571Y-62918571D02*
X145418571Y-61918571D01*
X145418571Y-62204285D02*
X145347142Y-62061428D01*
X145275714Y-61990000D01*
X145132857Y-61918571D01*
X144990000Y-61918571D01*
X143847142Y-61918571D02*
X143847142Y-62918571D01*
X144490000Y-61918571D02*
X144490000Y-62704285D01*
X144418571Y-62847142D01*
X144275714Y-62918571D01*
X144061428Y-62918571D01*
X143918571Y-62847142D01*
X143847142Y-62775714D01*
X143132857Y-62918571D02*
X143132857Y-61918571D01*
X143132857Y-62061428D02*
X143061428Y-61990000D01*
X142918571Y-61918571D01*
X142704285Y-61918571D01*
X142561428Y-61990000D01*
X142490000Y-62132857D01*
X142490000Y-62918571D01*
X142490000Y-62132857D02*
X142418571Y-61990000D01*
X142275714Y-61918571D01*
X142061428Y-61918571D01*
X141918571Y-61990000D01*
X141847142Y-62132857D01*
X141847142Y-62918571D01*
X139347142Y-61918571D02*
X139347142Y-62918571D01*
X139704285Y-61347142D02*
X140061428Y-62418571D01*
X139132857Y-62418571D01*
X138347142Y-62061428D02*
X138490000Y-61990000D01*
X138561428Y-61918571D01*
X138632857Y-61775714D01*
X138632857Y-61704285D01*
X138561428Y-61561428D01*
X138490000Y-61490000D01*
X138347142Y-61418571D01*
X138061428Y-61418571D01*
X137918571Y-61490000D01*
X137847142Y-61561428D01*
X137775714Y-61704285D01*
X137775714Y-61775714D01*
X137847142Y-61918571D01*
X137918571Y-61990000D01*
X138061428Y-62061428D01*
X138347142Y-62061428D01*
X138490000Y-62132857D01*
X138561428Y-62204285D01*
X138632857Y-62347142D01*
X138632857Y-62632857D01*
X138561428Y-62775714D01*
X138490000Y-62847142D01*
X138347142Y-62918571D01*
X138061428Y-62918571D01*
X137918571Y-62847142D01*
X137847142Y-62775714D01*
X137775714Y-62632857D01*
X137775714Y-62347142D01*
X137847142Y-62204285D01*
X137918571Y-62132857D01*
X138061428Y-62061428D01*
X137132857Y-62918571D02*
X137132857Y-61418571D01*
X136275714Y-62918571D02*
X136918571Y-62061428D01*
X136275714Y-61418571D02*
X137132857Y-62275714D01*
X134561428Y-61347142D02*
X135847142Y-63275714D01*
X133275714Y-62918571D02*
X134132857Y-62918571D01*
X133704285Y-62918571D02*
X133704285Y-61418571D01*
X133847142Y-61632857D01*
X133990000Y-61775714D01*
X134132857Y-61847142D01*
X132704285Y-61561428D02*
X132632857Y-61490000D01*
X132490000Y-61418571D01*
X132132857Y-61418571D01*
X131990000Y-61490000D01*
X131918571Y-61561428D01*
X131847142Y-61704285D01*
X131847142Y-61847142D01*
X131918571Y-62061428D01*
X132775714Y-62918571D01*
X131847142Y-62918571D01*
X130990000Y-62061428D02*
X131132857Y-61990000D01*
X131204285Y-61918571D01*
X131275714Y-61775714D01*
X131275714Y-61704285D01*
X131204285Y-61561428D01*
X131132857Y-61490000D01*
X130990000Y-61418571D01*
X130704285Y-61418571D01*
X130561428Y-61490000D01*
X130490000Y-61561428D01*
X130418571Y-61704285D01*
X130418571Y-61775714D01*
X130490000Y-61918571D01*
X130561428Y-61990000D01*
X130704285Y-62061428D01*
X130990000Y-62061428D01*
X131132857Y-62132857D01*
X131204285Y-62204285D01*
X131275714Y-62347142D01*
X131275714Y-62632857D01*
X131204285Y-62775714D01*
X131132857Y-62847142D01*
X130990000Y-62918571D01*
X130704285Y-62918571D01*
X130561428Y-62847142D01*
X130490000Y-62775714D01*
X130418571Y-62632857D01*
X130418571Y-62347142D01*
X130490000Y-62204285D01*
X130561428Y-62132857D01*
X130704285Y-62061428D01*
X129775714Y-62918571D02*
X129775714Y-61418571D01*
X128918571Y-62918571D02*
X129561428Y-62061428D01*
X128918571Y-61418571D02*
X129775714Y-62275714D01*
X127204285Y-61347142D02*
X128490000Y-63275714D01*
X126704285Y-62347142D02*
X125561428Y-62347142D01*
X126132857Y-62918571D02*
X126132857Y-61775714D01*
X124990000Y-61418571D02*
X124061428Y-61418571D01*
X124561428Y-61990000D01*
X124347142Y-61990000D01*
X124204285Y-62061428D01*
X124132857Y-62132857D01*
X124061428Y-62275714D01*
X124061428Y-62632857D01*
X124132857Y-62775714D01*
X124204285Y-62847142D01*
X124347142Y-62918571D01*
X124775714Y-62918571D01*
X124918571Y-62847142D01*
X124990000Y-62775714D01*
D10*
X162560000Y-124460000D02*
X162560000Y-25400000D01*
X63500000Y-25400000D02*
X63500000Y-122936000D01*
X162560000Y-25400000D02*
X63500000Y-25400000D01*
D13*
X96450000Y-60255000D02*
X96150000Y-60555000D01*
X96750000Y-60555000D02*
X96150000Y-60555000D01*
X96450000Y-60255000D02*
X96750000Y-60555000D01*
X97300000Y-59355000D02*
X97300000Y-58755000D01*
X93850000Y-60055000D02*
X96650000Y-60055000D01*
X93200000Y-58755000D02*
X93200000Y-59355000D01*
X96650000Y-58055000D02*
X93850000Y-58055000D01*
X93900000Y-58055000D02*
G75*
G03X93200000Y-58755000I0J-700000D01*
G01*
X93200000Y-59355000D02*
G75*
G03X93900000Y-60055000I700000J0D01*
G01*
X96600000Y-60055000D02*
G75*
G03X97300000Y-59355000I0J700000D01*
G01*
X97300000Y-58755000D02*
G75*
G03X96600000Y-58055000I-700000J0D01*
G01*
X77400000Y-39300000D02*
X77100000Y-39600000D01*
X77700000Y-39600000D02*
X77100000Y-39600000D01*
X77400000Y-39300000D02*
X77700000Y-39600000D01*
X78250000Y-38400000D02*
X78250000Y-37800000D01*
X74800000Y-39100000D02*
X77600000Y-39100000D01*
X74150000Y-37800000D02*
X74150000Y-38400000D01*
X77600000Y-37100000D02*
X74800000Y-37100000D01*
X74850000Y-37100000D02*
G75*
G03X74150000Y-37800000I0J-700000D01*
G01*
X74150000Y-38400000D02*
G75*
G03X74850000Y-39100000I700000J0D01*
G01*
X77550000Y-39100000D02*
G75*
G03X78250000Y-38400000I0J700000D01*
G01*
X78250000Y-37800000D02*
G75*
G03X77550000Y-37100000I-700000J0D01*
G01*
D14*
G36*
X89665759Y-63572184D02*
X89639247Y-63585282D01*
X89606553Y-63608106D01*
X89582725Y-63632996D01*
X89566406Y-63664249D01*
X89556240Y-63706166D01*
X89550872Y-63763044D01*
X89548944Y-63839184D01*
X89548831Y-63871917D01*
X89549161Y-63943656D01*
X89550527Y-63994927D01*
X89553500Y-64030404D01*
X89558649Y-64054763D01*
X89566543Y-64072680D01*
X89574757Y-64084902D01*
X89627187Y-64136905D01*
X89688930Y-64168184D01*
X89755536Y-64177592D01*
X89822558Y-64163980D01*
X89843792Y-64154354D01*
X89894624Y-64127859D01*
X89894624Y-64543052D01*
X89857525Y-64523868D01*
X89808643Y-64509025D01*
X89748561Y-64505222D01*
X89688564Y-64512243D01*
X89643256Y-64528013D01*
X89605675Y-64558047D01*
X89573564Y-64601024D01*
X89571150Y-64605436D01*
X89560967Y-64626221D01*
X89553530Y-64647170D01*
X89548411Y-64672548D01*
X89545181Y-64706618D01*
X89543413Y-64753641D01*
X89542677Y-64817882D01*
X89542544Y-64890176D01*
X89542544Y-65120822D01*
X89680861Y-65120822D01*
X89680861Y-64695533D01*
X89719549Y-64662979D01*
X89759738Y-64636940D01*
X89797797Y-64632205D01*
X89836066Y-64644389D01*
X89856462Y-64656320D01*
X89871642Y-64673313D01*
X89882438Y-64698995D01*
X89889683Y-64736991D01*
X89894208Y-64790926D01*
X89896844Y-64864425D01*
X89897772Y-64913347D01*
X89900911Y-65114535D01*
X89966926Y-65118336D01*
X90032940Y-65122136D01*
X90032940Y-63873650D01*
X89894624Y-63873650D01*
X89891097Y-63943254D01*
X89879215Y-63991569D01*
X89857020Y-64021631D01*
X89822559Y-64036471D01*
X89787742Y-64039436D01*
X89748329Y-64036028D01*
X89722171Y-64022617D01*
X89705814Y-64004896D01*
X89692937Y-63985835D01*
X89685272Y-63964601D01*
X89681861Y-63934849D01*
X89681749Y-63890236D01*
X89682897Y-63852880D01*
X89685532Y-63796604D01*
X89689456Y-63759658D01*
X89696063Y-63736223D01*
X89706749Y-63720480D01*
X89716833Y-63711380D01*
X89758970Y-63691537D01*
X89808840Y-63688332D01*
X89837476Y-63695168D01*
X89865828Y-63719464D01*
X89884609Y-63766728D01*
X89893712Y-63836624D01*
X89894624Y-63873650D01*
X90032940Y-63873650D01*
X90032940Y-63561614D01*
X89963782Y-63561614D01*
X89922260Y-63563256D01*
X89900838Y-63569087D01*
X89894626Y-63580461D01*
X89894624Y-63580798D01*
X89891742Y-63591938D01*
X89879030Y-63590673D01*
X89853757Y-63578433D01*
X89794869Y-63559707D01*
X89728615Y-63557739D01*
X89665759Y-63572184D01*
X89665759Y-63572184D01*
G37*
X89665759Y-63572184D02*
X89639247Y-63585282D01*
X89606553Y-63608106D01*
X89582725Y-63632996D01*
X89566406Y-63664249D01*
X89556240Y-63706166D01*
X89550872Y-63763044D01*
X89548944Y-63839184D01*
X89548831Y-63871917D01*
X89549161Y-63943656D01*
X89550527Y-63994927D01*
X89553500Y-64030404D01*
X89558649Y-64054763D01*
X89566543Y-64072680D01*
X89574757Y-64084902D01*
X89627187Y-64136905D01*
X89688930Y-64168184D01*
X89755536Y-64177592D01*
X89822558Y-64163980D01*
X89843792Y-64154354D01*
X89894624Y-64127859D01*
X89894624Y-64543052D01*
X89857525Y-64523868D01*
X89808643Y-64509025D01*
X89748561Y-64505222D01*
X89688564Y-64512243D01*
X89643256Y-64528013D01*
X89605675Y-64558047D01*
X89573564Y-64601024D01*
X89571150Y-64605436D01*
X89560967Y-64626221D01*
X89553530Y-64647170D01*
X89548411Y-64672548D01*
X89545181Y-64706618D01*
X89543413Y-64753641D01*
X89542677Y-64817882D01*
X89542544Y-64890176D01*
X89542544Y-65120822D01*
X89680861Y-65120822D01*
X89680861Y-64695533D01*
X89719549Y-64662979D01*
X89759738Y-64636940D01*
X89797797Y-64632205D01*
X89836066Y-64644389D01*
X89856462Y-64656320D01*
X89871642Y-64673313D01*
X89882438Y-64698995D01*
X89889683Y-64736991D01*
X89894208Y-64790926D01*
X89896844Y-64864425D01*
X89897772Y-64913347D01*
X89900911Y-65114535D01*
X89966926Y-65118336D01*
X90032940Y-65122136D01*
X90032940Y-63873650D01*
X89894624Y-63873650D01*
X89891097Y-63943254D01*
X89879215Y-63991569D01*
X89857020Y-64021631D01*
X89822559Y-64036471D01*
X89787742Y-64039436D01*
X89748329Y-64036028D01*
X89722171Y-64022617D01*
X89705814Y-64004896D01*
X89692937Y-63985835D01*
X89685272Y-63964601D01*
X89681861Y-63934849D01*
X89681749Y-63890236D01*
X89682897Y-63852880D01*
X89685532Y-63796604D01*
X89689456Y-63759658D01*
X89696063Y-63736223D01*
X89706749Y-63720480D01*
X89716833Y-63711380D01*
X89758970Y-63691537D01*
X89808840Y-63688332D01*
X89837476Y-63695168D01*
X89865828Y-63719464D01*
X89884609Y-63766728D01*
X89893712Y-63836624D01*
X89894624Y-63873650D01*
X90032940Y-63873650D01*
X90032940Y-63561614D01*
X89963782Y-63561614D01*
X89922260Y-63563256D01*
X89900838Y-63569087D01*
X89894626Y-63580461D01*
X89894624Y-63580798D01*
X89891742Y-63591938D01*
X89879030Y-63590673D01*
X89853757Y-63578433D01*
X89794869Y-63559707D01*
X89728615Y-63557739D01*
X89665759Y-63572184D01*
G36*
X89141210Y-64509555D02*
X89082055Y-64525339D01*
X89037023Y-64553948D01*
X89005246Y-64591419D01*
X88995366Y-64607411D01*
X88988073Y-64624163D01*
X88982974Y-64645592D01*
X88979679Y-64675616D01*
X88977797Y-64718154D01*
X88976937Y-64777122D01*
X88976707Y-64856440D01*
X88976703Y-64877484D01*
X88976703Y-65120822D01*
X89037059Y-65120822D01*
X89075557Y-65118126D01*
X89104023Y-65111295D01*
X89111155Y-65107083D01*
X89130652Y-65099813D01*
X89150566Y-65107083D01*
X89183353Y-65116160D01*
X89230978Y-65119813D01*
X89283764Y-65118228D01*
X89332036Y-65111589D01*
X89360218Y-65103072D01*
X89414753Y-65068063D01*
X89448835Y-65019479D01*
X89464157Y-64954882D01*
X89464299Y-64953223D01*
X89462955Y-64924566D01*
X89341356Y-64924566D01*
X89330726Y-64957161D01*
X89313410Y-64975505D01*
X89278652Y-64989379D01*
X89232773Y-64994917D01*
X89185988Y-64992191D01*
X89148514Y-64981274D01*
X89138015Y-64974269D01*
X89119668Y-64941904D01*
X89115020Y-64905111D01*
X89115020Y-64856763D01*
X89184582Y-64856763D01*
X89250667Y-64861850D01*
X89300764Y-64876263D01*
X89331929Y-64898729D01*
X89341356Y-64924566D01*
X89462955Y-64924566D01*
X89460987Y-64882647D01*
X89437710Y-64826845D01*
X89393948Y-64784647D01*
X89387899Y-64780808D01*
X89361907Y-64768309D01*
X89329735Y-64760740D01*
X89284760Y-64757061D01*
X89231331Y-64756216D01*
X89115020Y-64756169D01*
X89115020Y-64707411D01*
X89119953Y-64669581D01*
X89132543Y-64644236D01*
X89134017Y-64642887D01*
X89162034Y-64631800D01*
X89204326Y-64627503D01*
X89251064Y-64629615D01*
X89292418Y-64637756D01*
X89316957Y-64649965D01*
X89330253Y-64659746D01*
X89344294Y-64661613D01*
X89363671Y-64653600D01*
X89392976Y-64633739D01*
X89436803Y-64600063D01*
X89440825Y-64596909D01*
X89438764Y-64585236D01*
X89421568Y-64565822D01*
X89395433Y-64544248D01*
X89366552Y-64526096D01*
X89357478Y-64521809D01*
X89324380Y-64513256D01*
X89275880Y-64507155D01*
X89221695Y-64504708D01*
X89219161Y-64504703D01*
X89141210Y-64509555D01*
X89141210Y-64509555D01*
G37*
X89141210Y-64509555D02*
X89082055Y-64525339D01*
X89037023Y-64553948D01*
X89005246Y-64591419D01*
X88995366Y-64607411D01*
X88988073Y-64624163D01*
X88982974Y-64645592D01*
X88979679Y-64675616D01*
X88977797Y-64718154D01*
X88976937Y-64777122D01*
X88976707Y-64856440D01*
X88976703Y-64877484D01*
X88976703Y-65120822D01*
X89037059Y-65120822D01*
X89075557Y-65118126D01*
X89104023Y-65111295D01*
X89111155Y-65107083D01*
X89130652Y-65099813D01*
X89150566Y-65107083D01*
X89183353Y-65116160D01*
X89230978Y-65119813D01*
X89283764Y-65118228D01*
X89332036Y-65111589D01*
X89360218Y-65103072D01*
X89414753Y-65068063D01*
X89448835Y-65019479D01*
X89464157Y-64954882D01*
X89464299Y-64953223D01*
X89462955Y-64924566D01*
X89341356Y-64924566D01*
X89330726Y-64957161D01*
X89313410Y-64975505D01*
X89278652Y-64989379D01*
X89232773Y-64994917D01*
X89185988Y-64992191D01*
X89148514Y-64981274D01*
X89138015Y-64974269D01*
X89119668Y-64941904D01*
X89115020Y-64905111D01*
X89115020Y-64856763D01*
X89184582Y-64856763D01*
X89250667Y-64861850D01*
X89300764Y-64876263D01*
X89331929Y-64898729D01*
X89341356Y-64924566D01*
X89462955Y-64924566D01*
X89460987Y-64882647D01*
X89437710Y-64826845D01*
X89393948Y-64784647D01*
X89387899Y-64780808D01*
X89361907Y-64768309D01*
X89329735Y-64760740D01*
X89284760Y-64757061D01*
X89231331Y-64756216D01*
X89115020Y-64756169D01*
X89115020Y-64707411D01*
X89119953Y-64669581D01*
X89132543Y-64644236D01*
X89134017Y-64642887D01*
X89162034Y-64631800D01*
X89204326Y-64627503D01*
X89251064Y-64629615D01*
X89292418Y-64637756D01*
X89316957Y-64649965D01*
X89330253Y-64659746D01*
X89344294Y-64661613D01*
X89363671Y-64653600D01*
X89392976Y-64633739D01*
X89436803Y-64600063D01*
X89440825Y-64596909D01*
X89438764Y-64585236D01*
X89421568Y-64565822D01*
X89395433Y-64544248D01*
X89366552Y-64526096D01*
X89357478Y-64521809D01*
X89324380Y-64513256D01*
X89275880Y-64507155D01*
X89221695Y-64504708D01*
X89219161Y-64504703D01*
X89141210Y-64509555D01*
G36*
X88750356Y-64506020D02*
X88731539Y-64511660D01*
X88725473Y-64524053D01*
X88725218Y-64529647D01*
X88724129Y-64545230D01*
X88716632Y-64547676D01*
X88696381Y-64536993D01*
X88684351Y-64529694D01*
X88646400Y-64514063D01*
X88601072Y-64506334D01*
X88553544Y-64505740D01*
X88508995Y-64511513D01*
X88472602Y-64522884D01*
X88449543Y-64539088D01*
X88444996Y-64559355D01*
X88447291Y-64564843D01*
X88464020Y-64587626D01*
X88489963Y-64615647D01*
X88494655Y-64620177D01*
X88519383Y-64641005D01*
X88540718Y-64647735D01*
X88570555Y-64643038D01*
X88582508Y-64639917D01*
X88619705Y-64632421D01*
X88645859Y-64635792D01*
X88667946Y-64647681D01*
X88688178Y-64663635D01*
X88703079Y-64683700D01*
X88713434Y-64711702D01*
X88720029Y-64751467D01*
X88723649Y-64806823D01*
X88725078Y-64881594D01*
X88725218Y-64926740D01*
X88725218Y-65120822D01*
X88850960Y-65120822D01*
X88850960Y-64504683D01*
X88788089Y-64504683D01*
X88750356Y-64506020D01*
X88750356Y-64506020D01*
G37*
X88750356Y-64506020D02*
X88731539Y-64511660D01*
X88725473Y-64524053D01*
X88725218Y-64529647D01*
X88724129Y-64545230D01*
X88716632Y-64547676D01*
X88696381Y-64536993D01*
X88684351Y-64529694D01*
X88646400Y-64514063D01*
X88601072Y-64506334D01*
X88553544Y-64505740D01*
X88508995Y-64511513D01*
X88472602Y-64522884D01*
X88449543Y-64539088D01*
X88444996Y-64559355D01*
X88447291Y-64564843D01*
X88464020Y-64587626D01*
X88489963Y-64615647D01*
X88494655Y-64620177D01*
X88519383Y-64641005D01*
X88540718Y-64647735D01*
X88570555Y-64643038D01*
X88582508Y-64639917D01*
X88619705Y-64632421D01*
X88645859Y-64635792D01*
X88667946Y-64647681D01*
X88688178Y-64663635D01*
X88703079Y-64683700D01*
X88713434Y-64711702D01*
X88720029Y-64751467D01*
X88723649Y-64806823D01*
X88725078Y-64881594D01*
X88725218Y-64926740D01*
X88725218Y-65120822D01*
X88850960Y-65120822D01*
X88850960Y-64504683D01*
X88788089Y-64504683D01*
X88750356Y-64506020D01*
G36*
X87958188Y-65120822D02*
X88027346Y-65120822D01*
X88067488Y-65119645D01*
X88088394Y-65114772D01*
X88095922Y-65104186D01*
X88096505Y-65097029D01*
X88097774Y-65082676D01*
X88105779Y-65079923D01*
X88126815Y-65088771D01*
X88143173Y-65097029D01*
X88205977Y-65116597D01*
X88274248Y-65117729D01*
X88329752Y-65103135D01*
X88381438Y-65067877D01*
X88420838Y-65015835D01*
X88442413Y-64954450D01*
X88442962Y-64951018D01*
X88446167Y-64913571D01*
X88447761Y-64859813D01*
X88447633Y-64819155D01*
X88310279Y-64819155D01*
X88307097Y-64873194D01*
X88299859Y-64917735D01*
X88290060Y-64942888D01*
X88252989Y-64977260D01*
X88208974Y-64989582D01*
X88163584Y-64979618D01*
X88124797Y-64949895D01*
X88110108Y-64929905D01*
X88101519Y-64906050D01*
X88097496Y-64871230D01*
X88096505Y-64818930D01*
X88098278Y-64767139D01*
X88102963Y-64721634D01*
X88109603Y-64691181D01*
X88110710Y-64688452D01*
X88137491Y-64656000D01*
X88176579Y-64638183D01*
X88220315Y-64635306D01*
X88261038Y-64647674D01*
X88291087Y-64675593D01*
X88294204Y-64681148D01*
X88303961Y-64715022D01*
X88309277Y-64763728D01*
X88310279Y-64819155D01*
X88447633Y-64819155D01*
X88447568Y-64798540D01*
X88446664Y-64765563D01*
X88440514Y-64683981D01*
X88427733Y-64622730D01*
X88406471Y-64577449D01*
X88374878Y-64543779D01*
X88344207Y-64524014D01*
X88301354Y-64510120D01*
X88248056Y-64505354D01*
X88193480Y-64509236D01*
X88146792Y-64521282D01*
X88122124Y-64535693D01*
X88096505Y-64558878D01*
X88096505Y-64265773D01*
X87958188Y-64265773D01*
X87958188Y-65120822D01*
X87958188Y-65120822D01*
G37*
X87958188Y-65120822D02*
X88027346Y-65120822D01*
X88067488Y-65119645D01*
X88088394Y-65114772D01*
X88095922Y-65104186D01*
X88096505Y-65097029D01*
X88097774Y-65082676D01*
X88105779Y-65079923D01*
X88126815Y-65088771D01*
X88143173Y-65097029D01*
X88205977Y-65116597D01*
X88274248Y-65117729D01*
X88329752Y-65103135D01*
X88381438Y-65067877D01*
X88420838Y-65015835D01*
X88442413Y-64954450D01*
X88442962Y-64951018D01*
X88446167Y-64913571D01*
X88447761Y-64859813D01*
X88447633Y-64819155D01*
X88310279Y-64819155D01*
X88307097Y-64873194D01*
X88299859Y-64917735D01*
X88290060Y-64942888D01*
X88252989Y-64977260D01*
X88208974Y-64989582D01*
X88163584Y-64979618D01*
X88124797Y-64949895D01*
X88110108Y-64929905D01*
X88101519Y-64906050D01*
X88097496Y-64871230D01*
X88096505Y-64818930D01*
X88098278Y-64767139D01*
X88102963Y-64721634D01*
X88109603Y-64691181D01*
X88110710Y-64688452D01*
X88137491Y-64656000D01*
X88176579Y-64638183D01*
X88220315Y-64635306D01*
X88261038Y-64647674D01*
X88291087Y-64675593D01*
X88294204Y-64681148D01*
X88303961Y-64715022D01*
X88309277Y-64763728D01*
X88310279Y-64819155D01*
X88447633Y-64819155D01*
X88447568Y-64798540D01*
X88446664Y-64765563D01*
X88440514Y-64683981D01*
X88427733Y-64622730D01*
X88406471Y-64577449D01*
X88374878Y-64543779D01*
X88344207Y-64524014D01*
X88301354Y-64510120D01*
X88248056Y-64505354D01*
X88193480Y-64509236D01*
X88146792Y-64521282D01*
X88122124Y-64535693D01*
X88096505Y-64558878D01*
X88096505Y-64265773D01*
X87958188Y-64265773D01*
X87958188Y-65120822D01*
G36*
X87475476Y-64507237D02*
X87425745Y-64510971D01*
X87295709Y-64900773D01*
X87275322Y-64831614D01*
X87263054Y-64788874D01*
X87246915Y-64731115D01*
X87229488Y-64667625D01*
X87220274Y-64633570D01*
X87185612Y-64504683D01*
X87042609Y-64504683D01*
X87085354Y-64639857D01*
X87106404Y-64706342D01*
X87131833Y-64786539D01*
X87158390Y-64870193D01*
X87182098Y-64944782D01*
X87236098Y-65114535D01*
X87294402Y-65118328D01*
X87352705Y-65122122D01*
X87384321Y-65017734D01*
X87403818Y-64952889D01*
X87425096Y-64881400D01*
X87443692Y-64818263D01*
X87444426Y-64815750D01*
X87458316Y-64772969D01*
X87470571Y-64743779D01*
X87479154Y-64732741D01*
X87480918Y-64734018D01*
X87487109Y-64751130D01*
X87498872Y-64787787D01*
X87514775Y-64839378D01*
X87533386Y-64901294D01*
X87543457Y-64935352D01*
X87597993Y-65120822D01*
X87713736Y-65120822D01*
X87806263Y-64828471D01*
X87832256Y-64746462D01*
X87855934Y-64671987D01*
X87876180Y-64608544D01*
X87891874Y-64559632D01*
X87901898Y-64528749D01*
X87904945Y-64519726D01*
X87902533Y-64510487D01*
X87883592Y-64506441D01*
X87844177Y-64506846D01*
X87838007Y-64507152D01*
X87764914Y-64510971D01*
X87717043Y-64687010D01*
X87699447Y-64751211D01*
X87683723Y-64807649D01*
X87671254Y-64851422D01*
X87663426Y-64877630D01*
X87661980Y-64881903D01*
X87655986Y-64876990D01*
X87643899Y-64851532D01*
X87627107Y-64808997D01*
X87606997Y-64752850D01*
X87589997Y-64702130D01*
X87525206Y-64503504D01*
X87475476Y-64507237D01*
X87475476Y-64507237D01*
G37*
X87475476Y-64507237D02*
X87425745Y-64510971D01*
X87295709Y-64900773D01*
X87275322Y-64831614D01*
X87263054Y-64788874D01*
X87246915Y-64731115D01*
X87229488Y-64667625D01*
X87220274Y-64633570D01*
X87185612Y-64504683D01*
X87042609Y-64504683D01*
X87085354Y-64639857D01*
X87106404Y-64706342D01*
X87131833Y-64786539D01*
X87158390Y-64870193D01*
X87182098Y-64944782D01*
X87236098Y-65114535D01*
X87294402Y-65118328D01*
X87352705Y-65122122D01*
X87384321Y-65017734D01*
X87403818Y-64952889D01*
X87425096Y-64881400D01*
X87443692Y-64818263D01*
X87444426Y-64815750D01*
X87458316Y-64772969D01*
X87470571Y-64743779D01*
X87479154Y-64732741D01*
X87480918Y-64734018D01*
X87487109Y-64751130D01*
X87498872Y-64787787D01*
X87514775Y-64839378D01*
X87533386Y-64901294D01*
X87543457Y-64935352D01*
X87597993Y-65120822D01*
X87713736Y-65120822D01*
X87806263Y-64828471D01*
X87832256Y-64746462D01*
X87855934Y-64671987D01*
X87876180Y-64608544D01*
X87891874Y-64559632D01*
X87901898Y-64528749D01*
X87904945Y-64519726D01*
X87902533Y-64510487D01*
X87883592Y-64506441D01*
X87844177Y-64506846D01*
X87838007Y-64507152D01*
X87764914Y-64510971D01*
X87717043Y-64687010D01*
X87699447Y-64751211D01*
X87683723Y-64807649D01*
X87671254Y-64851422D01*
X87663426Y-64877630D01*
X87661980Y-64881903D01*
X87655986Y-64876990D01*
X87643899Y-64851532D01*
X87627107Y-64808997D01*
X87606997Y-64752850D01*
X87589997Y-64702130D01*
X87525206Y-64503504D01*
X87475476Y-64507237D01*
G36*
X86718589Y-64508417D02*
X86665589Y-64521290D01*
X86650269Y-64528110D01*
X86620572Y-64545974D01*
X86597780Y-64566093D01*
X86580917Y-64591962D01*
X86569002Y-64627073D01*
X86561058Y-64674920D01*
X86556106Y-64738996D01*
X86553169Y-64822794D01*
X86552053Y-64878768D01*
X86547948Y-65120822D01*
X86618068Y-65120822D01*
X86660607Y-65119038D01*
X86682524Y-65112942D01*
X86688188Y-65102706D01*
X86691179Y-65091637D01*
X86704549Y-65093754D01*
X86722767Y-65102629D01*
X86768376Y-65116233D01*
X86826993Y-65119899D01*
X86888646Y-65113903D01*
X86943362Y-65098521D01*
X86948270Y-65096386D01*
X86998277Y-65061255D01*
X87031244Y-65012419D01*
X87046413Y-64955333D01*
X87045254Y-64934824D01*
X86921492Y-64934824D01*
X86910587Y-64962425D01*
X86878255Y-64982204D01*
X86826090Y-64992819D01*
X86798213Y-64994228D01*
X86751753Y-64990620D01*
X86720871Y-64976597D01*
X86713336Y-64969931D01*
X86692924Y-64933666D01*
X86688188Y-64900773D01*
X86688188Y-64856763D01*
X86749487Y-64856763D01*
X86820744Y-64860395D01*
X86870724Y-64871818D01*
X86902304Y-64891824D01*
X86909374Y-64900743D01*
X86921492Y-64934824D01*
X87045254Y-64934824D01*
X87043029Y-64895456D01*
X87020337Y-64838244D01*
X86989376Y-64799580D01*
X86970624Y-64782864D01*
X86952267Y-64771878D01*
X86928381Y-64765180D01*
X86893043Y-64761326D01*
X86840331Y-64758873D01*
X86819423Y-64758168D01*
X86688188Y-64753879D01*
X86688380Y-64714158D01*
X86693463Y-64672405D01*
X86711838Y-64647158D01*
X86748961Y-64631030D01*
X86749957Y-64630742D01*
X86802590Y-64624400D01*
X86854094Y-64632684D01*
X86892370Y-64652827D01*
X86907728Y-64662773D01*
X86924270Y-64661397D01*
X86949725Y-64646987D01*
X86964672Y-64636817D01*
X86993909Y-64615088D01*
X87012020Y-64598800D01*
X87014926Y-64594137D01*
X87002960Y-64570005D01*
X86967604Y-64541185D01*
X86952247Y-64531461D01*
X86908099Y-64514714D01*
X86848602Y-64505227D01*
X86782513Y-64503095D01*
X86718589Y-64508417D01*
X86718589Y-64508417D01*
G37*
X86718589Y-64508417D02*
X86665589Y-64521290D01*
X86650269Y-64528110D01*
X86620572Y-64545974D01*
X86597780Y-64566093D01*
X86580917Y-64591962D01*
X86569002Y-64627073D01*
X86561058Y-64674920D01*
X86556106Y-64738996D01*
X86553169Y-64822794D01*
X86552053Y-64878768D01*
X86547948Y-65120822D01*
X86618068Y-65120822D01*
X86660607Y-65119038D01*
X86682524Y-65112942D01*
X86688188Y-65102706D01*
X86691179Y-65091637D01*
X86704549Y-65093754D01*
X86722767Y-65102629D01*
X86768376Y-65116233D01*
X86826993Y-65119899D01*
X86888646Y-65113903D01*
X86943362Y-65098521D01*
X86948270Y-65096386D01*
X86998277Y-65061255D01*
X87031244Y-65012419D01*
X87046413Y-64955333D01*
X87045254Y-64934824D01*
X86921492Y-64934824D01*
X86910587Y-64962425D01*
X86878255Y-64982204D01*
X86826090Y-64992819D01*
X86798213Y-64994228D01*
X86751753Y-64990620D01*
X86720871Y-64976597D01*
X86713336Y-64969931D01*
X86692924Y-64933666D01*
X86688188Y-64900773D01*
X86688188Y-64856763D01*
X86749487Y-64856763D01*
X86820744Y-64860395D01*
X86870724Y-64871818D01*
X86902304Y-64891824D01*
X86909374Y-64900743D01*
X86921492Y-64934824D01*
X87045254Y-64934824D01*
X87043029Y-64895456D01*
X87020337Y-64838244D01*
X86989376Y-64799580D01*
X86970624Y-64782864D01*
X86952267Y-64771878D01*
X86928381Y-64765180D01*
X86893043Y-64761326D01*
X86840331Y-64758873D01*
X86819423Y-64758168D01*
X86688188Y-64753879D01*
X86688380Y-64714158D01*
X86693463Y-64672405D01*
X86711838Y-64647158D01*
X86748961Y-64631030D01*
X86749957Y-64630742D01*
X86802590Y-64624400D01*
X86854094Y-64632684D01*
X86892370Y-64652827D01*
X86907728Y-64662773D01*
X86924270Y-64661397D01*
X86949725Y-64646987D01*
X86964672Y-64636817D01*
X86993909Y-64615088D01*
X87012020Y-64598800D01*
X87014926Y-64594137D01*
X87002960Y-64570005D01*
X86967604Y-64541185D01*
X86952247Y-64531461D01*
X86908099Y-64514714D01*
X86848602Y-64505227D01*
X86782513Y-64503095D01*
X86718589Y-64508417D01*
G36*
X86121745Y-64504486D02*
X86073405Y-64514015D01*
X86045886Y-64528125D01*
X86016936Y-64551568D01*
X86058124Y-64603571D01*
X86083518Y-64635064D01*
X86100762Y-64650428D01*
X86117898Y-64652776D01*
X86142973Y-64645217D01*
X86154743Y-64640941D01*
X86202730Y-64634631D01*
X86246676Y-64648156D01*
X86278940Y-64678710D01*
X86284181Y-64688452D01*
X86289888Y-64714258D01*
X86294294Y-64761817D01*
X86297189Y-64827758D01*
X86298369Y-64908710D01*
X86298386Y-64920226D01*
X86298386Y-65120822D01*
X86436703Y-65120822D01*
X86436703Y-64504683D01*
X86367544Y-64504683D01*
X86327667Y-64505725D01*
X86306893Y-64510358D01*
X86299211Y-64520849D01*
X86298386Y-64530745D01*
X86298386Y-64556806D01*
X86265255Y-64530745D01*
X86227265Y-64512965D01*
X86176230Y-64504174D01*
X86121745Y-64504486D01*
X86121745Y-64504486D01*
G37*
X86121745Y-64504486D02*
X86073405Y-64514015D01*
X86045886Y-64528125D01*
X86016936Y-64551568D01*
X86058124Y-64603571D01*
X86083518Y-64635064D01*
X86100762Y-64650428D01*
X86117898Y-64652776D01*
X86142973Y-64645217D01*
X86154743Y-64640941D01*
X86202730Y-64634631D01*
X86246676Y-64648156D01*
X86278940Y-64678710D01*
X86284181Y-64688452D01*
X86289888Y-64714258D01*
X86294294Y-64761817D01*
X86297189Y-64827758D01*
X86298369Y-64908710D01*
X86298386Y-64920226D01*
X86298386Y-65120822D01*
X86436703Y-65120822D01*
X86436703Y-64504683D01*
X86367544Y-64504683D01*
X86327667Y-64505725D01*
X86306893Y-64510358D01*
X86299211Y-64520849D01*
X86298386Y-64530745D01*
X86298386Y-64556806D01*
X86265255Y-64530745D01*
X86227265Y-64512965D01*
X86176230Y-64504174D01*
X86121745Y-64504486D01*
G36*
X85724419Y-64507970D02*
X85664315Y-64523597D01*
X85613979Y-64555848D01*
X85589607Y-64579940D01*
X85549655Y-64636895D01*
X85526758Y-64702965D01*
X85518892Y-64784182D01*
X85518852Y-64790748D01*
X85518782Y-64856763D01*
X85898736Y-64856763D01*
X85890637Y-64891342D01*
X85876013Y-64922659D01*
X85850419Y-64955291D01*
X85845065Y-64960500D01*
X85799057Y-64988694D01*
X85746590Y-64993475D01*
X85686197Y-64974926D01*
X85675960Y-64969931D01*
X85644561Y-64954745D01*
X85623530Y-64946094D01*
X85619861Y-64945293D01*
X85607052Y-64953063D01*
X85582622Y-64972072D01*
X85570221Y-64982460D01*
X85544524Y-65006321D01*
X85536085Y-65022077D01*
X85541942Y-65036571D01*
X85545072Y-65040534D01*
X85566275Y-65057879D01*
X85601262Y-65078959D01*
X85625663Y-65091265D01*
X85694928Y-65112946D01*
X85771612Y-65119971D01*
X85844235Y-65111647D01*
X85864574Y-65105686D01*
X85927524Y-65071952D01*
X85974185Y-65020045D01*
X86004827Y-64949459D01*
X86019718Y-64859692D01*
X86021353Y-64812753D01*
X86016579Y-64744413D01*
X85896010Y-64744413D01*
X85884348Y-64749465D01*
X85853002Y-64753429D01*
X85807429Y-64755768D01*
X85776554Y-64756169D01*
X85721019Y-64755783D01*
X85685967Y-64753975D01*
X85666738Y-64749773D01*
X85658670Y-64742203D01*
X85657099Y-64731218D01*
X85667879Y-64697381D01*
X85695020Y-64663940D01*
X85730723Y-64638272D01*
X85766440Y-64627772D01*
X85814952Y-64637086D01*
X85856947Y-64664013D01*
X85886064Y-64702827D01*
X85896010Y-64744413D01*
X86016579Y-64744413D01*
X86014401Y-64713236D01*
X85992945Y-64633949D01*
X85956530Y-64574263D01*
X85904703Y-64533549D01*
X85837010Y-64511179D01*
X85800338Y-64506871D01*
X85724419Y-64507970D01*
X85724419Y-64507970D01*
G37*
X85724419Y-64507970D02*
X85664315Y-64523597D01*
X85613979Y-64555848D01*
X85589607Y-64579940D01*
X85549655Y-64636895D01*
X85526758Y-64702965D01*
X85518892Y-64784182D01*
X85518852Y-64790748D01*
X85518782Y-64856763D01*
X85898736Y-64856763D01*
X85890637Y-64891342D01*
X85876013Y-64922659D01*
X85850419Y-64955291D01*
X85845065Y-64960500D01*
X85799057Y-64988694D01*
X85746590Y-64993475D01*
X85686197Y-64974926D01*
X85675960Y-64969931D01*
X85644561Y-64954745D01*
X85623530Y-64946094D01*
X85619861Y-64945293D01*
X85607052Y-64953063D01*
X85582622Y-64972072D01*
X85570221Y-64982460D01*
X85544524Y-65006321D01*
X85536085Y-65022077D01*
X85541942Y-65036571D01*
X85545072Y-65040534D01*
X85566275Y-65057879D01*
X85601262Y-65078959D01*
X85625663Y-65091265D01*
X85694928Y-65112946D01*
X85771612Y-65119971D01*
X85844235Y-65111647D01*
X85864574Y-65105686D01*
X85927524Y-65071952D01*
X85974185Y-65020045D01*
X86004827Y-64949459D01*
X86019718Y-64859692D01*
X86021353Y-64812753D01*
X86016579Y-64744413D01*
X85896010Y-64744413D01*
X85884348Y-64749465D01*
X85853002Y-64753429D01*
X85807429Y-64755768D01*
X85776554Y-64756169D01*
X85721019Y-64755783D01*
X85685967Y-64753975D01*
X85666738Y-64749773D01*
X85658670Y-64742203D01*
X85657099Y-64731218D01*
X85667879Y-64697381D01*
X85695020Y-64663940D01*
X85730723Y-64638272D01*
X85766440Y-64627772D01*
X85814952Y-64637086D01*
X85856947Y-64664013D01*
X85886064Y-64702827D01*
X85896010Y-64744413D01*
X86016579Y-64744413D01*
X86014401Y-64713236D01*
X85992945Y-64633949D01*
X85956530Y-64574263D01*
X85904703Y-64533549D01*
X85837010Y-64511179D01*
X85800338Y-64506871D01*
X85724419Y-64507970D01*
G36*
X90295261Y-63568148D02*
X90229479Y-63597231D01*
X90179540Y-63645793D01*
X90145374Y-63713908D01*
X90126907Y-63801651D01*
X90125583Y-63815351D01*
X90124546Y-63911939D01*
X90137993Y-63996602D01*
X90165108Y-64065221D01*
X90179627Y-64087294D01*
X90230201Y-64134011D01*
X90294609Y-64164268D01*
X90366666Y-64176824D01*
X90440185Y-64170439D01*
X90496072Y-64150772D01*
X90544132Y-64117629D01*
X90583412Y-64074175D01*
X90584092Y-64073158D01*
X90600044Y-64046338D01*
X90610410Y-64019368D01*
X90616688Y-63985332D01*
X90620373Y-63937310D01*
X90621997Y-63897931D01*
X90622672Y-63862219D01*
X90496955Y-63862219D01*
X90495726Y-63897770D01*
X90491266Y-63945094D01*
X90483397Y-63975465D01*
X90469207Y-63997072D01*
X90455917Y-64009694D01*
X90408802Y-64036122D01*
X90359505Y-64039653D01*
X90313593Y-64020639D01*
X90290638Y-63999331D01*
X90274096Y-63977859D01*
X90264421Y-63957313D01*
X90260174Y-63930574D01*
X90259920Y-63890523D01*
X90261228Y-63853638D01*
X90264043Y-63800947D01*
X90268505Y-63766772D01*
X90276548Y-63744480D01*
X90290103Y-63727442D01*
X90300845Y-63717703D01*
X90345777Y-63692123D01*
X90394249Y-63690847D01*
X90434894Y-63705999D01*
X90469567Y-63737642D01*
X90490224Y-63789620D01*
X90496955Y-63862219D01*
X90622672Y-63862219D01*
X90623479Y-63819621D01*
X90620948Y-63761056D01*
X90613362Y-63717007D01*
X90599681Y-63682248D01*
X90578865Y-63651551D01*
X90571147Y-63642436D01*
X90522889Y-63597021D01*
X90471128Y-63570493D01*
X90407828Y-63559379D01*
X90376961Y-63558471D01*
X90295261Y-63568148D01*
X90295261Y-63568148D01*
G37*
X90295261Y-63568148D02*
X90229479Y-63597231D01*
X90179540Y-63645793D01*
X90145374Y-63713908D01*
X90126907Y-63801651D01*
X90125583Y-63815351D01*
X90124546Y-63911939D01*
X90137993Y-63996602D01*
X90165108Y-64065221D01*
X90179627Y-64087294D01*
X90230201Y-64134011D01*
X90294609Y-64164268D01*
X90366666Y-64176824D01*
X90440185Y-64170439D01*
X90496072Y-64150772D01*
X90544132Y-64117629D01*
X90583412Y-64074175D01*
X90584092Y-64073158D01*
X90600044Y-64046338D01*
X90610410Y-64019368D01*
X90616688Y-63985332D01*
X90620373Y-63937310D01*
X90621997Y-63897931D01*
X90622672Y-63862219D01*
X90496955Y-63862219D01*
X90495726Y-63897770D01*
X90491266Y-63945094D01*
X90483397Y-63975465D01*
X90469207Y-63997072D01*
X90455917Y-64009694D01*
X90408802Y-64036122D01*
X90359505Y-64039653D01*
X90313593Y-64020639D01*
X90290638Y-63999331D01*
X90274096Y-63977859D01*
X90264421Y-63957313D01*
X90260174Y-63930574D01*
X90259920Y-63890523D01*
X90261228Y-63853638D01*
X90264043Y-63800947D01*
X90268505Y-63766772D01*
X90276548Y-63744480D01*
X90290103Y-63727442D01*
X90300845Y-63717703D01*
X90345777Y-63692123D01*
X90394249Y-63690847D01*
X90434894Y-63705999D01*
X90469567Y-63737642D01*
X90490224Y-63789620D01*
X90496955Y-63862219D01*
X90622672Y-63862219D01*
X90623479Y-63819621D01*
X90620948Y-63761056D01*
X90613362Y-63717007D01*
X90599681Y-63682248D01*
X90578865Y-63651551D01*
X90571147Y-63642436D01*
X90522889Y-63597021D01*
X90471128Y-63570493D01*
X90407828Y-63559379D01*
X90376961Y-63558471D01*
X90295261Y-63568148D01*
G36*
X89113699Y-63575614D02*
X89101168Y-63581514D01*
X89057799Y-63613283D01*
X89016790Y-63659646D01*
X88986168Y-63710696D01*
X88977459Y-63734166D01*
X88969512Y-63776091D01*
X88964774Y-63826757D01*
X88964199Y-63847679D01*
X88964129Y-63913693D01*
X89344083Y-63913693D01*
X89335983Y-63948273D01*
X89316104Y-63989170D01*
X89281347Y-64024514D01*
X89239998Y-64047282D01*
X89213649Y-64052010D01*
X89177916Y-64046273D01*
X89135282Y-64031882D01*
X89120799Y-64025262D01*
X89067240Y-63998513D01*
X89021533Y-64033376D01*
X88995158Y-64056955D01*
X88981124Y-64076417D01*
X88980414Y-64082129D01*
X88992951Y-64095973D01*
X89020428Y-64117012D01*
X89045366Y-64133425D01*
X89112664Y-64162930D01*
X89188110Y-64176284D01*
X89262888Y-64172812D01*
X89322495Y-64154663D01*
X89383941Y-64115784D01*
X89427608Y-64064595D01*
X89454926Y-63998367D01*
X89467322Y-63914371D01*
X89468421Y-63875936D01*
X89464022Y-63787861D01*
X89463482Y-63785299D01*
X89337582Y-63785299D01*
X89334115Y-63793558D01*
X89319863Y-63798113D01*
X89290470Y-63800065D01*
X89241575Y-63800517D01*
X89222748Y-63800525D01*
X89165467Y-63799843D01*
X89129141Y-63797364D01*
X89109604Y-63792443D01*
X89102690Y-63784434D01*
X89102445Y-63781862D01*
X89110336Y-63761423D01*
X89130085Y-63732789D01*
X89138575Y-63722763D01*
X89170094Y-63694408D01*
X89202949Y-63683259D01*
X89220651Y-63682327D01*
X89268539Y-63693981D01*
X89308699Y-63725285D01*
X89334173Y-63770752D01*
X89334625Y-63772233D01*
X89337582Y-63785299D01*
X89463482Y-63785299D01*
X89449392Y-63718510D01*
X89423038Y-63663025D01*
X89390807Y-63623639D01*
X89331217Y-63580931D01*
X89261168Y-63558109D01*
X89186661Y-63556046D01*
X89113699Y-63575614D01*
X89113699Y-63575614D01*
G37*
X89113699Y-63575614D02*
X89101168Y-63581514D01*
X89057799Y-63613283D01*
X89016790Y-63659646D01*
X88986168Y-63710696D01*
X88977459Y-63734166D01*
X88969512Y-63776091D01*
X88964774Y-63826757D01*
X88964199Y-63847679D01*
X88964129Y-63913693D01*
X89344083Y-63913693D01*
X89335983Y-63948273D01*
X89316104Y-63989170D01*
X89281347Y-64024514D01*
X89239998Y-64047282D01*
X89213649Y-64052010D01*
X89177916Y-64046273D01*
X89135282Y-64031882D01*
X89120799Y-64025262D01*
X89067240Y-63998513D01*
X89021533Y-64033376D01*
X88995158Y-64056955D01*
X88981124Y-64076417D01*
X88980414Y-64082129D01*
X88992951Y-64095973D01*
X89020428Y-64117012D01*
X89045366Y-64133425D01*
X89112664Y-64162930D01*
X89188110Y-64176284D01*
X89262888Y-64172812D01*
X89322495Y-64154663D01*
X89383941Y-64115784D01*
X89427608Y-64064595D01*
X89454926Y-63998367D01*
X89467322Y-63914371D01*
X89468421Y-63875936D01*
X89464022Y-63787861D01*
X89463482Y-63785299D01*
X89337582Y-63785299D01*
X89334115Y-63793558D01*
X89319863Y-63798113D01*
X89290470Y-63800065D01*
X89241575Y-63800517D01*
X89222748Y-63800525D01*
X89165467Y-63799843D01*
X89129141Y-63797364D01*
X89109604Y-63792443D01*
X89102690Y-63784434D01*
X89102445Y-63781862D01*
X89110336Y-63761423D01*
X89130085Y-63732789D01*
X89138575Y-63722763D01*
X89170094Y-63694408D01*
X89202949Y-63683259D01*
X89220651Y-63682327D01*
X89268539Y-63693981D01*
X89308699Y-63725285D01*
X89334173Y-63770752D01*
X89334625Y-63772233D01*
X89337582Y-63785299D01*
X89463482Y-63785299D01*
X89449392Y-63718510D01*
X89423038Y-63663025D01*
X89390807Y-63623639D01*
X89331217Y-63580931D01*
X89261168Y-63558109D01*
X89186661Y-63556046D01*
X89113699Y-63575614D01*
G36*
X87742983Y-63559452D02*
X87695366Y-63568482D01*
X87645966Y-63587370D01*
X87640688Y-63589777D01*
X87603226Y-63609476D01*
X87577283Y-63627781D01*
X87568897Y-63639508D01*
X87576883Y-63658632D01*
X87596280Y-63686850D01*
X87604890Y-63697384D01*
X87640372Y-63738847D01*
X87686115Y-63711858D01*
X87729650Y-63693878D01*
X87779950Y-63684267D01*
X87828188Y-63683660D01*
X87865533Y-63692691D01*
X87874495Y-63698327D01*
X87891563Y-63724171D01*
X87893637Y-63753941D01*
X87880866Y-63777197D01*
X87873312Y-63781708D01*
X87850675Y-63787309D01*
X87810885Y-63793892D01*
X87761834Y-63800183D01*
X87752785Y-63801170D01*
X87674004Y-63814798D01*
X87616864Y-63837946D01*
X87578970Y-63872752D01*
X87557921Y-63921354D01*
X87551365Y-63980718D01*
X87560423Y-64048198D01*
X87589836Y-64101188D01*
X87639722Y-64139783D01*
X87710200Y-64164081D01*
X87788435Y-64173667D01*
X87852234Y-64173552D01*
X87903984Y-64164845D01*
X87939327Y-64152825D01*
X87983983Y-64131880D01*
X88025253Y-64107574D01*
X88039921Y-64096876D01*
X88077643Y-64066084D01*
X88032148Y-64020049D01*
X87986653Y-63974013D01*
X87934928Y-64008243D01*
X87883048Y-64033952D01*
X87827649Y-64047399D01*
X87774395Y-64048818D01*
X87728951Y-64038443D01*
X87696984Y-64016507D01*
X87686662Y-63997998D01*
X87688211Y-63968314D01*
X87713860Y-63945615D01*
X87763540Y-63929940D01*
X87817969Y-63922695D01*
X87901736Y-63908873D01*
X87963967Y-63882796D01*
X88005493Y-63843699D01*
X88027147Y-63790820D01*
X88030147Y-63728126D01*
X88015329Y-63662642D01*
X87981546Y-63613144D01*
X87928495Y-63579408D01*
X87855874Y-63561207D01*
X87802072Y-63557639D01*
X87742983Y-63559452D01*
X87742983Y-63559452D01*
G37*
X87742983Y-63559452D02*
X87695366Y-63568482D01*
X87645966Y-63587370D01*
X87640688Y-63589777D01*
X87603226Y-63609476D01*
X87577283Y-63627781D01*
X87568897Y-63639508D01*
X87576883Y-63658632D01*
X87596280Y-63686850D01*
X87604890Y-63697384D01*
X87640372Y-63738847D01*
X87686115Y-63711858D01*
X87729650Y-63693878D01*
X87779950Y-63684267D01*
X87828188Y-63683660D01*
X87865533Y-63692691D01*
X87874495Y-63698327D01*
X87891563Y-63724171D01*
X87893637Y-63753941D01*
X87880866Y-63777197D01*
X87873312Y-63781708D01*
X87850675Y-63787309D01*
X87810885Y-63793892D01*
X87761834Y-63800183D01*
X87752785Y-63801170D01*
X87674004Y-63814798D01*
X87616864Y-63837946D01*
X87578970Y-63872752D01*
X87557921Y-63921354D01*
X87551365Y-63980718D01*
X87560423Y-64048198D01*
X87589836Y-64101188D01*
X87639722Y-64139783D01*
X87710200Y-64164081D01*
X87788435Y-64173667D01*
X87852234Y-64173552D01*
X87903984Y-64164845D01*
X87939327Y-64152825D01*
X87983983Y-64131880D01*
X88025253Y-64107574D01*
X88039921Y-64096876D01*
X88077643Y-64066084D01*
X88032148Y-64020049D01*
X87986653Y-63974013D01*
X87934928Y-64008243D01*
X87883048Y-64033952D01*
X87827649Y-64047399D01*
X87774395Y-64048818D01*
X87728951Y-64038443D01*
X87696984Y-64016507D01*
X87686662Y-63997998D01*
X87688211Y-63968314D01*
X87713860Y-63945615D01*
X87763540Y-63929940D01*
X87817969Y-63922695D01*
X87901736Y-63908873D01*
X87963967Y-63882796D01*
X88005493Y-63843699D01*
X88027147Y-63790820D01*
X88030147Y-63728126D01*
X88015329Y-63662642D01*
X87981546Y-63613144D01*
X87928495Y-63579408D01*
X87855874Y-63561207D01*
X87802072Y-63557639D01*
X87742983Y-63559452D01*
G36*
X87146238Y-63569055D02*
X87082637Y-63603692D01*
X87032877Y-63658372D01*
X87009432Y-63702842D01*
X86999366Y-63742121D01*
X86992844Y-63798116D01*
X86990049Y-63862621D01*
X86991164Y-63927429D01*
X86996374Y-63984334D01*
X87002459Y-64014727D01*
X87022986Y-64056306D01*
X87058537Y-64100468D01*
X87101381Y-64139087D01*
X87143789Y-64164034D01*
X87144823Y-64164430D01*
X87197447Y-64175331D01*
X87259812Y-64175601D01*
X87319076Y-64165676D01*
X87341960Y-64157722D01*
X87400898Y-64124300D01*
X87443110Y-64080511D01*
X87470844Y-64022538D01*
X87486349Y-63946565D01*
X87489857Y-63906771D01*
X87489410Y-63856766D01*
X87354624Y-63856766D01*
X87350083Y-63929732D01*
X87337014Y-63985334D01*
X87316244Y-64020861D01*
X87301448Y-64031020D01*
X87263536Y-64038104D01*
X87218473Y-64036007D01*
X87179513Y-64025812D01*
X87169296Y-64020204D01*
X87142341Y-63987538D01*
X87124549Y-63937545D01*
X87116976Y-63876705D01*
X87120675Y-63811497D01*
X87128943Y-63772253D01*
X87152680Y-63726805D01*
X87190151Y-63698396D01*
X87235280Y-63688573D01*
X87281989Y-63698887D01*
X87317868Y-63724112D01*
X87336723Y-63744925D01*
X87347728Y-63765439D01*
X87352974Y-63793203D01*
X87354551Y-63835762D01*
X87354624Y-63856766D01*
X87489410Y-63856766D01*
X87488906Y-63800580D01*
X87471612Y-63713501D01*
X87437971Y-63645530D01*
X87387982Y-63596664D01*
X87321644Y-63566899D01*
X87307399Y-63563448D01*
X87221790Y-63555345D01*
X87146238Y-63569055D01*
X87146238Y-63569055D01*
G37*
X87146238Y-63569055D02*
X87082637Y-63603692D01*
X87032877Y-63658372D01*
X87009432Y-63702842D01*
X86999366Y-63742121D01*
X86992844Y-63798116D01*
X86990049Y-63862621D01*
X86991164Y-63927429D01*
X86996374Y-63984334D01*
X87002459Y-64014727D01*
X87022986Y-64056306D01*
X87058537Y-64100468D01*
X87101381Y-64139087D01*
X87143789Y-64164034D01*
X87144823Y-64164430D01*
X87197447Y-64175331D01*
X87259812Y-64175601D01*
X87319076Y-64165676D01*
X87341960Y-64157722D01*
X87400898Y-64124300D01*
X87443110Y-64080511D01*
X87470844Y-64022538D01*
X87486349Y-63946565D01*
X87489857Y-63906771D01*
X87489410Y-63856766D01*
X87354624Y-63856766D01*
X87350083Y-63929732D01*
X87337014Y-63985334D01*
X87316244Y-64020861D01*
X87301448Y-64031020D01*
X87263536Y-64038104D01*
X87218473Y-64036007D01*
X87179513Y-64025812D01*
X87169296Y-64020204D01*
X87142341Y-63987538D01*
X87124549Y-63937545D01*
X87116976Y-63876705D01*
X87120675Y-63811497D01*
X87128943Y-63772253D01*
X87152680Y-63726805D01*
X87190151Y-63698396D01*
X87235280Y-63688573D01*
X87281989Y-63698887D01*
X87317868Y-63724112D01*
X87336723Y-63744925D01*
X87347728Y-63765439D01*
X87352974Y-63793203D01*
X87354551Y-63835762D01*
X87354624Y-63856766D01*
X87489410Y-63856766D01*
X87488906Y-63800580D01*
X87471612Y-63713501D01*
X87437971Y-63645530D01*
X87387982Y-63596664D01*
X87321644Y-63566899D01*
X87307399Y-63563448D01*
X87221790Y-63555345D01*
X87146238Y-63569055D01*
G36*
X86763633Y-63757342D02*
X86762445Y-63849563D01*
X86758103Y-63919610D01*
X86749442Y-63970381D01*
X86735296Y-64004772D01*
X86714500Y-64025679D01*
X86685890Y-64036000D01*
X86650465Y-64038636D01*
X86613364Y-64035682D01*
X86585182Y-64024889D01*
X86564757Y-64003360D01*
X86550921Y-63968199D01*
X86542509Y-63916510D01*
X86538357Y-63845394D01*
X86537297Y-63757342D01*
X86537297Y-63561614D01*
X86398980Y-63561614D01*
X86398980Y-64165179D01*
X86468138Y-64165179D01*
X86509830Y-64163489D01*
X86531299Y-64157556D01*
X86537297Y-64146293D01*
X86540909Y-64136261D01*
X86555286Y-64138383D01*
X86584264Y-64152580D01*
X86650681Y-64174480D01*
X86721125Y-64172928D01*
X86788623Y-64149147D01*
X86820767Y-64130362D01*
X86845285Y-64110022D01*
X86863196Y-64084573D01*
X86875521Y-64050458D01*
X86883277Y-64004121D01*
X86887484Y-63942007D01*
X86889160Y-63860561D01*
X86889376Y-63797578D01*
X86889376Y-63561614D01*
X86763633Y-63561614D01*
X86763633Y-63757342D01*
X86763633Y-63757342D01*
G37*
X86763633Y-63757342D02*
X86762445Y-63849563D01*
X86758103Y-63919610D01*
X86749442Y-63970381D01*
X86735296Y-64004772D01*
X86714500Y-64025679D01*
X86685890Y-64036000D01*
X86650465Y-64038636D01*
X86613364Y-64035682D01*
X86585182Y-64024889D01*
X86564757Y-64003360D01*
X86550921Y-63968199D01*
X86542509Y-63916510D01*
X86538357Y-63845394D01*
X86537297Y-63757342D01*
X86537297Y-63561614D01*
X86398980Y-63561614D01*
X86398980Y-64165179D01*
X86468138Y-64165179D01*
X86509830Y-64163489D01*
X86531299Y-64157556D01*
X86537297Y-64146293D01*
X86540909Y-64136261D01*
X86555286Y-64138383D01*
X86584264Y-64152580D01*
X86650681Y-64174480D01*
X86721125Y-64172928D01*
X86788623Y-64149147D01*
X86820767Y-64130362D01*
X86845285Y-64110022D01*
X86863196Y-64084573D01*
X86875521Y-64050458D01*
X86883277Y-64004121D01*
X86887484Y-63942007D01*
X86889160Y-63860561D01*
X86889376Y-63797578D01*
X86889376Y-63561614D01*
X86763633Y-63561614D01*
X86763633Y-63757342D01*
G36*
X85539774Y-63566880D02*
X85466920Y-63597830D01*
X85443973Y-63612895D01*
X85414646Y-63636048D01*
X85396236Y-63654253D01*
X85393039Y-63660183D01*
X85402065Y-63673340D01*
X85425163Y-63695667D01*
X85443656Y-63711250D01*
X85494272Y-63751926D01*
X85534240Y-63718295D01*
X85565126Y-63696584D01*
X85595241Y-63689090D01*
X85629708Y-63690920D01*
X85684439Y-63704528D01*
X85722114Y-63732772D01*
X85745009Y-63778433D01*
X85755403Y-63844289D01*
X85755405Y-63844331D01*
X85754506Y-63917939D01*
X85740537Y-63971946D01*
X85712672Y-64008716D01*
X85693675Y-64021168D01*
X85643224Y-64036673D01*
X85589337Y-64036683D01*
X85542454Y-64021638D01*
X85531356Y-64014287D01*
X85503524Y-63995511D01*
X85481764Y-63992434D01*
X85458296Y-64006409D01*
X85432351Y-64031510D01*
X85391284Y-64073880D01*
X85436879Y-64111464D01*
X85507326Y-64153882D01*
X85586767Y-64174785D01*
X85669785Y-64173272D01*
X85724306Y-64159411D01*
X85788030Y-64125135D01*
X85838995Y-64071212D01*
X85862149Y-64033149D01*
X85880901Y-63978536D01*
X85890285Y-63909369D01*
X85890357Y-63834407D01*
X85881176Y-63762409D01*
X85862801Y-63702137D01*
X85859907Y-63695958D01*
X85817048Y-63635351D01*
X85759021Y-63591224D01*
X85690409Y-63564493D01*
X85615799Y-63556073D01*
X85539774Y-63566880D01*
X85539774Y-63566880D01*
G37*
X85539774Y-63566880D02*
X85466920Y-63597830D01*
X85443973Y-63612895D01*
X85414646Y-63636048D01*
X85396236Y-63654253D01*
X85393039Y-63660183D01*
X85402065Y-63673340D01*
X85425163Y-63695667D01*
X85443656Y-63711250D01*
X85494272Y-63751926D01*
X85534240Y-63718295D01*
X85565126Y-63696584D01*
X85595241Y-63689090D01*
X85629708Y-63690920D01*
X85684439Y-63704528D01*
X85722114Y-63732772D01*
X85745009Y-63778433D01*
X85755403Y-63844289D01*
X85755405Y-63844331D01*
X85754506Y-63917939D01*
X85740537Y-63971946D01*
X85712672Y-64008716D01*
X85693675Y-64021168D01*
X85643224Y-64036673D01*
X85589337Y-64036683D01*
X85542454Y-64021638D01*
X85531356Y-64014287D01*
X85503524Y-63995511D01*
X85481764Y-63992434D01*
X85458296Y-64006409D01*
X85432351Y-64031510D01*
X85391284Y-64073880D01*
X85436879Y-64111464D01*
X85507326Y-64153882D01*
X85586767Y-64174785D01*
X85669785Y-64173272D01*
X85724306Y-64159411D01*
X85788030Y-64125135D01*
X85838995Y-64071212D01*
X85862149Y-64033149D01*
X85880901Y-63978536D01*
X85890285Y-63909369D01*
X85890357Y-63834407D01*
X85881176Y-63762409D01*
X85862801Y-63702137D01*
X85859907Y-63695958D01*
X85817048Y-63635351D01*
X85759021Y-63591224D01*
X85690409Y-63564493D01*
X85615799Y-63556073D01*
X85539774Y-63566880D01*
G36*
X85079102Y-63559457D02*
X85046904Y-63567279D01*
X84985175Y-63595921D01*
X84932390Y-63639667D01*
X84895859Y-63692117D01*
X84890840Y-63703893D01*
X84883955Y-63734740D01*
X84879136Y-63780371D01*
X84877495Y-63826492D01*
X84877495Y-63913693D01*
X85059822Y-63913693D01*
X85135021Y-63913978D01*
X85187997Y-63915704D01*
X85221675Y-63920181D01*
X85238980Y-63928720D01*
X85242837Y-63942630D01*
X85236171Y-63963222D01*
X85224230Y-63987315D01*
X85190920Y-64027525D01*
X85144632Y-64047558D01*
X85088056Y-64046905D01*
X85023969Y-64025101D01*
X84968583Y-63998193D01*
X84922625Y-64034532D01*
X84876667Y-64070872D01*
X84919904Y-64110819D01*
X84977626Y-64148563D01*
X85048614Y-64171320D01*
X85124971Y-64177688D01*
X85198801Y-64166268D01*
X85210713Y-64162393D01*
X85275601Y-64128506D01*
X85323870Y-64077986D01*
X85356535Y-64009325D01*
X85374615Y-63921014D01*
X85374825Y-63919121D01*
X85376444Y-63822878D01*
X85369900Y-63788542D01*
X85242148Y-63788542D01*
X85230416Y-63793822D01*
X85198562Y-63797867D01*
X85151603Y-63800176D01*
X85121846Y-63800525D01*
X85066352Y-63800306D01*
X85031654Y-63798916D01*
X85013399Y-63795251D01*
X85007234Y-63788210D01*
X85008805Y-63776690D01*
X85010122Y-63772233D01*
X85032618Y-63730355D01*
X85067997Y-63696604D01*
X85099220Y-63681773D01*
X85140699Y-63682668D01*
X85182731Y-63701164D01*
X85217988Y-63731786D01*
X85239146Y-63769062D01*
X85242148Y-63788542D01*
X85369900Y-63788542D01*
X85360310Y-63738229D01*
X85328302Y-63667191D01*
X85282299Y-63611779D01*
X85224179Y-63574009D01*
X85155820Y-63555896D01*
X85079102Y-63559457D01*
X85079102Y-63559457D01*
G37*
X85079102Y-63559457D02*
X85046904Y-63567279D01*
X84985175Y-63595921D01*
X84932390Y-63639667D01*
X84895859Y-63692117D01*
X84890840Y-63703893D01*
X84883955Y-63734740D01*
X84879136Y-63780371D01*
X84877495Y-63826492D01*
X84877495Y-63913693D01*
X85059822Y-63913693D01*
X85135021Y-63913978D01*
X85187997Y-63915704D01*
X85221675Y-63920181D01*
X85238980Y-63928720D01*
X85242837Y-63942630D01*
X85236171Y-63963222D01*
X85224230Y-63987315D01*
X85190920Y-64027525D01*
X85144632Y-64047558D01*
X85088056Y-64046905D01*
X85023969Y-64025101D01*
X84968583Y-63998193D01*
X84922625Y-64034532D01*
X84876667Y-64070872D01*
X84919904Y-64110819D01*
X84977626Y-64148563D01*
X85048614Y-64171320D01*
X85124971Y-64177688D01*
X85198801Y-64166268D01*
X85210713Y-64162393D01*
X85275601Y-64128506D01*
X85323870Y-64077986D01*
X85356535Y-64009325D01*
X85374615Y-63921014D01*
X85374825Y-63919121D01*
X85376444Y-63822878D01*
X85369900Y-63788542D01*
X85242148Y-63788542D01*
X85230416Y-63793822D01*
X85198562Y-63797867D01*
X85151603Y-63800176D01*
X85121846Y-63800525D01*
X85066352Y-63800306D01*
X85031654Y-63798916D01*
X85013399Y-63795251D01*
X85007234Y-63788210D01*
X85008805Y-63776690D01*
X85010122Y-63772233D01*
X85032618Y-63730355D01*
X85067997Y-63696604D01*
X85099220Y-63681773D01*
X85140699Y-63682668D01*
X85182731Y-63701164D01*
X85217988Y-63731786D01*
X85239146Y-63769062D01*
X85242148Y-63788542D01*
X85369900Y-63788542D01*
X85360310Y-63738229D01*
X85328302Y-63667191D01*
X85282299Y-63611779D01*
X85224179Y-63574009D01*
X85155820Y-63555896D01*
X85079102Y-63559457D01*
G36*
X88511012Y-63572002D02*
X88479717Y-63586950D01*
X88449409Y-63608541D01*
X88426318Y-63633391D01*
X88409500Y-63665087D01*
X88398006Y-63707214D01*
X88390891Y-63763358D01*
X88387207Y-63837106D01*
X88386008Y-63932044D01*
X88385989Y-63941985D01*
X88385713Y-64165179D01*
X88524030Y-64165179D01*
X88524030Y-63959418D01*
X88524128Y-63883189D01*
X88524809Y-63827939D01*
X88526651Y-63789501D01*
X88530233Y-63763706D01*
X88536132Y-63746384D01*
X88544927Y-63733368D01*
X88557180Y-63720507D01*
X88600047Y-63692873D01*
X88646843Y-63687745D01*
X88691424Y-63705217D01*
X88706928Y-63718221D01*
X88718310Y-63730447D01*
X88726481Y-63743540D01*
X88731974Y-63761615D01*
X88735320Y-63788787D01*
X88737051Y-63829170D01*
X88737697Y-63886879D01*
X88737792Y-63957132D01*
X88737792Y-64165179D01*
X88876109Y-64165179D01*
X88876109Y-63561614D01*
X88806950Y-63561614D01*
X88765428Y-63563256D01*
X88744006Y-63569087D01*
X88737795Y-63580461D01*
X88737792Y-63580798D01*
X88734910Y-63591938D01*
X88722199Y-63590674D01*
X88696926Y-63578434D01*
X88639605Y-63560424D01*
X88574037Y-63558421D01*
X88511012Y-63572002D01*
X88511012Y-63572002D01*
G37*
X88511012Y-63572002D02*
X88479717Y-63586950D01*
X88449409Y-63608541D01*
X88426318Y-63633391D01*
X88409500Y-63665087D01*
X88398006Y-63707214D01*
X88390891Y-63763358D01*
X88387207Y-63837106D01*
X88386008Y-63932044D01*
X88385989Y-63941985D01*
X88385713Y-64165179D01*
X88524030Y-64165179D01*
X88524030Y-63959418D01*
X88524128Y-63883189D01*
X88524809Y-63827939D01*
X88526651Y-63789501D01*
X88530233Y-63763706D01*
X88536132Y-63746384D01*
X88544927Y-63733368D01*
X88557180Y-63720507D01*
X88600047Y-63692873D01*
X88646843Y-63687745D01*
X88691424Y-63705217D01*
X88706928Y-63718221D01*
X88718310Y-63730447D01*
X88726481Y-63743540D01*
X88731974Y-63761615D01*
X88735320Y-63788787D01*
X88737051Y-63829170D01*
X88737697Y-63886879D01*
X88737792Y-63957132D01*
X88737792Y-64165179D01*
X88876109Y-64165179D01*
X88876109Y-63561614D01*
X88806950Y-63561614D01*
X88765428Y-63563256D01*
X88744006Y-63569087D01*
X88737795Y-63580461D01*
X88737792Y-63580798D01*
X88734910Y-63591938D01*
X88722199Y-63590674D01*
X88696926Y-63578434D01*
X88639605Y-63560424D01*
X88574037Y-63558421D01*
X88511012Y-63572002D01*
G36*
X85957540Y-63561030D02*
X85914289Y-63574245D01*
X85886442Y-63590941D01*
X85877371Y-63604145D01*
X85879868Y-63619797D01*
X85896069Y-63644385D01*
X85909768Y-63661800D01*
X85938008Y-63693283D01*
X85959225Y-63706529D01*
X85977312Y-63705664D01*
X86030965Y-63692010D01*
X86070370Y-63692630D01*
X86102368Y-63708104D01*
X86113110Y-63717161D01*
X86147495Y-63749027D01*
X86147495Y-64165179D01*
X86285812Y-64165179D01*
X86285812Y-63561614D01*
X86216653Y-63561614D01*
X86175131Y-63563256D01*
X86153709Y-63569087D01*
X86147498Y-63580461D01*
X86147495Y-63580798D01*
X86144561Y-63592713D01*
X86131296Y-63591159D01*
X86112916Y-63582563D01*
X86074954Y-63566568D01*
X86044128Y-63556945D01*
X86004464Y-63554478D01*
X85957540Y-63561030D01*
X85957540Y-63561030D01*
G37*
X85957540Y-63561030D02*
X85914289Y-63574245D01*
X85886442Y-63590941D01*
X85877371Y-63604145D01*
X85879868Y-63619797D01*
X85896069Y-63644385D01*
X85909768Y-63661800D01*
X85938008Y-63693283D01*
X85959225Y-63706529D01*
X85977312Y-63705664D01*
X86030965Y-63692010D01*
X86070370Y-63692630D01*
X86102368Y-63708104D01*
X86113110Y-63717161D01*
X86147495Y-63749027D01*
X86147495Y-64165179D01*
X86285812Y-64165179D01*
X86285812Y-63561614D01*
X86216653Y-63561614D01*
X86175131Y-63563256D01*
X86153709Y-63569087D01*
X86147498Y-63580461D01*
X86147495Y-63580798D01*
X86144561Y-63592713D01*
X86131296Y-63591159D01*
X86112916Y-63582563D01*
X86074954Y-63566568D01*
X86044128Y-63556945D01*
X86004464Y-63554478D01*
X85957540Y-63561030D01*
G36*
X87380036Y-59393018D02*
X87323188Y-59694570D01*
X86903662Y-59867512D01*
X86652016Y-59696395D01*
X86581542Y-59648750D01*
X86517837Y-59606210D01*
X86463874Y-59570715D01*
X86422627Y-59544210D01*
X86397066Y-59528636D01*
X86390105Y-59525278D01*
X86377565Y-59533914D01*
X86350769Y-59557792D01*
X86312720Y-59593859D01*
X86266421Y-59639067D01*
X86214877Y-59690364D01*
X86161091Y-59744701D01*
X86108065Y-59799028D01*
X86058805Y-59850295D01*
X86016313Y-59895451D01*
X85983593Y-59931446D01*
X85963649Y-59955230D01*
X85958881Y-59963190D01*
X85965743Y-59977865D01*
X85984980Y-60010014D01*
X86014570Y-60056492D01*
X86052490Y-60114156D01*
X86096718Y-60179860D01*
X86122346Y-60217336D01*
X86169059Y-60285768D01*
X86210568Y-60347520D01*
X86244860Y-60399519D01*
X86269920Y-60438692D01*
X86283736Y-60461965D01*
X86285812Y-60466855D01*
X86281105Y-60480755D01*
X86268277Y-60513150D01*
X86249262Y-60559485D01*
X86225997Y-60615206D01*
X86200416Y-60675758D01*
X86174455Y-60736586D01*
X86150050Y-60793136D01*
X86129137Y-60840852D01*
X86113651Y-60875181D01*
X86105528Y-60891568D01*
X86105048Y-60892212D01*
X86092293Y-60895341D01*
X86058323Y-60902321D01*
X86006660Y-60912467D01*
X85940824Y-60925092D01*
X85864336Y-60939509D01*
X85819710Y-60947823D01*
X85737979Y-60963384D01*
X85664157Y-60978192D01*
X85601979Y-60991436D01*
X85555178Y-61002305D01*
X85527491Y-61009989D01*
X85521926Y-61012427D01*
X85516474Y-61028930D01*
X85512076Y-61066200D01*
X85508728Y-61119880D01*
X85506426Y-61185612D01*
X85505168Y-61259037D01*
X85504952Y-61335796D01*
X85505773Y-61411532D01*
X85507629Y-61481886D01*
X85510518Y-61542500D01*
X85514435Y-61589016D01*
X85519378Y-61617075D01*
X85522343Y-61622916D01*
X85540066Y-61629917D01*
X85577619Y-61639927D01*
X85630036Y-61651769D01*
X85692348Y-61664267D01*
X85714100Y-61668310D01*
X85818976Y-61687520D01*
X85901820Y-61702991D01*
X85965370Y-61715337D01*
X86012363Y-61725173D01*
X86045537Y-61733114D01*
X86067629Y-61739776D01*
X86081376Y-61745773D01*
X86089516Y-61751719D01*
X86090655Y-61752894D01*
X86102023Y-61771826D01*
X86119365Y-61808669D01*
X86140950Y-61858913D01*
X86165046Y-61918046D01*
X86189921Y-61981556D01*
X86213843Y-62044932D01*
X86235081Y-62103662D01*
X86251903Y-62153235D01*
X86262578Y-62189139D01*
X86265373Y-62206862D01*
X86265140Y-62207483D01*
X86255669Y-62221970D01*
X86234182Y-62253844D01*
X86202937Y-62299789D01*
X86164193Y-62356485D01*
X86120207Y-62420617D01*
X86107681Y-62438842D01*
X86063016Y-62504914D01*
X86023712Y-62565200D01*
X85991912Y-62616235D01*
X85969755Y-62654560D01*
X85959383Y-62676711D01*
X85958881Y-62679432D01*
X85967595Y-62693736D01*
X85991675Y-62722072D01*
X86028024Y-62761396D01*
X86073547Y-62808661D01*
X86125148Y-62860823D01*
X86179733Y-62914835D01*
X86234206Y-62967653D01*
X86285471Y-63016231D01*
X86330433Y-63057523D01*
X86365996Y-63088485D01*
X86389065Y-63106070D01*
X86395446Y-63108941D01*
X86410301Y-63102178D01*
X86440714Y-63083939D01*
X86481732Y-63057297D01*
X86513291Y-63035852D01*
X86570475Y-62996503D01*
X86638194Y-62950171D01*
X86706120Y-62903913D01*
X86742639Y-62879155D01*
X86866248Y-62795547D01*
X86970009Y-62851650D01*
X87017280Y-62876228D01*
X87057477Y-62895331D01*
X87084674Y-62906227D01*
X87091598Y-62907743D01*
X87099923Y-62896549D01*
X87116346Y-62864917D01*
X87139643Y-62815765D01*
X87168586Y-62752010D01*
X87201950Y-62676571D01*
X87238509Y-62592364D01*
X87277036Y-62502308D01*
X87316306Y-62409321D01*
X87355092Y-62316320D01*
X87392170Y-62226223D01*
X87426311Y-62141948D01*
X87456292Y-62066413D01*
X87480884Y-62002534D01*
X87498864Y-61953231D01*
X87509003Y-61921421D01*
X87510634Y-61910496D01*
X87497709Y-61896561D01*
X87469411Y-61873940D01*
X87431654Y-61847333D01*
X87428485Y-61845228D01*
X87330900Y-61767114D01*
X87252214Y-61675982D01*
X87193109Y-61574745D01*
X87154268Y-61466318D01*
X87136372Y-61353614D01*
X87140103Y-61239548D01*
X87166143Y-61127034D01*
X87215175Y-61018985D01*
X87229600Y-60995345D01*
X87304631Y-60899887D01*
X87393270Y-60823232D01*
X87492451Y-60765780D01*
X87599105Y-60727929D01*
X87710164Y-60710078D01*
X87822561Y-60712625D01*
X87933227Y-60735970D01*
X88039094Y-60780510D01*
X88137095Y-60846645D01*
X88167410Y-60873487D01*
X88244562Y-60957512D01*
X88300782Y-61045966D01*
X88339347Y-61145115D01*
X88360826Y-61243303D01*
X88366128Y-61353697D01*
X88348448Y-61464640D01*
X88309581Y-61572381D01*
X88251323Y-61673169D01*
X88175469Y-61763256D01*
X88083817Y-61838892D01*
X88071772Y-61846864D01*
X88033611Y-61872974D01*
X88004601Y-61895595D01*
X87990732Y-61910039D01*
X87990531Y-61910496D01*
X87993508Y-61926121D01*
X88005311Y-61961582D01*
X88024714Y-62013962D01*
X88050488Y-62080345D01*
X88081409Y-62157814D01*
X88116249Y-62243450D01*
X88153783Y-62334337D01*
X88192783Y-62427559D01*
X88232023Y-62520197D01*
X88270276Y-62609335D01*
X88306317Y-62692055D01*
X88338917Y-62765441D01*
X88366852Y-62826575D01*
X88388895Y-62872541D01*
X88403818Y-62900421D01*
X88409828Y-62907743D01*
X88428191Y-62902041D01*
X88462552Y-62886749D01*
X88506984Y-62864599D01*
X88531417Y-62851650D01*
X88635178Y-62795547D01*
X88758787Y-62879155D01*
X88821886Y-62921987D01*
X88890970Y-62969122D01*
X88955707Y-63013503D01*
X88988134Y-63035852D01*
X89033741Y-63066477D01*
X89072360Y-63090747D01*
X89098952Y-63105587D01*
X89107590Y-63108724D01*
X89120161Y-63100261D01*
X89147984Y-63076636D01*
X89188361Y-63040302D01*
X89238595Y-62993711D01*
X89295988Y-62939317D01*
X89332286Y-62904392D01*
X89395790Y-62841996D01*
X89450673Y-62786188D01*
X89494714Y-62739354D01*
X89525695Y-62703882D01*
X89541398Y-62682161D01*
X89542905Y-62677752D01*
X89535914Y-62660985D01*
X89516594Y-62627082D01*
X89487091Y-62579476D01*
X89449545Y-62521599D01*
X89406100Y-62456884D01*
X89393745Y-62438842D01*
X89348727Y-62373267D01*
X89308340Y-62314228D01*
X89274840Y-62265042D01*
X89250486Y-62229028D01*
X89237536Y-62209502D01*
X89236285Y-62207483D01*
X89238156Y-62191922D01*
X89248087Y-62157709D01*
X89264347Y-62109355D01*
X89285205Y-62051371D01*
X89308927Y-61988270D01*
X89333784Y-61924563D01*
X89358042Y-61864761D01*
X89379971Y-61813376D01*
X89397838Y-61774919D01*
X89409913Y-61753902D01*
X89410771Y-61752894D01*
X89418154Y-61746888D01*
X89430625Y-61740948D01*
X89450920Y-61734460D01*
X89481778Y-61726809D01*
X89525934Y-61717380D01*
X89586126Y-61705559D01*
X89665093Y-61690729D01*
X89765570Y-61672277D01*
X89787325Y-61668310D01*
X89851802Y-61655853D01*
X89908011Y-61643666D01*
X89950987Y-61632926D01*
X89975760Y-61624809D01*
X89979082Y-61622916D01*
X89984556Y-61606138D01*
X89989006Y-61568645D01*
X89992428Y-61514794D01*
X89994819Y-61448944D01*
X89996177Y-61375453D01*
X89996499Y-61298680D01*
X89995781Y-61222983D01*
X89994021Y-61152720D01*
X89991216Y-61092250D01*
X89987362Y-61045930D01*
X89982457Y-61018119D01*
X89979500Y-61012427D01*
X89963037Y-61006686D01*
X89925551Y-60997345D01*
X89870775Y-60985215D01*
X89802445Y-60971107D01*
X89724294Y-60955830D01*
X89681716Y-60947823D01*
X89600929Y-60932721D01*
X89528887Y-60919040D01*
X89469111Y-60907467D01*
X89425121Y-60898687D01*
X89400439Y-60893387D01*
X89396377Y-60892212D01*
X89389511Y-60878965D01*
X89374998Y-60847057D01*
X89354771Y-60801047D01*
X89330766Y-60745492D01*
X89304918Y-60684953D01*
X89279160Y-60623986D01*
X89255427Y-60567151D01*
X89235654Y-60519006D01*
X89221776Y-60484110D01*
X89215726Y-60467021D01*
X89215614Y-60466274D01*
X89222472Y-60452793D01*
X89241698Y-60421770D01*
X89271272Y-60376289D01*
X89309173Y-60319432D01*
X89353380Y-60254283D01*
X89379079Y-60216862D01*
X89425907Y-60148247D01*
X89467499Y-60085952D01*
X89501825Y-60033129D01*
X89526857Y-59992927D01*
X89540565Y-59968500D01*
X89542544Y-59963024D01*
X89534034Y-59950278D01*
X89510507Y-59923063D01*
X89474968Y-59884428D01*
X89430423Y-59837423D01*
X89379877Y-59785095D01*
X89326336Y-59730495D01*
X89272805Y-59676670D01*
X89222289Y-59626670D01*
X89177794Y-59583543D01*
X89142325Y-59550339D01*
X89118887Y-59530106D01*
X89111046Y-59525278D01*
X89098280Y-59532067D01*
X89067744Y-59551142D01*
X89022410Y-59580561D01*
X88965244Y-59618381D01*
X88899216Y-59662661D01*
X88849410Y-59696395D01*
X88597764Y-59867512D01*
X88388001Y-59781041D01*
X88178237Y-59694570D01*
X88121389Y-59393018D01*
X88064540Y-59091466D01*
X87436885Y-59091466D01*
X87380036Y-59393018D01*
X87380036Y-59393018D01*
G37*
X87380036Y-59393018D02*
X87323188Y-59694570D01*
X86903662Y-59867512D01*
X86652016Y-59696395D01*
X86581542Y-59648750D01*
X86517837Y-59606210D01*
X86463874Y-59570715D01*
X86422627Y-59544210D01*
X86397066Y-59528636D01*
X86390105Y-59525278D01*
X86377565Y-59533914D01*
X86350769Y-59557792D01*
X86312720Y-59593859D01*
X86266421Y-59639067D01*
X86214877Y-59690364D01*
X86161091Y-59744701D01*
X86108065Y-59799028D01*
X86058805Y-59850295D01*
X86016313Y-59895451D01*
X85983593Y-59931446D01*
X85963649Y-59955230D01*
X85958881Y-59963190D01*
X85965743Y-59977865D01*
X85984980Y-60010014D01*
X86014570Y-60056492D01*
X86052490Y-60114156D01*
X86096718Y-60179860D01*
X86122346Y-60217336D01*
X86169059Y-60285768D01*
X86210568Y-60347520D01*
X86244860Y-60399519D01*
X86269920Y-60438692D01*
X86283736Y-60461965D01*
X86285812Y-60466855D01*
X86281105Y-60480755D01*
X86268277Y-60513150D01*
X86249262Y-60559485D01*
X86225997Y-60615206D01*
X86200416Y-60675758D01*
X86174455Y-60736586D01*
X86150050Y-60793136D01*
X86129137Y-60840852D01*
X86113651Y-60875181D01*
X86105528Y-60891568D01*
X86105048Y-60892212D01*
X86092293Y-60895341D01*
X86058323Y-60902321D01*
X86006660Y-60912467D01*
X85940824Y-60925092D01*
X85864336Y-60939509D01*
X85819710Y-60947823D01*
X85737979Y-60963384D01*
X85664157Y-60978192D01*
X85601979Y-60991436D01*
X85555178Y-61002305D01*
X85527491Y-61009989D01*
X85521926Y-61012427D01*
X85516474Y-61028930D01*
X85512076Y-61066200D01*
X85508728Y-61119880D01*
X85506426Y-61185612D01*
X85505168Y-61259037D01*
X85504952Y-61335796D01*
X85505773Y-61411532D01*
X85507629Y-61481886D01*
X85510518Y-61542500D01*
X85514435Y-61589016D01*
X85519378Y-61617075D01*
X85522343Y-61622916D01*
X85540066Y-61629917D01*
X85577619Y-61639927D01*
X85630036Y-61651769D01*
X85692348Y-61664267D01*
X85714100Y-61668310D01*
X85818976Y-61687520D01*
X85901820Y-61702991D01*
X85965370Y-61715337D01*
X86012363Y-61725173D01*
X86045537Y-61733114D01*
X86067629Y-61739776D01*
X86081376Y-61745773D01*
X86089516Y-61751719D01*
X86090655Y-61752894D01*
X86102023Y-61771826D01*
X86119365Y-61808669D01*
X86140950Y-61858913D01*
X86165046Y-61918046D01*
X86189921Y-61981556D01*
X86213843Y-62044932D01*
X86235081Y-62103662D01*
X86251903Y-62153235D01*
X86262578Y-62189139D01*
X86265373Y-62206862D01*
X86265140Y-62207483D01*
X86255669Y-62221970D01*
X86234182Y-62253844D01*
X86202937Y-62299789D01*
X86164193Y-62356485D01*
X86120207Y-62420617D01*
X86107681Y-62438842D01*
X86063016Y-62504914D01*
X86023712Y-62565200D01*
X85991912Y-62616235D01*
X85969755Y-62654560D01*
X85959383Y-62676711D01*
X85958881Y-62679432D01*
X85967595Y-62693736D01*
X85991675Y-62722072D01*
X86028024Y-62761396D01*
X86073547Y-62808661D01*
X86125148Y-62860823D01*
X86179733Y-62914835D01*
X86234206Y-62967653D01*
X86285471Y-63016231D01*
X86330433Y-63057523D01*
X86365996Y-63088485D01*
X86389065Y-63106070D01*
X86395446Y-63108941D01*
X86410301Y-63102178D01*
X86440714Y-63083939D01*
X86481732Y-63057297D01*
X86513291Y-63035852D01*
X86570475Y-62996503D01*
X86638194Y-62950171D01*
X86706120Y-62903913D01*
X86742639Y-62879155D01*
X86866248Y-62795547D01*
X86970009Y-62851650D01*
X87017280Y-62876228D01*
X87057477Y-62895331D01*
X87084674Y-62906227D01*
X87091598Y-62907743D01*
X87099923Y-62896549D01*
X87116346Y-62864917D01*
X87139643Y-62815765D01*
X87168586Y-62752010D01*
X87201950Y-62676571D01*
X87238509Y-62592364D01*
X87277036Y-62502308D01*
X87316306Y-62409321D01*
X87355092Y-62316320D01*
X87392170Y-62226223D01*
X87426311Y-62141948D01*
X87456292Y-62066413D01*
X87480884Y-62002534D01*
X87498864Y-61953231D01*
X87509003Y-61921421D01*
X87510634Y-61910496D01*
X87497709Y-61896561D01*
X87469411Y-61873940D01*
X87431654Y-61847333D01*
X87428485Y-61845228D01*
X87330900Y-61767114D01*
X87252214Y-61675982D01*
X87193109Y-61574745D01*
X87154268Y-61466318D01*
X87136372Y-61353614D01*
X87140103Y-61239548D01*
X87166143Y-61127034D01*
X87215175Y-61018985D01*
X87229600Y-60995345D01*
X87304631Y-60899887D01*
X87393270Y-60823232D01*
X87492451Y-60765780D01*
X87599105Y-60727929D01*
X87710164Y-60710078D01*
X87822561Y-60712625D01*
X87933227Y-60735970D01*
X88039094Y-60780510D01*
X88137095Y-60846645D01*
X88167410Y-60873487D01*
X88244562Y-60957512D01*
X88300782Y-61045966D01*
X88339347Y-61145115D01*
X88360826Y-61243303D01*
X88366128Y-61353697D01*
X88348448Y-61464640D01*
X88309581Y-61572381D01*
X88251323Y-61673169D01*
X88175469Y-61763256D01*
X88083817Y-61838892D01*
X88071772Y-61846864D01*
X88033611Y-61872974D01*
X88004601Y-61895595D01*
X87990732Y-61910039D01*
X87990531Y-61910496D01*
X87993508Y-61926121D01*
X88005311Y-61961582D01*
X88024714Y-62013962D01*
X88050488Y-62080345D01*
X88081409Y-62157814D01*
X88116249Y-62243450D01*
X88153783Y-62334337D01*
X88192783Y-62427559D01*
X88232023Y-62520197D01*
X88270276Y-62609335D01*
X88306317Y-62692055D01*
X88338917Y-62765441D01*
X88366852Y-62826575D01*
X88388895Y-62872541D01*
X88403818Y-62900421D01*
X88409828Y-62907743D01*
X88428191Y-62902041D01*
X88462552Y-62886749D01*
X88506984Y-62864599D01*
X88531417Y-62851650D01*
X88635178Y-62795547D01*
X88758787Y-62879155D01*
X88821886Y-62921987D01*
X88890970Y-62969122D01*
X88955707Y-63013503D01*
X88988134Y-63035852D01*
X89033741Y-63066477D01*
X89072360Y-63090747D01*
X89098952Y-63105587D01*
X89107590Y-63108724D01*
X89120161Y-63100261D01*
X89147984Y-63076636D01*
X89188361Y-63040302D01*
X89238595Y-62993711D01*
X89295988Y-62939317D01*
X89332286Y-62904392D01*
X89395790Y-62841996D01*
X89450673Y-62786188D01*
X89494714Y-62739354D01*
X89525695Y-62703882D01*
X89541398Y-62682161D01*
X89542905Y-62677752D01*
X89535914Y-62660985D01*
X89516594Y-62627082D01*
X89487091Y-62579476D01*
X89449545Y-62521599D01*
X89406100Y-62456884D01*
X89393745Y-62438842D01*
X89348727Y-62373267D01*
X89308340Y-62314228D01*
X89274840Y-62265042D01*
X89250486Y-62229028D01*
X89237536Y-62209502D01*
X89236285Y-62207483D01*
X89238156Y-62191922D01*
X89248087Y-62157709D01*
X89264347Y-62109355D01*
X89285205Y-62051371D01*
X89308927Y-61988270D01*
X89333784Y-61924563D01*
X89358042Y-61864761D01*
X89379971Y-61813376D01*
X89397838Y-61774919D01*
X89409913Y-61753902D01*
X89410771Y-61752894D01*
X89418154Y-61746888D01*
X89430625Y-61740948D01*
X89450920Y-61734460D01*
X89481778Y-61726809D01*
X89525934Y-61717380D01*
X89586126Y-61705559D01*
X89665093Y-61690729D01*
X89765570Y-61672277D01*
X89787325Y-61668310D01*
X89851802Y-61655853D01*
X89908011Y-61643666D01*
X89950987Y-61632926D01*
X89975760Y-61624809D01*
X89979082Y-61622916D01*
X89984556Y-61606138D01*
X89989006Y-61568645D01*
X89992428Y-61514794D01*
X89994819Y-61448944D01*
X89996177Y-61375453D01*
X89996499Y-61298680D01*
X89995781Y-61222983D01*
X89994021Y-61152720D01*
X89991216Y-61092250D01*
X89987362Y-61045930D01*
X89982457Y-61018119D01*
X89979500Y-61012427D01*
X89963037Y-61006686D01*
X89925551Y-60997345D01*
X89870775Y-60985215D01*
X89802445Y-60971107D01*
X89724294Y-60955830D01*
X89681716Y-60947823D01*
X89600929Y-60932721D01*
X89528887Y-60919040D01*
X89469111Y-60907467D01*
X89425121Y-60898687D01*
X89400439Y-60893387D01*
X89396377Y-60892212D01*
X89389511Y-60878965D01*
X89374998Y-60847057D01*
X89354771Y-60801047D01*
X89330766Y-60745492D01*
X89304918Y-60684953D01*
X89279160Y-60623986D01*
X89255427Y-60567151D01*
X89235654Y-60519006D01*
X89221776Y-60484110D01*
X89215726Y-60467021D01*
X89215614Y-60466274D01*
X89222472Y-60452793D01*
X89241698Y-60421770D01*
X89271272Y-60376289D01*
X89309173Y-60319432D01*
X89353380Y-60254283D01*
X89379079Y-60216862D01*
X89425907Y-60148247D01*
X89467499Y-60085952D01*
X89501825Y-60033129D01*
X89526857Y-59992927D01*
X89540565Y-59968500D01*
X89542544Y-59963024D01*
X89534034Y-59950278D01*
X89510507Y-59923063D01*
X89474968Y-59884428D01*
X89430423Y-59837423D01*
X89379877Y-59785095D01*
X89326336Y-59730495D01*
X89272805Y-59676670D01*
X89222289Y-59626670D01*
X89177794Y-59583543D01*
X89142325Y-59550339D01*
X89118887Y-59530106D01*
X89111046Y-59525278D01*
X89098280Y-59532067D01*
X89067744Y-59551142D01*
X89022410Y-59580561D01*
X88965244Y-59618381D01*
X88899216Y-59662661D01*
X88849410Y-59696395D01*
X88597764Y-59867512D01*
X88388001Y-59781041D01*
X88178237Y-59694570D01*
X88121389Y-59393018D01*
X88064540Y-59091466D01*
X87436885Y-59091466D01*
X87380036Y-59393018D01*
G36*
X110477043Y-59129571D02*
X110380768Y-59153809D01*
X110294184Y-59196641D01*
X110219373Y-59256419D01*
X110158418Y-59331494D01*
X110113399Y-59420220D01*
X110087136Y-59516530D01*
X110081286Y-59613795D01*
X110096140Y-59707654D01*
X110129840Y-59795511D01*
X110180528Y-59874770D01*
X110246345Y-59942836D01*
X110325434Y-59997112D01*
X110415934Y-60035002D01*
X110467200Y-60047426D01*
X110511698Y-60054947D01*
X110545999Y-60057919D01*
X110578960Y-60056094D01*
X110619434Y-60049225D01*
X110652531Y-60042250D01*
X110745947Y-60010741D01*
X110829619Y-59959617D01*
X110901665Y-59890429D01*
X110960200Y-59804728D01*
X110974148Y-59777489D01*
X110990586Y-59741122D01*
X111000894Y-59710582D01*
X111006460Y-59678450D01*
X111008669Y-59637307D01*
X111008948Y-59591222D01*
X111004861Y-59506865D01*
X110991446Y-59437586D01*
X110966256Y-59376961D01*
X110926846Y-59318567D01*
X110888298Y-59274302D01*
X110816406Y-59208484D01*
X110741313Y-59163053D01*
X110658562Y-59135850D01*
X110580928Y-59125576D01*
X110477043Y-59129571D01*
X110477043Y-59129571D01*
G37*
X110477043Y-59129571D02*
X110380768Y-59153809D01*
X110294184Y-59196641D01*
X110219373Y-59256419D01*
X110158418Y-59331494D01*
X110113399Y-59420220D01*
X110087136Y-59516530D01*
X110081286Y-59613795D01*
X110096140Y-59707654D01*
X110129840Y-59795511D01*
X110180528Y-59874770D01*
X110246345Y-59942836D01*
X110325434Y-59997112D01*
X110415934Y-60035002D01*
X110467200Y-60047426D01*
X110511698Y-60054947D01*
X110545999Y-60057919D01*
X110578960Y-60056094D01*
X110619434Y-60049225D01*
X110652531Y-60042250D01*
X110745947Y-60010741D01*
X110829619Y-59959617D01*
X110901665Y-59890429D01*
X110960200Y-59804728D01*
X110974148Y-59777489D01*
X110990586Y-59741122D01*
X111000894Y-59710582D01*
X111006460Y-59678450D01*
X111008669Y-59637307D01*
X111008948Y-59591222D01*
X111004861Y-59506865D01*
X110991446Y-59437586D01*
X110966256Y-59376961D01*
X110926846Y-59318567D01*
X110888298Y-59274302D01*
X110816406Y-59208484D01*
X110741313Y-59163053D01*
X110658562Y-59135850D01*
X110580928Y-59125576D01*
X110477043Y-59129571D01*
G36*
X102017493Y-61575245D02*
X102017474Y-61809662D01*
X102017448Y-62022603D01*
X102017375Y-62215168D01*
X102017218Y-62388459D01*
X102016936Y-62543576D01*
X102016491Y-62681620D01*
X102015844Y-62803692D01*
X102014955Y-62910894D01*
X102013787Y-63004326D01*
X102012299Y-63085090D01*
X102010454Y-63154286D01*
X102008211Y-63213015D01*
X102005531Y-63262379D01*
X102002377Y-63303478D01*
X101998708Y-63337413D01*
X101994487Y-63365286D01*
X101989673Y-63388198D01*
X101984227Y-63407249D01*
X101978112Y-63423540D01*
X101971288Y-63438173D01*
X101963715Y-63452249D01*
X101955355Y-63466868D01*
X101950161Y-63475974D01*
X101915896Y-63536689D01*
X102774045Y-63536689D01*
X102774045Y-63440733D01*
X102774776Y-63397370D01*
X102776728Y-63364205D01*
X102779537Y-63346424D01*
X102780779Y-63344778D01*
X102792201Y-63351662D01*
X102814916Y-63369505D01*
X102837615Y-63388879D01*
X102892200Y-63429614D01*
X102961679Y-63470617D01*
X103038730Y-63508123D01*
X103116035Y-63538364D01*
X103146887Y-63548012D01*
X103215384Y-63562578D01*
X103298236Y-63572539D01*
X103387629Y-63577583D01*
X103475752Y-63577396D01*
X103554793Y-63571666D01*
X103592489Y-63565858D01*
X103730586Y-63527797D01*
X103857887Y-63470073D01*
X103973708Y-63393211D01*
X104077363Y-63297739D01*
X104168167Y-63184179D01*
X104234969Y-63073381D01*
X104289836Y-62956625D01*
X104331837Y-62837276D01*
X104361833Y-62711283D01*
X104380689Y-62574594D01*
X104389268Y-62423158D01*
X104389994Y-62345711D01*
X104387900Y-62288934D01*
X103558783Y-62288934D01*
X103558576Y-62382002D01*
X103555663Y-62469692D01*
X103550000Y-62546772D01*
X103541545Y-62608009D01*
X103538962Y-62620350D01*
X103507160Y-62727633D01*
X103465502Y-62814658D01*
X103413637Y-62881642D01*
X103351219Y-62928805D01*
X103277900Y-62956365D01*
X103193331Y-62964541D01*
X103097165Y-62953551D01*
X103033689Y-62937829D01*
X102984546Y-62919639D01*
X102930417Y-62893791D01*
X102889756Y-62870089D01*
X102819200Y-62823721D01*
X102819200Y-61673530D01*
X102886608Y-61629962D01*
X102965133Y-61589040D01*
X103049319Y-61562389D01*
X103134443Y-61550465D01*
X103215784Y-61553722D01*
X103288620Y-61572615D01*
X103320574Y-61588184D01*
X103378499Y-61631181D01*
X103427456Y-61687953D01*
X103468610Y-61760575D01*
X103503126Y-61851121D01*
X103532167Y-61961666D01*
X103533448Y-61967533D01*
X103543619Y-62029788D01*
X103551261Y-62107594D01*
X103556330Y-62195720D01*
X103558783Y-62288934D01*
X104387900Y-62288934D01*
X104382143Y-62132895D01*
X104360198Y-61937059D01*
X104324214Y-61758332D01*
X104274241Y-61596845D01*
X104210332Y-61452726D01*
X104132538Y-61326106D01*
X104040911Y-61217115D01*
X103935503Y-61125883D01*
X103890338Y-61094932D01*
X103789389Y-61038785D01*
X103686099Y-60999174D01*
X103576011Y-60975014D01*
X103454670Y-60965219D01*
X103362164Y-60966265D01*
X103232510Y-60977231D01*
X103119916Y-60999046D01*
X103021125Y-61032714D01*
X102932879Y-61079236D01*
X102884014Y-61113448D01*
X102854647Y-61135362D01*
X102832957Y-61150333D01*
X102824747Y-61154733D01*
X102823132Y-61143904D01*
X102821841Y-61113251D01*
X102820862Y-61065526D01*
X102820183Y-61003479D01*
X102819790Y-60929862D01*
X102819670Y-60847427D01*
X102819812Y-60758925D01*
X102820203Y-60667107D01*
X102820829Y-60574724D01*
X102821680Y-60484528D01*
X102822740Y-60399271D01*
X102823999Y-60321703D01*
X102825444Y-60254576D01*
X102827062Y-60200641D01*
X102828839Y-60162650D01*
X102829331Y-60155667D01*
X102836908Y-60085251D01*
X102848469Y-60030102D01*
X102866208Y-59982981D01*
X102892318Y-59936647D01*
X102898585Y-59927067D01*
X102923017Y-59890378D01*
X102017689Y-59890378D01*
X102017493Y-61575245D01*
X102017493Y-61575245D01*
G37*
X102017493Y-61575245D02*
X102017474Y-61809662D01*
X102017448Y-62022603D01*
X102017375Y-62215168D01*
X102017218Y-62388459D01*
X102016936Y-62543576D01*
X102016491Y-62681620D01*
X102015844Y-62803692D01*
X102014955Y-62910894D01*
X102013787Y-63004326D01*
X102012299Y-63085090D01*
X102010454Y-63154286D01*
X102008211Y-63213015D01*
X102005531Y-63262379D01*
X102002377Y-63303478D01*
X101998708Y-63337413D01*
X101994487Y-63365286D01*
X101989673Y-63388198D01*
X101984227Y-63407249D01*
X101978112Y-63423540D01*
X101971288Y-63438173D01*
X101963715Y-63452249D01*
X101955355Y-63466868D01*
X101950161Y-63475974D01*
X101915896Y-63536689D01*
X102774045Y-63536689D01*
X102774045Y-63440733D01*
X102774776Y-63397370D01*
X102776728Y-63364205D01*
X102779537Y-63346424D01*
X102780779Y-63344778D01*
X102792201Y-63351662D01*
X102814916Y-63369505D01*
X102837615Y-63388879D01*
X102892200Y-63429614D01*
X102961679Y-63470617D01*
X103038730Y-63508123D01*
X103116035Y-63538364D01*
X103146887Y-63548012D01*
X103215384Y-63562578D01*
X103298236Y-63572539D01*
X103387629Y-63577583D01*
X103475752Y-63577396D01*
X103554793Y-63571666D01*
X103592489Y-63565858D01*
X103730586Y-63527797D01*
X103857887Y-63470073D01*
X103973708Y-63393211D01*
X104077363Y-63297739D01*
X104168167Y-63184179D01*
X104234969Y-63073381D01*
X104289836Y-62956625D01*
X104331837Y-62837276D01*
X104361833Y-62711283D01*
X104380689Y-62574594D01*
X104389268Y-62423158D01*
X104389994Y-62345711D01*
X104387900Y-62288934D01*
X103558783Y-62288934D01*
X103558576Y-62382002D01*
X103555663Y-62469692D01*
X103550000Y-62546772D01*
X103541545Y-62608009D01*
X103538962Y-62620350D01*
X103507160Y-62727633D01*
X103465502Y-62814658D01*
X103413637Y-62881642D01*
X103351219Y-62928805D01*
X103277900Y-62956365D01*
X103193331Y-62964541D01*
X103097165Y-62953551D01*
X103033689Y-62937829D01*
X102984546Y-62919639D01*
X102930417Y-62893791D01*
X102889756Y-62870089D01*
X102819200Y-62823721D01*
X102819200Y-61673530D01*
X102886608Y-61629962D01*
X102965133Y-61589040D01*
X103049319Y-61562389D01*
X103134443Y-61550465D01*
X103215784Y-61553722D01*
X103288620Y-61572615D01*
X103320574Y-61588184D01*
X103378499Y-61631181D01*
X103427456Y-61687953D01*
X103468610Y-61760575D01*
X103503126Y-61851121D01*
X103532167Y-61961666D01*
X103533448Y-61967533D01*
X103543619Y-62029788D01*
X103551261Y-62107594D01*
X103556330Y-62195720D01*
X103558783Y-62288934D01*
X104387900Y-62288934D01*
X104382143Y-62132895D01*
X104360198Y-61937059D01*
X104324214Y-61758332D01*
X104274241Y-61596845D01*
X104210332Y-61452726D01*
X104132538Y-61326106D01*
X104040911Y-61217115D01*
X103935503Y-61125883D01*
X103890338Y-61094932D01*
X103789389Y-61038785D01*
X103686099Y-60999174D01*
X103576011Y-60975014D01*
X103454670Y-60965219D01*
X103362164Y-60966265D01*
X103232510Y-60977231D01*
X103119916Y-60999046D01*
X103021125Y-61032714D01*
X102932879Y-61079236D01*
X102884014Y-61113448D01*
X102854647Y-61135362D01*
X102832957Y-61150333D01*
X102824747Y-61154733D01*
X102823132Y-61143904D01*
X102821841Y-61113251D01*
X102820862Y-61065526D01*
X102820183Y-61003479D01*
X102819790Y-60929862D01*
X102819670Y-60847427D01*
X102819812Y-60758925D01*
X102820203Y-60667107D01*
X102820829Y-60574724D01*
X102821680Y-60484528D01*
X102822740Y-60399271D01*
X102823999Y-60321703D01*
X102825444Y-60254576D01*
X102827062Y-60200641D01*
X102828839Y-60162650D01*
X102829331Y-60155667D01*
X102836908Y-60085251D01*
X102848469Y-60030102D01*
X102866208Y-59982981D01*
X102892318Y-59936647D01*
X102898585Y-59927067D01*
X102923017Y-59890378D01*
X102017689Y-59890378D01*
X102017493Y-61575245D01*
G36*
X105530426Y-60969552D02*
X105378508Y-60989567D01*
X105243244Y-61023202D01*
X105123761Y-61070725D01*
X105019185Y-61132405D01*
X104941576Y-61195965D01*
X104872735Y-61270099D01*
X104818994Y-61349871D01*
X104776090Y-61442091D01*
X104760616Y-61485161D01*
X104747756Y-61524142D01*
X104736554Y-61560289D01*
X104726880Y-61595434D01*
X104718604Y-61631410D01*
X104711597Y-61670050D01*
X104705728Y-61713185D01*
X104700869Y-61762649D01*
X104696890Y-61820273D01*
X104693660Y-61887891D01*
X104691051Y-61967334D01*
X104688933Y-62060436D01*
X104687176Y-62169027D01*
X104685651Y-62294942D01*
X104684228Y-62440012D01*
X104682975Y-62582778D01*
X104681649Y-62738968D01*
X104680444Y-62874239D01*
X104679234Y-62990246D01*
X104677894Y-63088645D01*
X104676300Y-63171093D01*
X104674325Y-63239246D01*
X104671844Y-63294760D01*
X104668731Y-63339292D01*
X104664862Y-63374498D01*
X104660111Y-63402034D01*
X104654352Y-63423556D01*
X104647461Y-63440722D01*
X104639311Y-63455186D01*
X104629777Y-63468606D01*
X104618734Y-63482638D01*
X104614434Y-63488071D01*
X104598614Y-63510910D01*
X104591578Y-63526463D01*
X104591556Y-63526922D01*
X104602433Y-63529121D01*
X104633418Y-63531147D01*
X104682043Y-63532942D01*
X104745837Y-63534451D01*
X104822331Y-63535616D01*
X104909056Y-63536380D01*
X105003543Y-63536686D01*
X105014450Y-63536689D01*
X105437343Y-63536689D01*
X105440605Y-63440622D01*
X105443867Y-63344556D01*
X105505956Y-63395543D01*
X105603286Y-63463057D01*
X105713187Y-63517749D01*
X105799651Y-63547978D01*
X105868722Y-63562666D01*
X105952075Y-63572659D01*
X106041841Y-63577646D01*
X106130155Y-63577313D01*
X106209149Y-63571351D01*
X106245378Y-63565638D01*
X106385397Y-63527776D01*
X106511822Y-63472932D01*
X106623740Y-63401924D01*
X106720238Y-63315568D01*
X106800400Y-63214679D01*
X106863313Y-63100076D01*
X106907688Y-62973984D01*
X106920022Y-62917401D01*
X106927632Y-62855202D01*
X106931261Y-62780363D01*
X106931755Y-62746467D01*
X106931690Y-62743282D01*
X106171752Y-62743282D01*
X106162459Y-62818333D01*
X106134272Y-62882160D01*
X106085803Y-62937798D01*
X106080746Y-62942211D01*
X106032452Y-62977037D01*
X105980743Y-62999620D01*
X105920011Y-63011540D01*
X105844648Y-63014383D01*
X105826541Y-63013978D01*
X105772722Y-63011325D01*
X105732692Y-63005909D01*
X105697676Y-62995745D01*
X105658897Y-62978850D01*
X105648255Y-62973672D01*
X105587604Y-62937844D01*
X105540785Y-62895212D01*
X105528048Y-62879973D01*
X105483378Y-62823462D01*
X105483378Y-62627586D01*
X105483914Y-62548939D01*
X105485604Y-62490988D01*
X105488572Y-62451875D01*
X105492943Y-62429741D01*
X105497028Y-62423274D01*
X105512953Y-62420111D01*
X105546736Y-62417488D01*
X105593660Y-62415655D01*
X105649007Y-62414857D01*
X105657894Y-62414842D01*
X105778670Y-62420096D01*
X105881340Y-62436263D01*
X105967894Y-62463961D01*
X106040319Y-62503808D01*
X106095249Y-62550758D01*
X106139796Y-62608645D01*
X106164520Y-62671693D01*
X106171752Y-62743282D01*
X106931690Y-62743282D01*
X106929822Y-62652712D01*
X106921478Y-62573812D01*
X106905232Y-62502590D01*
X106879595Y-62431864D01*
X106855599Y-62379493D01*
X106796980Y-62284196D01*
X106718883Y-62196170D01*
X106623685Y-62117017D01*
X106513762Y-62048340D01*
X106391490Y-61991741D01*
X106259245Y-61948821D01*
X106194578Y-61933882D01*
X106058396Y-61911777D01*
X105909951Y-61897194D01*
X105758495Y-61890813D01*
X105631936Y-61892445D01*
X105470050Y-61899224D01*
X105477470Y-61840245D01*
X105496762Y-61741092D01*
X105527896Y-61660372D01*
X105571731Y-61597466D01*
X105629129Y-61551756D01*
X105700952Y-61522622D01*
X105788059Y-61509447D01*
X105891314Y-61511611D01*
X105929289Y-61515612D01*
X106070480Y-61540780D01*
X106207293Y-61581814D01*
X106301822Y-61619815D01*
X106346982Y-61639190D01*
X106385415Y-61654760D01*
X106411766Y-61664405D01*
X106419454Y-61666452D01*
X106429198Y-61657374D01*
X106445917Y-61628405D01*
X106469768Y-61579217D01*
X106500907Y-61509484D01*
X106539493Y-61418879D01*
X106546090Y-61403089D01*
X106576147Y-61330772D01*
X106603126Y-61265425D01*
X106625864Y-61209906D01*
X106643194Y-61167072D01*
X106653952Y-61139781D01*
X106657059Y-61130942D01*
X106647060Y-61126187D01*
X106620783Y-61120910D01*
X106592511Y-61117231D01*
X106562354Y-61112474D01*
X106514567Y-61103028D01*
X106453388Y-61089820D01*
X106383054Y-61073776D01*
X106307806Y-61055820D01*
X106279245Y-61048797D01*
X106174184Y-61023209D01*
X106086520Y-61003147D01*
X106011932Y-60987969D01*
X105946097Y-60977035D01*
X105884693Y-60969704D01*
X105823398Y-60965335D01*
X105757890Y-60963287D01*
X105699872Y-60962889D01*
X105530426Y-60969552D01*
X105530426Y-60969552D01*
G37*
X105530426Y-60969552D02*
X105378508Y-60989567D01*
X105243244Y-61023202D01*
X105123761Y-61070725D01*
X105019185Y-61132405D01*
X104941576Y-61195965D01*
X104872735Y-61270099D01*
X104818994Y-61349871D01*
X104776090Y-61442091D01*
X104760616Y-61485161D01*
X104747756Y-61524142D01*
X104736554Y-61560289D01*
X104726880Y-61595434D01*
X104718604Y-61631410D01*
X104711597Y-61670050D01*
X104705728Y-61713185D01*
X104700869Y-61762649D01*
X104696890Y-61820273D01*
X104693660Y-61887891D01*
X104691051Y-61967334D01*
X104688933Y-62060436D01*
X104687176Y-62169027D01*
X104685651Y-62294942D01*
X104684228Y-62440012D01*
X104682975Y-62582778D01*
X104681649Y-62738968D01*
X104680444Y-62874239D01*
X104679234Y-62990246D01*
X104677894Y-63088645D01*
X104676300Y-63171093D01*
X104674325Y-63239246D01*
X104671844Y-63294760D01*
X104668731Y-63339292D01*
X104664862Y-63374498D01*
X104660111Y-63402034D01*
X104654352Y-63423556D01*
X104647461Y-63440722D01*
X104639311Y-63455186D01*
X104629777Y-63468606D01*
X104618734Y-63482638D01*
X104614434Y-63488071D01*
X104598614Y-63510910D01*
X104591578Y-63526463D01*
X104591556Y-63526922D01*
X104602433Y-63529121D01*
X104633418Y-63531147D01*
X104682043Y-63532942D01*
X104745837Y-63534451D01*
X104822331Y-63535616D01*
X104909056Y-63536380D01*
X105003543Y-63536686D01*
X105014450Y-63536689D01*
X105437343Y-63536689D01*
X105440605Y-63440622D01*
X105443867Y-63344556D01*
X105505956Y-63395543D01*
X105603286Y-63463057D01*
X105713187Y-63517749D01*
X105799651Y-63547978D01*
X105868722Y-63562666D01*
X105952075Y-63572659D01*
X106041841Y-63577646D01*
X106130155Y-63577313D01*
X106209149Y-63571351D01*
X106245378Y-63565638D01*
X106385397Y-63527776D01*
X106511822Y-63472932D01*
X106623740Y-63401924D01*
X106720238Y-63315568D01*
X106800400Y-63214679D01*
X106863313Y-63100076D01*
X106907688Y-62973984D01*
X106920022Y-62917401D01*
X106927632Y-62855202D01*
X106931261Y-62780363D01*
X106931755Y-62746467D01*
X106931690Y-62743282D01*
X106171752Y-62743282D01*
X106162459Y-62818333D01*
X106134272Y-62882160D01*
X106085803Y-62937798D01*
X106080746Y-62942211D01*
X106032452Y-62977037D01*
X105980743Y-62999620D01*
X105920011Y-63011540D01*
X105844648Y-63014383D01*
X105826541Y-63013978D01*
X105772722Y-63011325D01*
X105732692Y-63005909D01*
X105697676Y-62995745D01*
X105658897Y-62978850D01*
X105648255Y-62973672D01*
X105587604Y-62937844D01*
X105540785Y-62895212D01*
X105528048Y-62879973D01*
X105483378Y-62823462D01*
X105483378Y-62627586D01*
X105483914Y-62548939D01*
X105485604Y-62490988D01*
X105488572Y-62451875D01*
X105492943Y-62429741D01*
X105497028Y-62423274D01*
X105512953Y-62420111D01*
X105546736Y-62417488D01*
X105593660Y-62415655D01*
X105649007Y-62414857D01*
X105657894Y-62414842D01*
X105778670Y-62420096D01*
X105881340Y-62436263D01*
X105967894Y-62463961D01*
X106040319Y-62503808D01*
X106095249Y-62550758D01*
X106139796Y-62608645D01*
X106164520Y-62671693D01*
X106171752Y-62743282D01*
X106931690Y-62743282D01*
X106929822Y-62652712D01*
X106921478Y-62573812D01*
X106905232Y-62502590D01*
X106879595Y-62431864D01*
X106855599Y-62379493D01*
X106796980Y-62284196D01*
X106718883Y-62196170D01*
X106623685Y-62117017D01*
X106513762Y-62048340D01*
X106391490Y-61991741D01*
X106259245Y-61948821D01*
X106194578Y-61933882D01*
X106058396Y-61911777D01*
X105909951Y-61897194D01*
X105758495Y-61890813D01*
X105631936Y-61892445D01*
X105470050Y-61899224D01*
X105477470Y-61840245D01*
X105496762Y-61741092D01*
X105527896Y-61660372D01*
X105571731Y-61597466D01*
X105629129Y-61551756D01*
X105700952Y-61522622D01*
X105788059Y-61509447D01*
X105891314Y-61511611D01*
X105929289Y-61515612D01*
X106070480Y-61540780D01*
X106207293Y-61581814D01*
X106301822Y-61619815D01*
X106346982Y-61639190D01*
X106385415Y-61654760D01*
X106411766Y-61664405D01*
X106419454Y-61666452D01*
X106429198Y-61657374D01*
X106445917Y-61628405D01*
X106469768Y-61579217D01*
X106500907Y-61509484D01*
X106539493Y-61418879D01*
X106546090Y-61403089D01*
X106576147Y-61330772D01*
X106603126Y-61265425D01*
X106625864Y-61209906D01*
X106643194Y-61167072D01*
X106653952Y-61139781D01*
X106657059Y-61130942D01*
X106647060Y-61126187D01*
X106620783Y-61120910D01*
X106592511Y-61117231D01*
X106562354Y-61112474D01*
X106514567Y-61103028D01*
X106453388Y-61089820D01*
X106383054Y-61073776D01*
X106307806Y-61055820D01*
X106279245Y-61048797D01*
X106174184Y-61023209D01*
X106086520Y-61003147D01*
X106011932Y-60987969D01*
X105946097Y-60977035D01*
X105884693Y-60969704D01*
X105823398Y-60965335D01*
X105757890Y-60963287D01*
X105699872Y-60962889D01*
X105530426Y-60969552D01*
G36*
X107875571Y-60052071D02*
X107715430Y-60073245D01*
X107551490Y-60113385D01*
X107381687Y-60172889D01*
X107203957Y-60252154D01*
X107192690Y-60257699D01*
X107134995Y-60285725D01*
X107083448Y-60309802D01*
X107041809Y-60328249D01*
X107013838Y-60339386D01*
X107004267Y-60341933D01*
X106985050Y-60346941D01*
X106980439Y-60351147D01*
X106985542Y-60361580D01*
X107001582Y-60387868D01*
X107026712Y-60427257D01*
X107059086Y-60476991D01*
X107096857Y-60534315D01*
X107138178Y-60596476D01*
X107181202Y-60660718D01*
X107224083Y-60724285D01*
X107264974Y-60784425D01*
X107302029Y-60838380D01*
X107333400Y-60883397D01*
X107357241Y-60916721D01*
X107371706Y-60935597D01*
X107373691Y-60937787D01*
X107383809Y-60933138D01*
X107406150Y-60915962D01*
X107436720Y-60889440D01*
X107452464Y-60874964D01*
X107548953Y-60799682D01*
X107655664Y-60744241D01*
X107771168Y-60709141D01*
X107894038Y-60694880D01*
X107963439Y-60696051D01*
X108084577Y-60713212D01*
X108193795Y-60749094D01*
X108291418Y-60803959D01*
X108377772Y-60878070D01*
X108453185Y-60971688D01*
X108517982Y-61085076D01*
X108555399Y-61171667D01*
X108599252Y-61307366D01*
X108631572Y-61454850D01*
X108652443Y-61610314D01*
X108661949Y-61769956D01*
X108660173Y-61929973D01*
X108647197Y-62086561D01*
X108623106Y-62235918D01*
X108587982Y-62374240D01*
X108541908Y-62497724D01*
X108525627Y-62531978D01*
X108457380Y-62646064D01*
X108376921Y-62742557D01*
X108285430Y-62820670D01*
X108184089Y-62879617D01*
X108074080Y-62918612D01*
X107956585Y-62936868D01*
X107915117Y-62938211D01*
X107793559Y-62927290D01*
X107673122Y-62894474D01*
X107555334Y-62840439D01*
X107441723Y-62765865D01*
X107350315Y-62687539D01*
X107303785Y-62643008D01*
X107122517Y-62940271D01*
X107077420Y-63014433D01*
X107036181Y-63082646D01*
X107000265Y-63142459D01*
X106971134Y-63191420D01*
X106950250Y-63227079D01*
X106939076Y-63246984D01*
X106937625Y-63250079D01*
X106945854Y-63259718D01*
X106971433Y-63276999D01*
X107011127Y-63300283D01*
X107061703Y-63327934D01*
X107119926Y-63358315D01*
X107182563Y-63389790D01*
X107246379Y-63420722D01*
X107308140Y-63449473D01*
X107364612Y-63474408D01*
X107412562Y-63493889D01*
X107436014Y-63502318D01*
X107569779Y-63540133D01*
X107707673Y-63565136D01*
X107855378Y-63578140D01*
X107982167Y-63580468D01*
X108050122Y-63579373D01*
X108115723Y-63577275D01*
X108173153Y-63574434D01*
X108216597Y-63571106D01*
X108230702Y-63569422D01*
X108369716Y-63540587D01*
X108511243Y-63495468D01*
X108648725Y-63436750D01*
X108775606Y-63367120D01*
X108853111Y-63314441D01*
X108980519Y-63206239D01*
X109098822Y-63079671D01*
X109205828Y-62937866D01*
X109299348Y-62783951D01*
X109377190Y-62621053D01*
X109421044Y-62503756D01*
X109471292Y-62320128D01*
X109504791Y-62125581D01*
X109521551Y-61924325D01*
X109521584Y-61720568D01*
X109504899Y-61518521D01*
X109471507Y-61322392D01*
X109421420Y-61136391D01*
X109417603Y-61124803D01*
X109354719Y-60962750D01*
X109277972Y-60814832D01*
X109184758Y-60676865D01*
X109072473Y-60544661D01*
X109028608Y-60499399D01*
X108892466Y-60375457D01*
X108752509Y-60272915D01*
X108606589Y-60190656D01*
X108452558Y-60127564D01*
X108288268Y-60082523D01*
X108192711Y-60065033D01*
X108033977Y-60049466D01*
X107875571Y-60052071D01*
X107875571Y-60052071D01*
G37*
X107875571Y-60052071D02*
X107715430Y-60073245D01*
X107551490Y-60113385D01*
X107381687Y-60172889D01*
X107203957Y-60252154D01*
X107192690Y-60257699D01*
X107134995Y-60285725D01*
X107083448Y-60309802D01*
X107041809Y-60328249D01*
X107013838Y-60339386D01*
X107004267Y-60341933D01*
X106985050Y-60346941D01*
X106980439Y-60351147D01*
X106985542Y-60361580D01*
X107001582Y-60387868D01*
X107026712Y-60427257D01*
X107059086Y-60476991D01*
X107096857Y-60534315D01*
X107138178Y-60596476D01*
X107181202Y-60660718D01*
X107224083Y-60724285D01*
X107264974Y-60784425D01*
X107302029Y-60838380D01*
X107333400Y-60883397D01*
X107357241Y-60916721D01*
X107371706Y-60935597D01*
X107373691Y-60937787D01*
X107383809Y-60933138D01*
X107406150Y-60915962D01*
X107436720Y-60889440D01*
X107452464Y-60874964D01*
X107548953Y-60799682D01*
X107655664Y-60744241D01*
X107771168Y-60709141D01*
X107894038Y-60694880D01*
X107963439Y-60696051D01*
X108084577Y-60713212D01*
X108193795Y-60749094D01*
X108291418Y-60803959D01*
X108377772Y-60878070D01*
X108453185Y-60971688D01*
X108517982Y-61085076D01*
X108555399Y-61171667D01*
X108599252Y-61307366D01*
X108631572Y-61454850D01*
X108652443Y-61610314D01*
X108661949Y-61769956D01*
X108660173Y-61929973D01*
X108647197Y-62086561D01*
X108623106Y-62235918D01*
X108587982Y-62374240D01*
X108541908Y-62497724D01*
X108525627Y-62531978D01*
X108457380Y-62646064D01*
X108376921Y-62742557D01*
X108285430Y-62820670D01*
X108184089Y-62879617D01*
X108074080Y-62918612D01*
X107956585Y-62936868D01*
X107915117Y-62938211D01*
X107793559Y-62927290D01*
X107673122Y-62894474D01*
X107555334Y-62840439D01*
X107441723Y-62765865D01*
X107350315Y-62687539D01*
X107303785Y-62643008D01*
X107122517Y-62940271D01*
X107077420Y-63014433D01*
X107036181Y-63082646D01*
X107000265Y-63142459D01*
X106971134Y-63191420D01*
X106950250Y-63227079D01*
X106939076Y-63246984D01*
X106937625Y-63250079D01*
X106945854Y-63259718D01*
X106971433Y-63276999D01*
X107011127Y-63300283D01*
X107061703Y-63327934D01*
X107119926Y-63358315D01*
X107182563Y-63389790D01*
X107246379Y-63420722D01*
X107308140Y-63449473D01*
X107364612Y-63474408D01*
X107412562Y-63493889D01*
X107436014Y-63502318D01*
X107569779Y-63540133D01*
X107707673Y-63565136D01*
X107855378Y-63578140D01*
X107982167Y-63580468D01*
X108050122Y-63579373D01*
X108115723Y-63577275D01*
X108173153Y-63574434D01*
X108216597Y-63571106D01*
X108230702Y-63569422D01*
X108369716Y-63540587D01*
X108511243Y-63495468D01*
X108648725Y-63436750D01*
X108775606Y-63367120D01*
X108853111Y-63314441D01*
X108980519Y-63206239D01*
X109098822Y-63079671D01*
X109205828Y-62937866D01*
X109299348Y-62783951D01*
X109377190Y-62621053D01*
X109421044Y-62503756D01*
X109471292Y-62320128D01*
X109504791Y-62125581D01*
X109521551Y-61924325D01*
X109521584Y-61720568D01*
X109504899Y-61518521D01*
X109471507Y-61322392D01*
X109421420Y-61136391D01*
X109417603Y-61124803D01*
X109354719Y-60962750D01*
X109277972Y-60814832D01*
X109184758Y-60676865D01*
X109072473Y-60544661D01*
X109028608Y-60499399D01*
X108892466Y-60375457D01*
X108752509Y-60272915D01*
X108606589Y-60190656D01*
X108452558Y-60127564D01*
X108288268Y-60082523D01*
X108192711Y-60065033D01*
X108033977Y-60049466D01*
X107875571Y-60052071D01*
G36*
X111150400Y-59592054D02*
X111139535Y-59705993D01*
X111107918Y-59813616D01*
X111057015Y-59912615D01*
X110988293Y-60000684D01*
X110903219Y-60075516D01*
X110806232Y-60133384D01*
X110699964Y-60173005D01*
X110592950Y-60191573D01*
X110487300Y-60190434D01*
X110385125Y-60170930D01*
X110288534Y-60134406D01*
X110199638Y-60082205D01*
X110120546Y-60015673D01*
X110053369Y-59936152D01*
X110000217Y-59844987D01*
X109963199Y-59743523D01*
X109944427Y-59633102D01*
X109942489Y-59583206D01*
X109942489Y-59495267D01*
X109890560Y-59495267D01*
X109854253Y-59498111D01*
X109827355Y-59509911D01*
X109800249Y-59533649D01*
X109761867Y-59572031D01*
X109761867Y-61763602D01*
X109761876Y-62025739D01*
X109761908Y-62266241D01*
X109761972Y-62486048D01*
X109762076Y-62686101D01*
X109762227Y-62867344D01*
X109762434Y-63030716D01*
X109762706Y-63177160D01*
X109763050Y-63307617D01*
X109763474Y-63423029D01*
X109763987Y-63524338D01*
X109764597Y-63612484D01*
X109765312Y-63688410D01*
X109766140Y-63753057D01*
X109767089Y-63807367D01*
X109768167Y-63852280D01*
X109769383Y-63888740D01*
X109770745Y-63917687D01*
X109772261Y-63940063D01*
X109773938Y-63956809D01*
X109775786Y-63968868D01*
X109777813Y-63977180D01*
X109780025Y-63982687D01*
X109781108Y-63984537D01*
X109785271Y-63991549D01*
X109788805Y-63997996D01*
X109792635Y-64003900D01*
X109797682Y-64009286D01*
X109804871Y-64014178D01*
X109815123Y-64018598D01*
X109829364Y-64022572D01*
X109848514Y-64026121D01*
X109873499Y-64029270D01*
X109905240Y-64032042D01*
X109944662Y-64034461D01*
X109992686Y-64036551D01*
X110050237Y-64038335D01*
X110118237Y-64039837D01*
X110197610Y-64041080D01*
X110289279Y-64042089D01*
X110394166Y-64042885D01*
X110513196Y-64043494D01*
X110647290Y-64043939D01*
X110797373Y-64044243D01*
X110964367Y-64044430D01*
X111149196Y-64044524D01*
X111352783Y-64044548D01*
X111576050Y-64044525D01*
X111819922Y-64044480D01*
X112085321Y-64044437D01*
X112123704Y-64044432D01*
X112390682Y-64044389D01*
X112636002Y-64044318D01*
X112860583Y-64044213D01*
X113065345Y-64044066D01*
X113251206Y-64043869D01*
X113419088Y-64043616D01*
X113569908Y-64043300D01*
X113704587Y-64042913D01*
X113824044Y-64042447D01*
X113929199Y-64041897D01*
X114020971Y-64041253D01*
X114100279Y-64040511D01*
X114168043Y-64039661D01*
X114225182Y-64038697D01*
X114272617Y-64037611D01*
X114311266Y-64036397D01*
X114342049Y-64035047D01*
X114365885Y-64033555D01*
X114383694Y-64031911D01*
X114396395Y-64030111D01*
X114404908Y-64028145D01*
X114409266Y-64026477D01*
X114417728Y-64022906D01*
X114425497Y-64020270D01*
X114432602Y-64017634D01*
X114439073Y-64014062D01*
X114444939Y-64008621D01*
X114450229Y-64000375D01*
X114454974Y-63988390D01*
X114459202Y-63971731D01*
X114462943Y-63949463D01*
X114466227Y-63920652D01*
X114469083Y-63884363D01*
X114471540Y-63839661D01*
X114473629Y-63785611D01*
X114475378Y-63721279D01*
X114476817Y-63645730D01*
X114477976Y-63558030D01*
X114478883Y-63457243D01*
X114479569Y-63342434D01*
X114480063Y-63212670D01*
X114480395Y-63067015D01*
X114480593Y-62904535D01*
X114480687Y-62724295D01*
X114480708Y-62525360D01*
X114480685Y-62306796D01*
X114480646Y-62067668D01*
X114480622Y-61807040D01*
X114480622Y-61764889D01*
X114480636Y-61501992D01*
X114480661Y-61260732D01*
X114480671Y-61040165D01*
X114480642Y-60839352D01*
X114480548Y-60657349D01*
X114480362Y-60493216D01*
X114480059Y-60346011D01*
X114479614Y-60214792D01*
X114479034Y-60104867D01*
X114176197Y-60104867D01*
X114136407Y-60162711D01*
X114125236Y-60178479D01*
X114115166Y-60192441D01*
X114106138Y-60205784D01*
X114098097Y-60219693D01*
X114090986Y-60235356D01*
X114084747Y-60253958D01*
X114079325Y-60276686D01*
X114074662Y-60304727D01*
X114070701Y-60339267D01*
X114067385Y-60381492D01*
X114064659Y-60432589D01*
X114062464Y-60493744D01*
X114060745Y-60566144D01*
X114059444Y-60650975D01*
X114058505Y-60749422D01*
X114057870Y-60862674D01*
X114057484Y-60991916D01*
X114057288Y-61138334D01*
X114057227Y-61303116D01*
X114057243Y-61487447D01*
X114057280Y-61692513D01*
X114057289Y-61815133D01*
X114057265Y-62032082D01*
X114057231Y-62227642D01*
X114057243Y-62402999D01*
X114057358Y-62559341D01*
X114057630Y-62697857D01*
X114058118Y-62819734D01*
X114058876Y-62926160D01*
X114059962Y-63018322D01*
X114061431Y-63097409D01*
X114063340Y-63164608D01*
X114065744Y-63221107D01*
X114068701Y-63268093D01*
X114072266Y-63306755D01*
X114076495Y-63338280D01*
X114081446Y-63363855D01*
X114087173Y-63384670D01*
X114093733Y-63401911D01*
X114101183Y-63416765D01*
X114109579Y-63430422D01*
X114118976Y-63444069D01*
X114129432Y-63458893D01*
X114135523Y-63467783D01*
X114174296Y-63525400D01*
X113642732Y-63525400D01*
X113519483Y-63525365D01*
X113416987Y-63525215D01*
X113333420Y-63524878D01*
X113266956Y-63524286D01*
X113215771Y-63523367D01*
X113178041Y-63522051D01*
X113151940Y-63520269D01*
X113135644Y-63517951D01*
X113127328Y-63515026D01*
X113125168Y-63511424D01*
X113127339Y-63507075D01*
X113128535Y-63505645D01*
X113153685Y-63468573D01*
X113179583Y-63415772D01*
X113203192Y-63353770D01*
X113211461Y-63327357D01*
X113216078Y-63309416D01*
X113219979Y-63288355D01*
X113223248Y-63262089D01*
X113225966Y-63228532D01*
X113228215Y-63185599D01*
X113230077Y-63131204D01*
X113231636Y-63063262D01*
X113232972Y-62979688D01*
X113234169Y-62878395D01*
X113235308Y-62757300D01*
X113235685Y-62712600D01*
X113236702Y-62587449D01*
X113237460Y-62483082D01*
X113237903Y-62397707D01*
X113237970Y-62329533D01*
X113237605Y-62276765D01*
X113236748Y-62237614D01*
X113235341Y-62210285D01*
X113233325Y-62192986D01*
X113230643Y-62183926D01*
X113227236Y-62181312D01*
X113223044Y-62183351D01*
X113218571Y-62187667D01*
X113208216Y-62200602D01*
X113186158Y-62229676D01*
X113153957Y-62272759D01*
X113113174Y-62327718D01*
X113065370Y-62392423D01*
X113012105Y-62464742D01*
X112954940Y-62542544D01*
X112895437Y-62623698D01*
X112835155Y-62706072D01*
X112775655Y-62787536D01*
X112718498Y-62865957D01*
X112665245Y-62939204D01*
X112617457Y-63005147D01*
X112576693Y-63061654D01*
X112544516Y-63106593D01*
X112522485Y-63137834D01*
X112517917Y-63144466D01*
X112494996Y-63181369D01*
X112468188Y-63229359D01*
X112442789Y-63278897D01*
X112439568Y-63285577D01*
X112417890Y-63333772D01*
X112405304Y-63371334D01*
X112399574Y-63407160D01*
X112398456Y-63449200D01*
X112399090Y-63525400D01*
X111244651Y-63525400D01*
X111335815Y-63431669D01*
X111382612Y-63381775D01*
X111432899Y-63325295D01*
X111478944Y-63271026D01*
X111499369Y-63245673D01*
X111529807Y-63206128D01*
X111569862Y-63152916D01*
X111618361Y-63087667D01*
X111674135Y-63012011D01*
X111736011Y-62927577D01*
X111802819Y-62835994D01*
X111873387Y-62738892D01*
X111946545Y-62637901D01*
X112021121Y-62534650D01*
X112095944Y-62430768D01*
X112169843Y-62327885D01*
X112241646Y-62227631D01*
X112310184Y-62131636D01*
X112374284Y-62041527D01*
X112432775Y-61958936D01*
X112484486Y-61885492D01*
X112528247Y-61822824D01*
X112562885Y-61772561D01*
X112587230Y-61736334D01*
X112600111Y-61715771D01*
X112601869Y-61711668D01*
X112593910Y-61700342D01*
X112573115Y-61673162D01*
X112540847Y-61631829D01*
X112498470Y-61578044D01*
X112447347Y-61513506D01*
X112388841Y-61439918D01*
X112324314Y-61358978D01*
X112255131Y-61272388D01*
X112182653Y-61181848D01*
X112108246Y-61089060D01*
X112048517Y-61014702D01*
X111037511Y-61014702D01*
X111031602Y-61027659D01*
X111017272Y-61049908D01*
X111016225Y-61051391D01*
X110997438Y-61081544D01*
X110977791Y-61118375D01*
X110973892Y-61126511D01*
X110970356Y-61134940D01*
X110967230Y-61145059D01*
X110964486Y-61158260D01*
X110962092Y-61175938D01*
X110960019Y-61199484D01*
X110958235Y-61230293D01*
X110956712Y-61269757D01*
X110955419Y-61319269D01*
X110954326Y-61380223D01*
X110953403Y-61454011D01*
X110952619Y-61542028D01*
X110951945Y-61645665D01*
X110951350Y-61766316D01*
X110950805Y-61905374D01*
X110950279Y-62064232D01*
X110949745Y-62243089D01*
X110949206Y-62428207D01*
X110948772Y-62592145D01*
X110948509Y-62736303D01*
X110948484Y-62862079D01*
X110948765Y-62970871D01*
X110949419Y-63064077D01*
X110950514Y-63143097D01*
X110952118Y-63209328D01*
X110954297Y-63264170D01*
X110957119Y-63309021D01*
X110960651Y-63345278D01*
X110964961Y-63374341D01*
X110970117Y-63397609D01*
X110976185Y-63416479D01*
X110983233Y-63432351D01*
X110991329Y-63446622D01*
X111000540Y-63460691D01*
X111009040Y-63473158D01*
X111026176Y-63499452D01*
X111036322Y-63517037D01*
X111037511Y-63520257D01*
X111026604Y-63521334D01*
X110995411Y-63522335D01*
X110946223Y-63523235D01*
X110881333Y-63524010D01*
X110803030Y-63524637D01*
X110713607Y-63525091D01*
X110615356Y-63525349D01*
X110546445Y-63525400D01*
X110441452Y-63525180D01*
X110344610Y-63524548D01*
X110258107Y-63523549D01*
X110184132Y-63522227D01*
X110124874Y-63520626D01*
X110082520Y-63518791D01*
X110059260Y-63516765D01*
X110055378Y-63515493D01*
X110063076Y-63500591D01*
X110071074Y-63492560D01*
X110084246Y-63475434D01*
X110101485Y-63445183D01*
X110113407Y-63420622D01*
X110140045Y-63361711D01*
X110143120Y-62184845D01*
X110146195Y-61007978D01*
X110591853Y-61007978D01*
X110689670Y-61008142D01*
X110780064Y-61008611D01*
X110860630Y-61009347D01*
X110928962Y-61010316D01*
X110982656Y-61011480D01*
X111019305Y-61012803D01*
X111036504Y-61014249D01*
X111037511Y-61014702D01*
X112048517Y-61014702D01*
X112033270Y-60995722D01*
X111959090Y-60903537D01*
X111887069Y-60814204D01*
X111818569Y-60729424D01*
X111754955Y-60650898D01*
X111697588Y-60580326D01*
X111647833Y-60519409D01*
X111607052Y-60469847D01*
X111589888Y-60449178D01*
X111503596Y-60348516D01*
X111426997Y-60265259D01*
X111358183Y-60197438D01*
X111295248Y-60143089D01*
X111285867Y-60135722D01*
X111246356Y-60105117D01*
X112378116Y-60104867D01*
X112372827Y-60152844D01*
X112376130Y-60210188D01*
X112397661Y-60278463D01*
X112437635Y-60358212D01*
X112482943Y-60430495D01*
X112499161Y-60453140D01*
X112527214Y-60490696D01*
X112565430Y-60541021D01*
X112612137Y-60601973D01*
X112665661Y-60671411D01*
X112724331Y-60747194D01*
X112786475Y-60827180D01*
X112850421Y-60909228D01*
X112914495Y-60991196D01*
X112977027Y-61070943D01*
X113036343Y-61146327D01*
X113090771Y-61215207D01*
X113138639Y-61275442D01*
X113178275Y-61324889D01*
X113208006Y-61361408D01*
X113226161Y-61382858D01*
X113229220Y-61386156D01*
X113232079Y-61378149D01*
X113234293Y-61347855D01*
X113235857Y-61295556D01*
X113236767Y-61221531D01*
X113237020Y-61126063D01*
X113236613Y-61009434D01*
X113235704Y-60889445D01*
X113234382Y-60757333D01*
X113232857Y-60645594D01*
X113230881Y-60552025D01*
X113228206Y-60474419D01*
X113224582Y-60410574D01*
X113219761Y-60358283D01*
X113213494Y-60315344D01*
X113205532Y-60279551D01*
X113195627Y-60248700D01*
X113183531Y-60220586D01*
X113168993Y-60193005D01*
X113154311Y-60167966D01*
X113116314Y-60104867D01*
X114176197Y-60104867D01*
X114479034Y-60104867D01*
X114479001Y-60098617D01*
X114478195Y-59996544D01*
X114477170Y-59907633D01*
X114475900Y-59830941D01*
X114474360Y-59765527D01*
X114472524Y-59710449D01*
X114470367Y-59664765D01*
X114467863Y-59627534D01*
X114464987Y-59597813D01*
X114461713Y-59574662D01*
X114458015Y-59557139D01*
X114453869Y-59544301D01*
X114449247Y-59535208D01*
X114444126Y-59528918D01*
X114438478Y-59524488D01*
X114432279Y-59520978D01*
X114425504Y-59517445D01*
X114419508Y-59513876D01*
X114414275Y-59511300D01*
X114406099Y-59508972D01*
X114393886Y-59506878D01*
X114376541Y-59505007D01*
X114352969Y-59503347D01*
X114322077Y-59501884D01*
X114282768Y-59500608D01*
X114233950Y-59499504D01*
X114174527Y-59498561D01*
X114103404Y-59497767D01*
X114019488Y-59497109D01*
X113921683Y-59496575D01*
X113808894Y-59496153D01*
X113680029Y-59495829D01*
X113533991Y-59495592D01*
X113369686Y-59495430D01*
X113186020Y-59495330D01*
X112981897Y-59495280D01*
X112770753Y-59495267D01*
X111150400Y-59495267D01*
X111150400Y-59592054D01*
X111150400Y-59592054D01*
G37*
X111150400Y-59592054D02*
X111139535Y-59705993D01*
X111107918Y-59813616D01*
X111057015Y-59912615D01*
X110988293Y-60000684D01*
X110903219Y-60075516D01*
X110806232Y-60133384D01*
X110699964Y-60173005D01*
X110592950Y-60191573D01*
X110487300Y-60190434D01*
X110385125Y-60170930D01*
X110288534Y-60134406D01*
X110199638Y-60082205D01*
X110120546Y-60015673D01*
X110053369Y-59936152D01*
X110000217Y-59844987D01*
X109963199Y-59743523D01*
X109944427Y-59633102D01*
X109942489Y-59583206D01*
X109942489Y-59495267D01*
X109890560Y-59495267D01*
X109854253Y-59498111D01*
X109827355Y-59509911D01*
X109800249Y-59533649D01*
X109761867Y-59572031D01*
X109761867Y-61763602D01*
X109761876Y-62025739D01*
X109761908Y-62266241D01*
X109761972Y-62486048D01*
X109762076Y-62686101D01*
X109762227Y-62867344D01*
X109762434Y-63030716D01*
X109762706Y-63177160D01*
X109763050Y-63307617D01*
X109763474Y-63423029D01*
X109763987Y-63524338D01*
X109764597Y-63612484D01*
X109765312Y-63688410D01*
X109766140Y-63753057D01*
X109767089Y-63807367D01*
X109768167Y-63852280D01*
X109769383Y-63888740D01*
X109770745Y-63917687D01*
X109772261Y-63940063D01*
X109773938Y-63956809D01*
X109775786Y-63968868D01*
X109777813Y-63977180D01*
X109780025Y-63982687D01*
X109781108Y-63984537D01*
X109785271Y-63991549D01*
X109788805Y-63997996D01*
X109792635Y-64003900D01*
X109797682Y-64009286D01*
X109804871Y-64014178D01*
X109815123Y-64018598D01*
X109829364Y-64022572D01*
X109848514Y-64026121D01*
X109873499Y-64029270D01*
X109905240Y-64032042D01*
X109944662Y-64034461D01*
X109992686Y-64036551D01*
X110050237Y-64038335D01*
X110118237Y-64039837D01*
X110197610Y-64041080D01*
X110289279Y-64042089D01*
X110394166Y-64042885D01*
X110513196Y-64043494D01*
X110647290Y-64043939D01*
X110797373Y-64044243D01*
X110964367Y-64044430D01*
X111149196Y-64044524D01*
X111352783Y-64044548D01*
X111576050Y-64044525D01*
X111819922Y-64044480D01*
X112085321Y-64044437D01*
X112123704Y-64044432D01*
X112390682Y-64044389D01*
X112636002Y-64044318D01*
X112860583Y-64044213D01*
X113065345Y-64044066D01*
X113251206Y-64043869D01*
X113419088Y-64043616D01*
X113569908Y-64043300D01*
X113704587Y-64042913D01*
X113824044Y-64042447D01*
X113929199Y-64041897D01*
X114020971Y-64041253D01*
X114100279Y-64040511D01*
X114168043Y-64039661D01*
X114225182Y-64038697D01*
X114272617Y-64037611D01*
X114311266Y-64036397D01*
X114342049Y-64035047D01*
X114365885Y-64033555D01*
X114383694Y-64031911D01*
X114396395Y-64030111D01*
X114404908Y-64028145D01*
X114409266Y-64026477D01*
X114417728Y-64022906D01*
X114425497Y-64020270D01*
X114432602Y-64017634D01*
X114439073Y-64014062D01*
X114444939Y-64008621D01*
X114450229Y-64000375D01*
X114454974Y-63988390D01*
X114459202Y-63971731D01*
X114462943Y-63949463D01*
X114466227Y-63920652D01*
X114469083Y-63884363D01*
X114471540Y-63839661D01*
X114473629Y-63785611D01*
X114475378Y-63721279D01*
X114476817Y-63645730D01*
X114477976Y-63558030D01*
X114478883Y-63457243D01*
X114479569Y-63342434D01*
X114480063Y-63212670D01*
X114480395Y-63067015D01*
X114480593Y-62904535D01*
X114480687Y-62724295D01*
X114480708Y-62525360D01*
X114480685Y-62306796D01*
X114480646Y-62067668D01*
X114480622Y-61807040D01*
X114480622Y-61764889D01*
X114480636Y-61501992D01*
X114480661Y-61260732D01*
X114480671Y-61040165D01*
X114480642Y-60839352D01*
X114480548Y-60657349D01*
X114480362Y-60493216D01*
X114480059Y-60346011D01*
X114479614Y-60214792D01*
X114479034Y-60104867D01*
X114176197Y-60104867D01*
X114136407Y-60162711D01*
X114125236Y-60178479D01*
X114115166Y-60192441D01*
X114106138Y-60205784D01*
X114098097Y-60219693D01*
X114090986Y-60235356D01*
X114084747Y-60253958D01*
X114079325Y-60276686D01*
X114074662Y-60304727D01*
X114070701Y-60339267D01*
X114067385Y-60381492D01*
X114064659Y-60432589D01*
X114062464Y-60493744D01*
X114060745Y-60566144D01*
X114059444Y-60650975D01*
X114058505Y-60749422D01*
X114057870Y-60862674D01*
X114057484Y-60991916D01*
X114057288Y-61138334D01*
X114057227Y-61303116D01*
X114057243Y-61487447D01*
X114057280Y-61692513D01*
X114057289Y-61815133D01*
X114057265Y-62032082D01*
X114057231Y-62227642D01*
X114057243Y-62402999D01*
X114057358Y-62559341D01*
X114057630Y-62697857D01*
X114058118Y-62819734D01*
X114058876Y-62926160D01*
X114059962Y-63018322D01*
X114061431Y-63097409D01*
X114063340Y-63164608D01*
X114065744Y-63221107D01*
X114068701Y-63268093D01*
X114072266Y-63306755D01*
X114076495Y-63338280D01*
X114081446Y-63363855D01*
X114087173Y-63384670D01*
X114093733Y-63401911D01*
X114101183Y-63416765D01*
X114109579Y-63430422D01*
X114118976Y-63444069D01*
X114129432Y-63458893D01*
X114135523Y-63467783D01*
X114174296Y-63525400D01*
X113642732Y-63525400D01*
X113519483Y-63525365D01*
X113416987Y-63525215D01*
X113333420Y-63524878D01*
X113266956Y-63524286D01*
X113215771Y-63523367D01*
X113178041Y-63522051D01*
X113151940Y-63520269D01*
X113135644Y-63517951D01*
X113127328Y-63515026D01*
X113125168Y-63511424D01*
X113127339Y-63507075D01*
X113128535Y-63505645D01*
X113153685Y-63468573D01*
X113179583Y-63415772D01*
X113203192Y-63353770D01*
X113211461Y-63327357D01*
X113216078Y-63309416D01*
X113219979Y-63288355D01*
X113223248Y-63262089D01*
X113225966Y-63228532D01*
X113228215Y-63185599D01*
X113230077Y-63131204D01*
X113231636Y-63063262D01*
X113232972Y-62979688D01*
X113234169Y-62878395D01*
X113235308Y-62757300D01*
X113235685Y-62712600D01*
X113236702Y-62587449D01*
X113237460Y-62483082D01*
X113237903Y-62397707D01*
X113237970Y-62329533D01*
X113237605Y-62276765D01*
X113236748Y-62237614D01*
X113235341Y-62210285D01*
X113233325Y-62192986D01*
X113230643Y-62183926D01*
X113227236Y-62181312D01*
X113223044Y-62183351D01*
X113218571Y-62187667D01*
X113208216Y-62200602D01*
X113186158Y-62229676D01*
X113153957Y-62272759D01*
X113113174Y-62327718D01*
X113065370Y-62392423D01*
X113012105Y-62464742D01*
X112954940Y-62542544D01*
X112895437Y-62623698D01*
X112835155Y-62706072D01*
X112775655Y-62787536D01*
X112718498Y-62865957D01*
X112665245Y-62939204D01*
X112617457Y-63005147D01*
X112576693Y-63061654D01*
X112544516Y-63106593D01*
X112522485Y-63137834D01*
X112517917Y-63144466D01*
X112494996Y-63181369D01*
X112468188Y-63229359D01*
X112442789Y-63278897D01*
X112439568Y-63285577D01*
X112417890Y-63333772D01*
X112405304Y-63371334D01*
X112399574Y-63407160D01*
X112398456Y-63449200D01*
X112399090Y-63525400D01*
X111244651Y-63525400D01*
X111335815Y-63431669D01*
X111382612Y-63381775D01*
X111432899Y-63325295D01*
X111478944Y-63271026D01*
X111499369Y-63245673D01*
X111529807Y-63206128D01*
X111569862Y-63152916D01*
X111618361Y-63087667D01*
X111674135Y-63012011D01*
X111736011Y-62927577D01*
X111802819Y-62835994D01*
X111873387Y-62738892D01*
X111946545Y-62637901D01*
X112021121Y-62534650D01*
X112095944Y-62430768D01*
X112169843Y-62327885D01*
X112241646Y-62227631D01*
X112310184Y-62131636D01*
X112374284Y-62041527D01*
X112432775Y-61958936D01*
X112484486Y-61885492D01*
X112528247Y-61822824D01*
X112562885Y-61772561D01*
X112587230Y-61736334D01*
X112600111Y-61715771D01*
X112601869Y-61711668D01*
X112593910Y-61700342D01*
X112573115Y-61673162D01*
X112540847Y-61631829D01*
X112498470Y-61578044D01*
X112447347Y-61513506D01*
X112388841Y-61439918D01*
X112324314Y-61358978D01*
X112255131Y-61272388D01*
X112182653Y-61181848D01*
X112108246Y-61089060D01*
X112048517Y-61014702D01*
X111037511Y-61014702D01*
X111031602Y-61027659D01*
X111017272Y-61049908D01*
X111016225Y-61051391D01*
X110997438Y-61081544D01*
X110977791Y-61118375D01*
X110973892Y-61126511D01*
X110970356Y-61134940D01*
X110967230Y-61145059D01*
X110964486Y-61158260D01*
X110962092Y-61175938D01*
X110960019Y-61199484D01*
X110958235Y-61230293D01*
X110956712Y-61269757D01*
X110955419Y-61319269D01*
X110954326Y-61380223D01*
X110953403Y-61454011D01*
X110952619Y-61542028D01*
X110951945Y-61645665D01*
X110951350Y-61766316D01*
X110950805Y-61905374D01*
X110950279Y-62064232D01*
X110949745Y-62243089D01*
X110949206Y-62428207D01*
X110948772Y-62592145D01*
X110948509Y-62736303D01*
X110948484Y-62862079D01*
X110948765Y-62970871D01*
X110949419Y-63064077D01*
X110950514Y-63143097D01*
X110952118Y-63209328D01*
X110954297Y-63264170D01*
X110957119Y-63309021D01*
X110960651Y-63345278D01*
X110964961Y-63374341D01*
X110970117Y-63397609D01*
X110976185Y-63416479D01*
X110983233Y-63432351D01*
X110991329Y-63446622D01*
X111000540Y-63460691D01*
X111009040Y-63473158D01*
X111026176Y-63499452D01*
X111036322Y-63517037D01*
X111037511Y-63520257D01*
X111026604Y-63521334D01*
X110995411Y-63522335D01*
X110946223Y-63523235D01*
X110881333Y-63524010D01*
X110803030Y-63524637D01*
X110713607Y-63525091D01*
X110615356Y-63525349D01*
X110546445Y-63525400D01*
X110441452Y-63525180D01*
X110344610Y-63524548D01*
X110258107Y-63523549D01*
X110184132Y-63522227D01*
X110124874Y-63520626D01*
X110082520Y-63518791D01*
X110059260Y-63516765D01*
X110055378Y-63515493D01*
X110063076Y-63500591D01*
X110071074Y-63492560D01*
X110084246Y-63475434D01*
X110101485Y-63445183D01*
X110113407Y-63420622D01*
X110140045Y-63361711D01*
X110143120Y-62184845D01*
X110146195Y-61007978D01*
X110591853Y-61007978D01*
X110689670Y-61008142D01*
X110780064Y-61008611D01*
X110860630Y-61009347D01*
X110928962Y-61010316D01*
X110982656Y-61011480D01*
X111019305Y-61012803D01*
X111036504Y-61014249D01*
X111037511Y-61014702D01*
X112048517Y-61014702D01*
X112033270Y-60995722D01*
X111959090Y-60903537D01*
X111887069Y-60814204D01*
X111818569Y-60729424D01*
X111754955Y-60650898D01*
X111697588Y-60580326D01*
X111647833Y-60519409D01*
X111607052Y-60469847D01*
X111589888Y-60449178D01*
X111503596Y-60348516D01*
X111426997Y-60265259D01*
X111358183Y-60197438D01*
X111295248Y-60143089D01*
X111285867Y-60135722D01*
X111246356Y-60105117D01*
X112378116Y-60104867D01*
X112372827Y-60152844D01*
X112376130Y-60210188D01*
X112397661Y-60278463D01*
X112437635Y-60358212D01*
X112482943Y-60430495D01*
X112499161Y-60453140D01*
X112527214Y-60490696D01*
X112565430Y-60541021D01*
X112612137Y-60601973D01*
X112665661Y-60671411D01*
X112724331Y-60747194D01*
X112786475Y-60827180D01*
X112850421Y-60909228D01*
X112914495Y-60991196D01*
X112977027Y-61070943D01*
X113036343Y-61146327D01*
X113090771Y-61215207D01*
X113138639Y-61275442D01*
X113178275Y-61324889D01*
X113208006Y-61361408D01*
X113226161Y-61382858D01*
X113229220Y-61386156D01*
X113232079Y-61378149D01*
X113234293Y-61347855D01*
X113235857Y-61295556D01*
X113236767Y-61221531D01*
X113237020Y-61126063D01*
X113236613Y-61009434D01*
X113235704Y-60889445D01*
X113234382Y-60757333D01*
X113232857Y-60645594D01*
X113230881Y-60552025D01*
X113228206Y-60474419D01*
X113224582Y-60410574D01*
X113219761Y-60358283D01*
X113213494Y-60315344D01*
X113205532Y-60279551D01*
X113195627Y-60248700D01*
X113183531Y-60220586D01*
X113168993Y-60193005D01*
X113154311Y-60167966D01*
X113116314Y-60104867D01*
X114176197Y-60104867D01*
X114479034Y-60104867D01*
X114479001Y-60098617D01*
X114478195Y-59996544D01*
X114477170Y-59907633D01*
X114475900Y-59830941D01*
X114474360Y-59765527D01*
X114472524Y-59710449D01*
X114470367Y-59664765D01*
X114467863Y-59627534D01*
X114464987Y-59597813D01*
X114461713Y-59574662D01*
X114458015Y-59557139D01*
X114453869Y-59544301D01*
X114449247Y-59535208D01*
X114444126Y-59528918D01*
X114438478Y-59524488D01*
X114432279Y-59520978D01*
X114425504Y-59517445D01*
X114419508Y-59513876D01*
X114414275Y-59511300D01*
X114406099Y-59508972D01*
X114393886Y-59506878D01*
X114376541Y-59505007D01*
X114352969Y-59503347D01*
X114322077Y-59501884D01*
X114282768Y-59500608D01*
X114233950Y-59499504D01*
X114174527Y-59498561D01*
X114103404Y-59497767D01*
X114019488Y-59497109D01*
X113921683Y-59496575D01*
X113808894Y-59496153D01*
X113680029Y-59495829D01*
X113533991Y-59495592D01*
X113369686Y-59495430D01*
X113186020Y-59495330D01*
X112981897Y-59495280D01*
X112770753Y-59495267D01*
X111150400Y-59495267D01*
X111150400Y-59592054D01*
G36*
X101975177Y-64377533D02*
X101943798Y-64399776D01*
X101916089Y-64427485D01*
X101916089Y-64736920D01*
X101916162Y-64828799D01*
X101916505Y-64900840D01*
X101917308Y-64955780D01*
X101918759Y-64996360D01*
X101921048Y-65025317D01*
X101924364Y-65045391D01*
X101928895Y-65059321D01*
X101934831Y-65069845D01*
X101939486Y-65076100D01*
X101970217Y-65100673D01*
X102005504Y-65103341D01*
X102037755Y-65088271D01*
X102048412Y-65079374D01*
X102055536Y-65067557D01*
X102059833Y-65048526D01*
X102062009Y-65017992D01*
X102062772Y-64971662D01*
X102062845Y-64935871D01*
X102062845Y-64801045D01*
X102559556Y-64801045D01*
X102559556Y-64923700D01*
X102560069Y-64979787D01*
X102562124Y-65018333D01*
X102566492Y-65044361D01*
X102573944Y-65062897D01*
X102582953Y-65076100D01*
X102613856Y-65100604D01*
X102648804Y-65103506D01*
X102682262Y-65086089D01*
X102691396Y-65076959D01*
X102697848Y-65064855D01*
X102702103Y-65046001D01*
X102704648Y-65016620D01*
X102705971Y-64972937D01*
X102706557Y-64911175D01*
X102706625Y-64897000D01*
X102707109Y-64780631D01*
X102707359Y-64684727D01*
X102707277Y-64607177D01*
X102706769Y-64545869D01*
X102705738Y-64498690D01*
X102704087Y-64463530D01*
X102701721Y-64438276D01*
X102698543Y-64420817D01*
X102694456Y-64409041D01*
X102689366Y-64400835D01*
X102683734Y-64394645D01*
X102651872Y-64374844D01*
X102618643Y-64377533D01*
X102587265Y-64399776D01*
X102574567Y-64414126D01*
X102566474Y-64429978D01*
X102561958Y-64452554D01*
X102559994Y-64487078D01*
X102559556Y-64538776D01*
X102559556Y-64654289D01*
X102062845Y-64654289D01*
X102062845Y-64535756D01*
X102062338Y-64481148D01*
X102060302Y-64444275D01*
X102055965Y-64420307D01*
X102048553Y-64404415D01*
X102040267Y-64394645D01*
X102008406Y-64374844D01*
X101975177Y-64377533D01*
X101975177Y-64377533D01*
G37*
X101975177Y-64377533D02*
X101943798Y-64399776D01*
X101916089Y-64427485D01*
X101916089Y-64736920D01*
X101916162Y-64828799D01*
X101916505Y-64900840D01*
X101917308Y-64955780D01*
X101918759Y-64996360D01*
X101921048Y-65025317D01*
X101924364Y-65045391D01*
X101928895Y-65059321D01*
X101934831Y-65069845D01*
X101939486Y-65076100D01*
X101970217Y-65100673D01*
X102005504Y-65103341D01*
X102037755Y-65088271D01*
X102048412Y-65079374D01*
X102055536Y-65067557D01*
X102059833Y-65048526D01*
X102062009Y-65017992D01*
X102062772Y-64971662D01*
X102062845Y-64935871D01*
X102062845Y-64801045D01*
X102559556Y-64801045D01*
X102559556Y-64923700D01*
X102560069Y-64979787D01*
X102562124Y-65018333D01*
X102566492Y-65044361D01*
X102573944Y-65062897D01*
X102582953Y-65076100D01*
X102613856Y-65100604D01*
X102648804Y-65103506D01*
X102682262Y-65086089D01*
X102691396Y-65076959D01*
X102697848Y-65064855D01*
X102702103Y-65046001D01*
X102704648Y-65016620D01*
X102705971Y-64972937D01*
X102706557Y-64911175D01*
X102706625Y-64897000D01*
X102707109Y-64780631D01*
X102707359Y-64684727D01*
X102707277Y-64607177D01*
X102706769Y-64545869D01*
X102705738Y-64498690D01*
X102704087Y-64463530D01*
X102701721Y-64438276D01*
X102698543Y-64420817D01*
X102694456Y-64409041D01*
X102689366Y-64400835D01*
X102683734Y-64394645D01*
X102651872Y-64374844D01*
X102618643Y-64377533D01*
X102587265Y-64399776D01*
X102574567Y-64414126D01*
X102566474Y-64429978D01*
X102561958Y-64452554D01*
X102559994Y-64487078D01*
X102559556Y-64538776D01*
X102559556Y-64654289D01*
X102062845Y-64654289D01*
X102062845Y-64535756D01*
X102062338Y-64481148D01*
X102060302Y-64444275D01*
X102055965Y-64420307D01*
X102048553Y-64404415D01*
X102040267Y-64394645D01*
X102008406Y-64374844D01*
X101975177Y-64377533D01*
G36*
X103240935Y-64372163D02*
X103162228Y-64372542D01*
X103101137Y-64373333D01*
X103055183Y-64374670D01*
X103021886Y-64376683D01*
X102998764Y-64379506D01*
X102983338Y-64383269D01*
X102973129Y-64388105D01*
X102968187Y-64391822D01*
X102942543Y-64424358D01*
X102939441Y-64458138D01*
X102955289Y-64488826D01*
X102965652Y-64501089D01*
X102976804Y-64509450D01*
X102992965Y-64514657D01*
X103018358Y-64517457D01*
X103057202Y-64518596D01*
X103113720Y-64518821D01*
X103124820Y-64518822D01*
X103270756Y-64518822D01*
X103270756Y-64789756D01*
X103270852Y-64875154D01*
X103271289Y-64940864D01*
X103272288Y-64989774D01*
X103274072Y-65024773D01*
X103276863Y-65048749D01*
X103280883Y-65064593D01*
X103286355Y-65075191D01*
X103293334Y-65083267D01*
X103326266Y-65103112D01*
X103360646Y-65101548D01*
X103391824Y-65078906D01*
X103394114Y-65076100D01*
X103401571Y-65065492D01*
X103407253Y-65053081D01*
X103411399Y-65035850D01*
X103414250Y-65010784D01*
X103416046Y-64974867D01*
X103417028Y-64925083D01*
X103417436Y-64858417D01*
X103417511Y-64782589D01*
X103417511Y-64518822D01*
X103556873Y-64518822D01*
X103616678Y-64518418D01*
X103658082Y-64516840D01*
X103685252Y-64513547D01*
X103702354Y-64507992D01*
X103713557Y-64499631D01*
X103714917Y-64498178D01*
X103731275Y-64464939D01*
X103729828Y-64427362D01*
X103711022Y-64394645D01*
X103703750Y-64388298D01*
X103694373Y-64383266D01*
X103680391Y-64379396D01*
X103659304Y-64376537D01*
X103628611Y-64374535D01*
X103585811Y-64373239D01*
X103528405Y-64372498D01*
X103453890Y-64372158D01*
X103359767Y-64372068D01*
X103339740Y-64372067D01*
X103240935Y-64372163D01*
X103240935Y-64372163D01*
G37*
X103240935Y-64372163D02*
X103162228Y-64372542D01*
X103101137Y-64373333D01*
X103055183Y-64374670D01*
X103021886Y-64376683D01*
X102998764Y-64379506D01*
X102983338Y-64383269D01*
X102973129Y-64388105D01*
X102968187Y-64391822D01*
X102942543Y-64424358D01*
X102939441Y-64458138D01*
X102955289Y-64488826D01*
X102965652Y-64501089D01*
X102976804Y-64509450D01*
X102992965Y-64514657D01*
X103018358Y-64517457D01*
X103057202Y-64518596D01*
X103113720Y-64518821D01*
X103124820Y-64518822D01*
X103270756Y-64518822D01*
X103270756Y-64789756D01*
X103270852Y-64875154D01*
X103271289Y-64940864D01*
X103272288Y-64989774D01*
X103274072Y-65024773D01*
X103276863Y-65048749D01*
X103280883Y-65064593D01*
X103286355Y-65075191D01*
X103293334Y-65083267D01*
X103326266Y-65103112D01*
X103360646Y-65101548D01*
X103391824Y-65078906D01*
X103394114Y-65076100D01*
X103401571Y-65065492D01*
X103407253Y-65053081D01*
X103411399Y-65035850D01*
X103414250Y-65010784D01*
X103416046Y-64974867D01*
X103417028Y-64925083D01*
X103417436Y-64858417D01*
X103417511Y-64782589D01*
X103417511Y-64518822D01*
X103556873Y-64518822D01*
X103616678Y-64518418D01*
X103658082Y-64516840D01*
X103685252Y-64513547D01*
X103702354Y-64507992D01*
X103713557Y-64499631D01*
X103714917Y-64498178D01*
X103731275Y-64464939D01*
X103729828Y-64427362D01*
X103711022Y-64394645D01*
X103703750Y-64388298D01*
X103694373Y-64383266D01*
X103680391Y-64379396D01*
X103659304Y-64376537D01*
X103628611Y-64374535D01*
X103585811Y-64373239D01*
X103528405Y-64372498D01*
X103453890Y-64372158D01*
X103359767Y-64372068D01*
X103339740Y-64372067D01*
X103240935Y-64372163D01*
G36*
X104015386Y-64378877D02*
X103991673Y-64393647D01*
X103965022Y-64415227D01*
X103965022Y-64736773D01*
X103965107Y-64830830D01*
X103965471Y-64904932D01*
X103966276Y-64961704D01*
X103967687Y-65003768D01*
X103969867Y-65033748D01*
X103972979Y-65054267D01*
X103977186Y-65067949D01*
X103982652Y-65077416D01*
X103986528Y-65082082D01*
X104017966Y-65102575D01*
X104053767Y-65101739D01*
X104085127Y-65084264D01*
X104111778Y-65062684D01*
X104111778Y-64415227D01*
X104085127Y-64393647D01*
X104059406Y-64377949D01*
X104038400Y-64372067D01*
X104015386Y-64378877D01*
X104015386Y-64378877D01*
G37*
X104015386Y-64378877D02*
X103991673Y-64393647D01*
X103965022Y-64415227D01*
X103965022Y-64736773D01*
X103965107Y-64830830D01*
X103965471Y-64904932D01*
X103966276Y-64961704D01*
X103967687Y-65003768D01*
X103969867Y-65033748D01*
X103972979Y-65054267D01*
X103977186Y-65067949D01*
X103982652Y-65077416D01*
X103986528Y-65082082D01*
X104017966Y-65102575D01*
X104053767Y-65101739D01*
X104085127Y-65084264D01*
X104111778Y-65062684D01*
X104111778Y-64415227D01*
X104085127Y-64393647D01*
X104059406Y-64377949D01*
X104038400Y-64372067D01*
X104015386Y-64378877D01*
G36*
X104459335Y-64374034D02*
X104439745Y-64381035D01*
X104438990Y-64381377D01*
X104412387Y-64401678D01*
X104397730Y-64422561D01*
X104394862Y-64432352D01*
X104395004Y-64445361D01*
X104399039Y-64463895D01*
X104407854Y-64490257D01*
X104422331Y-64526752D01*
X104443355Y-64575687D01*
X104471812Y-64639365D01*
X104508585Y-64720093D01*
X104528825Y-64764216D01*
X104565375Y-64842985D01*
X104599685Y-64915423D01*
X104630448Y-64978880D01*
X104656352Y-65030708D01*
X104676090Y-65068259D01*
X104688350Y-65088884D01*
X104690776Y-65091733D01*
X104721817Y-65104302D01*
X104756879Y-65102619D01*
X104785000Y-65087332D01*
X104786146Y-65086089D01*
X104797332Y-65069154D01*
X104816096Y-65036170D01*
X104840125Y-64991380D01*
X104867103Y-64939032D01*
X104876799Y-64919742D01*
X104949986Y-64773150D01*
X105029760Y-64932393D01*
X105058233Y-64987415D01*
X105084650Y-65035132D01*
X105106852Y-65071893D01*
X105122681Y-65094044D01*
X105128046Y-65098741D01*
X105169743Y-65105102D01*
X105204151Y-65091733D01*
X105214272Y-65077446D01*
X105231786Y-65045692D01*
X105255265Y-64999597D01*
X105283280Y-64942285D01*
X105314401Y-64876880D01*
X105347201Y-64806507D01*
X105380250Y-64734291D01*
X105412119Y-64663355D01*
X105441381Y-64596825D01*
X105466605Y-64537826D01*
X105486364Y-64489481D01*
X105499228Y-64454915D01*
X105503769Y-64437253D01*
X105503723Y-64436613D01*
X105492674Y-64414388D01*
X105470590Y-64391753D01*
X105469290Y-64390768D01*
X105442147Y-64375425D01*
X105417042Y-64375574D01*
X105407632Y-64378466D01*
X105396166Y-64384718D01*
X105383990Y-64397014D01*
X105369643Y-64417908D01*
X105351664Y-64449949D01*
X105328593Y-64495688D01*
X105298970Y-64557677D01*
X105272255Y-64614898D01*
X105241520Y-64681226D01*
X105213979Y-64740874D01*
X105191062Y-64790725D01*
X105174202Y-64827664D01*
X105164827Y-64848573D01*
X105163460Y-64851845D01*
X105157311Y-64846497D01*
X105143178Y-64824109D01*
X105122943Y-64787946D01*
X105098485Y-64741277D01*
X105088752Y-64722022D01*
X105055783Y-64657004D01*
X105030357Y-64609654D01*
X105010388Y-64577219D01*
X104993790Y-64556946D01*
X104978476Y-64546082D01*
X104962360Y-64541875D01*
X104951857Y-64541400D01*
X104933330Y-64543042D01*
X104917096Y-64549831D01*
X104900965Y-64564566D01*
X104882749Y-64590044D01*
X104860261Y-64629061D01*
X104831311Y-64684414D01*
X104815338Y-64715903D01*
X104789430Y-64766087D01*
X104766833Y-64807704D01*
X104749542Y-64837242D01*
X104739550Y-64851189D01*
X104738191Y-64851770D01*
X104731739Y-64840793D01*
X104717292Y-64812290D01*
X104696297Y-64769244D01*
X104670203Y-64714638D01*
X104640454Y-64651454D01*
X104625820Y-64620071D01*
X104587750Y-64539078D01*
X104557095Y-64476756D01*
X104532263Y-64431071D01*
X104511663Y-64399989D01*
X104493702Y-64381478D01*
X104476790Y-64373504D01*
X104459335Y-64374034D01*
X104459335Y-64374034D01*
G37*
X104459335Y-64374034D02*
X104439745Y-64381035D01*
X104438990Y-64381377D01*
X104412387Y-64401678D01*
X104397730Y-64422561D01*
X104394862Y-64432352D01*
X104395004Y-64445361D01*
X104399039Y-64463895D01*
X104407854Y-64490257D01*
X104422331Y-64526752D01*
X104443355Y-64575687D01*
X104471812Y-64639365D01*
X104508585Y-64720093D01*
X104528825Y-64764216D01*
X104565375Y-64842985D01*
X104599685Y-64915423D01*
X104630448Y-64978880D01*
X104656352Y-65030708D01*
X104676090Y-65068259D01*
X104688350Y-65088884D01*
X104690776Y-65091733D01*
X104721817Y-65104302D01*
X104756879Y-65102619D01*
X104785000Y-65087332D01*
X104786146Y-65086089D01*
X104797332Y-65069154D01*
X104816096Y-65036170D01*
X104840125Y-64991380D01*
X104867103Y-64939032D01*
X104876799Y-64919742D01*
X104949986Y-64773150D01*
X105029760Y-64932393D01*
X105058233Y-64987415D01*
X105084650Y-65035132D01*
X105106852Y-65071893D01*
X105122681Y-65094044D01*
X105128046Y-65098741D01*
X105169743Y-65105102D01*
X105204151Y-65091733D01*
X105214272Y-65077446D01*
X105231786Y-65045692D01*
X105255265Y-64999597D01*
X105283280Y-64942285D01*
X105314401Y-64876880D01*
X105347201Y-64806507D01*
X105380250Y-64734291D01*
X105412119Y-64663355D01*
X105441381Y-64596825D01*
X105466605Y-64537826D01*
X105486364Y-64489481D01*
X105499228Y-64454915D01*
X105503769Y-64437253D01*
X105503723Y-64436613D01*
X105492674Y-64414388D01*
X105470590Y-64391753D01*
X105469290Y-64390768D01*
X105442147Y-64375425D01*
X105417042Y-64375574D01*
X105407632Y-64378466D01*
X105396166Y-64384718D01*
X105383990Y-64397014D01*
X105369643Y-64417908D01*
X105351664Y-64449949D01*
X105328593Y-64495688D01*
X105298970Y-64557677D01*
X105272255Y-64614898D01*
X105241520Y-64681226D01*
X105213979Y-64740874D01*
X105191062Y-64790725D01*
X105174202Y-64827664D01*
X105164827Y-64848573D01*
X105163460Y-64851845D01*
X105157311Y-64846497D01*
X105143178Y-64824109D01*
X105122943Y-64787946D01*
X105098485Y-64741277D01*
X105088752Y-64722022D01*
X105055783Y-64657004D01*
X105030357Y-64609654D01*
X105010388Y-64577219D01*
X104993790Y-64556946D01*
X104978476Y-64546082D01*
X104962360Y-64541875D01*
X104951857Y-64541400D01*
X104933330Y-64543042D01*
X104917096Y-64549831D01*
X104900965Y-64564566D01*
X104882749Y-64590044D01*
X104860261Y-64629061D01*
X104831311Y-64684414D01*
X104815338Y-64715903D01*
X104789430Y-64766087D01*
X104766833Y-64807704D01*
X104749542Y-64837242D01*
X104739550Y-64851189D01*
X104738191Y-64851770D01*
X104731739Y-64840793D01*
X104717292Y-64812290D01*
X104696297Y-64769244D01*
X104670203Y-64714638D01*
X104640454Y-64651454D01*
X104625820Y-64620071D01*
X104587750Y-64539078D01*
X104557095Y-64476756D01*
X104532263Y-64431071D01*
X104511663Y-64399989D01*
X104493702Y-64381478D01*
X104476790Y-64373504D01*
X104459335Y-64374034D01*
G36*
X107185691Y-64372275D02*
X107056712Y-64376636D01*
X106947009Y-64389861D01*
X106854774Y-64412741D01*
X106778198Y-64446070D01*
X106715473Y-64490638D01*
X106664788Y-64547236D01*
X106624337Y-64616658D01*
X106623541Y-64618351D01*
X106599399Y-64680483D01*
X106590797Y-64735509D01*
X106597769Y-64790887D01*
X106620346Y-64854073D01*
X106624628Y-64863689D01*
X106653828Y-64919966D01*
X106686644Y-64963451D01*
X106728998Y-65000417D01*
X106786810Y-65037135D01*
X106790169Y-65039052D01*
X106840496Y-65063227D01*
X106897379Y-65081282D01*
X106964473Y-65093839D01*
X107045435Y-65101522D01*
X107143918Y-65104953D01*
X107178714Y-65105251D01*
X107344406Y-65105845D01*
X107367803Y-65076100D01*
X107374743Y-65066319D01*
X107380158Y-65054897D01*
X107384235Y-65039095D01*
X107387163Y-65016175D01*
X107389133Y-64983396D01*
X107389775Y-64959089D01*
X107233156Y-64959089D01*
X107139274Y-64959089D01*
X107084336Y-64957483D01*
X107027940Y-64953255D01*
X106981655Y-64947292D01*
X106978861Y-64946790D01*
X106896652Y-64924736D01*
X106832886Y-64891600D01*
X106785548Y-64845847D01*
X106752618Y-64785939D01*
X106746892Y-64770061D01*
X106741279Y-64745333D01*
X106743709Y-64720902D01*
X106755533Y-64688400D01*
X106762660Y-64672434D01*
X106786000Y-64630006D01*
X106814120Y-64600240D01*
X106845060Y-64579511D01*
X106907034Y-64552537D01*
X106986349Y-64532998D01*
X107078747Y-64521746D01*
X107145667Y-64519270D01*
X107233156Y-64518822D01*
X107233156Y-64959089D01*
X107389775Y-64959089D01*
X107390332Y-64938021D01*
X107390950Y-64877311D01*
X107391175Y-64798526D01*
X107391200Y-64736920D01*
X107391200Y-64427485D01*
X107363491Y-64399776D01*
X107351194Y-64388544D01*
X107337897Y-64380853D01*
X107319328Y-64376040D01*
X107291214Y-64373446D01*
X107249283Y-64372410D01*
X107189263Y-64372270D01*
X107185691Y-64372275D01*
X107185691Y-64372275D01*
G37*
X107185691Y-64372275D02*
X107056712Y-64376636D01*
X106947009Y-64389861D01*
X106854774Y-64412741D01*
X106778198Y-64446070D01*
X106715473Y-64490638D01*
X106664788Y-64547236D01*
X106624337Y-64616658D01*
X106623541Y-64618351D01*
X106599399Y-64680483D01*
X106590797Y-64735509D01*
X106597769Y-64790887D01*
X106620346Y-64854073D01*
X106624628Y-64863689D01*
X106653828Y-64919966D01*
X106686644Y-64963451D01*
X106728998Y-65000417D01*
X106786810Y-65037135D01*
X106790169Y-65039052D01*
X106840496Y-65063227D01*
X106897379Y-65081282D01*
X106964473Y-65093839D01*
X107045435Y-65101522D01*
X107143918Y-65104953D01*
X107178714Y-65105251D01*
X107344406Y-65105845D01*
X107367803Y-65076100D01*
X107374743Y-65066319D01*
X107380158Y-65054897D01*
X107384235Y-65039095D01*
X107387163Y-65016175D01*
X107389133Y-64983396D01*
X107389775Y-64959089D01*
X107233156Y-64959089D01*
X107139274Y-64959089D01*
X107084336Y-64957483D01*
X107027940Y-64953255D01*
X106981655Y-64947292D01*
X106978861Y-64946790D01*
X106896652Y-64924736D01*
X106832886Y-64891600D01*
X106785548Y-64845847D01*
X106752618Y-64785939D01*
X106746892Y-64770061D01*
X106741279Y-64745333D01*
X106743709Y-64720902D01*
X106755533Y-64688400D01*
X106762660Y-64672434D01*
X106786000Y-64630006D01*
X106814120Y-64600240D01*
X106845060Y-64579511D01*
X106907034Y-64552537D01*
X106986349Y-64532998D01*
X107078747Y-64521746D01*
X107145667Y-64519270D01*
X107233156Y-64518822D01*
X107233156Y-64959089D01*
X107389775Y-64959089D01*
X107390332Y-64938021D01*
X107390950Y-64877311D01*
X107391175Y-64798526D01*
X107391200Y-64736920D01*
X107391200Y-64427485D01*
X107363491Y-64399776D01*
X107351194Y-64388544D01*
X107337897Y-64380853D01*
X107319328Y-64376040D01*
X107291214Y-64373446D01*
X107249283Y-64372410D01*
X107189263Y-64372270D01*
X107185691Y-64372275D01*
G36*
X107973657Y-64372260D02*
X107897299Y-64373174D01*
X107838783Y-64375311D01*
X107795745Y-64379175D01*
X107765817Y-64385267D01*
X107746632Y-64394090D01*
X107735824Y-64406146D01*
X107731027Y-64421939D01*
X107729873Y-64441970D01*
X107729867Y-64444335D01*
X107730869Y-64466992D01*
X107735604Y-64484503D01*
X107746667Y-64497574D01*
X107766652Y-64506913D01*
X107798154Y-64513227D01*
X107843768Y-64517222D01*
X107906087Y-64519606D01*
X107987707Y-64521086D01*
X108012723Y-64521414D01*
X108254800Y-64524467D01*
X108258186Y-64589378D01*
X108261571Y-64654289D01*
X108093424Y-64654289D01*
X108027734Y-64654531D01*
X107980828Y-64655556D01*
X107948917Y-64657811D01*
X107928209Y-64661742D01*
X107914916Y-64667798D01*
X107905245Y-64676424D01*
X107905183Y-64676493D01*
X107887644Y-64710112D01*
X107888278Y-64746448D01*
X107906686Y-64777423D01*
X107910329Y-64780607D01*
X107923259Y-64788812D01*
X107940976Y-64794521D01*
X107967430Y-64798162D01*
X108006568Y-64800167D01*
X108062338Y-64800964D01*
X108098006Y-64801045D01*
X108260445Y-64801045D01*
X108260445Y-64959089D01*
X108013839Y-64959089D01*
X107932420Y-64959231D01*
X107870590Y-64959814D01*
X107825363Y-64961068D01*
X107793752Y-64963227D01*
X107772769Y-64966523D01*
X107759427Y-64971189D01*
X107750739Y-64977457D01*
X107748550Y-64979733D01*
X107732386Y-65011280D01*
X107731203Y-65047168D01*
X107744464Y-65078285D01*
X107754957Y-65088271D01*
X107765871Y-65093769D01*
X107782783Y-65098022D01*
X107808367Y-65101180D01*
X107845299Y-65103392D01*
X107896254Y-65104806D01*
X107963906Y-65105572D01*
X108050931Y-65105838D01*
X108070606Y-65105845D01*
X108159089Y-65105787D01*
X108227773Y-65105467D01*
X108279436Y-65104667D01*
X108316855Y-65103167D01*
X108342810Y-65100749D01*
X108360078Y-65097194D01*
X108371438Y-65092282D01*
X108379668Y-65085795D01*
X108384183Y-65081138D01*
X108390979Y-65072889D01*
X108396288Y-65062669D01*
X108400294Y-65047800D01*
X108403179Y-65025602D01*
X108405126Y-64993393D01*
X108406319Y-64948496D01*
X108406939Y-64888228D01*
X108407171Y-64809911D01*
X108407200Y-64743994D01*
X108407129Y-64651628D01*
X108406792Y-64579117D01*
X108406002Y-64523737D01*
X108404574Y-64482765D01*
X108402321Y-64453478D01*
X108399057Y-64433153D01*
X108394596Y-64419066D01*
X108388752Y-64408495D01*
X108383803Y-64401811D01*
X108360406Y-64372067D01*
X108070226Y-64372067D01*
X107973657Y-64372260D01*
X107973657Y-64372260D01*
G37*
X107973657Y-64372260D02*
X107897299Y-64373174D01*
X107838783Y-64375311D01*
X107795745Y-64379175D01*
X107765817Y-64385267D01*
X107746632Y-64394090D01*
X107735824Y-64406146D01*
X107731027Y-64421939D01*
X107729873Y-64441970D01*
X107729867Y-64444335D01*
X107730869Y-64466992D01*
X107735604Y-64484503D01*
X107746667Y-64497574D01*
X107766652Y-64506913D01*
X107798154Y-64513227D01*
X107843768Y-64517222D01*
X107906087Y-64519606D01*
X107987707Y-64521086D01*
X108012723Y-64521414D01*
X108254800Y-64524467D01*
X108258186Y-64589378D01*
X108261571Y-64654289D01*
X108093424Y-64654289D01*
X108027734Y-64654531D01*
X107980828Y-64655556D01*
X107948917Y-64657811D01*
X107928209Y-64661742D01*
X107914916Y-64667798D01*
X107905245Y-64676424D01*
X107905183Y-64676493D01*
X107887644Y-64710112D01*
X107888278Y-64746448D01*
X107906686Y-64777423D01*
X107910329Y-64780607D01*
X107923259Y-64788812D01*
X107940976Y-64794521D01*
X107967430Y-64798162D01*
X108006568Y-64800167D01*
X108062338Y-64800964D01*
X108098006Y-64801045D01*
X108260445Y-64801045D01*
X108260445Y-64959089D01*
X108013839Y-64959089D01*
X107932420Y-64959231D01*
X107870590Y-64959814D01*
X107825363Y-64961068D01*
X107793752Y-64963227D01*
X107772769Y-64966523D01*
X107759427Y-64971189D01*
X107750739Y-64977457D01*
X107748550Y-64979733D01*
X107732386Y-65011280D01*
X107731203Y-65047168D01*
X107744464Y-65078285D01*
X107754957Y-65088271D01*
X107765871Y-65093769D01*
X107782783Y-65098022D01*
X107808367Y-65101180D01*
X107845299Y-65103392D01*
X107896254Y-65104806D01*
X107963906Y-65105572D01*
X108050931Y-65105838D01*
X108070606Y-65105845D01*
X108159089Y-65105787D01*
X108227773Y-65105467D01*
X108279436Y-65104667D01*
X108316855Y-65103167D01*
X108342810Y-65100749D01*
X108360078Y-65097194D01*
X108371438Y-65092282D01*
X108379668Y-65085795D01*
X108384183Y-65081138D01*
X108390979Y-65072889D01*
X108396288Y-65062669D01*
X108400294Y-65047800D01*
X108403179Y-65025602D01*
X108405126Y-64993393D01*
X108406319Y-64948496D01*
X108406939Y-64888228D01*
X108407171Y-64809911D01*
X108407200Y-64743994D01*
X108407129Y-64651628D01*
X108406792Y-64579117D01*
X108406002Y-64523737D01*
X108404574Y-64482765D01*
X108402321Y-64453478D01*
X108399057Y-64433153D01*
X108394596Y-64419066D01*
X108388752Y-64408495D01*
X108383803Y-64401811D01*
X108360406Y-64372067D01*
X108070226Y-64372067D01*
X107973657Y-64372260D01*
G36*
X109504114Y-64376448D02*
X109480548Y-64390273D01*
X109449735Y-64412881D01*
X109410078Y-64445338D01*
X109359980Y-64488708D01*
X109297843Y-64544058D01*
X109222072Y-64612451D01*
X109135334Y-64691084D01*
X108954711Y-64854878D01*
X108949067Y-64635029D01*
X108947029Y-64559351D01*
X108945063Y-64502994D01*
X108942734Y-64462706D01*
X108939606Y-64435235D01*
X108935245Y-64417329D01*
X108929216Y-64405737D01*
X108921084Y-64397208D01*
X108916772Y-64393623D01*
X108882241Y-64374670D01*
X108849383Y-64377441D01*
X108823318Y-64393633D01*
X108796667Y-64415199D01*
X108793352Y-64730151D01*
X108792435Y-64822779D01*
X108791968Y-64895544D01*
X108792113Y-64951161D01*
X108793032Y-64992342D01*
X108794887Y-65021803D01*
X108797839Y-65042255D01*
X108802050Y-65056413D01*
X108807682Y-65066991D01*
X108813927Y-65075474D01*
X108827439Y-65091207D01*
X108840883Y-65101636D01*
X108856124Y-65105639D01*
X108875026Y-65102094D01*
X108899455Y-65089879D01*
X108931273Y-65067871D01*
X108972348Y-65034949D01*
X109024542Y-64989991D01*
X109089722Y-64931875D01*
X109163556Y-64865099D01*
X109428845Y-64624458D01*
X109434489Y-64843589D01*
X109436531Y-64919128D01*
X109438502Y-64975354D01*
X109440839Y-65015524D01*
X109443981Y-65042896D01*
X109448364Y-65060728D01*
X109454424Y-65072279D01*
X109462600Y-65080807D01*
X109466784Y-65084282D01*
X109503765Y-65103372D01*
X109538708Y-65100493D01*
X109569136Y-65076100D01*
X109576097Y-65066286D01*
X109581523Y-65054826D01*
X109585603Y-65038968D01*
X109588529Y-65015963D01*
X109590492Y-64983062D01*
X109591683Y-64937516D01*
X109592292Y-64876573D01*
X109592511Y-64797486D01*
X109592534Y-64738956D01*
X109592460Y-64647407D01*
X109592113Y-64575687D01*
X109591301Y-64521045D01*
X109589833Y-64480732D01*
X109587519Y-64451998D01*
X109584167Y-64432093D01*
X109579588Y-64418268D01*
X109573589Y-64407772D01*
X109569136Y-64401811D01*
X109557850Y-64387691D01*
X109547301Y-64377029D01*
X109535893Y-64370892D01*
X109522030Y-64370343D01*
X109504114Y-64376448D01*
X109504114Y-64376448D01*
G37*
X109504114Y-64376448D02*
X109480548Y-64390273D01*
X109449735Y-64412881D01*
X109410078Y-64445338D01*
X109359980Y-64488708D01*
X109297843Y-64544058D01*
X109222072Y-64612451D01*
X109135334Y-64691084D01*
X108954711Y-64854878D01*
X108949067Y-64635029D01*
X108947029Y-64559351D01*
X108945063Y-64502994D01*
X108942734Y-64462706D01*
X108939606Y-64435235D01*
X108935245Y-64417329D01*
X108929216Y-64405737D01*
X108921084Y-64397208D01*
X108916772Y-64393623D01*
X108882241Y-64374670D01*
X108849383Y-64377441D01*
X108823318Y-64393633D01*
X108796667Y-64415199D01*
X108793352Y-64730151D01*
X108792435Y-64822779D01*
X108791968Y-64895544D01*
X108792113Y-64951161D01*
X108793032Y-64992342D01*
X108794887Y-65021803D01*
X108797839Y-65042255D01*
X108802050Y-65056413D01*
X108807682Y-65066991D01*
X108813927Y-65075474D01*
X108827439Y-65091207D01*
X108840883Y-65101636D01*
X108856124Y-65105639D01*
X108875026Y-65102094D01*
X108899455Y-65089879D01*
X108931273Y-65067871D01*
X108972348Y-65034949D01*
X109024542Y-64989991D01*
X109089722Y-64931875D01*
X109163556Y-64865099D01*
X109428845Y-64624458D01*
X109434489Y-64843589D01*
X109436531Y-64919128D01*
X109438502Y-64975354D01*
X109440839Y-65015524D01*
X109443981Y-65042896D01*
X109448364Y-65060728D01*
X109454424Y-65072279D01*
X109462600Y-65080807D01*
X109466784Y-65084282D01*
X109503765Y-65103372D01*
X109538708Y-65100493D01*
X109569136Y-65076100D01*
X109576097Y-65066286D01*
X109581523Y-65054826D01*
X109585603Y-65038968D01*
X109588529Y-65015963D01*
X109590492Y-64983062D01*
X109591683Y-64937516D01*
X109592292Y-64876573D01*
X109592511Y-64797486D01*
X109592534Y-64738956D01*
X109592460Y-64647407D01*
X109592113Y-64575687D01*
X109591301Y-64521045D01*
X109589833Y-64480732D01*
X109587519Y-64451998D01*
X109584167Y-64432093D01*
X109579588Y-64418268D01*
X109573589Y-64407772D01*
X109569136Y-64401811D01*
X109557850Y-64387691D01*
X109547301Y-64377029D01*
X109535893Y-64370892D01*
X109522030Y-64370343D01*
X109504114Y-64376448D01*
G36*
X110154081Y-64377599D02*
X110085565Y-64389095D01*
X110032943Y-64406967D01*
X109998708Y-64430499D01*
X109989379Y-64443924D01*
X109979893Y-64475148D01*
X109986277Y-64503395D01*
X110006430Y-64530182D01*
X110037745Y-64542713D01*
X110083183Y-64541696D01*
X110118326Y-64534906D01*
X110196419Y-64521971D01*
X110276226Y-64520742D01*
X110365555Y-64531241D01*
X110390229Y-64535690D01*
X110473291Y-64559108D01*
X110538273Y-64593945D01*
X110584461Y-64639604D01*
X110611145Y-64695494D01*
X110616663Y-64724388D01*
X110613051Y-64783012D01*
X110589729Y-64834879D01*
X110548824Y-64878978D01*
X110492459Y-64914299D01*
X110422760Y-64939829D01*
X110341852Y-64954559D01*
X110251860Y-64957478D01*
X110154910Y-64947575D01*
X110149436Y-64946641D01*
X110110875Y-64939459D01*
X110089494Y-64932521D01*
X110080227Y-64922227D01*
X110078006Y-64904976D01*
X110077956Y-64895841D01*
X110077956Y-64857489D01*
X110146431Y-64857489D01*
X110206900Y-64853347D01*
X110248165Y-64840147D01*
X110272175Y-64816730D01*
X110280877Y-64781936D01*
X110280983Y-64777394D01*
X110275892Y-64747654D01*
X110258433Y-64726419D01*
X110225939Y-64712366D01*
X110175743Y-64704173D01*
X110127123Y-64701161D01*
X110056456Y-64699433D01*
X110005198Y-64702070D01*
X109970239Y-64711800D01*
X109948470Y-64731353D01*
X109936780Y-64763456D01*
X109932060Y-64810838D01*
X109931200Y-64873071D01*
X109932609Y-64942535D01*
X109936848Y-64989786D01*
X109943936Y-65015012D01*
X109945311Y-65016988D01*
X109984228Y-65048508D01*
X110041286Y-65073470D01*
X110112869Y-65091340D01*
X110195358Y-65101586D01*
X110285139Y-65103673D01*
X110378592Y-65097068D01*
X110433556Y-65088956D01*
X110519766Y-65064554D01*
X110599892Y-65024662D01*
X110666977Y-64972887D01*
X110677173Y-64962539D01*
X110710302Y-64919035D01*
X110740194Y-64865118D01*
X110763357Y-64808592D01*
X110776298Y-64757259D01*
X110777858Y-64737544D01*
X110771218Y-64696419D01*
X110753568Y-64645252D01*
X110728297Y-64591394D01*
X110698789Y-64542195D01*
X110672719Y-64509334D01*
X110611765Y-64460452D01*
X110532969Y-64421545D01*
X110439157Y-64393494D01*
X110333150Y-64377179D01*
X110236000Y-64373192D01*
X110154081Y-64377599D01*
X110154081Y-64377599D01*
G37*
X110154081Y-64377599D02*
X110085565Y-64389095D01*
X110032943Y-64406967D01*
X109998708Y-64430499D01*
X109989379Y-64443924D01*
X109979893Y-64475148D01*
X109986277Y-64503395D01*
X110006430Y-64530182D01*
X110037745Y-64542713D01*
X110083183Y-64541696D01*
X110118326Y-64534906D01*
X110196419Y-64521971D01*
X110276226Y-64520742D01*
X110365555Y-64531241D01*
X110390229Y-64535690D01*
X110473291Y-64559108D01*
X110538273Y-64593945D01*
X110584461Y-64639604D01*
X110611145Y-64695494D01*
X110616663Y-64724388D01*
X110613051Y-64783012D01*
X110589729Y-64834879D01*
X110548824Y-64878978D01*
X110492459Y-64914299D01*
X110422760Y-64939829D01*
X110341852Y-64954559D01*
X110251860Y-64957478D01*
X110154910Y-64947575D01*
X110149436Y-64946641D01*
X110110875Y-64939459D01*
X110089494Y-64932521D01*
X110080227Y-64922227D01*
X110078006Y-64904976D01*
X110077956Y-64895841D01*
X110077956Y-64857489D01*
X110146431Y-64857489D01*
X110206900Y-64853347D01*
X110248165Y-64840147D01*
X110272175Y-64816730D01*
X110280877Y-64781936D01*
X110280983Y-64777394D01*
X110275892Y-64747654D01*
X110258433Y-64726419D01*
X110225939Y-64712366D01*
X110175743Y-64704173D01*
X110127123Y-64701161D01*
X110056456Y-64699433D01*
X110005198Y-64702070D01*
X109970239Y-64711800D01*
X109948470Y-64731353D01*
X109936780Y-64763456D01*
X109932060Y-64810838D01*
X109931200Y-64873071D01*
X109932609Y-64942535D01*
X109936848Y-64989786D01*
X109943936Y-65015012D01*
X109945311Y-65016988D01*
X109984228Y-65048508D01*
X110041286Y-65073470D01*
X110112869Y-65091340D01*
X110195358Y-65101586D01*
X110285139Y-65103673D01*
X110378592Y-65097068D01*
X110433556Y-65088956D01*
X110519766Y-65064554D01*
X110599892Y-65024662D01*
X110666977Y-64972887D01*
X110677173Y-64962539D01*
X110710302Y-64919035D01*
X110740194Y-64865118D01*
X110763357Y-64808592D01*
X110776298Y-64757259D01*
X110777858Y-64737544D01*
X110771218Y-64696419D01*
X110753568Y-64645252D01*
X110728297Y-64591394D01*
X110698789Y-64542195D01*
X110672719Y-64509334D01*
X110611765Y-64460452D01*
X110532969Y-64421545D01*
X110439157Y-64393494D01*
X110333150Y-64377179D01*
X110236000Y-64373192D01*
X110154081Y-64377599D01*
G36*
X111127822Y-64394645D02*
X111121242Y-64402218D01*
X111116079Y-64411987D01*
X111112164Y-64426571D01*
X111109324Y-64448585D01*
X111107387Y-64480648D01*
X111106183Y-64525375D01*
X111105539Y-64585385D01*
X111105284Y-64663294D01*
X111105245Y-64738956D01*
X111105314Y-64832802D01*
X111105638Y-64906689D01*
X111106386Y-64963232D01*
X111107732Y-65005049D01*
X111109846Y-65034757D01*
X111112900Y-65054973D01*
X111117066Y-65068314D01*
X111122516Y-65077398D01*
X111127822Y-65083267D01*
X111160826Y-65102947D01*
X111195991Y-65101181D01*
X111227455Y-65079717D01*
X111234684Y-65071337D01*
X111240334Y-65061614D01*
X111244599Y-65047861D01*
X111247673Y-65027389D01*
X111249752Y-64997512D01*
X111251030Y-64955541D01*
X111251701Y-64898789D01*
X111251959Y-64824567D01*
X111252000Y-64740537D01*
X111252000Y-64427485D01*
X111224291Y-64399776D01*
X111190137Y-64376463D01*
X111157006Y-64375623D01*
X111127822Y-64394645D01*
X111127822Y-64394645D01*
G37*
X111127822Y-64394645D02*
X111121242Y-64402218D01*
X111116079Y-64411987D01*
X111112164Y-64426571D01*
X111109324Y-64448585D01*
X111107387Y-64480648D01*
X111106183Y-64525375D01*
X111105539Y-64585385D01*
X111105284Y-64663294D01*
X111105245Y-64738956D01*
X111105314Y-64832802D01*
X111105638Y-64906689D01*
X111106386Y-64963232D01*
X111107732Y-65005049D01*
X111109846Y-65034757D01*
X111112900Y-65054973D01*
X111117066Y-65068314D01*
X111122516Y-65077398D01*
X111127822Y-65083267D01*
X111160826Y-65102947D01*
X111195991Y-65101181D01*
X111227455Y-65079717D01*
X111234684Y-65071337D01*
X111240334Y-65061614D01*
X111244599Y-65047861D01*
X111247673Y-65027389D01*
X111249752Y-64997512D01*
X111251030Y-64955541D01*
X111251701Y-64898789D01*
X111251959Y-64824567D01*
X111252000Y-64740537D01*
X111252000Y-64427485D01*
X111224291Y-64399776D01*
X111190137Y-64376463D01*
X111157006Y-64375623D01*
X111127822Y-64394645D01*
G36*
X111895703Y-64373351D02*
X111820888Y-64378581D01*
X111751306Y-64386750D01*
X111691002Y-64397550D01*
X111644020Y-64410673D01*
X111614406Y-64425813D01*
X111609860Y-64430269D01*
X111594054Y-64464850D01*
X111598847Y-64500351D01*
X111623364Y-64530725D01*
X111624534Y-64531596D01*
X111638954Y-64540954D01*
X111654008Y-64545876D01*
X111675005Y-64546473D01*
X111707257Y-64542861D01*
X111756073Y-64535154D01*
X111760000Y-64534505D01*
X111832739Y-64525569D01*
X111911217Y-64521161D01*
X111989927Y-64521119D01*
X112063361Y-64525279D01*
X112126011Y-64533479D01*
X112172370Y-64545557D01*
X112175416Y-64546771D01*
X112209048Y-64565615D01*
X112220864Y-64584685D01*
X112211614Y-64603439D01*
X112182047Y-64621337D01*
X112132911Y-64637837D01*
X112064957Y-64652396D01*
X112019645Y-64659406D01*
X111925456Y-64672889D01*
X111850544Y-64685214D01*
X111791717Y-64697449D01*
X111745785Y-64710661D01*
X111709555Y-64725917D01*
X111679838Y-64744285D01*
X111653442Y-64766831D01*
X111632230Y-64788971D01*
X111607065Y-64819819D01*
X111594681Y-64846345D01*
X111590808Y-64879026D01*
X111590667Y-64890995D01*
X111593576Y-64930712D01*
X111605202Y-64960259D01*
X111625323Y-64986486D01*
X111666216Y-65026576D01*
X111711817Y-65057149D01*
X111765513Y-65079203D01*
X111830692Y-65093735D01*
X111910744Y-65101741D01*
X112009057Y-65104218D01*
X112025289Y-65104177D01*
X112090849Y-65102818D01*
X112155866Y-65099730D01*
X112213252Y-65095356D01*
X112255922Y-65090140D01*
X112259372Y-65089541D01*
X112301796Y-65079491D01*
X112337780Y-65066796D01*
X112358150Y-65055190D01*
X112377107Y-65024572D01*
X112378427Y-64988918D01*
X112362085Y-64957144D01*
X112358429Y-64953551D01*
X112343315Y-64942876D01*
X112324415Y-64938276D01*
X112295162Y-64939059D01*
X112259651Y-64943127D01*
X112219970Y-64946762D01*
X112164345Y-64949828D01*
X112099406Y-64952053D01*
X112031785Y-64953164D01*
X112014000Y-64953237D01*
X111946128Y-64952964D01*
X111896454Y-64951646D01*
X111860610Y-64948827D01*
X111834224Y-64944050D01*
X111812926Y-64936857D01*
X111800126Y-64930867D01*
X111772000Y-64914233D01*
X111754068Y-64899168D01*
X111751447Y-64894897D01*
X111756976Y-64877263D01*
X111783260Y-64860192D01*
X111828478Y-64844458D01*
X111890808Y-64830838D01*
X111909171Y-64827804D01*
X112005090Y-64812738D01*
X112081641Y-64800146D01*
X112141780Y-64789111D01*
X112188460Y-64778720D01*
X112224637Y-64768056D01*
X112253265Y-64756205D01*
X112277298Y-64742251D01*
X112299692Y-64725281D01*
X112323402Y-64704378D01*
X112331380Y-64697049D01*
X112359353Y-64669699D01*
X112374160Y-64648029D01*
X112379952Y-64623232D01*
X112380889Y-64591983D01*
X112370575Y-64530705D01*
X112339752Y-64478640D01*
X112288595Y-64435958D01*
X112217283Y-64402825D01*
X112166400Y-64387964D01*
X112111100Y-64378366D01*
X112044853Y-64372936D01*
X111971706Y-64371367D01*
X111895703Y-64373351D01*
X111895703Y-64373351D01*
G37*
X111895703Y-64373351D02*
X111820888Y-64378581D01*
X111751306Y-64386750D01*
X111691002Y-64397550D01*
X111644020Y-64410673D01*
X111614406Y-64425813D01*
X111609860Y-64430269D01*
X111594054Y-64464850D01*
X111598847Y-64500351D01*
X111623364Y-64530725D01*
X111624534Y-64531596D01*
X111638954Y-64540954D01*
X111654008Y-64545876D01*
X111675005Y-64546473D01*
X111707257Y-64542861D01*
X111756073Y-64535154D01*
X111760000Y-64534505D01*
X111832739Y-64525569D01*
X111911217Y-64521161D01*
X111989927Y-64521119D01*
X112063361Y-64525279D01*
X112126011Y-64533479D01*
X112172370Y-64545557D01*
X112175416Y-64546771D01*
X112209048Y-64565615D01*
X112220864Y-64584685D01*
X112211614Y-64603439D01*
X112182047Y-64621337D01*
X112132911Y-64637837D01*
X112064957Y-64652396D01*
X112019645Y-64659406D01*
X111925456Y-64672889D01*
X111850544Y-64685214D01*
X111791717Y-64697449D01*
X111745785Y-64710661D01*
X111709555Y-64725917D01*
X111679838Y-64744285D01*
X111653442Y-64766831D01*
X111632230Y-64788971D01*
X111607065Y-64819819D01*
X111594681Y-64846345D01*
X111590808Y-64879026D01*
X111590667Y-64890995D01*
X111593576Y-64930712D01*
X111605202Y-64960259D01*
X111625323Y-64986486D01*
X111666216Y-65026576D01*
X111711817Y-65057149D01*
X111765513Y-65079203D01*
X111830692Y-65093735D01*
X111910744Y-65101741D01*
X112009057Y-65104218D01*
X112025289Y-65104177D01*
X112090849Y-65102818D01*
X112155866Y-65099730D01*
X112213252Y-65095356D01*
X112255922Y-65090140D01*
X112259372Y-65089541D01*
X112301796Y-65079491D01*
X112337780Y-65066796D01*
X112358150Y-65055190D01*
X112377107Y-65024572D01*
X112378427Y-64988918D01*
X112362085Y-64957144D01*
X112358429Y-64953551D01*
X112343315Y-64942876D01*
X112324415Y-64938276D01*
X112295162Y-64939059D01*
X112259651Y-64943127D01*
X112219970Y-64946762D01*
X112164345Y-64949828D01*
X112099406Y-64952053D01*
X112031785Y-64953164D01*
X112014000Y-64953237D01*
X111946128Y-64952964D01*
X111896454Y-64951646D01*
X111860610Y-64948827D01*
X111834224Y-64944050D01*
X111812926Y-64936857D01*
X111800126Y-64930867D01*
X111772000Y-64914233D01*
X111754068Y-64899168D01*
X111751447Y-64894897D01*
X111756976Y-64877263D01*
X111783260Y-64860192D01*
X111828478Y-64844458D01*
X111890808Y-64830838D01*
X111909171Y-64827804D01*
X112005090Y-64812738D01*
X112081641Y-64800146D01*
X112141780Y-64789111D01*
X112188460Y-64778720D01*
X112224637Y-64768056D01*
X112253265Y-64756205D01*
X112277298Y-64742251D01*
X112299692Y-64725281D01*
X112323402Y-64704378D01*
X112331380Y-64697049D01*
X112359353Y-64669699D01*
X112374160Y-64648029D01*
X112379952Y-64623232D01*
X112380889Y-64591983D01*
X112370575Y-64530705D01*
X112339752Y-64478640D01*
X112288595Y-64435958D01*
X112217283Y-64402825D01*
X112166400Y-64387964D01*
X112111100Y-64378366D01*
X112044853Y-64372936D01*
X111971706Y-64371367D01*
X111895703Y-64373351D01*
G36*
X112916794Y-64372146D02*
X112847386Y-64372518D01*
X112794997Y-64373385D01*
X112756847Y-64374946D01*
X112730159Y-64377403D01*
X112712153Y-64380957D01*
X112700049Y-64385810D01*
X112691069Y-64392161D01*
X112687818Y-64395084D01*
X112668043Y-64426142D01*
X112664482Y-64461828D01*
X112677491Y-64493510D01*
X112683506Y-64499913D01*
X112693235Y-64506121D01*
X112708901Y-64510910D01*
X112733408Y-64514514D01*
X112769661Y-64517164D01*
X112820565Y-64519095D01*
X112889026Y-64520539D01*
X112951617Y-64521418D01*
X113199334Y-64524467D01*
X113202719Y-64589378D01*
X113206105Y-64654289D01*
X113037958Y-64654289D01*
X112964959Y-64654919D01*
X112911517Y-64657553D01*
X112874628Y-64663309D01*
X112851288Y-64673304D01*
X112838494Y-64688656D01*
X112833242Y-64710482D01*
X112832445Y-64730738D01*
X112834923Y-64755592D01*
X112844277Y-64773906D01*
X112863383Y-64786637D01*
X112895118Y-64794741D01*
X112942359Y-64799176D01*
X113007983Y-64800899D01*
X113043801Y-64801045D01*
X113204978Y-64801045D01*
X113204978Y-64959089D01*
X112956622Y-64959089D01*
X112875213Y-64959202D01*
X112813342Y-64959712D01*
X112767968Y-64960870D01*
X112736054Y-64962930D01*
X112714559Y-64966146D01*
X112700443Y-64970772D01*
X112690668Y-64977059D01*
X112685689Y-64981667D01*
X112668610Y-65008560D01*
X112663111Y-65032467D01*
X112670963Y-65061667D01*
X112685689Y-65083267D01*
X112693546Y-65090066D01*
X112703688Y-65095346D01*
X112718844Y-65099298D01*
X112741741Y-65102113D01*
X112775109Y-65103982D01*
X112821675Y-65105098D01*
X112884167Y-65105651D01*
X112965314Y-65105833D01*
X113007422Y-65105845D01*
X113097598Y-65105765D01*
X113167924Y-65105398D01*
X113221129Y-65104552D01*
X113259940Y-65103036D01*
X113287087Y-65100659D01*
X113305298Y-65097229D01*
X113317300Y-65092554D01*
X113325822Y-65086444D01*
X113329156Y-65083267D01*
X113335755Y-65075670D01*
X113340927Y-65065870D01*
X113344846Y-65051239D01*
X113347684Y-65029152D01*
X113349615Y-64996982D01*
X113350812Y-64952103D01*
X113351448Y-64891889D01*
X113351697Y-64813713D01*
X113351734Y-64740923D01*
X113351700Y-64647707D01*
X113351465Y-64574431D01*
X113350830Y-64518458D01*
X113349594Y-64477151D01*
X113347556Y-64447872D01*
X113344517Y-64427984D01*
X113340277Y-64414850D01*
X113334635Y-64405832D01*
X113327391Y-64398293D01*
X113325606Y-64396612D01*
X113316945Y-64389172D01*
X113306882Y-64383409D01*
X113292625Y-64379112D01*
X113271383Y-64376064D01*
X113240364Y-64374051D01*
X113196777Y-64372860D01*
X113137831Y-64372275D01*
X113060734Y-64372083D01*
X113006001Y-64372067D01*
X112916794Y-64372146D01*
X112916794Y-64372146D01*
G37*
X112916794Y-64372146D02*
X112847386Y-64372518D01*
X112794997Y-64373385D01*
X112756847Y-64374946D01*
X112730159Y-64377403D01*
X112712153Y-64380957D01*
X112700049Y-64385810D01*
X112691069Y-64392161D01*
X112687818Y-64395084D01*
X112668043Y-64426142D01*
X112664482Y-64461828D01*
X112677491Y-64493510D01*
X112683506Y-64499913D01*
X112693235Y-64506121D01*
X112708901Y-64510910D01*
X112733408Y-64514514D01*
X112769661Y-64517164D01*
X112820565Y-64519095D01*
X112889026Y-64520539D01*
X112951617Y-64521418D01*
X113199334Y-64524467D01*
X113202719Y-64589378D01*
X113206105Y-64654289D01*
X113037958Y-64654289D01*
X112964959Y-64654919D01*
X112911517Y-64657553D01*
X112874628Y-64663309D01*
X112851288Y-64673304D01*
X112838494Y-64688656D01*
X112833242Y-64710482D01*
X112832445Y-64730738D01*
X112834923Y-64755592D01*
X112844277Y-64773906D01*
X112863383Y-64786637D01*
X112895118Y-64794741D01*
X112942359Y-64799176D01*
X113007983Y-64800899D01*
X113043801Y-64801045D01*
X113204978Y-64801045D01*
X113204978Y-64959089D01*
X112956622Y-64959089D01*
X112875213Y-64959202D01*
X112813342Y-64959712D01*
X112767968Y-64960870D01*
X112736054Y-64962930D01*
X112714559Y-64966146D01*
X112700443Y-64970772D01*
X112690668Y-64977059D01*
X112685689Y-64981667D01*
X112668610Y-65008560D01*
X112663111Y-65032467D01*
X112670963Y-65061667D01*
X112685689Y-65083267D01*
X112693546Y-65090066D01*
X112703688Y-65095346D01*
X112718844Y-65099298D01*
X112741741Y-65102113D01*
X112775109Y-65103982D01*
X112821675Y-65105098D01*
X112884167Y-65105651D01*
X112965314Y-65105833D01*
X113007422Y-65105845D01*
X113097598Y-65105765D01*
X113167924Y-65105398D01*
X113221129Y-65104552D01*
X113259940Y-65103036D01*
X113287087Y-65100659D01*
X113305298Y-65097229D01*
X113317300Y-65092554D01*
X113325822Y-65086444D01*
X113329156Y-65083267D01*
X113335755Y-65075670D01*
X113340927Y-65065870D01*
X113344846Y-65051239D01*
X113347684Y-65029152D01*
X113349615Y-64996982D01*
X113350812Y-64952103D01*
X113351448Y-64891889D01*
X113351697Y-64813713D01*
X113351734Y-64740923D01*
X113351700Y-64647707D01*
X113351465Y-64574431D01*
X113350830Y-64518458D01*
X113349594Y-64477151D01*
X113347556Y-64447872D01*
X113344517Y-64427984D01*
X113340277Y-64414850D01*
X113334635Y-64405832D01*
X113327391Y-64398293D01*
X113325606Y-64396612D01*
X113316945Y-64389172D01*
X113306882Y-64383409D01*
X113292625Y-64379112D01*
X113271383Y-64376064D01*
X113240364Y-64374051D01*
X113196777Y-64372860D01*
X113137831Y-64372275D01*
X113060734Y-64372083D01*
X113006001Y-64372067D01*
X112916794Y-64372146D01*
G36*
X114325371Y-64372066D02*
X114285889Y-64372467D01*
X114170200Y-64375259D01*
X114073311Y-64383550D01*
X113991919Y-64398232D01*
X113922723Y-64420193D01*
X113862420Y-64450322D01*
X113807708Y-64489510D01*
X113788167Y-64506532D01*
X113755750Y-64546363D01*
X113726520Y-64600413D01*
X113703991Y-64660323D01*
X113691679Y-64717739D01*
X113690400Y-64738956D01*
X113698417Y-64797769D01*
X113719899Y-64862013D01*
X113750999Y-64922821D01*
X113787866Y-64971330D01*
X113793854Y-64977182D01*
X113844579Y-65018321D01*
X113900125Y-65050435D01*
X113963696Y-65074365D01*
X114038494Y-65090953D01*
X114127722Y-65101041D01*
X114234582Y-65105469D01*
X114283528Y-65105845D01*
X114345762Y-65105545D01*
X114389528Y-65104292D01*
X114418931Y-65101554D01*
X114438079Y-65096801D01*
X114451077Y-65089501D01*
X114458045Y-65083267D01*
X114464626Y-65075694D01*
X114469788Y-65065924D01*
X114473703Y-65051340D01*
X114476543Y-65029326D01*
X114478480Y-64997264D01*
X114479684Y-64952536D01*
X114480328Y-64892526D01*
X114480583Y-64814617D01*
X114480622Y-64738956D01*
X114480870Y-64638041D01*
X114480817Y-64557427D01*
X114479857Y-64518822D01*
X114333867Y-64518822D01*
X114333867Y-64959089D01*
X114240734Y-64959004D01*
X114184693Y-64957396D01*
X114125999Y-64953256D01*
X114077028Y-64947464D01*
X114075538Y-64947226D01*
X113996392Y-64928090D01*
X113935002Y-64898287D01*
X113888305Y-64855878D01*
X113858635Y-64809961D01*
X113840353Y-64759026D01*
X113841771Y-64711200D01*
X113862988Y-64659933D01*
X113904489Y-64606899D01*
X113961998Y-64567600D01*
X114036750Y-64541331D01*
X114086708Y-64532035D01*
X114143416Y-64525507D01*
X114203519Y-64520782D01*
X114254639Y-64518817D01*
X114257667Y-64518808D01*
X114333867Y-64518822D01*
X114479857Y-64518822D01*
X114479260Y-64494851D01*
X114474998Y-64448055D01*
X114466830Y-64414778D01*
X114453556Y-64392759D01*
X114433974Y-64379739D01*
X114406883Y-64373457D01*
X114371082Y-64371653D01*
X114325371Y-64372066D01*
X114325371Y-64372066D01*
G37*
X114325371Y-64372066D02*
X114285889Y-64372467D01*
X114170200Y-64375259D01*
X114073311Y-64383550D01*
X113991919Y-64398232D01*
X113922723Y-64420193D01*
X113862420Y-64450322D01*
X113807708Y-64489510D01*
X113788167Y-64506532D01*
X113755750Y-64546363D01*
X113726520Y-64600413D01*
X113703991Y-64660323D01*
X113691679Y-64717739D01*
X113690400Y-64738956D01*
X113698417Y-64797769D01*
X113719899Y-64862013D01*
X113750999Y-64922821D01*
X113787866Y-64971330D01*
X113793854Y-64977182D01*
X113844579Y-65018321D01*
X113900125Y-65050435D01*
X113963696Y-65074365D01*
X114038494Y-65090953D01*
X114127722Y-65101041D01*
X114234582Y-65105469D01*
X114283528Y-65105845D01*
X114345762Y-65105545D01*
X114389528Y-65104292D01*
X114418931Y-65101554D01*
X114438079Y-65096801D01*
X114451077Y-65089501D01*
X114458045Y-65083267D01*
X114464626Y-65075694D01*
X114469788Y-65065924D01*
X114473703Y-65051340D01*
X114476543Y-65029326D01*
X114478480Y-64997264D01*
X114479684Y-64952536D01*
X114480328Y-64892526D01*
X114480583Y-64814617D01*
X114480622Y-64738956D01*
X114480870Y-64638041D01*
X114480817Y-64557427D01*
X114479857Y-64518822D01*
X114333867Y-64518822D01*
X114333867Y-64959089D01*
X114240734Y-64959004D01*
X114184693Y-64957396D01*
X114125999Y-64953256D01*
X114077028Y-64947464D01*
X114075538Y-64947226D01*
X113996392Y-64928090D01*
X113935002Y-64898287D01*
X113888305Y-64855878D01*
X113858635Y-64809961D01*
X113840353Y-64759026D01*
X113841771Y-64711200D01*
X113862988Y-64659933D01*
X113904489Y-64606899D01*
X113961998Y-64567600D01*
X114036750Y-64541331D01*
X114086708Y-64532035D01*
X114143416Y-64525507D01*
X114203519Y-64520782D01*
X114254639Y-64518817D01*
X114257667Y-64518808D01*
X114333867Y-64518822D01*
X114479857Y-64518822D01*
X114479260Y-64494851D01*
X114474998Y-64448055D01*
X114466830Y-64414778D01*
X114453556Y-64392759D01*
X114433974Y-64379739D01*
X114406883Y-64373457D01*
X114371082Y-64371653D01*
X114325371Y-64372066D01*
D15*
X94976190Y-60543333D02*
X95333333Y-60543333D01*
X95404761Y-60519523D01*
X95452380Y-60471904D01*
X95476190Y-60400476D01*
X95476190Y-60352857D01*
X95476190Y-60781428D02*
X94976190Y-60781428D01*
X94976190Y-60971904D01*
X95000000Y-61019523D01*
X95023809Y-61043333D01*
X95071428Y-61067142D01*
X95142857Y-61067142D01*
X95190476Y-61043333D01*
X95214285Y-61019523D01*
X95238095Y-60971904D01*
X95238095Y-60781428D01*
X94976190Y-61495714D02*
X94976190Y-61400476D01*
X95000000Y-61352857D01*
X95023809Y-61329047D01*
X95095238Y-61281428D01*
X95190476Y-61257619D01*
X95380952Y-61257619D01*
X95428571Y-61281428D01*
X95452380Y-61305238D01*
X95476190Y-61352857D01*
X95476190Y-61448095D01*
X95452380Y-61495714D01*
X95428571Y-61519523D01*
X95380952Y-61543333D01*
X95261904Y-61543333D01*
X95214285Y-61519523D01*
X95190476Y-61495714D01*
X95166666Y-61448095D01*
X95166666Y-61352857D01*
X95190476Y-61305238D01*
X95214285Y-61281428D01*
X95261904Y-61257619D01*
X75926190Y-39588333D02*
X76283333Y-39588333D01*
X76354761Y-39564523D01*
X76402380Y-39516904D01*
X76426190Y-39445476D01*
X76426190Y-39397857D01*
X76426190Y-39826428D02*
X75926190Y-39826428D01*
X75926190Y-40016904D01*
X75950000Y-40064523D01*
X75973809Y-40088333D01*
X76021428Y-40112142D01*
X76092857Y-40112142D01*
X76140476Y-40088333D01*
X76164285Y-40064523D01*
X76188095Y-40016904D01*
X76188095Y-39826428D01*
X75926190Y-40278809D02*
X75926190Y-40612142D01*
X76426190Y-40397857D01*
M02*
