G04 #@! TF.GenerationSoftware,KiCad,Pcbnew,5.0.0-rc2-be01b52~65~ubuntu18.04.1*
G04 #@! TF.CreationDate,2018-06-09T21:21:56+04:00*
G04 #@! TF.ProjectId,plusd,706C7573642E6B696361645F70636200,rev?*
G04 #@! TF.SameCoordinates,Original*
G04 #@! TF.FileFunction,Legend,Top*
G04 #@! TF.FilePolarity,Positive*
%FSLAX46Y46*%
G04 Gerber Fmt 4.6, Leading zero omitted, Abs format (unit mm)*
G04 Created by KiCad (PCBNEW 5.0.0-rc2-be01b52~65~ubuntu18.04.1) date Sat Jun  9 21:21:56 2018*
%MOMM*%
%LPD*%
G01*
G04 APERTURE LIST*
%ADD10C,0.300000*%
%ADD11C,0.250000*%
%ADD12C,0.120000*%
%ADD13C,0.150000*%
%ADD14C,0.304800*%
G04 APERTURE END LIST*
D10*
X71081428Y-39545000D02*
X72581428Y-39545000D01*
X71510000Y-40045000D01*
X72581428Y-40545000D01*
X71081428Y-40545000D01*
X71510000Y-41187857D02*
X71510000Y-41902142D01*
X71081428Y-41045000D02*
X72581428Y-41545000D01*
X71081428Y-42045000D01*
X72510000Y-43330714D02*
X72581428Y-43187857D01*
X72581428Y-42973571D01*
X72510000Y-42759285D01*
X72367142Y-42616428D01*
X72224285Y-42545000D01*
X71938571Y-42473571D01*
X71724285Y-42473571D01*
X71438571Y-42545000D01*
X71295714Y-42616428D01*
X71152857Y-42759285D01*
X71081428Y-42973571D01*
X71081428Y-43116428D01*
X71152857Y-43330714D01*
X71224285Y-43402142D01*
X71724285Y-43402142D01*
X71724285Y-43116428D01*
X71081428Y-44045000D02*
X72581428Y-44045000D01*
X71224285Y-45616428D02*
X71152857Y-45545000D01*
X71081428Y-45330714D01*
X71081428Y-45187857D01*
X71152857Y-44973571D01*
X71295714Y-44830714D01*
X71438571Y-44759285D01*
X71724285Y-44687857D01*
X71938571Y-44687857D01*
X72224285Y-44759285D01*
X72367142Y-44830714D01*
X72510000Y-44973571D01*
X72581428Y-45187857D01*
X72581428Y-45330714D01*
X72510000Y-45545000D01*
X72438571Y-45616428D01*
X69317142Y-39152142D02*
X69245714Y-39366428D01*
X69174285Y-39437857D01*
X69031428Y-39509285D01*
X68817142Y-39509285D01*
X68674285Y-39437857D01*
X68602857Y-39366428D01*
X68531428Y-39223571D01*
X68531428Y-38652142D01*
X70031428Y-38652142D01*
X70031428Y-39152142D01*
X69960000Y-39295000D01*
X69888571Y-39366428D01*
X69745714Y-39437857D01*
X69602857Y-39437857D01*
X69460000Y-39366428D01*
X69388571Y-39295000D01*
X69317142Y-39152142D01*
X69317142Y-38652142D01*
X70031428Y-40152142D02*
X68817142Y-40152142D01*
X68674285Y-40223571D01*
X68602857Y-40295000D01*
X68531428Y-40437857D01*
X68531428Y-40723571D01*
X68602857Y-40866428D01*
X68674285Y-40937857D01*
X68817142Y-41009285D01*
X70031428Y-41009285D01*
X70031428Y-41509285D02*
X70031428Y-42366428D01*
X68531428Y-41937857D02*
X70031428Y-41937857D01*
X70031428Y-42652142D02*
X70031428Y-43509285D01*
X68531428Y-43080714D02*
X70031428Y-43080714D01*
X70031428Y-44295000D02*
X70031428Y-44580714D01*
X69960000Y-44723571D01*
X69817142Y-44866428D01*
X69531428Y-44937857D01*
X69031428Y-44937857D01*
X68745714Y-44866428D01*
X68602857Y-44723571D01*
X68531428Y-44580714D01*
X68531428Y-44295000D01*
X68602857Y-44152142D01*
X68745714Y-44009285D01*
X69031428Y-43937857D01*
X69531428Y-43937857D01*
X69817142Y-44009285D01*
X69960000Y-44152142D01*
X70031428Y-44295000D01*
X68531428Y-45580714D02*
X70031428Y-45580714D01*
X68531428Y-46437857D01*
X70031428Y-46437857D01*
D11*
X46265714Y-65501428D02*
X46265714Y-66263333D01*
X45789523Y-65882380D02*
X46741904Y-65882380D01*
X46920476Y-66691904D02*
X46980000Y-66739523D01*
X47039523Y-66834761D01*
X47039523Y-67072857D01*
X46980000Y-67168095D01*
X46920476Y-67215714D01*
X46801428Y-67263333D01*
X46682380Y-67263333D01*
X46503809Y-67215714D01*
X45789523Y-66644285D01*
X45789523Y-67263333D01*
X46146666Y-67644285D02*
X46146666Y-68120476D01*
X45789523Y-67549047D02*
X47039523Y-67882380D01*
X45789523Y-68215714D01*
X47099047Y-69263333D02*
X45491904Y-68406190D01*
X46265714Y-69596666D02*
X46265714Y-70358571D01*
X45789523Y-69977619D02*
X46741904Y-69977619D01*
X47039523Y-70739523D02*
X47039523Y-71358571D01*
X46563333Y-71025238D01*
X46563333Y-71168095D01*
X46503809Y-71263333D01*
X46444285Y-71310952D01*
X46325238Y-71358571D01*
X46027619Y-71358571D01*
X45908571Y-71310952D01*
X45849047Y-71263333D01*
X45789523Y-71168095D01*
X45789523Y-70882380D01*
X45849047Y-70787142D01*
X45908571Y-70739523D01*
X46622857Y-73310952D02*
X46265714Y-72549047D01*
X45908571Y-73310952D01*
X46265714Y-73787142D02*
X46265714Y-74549047D01*
X46622857Y-75025238D02*
X46265714Y-75787142D01*
X45908571Y-75025238D01*
X46622857Y-77453809D02*
X45789523Y-77453809D01*
X47099047Y-77215714D02*
X46206190Y-76977619D01*
X46206190Y-77596666D01*
X46503809Y-78120476D02*
X46563333Y-78025238D01*
X46622857Y-77977619D01*
X46741904Y-77930000D01*
X46801428Y-77930000D01*
X46920476Y-77977619D01*
X46980000Y-78025238D01*
X47039523Y-78120476D01*
X47039523Y-78310952D01*
X46980000Y-78406190D01*
X46920476Y-78453809D01*
X46801428Y-78501428D01*
X46741904Y-78501428D01*
X46622857Y-78453809D01*
X46563333Y-78406190D01*
X46503809Y-78310952D01*
X46503809Y-78120476D01*
X46444285Y-78025238D01*
X46384761Y-77977619D01*
X46265714Y-77930000D01*
X46027619Y-77930000D01*
X45908571Y-77977619D01*
X45849047Y-78025238D01*
X45789523Y-78120476D01*
X45789523Y-78310952D01*
X45849047Y-78406190D01*
X45908571Y-78453809D01*
X46027619Y-78501428D01*
X46265714Y-78501428D01*
X46384761Y-78453809D01*
X46444285Y-78406190D01*
X46503809Y-78310952D01*
X45789523Y-78930000D02*
X47039523Y-78930000D01*
X45789523Y-79501428D02*
X46503809Y-79072857D01*
X47039523Y-79501428D02*
X46325238Y-78930000D01*
X47099047Y-80644285D02*
X45491904Y-79787142D01*
X45789523Y-81501428D02*
X45789523Y-80930000D01*
X45789523Y-81215714D02*
X47039523Y-81215714D01*
X46860952Y-81120476D01*
X46741904Y-81025238D01*
X46682380Y-80930000D01*
X46920476Y-81882380D02*
X46980000Y-81930000D01*
X47039523Y-82025238D01*
X47039523Y-82263333D01*
X46980000Y-82358571D01*
X46920476Y-82406190D01*
X46801428Y-82453809D01*
X46682380Y-82453809D01*
X46503809Y-82406190D01*
X45789523Y-81834761D01*
X45789523Y-82453809D01*
X46503809Y-83025238D02*
X46563333Y-82930000D01*
X46622857Y-82882380D01*
X46741904Y-82834761D01*
X46801428Y-82834761D01*
X46920476Y-82882380D01*
X46980000Y-82930000D01*
X47039523Y-83025238D01*
X47039523Y-83215714D01*
X46980000Y-83310952D01*
X46920476Y-83358571D01*
X46801428Y-83406190D01*
X46741904Y-83406190D01*
X46622857Y-83358571D01*
X46563333Y-83310952D01*
X46503809Y-83215714D01*
X46503809Y-83025238D01*
X46444285Y-82930000D01*
X46384761Y-82882380D01*
X46265714Y-82834761D01*
X46027619Y-82834761D01*
X45908571Y-82882380D01*
X45849047Y-82930000D01*
X45789523Y-83025238D01*
X45789523Y-83215714D01*
X45849047Y-83310952D01*
X45908571Y-83358571D01*
X46027619Y-83406190D01*
X46265714Y-83406190D01*
X46384761Y-83358571D01*
X46444285Y-83310952D01*
X46503809Y-83215714D01*
X45789523Y-83834761D02*
X47039523Y-83834761D01*
X45789523Y-84406190D02*
X46503809Y-83977619D01*
X47039523Y-84406190D02*
X46325238Y-83834761D01*
D10*
X88925000Y-96572142D02*
X88996428Y-96500714D01*
X89210714Y-96357857D01*
X89353571Y-96286428D01*
X89567857Y-96215000D01*
X89925000Y-96143571D01*
X90210714Y-96143571D01*
X90567857Y-96215000D01*
X90782142Y-96286428D01*
X90925000Y-96357857D01*
X91139285Y-96500714D01*
X91210714Y-96572142D01*
X89639285Y-98000714D02*
X89567857Y-97929285D01*
X89496428Y-97715000D01*
X89496428Y-97572142D01*
X89567857Y-97357857D01*
X89710714Y-97215000D01*
X89853571Y-97143571D01*
X90139285Y-97072142D01*
X90353571Y-97072142D01*
X90639285Y-97143571D01*
X90782142Y-97215000D01*
X90925000Y-97357857D01*
X90996428Y-97572142D01*
X90996428Y-97715000D01*
X90925000Y-97929285D01*
X90853571Y-98000714D01*
X88925000Y-98500714D02*
X88996428Y-98572142D01*
X89210714Y-98715000D01*
X89353571Y-98786428D01*
X89567857Y-98857857D01*
X89925000Y-98929285D01*
X90210714Y-98929285D01*
X90567857Y-98857857D01*
X90782142Y-98786428D01*
X90925000Y-98715000D01*
X91139285Y-98572142D01*
X91210714Y-98500714D01*
X90853571Y-100715000D02*
X90925000Y-100786428D01*
X90996428Y-100929285D01*
X90996428Y-101286428D01*
X90925000Y-101429285D01*
X90853571Y-101500714D01*
X90710714Y-101572142D01*
X90567857Y-101572142D01*
X90353571Y-101500714D01*
X89496428Y-100643571D01*
X89496428Y-101572142D01*
X90996428Y-102500714D02*
X90996428Y-102643571D01*
X90925000Y-102786428D01*
X90853571Y-102857857D01*
X90710714Y-102929285D01*
X90425000Y-103000714D01*
X90067857Y-103000714D01*
X89782142Y-102929285D01*
X89639285Y-102857857D01*
X89567857Y-102786428D01*
X89496428Y-102643571D01*
X89496428Y-102500714D01*
X89567857Y-102357857D01*
X89639285Y-102286428D01*
X89782142Y-102215000D01*
X90067857Y-102143571D01*
X90425000Y-102143571D01*
X90710714Y-102215000D01*
X90853571Y-102286428D01*
X90925000Y-102357857D01*
X90996428Y-102500714D01*
X89496428Y-104429285D02*
X89496428Y-103572142D01*
X89496428Y-104000714D02*
X90996428Y-104000714D01*
X90782142Y-103857857D01*
X90639285Y-103715000D01*
X90567857Y-103572142D01*
X90353571Y-105286428D02*
X90425000Y-105143571D01*
X90496428Y-105072142D01*
X90639285Y-105000714D01*
X90710714Y-105000714D01*
X90853571Y-105072142D01*
X90925000Y-105143571D01*
X90996428Y-105286428D01*
X90996428Y-105572142D01*
X90925000Y-105715000D01*
X90853571Y-105786428D01*
X90710714Y-105857857D01*
X90639285Y-105857857D01*
X90496428Y-105786428D01*
X90425000Y-105715000D01*
X90353571Y-105572142D01*
X90353571Y-105286428D01*
X90282142Y-105143571D01*
X90210714Y-105072142D01*
X90067857Y-105000714D01*
X89782142Y-105000714D01*
X89639285Y-105072142D01*
X89567857Y-105143571D01*
X89496428Y-105286428D01*
X89496428Y-105572142D01*
X89567857Y-105715000D01*
X89639285Y-105786428D01*
X89782142Y-105857857D01*
X90067857Y-105857857D01*
X90210714Y-105786428D01*
X90282142Y-105715000D01*
X90353571Y-105572142D01*
X86946428Y-92536428D02*
X88446428Y-92536428D01*
X88446428Y-93107857D01*
X88375000Y-93250714D01*
X88303571Y-93322142D01*
X88160714Y-93393571D01*
X87946428Y-93393571D01*
X87803571Y-93322142D01*
X87732142Y-93250714D01*
X87660714Y-93107857D01*
X87660714Y-92536428D01*
X87089285Y-94893571D02*
X87017857Y-94822142D01*
X86946428Y-94607857D01*
X86946428Y-94465000D01*
X87017857Y-94250714D01*
X87160714Y-94107857D01*
X87303571Y-94036428D01*
X87589285Y-93965000D01*
X87803571Y-93965000D01*
X88089285Y-94036428D01*
X88232142Y-94107857D01*
X88375000Y-94250714D01*
X88446428Y-94465000D01*
X88446428Y-94607857D01*
X88375000Y-94822142D01*
X88303571Y-94893571D01*
X87732142Y-96036428D02*
X87660714Y-96250714D01*
X87589285Y-96322142D01*
X87446428Y-96393571D01*
X87232142Y-96393571D01*
X87089285Y-96322142D01*
X87017857Y-96250714D01*
X86946428Y-96107857D01*
X86946428Y-95536428D01*
X88446428Y-95536428D01*
X88446428Y-96036428D01*
X88375000Y-96179285D01*
X88303571Y-96250714D01*
X88160714Y-96322142D01*
X88017857Y-96322142D01*
X87875000Y-96250714D01*
X87803571Y-96179285D01*
X87732142Y-96036428D01*
X87732142Y-95536428D01*
X86946428Y-98179285D02*
X88446428Y-98179285D01*
X87875000Y-98179285D02*
X87946428Y-98322142D01*
X87946428Y-98607857D01*
X87875000Y-98750714D01*
X87803571Y-98822142D01*
X87660714Y-98893571D01*
X87232142Y-98893571D01*
X87089285Y-98822142D01*
X87017857Y-98750714D01*
X86946428Y-98607857D01*
X86946428Y-98322142D01*
X87017857Y-98179285D01*
X87946428Y-99393571D02*
X86946428Y-99750714D01*
X87946428Y-100107857D02*
X86946428Y-99750714D01*
X86589285Y-99607857D01*
X86517857Y-99536428D01*
X86446428Y-99393571D01*
X87375000Y-101750714D02*
X87375000Y-102465000D01*
X86946428Y-101607857D02*
X88446428Y-102107857D01*
X86946428Y-102607857D01*
X87089285Y-103107857D02*
X87017857Y-103179285D01*
X86946428Y-103107857D01*
X87017857Y-103036428D01*
X87089285Y-103107857D01*
X86946428Y-103107857D01*
X87375000Y-104893571D02*
X87375000Y-105607857D01*
X86946428Y-104750714D02*
X88446428Y-105250714D01*
X86946428Y-105750714D01*
X86946428Y-106965000D02*
X86946428Y-106250714D01*
X88446428Y-106250714D01*
X87732142Y-107465000D02*
X87732142Y-107965000D01*
X86946428Y-108179285D02*
X86946428Y-107465000D01*
X88446428Y-107465000D01*
X88446428Y-108179285D01*
X87375000Y-108750714D02*
X87375000Y-109465000D01*
X86946428Y-108607857D02*
X88446428Y-109107857D01*
X86946428Y-109607857D01*
X50062857Y-90675714D02*
X50062857Y-91818571D01*
X49491428Y-91247142D02*
X50634285Y-91247142D01*
X49491428Y-92532857D02*
X50991428Y-92532857D01*
X50991428Y-92890000D01*
X50920000Y-93104285D01*
X50777142Y-93247142D01*
X50634285Y-93318571D01*
X50348571Y-93390000D01*
X50134285Y-93390000D01*
X49848571Y-93318571D01*
X49705714Y-93247142D01*
X49562857Y-93104285D01*
X49491428Y-92890000D01*
X49491428Y-92532857D01*
X49491428Y-95175714D02*
X50991428Y-95175714D01*
X50991428Y-95532857D01*
X50920000Y-95747142D01*
X50777142Y-95890000D01*
X50634285Y-95961428D01*
X50348571Y-96032857D01*
X50134285Y-96032857D01*
X49848571Y-95961428D01*
X49705714Y-95890000D01*
X49562857Y-95747142D01*
X49491428Y-95532857D01*
X49491428Y-95175714D01*
X49491428Y-96675714D02*
X50491428Y-96675714D01*
X50991428Y-96675714D02*
X50920000Y-96604285D01*
X50848571Y-96675714D01*
X50920000Y-96747142D01*
X50991428Y-96675714D01*
X50848571Y-96675714D01*
X49562857Y-97318571D02*
X49491428Y-97461428D01*
X49491428Y-97747142D01*
X49562857Y-97890000D01*
X49705714Y-97961428D01*
X49777142Y-97961428D01*
X49920000Y-97890000D01*
X49991428Y-97747142D01*
X49991428Y-97532857D01*
X50062857Y-97390000D01*
X50205714Y-97318571D01*
X50277142Y-97318571D01*
X50420000Y-97390000D01*
X50491428Y-97532857D01*
X50491428Y-97747142D01*
X50420000Y-97890000D01*
X49491428Y-98604285D02*
X50991428Y-98604285D01*
X50062857Y-98747142D02*
X49491428Y-99175714D01*
X50491428Y-99175714D02*
X49920000Y-98604285D01*
X49491428Y-100961428D02*
X50991428Y-100961428D01*
X50491428Y-101675714D02*
X49491428Y-101675714D01*
X50348571Y-101675714D02*
X50420000Y-101747142D01*
X50491428Y-101890000D01*
X50491428Y-102104285D01*
X50420000Y-102247142D01*
X50277142Y-102318571D01*
X49491428Y-102318571D01*
X50491428Y-102818571D02*
X50491428Y-103390000D01*
X50991428Y-103032857D02*
X49705714Y-103032857D01*
X49562857Y-103104285D01*
X49491428Y-103247142D01*
X49491428Y-103390000D01*
X49562857Y-104461428D02*
X49491428Y-104318571D01*
X49491428Y-104032857D01*
X49562857Y-103890000D01*
X49705714Y-103818571D01*
X50277142Y-103818571D01*
X50420000Y-103890000D01*
X50491428Y-104032857D01*
X50491428Y-104318571D01*
X50420000Y-104461428D01*
X50277142Y-104532857D01*
X50134285Y-104532857D01*
X49991428Y-103818571D01*
X49491428Y-105175714D02*
X50491428Y-105175714D01*
X50205714Y-105175714D02*
X50348571Y-105247142D01*
X50420000Y-105318571D01*
X50491428Y-105461428D01*
X50491428Y-105604285D01*
X50491428Y-105890000D02*
X50491428Y-106461428D01*
X49491428Y-106104285D02*
X50777142Y-106104285D01*
X50920000Y-106175714D01*
X50991428Y-106318571D01*
X50991428Y-106461428D01*
X49491428Y-107604285D02*
X50277142Y-107604285D01*
X50420000Y-107532857D01*
X50491428Y-107390000D01*
X50491428Y-107104285D01*
X50420000Y-106961428D01*
X49562857Y-107604285D02*
X49491428Y-107461428D01*
X49491428Y-107104285D01*
X49562857Y-106961428D01*
X49705714Y-106890000D01*
X49848571Y-106890000D01*
X49991428Y-106961428D01*
X50062857Y-107104285D01*
X50062857Y-107461428D01*
X50134285Y-107604285D01*
X49562857Y-108961428D02*
X49491428Y-108818571D01*
X49491428Y-108532857D01*
X49562857Y-108390000D01*
X49634285Y-108318571D01*
X49777142Y-108247142D01*
X50205714Y-108247142D01*
X50348571Y-108318571D01*
X50420000Y-108390000D01*
X50491428Y-108532857D01*
X50491428Y-108818571D01*
X50420000Y-108961428D01*
X49562857Y-110175714D02*
X49491428Y-110032857D01*
X49491428Y-109747142D01*
X49562857Y-109604285D01*
X49705714Y-109532857D01*
X50277142Y-109532857D01*
X50420000Y-109604285D01*
X50491428Y-109747142D01*
X50491428Y-110032857D01*
X50420000Y-110175714D01*
X50277142Y-110247142D01*
X50134285Y-110247142D01*
X49991428Y-109532857D01*
X49634285Y-112890000D02*
X49562857Y-112818571D01*
X49491428Y-112604285D01*
X49491428Y-112461428D01*
X49562857Y-112247142D01*
X49705714Y-112104285D01*
X49848571Y-112032857D01*
X50134285Y-111961428D01*
X50348571Y-111961428D01*
X50634285Y-112032857D01*
X50777142Y-112104285D01*
X50920000Y-112247142D01*
X50991428Y-112461428D01*
X50991428Y-112604285D01*
X50920000Y-112818571D01*
X50848571Y-112890000D01*
X49491428Y-113747142D02*
X49562857Y-113604285D01*
X49705714Y-113532857D01*
X50991428Y-113532857D01*
X49491428Y-114532857D02*
X49562857Y-114390000D01*
X49634285Y-114318571D01*
X49777142Y-114247142D01*
X50205714Y-114247142D01*
X50348571Y-114318571D01*
X50420000Y-114390000D01*
X50491428Y-114532857D01*
X50491428Y-114747142D01*
X50420000Y-114890000D01*
X50348571Y-114961428D01*
X50205714Y-115032857D01*
X49777142Y-115032857D01*
X49634285Y-114961428D01*
X49562857Y-114890000D01*
X49491428Y-114747142D01*
X49491428Y-114532857D01*
X50491428Y-115675714D02*
X49491428Y-115675714D01*
X50348571Y-115675714D02*
X50420000Y-115747142D01*
X50491428Y-115890000D01*
X50491428Y-116104285D01*
X50420000Y-116247142D01*
X50277142Y-116318571D01*
X49491428Y-116318571D01*
X49562857Y-117604285D02*
X49491428Y-117461428D01*
X49491428Y-117175714D01*
X49562857Y-117032857D01*
X49705714Y-116961428D01*
X50277142Y-116961428D01*
X50420000Y-117032857D01*
X50491428Y-117175714D01*
X50491428Y-117461428D01*
X50420000Y-117604285D01*
X50277142Y-117675714D01*
X50134285Y-117675714D01*
X49991428Y-116961428D01*
X47727142Y-86532857D02*
X47727142Y-86032857D01*
X46941428Y-86032857D02*
X48441428Y-86032857D01*
X48441428Y-86747142D01*
X46941428Y-87532857D02*
X47012857Y-87390000D01*
X47084285Y-87318571D01*
X47227142Y-87247142D01*
X47655714Y-87247142D01*
X47798571Y-87318571D01*
X47870000Y-87390000D01*
X47941428Y-87532857D01*
X47941428Y-87747142D01*
X47870000Y-87890000D01*
X47798571Y-87961428D01*
X47655714Y-88032857D01*
X47227142Y-88032857D01*
X47084285Y-87961428D01*
X47012857Y-87890000D01*
X46941428Y-87747142D01*
X46941428Y-87532857D01*
X46941428Y-88675714D02*
X47941428Y-88675714D01*
X47655714Y-88675714D02*
X47798571Y-88747142D01*
X47870000Y-88818571D01*
X47941428Y-88961428D01*
X47941428Y-89104285D01*
X48441428Y-90604285D02*
X48441428Y-91604285D01*
X46941428Y-90604285D01*
X46941428Y-91604285D01*
X48441428Y-92032857D02*
X46941428Y-93032857D01*
X48441428Y-93032857D02*
X46941428Y-92032857D01*
X47012857Y-94675714D02*
X46941428Y-94890000D01*
X46941428Y-95247142D01*
X47012857Y-95390000D01*
X47084285Y-95461428D01*
X47227142Y-95532857D01*
X47370000Y-95532857D01*
X47512857Y-95461428D01*
X47584285Y-95390000D01*
X47655714Y-95247142D01*
X47727142Y-94961428D01*
X47798571Y-94818571D01*
X47870000Y-94747142D01*
X48012857Y-94675714D01*
X48155714Y-94675714D01*
X48298571Y-94747142D01*
X48370000Y-94818571D01*
X48441428Y-94961428D01*
X48441428Y-95318571D01*
X48370000Y-95532857D01*
X47941428Y-96175714D02*
X46441428Y-96175714D01*
X47870000Y-96175714D02*
X47941428Y-96318571D01*
X47941428Y-96604285D01*
X47870000Y-96747142D01*
X47798571Y-96818571D01*
X47655714Y-96890000D01*
X47227142Y-96890000D01*
X47084285Y-96818571D01*
X47012857Y-96747142D01*
X46941428Y-96604285D01*
X46941428Y-96318571D01*
X47012857Y-96175714D01*
X47012857Y-98104285D02*
X46941428Y-97961428D01*
X46941428Y-97675714D01*
X47012857Y-97532857D01*
X47155714Y-97461428D01*
X47727142Y-97461428D01*
X47870000Y-97532857D01*
X47941428Y-97675714D01*
X47941428Y-97961428D01*
X47870000Y-98104285D01*
X47727142Y-98175714D01*
X47584285Y-98175714D01*
X47441428Y-97461428D01*
X47012857Y-99461428D02*
X46941428Y-99318571D01*
X46941428Y-99032857D01*
X47012857Y-98890000D01*
X47084285Y-98818571D01*
X47227142Y-98747142D01*
X47655714Y-98747142D01*
X47798571Y-98818571D01*
X47870000Y-98890000D01*
X47941428Y-99032857D01*
X47941428Y-99318571D01*
X47870000Y-99461428D01*
X47941428Y-99890000D02*
X47941428Y-100461428D01*
X48441428Y-100104285D02*
X47155714Y-100104285D01*
X47012857Y-100175714D01*
X46941428Y-100318571D01*
X46941428Y-100461428D01*
X46941428Y-100961428D02*
X47941428Y-100961428D01*
X47655714Y-100961428D02*
X47798571Y-101032857D01*
X47870000Y-101104285D01*
X47941428Y-101247142D01*
X47941428Y-101390000D01*
X47941428Y-102532857D02*
X46941428Y-102532857D01*
X47941428Y-101890000D02*
X47155714Y-101890000D01*
X47012857Y-101961428D01*
X46941428Y-102104285D01*
X46941428Y-102318571D01*
X47012857Y-102461428D01*
X47084285Y-102532857D01*
X46941428Y-103247142D02*
X47941428Y-103247142D01*
X47798571Y-103247142D02*
X47870000Y-103318571D01*
X47941428Y-103461428D01*
X47941428Y-103675714D01*
X47870000Y-103818571D01*
X47727142Y-103890000D01*
X46941428Y-103890000D01*
X47727142Y-103890000D02*
X47870000Y-103961428D01*
X47941428Y-104104285D01*
X47941428Y-104318571D01*
X47870000Y-104461428D01*
X47727142Y-104532857D01*
X46941428Y-104532857D01*
X47941428Y-107032857D02*
X46941428Y-107032857D01*
X48512857Y-106675714D02*
X47441428Y-106318571D01*
X47441428Y-107247142D01*
X47798571Y-108032857D02*
X47870000Y-107890000D01*
X47941428Y-107818571D01*
X48084285Y-107747142D01*
X48155714Y-107747142D01*
X48298571Y-107818571D01*
X48370000Y-107890000D01*
X48441428Y-108032857D01*
X48441428Y-108318571D01*
X48370000Y-108461428D01*
X48298571Y-108532857D01*
X48155714Y-108604285D01*
X48084285Y-108604285D01*
X47941428Y-108532857D01*
X47870000Y-108461428D01*
X47798571Y-108318571D01*
X47798571Y-108032857D01*
X47727142Y-107890000D01*
X47655714Y-107818571D01*
X47512857Y-107747142D01*
X47227142Y-107747142D01*
X47084285Y-107818571D01*
X47012857Y-107890000D01*
X46941428Y-108032857D01*
X46941428Y-108318571D01*
X47012857Y-108461428D01*
X47084285Y-108532857D01*
X47227142Y-108604285D01*
X47512857Y-108604285D01*
X47655714Y-108532857D01*
X47727142Y-108461428D01*
X47798571Y-108318571D01*
X46941428Y-109247142D02*
X48441428Y-109247142D01*
X46941428Y-110104285D02*
X47798571Y-109461428D01*
X48441428Y-110104285D02*
X47584285Y-109247142D01*
X48512857Y-111818571D02*
X46584285Y-110532857D01*
X46941428Y-113104285D02*
X46941428Y-112247142D01*
X46941428Y-112675714D02*
X48441428Y-112675714D01*
X48227142Y-112532857D01*
X48084285Y-112390000D01*
X48012857Y-112247142D01*
X48298571Y-113675714D02*
X48370000Y-113747142D01*
X48441428Y-113890000D01*
X48441428Y-114247142D01*
X48370000Y-114390000D01*
X48298571Y-114461428D01*
X48155714Y-114532857D01*
X48012857Y-114532857D01*
X47798571Y-114461428D01*
X46941428Y-113604285D01*
X46941428Y-114532857D01*
X47798571Y-115390000D02*
X47870000Y-115247142D01*
X47941428Y-115175714D01*
X48084285Y-115104285D01*
X48155714Y-115104285D01*
X48298571Y-115175714D01*
X48370000Y-115247142D01*
X48441428Y-115390000D01*
X48441428Y-115675714D01*
X48370000Y-115818571D01*
X48298571Y-115890000D01*
X48155714Y-115961428D01*
X48084285Y-115961428D01*
X47941428Y-115890000D01*
X47870000Y-115818571D01*
X47798571Y-115675714D01*
X47798571Y-115390000D01*
X47727142Y-115247142D01*
X47655714Y-115175714D01*
X47512857Y-115104285D01*
X47227142Y-115104285D01*
X47084285Y-115175714D01*
X47012857Y-115247142D01*
X46941428Y-115390000D01*
X46941428Y-115675714D01*
X47012857Y-115818571D01*
X47084285Y-115890000D01*
X47227142Y-115961428D01*
X47512857Y-115961428D01*
X47655714Y-115890000D01*
X47727142Y-115818571D01*
X47798571Y-115675714D01*
X46941428Y-116604285D02*
X48441428Y-116604285D01*
X46941428Y-117461428D02*
X47798571Y-116818571D01*
X48441428Y-117461428D02*
X47584285Y-116604285D01*
X48512857Y-119175714D02*
X46584285Y-117890000D01*
X47512857Y-119675714D02*
X47512857Y-120818571D01*
X46941428Y-120247142D02*
X48084285Y-120247142D01*
X48441428Y-121390000D02*
X48441428Y-122318571D01*
X47870000Y-121818571D01*
X47870000Y-122032857D01*
X47798571Y-122175714D01*
X47727142Y-122247142D01*
X47584285Y-122318571D01*
X47227142Y-122318571D01*
X47084285Y-122247142D01*
X47012857Y-122175714D01*
X46941428Y-122032857D01*
X46941428Y-121604285D01*
X47012857Y-121461428D01*
X47084285Y-121390000D01*
D12*
G04 #@! TO.C,C1*
X50860000Y-54590000D02*
G75*
G03X50860000Y-54590000I-3870000J0D01*
G01*
X50820000Y-54590000D02*
X43160000Y-54590000D01*
X50820000Y-54630000D02*
X43160000Y-54630000D01*
X50820000Y-54670000D02*
X43160000Y-54670000D01*
X50819000Y-54710000D02*
X43161000Y-54710000D01*
X50817000Y-54750000D02*
X43163000Y-54750000D01*
X50815000Y-54790000D02*
X43165000Y-54790000D01*
X50813000Y-54830000D02*
X48030000Y-54830000D01*
X45950000Y-54830000D02*
X43167000Y-54830000D01*
X50810000Y-54870000D02*
X48030000Y-54870000D01*
X45950000Y-54870000D02*
X43170000Y-54870000D01*
X50807000Y-54910000D02*
X48030000Y-54910000D01*
X45950000Y-54910000D02*
X43173000Y-54910000D01*
X50804000Y-54950000D02*
X48030000Y-54950000D01*
X45950000Y-54950000D02*
X43176000Y-54950000D01*
X50800000Y-54990000D02*
X48030000Y-54990000D01*
X45950000Y-54990000D02*
X43180000Y-54990000D01*
X50795000Y-55030000D02*
X48030000Y-55030000D01*
X45950000Y-55030000D02*
X43185000Y-55030000D01*
X50791000Y-55070000D02*
X48030000Y-55070000D01*
X45950000Y-55070000D02*
X43189000Y-55070000D01*
X50785000Y-55110000D02*
X48030000Y-55110000D01*
X45950000Y-55110000D02*
X43195000Y-55110000D01*
X50780000Y-55150000D02*
X48030000Y-55150000D01*
X45950000Y-55150000D02*
X43200000Y-55150000D01*
X50774000Y-55190000D02*
X48030000Y-55190000D01*
X45950000Y-55190000D02*
X43206000Y-55190000D01*
X50767000Y-55230000D02*
X48030000Y-55230000D01*
X45950000Y-55230000D02*
X43213000Y-55230000D01*
X50760000Y-55270000D02*
X48030000Y-55270000D01*
X45950000Y-55270000D02*
X43220000Y-55270000D01*
X50753000Y-55311000D02*
X48030000Y-55311000D01*
X45950000Y-55311000D02*
X43227000Y-55311000D01*
X50745000Y-55351000D02*
X48030000Y-55351000D01*
X45950000Y-55351000D02*
X43235000Y-55351000D01*
X50737000Y-55391000D02*
X48030000Y-55391000D01*
X45950000Y-55391000D02*
X43243000Y-55391000D01*
X50728000Y-55431000D02*
X48030000Y-55431000D01*
X45950000Y-55431000D02*
X43252000Y-55431000D01*
X50719000Y-55471000D02*
X48030000Y-55471000D01*
X45950000Y-55471000D02*
X43261000Y-55471000D01*
X50710000Y-55511000D02*
X48030000Y-55511000D01*
X45950000Y-55511000D02*
X43270000Y-55511000D01*
X50700000Y-55551000D02*
X48030000Y-55551000D01*
X45950000Y-55551000D02*
X43280000Y-55551000D01*
X50689000Y-55591000D02*
X48030000Y-55591000D01*
X45950000Y-55591000D02*
X43291000Y-55591000D01*
X50678000Y-55631000D02*
X48030000Y-55631000D01*
X45950000Y-55631000D02*
X43302000Y-55631000D01*
X50667000Y-55671000D02*
X48030000Y-55671000D01*
X45950000Y-55671000D02*
X43313000Y-55671000D01*
X50655000Y-55711000D02*
X48030000Y-55711000D01*
X45950000Y-55711000D02*
X43325000Y-55711000D01*
X50643000Y-55751000D02*
X48030000Y-55751000D01*
X45950000Y-55751000D02*
X43337000Y-55751000D01*
X50630000Y-55791000D02*
X48030000Y-55791000D01*
X45950000Y-55791000D02*
X43350000Y-55791000D01*
X50616000Y-55831000D02*
X48030000Y-55831000D01*
X45950000Y-55831000D02*
X43364000Y-55831000D01*
X50603000Y-55871000D02*
X48030000Y-55871000D01*
X45950000Y-55871000D02*
X43377000Y-55871000D01*
X50588000Y-55911000D02*
X48030000Y-55911000D01*
X45950000Y-55911000D02*
X43392000Y-55911000D01*
X50574000Y-55951000D02*
X48030000Y-55951000D01*
X45950000Y-55951000D02*
X43406000Y-55951000D01*
X50558000Y-55991000D02*
X48030000Y-55991000D01*
X45950000Y-55991000D02*
X43422000Y-55991000D01*
X50543000Y-56031000D02*
X48030000Y-56031000D01*
X45950000Y-56031000D02*
X43437000Y-56031000D01*
X50526000Y-56071000D02*
X48030000Y-56071000D01*
X45950000Y-56071000D02*
X43454000Y-56071000D01*
X50510000Y-56111000D02*
X48030000Y-56111000D01*
X45950000Y-56111000D02*
X43470000Y-56111000D01*
X50492000Y-56151000D02*
X48030000Y-56151000D01*
X45950000Y-56151000D02*
X43488000Y-56151000D01*
X50474000Y-56191000D02*
X48030000Y-56191000D01*
X45950000Y-56191000D02*
X43506000Y-56191000D01*
X50456000Y-56231000D02*
X48030000Y-56231000D01*
X45950000Y-56231000D02*
X43524000Y-56231000D01*
X50437000Y-56271000D02*
X48030000Y-56271000D01*
X45950000Y-56271000D02*
X43543000Y-56271000D01*
X50417000Y-56311000D02*
X48030000Y-56311000D01*
X45950000Y-56311000D02*
X43563000Y-56311000D01*
X50397000Y-56351000D02*
X48030000Y-56351000D01*
X45950000Y-56351000D02*
X43583000Y-56351000D01*
X50376000Y-56391000D02*
X48030000Y-56391000D01*
X45950000Y-56391000D02*
X43604000Y-56391000D01*
X50355000Y-56431000D02*
X48030000Y-56431000D01*
X45950000Y-56431000D02*
X43625000Y-56431000D01*
X50333000Y-56471000D02*
X48030000Y-56471000D01*
X45950000Y-56471000D02*
X43647000Y-56471000D01*
X50311000Y-56511000D02*
X48030000Y-56511000D01*
X45950000Y-56511000D02*
X43669000Y-56511000D01*
X50287000Y-56551000D02*
X48030000Y-56551000D01*
X45950000Y-56551000D02*
X43693000Y-56551000D01*
X50264000Y-56591000D02*
X48030000Y-56591000D01*
X45950000Y-56591000D02*
X43716000Y-56591000D01*
X50239000Y-56631000D02*
X48030000Y-56631000D01*
X45950000Y-56631000D02*
X43741000Y-56631000D01*
X50214000Y-56671000D02*
X48030000Y-56671000D01*
X45950000Y-56671000D02*
X43766000Y-56671000D01*
X50188000Y-56711000D02*
X48030000Y-56711000D01*
X45950000Y-56711000D02*
X43792000Y-56711000D01*
X50162000Y-56751000D02*
X48030000Y-56751000D01*
X45950000Y-56751000D02*
X43818000Y-56751000D01*
X50134000Y-56791000D02*
X48030000Y-56791000D01*
X45950000Y-56791000D02*
X43846000Y-56791000D01*
X50106000Y-56831000D02*
X48030000Y-56831000D01*
X45950000Y-56831000D02*
X43874000Y-56831000D01*
X50078000Y-56871000D02*
X48030000Y-56871000D01*
X45950000Y-56871000D02*
X43902000Y-56871000D01*
X50048000Y-56911000D02*
X43932000Y-56911000D01*
X50018000Y-56951000D02*
X43962000Y-56951000D01*
X49986000Y-56991000D02*
X43994000Y-56991000D01*
X49954000Y-57031000D02*
X44026000Y-57031000D01*
X49921000Y-57071000D02*
X44059000Y-57071000D01*
X49888000Y-57111000D02*
X44092000Y-57111000D01*
X49853000Y-57151000D02*
X44127000Y-57151000D01*
X49817000Y-57191000D02*
X44163000Y-57191000D01*
X49780000Y-57231000D02*
X44200000Y-57231000D01*
X49742000Y-57271000D02*
X44238000Y-57271000D01*
X49703000Y-57311000D02*
X44277000Y-57311000D01*
X49663000Y-57351000D02*
X44317000Y-57351000D01*
X49622000Y-57391000D02*
X44358000Y-57391000D01*
X49579000Y-57431000D02*
X44401000Y-57431000D01*
X49536000Y-57471000D02*
X44444000Y-57471000D01*
X49490000Y-57511000D02*
X44490000Y-57511000D01*
X49444000Y-57551000D02*
X44536000Y-57551000D01*
X49395000Y-57591000D02*
X44585000Y-57591000D01*
X49345000Y-57631000D02*
X44635000Y-57631000D01*
X49294000Y-57671000D02*
X44686000Y-57671000D01*
X49240000Y-57711000D02*
X44740000Y-57711000D01*
X49185000Y-57751000D02*
X44795000Y-57751000D01*
X49127000Y-57791000D02*
X44853000Y-57791000D01*
X49067000Y-57831000D02*
X44913000Y-57831000D01*
X49004000Y-57871000D02*
X44976000Y-57871000D01*
X48939000Y-57911000D02*
X45041000Y-57911000D01*
X48871000Y-57951000D02*
X45109000Y-57951000D01*
X48799000Y-57991000D02*
X45181000Y-57991000D01*
X48723000Y-58031000D02*
X45257000Y-58031000D01*
X48644000Y-58071000D02*
X45336000Y-58071000D01*
X48559000Y-58111000D02*
X45421000Y-58111000D01*
X48468000Y-58151000D02*
X45512000Y-58151000D01*
X48371000Y-58191000D02*
X45609000Y-58191000D01*
X48265000Y-58231000D02*
X45715000Y-58231000D01*
X48148000Y-58271000D02*
X45832000Y-58271000D01*
X48018000Y-58311000D02*
X45962000Y-58311000D01*
X47867000Y-58351000D02*
X46113000Y-58351000D01*
X47683000Y-58391000D02*
X46297000Y-58391000D01*
X47431000Y-58431000D02*
X46549000Y-58431000D01*
X49165000Y-50447789D02*
X49165000Y-51197789D01*
X49540000Y-50822789D02*
X48790000Y-50822789D01*
G04 #@! TO.C,C2*
X64730000Y-50800000D02*
X67350000Y-50800000D01*
X64730000Y-55920000D02*
X67350000Y-55920000D01*
X67350000Y-55920000D02*
X67350000Y-50800000D01*
X64730000Y-55920000D02*
X64730000Y-50800000D01*
G04 #@! TO.C,C3*
X44490000Y-97790000D02*
X44490000Y-102910000D01*
X41870000Y-97790000D02*
X41870000Y-102910000D01*
X44490000Y-97790000D02*
X41870000Y-97790000D01*
X44490000Y-102910000D02*
X41870000Y-102910000D01*
G04 #@! TO.C,C4*
X66040000Y-82510000D02*
X66040000Y-85130000D01*
X60920000Y-82510000D02*
X60920000Y-85130000D01*
X60920000Y-85130000D02*
X66040000Y-85130000D01*
X60920000Y-82510000D02*
X66040000Y-82510000D01*
G04 #@! TO.C,C5*
X55920000Y-49570000D02*
X50800000Y-49570000D01*
X55920000Y-46950000D02*
X50800000Y-46950000D01*
X55920000Y-49570000D02*
X55920000Y-46950000D01*
X50800000Y-49570000D02*
X50800000Y-46950000D01*
G04 #@! TO.C,C6*
X55940000Y-41930000D02*
G75*
G03X55940000Y-41930000I-3870000J0D01*
G01*
X48240000Y-41930000D02*
X55900000Y-41930000D01*
X48240000Y-41890000D02*
X55900000Y-41890000D01*
X48240000Y-41850000D02*
X55900000Y-41850000D01*
X48241000Y-41810000D02*
X55899000Y-41810000D01*
X48243000Y-41770000D02*
X55897000Y-41770000D01*
X48245000Y-41730000D02*
X55895000Y-41730000D01*
X48247000Y-41690000D02*
X51030000Y-41690000D01*
X53110000Y-41690000D02*
X55893000Y-41690000D01*
X48250000Y-41650000D02*
X51030000Y-41650000D01*
X53110000Y-41650000D02*
X55890000Y-41650000D01*
X48253000Y-41610000D02*
X51030000Y-41610000D01*
X53110000Y-41610000D02*
X55887000Y-41610000D01*
X48256000Y-41570000D02*
X51030000Y-41570000D01*
X53110000Y-41570000D02*
X55884000Y-41570000D01*
X48260000Y-41530000D02*
X51030000Y-41530000D01*
X53110000Y-41530000D02*
X55880000Y-41530000D01*
X48265000Y-41490000D02*
X51030000Y-41490000D01*
X53110000Y-41490000D02*
X55875000Y-41490000D01*
X48269000Y-41450000D02*
X51030000Y-41450000D01*
X53110000Y-41450000D02*
X55871000Y-41450000D01*
X48275000Y-41410000D02*
X51030000Y-41410000D01*
X53110000Y-41410000D02*
X55865000Y-41410000D01*
X48280000Y-41370000D02*
X51030000Y-41370000D01*
X53110000Y-41370000D02*
X55860000Y-41370000D01*
X48286000Y-41330000D02*
X51030000Y-41330000D01*
X53110000Y-41330000D02*
X55854000Y-41330000D01*
X48293000Y-41290000D02*
X51030000Y-41290000D01*
X53110000Y-41290000D02*
X55847000Y-41290000D01*
X48300000Y-41250000D02*
X51030000Y-41250000D01*
X53110000Y-41250000D02*
X55840000Y-41250000D01*
X48307000Y-41209000D02*
X51030000Y-41209000D01*
X53110000Y-41209000D02*
X55833000Y-41209000D01*
X48315000Y-41169000D02*
X51030000Y-41169000D01*
X53110000Y-41169000D02*
X55825000Y-41169000D01*
X48323000Y-41129000D02*
X51030000Y-41129000D01*
X53110000Y-41129000D02*
X55817000Y-41129000D01*
X48332000Y-41089000D02*
X51030000Y-41089000D01*
X53110000Y-41089000D02*
X55808000Y-41089000D01*
X48341000Y-41049000D02*
X51030000Y-41049000D01*
X53110000Y-41049000D02*
X55799000Y-41049000D01*
X48350000Y-41009000D02*
X51030000Y-41009000D01*
X53110000Y-41009000D02*
X55790000Y-41009000D01*
X48360000Y-40969000D02*
X51030000Y-40969000D01*
X53110000Y-40969000D02*
X55780000Y-40969000D01*
X48371000Y-40929000D02*
X51030000Y-40929000D01*
X53110000Y-40929000D02*
X55769000Y-40929000D01*
X48382000Y-40889000D02*
X51030000Y-40889000D01*
X53110000Y-40889000D02*
X55758000Y-40889000D01*
X48393000Y-40849000D02*
X51030000Y-40849000D01*
X53110000Y-40849000D02*
X55747000Y-40849000D01*
X48405000Y-40809000D02*
X51030000Y-40809000D01*
X53110000Y-40809000D02*
X55735000Y-40809000D01*
X48417000Y-40769000D02*
X51030000Y-40769000D01*
X53110000Y-40769000D02*
X55723000Y-40769000D01*
X48430000Y-40729000D02*
X51030000Y-40729000D01*
X53110000Y-40729000D02*
X55710000Y-40729000D01*
X48444000Y-40689000D02*
X51030000Y-40689000D01*
X53110000Y-40689000D02*
X55696000Y-40689000D01*
X48457000Y-40649000D02*
X51030000Y-40649000D01*
X53110000Y-40649000D02*
X55683000Y-40649000D01*
X48472000Y-40609000D02*
X51030000Y-40609000D01*
X53110000Y-40609000D02*
X55668000Y-40609000D01*
X48486000Y-40569000D02*
X51030000Y-40569000D01*
X53110000Y-40569000D02*
X55654000Y-40569000D01*
X48502000Y-40529000D02*
X51030000Y-40529000D01*
X53110000Y-40529000D02*
X55638000Y-40529000D01*
X48517000Y-40489000D02*
X51030000Y-40489000D01*
X53110000Y-40489000D02*
X55623000Y-40489000D01*
X48534000Y-40449000D02*
X51030000Y-40449000D01*
X53110000Y-40449000D02*
X55606000Y-40449000D01*
X48550000Y-40409000D02*
X51030000Y-40409000D01*
X53110000Y-40409000D02*
X55590000Y-40409000D01*
X48568000Y-40369000D02*
X51030000Y-40369000D01*
X53110000Y-40369000D02*
X55572000Y-40369000D01*
X48586000Y-40329000D02*
X51030000Y-40329000D01*
X53110000Y-40329000D02*
X55554000Y-40329000D01*
X48604000Y-40289000D02*
X51030000Y-40289000D01*
X53110000Y-40289000D02*
X55536000Y-40289000D01*
X48623000Y-40249000D02*
X51030000Y-40249000D01*
X53110000Y-40249000D02*
X55517000Y-40249000D01*
X48643000Y-40209000D02*
X51030000Y-40209000D01*
X53110000Y-40209000D02*
X55497000Y-40209000D01*
X48663000Y-40169000D02*
X51030000Y-40169000D01*
X53110000Y-40169000D02*
X55477000Y-40169000D01*
X48684000Y-40129000D02*
X51030000Y-40129000D01*
X53110000Y-40129000D02*
X55456000Y-40129000D01*
X48705000Y-40089000D02*
X51030000Y-40089000D01*
X53110000Y-40089000D02*
X55435000Y-40089000D01*
X48727000Y-40049000D02*
X51030000Y-40049000D01*
X53110000Y-40049000D02*
X55413000Y-40049000D01*
X48749000Y-40009000D02*
X51030000Y-40009000D01*
X53110000Y-40009000D02*
X55391000Y-40009000D01*
X48773000Y-39969000D02*
X51030000Y-39969000D01*
X53110000Y-39969000D02*
X55367000Y-39969000D01*
X48796000Y-39929000D02*
X51030000Y-39929000D01*
X53110000Y-39929000D02*
X55344000Y-39929000D01*
X48821000Y-39889000D02*
X51030000Y-39889000D01*
X53110000Y-39889000D02*
X55319000Y-39889000D01*
X48846000Y-39849000D02*
X51030000Y-39849000D01*
X53110000Y-39849000D02*
X55294000Y-39849000D01*
X48872000Y-39809000D02*
X51030000Y-39809000D01*
X53110000Y-39809000D02*
X55268000Y-39809000D01*
X48898000Y-39769000D02*
X51030000Y-39769000D01*
X53110000Y-39769000D02*
X55242000Y-39769000D01*
X48926000Y-39729000D02*
X51030000Y-39729000D01*
X53110000Y-39729000D02*
X55214000Y-39729000D01*
X48954000Y-39689000D02*
X51030000Y-39689000D01*
X53110000Y-39689000D02*
X55186000Y-39689000D01*
X48982000Y-39649000D02*
X51030000Y-39649000D01*
X53110000Y-39649000D02*
X55158000Y-39649000D01*
X49012000Y-39609000D02*
X55128000Y-39609000D01*
X49042000Y-39569000D02*
X55098000Y-39569000D01*
X49074000Y-39529000D02*
X55066000Y-39529000D01*
X49106000Y-39489000D02*
X55034000Y-39489000D01*
X49139000Y-39449000D02*
X55001000Y-39449000D01*
X49172000Y-39409000D02*
X54968000Y-39409000D01*
X49207000Y-39369000D02*
X54933000Y-39369000D01*
X49243000Y-39329000D02*
X54897000Y-39329000D01*
X49280000Y-39289000D02*
X54860000Y-39289000D01*
X49318000Y-39249000D02*
X54822000Y-39249000D01*
X49357000Y-39209000D02*
X54783000Y-39209000D01*
X49397000Y-39169000D02*
X54743000Y-39169000D01*
X49438000Y-39129000D02*
X54702000Y-39129000D01*
X49481000Y-39089000D02*
X54659000Y-39089000D01*
X49524000Y-39049000D02*
X54616000Y-39049000D01*
X49570000Y-39009000D02*
X54570000Y-39009000D01*
X49616000Y-38969000D02*
X54524000Y-38969000D01*
X49665000Y-38929000D02*
X54475000Y-38929000D01*
X49715000Y-38889000D02*
X54425000Y-38889000D01*
X49766000Y-38849000D02*
X54374000Y-38849000D01*
X49820000Y-38809000D02*
X54320000Y-38809000D01*
X49875000Y-38769000D02*
X54265000Y-38769000D01*
X49933000Y-38729000D02*
X54207000Y-38729000D01*
X49993000Y-38689000D02*
X54147000Y-38689000D01*
X50056000Y-38649000D02*
X54084000Y-38649000D01*
X50121000Y-38609000D02*
X54019000Y-38609000D01*
X50189000Y-38569000D02*
X53951000Y-38569000D01*
X50261000Y-38529000D02*
X53879000Y-38529000D01*
X50337000Y-38489000D02*
X53803000Y-38489000D01*
X50416000Y-38449000D02*
X53724000Y-38449000D01*
X50501000Y-38409000D02*
X53639000Y-38409000D01*
X50592000Y-38369000D02*
X53548000Y-38369000D01*
X50689000Y-38329000D02*
X53451000Y-38329000D01*
X50795000Y-38289000D02*
X53345000Y-38289000D01*
X50912000Y-38249000D02*
X53228000Y-38249000D01*
X51042000Y-38209000D02*
X53098000Y-38209000D01*
X51193000Y-38169000D02*
X52947000Y-38169000D01*
X51377000Y-38129000D02*
X52763000Y-38129000D01*
X51629000Y-38089000D02*
X52511000Y-38089000D01*
X49895000Y-46072211D02*
X49895000Y-45322211D01*
X49520000Y-45697211D02*
X50270000Y-45697211D01*
G04 #@! TO.C,C7*
X90180000Y-52092789D02*
X89430000Y-52092789D01*
X89805000Y-51717789D02*
X89805000Y-52467789D01*
X88071000Y-59701000D02*
X87189000Y-59701000D01*
X88323000Y-59661000D02*
X86937000Y-59661000D01*
X88507000Y-59621000D02*
X86753000Y-59621000D01*
X88658000Y-59581000D02*
X86602000Y-59581000D01*
X88788000Y-59541000D02*
X86472000Y-59541000D01*
X88905000Y-59501000D02*
X86355000Y-59501000D01*
X89011000Y-59461000D02*
X86249000Y-59461000D01*
X89108000Y-59421000D02*
X86152000Y-59421000D01*
X89199000Y-59381000D02*
X86061000Y-59381000D01*
X89284000Y-59341000D02*
X85976000Y-59341000D01*
X89363000Y-59301000D02*
X85897000Y-59301000D01*
X89439000Y-59261000D02*
X85821000Y-59261000D01*
X89511000Y-59221000D02*
X85749000Y-59221000D01*
X89579000Y-59181000D02*
X85681000Y-59181000D01*
X89644000Y-59141000D02*
X85616000Y-59141000D01*
X89707000Y-59101000D02*
X85553000Y-59101000D01*
X89767000Y-59061000D02*
X85493000Y-59061000D01*
X89825000Y-59021000D02*
X85435000Y-59021000D01*
X89880000Y-58981000D02*
X85380000Y-58981000D01*
X89934000Y-58941000D02*
X85326000Y-58941000D01*
X89985000Y-58901000D02*
X85275000Y-58901000D01*
X90035000Y-58861000D02*
X85225000Y-58861000D01*
X90084000Y-58821000D02*
X85176000Y-58821000D01*
X90130000Y-58781000D02*
X85130000Y-58781000D01*
X90176000Y-58741000D02*
X85084000Y-58741000D01*
X90219000Y-58701000D02*
X85041000Y-58701000D01*
X90262000Y-58661000D02*
X84998000Y-58661000D01*
X90303000Y-58621000D02*
X84957000Y-58621000D01*
X90343000Y-58581000D02*
X84917000Y-58581000D01*
X90382000Y-58541000D02*
X84878000Y-58541000D01*
X90420000Y-58501000D02*
X84840000Y-58501000D01*
X90457000Y-58461000D02*
X84803000Y-58461000D01*
X90493000Y-58421000D02*
X84767000Y-58421000D01*
X90528000Y-58381000D02*
X84732000Y-58381000D01*
X90561000Y-58341000D02*
X84699000Y-58341000D01*
X90594000Y-58301000D02*
X84666000Y-58301000D01*
X90626000Y-58261000D02*
X84634000Y-58261000D01*
X90658000Y-58221000D02*
X84602000Y-58221000D01*
X90688000Y-58181000D02*
X84572000Y-58181000D01*
X86590000Y-58141000D02*
X84542000Y-58141000D01*
X90718000Y-58141000D02*
X88670000Y-58141000D01*
X86590000Y-58101000D02*
X84514000Y-58101000D01*
X90746000Y-58101000D02*
X88670000Y-58101000D01*
X86590000Y-58061000D02*
X84486000Y-58061000D01*
X90774000Y-58061000D02*
X88670000Y-58061000D01*
X86590000Y-58021000D02*
X84458000Y-58021000D01*
X90802000Y-58021000D02*
X88670000Y-58021000D01*
X86590000Y-57981000D02*
X84432000Y-57981000D01*
X90828000Y-57981000D02*
X88670000Y-57981000D01*
X86590000Y-57941000D02*
X84406000Y-57941000D01*
X90854000Y-57941000D02*
X88670000Y-57941000D01*
X86590000Y-57901000D02*
X84381000Y-57901000D01*
X90879000Y-57901000D02*
X88670000Y-57901000D01*
X86590000Y-57861000D02*
X84356000Y-57861000D01*
X90904000Y-57861000D02*
X88670000Y-57861000D01*
X86590000Y-57821000D02*
X84333000Y-57821000D01*
X90927000Y-57821000D02*
X88670000Y-57821000D01*
X86590000Y-57781000D02*
X84309000Y-57781000D01*
X90951000Y-57781000D02*
X88670000Y-57781000D01*
X86590000Y-57741000D02*
X84287000Y-57741000D01*
X90973000Y-57741000D02*
X88670000Y-57741000D01*
X86590000Y-57701000D02*
X84265000Y-57701000D01*
X90995000Y-57701000D02*
X88670000Y-57701000D01*
X86590000Y-57661000D02*
X84244000Y-57661000D01*
X91016000Y-57661000D02*
X88670000Y-57661000D01*
X86590000Y-57621000D02*
X84223000Y-57621000D01*
X91037000Y-57621000D02*
X88670000Y-57621000D01*
X86590000Y-57581000D02*
X84203000Y-57581000D01*
X91057000Y-57581000D02*
X88670000Y-57581000D01*
X86590000Y-57541000D02*
X84183000Y-57541000D01*
X91077000Y-57541000D02*
X88670000Y-57541000D01*
X86590000Y-57501000D02*
X84164000Y-57501000D01*
X91096000Y-57501000D02*
X88670000Y-57501000D01*
X86590000Y-57461000D02*
X84146000Y-57461000D01*
X91114000Y-57461000D02*
X88670000Y-57461000D01*
X86590000Y-57421000D02*
X84128000Y-57421000D01*
X91132000Y-57421000D02*
X88670000Y-57421000D01*
X86590000Y-57381000D02*
X84110000Y-57381000D01*
X91150000Y-57381000D02*
X88670000Y-57381000D01*
X86590000Y-57341000D02*
X84094000Y-57341000D01*
X91166000Y-57341000D02*
X88670000Y-57341000D01*
X86590000Y-57301000D02*
X84077000Y-57301000D01*
X91183000Y-57301000D02*
X88670000Y-57301000D01*
X86590000Y-57261000D02*
X84062000Y-57261000D01*
X91198000Y-57261000D02*
X88670000Y-57261000D01*
X86590000Y-57221000D02*
X84046000Y-57221000D01*
X91214000Y-57221000D02*
X88670000Y-57221000D01*
X86590000Y-57181000D02*
X84032000Y-57181000D01*
X91228000Y-57181000D02*
X88670000Y-57181000D01*
X86590000Y-57141000D02*
X84017000Y-57141000D01*
X91243000Y-57141000D02*
X88670000Y-57141000D01*
X86590000Y-57101000D02*
X84004000Y-57101000D01*
X91256000Y-57101000D02*
X88670000Y-57101000D01*
X86590000Y-57061000D02*
X83990000Y-57061000D01*
X91270000Y-57061000D02*
X88670000Y-57061000D01*
X86590000Y-57021000D02*
X83977000Y-57021000D01*
X91283000Y-57021000D02*
X88670000Y-57021000D01*
X86590000Y-56981000D02*
X83965000Y-56981000D01*
X91295000Y-56981000D02*
X88670000Y-56981000D01*
X86590000Y-56941000D02*
X83953000Y-56941000D01*
X91307000Y-56941000D02*
X88670000Y-56941000D01*
X86590000Y-56901000D02*
X83942000Y-56901000D01*
X91318000Y-56901000D02*
X88670000Y-56901000D01*
X86590000Y-56861000D02*
X83931000Y-56861000D01*
X91329000Y-56861000D02*
X88670000Y-56861000D01*
X86590000Y-56821000D02*
X83920000Y-56821000D01*
X91340000Y-56821000D02*
X88670000Y-56821000D01*
X86590000Y-56781000D02*
X83910000Y-56781000D01*
X91350000Y-56781000D02*
X88670000Y-56781000D01*
X86590000Y-56741000D02*
X83901000Y-56741000D01*
X91359000Y-56741000D02*
X88670000Y-56741000D01*
X86590000Y-56701000D02*
X83892000Y-56701000D01*
X91368000Y-56701000D02*
X88670000Y-56701000D01*
X86590000Y-56661000D02*
X83883000Y-56661000D01*
X91377000Y-56661000D02*
X88670000Y-56661000D01*
X86590000Y-56621000D02*
X83875000Y-56621000D01*
X91385000Y-56621000D02*
X88670000Y-56621000D01*
X86590000Y-56581000D02*
X83867000Y-56581000D01*
X91393000Y-56581000D02*
X88670000Y-56581000D01*
X86590000Y-56540000D02*
X83860000Y-56540000D01*
X91400000Y-56540000D02*
X88670000Y-56540000D01*
X86590000Y-56500000D02*
X83853000Y-56500000D01*
X91407000Y-56500000D02*
X88670000Y-56500000D01*
X86590000Y-56460000D02*
X83846000Y-56460000D01*
X91414000Y-56460000D02*
X88670000Y-56460000D01*
X86590000Y-56420000D02*
X83840000Y-56420000D01*
X91420000Y-56420000D02*
X88670000Y-56420000D01*
X86590000Y-56380000D02*
X83835000Y-56380000D01*
X91425000Y-56380000D02*
X88670000Y-56380000D01*
X86590000Y-56340000D02*
X83829000Y-56340000D01*
X91431000Y-56340000D02*
X88670000Y-56340000D01*
X86590000Y-56300000D02*
X83825000Y-56300000D01*
X91435000Y-56300000D02*
X88670000Y-56300000D01*
X86590000Y-56260000D02*
X83820000Y-56260000D01*
X91440000Y-56260000D02*
X88670000Y-56260000D01*
X86590000Y-56220000D02*
X83816000Y-56220000D01*
X91444000Y-56220000D02*
X88670000Y-56220000D01*
X86590000Y-56180000D02*
X83813000Y-56180000D01*
X91447000Y-56180000D02*
X88670000Y-56180000D01*
X86590000Y-56140000D02*
X83810000Y-56140000D01*
X91450000Y-56140000D02*
X88670000Y-56140000D01*
X86590000Y-56100000D02*
X83807000Y-56100000D01*
X91453000Y-56100000D02*
X88670000Y-56100000D01*
X91455000Y-56060000D02*
X83805000Y-56060000D01*
X91457000Y-56020000D02*
X83803000Y-56020000D01*
X91459000Y-55980000D02*
X83801000Y-55980000D01*
X91460000Y-55940000D02*
X83800000Y-55940000D01*
X91460000Y-55900000D02*
X83800000Y-55900000D01*
X91460000Y-55860000D02*
X83800000Y-55860000D01*
X91500000Y-55860000D02*
G75*
G03X91500000Y-55860000I-3870000J0D01*
G01*
G04 #@! TO.C,C8*
X50760000Y-82510000D02*
X55880000Y-82510000D01*
X50760000Y-85130000D02*
X55880000Y-85130000D01*
X50760000Y-82510000D02*
X50760000Y-85130000D01*
X55880000Y-82510000D02*
X55880000Y-85130000D01*
G04 #@! TO.C,C9*
X74335000Y-73620000D02*
X74335000Y-78740000D01*
X71715000Y-73620000D02*
X71715000Y-78740000D01*
X74335000Y-73620000D02*
X71715000Y-73620000D01*
X74335000Y-78740000D02*
X71715000Y-78740000D01*
G04 #@! TO.C,C10*
X71080000Y-60960000D02*
X73700000Y-60960000D01*
X71080000Y-66080000D02*
X73700000Y-66080000D01*
X73700000Y-66080000D02*
X73700000Y-60960000D01*
X71080000Y-66080000D02*
X71080000Y-60960000D01*
G04 #@! TO.C,C11*
X78740000Y-79970000D02*
X78740000Y-82590000D01*
X73620000Y-79970000D02*
X73620000Y-82590000D01*
X73620000Y-82590000D02*
X78740000Y-82590000D01*
X73620000Y-79970000D02*
X78740000Y-79970000D01*
G04 #@! TO.C,C12*
X79970000Y-54610000D02*
X82590000Y-54610000D01*
X79970000Y-59730000D02*
X82590000Y-59730000D01*
X82590000Y-59730000D02*
X82590000Y-54610000D01*
X79970000Y-59730000D02*
X79970000Y-54610000D01*
G04 #@! TO.C,C13*
X102870000Y-79970000D02*
X107990000Y-79970000D01*
X102870000Y-82590000D02*
X107990000Y-82590000D01*
X102870000Y-79970000D02*
X102870000Y-82590000D01*
X107990000Y-79970000D02*
X107990000Y-82590000D01*
G04 #@! TO.C,C14*
X109855000Y-39330000D02*
X109855000Y-41950000D01*
X104735000Y-39330000D02*
X104735000Y-41950000D01*
X104735000Y-41950000D02*
X109855000Y-41950000D01*
X104735000Y-39330000D02*
X109855000Y-39330000D01*
G04 #@! TO.C,C15*
X111720000Y-119420000D02*
X111720000Y-114300000D01*
X114340000Y-119420000D02*
X114340000Y-114300000D01*
X111720000Y-119420000D02*
X114340000Y-119420000D01*
X111720000Y-114300000D02*
X114340000Y-114300000D01*
G04 #@! TO.C,C16*
X111720000Y-87630000D02*
X114340000Y-87630000D01*
X111720000Y-92750000D02*
X114340000Y-92750000D01*
X114340000Y-92750000D02*
X114340000Y-87630000D01*
X111720000Y-92750000D02*
X111720000Y-87630000D01*
G04 #@! TO.C,C17*
X111720000Y-69890000D02*
X111720000Y-64770000D01*
X114340000Y-69890000D02*
X114340000Y-64770000D01*
X111720000Y-69890000D02*
X114340000Y-69890000D01*
X111720000Y-64770000D02*
X114340000Y-64770000D01*
G04 #@! TO.C,D2*
X84640000Y-46354538D02*
G75*
G03X90190000Y-47899830I2990000J-462D01*
G01*
X84640000Y-46355462D02*
G75*
G02X90190000Y-44810170I2990000J462D01*
G01*
X90130000Y-46355000D02*
G75*
G03X90130000Y-46355000I-2500000J0D01*
G01*
X90190000Y-47900000D02*
X90190000Y-44810000D01*
G04 #@! TO.C,J1*
X133410000Y-38040000D02*
X128210000Y-38040000D01*
X133410000Y-78740000D02*
X133410000Y-38040000D01*
X128210000Y-81340000D02*
X128210000Y-38040000D01*
X133410000Y-78740000D02*
X130810000Y-78740000D01*
X130810000Y-78740000D02*
X130810000Y-81340000D01*
X130810000Y-81340000D02*
X128210000Y-81340000D01*
X133410000Y-80010000D02*
X133410000Y-81340000D01*
X133410000Y-81340000D02*
X132080000Y-81340000D01*
G04 #@! TO.C,J3*
X128210000Y-123250000D02*
X133410000Y-123250000D01*
X128210000Y-92710000D02*
X128210000Y-123250000D01*
X133410000Y-90110000D02*
X133410000Y-123250000D01*
X128210000Y-92710000D02*
X130810000Y-92710000D01*
X130810000Y-92710000D02*
X130810000Y-90110000D01*
X130810000Y-90110000D02*
X133410000Y-90110000D01*
X128210000Y-91440000D02*
X128210000Y-90110000D01*
X128210000Y-90110000D02*
X129540000Y-90110000D01*
G04 #@! TO.C,J4*
X44510000Y-69790000D02*
X41850000Y-69790000D01*
X44510000Y-74930000D02*
X44510000Y-69790000D01*
X41850000Y-74930000D02*
X41850000Y-69790000D01*
X44510000Y-74930000D02*
X41850000Y-74930000D01*
X44510000Y-76200000D02*
X44510000Y-77530000D01*
X44510000Y-77530000D02*
X43180000Y-77530000D01*
G04 #@! TO.C,R1*
X123920000Y-73430000D02*
X123920000Y-73760000D01*
X123920000Y-73760000D02*
X117380000Y-73760000D01*
X117380000Y-73760000D02*
X117380000Y-73430000D01*
X123920000Y-71350000D02*
X123920000Y-71020000D01*
X123920000Y-71020000D02*
X117380000Y-71020000D01*
X117380000Y-71020000D02*
X117380000Y-71350000D01*
G04 #@! TO.C,R2*
X117380000Y-48160000D02*
X117380000Y-48490000D01*
X123920000Y-48160000D02*
X117380000Y-48160000D01*
X123920000Y-48490000D02*
X123920000Y-48160000D01*
X117380000Y-50900000D02*
X117380000Y-50570000D01*
X123920000Y-50900000D02*
X117380000Y-50900000D01*
X123920000Y-50570000D02*
X123920000Y-50900000D01*
G04 #@! TO.C,R3*
X123920000Y-46760000D02*
X123920000Y-47090000D01*
X123920000Y-47090000D02*
X117380000Y-47090000D01*
X117380000Y-47090000D02*
X117380000Y-46760000D01*
X123920000Y-44680000D02*
X123920000Y-44350000D01*
X123920000Y-44350000D02*
X117380000Y-44350000D01*
X117380000Y-44350000D02*
X117380000Y-44680000D01*
G04 #@! TO.C,R4*
X117380000Y-40540000D02*
X117380000Y-40870000D01*
X123920000Y-40540000D02*
X117380000Y-40540000D01*
X123920000Y-40870000D02*
X123920000Y-40540000D01*
X117380000Y-43280000D02*
X117380000Y-42950000D01*
X123920000Y-43280000D02*
X117380000Y-43280000D01*
X123920000Y-42950000D02*
X123920000Y-43280000D01*
G04 #@! TO.C,R5*
X76100000Y-66770000D02*
X76430000Y-66770000D01*
X76100000Y-60230000D02*
X76100000Y-66770000D01*
X76430000Y-60230000D02*
X76100000Y-60230000D01*
X78840000Y-66770000D02*
X78510000Y-66770000D01*
X78840000Y-60230000D02*
X78840000Y-66770000D01*
X78510000Y-60230000D02*
X78840000Y-60230000D01*
G04 #@! TO.C,R6*
X50570000Y-60230000D02*
X50900000Y-60230000D01*
X50900000Y-60230000D02*
X50900000Y-66770000D01*
X50900000Y-66770000D02*
X50570000Y-66770000D01*
X48490000Y-60230000D02*
X48160000Y-60230000D01*
X48160000Y-60230000D02*
X48160000Y-66770000D01*
X48160000Y-66770000D02*
X48490000Y-66770000D01*
G04 #@! TO.C,R7*
X70890000Y-49435000D02*
X71220000Y-49435000D01*
X71220000Y-49435000D02*
X71220000Y-55975000D01*
X71220000Y-55975000D02*
X70890000Y-55975000D01*
X68810000Y-49435000D02*
X68480000Y-49435000D01*
X68480000Y-49435000D02*
X68480000Y-55975000D01*
X68480000Y-55975000D02*
X68810000Y-55975000D01*
G04 #@! TO.C,R8*
X50900000Y-72930000D02*
X50570000Y-72930000D01*
X50900000Y-79470000D02*
X50900000Y-72930000D01*
X50570000Y-79470000D02*
X50900000Y-79470000D01*
X48160000Y-72930000D02*
X48490000Y-72930000D01*
X48160000Y-79470000D02*
X48160000Y-72930000D01*
X48490000Y-79470000D02*
X48160000Y-79470000D01*
G04 #@! TO.C,R9*
X111990000Y-85820000D02*
X111660000Y-85820000D01*
X111660000Y-85820000D02*
X111660000Y-79280000D01*
X111660000Y-79280000D02*
X111990000Y-79280000D01*
X114070000Y-85820000D02*
X114400000Y-85820000D01*
X114400000Y-85820000D02*
X114400000Y-79280000D01*
X114400000Y-79280000D02*
X114070000Y-79280000D01*
G04 #@! TO.C,SW1*
X63569214Y-42835000D02*
G75*
G03X63569214Y-42835000I-1414214J0D01*
G01*
X65125000Y-39715000D02*
X59185000Y-39715000D01*
X65125000Y-45955000D02*
X59185000Y-45955000D01*
X65275000Y-41495000D02*
X65275000Y-44175000D01*
X59035000Y-44175000D02*
X59035000Y-41495000D01*
G04 #@! TO.C,U1*
X121650000Y-52010000D02*
G75*
G02X119650000Y-52010000I-1000000J0D01*
G01*
X119650000Y-52010000D02*
X118400000Y-52010000D01*
X118400000Y-52010000D02*
X118400000Y-69910000D01*
X118400000Y-69910000D02*
X122900000Y-69910000D01*
X122900000Y-69910000D02*
X122900000Y-52010000D01*
X122900000Y-52010000D02*
X121650000Y-52010000D01*
G04 #@! TO.C,U2*
X107660000Y-83760000D02*
X102600000Y-83760000D01*
X107660000Y-119440000D02*
X107660000Y-83760000D01*
X95540000Y-119440000D02*
X107660000Y-119440000D01*
X95540000Y-83760000D02*
X95540000Y-119440000D01*
X100600000Y-83760000D02*
X95540000Y-83760000D01*
X102600000Y-83760000D02*
G75*
G02X100600000Y-83760000I-1000000J0D01*
G01*
G04 #@! TO.C,U3*
X102600000Y-43120000D02*
G75*
G02X100600000Y-43120000I-1000000J0D01*
G01*
X100600000Y-43120000D02*
X95540000Y-43120000D01*
X95540000Y-43120000D02*
X95540000Y-78800000D01*
X95540000Y-78800000D02*
X107660000Y-78800000D01*
X107660000Y-78800000D02*
X107660000Y-43120000D01*
X107660000Y-43120000D02*
X102600000Y-43120000D01*
G04 #@! TO.C,U4*
X69910000Y-65750000D02*
X69910000Y-64500000D01*
X52010000Y-65750000D02*
X69910000Y-65750000D01*
X52010000Y-61250000D02*
X52010000Y-65750000D01*
X69910000Y-61250000D02*
X52010000Y-61250000D01*
X69910000Y-62500000D02*
X69910000Y-61250000D01*
X69910000Y-64500000D02*
G75*
G02X69910000Y-62500000I0J1000000D01*
G01*
G04 #@! TO.C,U5*
X121650000Y-74870000D02*
G75*
G02X119650000Y-74870000I-1000000J0D01*
G01*
X119650000Y-74870000D02*
X118400000Y-74870000D01*
X118400000Y-74870000D02*
X118400000Y-92770000D01*
X118400000Y-92770000D02*
X122900000Y-92770000D01*
X122900000Y-92770000D02*
X122900000Y-74870000D01*
X122900000Y-74870000D02*
X121650000Y-74870000D01*
G04 #@! TO.C,U6*
X86090000Y-60265000D02*
G75*
G02X84090000Y-60265000I-1000000J0D01*
G01*
X84090000Y-60265000D02*
X82840000Y-60265000D01*
X82840000Y-60265000D02*
X82840000Y-80705000D01*
X82840000Y-80705000D02*
X87340000Y-80705000D01*
X87340000Y-80705000D02*
X87340000Y-60265000D01*
X87340000Y-60265000D02*
X86090000Y-60265000D01*
G04 #@! TO.C,U7*
X77200000Y-83760000D02*
G75*
G02X75200000Y-83760000I-1000000J0D01*
G01*
X75200000Y-83760000D02*
X70140000Y-83760000D01*
X70140000Y-83760000D02*
X70140000Y-119440000D01*
X70140000Y-119440000D02*
X82260000Y-119440000D01*
X82260000Y-119440000D02*
X82260000Y-83760000D01*
X82260000Y-83760000D02*
X77200000Y-83760000D01*
G04 #@! TO.C,U8*
X59420000Y-86300000D02*
G75*
G02X57420000Y-86300000I-1000000J0D01*
G01*
X57420000Y-86300000D02*
X56170000Y-86300000D01*
X56170000Y-86300000D02*
X56170000Y-116900000D01*
X56170000Y-116900000D02*
X60670000Y-116900000D01*
X60670000Y-116900000D02*
X60670000Y-86300000D01*
X60670000Y-86300000D02*
X59420000Y-86300000D01*
G04 #@! TO.C,U9*
X121650000Y-93920000D02*
G75*
G02X119650000Y-93920000I-1000000J0D01*
G01*
X119650000Y-93920000D02*
X118400000Y-93920000D01*
X118400000Y-93920000D02*
X118400000Y-119440000D01*
X118400000Y-119440000D02*
X122900000Y-119440000D01*
X122900000Y-119440000D02*
X122900000Y-93920000D01*
X122900000Y-93920000D02*
X121650000Y-93920000D01*
G04 #@! TO.C,U10*
X69910000Y-78450000D02*
X69910000Y-77200000D01*
X52010000Y-78450000D02*
X69910000Y-78450000D01*
X52010000Y-73950000D02*
X52010000Y-78450000D01*
X69910000Y-73950000D02*
X52010000Y-73950000D01*
X69910000Y-75200000D02*
X69910000Y-73950000D01*
X69910000Y-77200000D02*
G75*
G02X69910000Y-75200000I0J1000000D01*
G01*
G04 #@! TO.C,Y1*
X55205000Y-52085000D02*
X61455000Y-52085000D01*
X55205000Y-57135000D02*
X61455000Y-57135000D01*
X55205000Y-57135000D02*
G75*
G02X55205000Y-52085000I0J2525000D01*
G01*
X61455000Y-57135000D02*
G75*
G03X61455000Y-52085000I0J2525000D01*
G01*
G04 #@! TO.C,D1*
X44300000Y-62650000D02*
X42060000Y-62650000D01*
X42060000Y-62650000D02*
X42060000Y-66890000D01*
X42060000Y-66890000D02*
X44300000Y-66890000D01*
X44300000Y-66890000D02*
X44300000Y-62650000D01*
X43180000Y-62000000D02*
X43180000Y-62650000D01*
X43180000Y-67540000D02*
X43180000Y-66890000D01*
X44300000Y-63370000D02*
X42060000Y-63370000D01*
X44300000Y-63490000D02*
X42060000Y-63490000D01*
X44300000Y-63250000D02*
X42060000Y-63250000D01*
G04 #@! TO.C,D3*
X42060000Y-87210000D02*
X44300000Y-87210000D01*
X44300000Y-87210000D02*
X44300000Y-82970000D01*
X44300000Y-82970000D02*
X42060000Y-82970000D01*
X42060000Y-82970000D02*
X42060000Y-87210000D01*
X43180000Y-87860000D02*
X43180000Y-87210000D01*
X43180000Y-82320000D02*
X43180000Y-82970000D01*
X42060000Y-86490000D02*
X44300000Y-86490000D01*
X42060000Y-86370000D02*
X44300000Y-86370000D01*
X42060000Y-86610000D02*
X44300000Y-86610000D01*
G04 #@! TO.C,D4*
X42060000Y-112010000D02*
X44300000Y-112010000D01*
X42060000Y-111770000D02*
X44300000Y-111770000D01*
X42060000Y-111890000D02*
X44300000Y-111890000D01*
X43180000Y-107720000D02*
X43180000Y-108370000D01*
X43180000Y-113260000D02*
X43180000Y-112610000D01*
X42060000Y-108370000D02*
X42060000Y-112610000D01*
X44300000Y-108370000D02*
X42060000Y-108370000D01*
X44300000Y-112610000D02*
X44300000Y-108370000D01*
X42060000Y-112610000D02*
X44300000Y-112610000D01*
G04 #@! TO.C,R10*
X78510000Y-49435000D02*
X78840000Y-49435000D01*
X78840000Y-49435000D02*
X78840000Y-55975000D01*
X78840000Y-55975000D02*
X78510000Y-55975000D01*
X76430000Y-49435000D02*
X76100000Y-49435000D01*
X76100000Y-49435000D02*
X76100000Y-55975000D01*
X76100000Y-55975000D02*
X76430000Y-55975000D01*
G04 #@! TO.C,R11*
X72290000Y-55975000D02*
X72620000Y-55975000D01*
X72290000Y-49435000D02*
X72290000Y-55975000D01*
X72620000Y-49435000D02*
X72290000Y-49435000D01*
X75030000Y-55975000D02*
X74700000Y-55975000D01*
X75030000Y-49435000D02*
X75030000Y-55975000D01*
X74700000Y-49435000D02*
X75030000Y-49435000D01*
G04 #@! TO.C,SW2*
X82430000Y-36960000D02*
X82430000Y-46860000D01*
X75050000Y-36960000D02*
X75050000Y-46860000D01*
X82430000Y-36960000D02*
X75050000Y-36960000D01*
X82430000Y-46860000D02*
X75050000Y-46860000D01*
X82670000Y-36720000D02*
X82670000Y-38104000D01*
X82670000Y-36720000D02*
X81287000Y-36720000D01*
X80645000Y-39880000D02*
X79375000Y-39880000D01*
X79375000Y-39880000D02*
X79375000Y-43940000D01*
X79375000Y-43940000D02*
X80645000Y-43940000D01*
X80645000Y-43940000D02*
X80645000Y-39880000D01*
X80525000Y-39880000D02*
X80525000Y-41233333D01*
X80405000Y-39880000D02*
X80405000Y-41233333D01*
X80285000Y-39880000D02*
X80285000Y-41233333D01*
X80165000Y-39880000D02*
X80165000Y-41233333D01*
X80045000Y-39880000D02*
X80045000Y-41233333D01*
X79925000Y-39880000D02*
X79925000Y-41233333D01*
X79805000Y-39880000D02*
X79805000Y-41233333D01*
X79685000Y-39880000D02*
X79685000Y-41233333D01*
X79565000Y-39880000D02*
X79565000Y-41233333D01*
X79445000Y-39880000D02*
X79445000Y-41233333D01*
X80645000Y-41233333D02*
X79375000Y-41233333D01*
X78105000Y-39880000D02*
X76835000Y-39880000D01*
X76835000Y-39880000D02*
X76835000Y-43940000D01*
X76835000Y-43940000D02*
X78105000Y-43940000D01*
X78105000Y-43940000D02*
X78105000Y-39880000D01*
X77985000Y-39880000D02*
X77985000Y-41233333D01*
X77865000Y-39880000D02*
X77865000Y-41233333D01*
X77745000Y-39880000D02*
X77745000Y-41233333D01*
X77625000Y-39880000D02*
X77625000Y-41233333D01*
X77505000Y-39880000D02*
X77505000Y-41233333D01*
X77385000Y-39880000D02*
X77385000Y-41233333D01*
X77265000Y-39880000D02*
X77265000Y-41233333D01*
X77145000Y-39880000D02*
X77145000Y-41233333D01*
X77025000Y-39880000D02*
X77025000Y-41233333D01*
X76905000Y-39880000D02*
X76905000Y-41233333D01*
X78105000Y-41233333D02*
X76835000Y-41233333D01*
G04 #@! TO.C,U12*
X41830000Y-48300000D02*
X41830000Y-38060000D01*
X46471000Y-48300000D02*
X46471000Y-38060000D01*
X41830000Y-48300000D02*
X46471000Y-48300000D01*
X41830000Y-38060000D02*
X46471000Y-38060000D01*
X43340000Y-48300000D02*
X43340000Y-38060000D01*
X41830000Y-45030000D02*
X43340000Y-45030000D01*
X41830000Y-41329000D02*
X43340000Y-41329000D01*
G04 #@! TO.C,C1*
D13*
X43537142Y-50966666D02*
X43584761Y-51014285D01*
X43632380Y-51157142D01*
X43632380Y-51252380D01*
X43584761Y-51395238D01*
X43489523Y-51490476D01*
X43394285Y-51538095D01*
X43203809Y-51585714D01*
X43060952Y-51585714D01*
X42870476Y-51538095D01*
X42775238Y-51490476D01*
X42680000Y-51395238D01*
X42632380Y-51252380D01*
X42632380Y-51157142D01*
X42680000Y-51014285D01*
X42727619Y-50966666D01*
X43632380Y-50014285D02*
X43632380Y-50585714D01*
X43632380Y-50300000D02*
X42632380Y-50300000D01*
X42775238Y-50395238D01*
X42870476Y-50490476D01*
X42918095Y-50585714D01*
G04 #@! TO.C,C2*
X66397142Y-49696666D02*
X66444761Y-49744285D01*
X66492380Y-49887142D01*
X66492380Y-49982380D01*
X66444761Y-50125238D01*
X66349523Y-50220476D01*
X66254285Y-50268095D01*
X66063809Y-50315714D01*
X65920952Y-50315714D01*
X65730476Y-50268095D01*
X65635238Y-50220476D01*
X65540000Y-50125238D01*
X65492380Y-49982380D01*
X65492380Y-49887142D01*
X65540000Y-49744285D01*
X65587619Y-49696666D01*
X65587619Y-49315714D02*
X65540000Y-49268095D01*
X65492380Y-49172857D01*
X65492380Y-48934761D01*
X65540000Y-48839523D01*
X65587619Y-48791904D01*
X65682857Y-48744285D01*
X65778095Y-48744285D01*
X65920952Y-48791904D01*
X66492380Y-49363333D01*
X66492380Y-48744285D01*
G04 #@! TO.C,C3*
X43537142Y-96726666D02*
X43584761Y-96774285D01*
X43632380Y-96917142D01*
X43632380Y-97012380D01*
X43584761Y-97155238D01*
X43489523Y-97250476D01*
X43394285Y-97298095D01*
X43203809Y-97345714D01*
X43060952Y-97345714D01*
X42870476Y-97298095D01*
X42775238Y-97250476D01*
X42680000Y-97155238D01*
X42632380Y-97012380D01*
X42632380Y-96917142D01*
X42680000Y-96774285D01*
X42727619Y-96726666D01*
X42632380Y-96393333D02*
X42632380Y-95774285D01*
X43013333Y-96107619D01*
X43013333Y-95964761D01*
X43060952Y-95869523D01*
X43108571Y-95821904D01*
X43203809Y-95774285D01*
X43441904Y-95774285D01*
X43537142Y-95821904D01*
X43584761Y-95869523D01*
X43632380Y-95964761D01*
X43632380Y-96250476D01*
X43584761Y-96345714D01*
X43537142Y-96393333D01*
G04 #@! TO.C,C4*
X65127142Y-86526666D02*
X65174761Y-86574285D01*
X65222380Y-86717142D01*
X65222380Y-86812380D01*
X65174761Y-86955238D01*
X65079523Y-87050476D01*
X64984285Y-87098095D01*
X64793809Y-87145714D01*
X64650952Y-87145714D01*
X64460476Y-87098095D01*
X64365238Y-87050476D01*
X64270000Y-86955238D01*
X64222380Y-86812380D01*
X64222380Y-86717142D01*
X64270000Y-86574285D01*
X64317619Y-86526666D01*
X64555714Y-85669523D02*
X65222380Y-85669523D01*
X64174761Y-85907619D02*
X64889047Y-86145714D01*
X64889047Y-85526666D01*
G04 #@! TO.C,C5*
X49887142Y-48426666D02*
X49934761Y-48474285D01*
X49982380Y-48617142D01*
X49982380Y-48712380D01*
X49934761Y-48855238D01*
X49839523Y-48950476D01*
X49744285Y-48998095D01*
X49553809Y-49045714D01*
X49410952Y-49045714D01*
X49220476Y-48998095D01*
X49125238Y-48950476D01*
X49030000Y-48855238D01*
X48982380Y-48712380D01*
X48982380Y-48617142D01*
X49030000Y-48474285D01*
X49077619Y-48426666D01*
X48982380Y-47521904D02*
X48982380Y-47998095D01*
X49458571Y-48045714D01*
X49410952Y-47998095D01*
X49363333Y-47902857D01*
X49363333Y-47664761D01*
X49410952Y-47569523D01*
X49458571Y-47521904D01*
X49553809Y-47474285D01*
X49791904Y-47474285D01*
X49887142Y-47521904D01*
X49934761Y-47569523D01*
X49982380Y-47664761D01*
X49982380Y-47902857D01*
X49934761Y-47998095D01*
X49887142Y-48045714D01*
G04 #@! TO.C,C6*
X48617142Y-38266666D02*
X48664761Y-38314285D01*
X48712380Y-38457142D01*
X48712380Y-38552380D01*
X48664761Y-38695238D01*
X48569523Y-38790476D01*
X48474285Y-38838095D01*
X48283809Y-38885714D01*
X48140952Y-38885714D01*
X47950476Y-38838095D01*
X47855238Y-38790476D01*
X47760000Y-38695238D01*
X47712380Y-38552380D01*
X47712380Y-38457142D01*
X47760000Y-38314285D01*
X47807619Y-38266666D01*
X47712380Y-37409523D02*
X47712380Y-37600000D01*
X47760000Y-37695238D01*
X47807619Y-37742857D01*
X47950476Y-37838095D01*
X48140952Y-37885714D01*
X48521904Y-37885714D01*
X48617142Y-37838095D01*
X48664761Y-37790476D01*
X48712380Y-37695238D01*
X48712380Y-37504761D01*
X48664761Y-37409523D01*
X48617142Y-37361904D01*
X48521904Y-37314285D01*
X48283809Y-37314285D01*
X48188571Y-37361904D01*
X48140952Y-37409523D01*
X48093333Y-37504761D01*
X48093333Y-37695238D01*
X48140952Y-37790476D01*
X48188571Y-37838095D01*
X48283809Y-37885714D01*
G04 #@! TO.C,C7*
X84177142Y-52236666D02*
X84224761Y-52284285D01*
X84272380Y-52427142D01*
X84272380Y-52522380D01*
X84224761Y-52665238D01*
X84129523Y-52760476D01*
X84034285Y-52808095D01*
X83843809Y-52855714D01*
X83700952Y-52855714D01*
X83510476Y-52808095D01*
X83415238Y-52760476D01*
X83320000Y-52665238D01*
X83272380Y-52522380D01*
X83272380Y-52427142D01*
X83320000Y-52284285D01*
X83367619Y-52236666D01*
X83272380Y-51903333D02*
X83272380Y-51236666D01*
X84272380Y-51665238D01*
G04 #@! TO.C,C8*
X49887142Y-83986666D02*
X49934761Y-84034285D01*
X49982380Y-84177142D01*
X49982380Y-84272380D01*
X49934761Y-84415238D01*
X49839523Y-84510476D01*
X49744285Y-84558095D01*
X49553809Y-84605714D01*
X49410952Y-84605714D01*
X49220476Y-84558095D01*
X49125238Y-84510476D01*
X49030000Y-84415238D01*
X48982380Y-84272380D01*
X48982380Y-84177142D01*
X49030000Y-84034285D01*
X49077619Y-83986666D01*
X49410952Y-83415238D02*
X49363333Y-83510476D01*
X49315714Y-83558095D01*
X49220476Y-83605714D01*
X49172857Y-83605714D01*
X49077619Y-83558095D01*
X49030000Y-83510476D01*
X48982380Y-83415238D01*
X48982380Y-83224761D01*
X49030000Y-83129523D01*
X49077619Y-83081904D01*
X49172857Y-83034285D01*
X49220476Y-83034285D01*
X49315714Y-83081904D01*
X49363333Y-83129523D01*
X49410952Y-83224761D01*
X49410952Y-83415238D01*
X49458571Y-83510476D01*
X49506190Y-83558095D01*
X49601428Y-83605714D01*
X49791904Y-83605714D01*
X49887142Y-83558095D01*
X49934761Y-83510476D01*
X49982380Y-83415238D01*
X49982380Y-83224761D01*
X49934761Y-83129523D01*
X49887142Y-83081904D01*
X49791904Y-83034285D01*
X49601428Y-83034285D01*
X49506190Y-83081904D01*
X49458571Y-83129523D01*
X49410952Y-83224761D01*
G04 #@! TO.C,C9*
X75287142Y-72556666D02*
X75334761Y-72604285D01*
X75382380Y-72747142D01*
X75382380Y-72842380D01*
X75334761Y-72985238D01*
X75239523Y-73080476D01*
X75144285Y-73128095D01*
X74953809Y-73175714D01*
X74810952Y-73175714D01*
X74620476Y-73128095D01*
X74525238Y-73080476D01*
X74430000Y-72985238D01*
X74382380Y-72842380D01*
X74382380Y-72747142D01*
X74430000Y-72604285D01*
X74477619Y-72556666D01*
X75382380Y-72080476D02*
X75382380Y-71890000D01*
X75334761Y-71794761D01*
X75287142Y-71747142D01*
X75144285Y-71651904D01*
X74953809Y-71604285D01*
X74572857Y-71604285D01*
X74477619Y-71651904D01*
X74430000Y-71699523D01*
X74382380Y-71794761D01*
X74382380Y-71985238D01*
X74430000Y-72080476D01*
X74477619Y-72128095D01*
X74572857Y-72175714D01*
X74810952Y-72175714D01*
X74906190Y-72128095D01*
X74953809Y-72080476D01*
X75001428Y-71985238D01*
X75001428Y-71794761D01*
X74953809Y-71699523D01*
X74906190Y-71651904D01*
X74810952Y-71604285D01*
G04 #@! TO.C,C10*
X72747142Y-69222857D02*
X72794761Y-69270476D01*
X72842380Y-69413333D01*
X72842380Y-69508571D01*
X72794761Y-69651428D01*
X72699523Y-69746666D01*
X72604285Y-69794285D01*
X72413809Y-69841904D01*
X72270952Y-69841904D01*
X72080476Y-69794285D01*
X71985238Y-69746666D01*
X71890000Y-69651428D01*
X71842380Y-69508571D01*
X71842380Y-69413333D01*
X71890000Y-69270476D01*
X71937619Y-69222857D01*
X72842380Y-68270476D02*
X72842380Y-68841904D01*
X72842380Y-68556190D02*
X71842380Y-68556190D01*
X71985238Y-68651428D01*
X72080476Y-68746666D01*
X72128095Y-68841904D01*
X71842380Y-67651428D02*
X71842380Y-67556190D01*
X71890000Y-67460952D01*
X71937619Y-67413333D01*
X72032857Y-67365714D01*
X72223333Y-67318095D01*
X72461428Y-67318095D01*
X72651904Y-67365714D01*
X72747142Y-67413333D01*
X72794761Y-67460952D01*
X72842380Y-67556190D01*
X72842380Y-67651428D01*
X72794761Y-67746666D01*
X72747142Y-67794285D01*
X72651904Y-67841904D01*
X72461428Y-67889523D01*
X72223333Y-67889523D01*
X72032857Y-67841904D01*
X71937619Y-67794285D01*
X71890000Y-67746666D01*
X71842380Y-67651428D01*
G04 #@! TO.C,C11*
X77827142Y-78112857D02*
X77874761Y-78160476D01*
X77922380Y-78303333D01*
X77922380Y-78398571D01*
X77874761Y-78541428D01*
X77779523Y-78636666D01*
X77684285Y-78684285D01*
X77493809Y-78731904D01*
X77350952Y-78731904D01*
X77160476Y-78684285D01*
X77065238Y-78636666D01*
X76970000Y-78541428D01*
X76922380Y-78398571D01*
X76922380Y-78303333D01*
X76970000Y-78160476D01*
X77017619Y-78112857D01*
X77922380Y-77160476D02*
X77922380Y-77731904D01*
X77922380Y-77446190D02*
X76922380Y-77446190D01*
X77065238Y-77541428D01*
X77160476Y-77636666D01*
X77208095Y-77731904D01*
X77922380Y-76208095D02*
X77922380Y-76779523D01*
X77922380Y-76493809D02*
X76922380Y-76493809D01*
X77065238Y-76589047D01*
X77160476Y-76684285D01*
X77208095Y-76779523D01*
G04 #@! TO.C,C12*
X81637142Y-52712857D02*
X81684761Y-52760476D01*
X81732380Y-52903333D01*
X81732380Y-52998571D01*
X81684761Y-53141428D01*
X81589523Y-53236666D01*
X81494285Y-53284285D01*
X81303809Y-53331904D01*
X81160952Y-53331904D01*
X80970476Y-53284285D01*
X80875238Y-53236666D01*
X80780000Y-53141428D01*
X80732380Y-52998571D01*
X80732380Y-52903333D01*
X80780000Y-52760476D01*
X80827619Y-52712857D01*
X81732380Y-51760476D02*
X81732380Y-52331904D01*
X81732380Y-52046190D02*
X80732380Y-52046190D01*
X80875238Y-52141428D01*
X80970476Y-52236666D01*
X81018095Y-52331904D01*
X80827619Y-51379523D02*
X80780000Y-51331904D01*
X80732380Y-51236666D01*
X80732380Y-50998571D01*
X80780000Y-50903333D01*
X80827619Y-50855714D01*
X80922857Y-50808095D01*
X81018095Y-50808095D01*
X81160952Y-50855714D01*
X81732380Y-51427142D01*
X81732380Y-50808095D01*
G04 #@! TO.C,C13*
X101957142Y-81922857D02*
X102004761Y-81970476D01*
X102052380Y-82113333D01*
X102052380Y-82208571D01*
X102004761Y-82351428D01*
X101909523Y-82446666D01*
X101814285Y-82494285D01*
X101623809Y-82541904D01*
X101480952Y-82541904D01*
X101290476Y-82494285D01*
X101195238Y-82446666D01*
X101100000Y-82351428D01*
X101052380Y-82208571D01*
X101052380Y-82113333D01*
X101100000Y-81970476D01*
X101147619Y-81922857D01*
X102052380Y-80970476D02*
X102052380Y-81541904D01*
X102052380Y-81256190D02*
X101052380Y-81256190D01*
X101195238Y-81351428D01*
X101290476Y-81446666D01*
X101338095Y-81541904D01*
X101052380Y-80637142D02*
X101052380Y-80018095D01*
X101433333Y-80351428D01*
X101433333Y-80208571D01*
X101480952Y-80113333D01*
X101528571Y-80065714D01*
X101623809Y-80018095D01*
X101861904Y-80018095D01*
X101957142Y-80065714D01*
X102004761Y-80113333D01*
X102052380Y-80208571D01*
X102052380Y-80494285D01*
X102004761Y-80589523D01*
X101957142Y-80637142D01*
G04 #@! TO.C,C14*
X103227142Y-41282857D02*
X103274761Y-41330476D01*
X103322380Y-41473333D01*
X103322380Y-41568571D01*
X103274761Y-41711428D01*
X103179523Y-41806666D01*
X103084285Y-41854285D01*
X102893809Y-41901904D01*
X102750952Y-41901904D01*
X102560476Y-41854285D01*
X102465238Y-41806666D01*
X102370000Y-41711428D01*
X102322380Y-41568571D01*
X102322380Y-41473333D01*
X102370000Y-41330476D01*
X102417619Y-41282857D01*
X103322380Y-40330476D02*
X103322380Y-40901904D01*
X103322380Y-40616190D02*
X102322380Y-40616190D01*
X102465238Y-40711428D01*
X102560476Y-40806666D01*
X102608095Y-40901904D01*
X102655714Y-39473333D02*
X103322380Y-39473333D01*
X102274761Y-39711428D02*
X102989047Y-39949523D01*
X102989047Y-39330476D01*
G04 #@! TO.C,C15*
X113387142Y-112402857D02*
X113434761Y-112450476D01*
X113482380Y-112593333D01*
X113482380Y-112688571D01*
X113434761Y-112831428D01*
X113339523Y-112926666D01*
X113244285Y-112974285D01*
X113053809Y-113021904D01*
X112910952Y-113021904D01*
X112720476Y-112974285D01*
X112625238Y-112926666D01*
X112530000Y-112831428D01*
X112482380Y-112688571D01*
X112482380Y-112593333D01*
X112530000Y-112450476D01*
X112577619Y-112402857D01*
X113482380Y-111450476D02*
X113482380Y-112021904D01*
X113482380Y-111736190D02*
X112482380Y-111736190D01*
X112625238Y-111831428D01*
X112720476Y-111926666D01*
X112768095Y-112021904D01*
X112482380Y-110545714D02*
X112482380Y-111021904D01*
X112958571Y-111069523D01*
X112910952Y-111021904D01*
X112863333Y-110926666D01*
X112863333Y-110688571D01*
X112910952Y-110593333D01*
X112958571Y-110545714D01*
X113053809Y-110498095D01*
X113291904Y-110498095D01*
X113387142Y-110545714D01*
X113434761Y-110593333D01*
X113482380Y-110688571D01*
X113482380Y-110926666D01*
X113434761Y-111021904D01*
X113387142Y-111069523D01*
G04 #@! TO.C,C16*
X113387142Y-95892857D02*
X113434761Y-95940476D01*
X113482380Y-96083333D01*
X113482380Y-96178571D01*
X113434761Y-96321428D01*
X113339523Y-96416666D01*
X113244285Y-96464285D01*
X113053809Y-96511904D01*
X112910952Y-96511904D01*
X112720476Y-96464285D01*
X112625238Y-96416666D01*
X112530000Y-96321428D01*
X112482380Y-96178571D01*
X112482380Y-96083333D01*
X112530000Y-95940476D01*
X112577619Y-95892857D01*
X113482380Y-94940476D02*
X113482380Y-95511904D01*
X113482380Y-95226190D02*
X112482380Y-95226190D01*
X112625238Y-95321428D01*
X112720476Y-95416666D01*
X112768095Y-95511904D01*
X112482380Y-94083333D02*
X112482380Y-94273809D01*
X112530000Y-94369047D01*
X112577619Y-94416666D01*
X112720476Y-94511904D01*
X112910952Y-94559523D01*
X113291904Y-94559523D01*
X113387142Y-94511904D01*
X113434761Y-94464285D01*
X113482380Y-94369047D01*
X113482380Y-94178571D01*
X113434761Y-94083333D01*
X113387142Y-94035714D01*
X113291904Y-93988095D01*
X113053809Y-93988095D01*
X112958571Y-94035714D01*
X112910952Y-94083333D01*
X112863333Y-94178571D01*
X112863333Y-94369047D01*
X112910952Y-94464285D01*
X112958571Y-94511904D01*
X113053809Y-94559523D01*
G04 #@! TO.C,C17*
X113387142Y-62872857D02*
X113434761Y-62920476D01*
X113482380Y-63063333D01*
X113482380Y-63158571D01*
X113434761Y-63301428D01*
X113339523Y-63396666D01*
X113244285Y-63444285D01*
X113053809Y-63491904D01*
X112910952Y-63491904D01*
X112720476Y-63444285D01*
X112625238Y-63396666D01*
X112530000Y-63301428D01*
X112482380Y-63158571D01*
X112482380Y-63063333D01*
X112530000Y-62920476D01*
X112577619Y-62872857D01*
X113482380Y-61920476D02*
X113482380Y-62491904D01*
X113482380Y-62206190D02*
X112482380Y-62206190D01*
X112625238Y-62301428D01*
X112720476Y-62396666D01*
X112768095Y-62491904D01*
X112482380Y-61587142D02*
X112482380Y-60920476D01*
X113482380Y-61349047D01*
G04 #@! TO.C,D2*
X84272380Y-49633095D02*
X83272380Y-49633095D01*
X83272380Y-49395000D01*
X83320000Y-49252142D01*
X83415238Y-49156904D01*
X83510476Y-49109285D01*
X83700952Y-49061666D01*
X83843809Y-49061666D01*
X84034285Y-49109285D01*
X84129523Y-49156904D01*
X84224761Y-49252142D01*
X84272380Y-49395000D01*
X84272380Y-49633095D01*
X83367619Y-48680714D02*
X83320000Y-48633095D01*
X83272380Y-48537857D01*
X83272380Y-48299761D01*
X83320000Y-48204523D01*
X83367619Y-48156904D01*
X83462857Y-48109285D01*
X83558095Y-48109285D01*
X83700952Y-48156904D01*
X84272380Y-48728333D01*
X84272380Y-48109285D01*
G04 #@! TO.C,J1*
X130262380Y-82673333D02*
X130976666Y-82673333D01*
X131119523Y-82720952D01*
X131214761Y-82816190D01*
X131262380Y-82959047D01*
X131262380Y-83054285D01*
X131262380Y-81673333D02*
X131262380Y-82244761D01*
X131262380Y-81959047D02*
X130262380Y-81959047D01*
X130405238Y-82054285D01*
X130500476Y-82149523D01*
X130548095Y-82244761D01*
G04 #@! TO.C,J2*
D14*
X37265428Y-64008000D02*
X38354000Y-64008000D01*
X38571714Y-64080571D01*
X38716857Y-64225714D01*
X38789428Y-64443428D01*
X38789428Y-64588571D01*
X37410571Y-63354857D02*
X37338000Y-63282285D01*
X37265428Y-63137142D01*
X37265428Y-62774285D01*
X37338000Y-62629142D01*
X37410571Y-62556571D01*
X37555714Y-62484000D01*
X37700857Y-62484000D01*
X37918571Y-62556571D01*
X38789428Y-63427428D01*
X38789428Y-62484000D01*
G04 #@! TO.C,J3*
D13*
X130262380Y-89443333D02*
X130976666Y-89443333D01*
X131119523Y-89490952D01*
X131214761Y-89586190D01*
X131262380Y-89729047D01*
X131262380Y-89824285D01*
X130262380Y-89062380D02*
X130262380Y-88443333D01*
X130643333Y-88776666D01*
X130643333Y-88633809D01*
X130690952Y-88538571D01*
X130738571Y-88490952D01*
X130833809Y-88443333D01*
X131071904Y-88443333D01*
X131167142Y-88490952D01*
X131214761Y-88538571D01*
X131262380Y-88633809D01*
X131262380Y-88919523D01*
X131214761Y-89014761D01*
X131167142Y-89062380D01*
G04 #@! TO.C,J4*
X42632380Y-79073333D02*
X43346666Y-79073333D01*
X43489523Y-79120952D01*
X43584761Y-79216190D01*
X43632380Y-79359047D01*
X43632380Y-79454285D01*
X42965714Y-78168571D02*
X43632380Y-78168571D01*
X42584761Y-78406666D02*
X43299047Y-78644761D01*
X43299047Y-78025714D01*
G04 #@! TO.C,R1*
X121102380Y-77636666D02*
X120626190Y-77970000D01*
X121102380Y-78208095D02*
X120102380Y-78208095D01*
X120102380Y-77827142D01*
X120150000Y-77731904D01*
X120197619Y-77684285D01*
X120292857Y-77636666D01*
X120435714Y-77636666D01*
X120530952Y-77684285D01*
X120578571Y-77731904D01*
X120626190Y-77827142D01*
X120626190Y-78208095D01*
X121102380Y-76684285D02*
X121102380Y-77255714D01*
X121102380Y-76970000D02*
X120102380Y-76970000D01*
X120245238Y-77065238D01*
X120340476Y-77160476D01*
X120388095Y-77255714D01*
G04 #@! TO.C,R2*
X121102380Y-49696666D02*
X120626190Y-50030000D01*
X121102380Y-50268095D02*
X120102380Y-50268095D01*
X120102380Y-49887142D01*
X120150000Y-49791904D01*
X120197619Y-49744285D01*
X120292857Y-49696666D01*
X120435714Y-49696666D01*
X120530952Y-49744285D01*
X120578571Y-49791904D01*
X120626190Y-49887142D01*
X120626190Y-50268095D01*
X120197619Y-49315714D02*
X120150000Y-49268095D01*
X120102380Y-49172857D01*
X120102380Y-48934761D01*
X120150000Y-48839523D01*
X120197619Y-48791904D01*
X120292857Y-48744285D01*
X120388095Y-48744285D01*
X120530952Y-48791904D01*
X121102380Y-49363333D01*
X121102380Y-48744285D01*
G04 #@! TO.C,R3*
X121102380Y-45886666D02*
X120626190Y-46220000D01*
X121102380Y-46458095D02*
X120102380Y-46458095D01*
X120102380Y-46077142D01*
X120150000Y-45981904D01*
X120197619Y-45934285D01*
X120292857Y-45886666D01*
X120435714Y-45886666D01*
X120530952Y-45934285D01*
X120578571Y-45981904D01*
X120626190Y-46077142D01*
X120626190Y-46458095D01*
X120102380Y-45553333D02*
X120102380Y-44934285D01*
X120483333Y-45267619D01*
X120483333Y-45124761D01*
X120530952Y-45029523D01*
X120578571Y-44981904D01*
X120673809Y-44934285D01*
X120911904Y-44934285D01*
X121007142Y-44981904D01*
X121054761Y-45029523D01*
X121102380Y-45124761D01*
X121102380Y-45410476D01*
X121054761Y-45505714D01*
X121007142Y-45553333D01*
G04 #@! TO.C,R4*
X121102380Y-42076666D02*
X120626190Y-42410000D01*
X121102380Y-42648095D02*
X120102380Y-42648095D01*
X120102380Y-42267142D01*
X120150000Y-42171904D01*
X120197619Y-42124285D01*
X120292857Y-42076666D01*
X120435714Y-42076666D01*
X120530952Y-42124285D01*
X120578571Y-42171904D01*
X120626190Y-42267142D01*
X120626190Y-42648095D01*
X120435714Y-41219523D02*
X121102380Y-41219523D01*
X120054761Y-41457619D02*
X120769047Y-41695714D01*
X120769047Y-41076666D01*
G04 #@! TO.C,R5*
X77922380Y-63666666D02*
X77446190Y-64000000D01*
X77922380Y-64238095D02*
X76922380Y-64238095D01*
X76922380Y-63857142D01*
X76970000Y-63761904D01*
X77017619Y-63714285D01*
X77112857Y-63666666D01*
X77255714Y-63666666D01*
X77350952Y-63714285D01*
X77398571Y-63761904D01*
X77446190Y-63857142D01*
X77446190Y-64238095D01*
X76922380Y-62761904D02*
X76922380Y-63238095D01*
X77398571Y-63285714D01*
X77350952Y-63238095D01*
X77303333Y-63142857D01*
X77303333Y-62904761D01*
X77350952Y-62809523D01*
X77398571Y-62761904D01*
X77493809Y-62714285D01*
X77731904Y-62714285D01*
X77827142Y-62761904D01*
X77874761Y-62809523D01*
X77922380Y-62904761D01*
X77922380Y-63142857D01*
X77874761Y-63238095D01*
X77827142Y-63285714D01*
G04 #@! TO.C,R6*
X49982380Y-63666666D02*
X49506190Y-64000000D01*
X49982380Y-64238095D02*
X48982380Y-64238095D01*
X48982380Y-63857142D01*
X49030000Y-63761904D01*
X49077619Y-63714285D01*
X49172857Y-63666666D01*
X49315714Y-63666666D01*
X49410952Y-63714285D01*
X49458571Y-63761904D01*
X49506190Y-63857142D01*
X49506190Y-64238095D01*
X48982380Y-62809523D02*
X48982380Y-63000000D01*
X49030000Y-63095238D01*
X49077619Y-63142857D01*
X49220476Y-63238095D01*
X49410952Y-63285714D01*
X49791904Y-63285714D01*
X49887142Y-63238095D01*
X49934761Y-63190476D01*
X49982380Y-63095238D01*
X49982380Y-62904761D01*
X49934761Y-62809523D01*
X49887142Y-62761904D01*
X49791904Y-62714285D01*
X49553809Y-62714285D01*
X49458571Y-62761904D01*
X49410952Y-62809523D01*
X49363333Y-62904761D01*
X49363333Y-63095238D01*
X49410952Y-63190476D01*
X49458571Y-63238095D01*
X49553809Y-63285714D01*
G04 #@! TO.C,R7*
X70302380Y-52871666D02*
X69826190Y-53205000D01*
X70302380Y-53443095D02*
X69302380Y-53443095D01*
X69302380Y-53062142D01*
X69350000Y-52966904D01*
X69397619Y-52919285D01*
X69492857Y-52871666D01*
X69635714Y-52871666D01*
X69730952Y-52919285D01*
X69778571Y-52966904D01*
X69826190Y-53062142D01*
X69826190Y-53443095D01*
X69302380Y-52538333D02*
X69302380Y-51871666D01*
X70302380Y-52300238D01*
G04 #@! TO.C,R8*
X49982380Y-76366666D02*
X49506190Y-76700000D01*
X49982380Y-76938095D02*
X48982380Y-76938095D01*
X48982380Y-76557142D01*
X49030000Y-76461904D01*
X49077619Y-76414285D01*
X49172857Y-76366666D01*
X49315714Y-76366666D01*
X49410952Y-76414285D01*
X49458571Y-76461904D01*
X49506190Y-76557142D01*
X49506190Y-76938095D01*
X49410952Y-75795238D02*
X49363333Y-75890476D01*
X49315714Y-75938095D01*
X49220476Y-75985714D01*
X49172857Y-75985714D01*
X49077619Y-75938095D01*
X49030000Y-75890476D01*
X48982380Y-75795238D01*
X48982380Y-75604761D01*
X49030000Y-75509523D01*
X49077619Y-75461904D01*
X49172857Y-75414285D01*
X49220476Y-75414285D01*
X49315714Y-75461904D01*
X49363333Y-75509523D01*
X49410952Y-75604761D01*
X49410952Y-75795238D01*
X49458571Y-75890476D01*
X49506190Y-75938095D01*
X49601428Y-75985714D01*
X49791904Y-75985714D01*
X49887142Y-75938095D01*
X49934761Y-75890476D01*
X49982380Y-75795238D01*
X49982380Y-75604761D01*
X49934761Y-75509523D01*
X49887142Y-75461904D01*
X49791904Y-75414285D01*
X49601428Y-75414285D01*
X49506190Y-75461904D01*
X49458571Y-75509523D01*
X49410952Y-75604761D01*
G04 #@! TO.C,R9*
X113482380Y-82716666D02*
X113006190Y-83050000D01*
X113482380Y-83288095D02*
X112482380Y-83288095D01*
X112482380Y-82907142D01*
X112530000Y-82811904D01*
X112577619Y-82764285D01*
X112672857Y-82716666D01*
X112815714Y-82716666D01*
X112910952Y-82764285D01*
X112958571Y-82811904D01*
X113006190Y-82907142D01*
X113006190Y-83288095D01*
X113482380Y-82240476D02*
X113482380Y-82050000D01*
X113434761Y-81954761D01*
X113387142Y-81907142D01*
X113244285Y-81811904D01*
X113053809Y-81764285D01*
X112672857Y-81764285D01*
X112577619Y-81811904D01*
X112530000Y-81859523D01*
X112482380Y-81954761D01*
X112482380Y-82145238D01*
X112530000Y-82240476D01*
X112577619Y-82288095D01*
X112672857Y-82335714D01*
X112910952Y-82335714D01*
X113006190Y-82288095D01*
X113053809Y-82240476D01*
X113101428Y-82145238D01*
X113101428Y-81954761D01*
X113053809Y-81859523D01*
X113006190Y-81811904D01*
X112910952Y-81764285D01*
G04 #@! TO.C,SW1*
X57554761Y-43878333D02*
X57602380Y-43735476D01*
X57602380Y-43497380D01*
X57554761Y-43402142D01*
X57507142Y-43354523D01*
X57411904Y-43306904D01*
X57316666Y-43306904D01*
X57221428Y-43354523D01*
X57173809Y-43402142D01*
X57126190Y-43497380D01*
X57078571Y-43687857D01*
X57030952Y-43783095D01*
X56983333Y-43830714D01*
X56888095Y-43878333D01*
X56792857Y-43878333D01*
X56697619Y-43830714D01*
X56650000Y-43783095D01*
X56602380Y-43687857D01*
X56602380Y-43449761D01*
X56650000Y-43306904D01*
X56602380Y-42973571D02*
X57602380Y-42735476D01*
X56888095Y-42545000D01*
X57602380Y-42354523D01*
X56602380Y-42116428D01*
X57602380Y-41211666D02*
X57602380Y-41783095D01*
X57602380Y-41497380D02*
X56602380Y-41497380D01*
X56745238Y-41592619D01*
X56840476Y-41687857D01*
X56888095Y-41783095D01*
G04 #@! TO.C,U1*
X120102380Y-55371904D02*
X120911904Y-55371904D01*
X121007142Y-55324285D01*
X121054761Y-55276666D01*
X121102380Y-55181428D01*
X121102380Y-54990952D01*
X121054761Y-54895714D01*
X121007142Y-54848095D01*
X120911904Y-54800476D01*
X120102380Y-54800476D01*
X121102380Y-53800476D02*
X121102380Y-54371904D01*
X121102380Y-54086190D02*
X120102380Y-54086190D01*
X120245238Y-54181428D01*
X120340476Y-54276666D01*
X120388095Y-54371904D01*
G04 #@! TO.C,U2*
X100838095Y-85812380D02*
X100838095Y-86621904D01*
X100885714Y-86717142D01*
X100933333Y-86764761D01*
X101028571Y-86812380D01*
X101219047Y-86812380D01*
X101314285Y-86764761D01*
X101361904Y-86717142D01*
X101409523Y-86621904D01*
X101409523Y-85812380D01*
X101838095Y-85907619D02*
X101885714Y-85860000D01*
X101980952Y-85812380D01*
X102219047Y-85812380D01*
X102314285Y-85860000D01*
X102361904Y-85907619D01*
X102409523Y-86002857D01*
X102409523Y-86098095D01*
X102361904Y-86240952D01*
X101790476Y-86812380D01*
X102409523Y-86812380D01*
G04 #@! TO.C,U3*
X101052380Y-46481904D02*
X101861904Y-46481904D01*
X101957142Y-46434285D01*
X102004761Y-46386666D01*
X102052380Y-46291428D01*
X102052380Y-46100952D01*
X102004761Y-46005714D01*
X101957142Y-45958095D01*
X101861904Y-45910476D01*
X101052380Y-45910476D01*
X101052380Y-45529523D02*
X101052380Y-44910476D01*
X101433333Y-45243809D01*
X101433333Y-45100952D01*
X101480952Y-45005714D01*
X101528571Y-44958095D01*
X101623809Y-44910476D01*
X101861904Y-44910476D01*
X101957142Y-44958095D01*
X102004761Y-45005714D01*
X102052380Y-45100952D01*
X102052380Y-45386666D01*
X102004761Y-45481904D01*
X101957142Y-45529523D01*
G04 #@! TO.C,U4*
X66762380Y-64261904D02*
X67571904Y-64261904D01*
X67667142Y-64214285D01*
X67714761Y-64166666D01*
X67762380Y-64071428D01*
X67762380Y-63880952D01*
X67714761Y-63785714D01*
X67667142Y-63738095D01*
X67571904Y-63690476D01*
X66762380Y-63690476D01*
X67095714Y-62785714D02*
X67762380Y-62785714D01*
X66714761Y-63023809D02*
X67429047Y-63261904D01*
X67429047Y-62642857D01*
G04 #@! TO.C,U5*
X120102380Y-73151904D02*
X120911904Y-73151904D01*
X121007142Y-73104285D01*
X121054761Y-73056666D01*
X121102380Y-72961428D01*
X121102380Y-72770952D01*
X121054761Y-72675714D01*
X121007142Y-72628095D01*
X120911904Y-72580476D01*
X120102380Y-72580476D01*
X120102380Y-71628095D02*
X120102380Y-72104285D01*
X120578571Y-72151904D01*
X120530952Y-72104285D01*
X120483333Y-72009047D01*
X120483333Y-71770952D01*
X120530952Y-71675714D01*
X120578571Y-71628095D01*
X120673809Y-71580476D01*
X120911904Y-71580476D01*
X121007142Y-71628095D01*
X121054761Y-71675714D01*
X121102380Y-71770952D01*
X121102380Y-72009047D01*
X121054761Y-72104285D01*
X121007142Y-72151904D01*
G04 #@! TO.C,U6*
X84542380Y-64261904D02*
X85351904Y-64261904D01*
X85447142Y-64214285D01*
X85494761Y-64166666D01*
X85542380Y-64071428D01*
X85542380Y-63880952D01*
X85494761Y-63785714D01*
X85447142Y-63738095D01*
X85351904Y-63690476D01*
X84542380Y-63690476D01*
X84542380Y-62785714D02*
X84542380Y-62976190D01*
X84590000Y-63071428D01*
X84637619Y-63119047D01*
X84780476Y-63214285D01*
X84970952Y-63261904D01*
X85351904Y-63261904D01*
X85447142Y-63214285D01*
X85494761Y-63166666D01*
X85542380Y-63071428D01*
X85542380Y-62880952D01*
X85494761Y-62785714D01*
X85447142Y-62738095D01*
X85351904Y-62690476D01*
X85113809Y-62690476D01*
X85018571Y-62738095D01*
X84970952Y-62785714D01*
X84923333Y-62880952D01*
X84923333Y-63071428D01*
X84970952Y-63166666D01*
X85018571Y-63214285D01*
X85113809Y-63261904D01*
G04 #@! TO.C,U7*
X75652380Y-87121904D02*
X76461904Y-87121904D01*
X76557142Y-87074285D01*
X76604761Y-87026666D01*
X76652380Y-86931428D01*
X76652380Y-86740952D01*
X76604761Y-86645714D01*
X76557142Y-86598095D01*
X76461904Y-86550476D01*
X75652380Y-86550476D01*
X75652380Y-86169523D02*
X75652380Y-85502857D01*
X76652380Y-85931428D01*
G04 #@! TO.C,U8*
X57872380Y-89661904D02*
X58681904Y-89661904D01*
X58777142Y-89614285D01*
X58824761Y-89566666D01*
X58872380Y-89471428D01*
X58872380Y-89280952D01*
X58824761Y-89185714D01*
X58777142Y-89138095D01*
X58681904Y-89090476D01*
X57872380Y-89090476D01*
X58300952Y-88471428D02*
X58253333Y-88566666D01*
X58205714Y-88614285D01*
X58110476Y-88661904D01*
X58062857Y-88661904D01*
X57967619Y-88614285D01*
X57920000Y-88566666D01*
X57872380Y-88471428D01*
X57872380Y-88280952D01*
X57920000Y-88185714D01*
X57967619Y-88138095D01*
X58062857Y-88090476D01*
X58110476Y-88090476D01*
X58205714Y-88138095D01*
X58253333Y-88185714D01*
X58300952Y-88280952D01*
X58300952Y-88471428D01*
X58348571Y-88566666D01*
X58396190Y-88614285D01*
X58491428Y-88661904D01*
X58681904Y-88661904D01*
X58777142Y-88614285D01*
X58824761Y-88566666D01*
X58872380Y-88471428D01*
X58872380Y-88280952D01*
X58824761Y-88185714D01*
X58777142Y-88138095D01*
X58681904Y-88090476D01*
X58491428Y-88090476D01*
X58396190Y-88138095D01*
X58348571Y-88185714D01*
X58300952Y-88280952D01*
G04 #@! TO.C,U9*
X120102380Y-97281904D02*
X120911904Y-97281904D01*
X121007142Y-97234285D01*
X121054761Y-97186666D01*
X121102380Y-97091428D01*
X121102380Y-96900952D01*
X121054761Y-96805714D01*
X121007142Y-96758095D01*
X120911904Y-96710476D01*
X120102380Y-96710476D01*
X121102380Y-96186666D02*
X121102380Y-95996190D01*
X121054761Y-95900952D01*
X121007142Y-95853333D01*
X120864285Y-95758095D01*
X120673809Y-95710476D01*
X120292857Y-95710476D01*
X120197619Y-95758095D01*
X120150000Y-95805714D01*
X120102380Y-95900952D01*
X120102380Y-96091428D01*
X120150000Y-96186666D01*
X120197619Y-96234285D01*
X120292857Y-96281904D01*
X120530952Y-96281904D01*
X120626190Y-96234285D01*
X120673809Y-96186666D01*
X120721428Y-96091428D01*
X120721428Y-95900952D01*
X120673809Y-95805714D01*
X120626190Y-95758095D01*
X120530952Y-95710476D01*
G04 #@! TO.C,U10*
X66762380Y-77438095D02*
X67571904Y-77438095D01*
X67667142Y-77390476D01*
X67714761Y-77342857D01*
X67762380Y-77247619D01*
X67762380Y-77057142D01*
X67714761Y-76961904D01*
X67667142Y-76914285D01*
X67571904Y-76866666D01*
X66762380Y-76866666D01*
X67762380Y-75866666D02*
X67762380Y-76438095D01*
X67762380Y-76152380D02*
X66762380Y-76152380D01*
X66905238Y-76247619D01*
X67000476Y-76342857D01*
X67048095Y-76438095D01*
X66762380Y-75247619D02*
X66762380Y-75152380D01*
X66810000Y-75057142D01*
X66857619Y-75009523D01*
X66952857Y-74961904D01*
X67143333Y-74914285D01*
X67381428Y-74914285D01*
X67571904Y-74961904D01*
X67667142Y-75009523D01*
X67714761Y-75057142D01*
X67762380Y-75152380D01*
X67762380Y-75247619D01*
X67714761Y-75342857D01*
X67667142Y-75390476D01*
X67571904Y-75438095D01*
X67381428Y-75485714D01*
X67143333Y-75485714D01*
X66952857Y-75438095D01*
X66857619Y-75390476D01*
X66810000Y-75342857D01*
X66762380Y-75247619D01*
G04 #@! TO.C,Y1*
X58306190Y-55086190D02*
X58782380Y-55086190D01*
X57782380Y-55419523D02*
X58306190Y-55086190D01*
X57782380Y-54752857D01*
X58782380Y-53895714D02*
X58782380Y-54467142D01*
X58782380Y-54181428D02*
X57782380Y-54181428D01*
X57925238Y-54276666D01*
X58020476Y-54371904D01*
X58068095Y-54467142D01*
G04 #@! TO.C,D1*
X43632380Y-65508095D02*
X42632380Y-65508095D01*
X42632380Y-65270000D01*
X42680000Y-65127142D01*
X42775238Y-65031904D01*
X42870476Y-64984285D01*
X43060952Y-64936666D01*
X43203809Y-64936666D01*
X43394285Y-64984285D01*
X43489523Y-65031904D01*
X43584761Y-65127142D01*
X43632380Y-65270000D01*
X43632380Y-65508095D01*
X43632380Y-63984285D02*
X43632380Y-64555714D01*
X43632380Y-64270000D02*
X42632380Y-64270000D01*
X42775238Y-64365238D01*
X42870476Y-64460476D01*
X42918095Y-64555714D01*
X45432380Y-61221904D02*
X44432380Y-61221904D01*
X45432380Y-60650476D02*
X44860952Y-61079047D01*
X44432380Y-60650476D02*
X45003809Y-61221904D01*
G04 #@! TO.C,D3*
X43632380Y-85828095D02*
X42632380Y-85828095D01*
X42632380Y-85590000D01*
X42680000Y-85447142D01*
X42775238Y-85351904D01*
X42870476Y-85304285D01*
X43060952Y-85256666D01*
X43203809Y-85256666D01*
X43394285Y-85304285D01*
X43489523Y-85351904D01*
X43584761Y-85447142D01*
X43632380Y-85590000D01*
X43632380Y-85828095D01*
X42632380Y-84923333D02*
X42632380Y-84304285D01*
X43013333Y-84637619D01*
X43013333Y-84494761D01*
X43060952Y-84399523D01*
X43108571Y-84351904D01*
X43203809Y-84304285D01*
X43441904Y-84304285D01*
X43537142Y-84351904D01*
X43584761Y-84399523D01*
X43632380Y-84494761D01*
X43632380Y-84780476D01*
X43584761Y-84875714D01*
X43537142Y-84923333D01*
X43632380Y-91701904D02*
X42632380Y-91701904D01*
X43632380Y-91130476D02*
X43060952Y-91559047D01*
X42632380Y-91130476D02*
X43203809Y-91701904D01*
G04 #@! TO.C,D4*
X43632380Y-111228095D02*
X42632380Y-111228095D01*
X42632380Y-110990000D01*
X42680000Y-110847142D01*
X42775238Y-110751904D01*
X42870476Y-110704285D01*
X43060952Y-110656666D01*
X43203809Y-110656666D01*
X43394285Y-110704285D01*
X43489523Y-110751904D01*
X43584761Y-110847142D01*
X43632380Y-110990000D01*
X43632380Y-111228095D01*
X42965714Y-109799523D02*
X43632380Y-109799523D01*
X42584761Y-110037619D02*
X43299047Y-110275714D01*
X43299047Y-109656666D01*
X43632380Y-117101904D02*
X42632380Y-117101904D01*
X43632380Y-116530476D02*
X43060952Y-116959047D01*
X42632380Y-116530476D02*
X43203809Y-117101904D01*
G04 #@! TO.C,R10*
X77922380Y-53347857D02*
X77446190Y-53681190D01*
X77922380Y-53919285D02*
X76922380Y-53919285D01*
X76922380Y-53538333D01*
X76970000Y-53443095D01*
X77017619Y-53395476D01*
X77112857Y-53347857D01*
X77255714Y-53347857D01*
X77350952Y-53395476D01*
X77398571Y-53443095D01*
X77446190Y-53538333D01*
X77446190Y-53919285D01*
X77922380Y-52395476D02*
X77922380Y-52966904D01*
X77922380Y-52681190D02*
X76922380Y-52681190D01*
X77065238Y-52776428D01*
X77160476Y-52871666D01*
X77208095Y-52966904D01*
X76922380Y-51776428D02*
X76922380Y-51681190D01*
X76970000Y-51585952D01*
X77017619Y-51538333D01*
X77112857Y-51490714D01*
X77303333Y-51443095D01*
X77541428Y-51443095D01*
X77731904Y-51490714D01*
X77827142Y-51538333D01*
X77874761Y-51585952D01*
X77922380Y-51681190D01*
X77922380Y-51776428D01*
X77874761Y-51871666D01*
X77827142Y-51919285D01*
X77731904Y-51966904D01*
X77541428Y-52014523D01*
X77303333Y-52014523D01*
X77112857Y-51966904D01*
X77017619Y-51919285D01*
X76970000Y-51871666D01*
X76922380Y-51776428D01*
G04 #@! TO.C,R11*
X74112380Y-53347857D02*
X73636190Y-53681190D01*
X74112380Y-53919285D02*
X73112380Y-53919285D01*
X73112380Y-53538333D01*
X73160000Y-53443095D01*
X73207619Y-53395476D01*
X73302857Y-53347857D01*
X73445714Y-53347857D01*
X73540952Y-53395476D01*
X73588571Y-53443095D01*
X73636190Y-53538333D01*
X73636190Y-53919285D01*
X74112380Y-52395476D02*
X74112380Y-52966904D01*
X74112380Y-52681190D02*
X73112380Y-52681190D01*
X73255238Y-52776428D01*
X73350476Y-52871666D01*
X73398095Y-52966904D01*
X74112380Y-51443095D02*
X74112380Y-52014523D01*
X74112380Y-51728809D02*
X73112380Y-51728809D01*
X73255238Y-51824047D01*
X73350476Y-51919285D01*
X73398095Y-52014523D01*
G04 #@! TO.C,SW2*
X83834761Y-43243333D02*
X83882380Y-43100476D01*
X83882380Y-42862380D01*
X83834761Y-42767142D01*
X83787142Y-42719523D01*
X83691904Y-42671904D01*
X83596666Y-42671904D01*
X83501428Y-42719523D01*
X83453809Y-42767142D01*
X83406190Y-42862380D01*
X83358571Y-43052857D01*
X83310952Y-43148095D01*
X83263333Y-43195714D01*
X83168095Y-43243333D01*
X83072857Y-43243333D01*
X82977619Y-43195714D01*
X82930000Y-43148095D01*
X82882380Y-43052857D01*
X82882380Y-42814761D01*
X82930000Y-42671904D01*
X82882380Y-42338571D02*
X83882380Y-42100476D01*
X83168095Y-41910000D01*
X83882380Y-41719523D01*
X82882380Y-41481428D01*
X82977619Y-41148095D02*
X82930000Y-41100476D01*
X82882380Y-41005238D01*
X82882380Y-40767142D01*
X82930000Y-40671904D01*
X82977619Y-40624285D01*
X83072857Y-40576666D01*
X83168095Y-40576666D01*
X83310952Y-40624285D01*
X83882380Y-41195714D01*
X83882380Y-40576666D01*
G04 #@! TO.C,U12*
X47077380Y-47593095D02*
X47886904Y-47593095D01*
X47982142Y-47545476D01*
X48029761Y-47497857D01*
X48077380Y-47402619D01*
X48077380Y-47212142D01*
X48029761Y-47116904D01*
X47982142Y-47069285D01*
X47886904Y-47021666D01*
X47077380Y-47021666D01*
X48077380Y-46021666D02*
X48077380Y-46593095D01*
X48077380Y-46307380D02*
X47077380Y-46307380D01*
X47220238Y-46402619D01*
X47315476Y-46497857D01*
X47363095Y-46593095D01*
X47172619Y-45640714D02*
X47125000Y-45593095D01*
X47077380Y-45497857D01*
X47077380Y-45259761D01*
X47125000Y-45164523D01*
X47172619Y-45116904D01*
X47267857Y-45069285D01*
X47363095Y-45069285D01*
X47505952Y-45116904D01*
X48077380Y-45688333D01*
X48077380Y-45069285D01*
G04 #@! TO.C,MK1*
X87590476Y-40457380D02*
X87590476Y-39457380D01*
X87923809Y-40171666D01*
X88257142Y-39457380D01*
X88257142Y-40457380D01*
X88733333Y-40457380D02*
X88733333Y-39457380D01*
X89304761Y-40457380D02*
X88876190Y-39885952D01*
X89304761Y-39457380D02*
X88733333Y-40028809D01*
X90257142Y-40457380D02*
X89685714Y-40457380D01*
X89971428Y-40457380D02*
X89971428Y-39457380D01*
X89876190Y-39600238D01*
X89780952Y-39695476D01*
X89685714Y-39743095D01*
G04 #@! TO.C,MK2*
X87590476Y-121737380D02*
X87590476Y-120737380D01*
X87923809Y-121451666D01*
X88257142Y-120737380D01*
X88257142Y-121737380D01*
X88733333Y-121737380D02*
X88733333Y-120737380D01*
X89304761Y-121737380D02*
X88876190Y-121165952D01*
X89304761Y-120737380D02*
X88733333Y-121308809D01*
X89685714Y-120832619D02*
X89733333Y-120785000D01*
X89828571Y-120737380D01*
X90066666Y-120737380D01*
X90161904Y-120785000D01*
X90209523Y-120832619D01*
X90257142Y-120927857D01*
X90257142Y-121023095D01*
X90209523Y-121165952D01*
X89638095Y-121737380D01*
X90257142Y-121737380D01*
G04 #@! TD*
M02*
