M48
;DRILL file {KiCad 5.0.2-bee76a0~70~ubuntu18.10.1} date dom 24 feb 2019 14:53:27 CET
;FORMAT={-:-/ absolute / metric / decimal}
FMAT,2
METRIC,TZ
T1C0.400
T2C0.500
T3C0.800
T4C0.900
T5C1.000
T6C1.600
T7C3.000
T8C3.200
%
G90
G05
T1
X68.072Y-78.74
X68.58Y-77.216
X75.692Y-83.058
X77.5Y-39.975
X81.534Y-84.074
X82.55Y-63.754
X82.804Y-74.168
X83.82Y-109.093
X86.36Y-65.024
X87.122Y-118.618
X87.63Y-66.294
X87.63Y-67.564
X88.392Y-73.152
X89.916Y-113.284
X91.44Y-47.625
X91.783Y-118.11
X92.202Y-84.328
X92.202Y-86.106
X92.456Y-64.008
X93.98Y-42.545
X94.488Y-64.008
X95.25Y-56.515
X96.52Y-40.64
X96.52Y-118.11
X97.155Y-86.36
X99.06Y-108.585
X99.695Y-82.55
X100.33Y-56.515
X101.6Y-86.868
X103.124Y-66.04
X103.124Y-111.76
X103.124Y-114.3
X103.378Y-41.91
X103.886Y-85.344
X103.886Y-113.03
X104.394Y-102.87
X105.156Y-86.106
X105.41Y-60.198
X105.918Y-41.148
X106.172Y-42.926
X106.172Y-86.868
X107.95Y-59.436
X109.22Y-84.582
X112.522Y-102.87
X113.195Y-84.117
X115.57Y-60.198
X117.094Y-86.614
X118.364Y-104.14
X118.364Y-104.14
X120.904Y-110.998
X121.666Y-73.914
X122.174Y-118.618
X122.328Y-79.128
X123.19Y-78.105
X123.493Y-82.143
X123.825Y-79.121
X124.841Y-72.771
X126.365Y-77.851
X126.492Y-111.252
X127.Y-76.2
X127.Y-99.06
X127.Y-100.33
X127.Y-102.362
X127.733Y-60.96
X127.762Y-112.014
X127.831Y-83.275
X129.01Y-83.42
X129.415Y-65.239
X130.556Y-90.17
X132.08Y-113.665
X134.874Y-97.254
X137.16Y-82.042
X137.16Y-102.235
X137.922Y-92.71
X139.446Y-90.424
X139.7Y-79.121
X140.208Y-103.886
X140.716Y-91.694
X142.24Y-106.045
X144.653Y-110.802
X144.78Y-78.105
X146.471Y-88.088
X149.542Y-90.626
X149.86Y-60.55
X149.86Y-97.79
X151.765Y-113.665
X153.483Y-94.092
X154.94Y-95.795
T2
X156.5Y-92.71
X157.159Y-91.119
X157.159Y-94.301
X158.75Y-90.46
X158.75Y-94.96
X160.341Y-91.119
X160.341Y-94.301
X161.Y-92.71
T3
X127.Y-96.52
X127.Y-104.14
X99.06Y-96.6
X99.06Y-101.6
X91.48Y-104.14
X93.98Y-104.14
X97.79Y-75.01
X97.79Y-80.01
X81.28Y-50.8
X88.9Y-50.8
X158.75Y-111.76
X158.75Y-116.76
X127.Y-52.07
X127.Y-67.31
X129.54Y-52.07
X129.54Y-67.31
X132.08Y-52.07
X132.08Y-67.31
X134.62Y-52.07
X134.62Y-67.31
X137.16Y-52.07
X137.16Y-67.31
X139.7Y-52.07
X139.7Y-67.31
X142.24Y-52.07
X142.24Y-67.31
X144.78Y-52.07
X144.78Y-67.31
X147.32Y-52.07
X147.32Y-67.31
X149.86Y-52.07
X149.86Y-67.31
X152.4Y-52.07
X152.4Y-67.31
X154.94Y-52.07
X154.94Y-67.31
X157.48Y-52.07
X157.48Y-67.31
X160.02Y-52.07
X160.02Y-67.31
X119.38Y-115.57
X127.Y-115.57
X83.82Y-54.61
X83.82Y-69.85
X86.36Y-54.61
X86.36Y-69.85
X88.9Y-54.61
X88.9Y-69.85
X91.44Y-54.61
X91.44Y-69.85
X93.98Y-54.61
X93.98Y-69.85
X96.52Y-54.61
X96.52Y-69.85
X99.06Y-54.61
X99.06Y-69.85
X101.6Y-54.61
X101.6Y-69.85
X104.14Y-54.61
X104.14Y-69.85
X106.68Y-54.61
X106.68Y-69.85
X109.22Y-54.61
X109.22Y-69.85
X111.76Y-54.61
X111.76Y-69.85
X114.3Y-54.61
X114.3Y-69.85
X116.84Y-54.61
X116.84Y-69.85
X132.08Y-38.18
X132.08Y-43.18
X85.17Y-110.49
X90.17Y-110.49
X90.17Y-80.01
X90.17Y-87.63
X130.81Y-100.33
X130.81Y-107.95
X133.35Y-100.33
X133.35Y-107.95
X135.89Y-100.33
X135.89Y-107.95
X138.43Y-100.33
X138.43Y-107.95
X140.97Y-100.33
X140.97Y-107.95
X143.51Y-100.33
X143.51Y-107.95
X146.05Y-100.33
X146.05Y-107.95
X148.59Y-100.33
X148.59Y-107.95
X151.13Y-100.33
X151.13Y-107.95
X153.67Y-100.33
X153.67Y-107.95
X156.21Y-100.33
X156.21Y-107.95
X158.75Y-100.33
X158.75Y-107.95
X111.76Y-50.8
X119.38Y-50.8
X66.04Y-69.85
X66.04Y-72.39
X66.04Y-74.93
X66.04Y-77.47
X66.04Y-80.01
X66.04Y-82.55
X66.04Y-85.09
X66.04Y-87.63
X66.04Y-90.17
X66.04Y-92.71
X66.04Y-95.25
X66.04Y-97.79
X73.66Y-69.85
X73.66Y-72.39
X73.66Y-74.93
X73.66Y-77.47
X73.66Y-80.01
X73.66Y-82.55
X73.66Y-85.09
X73.66Y-87.63
X73.66Y-90.17
X73.66Y-92.71
X73.66Y-95.25
X73.66Y-97.79
X87.122Y-92.456
X94.742Y-92.456
X101.6Y-50.8
X109.22Y-50.8
X102.87Y-88.9
X102.87Y-91.44
X102.87Y-93.98
X102.87Y-96.52
X102.87Y-99.06
X102.87Y-101.6
X102.87Y-104.14
X110.49Y-88.9
X110.49Y-91.44
X110.49Y-93.98
X110.49Y-96.52
X110.49Y-99.06
X110.49Y-101.6
X110.49Y-104.14
X66.04Y-100.965
X66.04Y-105.965
X88.318Y-97.028
X93.218Y-97.028
X93.98Y-80.01
X93.98Y-87.63
X139.78Y-115.57
X144.78Y-115.57
X83.82Y-38.18
X83.82Y-43.18
X118.745Y-108.204
X123.745Y-108.204
X110.57Y-108.204
X115.57Y-108.204
X80.01Y-53.848
X80.01Y-61.468
X78.74Y-78.74
X78.74Y-86.36
X81.28Y-78.74
X81.28Y-86.36
X83.82Y-78.74
X83.82Y-86.36
X147.32Y-115.57
X154.94Y-115.57
X73.7Y-104.14
X76.2Y-104.14
X86.36Y-74.93
X93.98Y-74.93
X123.19Y-52.15
X123.19Y-57.15
X80.01Y-38.1
X80.01Y-45.72
X102.95Y-108.204
X107.95Y-108.204
X107.95Y-38.18
X107.95Y-43.18
X101.6Y-74.93
X101.6Y-82.55
X104.14Y-74.93
X104.14Y-82.55
X106.68Y-74.93
X106.68Y-82.55
X109.22Y-74.93
X109.22Y-82.55
X111.76Y-74.93
X111.76Y-82.55
X114.3Y-74.93
X114.3Y-82.55
X116.84Y-74.93
X116.84Y-82.55
X119.38Y-74.93
X119.38Y-82.55
X91.44Y-50.8
X99.06Y-50.8
X123.19Y-71.2
X123.19Y-76.2
X115.57Y-88.9
X115.57Y-91.44
X115.57Y-93.98
X115.57Y-96.52
X115.57Y-99.06
X115.57Y-101.6
X115.57Y-104.14
X123.19Y-88.9
X123.19Y-91.44
X123.19Y-93.98
X123.19Y-96.52
X123.19Y-99.06
X123.19Y-101.6
X123.19Y-104.14
X82.59Y-104.14
X85.09Y-104.14
X135.89Y-38.1
X135.89Y-45.72
X138.43Y-38.1
X138.43Y-45.72
X140.97Y-38.1
X140.97Y-45.72
X143.51Y-38.1
X143.51Y-45.72
X146.05Y-38.1
X146.05Y-45.72
X148.59Y-38.1
X148.59Y-45.72
X151.13Y-38.1
X151.13Y-45.72
X153.67Y-38.1
X153.67Y-45.72
X156.21Y-38.1
X156.21Y-45.72
X158.75Y-38.1
X158.75Y-45.72
X120.65Y-61.04
X120.65Y-66.04
X87.63Y-38.1
X87.63Y-45.72
X90.17Y-38.1
X90.17Y-45.72
X92.71Y-38.1
X92.71Y-45.72
X95.25Y-38.1
X95.25Y-45.72
X97.79Y-38.1
X97.79Y-45.72
X100.33Y-38.1
X100.33Y-45.72
X102.87Y-38.1
X102.87Y-45.72
X100.457Y-115.57
X108.077Y-115.57
X127.Y-71.12
X127.Y-86.36
X129.54Y-71.12
X129.54Y-86.36
X132.08Y-71.12
X132.08Y-86.36
X134.62Y-71.12
X134.62Y-86.36
X137.16Y-71.12
X137.16Y-86.36
X139.7Y-71.12
X139.7Y-86.36
X142.24Y-71.12
X142.24Y-86.36
X144.78Y-71.12
X144.78Y-86.36
X147.32Y-71.12
X147.32Y-86.36
X149.86Y-71.12
X149.86Y-86.36
X152.4Y-71.12
X152.4Y-86.36
X154.94Y-71.12
X154.94Y-86.36
X157.48Y-71.12
X157.48Y-86.36
X160.02Y-71.12
X160.02Y-86.36
X99.06Y-85.725
X99.06Y-93.345
X111.76Y-38.1
X111.76Y-45.72
X114.3Y-38.1
X114.3Y-45.72
X116.84Y-38.1
X116.84Y-45.72
X119.38Y-38.1
X119.38Y-45.72
X121.92Y-38.1
X121.92Y-45.72
X124.46Y-38.1
X124.46Y-45.72
X127.Y-38.1
X127.Y-45.72
T4
X77.47Y-66.04
X80.01Y-66.04
X77.47Y-73.152
X80.01Y-73.152
T5
X69.85Y-29.21
X69.85Y-31.75
X72.39Y-29.21
X72.39Y-31.75
X74.93Y-29.21
X74.93Y-31.75
X77.47Y-29.21
X77.47Y-31.75
X80.01Y-29.21
X80.01Y-31.75
X82.55Y-29.21
X82.55Y-31.75
X85.09Y-29.21
X85.09Y-31.75
X87.63Y-29.21
X87.63Y-31.75
X90.17Y-29.21
X90.17Y-31.75
X92.71Y-29.21
X92.71Y-31.75
X95.25Y-29.21
X95.25Y-31.75
X97.79Y-29.21
X97.79Y-31.75
X100.33Y-29.21
X100.33Y-31.75
X102.87Y-29.21
X102.87Y-31.75
X105.41Y-29.21
X105.41Y-31.75
X107.95Y-29.21
X107.95Y-31.75
X110.49Y-29.21
X110.49Y-31.75
X76.2Y-111.76
X78.74Y-111.76
X81.28Y-111.76
X130.81Y-115.57
X133.35Y-115.57
X135.89Y-115.57
X76.2Y-35.052
X78.74Y-35.052
X81.28Y-35.052
X83.82Y-35.052
X78.105Y-90.02
X78.105Y-96.52
X82.605Y-90.02
X82.605Y-96.52
X143.51Y-90.02
X143.51Y-96.52
X148.01Y-90.02
X148.01Y-96.52
X124.46Y-29.21
X124.46Y-31.75
X127.Y-29.21
X127.Y-31.75
X129.54Y-29.21
X129.54Y-31.75
X132.08Y-29.21
X132.08Y-31.75
X134.62Y-29.21
X134.62Y-31.75
X137.16Y-29.21
X137.16Y-31.75
X139.7Y-29.21
X139.7Y-31.75
X142.24Y-29.21
X142.24Y-31.75
X144.78Y-29.21
X144.78Y-31.75
X147.32Y-29.21
X147.32Y-31.75
X149.86Y-29.21
X149.86Y-31.75
X152.4Y-29.21
X152.4Y-31.75
X154.94Y-29.21
X154.94Y-31.75
X116.84Y-30.48
X116.84Y-33.02
X119.38Y-30.48
X119.38Y-33.02
X88.9Y-115.57
X91.44Y-115.57
X93.98Y-115.57
T6
X67.01Y-45.581
X67.01Y-48.351
X67.01Y-51.121
X67.01Y-53.891
X69.85Y-44.196
X69.85Y-46.966
X69.85Y-49.736
X69.85Y-52.506
X69.85Y-55.276
T7
X158.75Y-92.71
T8
X68.43Y-37.236
X68.43Y-62.236
T0
M30
