%TF.GenerationSoftware,KiCad,Pcbnew,5.0.2-bee76a0~70~ubuntu18.10.1*%
%TF.CreationDate,2019-02-24T14:53:23+01:00*%
%TF.ProjectId,plusd,706c7573-642e-46b6-9963-61645f706362,rev?*%
%TF.SameCoordinates,Original*%
%TF.FileFunction,Copper,L1,Top*%
%TF.FilePolarity,Positive*%
%FSLAX46Y46*%
G04 Gerber Fmt 4.6, Leading zero omitted, Abs format (unit mm)*
G04 Created by KiCad (PCBNEW 5.0.2-bee76a0~70~ubuntu18.10.1) date dom 24 feb 2019 14:53:23 CET*
%MOMM*%
%LPD*%
G01*
G04 APERTURE LIST*
%ADD10C,0.150000*%
%ADD11O,2.400000X1.600000*%
%ADD12R,2.400000X1.600000*%
%ADD13O,1.600000X2.400000*%
%ADD14R,1.600000X2.400000*%
%ADD15C,1.600000*%
%ADD16C,0.100000*%
%ADD17C,1.900000*%
%ADD18O,2.400000X1.900000*%
%ADD19C,4.000000*%
%ADD20O,1.778000X5.080000*%
%ADD21O,1.600000X1.600000*%
%ADD22R,1.600000X1.600000*%
%ADD23R,1.700000X1.700000*%
%ADD24O,1.700000X1.700000*%
%ADD25C,6.000000*%
%ADD26C,0.800000*%
%ADD27O,1.800000X1.800000*%
%ADD28R,1.800000X1.800000*%
%ADD29C,1.800000*%
%ADD30C,1.700000*%
%ADD31C,1.500000*%
%ADD32C,0.400000*%
%ADD33C,0.200000*%
G04 APERTURE END LIST*
D10*
X71628000Y-122936000D02*
X63500000Y-122936000D01*
X71628000Y-115316000D02*
X71628000Y-122936000D01*
X70104000Y-115316000D02*
X71628000Y-115316000D01*
X70104000Y-114300000D02*
X70104000Y-115316000D01*
X86360000Y-124460000D02*
X162560000Y-124460000D01*
X86360000Y-114300000D02*
X86360000Y-124460000D01*
X70104000Y-114300000D02*
X86360000Y-114300000D01*
X162560000Y-124460000D02*
X162560000Y-25400000D01*
X63500000Y-25400000D02*
X63500000Y-122936000D01*
X162560000Y-25400000D02*
X63500000Y-25400000D01*
D11*
X110490000Y-88900000D03*
X102870000Y-104140000D03*
X110490000Y-91440000D03*
X102870000Y-101600000D03*
X110490000Y-93980000D03*
X102870000Y-99060000D03*
X110490000Y-96520000D03*
X102870000Y-96520000D03*
X110490000Y-99060000D03*
X102870000Y-93980000D03*
X110490000Y-101600000D03*
X102870000Y-91440000D03*
X110490000Y-104140000D03*
D12*
X102870000Y-88900000D03*
D13*
X83820000Y-54610000D03*
X116840000Y-69850000D03*
X86360000Y-54610000D03*
X114300000Y-69850000D03*
X88900000Y-54610000D03*
X111760000Y-69850000D03*
X91440000Y-54610000D03*
X109220000Y-69850000D03*
X93980000Y-54610000D03*
X106680000Y-69850000D03*
X96520000Y-54610000D03*
X104140000Y-69850000D03*
X99060000Y-54610000D03*
X101600000Y-69850000D03*
X101600000Y-54610000D03*
X99060000Y-69850000D03*
X104140000Y-54610000D03*
X96520000Y-69850000D03*
X106680000Y-54610000D03*
X93980000Y-69850000D03*
X109220000Y-54610000D03*
X91440000Y-69850000D03*
X111760000Y-54610000D03*
X88900000Y-69850000D03*
X114300000Y-54610000D03*
X86360000Y-69850000D03*
X116840000Y-54610000D03*
D14*
X83820000Y-69850000D03*
D15*
X99060000Y-96600000D03*
X99060000Y-101600000D03*
D16*
G36*
X70621558Y-43248287D02*
X70667668Y-43255127D01*
X70712885Y-43266453D01*
X70756775Y-43282157D01*
X70798913Y-43302087D01*
X70838896Y-43326052D01*
X70876337Y-43353820D01*
X70910876Y-43385124D01*
X70942180Y-43419663D01*
X70969948Y-43457104D01*
X70993913Y-43497087D01*
X71013843Y-43539225D01*
X71029547Y-43583115D01*
X71040873Y-43628332D01*
X71047713Y-43674442D01*
X71050000Y-43721000D01*
X71050000Y-44671000D01*
X71047713Y-44717558D01*
X71040873Y-44763668D01*
X71029547Y-44808885D01*
X71013843Y-44852775D01*
X70993913Y-44894913D01*
X70969948Y-44934896D01*
X70942180Y-44972337D01*
X70910876Y-45006876D01*
X70876337Y-45038180D01*
X70838896Y-45065948D01*
X70798913Y-45089913D01*
X70756775Y-45109843D01*
X70712885Y-45125547D01*
X70667668Y-45136873D01*
X70621558Y-45143713D01*
X70575000Y-45146000D01*
X69125000Y-45146000D01*
X69078442Y-45143713D01*
X69032332Y-45136873D01*
X68987115Y-45125547D01*
X68943225Y-45109843D01*
X68901087Y-45089913D01*
X68861104Y-45065948D01*
X68823663Y-45038180D01*
X68789124Y-45006876D01*
X68757820Y-44972337D01*
X68730052Y-44934896D01*
X68706087Y-44894913D01*
X68686157Y-44852775D01*
X68670453Y-44808885D01*
X68659127Y-44763668D01*
X68652287Y-44717558D01*
X68650000Y-44671000D01*
X68650000Y-43721000D01*
X68652287Y-43674442D01*
X68659127Y-43628332D01*
X68670453Y-43583115D01*
X68686157Y-43539225D01*
X68706087Y-43497087D01*
X68730052Y-43457104D01*
X68757820Y-43419663D01*
X68789124Y-43385124D01*
X68823663Y-43353820D01*
X68861104Y-43326052D01*
X68901087Y-43302087D01*
X68943225Y-43282157D01*
X68987115Y-43266453D01*
X69032332Y-43255127D01*
X69078442Y-43248287D01*
X69125000Y-43246000D01*
X70575000Y-43246000D01*
X70621558Y-43248287D01*
X70621558Y-43248287D01*
G37*
D17*
X69850000Y-44196000D03*
D18*
X69850000Y-46966000D03*
X69850000Y-49736000D03*
X69850000Y-52506000D03*
X69850000Y-55276000D03*
X67010000Y-45581000D03*
X67010000Y-48351000D03*
X67010000Y-51121000D03*
X67010000Y-53891000D03*
D19*
X68430000Y-37236000D03*
X68430000Y-62236000D03*
D13*
X127000000Y-52070000D03*
X160020000Y-67310000D03*
X129540000Y-52070000D03*
X157480000Y-67310000D03*
X132080000Y-52070000D03*
X154940000Y-67310000D03*
X134620000Y-52070000D03*
X152400000Y-67310000D03*
X137160000Y-52070000D03*
X149860000Y-67310000D03*
X139700000Y-52070000D03*
X147320000Y-67310000D03*
X142240000Y-52070000D03*
X144780000Y-67310000D03*
X144780000Y-52070000D03*
X142240000Y-67310000D03*
X147320000Y-52070000D03*
X139700000Y-67310000D03*
X149860000Y-52070000D03*
X137160000Y-67310000D03*
X152400000Y-52070000D03*
X134620000Y-67310000D03*
X154940000Y-52070000D03*
X132080000Y-67310000D03*
X157480000Y-52070000D03*
X129540000Y-67310000D03*
X160020000Y-52070000D03*
D14*
X127000000Y-67310000D03*
D20*
X158750000Y-121920000D03*
X156210000Y-121920000D03*
X153670000Y-121920000D03*
X151130000Y-121920000D03*
X148590000Y-121920000D03*
X146050000Y-121920000D03*
X143510000Y-121920000D03*
X140970000Y-121920000D03*
X138430000Y-121920000D03*
X135890000Y-121920000D03*
X133350000Y-121920000D03*
X130810000Y-121920000D03*
X128270000Y-121920000D03*
X125730000Y-121920000D03*
X123190000Y-121920000D03*
X120650000Y-121920000D03*
X118110000Y-121920000D03*
X115570000Y-121920000D03*
X113030000Y-121920000D03*
X110490000Y-121920000D03*
X107950000Y-121920000D03*
X105410000Y-121920000D03*
X102870000Y-121920000D03*
X97790000Y-121920000D03*
X95250000Y-121920000D03*
X92710000Y-121920000D03*
X90170000Y-121920000D03*
D21*
X93980000Y-87630000D03*
D15*
X93980000Y-80010000D03*
D11*
X73660000Y-69850000D03*
X66040000Y-97790000D03*
X73660000Y-72390000D03*
X66040000Y-95250000D03*
X73660000Y-74930000D03*
X66040000Y-92710000D03*
X73660000Y-77470000D03*
X66040000Y-90170000D03*
X73660000Y-80010000D03*
X66040000Y-87630000D03*
X73660000Y-82550000D03*
X66040000Y-85090000D03*
X73660000Y-85090000D03*
X66040000Y-82550000D03*
X73660000Y-87630000D03*
X66040000Y-80010000D03*
X73660000Y-90170000D03*
X66040000Y-77470000D03*
X73660000Y-92710000D03*
X66040000Y-74930000D03*
X73660000Y-95250000D03*
X66040000Y-72390000D03*
X73660000Y-97790000D03*
D12*
X66040000Y-69850000D03*
D15*
X80010000Y-45720000D03*
D21*
X80010000Y-38100000D03*
D15*
X82590000Y-104140000D03*
D22*
X85090000Y-104140000D03*
D23*
X69850000Y-31750000D03*
D24*
X69850000Y-29210000D03*
X72390000Y-31750000D03*
X72390000Y-29210000D03*
X74930000Y-31750000D03*
X74930000Y-29210000D03*
X77470000Y-31750000D03*
X77470000Y-29210000D03*
X80010000Y-31750000D03*
X80010000Y-29210000D03*
X82550000Y-31750000D03*
X82550000Y-29210000D03*
X85090000Y-31750000D03*
X85090000Y-29210000D03*
X87630000Y-31750000D03*
X87630000Y-29210000D03*
X90170000Y-31750000D03*
X90170000Y-29210000D03*
X92710000Y-31750000D03*
X92710000Y-29210000D03*
X95250000Y-31750000D03*
X95250000Y-29210000D03*
X97790000Y-31750000D03*
X97790000Y-29210000D03*
X100330000Y-31750000D03*
X100330000Y-29210000D03*
X102870000Y-31750000D03*
X102870000Y-29210000D03*
X105410000Y-31750000D03*
X105410000Y-29210000D03*
X107950000Y-31750000D03*
X107950000Y-29210000D03*
X110490000Y-31750000D03*
X110490000Y-29210000D03*
D12*
X115570000Y-88900000D03*
D11*
X123190000Y-104140000D03*
X115570000Y-91440000D03*
X123190000Y-101600000D03*
X115570000Y-93980000D03*
X123190000Y-99060000D03*
X115570000Y-96520000D03*
X123190000Y-96520000D03*
X115570000Y-99060000D03*
X123190000Y-93980000D03*
X115570000Y-101600000D03*
X123190000Y-91440000D03*
X115570000Y-104140000D03*
X123190000Y-88900000D03*
D25*
X158750000Y-92710000D03*
D26*
X158750000Y-90460000D03*
X160340990Y-91119010D03*
X161000000Y-92710000D03*
X160340990Y-94300990D03*
X158750000Y-94960000D03*
X157159010Y-94300990D03*
X156500000Y-92710000D03*
X157159010Y-91119010D03*
D23*
X135890000Y-115570000D03*
D24*
X133350000Y-115570000D03*
X130810000Y-115570000D03*
D23*
X88900000Y-115570000D03*
D24*
X91440000Y-115570000D03*
X93980000Y-115570000D03*
D13*
X130810000Y-100330000D03*
X158750000Y-107950000D03*
X133350000Y-100330000D03*
X156210000Y-107950000D03*
X135890000Y-100330000D03*
X153670000Y-107950000D03*
X138430000Y-100330000D03*
X151130000Y-107950000D03*
X140970000Y-100330000D03*
X148590000Y-107950000D03*
X143510000Y-100330000D03*
X146050000Y-107950000D03*
X146050000Y-100330000D03*
X143510000Y-107950000D03*
X148590000Y-100330000D03*
X140970000Y-107950000D03*
X151130000Y-100330000D03*
X138430000Y-107950000D03*
X153670000Y-100330000D03*
X135890000Y-107950000D03*
X156210000Y-100330000D03*
X133350000Y-107950000D03*
X158750000Y-100330000D03*
D14*
X130810000Y-107950000D03*
X127000000Y-86360000D03*
D13*
X160020000Y-71120000D03*
X129540000Y-86360000D03*
X157480000Y-71120000D03*
X132080000Y-86360000D03*
X154940000Y-71120000D03*
X134620000Y-86360000D03*
X152400000Y-71120000D03*
X137160000Y-86360000D03*
X149860000Y-71120000D03*
X139700000Y-86360000D03*
X147320000Y-71120000D03*
X142240000Y-86360000D03*
X144780000Y-71120000D03*
X144780000Y-86360000D03*
X142240000Y-71120000D03*
X147320000Y-86360000D03*
X139700000Y-71120000D03*
X149860000Y-86360000D03*
X137160000Y-71120000D03*
X152400000Y-86360000D03*
X134620000Y-71120000D03*
X154940000Y-86360000D03*
X132080000Y-71120000D03*
X157480000Y-86360000D03*
X129540000Y-71120000D03*
X160020000Y-86360000D03*
X127000000Y-71120000D03*
X101600000Y-74930000D03*
X119380000Y-82550000D03*
X104140000Y-74930000D03*
X116840000Y-82550000D03*
X106680000Y-74930000D03*
X114300000Y-82550000D03*
X109220000Y-74930000D03*
X111760000Y-82550000D03*
X111760000Y-74930000D03*
X109220000Y-82550000D03*
X114300000Y-74930000D03*
X106680000Y-82550000D03*
X116840000Y-74930000D03*
X104140000Y-82550000D03*
X119380000Y-74930000D03*
D14*
X101600000Y-82550000D03*
X87630000Y-45720000D03*
D13*
X102870000Y-38100000D03*
X90170000Y-45720000D03*
X100330000Y-38100000D03*
X92710000Y-45720000D03*
X97790000Y-38100000D03*
X95250000Y-45720000D03*
X95250000Y-38100000D03*
X97790000Y-45720000D03*
X92710000Y-38100000D03*
X100330000Y-45720000D03*
X90170000Y-38100000D03*
X102870000Y-45720000D03*
X87630000Y-38100000D03*
X135890000Y-38100000D03*
X158750000Y-45720000D03*
X138430000Y-38100000D03*
X156210000Y-45720000D03*
X140970000Y-38100000D03*
X153670000Y-45720000D03*
X143510000Y-38100000D03*
X151130000Y-45720000D03*
X146050000Y-38100000D03*
X148590000Y-45720000D03*
X148590000Y-38100000D03*
X146050000Y-45720000D03*
X151130000Y-38100000D03*
X143510000Y-45720000D03*
X153670000Y-38100000D03*
X140970000Y-45720000D03*
X156210000Y-38100000D03*
X138430000Y-45720000D03*
X158750000Y-38100000D03*
D14*
X135890000Y-45720000D03*
D13*
X111760000Y-38100000D03*
X127000000Y-45720000D03*
X114300000Y-38100000D03*
X124460000Y-45720000D03*
X116840000Y-38100000D03*
X121920000Y-45720000D03*
X119380000Y-38100000D03*
X119380000Y-45720000D03*
X121920000Y-38100000D03*
X116840000Y-45720000D03*
X124460000Y-38100000D03*
X114300000Y-45720000D03*
X127000000Y-38100000D03*
D14*
X111760000Y-45720000D03*
D27*
X76200000Y-111760000D03*
X78740000Y-111760000D03*
D28*
X81280000Y-111760000D03*
D15*
X73700000Y-104140000D03*
D22*
X76200000Y-104140000D03*
X93980000Y-104140000D03*
D15*
X91480000Y-104140000D03*
D29*
X80010000Y-73152000D03*
D28*
X77470000Y-73152000D03*
D21*
X108077000Y-115570000D03*
D22*
X100457000Y-115570000D03*
D21*
X119380000Y-115570000D03*
D22*
X127000000Y-115570000D03*
X154940000Y-115570000D03*
D21*
X147320000Y-115570000D03*
D29*
X80010000Y-66040000D03*
D28*
X77470000Y-66040000D03*
D21*
X127000000Y-104140000D03*
D15*
X127000000Y-96520000D03*
X86360000Y-74930000D03*
D21*
X93980000Y-74930000D03*
D15*
X90170000Y-80010000D03*
D21*
X90170000Y-87630000D03*
D15*
X88900000Y-50800000D03*
D21*
X81280000Y-50800000D03*
X99060000Y-50800000D03*
D15*
X91440000Y-50800000D03*
X99060000Y-85725000D03*
D21*
X99060000Y-93345000D03*
X109220000Y-50800000D03*
D15*
X101600000Y-50800000D03*
D21*
X94742000Y-92456000D03*
D15*
X87122000Y-92456000D03*
D21*
X111760000Y-50800000D03*
D15*
X119380000Y-50800000D03*
X80010000Y-61468000D03*
D21*
X80010000Y-53848000D03*
D15*
X123745000Y-108204000D03*
X118745000Y-108204000D03*
X139780000Y-115570000D03*
X144780000Y-115570000D03*
X107950000Y-43180000D03*
X107950000Y-38180000D03*
X158750000Y-116760000D03*
X158750000Y-111760000D03*
X97790000Y-80010000D03*
X97790000Y-75010000D03*
X102950000Y-108204000D03*
X107950000Y-108204000D03*
X83820000Y-38180000D03*
X83820000Y-43180000D03*
X120650000Y-66040000D03*
X120650000Y-61040000D03*
X123190000Y-52150000D03*
X123190000Y-57150000D03*
X123190000Y-76200000D03*
X123190000Y-71200000D03*
X115570000Y-108204000D03*
X110570000Y-108204000D03*
X66040000Y-105965000D03*
X66040000Y-100965000D03*
X132080000Y-43180000D03*
X132080000Y-38180000D03*
D23*
X124460000Y-31750000D03*
D24*
X124460000Y-29210000D03*
X127000000Y-31750000D03*
X127000000Y-29210000D03*
X129540000Y-31750000D03*
X129540000Y-29210000D03*
X132080000Y-31750000D03*
X132080000Y-29210000D03*
X134620000Y-31750000D03*
X134620000Y-29210000D03*
X137160000Y-31750000D03*
X137160000Y-29210000D03*
X139700000Y-31750000D03*
X139700000Y-29210000D03*
X142240000Y-31750000D03*
X142240000Y-29210000D03*
X144780000Y-31750000D03*
X144780000Y-29210000D03*
X147320000Y-31750000D03*
X147320000Y-29210000D03*
X149860000Y-31750000D03*
X149860000Y-29210000D03*
X152400000Y-31750000D03*
X152400000Y-29210000D03*
X154940000Y-31750000D03*
X154940000Y-29210000D03*
D23*
X76200000Y-35052000D03*
D24*
X78740000Y-35052000D03*
X81280000Y-35052000D03*
X83820000Y-35052000D03*
D15*
X85170000Y-110490000D03*
X90170000Y-110490000D03*
D24*
X116840000Y-33020000D03*
X116840000Y-30480000D03*
X119380000Y-33020000D03*
D23*
X119380000Y-30480000D03*
D30*
X78105000Y-96520000D03*
X78105000Y-90020000D03*
X82605000Y-96520000D03*
X82605000Y-90020000D03*
X148010000Y-90020000D03*
X148010000Y-96520000D03*
X143510000Y-90020000D03*
X143510000Y-96520000D03*
D22*
X78740000Y-86360000D03*
D21*
X83820000Y-78740000D03*
X81280000Y-86360000D03*
X81280000Y-78740000D03*
X83820000Y-86360000D03*
X78740000Y-78740000D03*
D31*
X93218000Y-97028000D03*
X88318000Y-97028000D03*
D26*
X99060000Y-108585000D03*
X122174000Y-118618000D03*
X113195300Y-84116800D03*
X142240000Y-106045000D03*
X134874000Y-97253600D03*
X151765000Y-113665000D03*
X126365000Y-77851000D03*
X127000000Y-76200000D03*
X82550000Y-63754000D03*
X123825000Y-79121000D03*
X139700000Y-79121000D03*
X127831000Y-83275000D03*
X137160000Y-82042000D03*
X87630000Y-66294000D03*
X92456000Y-64008000D03*
X137922000Y-92710000D03*
X132080000Y-113665000D03*
X127000000Y-100330000D03*
X144780000Y-78105000D03*
X123190000Y-78105000D03*
X137160000Y-102235000D03*
X144652500Y-110801900D03*
X130556000Y-90170000D03*
X86360000Y-65024000D03*
X140208000Y-103886000D03*
X149541600Y-90625700D03*
X87630000Y-67564000D03*
X146471000Y-88088100D03*
X140716000Y-91694000D03*
X127762000Y-112014000D03*
X126492000Y-111252000D03*
X139446000Y-90424000D03*
X127000000Y-102362000D03*
X91783300Y-118110000D03*
X120904000Y-110998000D03*
X103124000Y-111760000D03*
X87122000Y-118618000D03*
X83820000Y-109093000D03*
X127000000Y-99060000D03*
X103124000Y-114300000D03*
X103886000Y-113030000D03*
X68072000Y-78740000D03*
X92202000Y-86106000D03*
X117094000Y-86614000D03*
X123492600Y-82143100D03*
X122327800Y-79128300D03*
X153483000Y-94092300D03*
X103124000Y-66040000D03*
X107950000Y-59436000D03*
X82804000Y-74168000D03*
X88392000Y-73152000D03*
X94488000Y-64008000D03*
X149860000Y-97790000D03*
X124841000Y-72771000D03*
X129415000Y-65239000D03*
X112522000Y-102870000D03*
X104394000Y-102870000D03*
X121666000Y-73914000D03*
X99695000Y-82550000D03*
X106172000Y-86868000D03*
X101600000Y-86868000D03*
X97155000Y-86360000D03*
X109220000Y-84582000D03*
X105156000Y-86106000D03*
X92202000Y-84328000D03*
X103886000Y-85344000D03*
X96520000Y-118110000D03*
X149860000Y-60549700D03*
X75692000Y-83058000D03*
X89916000Y-113284000D03*
X154940000Y-95795000D03*
X129010300Y-83420400D03*
X127732900Y-60960000D03*
X100330000Y-56515000D03*
X93980000Y-42545000D03*
X103378000Y-41910000D03*
X106172000Y-42926000D03*
X96520000Y-40640000D03*
X115570000Y-60198000D03*
X105410000Y-60198000D03*
X105918000Y-41148000D03*
X95250000Y-56515000D03*
X77500000Y-39975000D03*
X91440000Y-47625000D03*
X118364000Y-104140000D03*
X118364000Y-104140000D03*
X68580000Y-77216000D03*
X81534000Y-84074000D03*
D32*
X121234900Y-72308500D02*
X123190000Y-74263600D01*
X123190000Y-74263600D02*
X123190000Y-76200000D01*
X158420500Y-93039500D02*
X158750000Y-92710000D01*
X158420500Y-94301000D02*
X158420500Y-93039500D01*
X157159000Y-92051000D02*
X157432000Y-92051000D01*
X157432000Y-92051000D02*
X158420500Y-93039500D01*
X157159000Y-92051000D02*
X156500000Y-92710000D01*
X157159000Y-91119000D02*
X157159000Y-92051000D01*
X158750000Y-94960000D02*
X158420500Y-94630500D01*
X158420500Y-94630500D02*
X158420500Y-94301000D01*
X158420500Y-94301000D02*
X157159000Y-94301000D01*
X158750000Y-90460000D02*
X158091000Y-91119000D01*
X158091000Y-91119000D02*
X157159000Y-91119000D01*
X119380000Y-82116500D02*
X119380000Y-82550000D01*
X160020000Y-90366800D02*
X158843200Y-90366800D01*
X158843200Y-90366800D02*
X158750000Y-90460000D01*
X159216000Y-95426000D02*
X158750000Y-94960000D01*
X160341000Y-91119000D02*
X160341000Y-92051000D01*
X160341000Y-92051000D02*
X161000000Y-92710000D01*
X160020000Y-90366800D02*
X160341000Y-90687800D01*
X160341000Y-90687800D02*
X160341000Y-91119000D01*
X160341000Y-94301000D02*
X159216000Y-95426000D01*
X158750000Y-111760000D02*
X158750000Y-107950000D01*
X160020000Y-87885300D02*
X160020000Y-90366800D01*
X115570000Y-104140000D02*
X115570000Y-107950000D01*
X160020000Y-86360000D02*
X160020000Y-87885300D01*
X160020000Y-65784700D02*
X160020000Y-64511100D01*
X160020000Y-64511100D02*
X158750000Y-63241100D01*
X158750000Y-63241100D02*
X158750000Y-45720000D01*
X123190000Y-76200000D02*
X119380000Y-80010000D01*
X119380000Y-80010000D02*
X119380000Y-81024700D01*
X119380000Y-82116500D02*
X119380000Y-81024700D01*
X160020000Y-67310000D02*
X160020000Y-65784700D01*
X66040000Y-100965000D02*
X66040000Y-97790000D01*
X160655000Y-94615000D02*
X158750000Y-92710000D01*
X160655000Y-104595000D02*
X160655000Y-94615000D01*
X158750000Y-106500000D02*
X160655000Y-104595000D01*
X158750000Y-107950000D02*
X158750000Y-106500000D01*
X125095000Y-55245000D02*
X123190000Y-57150000D01*
X123190000Y-63500000D02*
X123190000Y-57150000D01*
X120650000Y-66040000D02*
X123190000Y-63500000D01*
X78740000Y-81915000D02*
X76835000Y-80010000D01*
X78740000Y-86360000D02*
X78740000Y-81915000D01*
X78740000Y-110490000D02*
X78740000Y-111760000D01*
X73700000Y-104140000D02*
X73700000Y-105450000D01*
X73700000Y-105450000D02*
X78740000Y-110490000D01*
X85630001Y-41369999D02*
X84619999Y-42380001D01*
X84619999Y-42380001D02*
X83820000Y-43180000D01*
X102870000Y-31750000D02*
X105410000Y-31750000D01*
X120650000Y-71723600D02*
X121234900Y-72308500D01*
X120650000Y-66040000D02*
X120650000Y-71723600D01*
X85090000Y-32952081D02*
X85725000Y-33587081D01*
X85090000Y-31750000D02*
X85090000Y-32952081D01*
X85725000Y-41275000D02*
X83820000Y-43180000D01*
X85725000Y-33587081D02*
X85725000Y-41275000D01*
X88900000Y-110490000D02*
X90170000Y-110490000D01*
X82590000Y-104180000D02*
X88900000Y-110490000D01*
X82590000Y-104140000D02*
X82590000Y-104180000D01*
X85090000Y-31750000D02*
X87630000Y-31750000D01*
X87630000Y-31750000D02*
X90170000Y-31750000D01*
X97790000Y-31750000D02*
X100330000Y-31750000D01*
X102950000Y-104220000D02*
X102870000Y-104140000D01*
X99060000Y-108019315D02*
X99060000Y-108585000D01*
X99060000Y-107550000D02*
X99060000Y-108019315D01*
X102470000Y-104140000D02*
X99060000Y-107550000D01*
X102870000Y-104140000D02*
X102470000Y-104140000D01*
X127000000Y-45720000D02*
X127000000Y-47752000D01*
X127000000Y-47752000D02*
X125095000Y-49657000D01*
X125095000Y-49657000D02*
X125095000Y-55245000D01*
X119380000Y-118618000D02*
X117708800Y-116946800D01*
X122174000Y-118618000D02*
X119380000Y-118618000D01*
X115570000Y-114808000D02*
X115570000Y-107950000D01*
X119380000Y-118618000D02*
X115570000Y-114808000D01*
X109855000Y-41275000D02*
X107950000Y-43180000D01*
X109855000Y-34925000D02*
X109855000Y-41275000D01*
X107950000Y-31750000D02*
X107950000Y-33020000D01*
X107950000Y-33020000D02*
X109855000Y-34925000D01*
X77470000Y-67340000D02*
X75946000Y-68864000D01*
X77470000Y-66040000D02*
X77470000Y-67340000D01*
X75946000Y-79121000D02*
X78740000Y-81915000D01*
X75946000Y-68864000D02*
X75946000Y-79121000D01*
X128270000Y-43180000D02*
X127000000Y-44450000D01*
X127000000Y-45720000D02*
X127000000Y-44450000D01*
X133350000Y-30480000D02*
X134620000Y-29210000D01*
X128778000Y-30480000D02*
X133350000Y-30480000D01*
X128270000Y-43180000D02*
X128270000Y-30988000D01*
X128270000Y-30988000D02*
X128778000Y-30480000D01*
X76454000Y-98004000D02*
X82590000Y-104140000D01*
X78740000Y-86360000D02*
X76454000Y-88646000D01*
X76454000Y-88646000D02*
X76454000Y-98004000D01*
D33*
X114300000Y-69850000D02*
X114300000Y-71375300D01*
X114300000Y-71375300D02*
X113174600Y-72500700D01*
X113174600Y-72500700D02*
X113174600Y-84096100D01*
X113174600Y-84096100D02*
X113195300Y-84116800D01*
X142240000Y-113284000D02*
X139780000Y-115570000D01*
X142240000Y-106045000D02*
X142240000Y-113284000D01*
D32*
X81280000Y-110490000D02*
X81280000Y-111760000D01*
X76200000Y-105410000D02*
X81280000Y-110490000D01*
X76200000Y-104140000D02*
X76200000Y-105410000D01*
X123190000Y-71200000D02*
X123288600Y-71200000D01*
X82405400Y-60469600D02*
X80010000Y-58074200D01*
X85090000Y-104140000D02*
X85090000Y-103014700D01*
X82480001Y-60544201D02*
X82405400Y-60469600D01*
X82480001Y-60544201D02*
X80010000Y-58074200D01*
X80010000Y-58074200D02*
X80010000Y-54610000D01*
X80010000Y-54610000D02*
X80010000Y-53340000D01*
X111760000Y-38100000D02*
X111760000Y-45720000D01*
X128245800Y-62263302D02*
X128905000Y-61604102D01*
X127000000Y-53670000D02*
X127000000Y-52070000D01*
X128905000Y-55575000D02*
X127000000Y-53670000D01*
X128905000Y-61604102D02*
X128905000Y-55575000D01*
X91440000Y-115570000D02*
X91440000Y-114300000D01*
X85090000Y-105410000D02*
X85090000Y-104140000D01*
X87630000Y-107950000D02*
X85090000Y-105410000D01*
X133905000Y-40005000D02*
X133905000Y-47305000D01*
X132080000Y-38180000D02*
X133905000Y-40005000D01*
X116840000Y-57230000D02*
X116840000Y-54610000D01*
X120650000Y-61040000D02*
X116840000Y-57230000D01*
X82480001Y-61341000D02*
X82480001Y-60544201D01*
X111760000Y-45720000D02*
X111760000Y-50800000D01*
X111760000Y-50800000D02*
X109220000Y-50800000D01*
X80010000Y-53340000D02*
X80010000Y-52070000D01*
X130810000Y-99930000D02*
X130810000Y-100330000D01*
X133486400Y-97253600D02*
X130810000Y-99930000D01*
X134874000Y-97253600D02*
X133486400Y-97253600D01*
X126365000Y-78740000D02*
X126365000Y-78740000D01*
X123190000Y-85834794D02*
X123190000Y-88900000D01*
X126365000Y-82659794D02*
X123190000Y-85834794D01*
X126365000Y-77851000D02*
X126365000Y-82659794D01*
X127000000Y-71120000D02*
X127000000Y-76200000D01*
X92710000Y-87630000D02*
X90170000Y-87630000D01*
X95504000Y-86360000D02*
X94234000Y-87630000D01*
X94234000Y-87630000D02*
X92710000Y-87630000D01*
X93980000Y-74930000D02*
X95504000Y-76454000D01*
X95504000Y-76454000D02*
X95504000Y-86360000D01*
X87630000Y-87630000D02*
X90170000Y-87630000D01*
X87630000Y-87630000D02*
X85090000Y-90170000D01*
X85090000Y-104140000D02*
X85090000Y-90170000D01*
X90170000Y-86498630D02*
X86360000Y-82688630D01*
X90170000Y-87630000D02*
X90170000Y-86498630D01*
X86360000Y-82688630D02*
X86360000Y-77285999D01*
X100664000Y-110490000D02*
X102950000Y-108204000D01*
X81280000Y-50800000D02*
X80010000Y-50800000D01*
X80010000Y-50800000D02*
X80010000Y-53848000D01*
X87630000Y-41910000D02*
X87630000Y-38100000D01*
X99060000Y-50800000D02*
X97928630Y-50800000D01*
X97928630Y-50800000D02*
X96520000Y-49391370D01*
X96520000Y-49391370D02*
X96520000Y-44892930D01*
X89065001Y-43345001D02*
X87630000Y-41910000D01*
X96520000Y-44892930D02*
X94972071Y-43345001D01*
X94972071Y-43345001D02*
X89065001Y-43345001D01*
X130988000Y-49022000D02*
X132188000Y-49022000D01*
X129540000Y-52070000D02*
X129540000Y-50470000D01*
X129540000Y-50470000D02*
X130988000Y-49022000D01*
X133905000Y-47305000D02*
X132188000Y-49022000D01*
X127000000Y-69520000D02*
X127178000Y-69342000D01*
X127000000Y-71120000D02*
X127000000Y-69520000D01*
X127864800Y-69342000D02*
X128245800Y-68961000D01*
X127178000Y-69342000D02*
X127864800Y-69342000D01*
X128245800Y-68961000D02*
X128245800Y-62263302D01*
X73660000Y-68650000D02*
X74930000Y-67380000D01*
X73660000Y-69850000D02*
X73660000Y-68650000D01*
X74930000Y-63154200D02*
X80010000Y-58074200D01*
X74930000Y-67380000D02*
X74930000Y-63154200D01*
X84766001Y-74422000D02*
X82480001Y-72136000D01*
X84766001Y-75692000D02*
X84766001Y-74422000D01*
X82480001Y-72136000D02*
X82480001Y-61341000D01*
X86360000Y-77285999D02*
X84766001Y-75692000D01*
X91440000Y-115570000D02*
X91440000Y-112268000D01*
X91440000Y-112268000D02*
X92456000Y-111252000D01*
X91186000Y-107950000D02*
X87630000Y-107950000D01*
X93218000Y-110490000D02*
X91440000Y-112268000D01*
X95758000Y-110490000D02*
X93218000Y-110490000D01*
X95758000Y-110490000D02*
X100664000Y-110490000D01*
X95250000Y-110490000D02*
X95758000Y-110490000D01*
X93218000Y-109220000D02*
X91948000Y-107950000D01*
X93218000Y-110490000D02*
X93218000Y-109220000D01*
X91948000Y-107950000D02*
X91186000Y-107950000D01*
X147320000Y-106680000D02*
X147320000Y-109220000D01*
X138176000Y-97253600D02*
X139700000Y-98552000D01*
X147320000Y-109220000D02*
X151765000Y-113665000D01*
X134874000Y-97253600D02*
X138176000Y-97253600D01*
X141986000Y-103632000D02*
X144272000Y-103632000D01*
X139700000Y-98552000D02*
X139700000Y-101346000D01*
X139700000Y-101346000D02*
X141986000Y-103632000D01*
X144272000Y-103632000D02*
X147320000Y-106680000D01*
D33*
X124217900Y-82792100D02*
X120650000Y-86360000D01*
X119380000Y-91440000D02*
X115570000Y-91440000D01*
X120650000Y-86360000D02*
X120650000Y-90170000D01*
X120650000Y-90170000D02*
X119380000Y-91440000D01*
X139700000Y-79121000D02*
X139700000Y-71120000D01*
X124224999Y-79520999D02*
X124224999Y-81082401D01*
X123825000Y-79121000D02*
X124224999Y-79520999D01*
X124224999Y-81082401D02*
X124217900Y-81089500D01*
X124217900Y-81089500D02*
X124217900Y-82792100D01*
X139700000Y-53595300D02*
X139700000Y-52070000D01*
X140970000Y-68326000D02*
X140970000Y-54864000D01*
X140970000Y-54864000D02*
X139700000Y-53595300D01*
X139700000Y-71120000D02*
X139700000Y-69594700D01*
X139700000Y-69594700D02*
X140970000Y-68326000D01*
X136986100Y-82189500D02*
X137160000Y-82015600D01*
X136986100Y-71293900D02*
X137160000Y-71120000D01*
X127615500Y-83275000D02*
X127831000Y-83275000D01*
X123190000Y-91440000D02*
X124715300Y-91440000D01*
X124715300Y-91440000D02*
X124715300Y-91438700D01*
X125292500Y-90861500D02*
X125292500Y-85598000D01*
X124715300Y-91438700D02*
X125292500Y-90861500D01*
X125292500Y-85598000D02*
X127615500Y-83275000D01*
X137160000Y-71120000D02*
X137160000Y-82042000D01*
X137160000Y-53595300D02*
X137160000Y-52070000D01*
X138309300Y-54744600D02*
X137160000Y-53595300D01*
X137160000Y-71120000D02*
X137160000Y-69594700D01*
X138430000Y-68326000D02*
X138309300Y-54744600D01*
X137160000Y-69594700D02*
X138430000Y-68326000D01*
X89916000Y-64008000D02*
X87630000Y-66294000D01*
X92456000Y-64008000D02*
X89916000Y-64008000D01*
X153670000Y-105664000D02*
X153670000Y-107950000D01*
X139700000Y-86360000D02*
X139700000Y-87885300D01*
X149860000Y-99314000D02*
X149860000Y-101854000D01*
X147828000Y-98298000D02*
X148844000Y-98298000D01*
X149860000Y-101854000D02*
X153670000Y-105664000D01*
X139700000Y-87885300D02*
X146302700Y-94488000D01*
X146302700Y-96772700D02*
X147828000Y-98298000D01*
X146302700Y-94488000D02*
X146302700Y-96772700D01*
X148844000Y-98298000D02*
X149860000Y-99314000D01*
X139700000Y-68834000D02*
X139700000Y-67310000D01*
X138430000Y-83566000D02*
X138430000Y-70104000D01*
X139700000Y-86360000D02*
X139700000Y-84834700D01*
X138430000Y-70104000D02*
X139700000Y-68834000D01*
X139700000Y-84834700D02*
X138430000Y-83566000D01*
X134620000Y-68835300D02*
X134620000Y-67310000D01*
X133352067Y-70104000D02*
X134620000Y-68835300D01*
X133350000Y-84582000D02*
X133352067Y-70104000D01*
X134620000Y-86360000D02*
X134620000Y-85852000D01*
X134620000Y-85852000D02*
X133350000Y-84582000D01*
X142240000Y-97028000D02*
X137922000Y-92710000D01*
X142240000Y-101854000D02*
X142240000Y-97028000D01*
X143002000Y-102616000D02*
X142240000Y-101854000D01*
X145034000Y-102616000D02*
X143002000Y-102616000D01*
X148590000Y-107950000D02*
X148590000Y-106172000D01*
X148590000Y-106172000D02*
X145034000Y-102616000D01*
X132080000Y-68835300D02*
X132080000Y-67310000D01*
X130889500Y-70025800D02*
X132080000Y-68835300D01*
X130889500Y-73025000D02*
X130889500Y-70025800D01*
X132080000Y-74215500D02*
X130889500Y-73025000D01*
X132080000Y-86360000D02*
X132080000Y-74215500D01*
X125700400Y-109855000D02*
X125700400Y-101629600D01*
X125700400Y-101629600D02*
X127000000Y-100330000D01*
X125095000Y-111760000D02*
X125095000Y-110460400D01*
X125095000Y-110460400D02*
X125700400Y-109855000D01*
X132080000Y-113665000D02*
X127000000Y-113665000D01*
X127000000Y-113665000D02*
X125095000Y-111760000D01*
X121666000Y-99060000D02*
X123190000Y-99060000D01*
X120650000Y-98044000D02*
X121666000Y-99060000D01*
X132080000Y-89789000D02*
X130452000Y-91417000D01*
X132080000Y-86360000D02*
X132080000Y-89789000D01*
X130452000Y-91417000D02*
X128524000Y-91440000D01*
X120650000Y-96266000D02*
X120650000Y-98044000D01*
X121666000Y-95249800D02*
X120650000Y-96266000D01*
X128524000Y-91440000D02*
X124714000Y-95250000D01*
X124714000Y-95250000D02*
X121666000Y-95249800D01*
X144780000Y-71120000D02*
X144780000Y-78105000D01*
X121565900Y-83185000D02*
X121565900Y-78848700D01*
X122219599Y-78195001D02*
X123190000Y-78195001D01*
X121565900Y-78848700D02*
X122219599Y-78195001D01*
X122624315Y-78105000D02*
X123190000Y-78105000D01*
X122278098Y-78105000D02*
X122624315Y-78105000D01*
X121565900Y-78817198D02*
X122278098Y-78105000D01*
X121565900Y-83185000D02*
X121565900Y-78817198D01*
X117602000Y-88900000D02*
X118364000Y-88138000D01*
X115570000Y-88900000D02*
X117602000Y-88900000D01*
X121565900Y-83185000D02*
X121565900Y-83666100D01*
X121565900Y-83666100D02*
X118364000Y-86868000D01*
X118364000Y-88138000D02*
X118364000Y-86868000D01*
X144780000Y-53595300D02*
X144780000Y-52070000D01*
X146050000Y-54864000D02*
X144780000Y-53595300D01*
X146050000Y-68326000D02*
X146050000Y-54864000D01*
X144780000Y-71120000D02*
X144780000Y-69594700D01*
X144780000Y-69594700D02*
X146050000Y-68326000D01*
X156210000Y-113030000D02*
X156210000Y-121920000D01*
X154940000Y-111760000D02*
X156210000Y-113030000D01*
X152400000Y-101854000D02*
X154940000Y-104394000D01*
X152400000Y-98044000D02*
X152400000Y-101854000D01*
X154940000Y-104394000D02*
X154940000Y-111760000D01*
X144780000Y-83566000D02*
X146050000Y-84836000D01*
X146050000Y-87376000D02*
X145745700Y-87884000D01*
X145745700Y-87884000D02*
X145745700Y-91389700D01*
X144780000Y-78105000D02*
X144780000Y-83566000D01*
X146050000Y-84836000D02*
X146050000Y-87376000D01*
X145745700Y-91389700D02*
X152400000Y-98044000D01*
X135764000Y-87216400D02*
X135764000Y-85303800D01*
X135764000Y-85303800D02*
X134620000Y-84159800D01*
X134620000Y-84159800D02*
X134620000Y-71120000D01*
X135764000Y-87216400D02*
X130510700Y-92469700D01*
X130510700Y-92469700D02*
X128765600Y-92469700D01*
X128765600Y-92469700D02*
X124715300Y-96520000D01*
X123190000Y-96520000D02*
X124715300Y-96520000D01*
X134620000Y-53595300D02*
X134620000Y-52070000D01*
X135890000Y-54864000D02*
X134620000Y-53595300D01*
X135890000Y-68326000D02*
X135890000Y-54864000D01*
X134620000Y-71120000D02*
X134620000Y-69594700D01*
X134620000Y-69594700D02*
X135890000Y-68326000D01*
X137692400Y-89144800D02*
X135764000Y-87216400D01*
X139192000Y-89144800D02*
X137692400Y-89144800D01*
X144780000Y-94742000D02*
X139192000Y-89144800D01*
X153670000Y-113030000D02*
X149860000Y-109220000D01*
X153670000Y-121920000D02*
X153670000Y-113030000D01*
X149860000Y-109220000D02*
X149860000Y-105664000D01*
X145288000Y-102108000D02*
X144780000Y-101600000D01*
X144780000Y-101600000D02*
X144780000Y-94742000D01*
X149860000Y-105664000D02*
X146304000Y-102108000D01*
X146304000Y-102108000D02*
X145288000Y-102108000D01*
X148590000Y-113214100D02*
X148590000Y-121920000D01*
X144780000Y-106680000D02*
X144780000Y-109404100D01*
X143256000Y-105156000D02*
X144780000Y-106680000D01*
X144780000Y-109404100D02*
X148590000Y-113214100D01*
X137160000Y-102235000D02*
X139954000Y-105156000D01*
X139954000Y-105156000D02*
X143256000Y-105156000D01*
X135890000Y-119380000D02*
X135890000Y-121920000D01*
X137160000Y-118110000D02*
X135890000Y-119380000D01*
X140208000Y-118110000D02*
X137160000Y-118110000D01*
X144652500Y-113665500D02*
X140208000Y-118110000D01*
X144652500Y-110801900D02*
X144652500Y-113665500D01*
X129540000Y-74930000D02*
X129540000Y-71120000D01*
X130810000Y-76200000D02*
X129540000Y-74930000D01*
X130810000Y-89916000D02*
X130810000Y-76200000D01*
X130556000Y-90170000D02*
X130810000Y-89916000D01*
X86360000Y-67818000D02*
X86360000Y-69850000D01*
X86360000Y-65024000D02*
X86360000Y-67818000D01*
X146050000Y-106680000D02*
X146050000Y-107950000D01*
X143764000Y-104394000D02*
X146050000Y-106680000D01*
X140208000Y-103886000D02*
X140716000Y-104394000D01*
X140716000Y-104394000D02*
X143764000Y-104394000D01*
X88900000Y-68450000D02*
X88014000Y-67564000D01*
X88900000Y-69850000D02*
X88900000Y-68450000D01*
X88014000Y-67564000D02*
X87630000Y-67564000D01*
X156210000Y-106424700D02*
X156210000Y-107950000D01*
X149541600Y-93153600D02*
X153670000Y-97282000D01*
X153670000Y-97282000D02*
X155702000Y-97282000D01*
X149541600Y-90625700D02*
X149541600Y-93153600D01*
X155702000Y-97282000D02*
X157480000Y-99060000D01*
X157480000Y-105154700D02*
X156210000Y-106424700D01*
X157480000Y-99060000D02*
X157480000Y-105154700D01*
X142240000Y-68834000D02*
X142240000Y-67310000D01*
X140970000Y-83566000D02*
X140970000Y-70104000D01*
X140970000Y-70104000D02*
X142240000Y-68834000D01*
X142240000Y-86360000D02*
X142240000Y-84834700D01*
X142240000Y-84834700D02*
X140970000Y-83566000D01*
X146471000Y-88088100D02*
X146471000Y-91099000D01*
X146471000Y-91099000D02*
X153416000Y-98044000D01*
X156210000Y-99930000D02*
X156210000Y-100330000D01*
X154324000Y-98044000D02*
X156210000Y-99930000D01*
X153416000Y-98044000D02*
X154324000Y-98044000D01*
X143512633Y-70104000D02*
X144780000Y-68834000D01*
X143510000Y-83566000D02*
X143512633Y-70104000D01*
X144780000Y-68834000D02*
X144780000Y-67310000D01*
X144780000Y-86360000D02*
X144780000Y-84834700D01*
X144780000Y-84834700D02*
X143510000Y-83566000D01*
X158750000Y-99060000D02*
X158750000Y-100330000D01*
X147320000Y-86360000D02*
X147320000Y-87331098D01*
X150920902Y-90932000D02*
X150920902Y-93516902D01*
X150920902Y-93516902D02*
X153924000Y-96520000D01*
X153924000Y-96520000D02*
X156210000Y-96520000D01*
X147320000Y-87331098D02*
X150920902Y-90932000D01*
X156210000Y-96520000D02*
X158750000Y-99060000D01*
X136144000Y-91694000D02*
X140716000Y-91694000D01*
X127762000Y-112014000D02*
X128905000Y-110871000D01*
X129413000Y-98425000D02*
X136144000Y-91694000D01*
X129413000Y-110363000D02*
X127762000Y-112014000D01*
X129413000Y-105918000D02*
X129413000Y-110363000D01*
X129413000Y-105918000D02*
X129413000Y-98425000D01*
X129413000Y-106172000D02*
X129413000Y-105918000D01*
X147320000Y-85926500D02*
X147320000Y-86360000D01*
X146050000Y-70104000D02*
X146050000Y-83566000D01*
X147320000Y-84834700D02*
X147320000Y-85926500D01*
X146050000Y-83566000D02*
X147320000Y-84834700D01*
X147320000Y-67310000D02*
X147320000Y-68835300D01*
X147320000Y-68835300D02*
X146050000Y-70104000D01*
X135636000Y-90424000D02*
X139446000Y-90424000D01*
X128270000Y-97790000D02*
X135636000Y-90424000D01*
X128270000Y-97790000D02*
X128270000Y-103632000D01*
X127501349Y-102863349D02*
X128270000Y-103632000D01*
X127000000Y-102362000D02*
X127501349Y-102863349D01*
X126492000Y-111252000D02*
X128270000Y-109474000D01*
X128270000Y-109474000D02*
X128270000Y-108458000D01*
X128270000Y-103632000D02*
X128270000Y-108458000D01*
X128270000Y-108458000D02*
X128270000Y-108717600D01*
X149860000Y-68835300D02*
X149860000Y-67310000D01*
X148590000Y-70104000D02*
X149860000Y-68835300D01*
X148590000Y-83566000D02*
X148590000Y-70104000D01*
X149860000Y-86360000D02*
X149860000Y-84834700D01*
X149860000Y-84834700D02*
X148590000Y-83566000D01*
X129540000Y-84834700D02*
X129785500Y-84589200D01*
X129785500Y-84589200D02*
X129785500Y-80636500D01*
X129785500Y-80636500D02*
X128349600Y-79200600D01*
X128349600Y-79200600D02*
X128349600Y-70025700D01*
X128349600Y-70025700D02*
X129540000Y-68835300D01*
X129540000Y-87885300D02*
X124799500Y-92625800D01*
X129540000Y-86360000D02*
X129540000Y-87885300D01*
X129540000Y-85709900D02*
X129540000Y-86360000D01*
X129540000Y-85709900D02*
X129540000Y-84834700D01*
X129540000Y-67310000D02*
X129540000Y-68835300D01*
X115570000Y-93980000D02*
X120565800Y-93980000D01*
X120565800Y-93980000D02*
X121920000Y-92625800D01*
X124799500Y-92625800D02*
X121920000Y-92625800D01*
X120904000Y-110998000D02*
X120904000Y-106934000D01*
X120565800Y-94572200D02*
X120565800Y-93980000D01*
X120904000Y-106934000D02*
X119634000Y-105664000D01*
X119634000Y-105664000D02*
X119634000Y-95504000D01*
X119634000Y-95504000D02*
X120565800Y-94572200D01*
X92710000Y-117183300D02*
X91783300Y-118110000D01*
X103124000Y-111760000D02*
X95250000Y-111760000D01*
X92710000Y-114300000D02*
X92710000Y-117183300D01*
X95250000Y-111760000D02*
X92710000Y-114300000D01*
X87122000Y-114427000D02*
X83820000Y-111125000D01*
X87122000Y-118618000D02*
X87122000Y-114427000D01*
X83820000Y-111125000D02*
X83820000Y-109093000D01*
X83820000Y-109093000D02*
X83820000Y-109093000D01*
X138430000Y-110490000D02*
X138430000Y-107950000D01*
X137668000Y-111252000D02*
X138430000Y-110490000D01*
X135636000Y-111252000D02*
X137668000Y-111252000D01*
X128270000Y-121920000D02*
X128270000Y-119126000D01*
X132080000Y-116332000D02*
X132080000Y-114808000D01*
X128270000Y-119126000D02*
X130048000Y-117348000D01*
X130048000Y-117348000D02*
X131064000Y-117348000D01*
X131064000Y-117348000D02*
X132080000Y-116332000D01*
X132080000Y-114808000D02*
X135636000Y-111252000D01*
X125233400Y-100826600D02*
X127000000Y-99060000D01*
X125233400Y-109208600D02*
X125233400Y-100826600D01*
X121666000Y-112776000D02*
X125233400Y-109208600D01*
X119126000Y-112776000D02*
X121666000Y-112776000D01*
X123190000Y-121920000D02*
X123190000Y-117602000D01*
X123190000Y-117602000D02*
X122682000Y-117094000D01*
X118158810Y-116380810D02*
X118158810Y-113743190D01*
X118158810Y-113743190D02*
X119126000Y-112776000D01*
X122682000Y-117094000D02*
X118872000Y-117094000D01*
X118872000Y-117094000D02*
X118158810Y-116380810D01*
X92710000Y-119711000D02*
X92710000Y-121920000D01*
X93472000Y-118872000D02*
X92710000Y-119711000D01*
X93980000Y-118872000D02*
X93472000Y-118872000D01*
X103124000Y-114300000D02*
X98552000Y-114300000D01*
X98552000Y-114300000D02*
X93980000Y-118872000D01*
X90170000Y-119888000D02*
X90170000Y-121920000D01*
X90932000Y-119126000D02*
X90170000Y-119888000D01*
X103886000Y-113030000D02*
X99060000Y-113030000D01*
X99060000Y-113030000D02*
X95758000Y-116078000D01*
X95758000Y-116078000D02*
X94488000Y-117348000D01*
X94488000Y-117348000D02*
X93726000Y-117348000D01*
X93726000Y-117348000D02*
X91948000Y-119126000D01*
X91948000Y-119126000D02*
X90932000Y-119126000D01*
X68072000Y-84508000D02*
X67490000Y-85090000D01*
X67490000Y-85090000D02*
X66040000Y-85090000D01*
X68072000Y-78740000D02*
X68072000Y-84508000D01*
X83820000Y-70250000D02*
X88138000Y-74568000D01*
X83820000Y-69850000D02*
X83820000Y-70250000D01*
X88138000Y-82042000D02*
X92202000Y-86106000D01*
X88138000Y-74568000D02*
X88138000Y-82042000D01*
X110490000Y-101600000D02*
X110490000Y-99060000D01*
X116545004Y-87162996D02*
X117094000Y-86614000D01*
X109982000Y-87122000D02*
X116545004Y-87162996D01*
X108204000Y-88900000D02*
X109982000Y-87122000D01*
X108204000Y-98044000D02*
X108204000Y-88900000D01*
X110490000Y-99060000D02*
X109220000Y-99060000D01*
X109220000Y-99060000D02*
X108204000Y-98044000D01*
X122327800Y-79128300D02*
X123492600Y-80293100D01*
X123492600Y-80293100D02*
X123492600Y-82143100D01*
X158750000Y-39624000D02*
X161199100Y-42073100D01*
X158750000Y-38100000D02*
X158750000Y-39624000D01*
X161199100Y-42073100D02*
X161199100Y-82550000D01*
X158750000Y-87109500D02*
X153483000Y-92376500D01*
X161199100Y-82550000D02*
X158750000Y-85090000D01*
X153483000Y-92376500D02*
X153483000Y-94092300D01*
X158750000Y-85090000D02*
X158750000Y-87109500D01*
X97790000Y-119130000D02*
X97790000Y-121920000D01*
X97790000Y-117187000D02*
X97790000Y-119130000D01*
X99407000Y-115570000D02*
X97790000Y-117187000D01*
X100457000Y-115570000D02*
X99407000Y-115570000D01*
X93980000Y-77978000D02*
X93980000Y-80010000D01*
X92710000Y-76708000D02*
X93980000Y-77978000D01*
X101854000Y-67310000D02*
X96520000Y-67310000D01*
X103124000Y-66040000D02*
X101854000Y-67310000D01*
X96520000Y-67310000D02*
X95283400Y-68546600D01*
X95283400Y-68546600D02*
X95283400Y-72009000D01*
X95283400Y-72009000D02*
X92710000Y-74582400D01*
X92710000Y-74582400D02*
X92710000Y-76708000D01*
X90170000Y-73660000D02*
X90170000Y-80010000D01*
X92710000Y-71120000D02*
X90170000Y-73660000D01*
X92710000Y-68580000D02*
X92710000Y-71120000D01*
X101346000Y-66040000D02*
X95250000Y-66040000D01*
X95250000Y-66040000D02*
X92710000Y-68580000D01*
X107950000Y-59436000D02*
X101346000Y-66040000D01*
X127000000Y-96520000D02*
X124714000Y-98806000D01*
X124714000Y-107188000D02*
X123745000Y-108204000D01*
X124714000Y-98806000D02*
X124714000Y-107188000D01*
X66040000Y-92710000D02*
X65532000Y-92710000D01*
X65532000Y-92710000D02*
X64389000Y-91567000D01*
X64389000Y-48260000D02*
X64389000Y-45339000D01*
X64389000Y-48260000D02*
X64389000Y-47371000D01*
X64389000Y-91567000D02*
X64389000Y-48260000D01*
X64389000Y-45339000D02*
X65532000Y-44196000D01*
X65532000Y-44196000D02*
X69850000Y-44196000D01*
X71755000Y-46966000D02*
X69850000Y-46966000D01*
X71755000Y-46990000D02*
X71755000Y-46966000D01*
X71120000Y-68326000D02*
X73025000Y-66421000D01*
X73025000Y-48260000D02*
X71755000Y-46990000D01*
X73025000Y-66421000D02*
X73025000Y-48260000D01*
X67564000Y-95250000D02*
X71120000Y-91694000D01*
X71120000Y-91694000D02*
X71120000Y-68326000D01*
X66040000Y-95250000D02*
X67564000Y-95250000D01*
X65961000Y-49736000D02*
X69850000Y-49736000D01*
X65405000Y-50292000D02*
X65961000Y-49736000D01*
X69596000Y-68326000D02*
X65405000Y-64135000D01*
X65405000Y-64135000D02*
X65405000Y-50292000D01*
X69596000Y-85598000D02*
X69596000Y-68326000D01*
X67564000Y-87630000D02*
X69596000Y-85598000D01*
X66040000Y-87630000D02*
X67564000Y-87630000D01*
X71302000Y-52506000D02*
X69850000Y-52506000D01*
X66040000Y-90170000D02*
X67564000Y-90170000D01*
X67564000Y-90170000D02*
X70358000Y-87376000D01*
X70358000Y-67310000D02*
X72390000Y-65278000D01*
X72390000Y-65278000D02*
X72390000Y-53594000D01*
X70358000Y-87376000D02*
X70358000Y-67310000D01*
X72390000Y-53594000D02*
X71302000Y-52506000D01*
X83820000Y-78740000D02*
X83820000Y-76708000D01*
X83820000Y-76708000D02*
X83820000Y-75184000D01*
X83820000Y-75184000D02*
X82804000Y-74168000D01*
X90170000Y-71374000D02*
X88392000Y-73152000D01*
X90170000Y-68326000D02*
X90170000Y-71374000D01*
X94488000Y-64008000D02*
X90170000Y-68326000D01*
X151130000Y-105664000D02*
X151130000Y-107950000D01*
X147320000Y-101854000D02*
X151130000Y-105664000D01*
X137160000Y-86760000D02*
X138684000Y-88392000D01*
X137160000Y-86360000D02*
X137160000Y-86760000D01*
X138684000Y-88392000D02*
X139192000Y-88392000D01*
X139192000Y-88392000D02*
X145542000Y-94495073D01*
X147320000Y-98878100D02*
X147320000Y-101854000D01*
X145542000Y-94495073D02*
X145542000Y-97028000D01*
X145542000Y-97028000D02*
X147320000Y-98878100D01*
X137160000Y-83566000D02*
X137160000Y-86360000D01*
X135890000Y-82296000D02*
X137160000Y-83566000D01*
X135890000Y-70104000D02*
X135890000Y-82296000D01*
X137160000Y-67310000D02*
X137160000Y-68835300D01*
X137160000Y-68835300D02*
X135890000Y-70104000D01*
X142240000Y-83566000D02*
X142240000Y-71120000D01*
X143510000Y-84836000D02*
X142240000Y-83566000D01*
X149860000Y-96520000D02*
X145034000Y-91694000D01*
X145034000Y-91694000D02*
X145034000Y-89154000D01*
X149860000Y-97790000D02*
X149860000Y-96520000D01*
X145034000Y-89154000D02*
X143529100Y-87630000D01*
X143529100Y-87630000D02*
X143510000Y-87630000D01*
X143510000Y-87630000D02*
X143510000Y-84836000D01*
X142240000Y-53595300D02*
X142240000Y-52070000D01*
X143510000Y-54864000D02*
X142240000Y-53595300D01*
X143510000Y-68326000D02*
X143510000Y-54864000D01*
X142240000Y-71120000D02*
X142240000Y-69594700D01*
X142240000Y-69594700D02*
X143510000Y-68326000D01*
X143510000Y-109475300D02*
X143510000Y-107950000D01*
X143510000Y-113792000D02*
X143510000Y-109475300D01*
X139954000Y-117348000D02*
X143510000Y-113792000D01*
X133350000Y-121920000D02*
X133350000Y-119380000D01*
X135382000Y-117348000D02*
X139954000Y-117348000D01*
X133350000Y-119380000D02*
X135382000Y-117348000D01*
X130810000Y-118872000D02*
X132334000Y-117348000D01*
X132334000Y-117348000D02*
X134112000Y-117348000D01*
X134112000Y-117348000D02*
X134620000Y-116840000D01*
X130810000Y-121920000D02*
X130810000Y-118872000D01*
X134620000Y-116840000D02*
X134620000Y-114554000D01*
X134620000Y-114554000D02*
X135890000Y-113284000D01*
X135890000Y-113284000D02*
X139192000Y-113284000D01*
X140970000Y-111506000D02*
X140970000Y-107950000D01*
X139192000Y-113284000D02*
X140970000Y-111506000D01*
X114046000Y-92709300D02*
X113284000Y-91947300D01*
X124841000Y-72771000D02*
X124841000Y-83185000D01*
X121435700Y-86590300D02*
X121435700Y-90654300D01*
X119380700Y-92709300D02*
X114046000Y-92709300D01*
X124841000Y-83185000D02*
X121435700Y-86590300D01*
X119381400Y-92708600D02*
X119381400Y-92710000D01*
X113284000Y-91186000D02*
X112412990Y-90314990D01*
X121435700Y-90654300D02*
X119381400Y-92708600D01*
X113284000Y-91947300D02*
X113284000Y-91186000D01*
X119381400Y-92710000D02*
X119380700Y-92709300D01*
X112268000Y-90170000D02*
X112776000Y-90678000D01*
X108712000Y-90932000D02*
X109474000Y-90170000D01*
X108712000Y-97028000D02*
X108712000Y-90932000D01*
X118110000Y-119130000D02*
X113792000Y-114808000D01*
X118110000Y-121920000D02*
X118110000Y-119130000D01*
X109474000Y-90170000D02*
X112268000Y-90170000D01*
X113792000Y-114808000D02*
X113792000Y-100584000D01*
X113792000Y-100584000D02*
X111506000Y-97790000D01*
X109474000Y-97790000D02*
X108712000Y-97028000D01*
X111506000Y-97790000D02*
X109474000Y-97790000D01*
X157480000Y-62484000D02*
X157480000Y-52070000D01*
X157480000Y-64262000D02*
X157480000Y-62484000D01*
X158750000Y-65532000D02*
X157480000Y-64262000D01*
X158750000Y-68326000D02*
X158750000Y-65532000D01*
X157480000Y-71120000D02*
X157480000Y-69594700D01*
X157480000Y-69594700D02*
X158750000Y-68326000D01*
X143510000Y-38100000D02*
X143510000Y-37700000D01*
X133350000Y-61595000D02*
X129415000Y-65239000D01*
X134620000Y-49530000D02*
X133350000Y-50800000D01*
X138430000Y-49530000D02*
X134620000Y-49530000D01*
X143510000Y-37465000D02*
X142240000Y-36195000D01*
X143510000Y-38100000D02*
X143510000Y-37465000D01*
X142240000Y-36195000D02*
X140335000Y-36195000D01*
X140335000Y-36195000D02*
X139700000Y-36830000D01*
X139700000Y-36830000D02*
X139700000Y-48260000D01*
X133350000Y-50800000D02*
X133350000Y-61595000D01*
X139700000Y-48260000D02*
X138430000Y-49530000D01*
X113284000Y-103632000D02*
X113284000Y-116840000D01*
X115570000Y-119126000D02*
X115570000Y-121920000D01*
X112522000Y-102870000D02*
X113284000Y-103632000D01*
X113284000Y-116840000D02*
X115570000Y-119126000D01*
X102870000Y-72570000D02*
X101600000Y-71300000D01*
X102870000Y-86106000D02*
X102870000Y-72570000D01*
X104394000Y-87630000D02*
X102870000Y-86106000D01*
X101600000Y-71300000D02*
X101600000Y-69850000D01*
X104394000Y-102870000D02*
X104394000Y-87630000D01*
X113030000Y-119126000D02*
X113030000Y-121920000D01*
X112522000Y-118618000D02*
X113030000Y-119126000D01*
X112526700Y-118613300D02*
X112522000Y-118618000D01*
X112526700Y-104135800D02*
X112526700Y-118613300D01*
X111260900Y-102870000D02*
X112526700Y-104135800D01*
X109347000Y-102870000D02*
X111260900Y-102870000D01*
X107696000Y-101346000D02*
X109347000Y-102870000D01*
X107696000Y-88646000D02*
X107696000Y-101346000D01*
X121675500Y-76614200D02*
X118254600Y-80035100D01*
X118254600Y-80035100D02*
X118254600Y-83127300D01*
X109728000Y-86614000D02*
X107696000Y-88646000D01*
X121666000Y-73914000D02*
X121675500Y-76614200D01*
X118254600Y-83127300D02*
X114767900Y-86614000D01*
X114767900Y-86614000D02*
X109728000Y-86614000D01*
X156210000Y-68326000D02*
X154940000Y-69594700D01*
X156210000Y-54864000D02*
X156210000Y-68326000D01*
X154940000Y-69594700D02*
X154940000Y-71120000D01*
X154940000Y-52070000D02*
X154940000Y-53595300D01*
X154940000Y-53595300D02*
X156210000Y-54864000D01*
X111760000Y-73404700D02*
X109730600Y-71375300D01*
X109730600Y-71375300D02*
X109220000Y-71375300D01*
X111760000Y-74930000D02*
X111760000Y-73404700D01*
X109220000Y-69850000D02*
X109220000Y-71375300D01*
X152400000Y-49530000D02*
X152400000Y-52070000D01*
X153670000Y-45720000D02*
X153670000Y-48260000D01*
X153670000Y-48260000D02*
X152400000Y-49530000D01*
X111760000Y-76455300D02*
X111760000Y-74930000D01*
X110491300Y-77724000D02*
X111760000Y-76455300D01*
X110490048Y-84328000D02*
X110491300Y-77724000D01*
X110490000Y-110998000D02*
X109220000Y-109728000D01*
X110490000Y-121920000D02*
X110490000Y-110998000D01*
X109220000Y-109728000D02*
X109220000Y-106426000D01*
X109220000Y-106426000D02*
X106680000Y-103886000D01*
X106680000Y-103886000D02*
X106680000Y-88138000D01*
X106680000Y-88138000D02*
X110490048Y-84328000D01*
X152400000Y-53595300D02*
X152400000Y-52070000D01*
X153670000Y-54864000D02*
X152400000Y-53595300D01*
X153670000Y-68326000D02*
X153670000Y-54864000D01*
X152400000Y-71120000D02*
X152400000Y-69594700D01*
X152400000Y-69594700D02*
X153670000Y-68326000D01*
X99695000Y-70485000D02*
X99060000Y-69850000D01*
X99695000Y-82550000D02*
X99695000Y-70485000D01*
X107950000Y-119126000D02*
X107950000Y-121920000D01*
X109474000Y-117602000D02*
X107950000Y-119126000D01*
X109474000Y-112143100D02*
X109474000Y-117602000D01*
X106172000Y-108954115D02*
X109474000Y-112143100D01*
X106172000Y-86868000D02*
X106172000Y-108954115D01*
X99695000Y-83964999D02*
X99695000Y-82550000D01*
X100330000Y-84582000D02*
X99695000Y-83964999D01*
X101600000Y-86868000D02*
X100330000Y-85598000D01*
X100330000Y-85598000D02*
X100330000Y-84582000D01*
X157480000Y-84834700D02*
X157480000Y-86360000D01*
X156210000Y-83564700D02*
X157480000Y-84834700D01*
X156210000Y-70104000D02*
X156210000Y-83564700D01*
X157480000Y-67310000D02*
X157480000Y-68834000D01*
X157480000Y-68834000D02*
X156210000Y-70104000D01*
X96520000Y-85725000D02*
X97155000Y-86360000D01*
X96520000Y-69850000D02*
X96520000Y-85725000D01*
X105410000Y-86614000D02*
X105410000Y-101346000D01*
X105664000Y-101600000D02*
X105664000Y-117856000D01*
X105156000Y-86106000D02*
X105410000Y-86614000D01*
X105410000Y-101346000D02*
X105664000Y-101600000D01*
X105664000Y-117856000D02*
X105410000Y-118110000D01*
X105410000Y-118110000D02*
X105410000Y-121920000D01*
X107696000Y-86106000D02*
X105156000Y-86106000D01*
X109220000Y-84582000D02*
X107696000Y-86106000D01*
X153670000Y-70104000D02*
X154940000Y-68834000D01*
X153670000Y-83566000D02*
X153670000Y-70104000D01*
X154940000Y-86360000D02*
X154940000Y-84834700D01*
X154940000Y-68834000D02*
X154940000Y-67310000D01*
X154940000Y-84834700D02*
X153670000Y-83566000D01*
X93980000Y-71300000D02*
X93980000Y-69850000D01*
X92202000Y-73078000D02*
X93980000Y-71300000D01*
X92202000Y-84328000D02*
X92202000Y-73078000D01*
X102870000Y-118110000D02*
X102870000Y-121920000D01*
X104902000Y-101854000D02*
X105156000Y-102108000D01*
X105156000Y-102108000D02*
X105156000Y-115824000D01*
X105156000Y-115824000D02*
X102870000Y-118110000D01*
X109220000Y-82950000D02*
X109220000Y-82550000D01*
X103886000Y-85344000D02*
X106826000Y-85344000D01*
X106826000Y-85344000D02*
X109220000Y-82950000D01*
X103886000Y-85344000D02*
X103886000Y-86106000D01*
X103886000Y-86106000D02*
X104902000Y-87122000D01*
X104902000Y-87122000D02*
X104902000Y-101854000D01*
X152400000Y-67743500D02*
X152400000Y-67310000D01*
X152400000Y-68835300D02*
X152400000Y-67743500D01*
X151130000Y-70104000D02*
X152400000Y-68835300D01*
X151130000Y-83566000D02*
X151130000Y-70104000D01*
X152400000Y-86360000D02*
X152400000Y-84834700D01*
X152400000Y-84834700D02*
X151130000Y-83566000D01*
X140970000Y-38100000D02*
X140970000Y-39625300D01*
X144652300Y-48260000D02*
X146050000Y-49530000D01*
X144652300Y-43307600D02*
X144652300Y-48260000D01*
X140970000Y-39625300D02*
X144652300Y-43307600D01*
X146050000Y-49530000D02*
X146050000Y-53340000D01*
X152400000Y-59690000D02*
X152400000Y-67310000D01*
X146050000Y-53340000D02*
X152400000Y-59690000D01*
X153670000Y-39625300D02*
X149860000Y-43435300D01*
X149860000Y-43435300D02*
X149860000Y-52070000D01*
X153670000Y-38100000D02*
X153670000Y-39625300D01*
X74930000Y-90170000D02*
X73660000Y-90170000D01*
X73660000Y-90170000D02*
X75110000Y-90170000D01*
X96520000Y-118110000D02*
X95250000Y-119380000D01*
X95250000Y-119380000D02*
X95250000Y-121920000D01*
X75692000Y-83058000D02*
X75692000Y-88392000D01*
X75110000Y-90170000D02*
X75692000Y-90752000D01*
X75692000Y-88392000D02*
X75692000Y-90752000D01*
X75692000Y-99568000D02*
X75692000Y-90752000D01*
X85090000Y-107696000D02*
X83820000Y-107696000D01*
X87376000Y-109982000D02*
X85090000Y-107696000D01*
X83820000Y-107696000D02*
X75692000Y-99568000D01*
X89916000Y-113284000D02*
X87376000Y-110744000D01*
X87376000Y-110744000D02*
X87376000Y-109982000D01*
X151003400Y-61693100D02*
X149860000Y-60549700D01*
X151130000Y-68326000D02*
X151003400Y-61693100D01*
X149860000Y-71120000D02*
X149860000Y-69510200D01*
X149860000Y-69510200D02*
X151130000Y-68326000D01*
X81280000Y-33849919D02*
X81280000Y-31750000D01*
X81280000Y-35052000D02*
X81280000Y-33849919D01*
X81280000Y-33087919D02*
X81280000Y-31750000D01*
X111760000Y-27305000D02*
X116840000Y-33020000D01*
X81915000Y-27305000D02*
X111760000Y-27305000D01*
X81280000Y-31750000D02*
X81280000Y-27940000D01*
X81280000Y-27940000D02*
X81915000Y-27305000D01*
X154075698Y-95758000D02*
X151892000Y-93574302D01*
X154112698Y-95795000D02*
X154940000Y-95795000D01*
X151892000Y-93574302D02*
X154112698Y-95795000D01*
X147320000Y-83566000D02*
X147320000Y-71120000D01*
X148590000Y-84836000D02*
X147320000Y-83566000D01*
X148590000Y-87630000D02*
X148590000Y-84836000D01*
X151892000Y-93574302D02*
X151892000Y-90932000D01*
X151892000Y-90932000D02*
X148590000Y-87630000D01*
X125854300Y-62838600D02*
X125854300Y-66675000D01*
X127732900Y-60960000D02*
X125854300Y-62838600D01*
X125854300Y-66675000D02*
X125854300Y-63470800D01*
X125854300Y-75184000D02*
X125854300Y-66675000D01*
X125854300Y-76267298D02*
X125854300Y-75184000D01*
X127635000Y-78047998D02*
X125854300Y-76267298D01*
X127635000Y-82045100D02*
X127635000Y-78047998D01*
X129010300Y-83420400D02*
X127635000Y-82045100D01*
X80010000Y-93980000D02*
X80010000Y-90170000D01*
X79965300Y-77380600D02*
X78740000Y-76155300D01*
X80010000Y-90170000D02*
X79965300Y-77380600D01*
X81700001Y-95670001D02*
X80010000Y-93980000D01*
X81755001Y-95670001D02*
X81700001Y-95670001D01*
X82605000Y-96520000D02*
X81755001Y-95670001D01*
X77470000Y-74885300D02*
X77470000Y-73152000D01*
X79965300Y-77380600D02*
X77470000Y-74885300D01*
X137922000Y-98552000D02*
X138430000Y-99060000D01*
X135128000Y-98552000D02*
X137922000Y-98552000D01*
X134620000Y-99060000D02*
X135128000Y-98552000D01*
X133350000Y-114808000D02*
X135890000Y-112268000D01*
X138430000Y-99060000D02*
X138430000Y-100330000D01*
X138430000Y-112268000D02*
X139700000Y-110744000D01*
X133350000Y-115570000D02*
X133350000Y-114808000D01*
X135890000Y-112268000D02*
X138430000Y-112268000D01*
X134620000Y-101600000D02*
X134620000Y-99060000D01*
X139700000Y-110744000D02*
X139700000Y-106680000D01*
X139700000Y-106680000D02*
X134620000Y-101600000D01*
X80010000Y-62599370D02*
X80010000Y-66040000D01*
X80010000Y-61468000D02*
X80010000Y-62599370D01*
X93980000Y-53084700D02*
X93980000Y-54610000D01*
X90053330Y-53084700D02*
X93980000Y-53084700D01*
X88900000Y-51931370D02*
X90053330Y-53084700D01*
X88900000Y-50800000D02*
X88900000Y-51931370D01*
X87630000Y-50800000D02*
X88900000Y-50800000D01*
X80645000Y-43815000D02*
X87630000Y-50800000D01*
X76294999Y-30385001D02*
X76294999Y-32417001D01*
X77470000Y-29210000D02*
X76294999Y-30385001D01*
X74295000Y-40640000D02*
X77470000Y-43815000D01*
X76294999Y-32417001D02*
X74295000Y-34290000D01*
X74295000Y-34290000D02*
X74295000Y-40640000D01*
X77470000Y-43815000D02*
X80645000Y-43815000D01*
X93559999Y-30059999D02*
X92710000Y-29210000D01*
X100330000Y-44685000D02*
X98190000Y-42545000D01*
X93885001Y-40543591D02*
X93885001Y-30385001D01*
X100330000Y-45720000D02*
X100330000Y-44685000D01*
X98190000Y-42545000D02*
X95886410Y-42545000D01*
X95886410Y-42545000D02*
X93885001Y-40543591D01*
X93885001Y-30385001D02*
X93559999Y-30059999D01*
X116840000Y-44450000D02*
X116840000Y-45720000D01*
X109220000Y-30480000D02*
X109220000Y-33020000D01*
X118110000Y-43180000D02*
X116840000Y-44450000D01*
X107950000Y-29210000D02*
X109220000Y-30480000D01*
X115570000Y-34290000D02*
X118110000Y-36830000D01*
X118110000Y-36830000D02*
X118110000Y-43180000D01*
X109220000Y-33020000D02*
X110490000Y-34290000D01*
X110490000Y-34290000D02*
X115570000Y-34290000D01*
X101600000Y-33020000D02*
X101505001Y-30385001D01*
X100330000Y-56515000D02*
X100330000Y-49530000D01*
X103505000Y-48895000D02*
X104394000Y-48006000D01*
X100330000Y-49530000D02*
X100965000Y-48895000D01*
X104394000Y-35814000D02*
X101600000Y-33020000D01*
X100965000Y-48895000D02*
X103505000Y-48895000D01*
X101505001Y-30385001D02*
X100330000Y-29210000D01*
X104394000Y-48006000D02*
X104394000Y-35814000D01*
X99060000Y-93345000D02*
X99060000Y-96560000D01*
X97934999Y-82950000D02*
X97934999Y-92219999D01*
X98969999Y-81915000D02*
X97934999Y-82950000D01*
X97934999Y-92219999D02*
X99060000Y-93345000D01*
X98969999Y-71751003D02*
X98969999Y-81915000D01*
X109220000Y-54610000D02*
X109220000Y-62865000D01*
X97934990Y-70715994D02*
X98969999Y-71751003D01*
X109220000Y-62865000D02*
X104140000Y-67945000D01*
X98823990Y-67945000D02*
X97934990Y-68834000D01*
X104140000Y-67945000D02*
X98823990Y-67945000D01*
X97934990Y-68834000D02*
X97934990Y-70715994D01*
X94488000Y-97028000D02*
X99060000Y-101600000D01*
X93218000Y-97028000D02*
X94488000Y-97028000D01*
X93980000Y-103090000D02*
X93980000Y-104140000D01*
X92142999Y-101252999D02*
X93980000Y-103090000D01*
X92142999Y-93923631D02*
X92142999Y-101252999D01*
X93610630Y-92456000D02*
X92142999Y-93923631D01*
X94742000Y-92456000D02*
X93610630Y-92456000D01*
X91480000Y-104140000D02*
X92279999Y-104939999D01*
X100838000Y-102362000D02*
X100838000Y-95758000D01*
X92279999Y-104939999D02*
X92279999Y-104979999D01*
X92279999Y-104979999D02*
X93218000Y-105918000D01*
X93218000Y-105918000D02*
X97282000Y-105918000D01*
X97282000Y-105918000D02*
X100838000Y-102362000D01*
X102470000Y-91440000D02*
X102870000Y-91440000D01*
X100838000Y-93072000D02*
X102470000Y-91440000D01*
X100838000Y-95758000D02*
X100838000Y-93072000D01*
X102870000Y-91440000D02*
X102870000Y-88900000D01*
X101420000Y-88900000D02*
X102870000Y-88900000D01*
X101103630Y-88900000D02*
X101420000Y-88900000D01*
X99060000Y-86856370D02*
X101103630Y-88900000D01*
X99060000Y-85725000D02*
X99060000Y-86856370D01*
X120505300Y-115570000D02*
X119380000Y-115570000D01*
X121902300Y-114173000D02*
X120505300Y-115570000D01*
X128210919Y-114173000D02*
X121902300Y-114173000D01*
X130810000Y-115570000D02*
X129607919Y-115570000D01*
X129607919Y-115570000D02*
X128210919Y-114173000D01*
X90170000Y-41275000D02*
X90170000Y-38100000D01*
X93980000Y-42545000D02*
X91440000Y-42545000D01*
X91440000Y-42545000D02*
X90170000Y-41275000D01*
X106680000Y-33020000D02*
X105410000Y-34290000D01*
X105410000Y-29210000D02*
X106680000Y-30480000D01*
X106680000Y-30480000D02*
X106680000Y-33020000D01*
X101600000Y-50800000D02*
X103505000Y-50800000D01*
X103505000Y-50800000D02*
X104902000Y-49403000D01*
X104902000Y-34798000D02*
X106680000Y-33020000D01*
X104902000Y-49403000D02*
X104902000Y-34798000D01*
X96520000Y-41910000D02*
X95250000Y-40640000D01*
X95250000Y-40640000D02*
X95250000Y-38100000D01*
X103378000Y-41910000D02*
X96520000Y-41910000D01*
X111760000Y-53084700D02*
X111760000Y-54610000D01*
X110995500Y-52320200D02*
X111760000Y-53084700D01*
X106172000Y-42926000D02*
X106172000Y-50292000D01*
X108200200Y-52320200D02*
X110995500Y-52320200D01*
X106172000Y-50292000D02*
X108200200Y-52320200D01*
X96520000Y-40640000D02*
X96471000Y-31750000D01*
X96471000Y-31750000D02*
X96471000Y-30431000D01*
X96471000Y-30431000D02*
X95250000Y-29210000D01*
X115570000Y-60198000D02*
X115570000Y-72134700D01*
X116840000Y-73404700D02*
X116840000Y-74930000D01*
X115570000Y-72134700D02*
X116840000Y-73404700D01*
X105410000Y-41656000D02*
X105410000Y-60198000D01*
X105918000Y-41148000D02*
X105410000Y-41656000D01*
X92710000Y-45720000D02*
X92710000Y-45975300D01*
X92710000Y-49530000D02*
X95250000Y-52070000D01*
X92710000Y-45720000D02*
X92710000Y-49530000D01*
X95250000Y-52070000D02*
X95250000Y-56515000D01*
X95250000Y-56515000D02*
X95250000Y-56515000D01*
X77500000Y-39975000D02*
X81830001Y-44305001D01*
X81830001Y-44305001D02*
X85150000Y-47625000D01*
X85150000Y-47625000D02*
X91440000Y-47625000D01*
X91440000Y-47625000D02*
X91440000Y-47625000D01*
X116840000Y-38100000D02*
X116840000Y-39625300D01*
X106680000Y-82550000D02*
X106680000Y-81024700D01*
X106680000Y-81024700D02*
X105489400Y-79834100D01*
X112885400Y-55875600D02*
X112885400Y-43579900D01*
X112885400Y-43579900D02*
X116840000Y-39625300D01*
X111611000Y-57150000D02*
X111611000Y-63649000D01*
X111611000Y-57150000D02*
X112885400Y-55875600D01*
X111611000Y-63649000D02*
X109855000Y-65405000D01*
X107394400Y-65405000D02*
X105489400Y-67310000D01*
X109855000Y-65405000D02*
X107394400Y-65405000D01*
X105489400Y-79834100D02*
X105489400Y-67310000D01*
X125730000Y-40384700D02*
X121920000Y-44194700D01*
X148590000Y-27940000D02*
X147955000Y-27305000D01*
X149860000Y-31750000D02*
X148590000Y-30480000D01*
X121920000Y-44194700D02*
X121920000Y-45720000D01*
X147955000Y-27305000D02*
X126365000Y-27305000D01*
X126365000Y-27305000D02*
X125730000Y-27940000D01*
X148590000Y-30480000D02*
X148590000Y-27940000D01*
X125730000Y-27940000D02*
X125730000Y-40384700D01*
X116840000Y-30480000D02*
X118110000Y-31750000D01*
X119380000Y-38100000D02*
X119380000Y-36195000D01*
X119380000Y-36195000D02*
X118110000Y-34925000D01*
X118110000Y-31750000D02*
X118110000Y-34925000D01*
X119380000Y-47623700D02*
X119380000Y-45720000D01*
X107188000Y-88392000D02*
X109474000Y-86106000D01*
X107188000Y-101854000D02*
X107188000Y-88392000D01*
X115570000Y-83347700D02*
X115570000Y-80884700D01*
X109474000Y-86106000D02*
X112811700Y-86106000D01*
X110490000Y-104140000D02*
X109415610Y-104140000D01*
X109415610Y-104140000D02*
X107188000Y-101854000D01*
X120505300Y-73438200D02*
X119492900Y-72425800D01*
X119492900Y-72425800D02*
X119492900Y-64899000D01*
X120505300Y-75949400D02*
X120505300Y-73438200D01*
X112811700Y-86106000D02*
X115570000Y-83347700D01*
X119492900Y-64899000D02*
X122253100Y-62138800D01*
X115570000Y-80884700D02*
X120505300Y-75949400D01*
X122253100Y-62138800D02*
X122253100Y-58287800D01*
X122253100Y-58287800D02*
X120905300Y-56940000D01*
X120905300Y-56940000D02*
X120905300Y-49149000D01*
X120905300Y-49149000D02*
X119380000Y-47623700D01*
X114300000Y-81024700D02*
X114300000Y-82550000D01*
X118110000Y-77214700D02*
X114300000Y-81024700D01*
X118110000Y-65176200D02*
X118110000Y-77214700D01*
X124460000Y-38100000D02*
X124460000Y-40005000D01*
X121790300Y-61495900D02*
X118110000Y-65176200D01*
X121790300Y-59055000D02*
X121790300Y-61495900D01*
X118110000Y-55245000D02*
X121790300Y-59055000D01*
X118110000Y-44450000D02*
X118110000Y-55245000D01*
X124460000Y-40005000D02*
X121920000Y-42545000D01*
X121920000Y-42545000D02*
X120203221Y-42545000D01*
X120203221Y-42545000D02*
X118110000Y-44450000D01*
X106680000Y-73404700D02*
X106680000Y-74930000D01*
X114300000Y-45720000D02*
X114300000Y-48387000D01*
X114300000Y-48387000D02*
X115490500Y-49577500D01*
X115490500Y-49577500D02*
X115490500Y-55428300D01*
X107842800Y-72241900D02*
X106680000Y-73404700D01*
X113665000Y-57253800D02*
X113665000Y-64770000D01*
X115490500Y-55428300D02*
X113665000Y-57253800D01*
X113665000Y-64770000D02*
X111760000Y-66675000D01*
X109112800Y-66675000D02*
X107842800Y-67945000D01*
X111760000Y-66675000D02*
X109112800Y-66675000D01*
X107842800Y-67945000D02*
X107842800Y-72241900D01*
X148590000Y-43434000D02*
X148590000Y-45720000D01*
X139700000Y-31750000D02*
X144780000Y-36830000D01*
X144780000Y-39624000D02*
X148590000Y-43434000D01*
X144780000Y-36830000D02*
X144780000Y-39624000D01*
X129540000Y-31750000D02*
X129540000Y-33756400D01*
X129540000Y-33756400D02*
X138430000Y-42646400D01*
X138430000Y-42646400D02*
X138430000Y-45720000D01*
X116440000Y-97790000D02*
X114776700Y-97790000D01*
X123190000Y-104140000D02*
X122790000Y-104140000D01*
X112522000Y-92022000D02*
X112522000Y-95535300D01*
X111940000Y-91440000D02*
X112522000Y-92022000D01*
X110490000Y-91440000D02*
X111940000Y-91440000D01*
X114776700Y-97790000D02*
X112522000Y-95535300D01*
X117964000Y-99314000D02*
X117964000Y-103740000D01*
X117964000Y-99314000D02*
X116440000Y-97790000D01*
X117964000Y-103740000D02*
X118364000Y-104140000D01*
X102870000Y-96520000D02*
X102870000Y-99060000D01*
X87122000Y-95812000D02*
X88338000Y-97028000D01*
X87122000Y-92456000D02*
X87122000Y-95812000D01*
X114044700Y-99060000D02*
X115570000Y-99060000D01*
X110490000Y-96520000D02*
X112015300Y-96520000D01*
X112015300Y-96520000D02*
X112015300Y-96521300D01*
X113030000Y-97536000D02*
X113030000Y-98045300D01*
X112015300Y-96521300D02*
X113030000Y-97536000D01*
X113030000Y-98045300D02*
X114044700Y-99060000D01*
X80010000Y-29210000D02*
X78834999Y-30385001D01*
X78740000Y-35052000D02*
X78740000Y-33849919D01*
X78740000Y-30480000D02*
X80010000Y-29210000D01*
X78740000Y-35052000D02*
X78740000Y-30480000D01*
X85090000Y-29210000D02*
X83820000Y-30480000D01*
X83820000Y-30480000D02*
X83820000Y-33020000D01*
X83820000Y-30480000D02*
X83820000Y-35052000D01*
X83020001Y-85560001D02*
X81534000Y-84074000D01*
X83820000Y-86360000D02*
X83020001Y-85560001D01*
X67440000Y-69850000D02*
X68580000Y-70990000D01*
X66040000Y-69850000D02*
X67440000Y-69850000D01*
X68580000Y-70990000D02*
X68580000Y-71628000D01*
X68580000Y-71374000D02*
X68580000Y-71628000D01*
X68580000Y-71628000D02*
X68580000Y-77216000D01*
M02*
